<?xml version="1.0" encoding="utf-8"?>
<!-- Generator: $$$/GeneralStr/196=Adobe Illustrator 27.6.0, SVG Export Plug-In . SVG Version: 6.00 Build 0)  -->
<svg version="1.1" id="Capa_1" xmlns="http://www.w3.org/2000/svg" xmlns:xlink="http://www.w3.org/1999/xlink" x="0px" y="0px"
	 viewBox="0 0 250 100" style="enable-background:new 0 0 250 100;" xml:space="preserve">
<style type="text/css">
	.st0{fill:#777777;}
</style>
<g>
	<path class="st0" d="M165.1,39.4c0,1.3,0,2.6,0,3.9c0,1.1,0.5,1.8,1.5,1.9c0.6,0.1,0.7,0.3,0.6,0.9c-0.1,0.5-0.4,0.5-0.8,0.5
		c-2.3,0-4.6,0-6.9,0c-0.4,0-0.8,0-0.9-0.6c-0.1-0.5,0.1-0.7,0.7-0.9c1-0.2,1.4-0.6,1.4-1.6c0-2.6,0-5.2,0-7.8
		c0-0.7-0.2-1.3-0.7-1.9c-1.2-1.4-4-1-4.8,0.6c-0.1,0.3-0.2,0.6-0.2,0.9c0,2.6,0,5.3,0,7.9c0,1.1,0.4,1.7,1.5,1.8
		c0.5,0,0.7,0.3,0.6,0.9c0,0.5-0.3,0.6-0.7,0.6c-1.1-0.1-2.2-0.1-3.3-0.2c-1.1,0-2.3,0.1-3.4,0.1c-0.2,0-0.4,0-0.6,0
		c-0.4,0-0.6-0.2-0.7-0.7c0-0.4,0.1-0.7,0.6-0.8c0.2,0,0.3,0,0.5,0c0.6-0.1,1-0.5,1.1-1.1c0.2-1.8,0-3.5,0.1-5.3
		c0.1-1.4,0-2.8-0.1-4.1c0-0.4-0.2-0.8-0.5-1c-0.1-0.1-0.3-0.2-0.4-0.3c-0.3-0.2-0.6-0.4-0.5-0.8c0-0.4,0.3-0.6,0.7-0.7
		c1-0.3,1.9-0.7,2.8-1.1c0.4-0.2,0.9-0.4,1.3-0.6c0.8-0.4,1.1-0.2,1.1,0.6c0,0.4,0,0.7,0,1.1c0,0.4,0.2,0.4,0.5,0.3
		c0.7-0.4,1.4-0.8,2.1-1.1c1.7-0.7,3.4-0.9,5.2-0.1c0.6,0.3,1.2,0.7,1.5,1.3c0.2,0.4,0.5,0.4,0.9,0.2c0.9-0.5,1.8-1.1,2.7-1.5
		c1.6-0.7,3.2-0.7,4.8-0.1c1.5,0.7,2.2,2,2.4,3.6c0.3,2.4,0.1,4.8,0.1,7.2c0,0.7,0.1,1.5,0.1,2.2c0,0.6,0.4,1,1,1.1
		c0.2,0,0.5,0.1,0.7,0.1c0.5,0,0.7,0.4,0.6,0.8c0,0.5-0.4,0.5-0.8,0.5c-1.2,0-2.4-0.1-3.6-0.1c-1.3,0-2.6,0.1-3.9,0.1
		c-0.5,0-0.7-0.2-0.7-0.7c0-0.3,0.2-0.6,0.5-0.6c1.3,0,1.6-0.7,1.6-1.8c0-1.9,0-3.9,0-5.8c0-0.8,0-1.5-0.1-2.3c-0.4-2-2.3-2.4-3.8-2
		c-1.2,0.3-2,1.2-1.9,2.6C165.2,37,165.1,38.2,165.1,39.4C165.1,39.4,165.1,39.4,165.1,39.4z"/>
	<path class="st0" d="M163.8,73.8c0,1.2,0,2.5,0,3.7c0,0.3,0.1,0.6,0.1,0.8c0.1,0.8,0.5,1.2,1.4,1.3c0.6,0.1,0.8,0.4,0.8,0.8
		c0,0.5-0.3,0.6-0.7,0.6c-1.3,0-2.7-0.1-4-0.1c-1.1,0-2.2,0.1-3.4,0.1c-0.4,0-0.7-0.1-0.8-0.5c0-0.4,0.1-0.8,0.6-0.9
		c0.1,0,0.1,0,0.2,0c1.4-0.3,1.6-0.6,1.7-2c0-0.3,0-0.6,0-1c0-6,0-12,0-18c0-0.4,0-0.8-0.1-1.2c-0.1-0.6-0.4-1-0.9-1.3
		c-0.2-0.1-0.4-0.2-0.5-0.5c-0.3-0.4-0.2-0.9,0.3-1c1.6-0.5,3.1-1.1,4.6-1.7c0.6-0.2,1.1,0.1,1,0.7c-0.3,2.8-0.2,5.6-0.2,8.4
		c0,1.3,0,2.6,0,3.9c0,0.2-0.1,0.4,0.1,0.5c0.2,0.1,0.3-0.1,0.5-0.2c1.4-0.9,2.9-1.5,4.5-1.5c2.4,0.1,4.2,1.3,4.7,3.9
		c0.1,0.6,0.2,1.2,0.2,1.8c0,2.2,0,4.3,0,6.5c0,0.5,0,0.9,0.1,1.4c0.1,0.7,0.4,1,1.2,1.2c0.3,0,0.5,0.1,0.8,0.1
		c0.4,0.1,0.5,0.5,0.5,0.9c0,0.4-0.3,0.5-0.6,0.5c-1,0-2,0-3-0.1c-1.5-0.1-2.9,0.1-4.4,0.1c-0.4,0-0.8,0-0.8-0.6
		c0-0.5,0.1-0.7,0.7-0.8c1.1-0.2,1.4-0.6,1.4-1.7c0-2.5,0-5,0-7.6c0-1.1-0.4-2.1-1.4-2.6c-1-0.5-2.1-0.4-3.2,0.1
		c-0.9,0.5-1.3,1.2-1.2,2.2C163.9,71.4,163.8,72.6,163.8,73.8C163.8,73.8,163.8,73.8,163.8,73.8z"/>
	<path class="st0" d="M183.3,19.8c-0.2,3.7-0.1,7.3-0.1,10.9c0,0.8,0.1,0.8,0.8,0.5c2.6-1.3,5.2-1.2,7.6,0.4c1.5,1,2.4,2.5,2.8,4.2
		c0.5,1.9,0.4,3.7-0.2,5.5c-0.9,2.5-2.6,4.1-5.1,5c-1.9,0.7-3.8,0.8-5.7,0.4c-0.8-0.2-1.6-0.4-2.4-0.7c-0.5-0.2-0.9-0.2-1.3,0.2
		c-0.2,0.2-0.5,0.4-0.8,0.2c-0.3-0.2-0.3-0.5-0.3-0.8c0.1-0.4,0.1-0.8,0.1-1.2c0-7,0-13.9,0-20.9c0-0.9-0.3-1.6-1-2
		c-0.3-0.2-0.6-0.5-0.5-0.9c0.1-0.4,0.4-0.5,0.7-0.6c1.3-0.5,2.7-1,4-1.5c1-0.4,1.2-0.2,1.2,0.9C183.3,19.6,183.3,19.7,183.3,19.8z
		 M183.1,37.8C183.1,37.8,183.1,37.8,183.1,37.8c0,0.6,0,1.2,0,1.8c0,1.1,0,2.2,0.3,3.3c0.7,2.2,3.5,3,5.2,1.4c1-1,1.4-2.2,1.5-3.6
		c0.2-1.9,0.1-3.8-0.9-5.5c-1-1.8-3-2.8-4.8-2.3c-1.1,0.3-1.3,0.6-1.3,1.7C183.1,35.6,183.1,36.7,183.1,37.8z"/>
	<path class="st0" d="M43,37c-0.9,0-1.8,0-2.8,0c-0.4,0-0.7,0.1-0.8,0.5c-0.6,2-1.3,3.9-1.9,5.9c-0.1,0.2-0.1,0.5-0.1,0.7
		c-0.1,0.4,0.1,0.7,0.5,0.8c0.4,0.1,0.8,0.2,1.3,0.2c0.5,0.1,0.6,0.4,0.6,0.8c0,0.5-0.3,0.7-0.7,0.7c-1,0-2-0.1-2.9-0.1
		c-1.4-0.1-2.7,0-4.1,0.1c-0.7,0-0.9-0.2-0.8-0.9c0-0.3,0.2-0.5,0.5-0.5c0.4-0.1,0.8-0.2,1.2-0.2c0.7-0.2,1.1-0.6,1.4-1.2
		c0.7-1.6,1.4-3.3,2-4.9c1.2-3.2,2.4-6.3,3.6-9.5c0.7-1.9,1.4-3.8,2.1-5.7c0-0.1,0.1-0.2,0.1-0.3c0-1,0.5-1.6,1.4-2
		c0.5-0.2,0.8-0.6,1.2-0.9c0.5-0.4,1-0.3,1.2,0.4c0.4,1.3,0.8,2.6,1.3,3.9c0.8,2.3,1.6,4.7,2.4,7c1.2,3.5,2.3,7.1,3.6,10.6
		c0.1,0.4,0.3,0.7,0.4,1.1c0.4,1.3,1.3,1.8,2.5,1.9c0.5,0,0.7,0.2,0.8,0.7c0,0.5-0.2,0.8-0.7,0.8c-1.4,0-2.7-0.1-4.1-0.2
		c-1.2,0-2.3,0.1-3.5,0.1c-0.4,0-0.9,0-1.3,0c-0.5,0-0.7-0.3-0.7-0.7c0-0.4,0.2-0.7,0.6-0.7c0.2,0,0.4,0,0.6,0
		c0.9,0,1.2-0.4,0.9-1.2c-0.4-1.6-1-3.1-1.5-4.6c-0.2-0.5-0.4-0.9-0.5-1.4c-0.2-0.6-0.5-0.8-1.1-0.8C44.9,37,44,37,43,37
		C43,37,43,37,43,37z M45.3,34.9c0.6,0,0.7-0.2,0.5-0.8c-0.8-2.3-1.6-4.7-2.3-7c0-0.1-0.1-0.3-0.2-0.3c-0.2,0-0.2,0.1-0.2,0.3
		c-0.8,2.3-1.7,4.7-2.5,7c-0.2,0.6-0.1,0.7,0.5,0.7C42.5,34.9,43.9,34.8,45.3,34.9z"/>
	<path class="st0" d="M74,38.1c0.1,2.3-0.7,4.3-2.1,6c-1.1,1.2-2.5,2-4,2.4c-2.4,0.7-4.7,0.5-7-0.3c-0.7-0.3-1.3-0.4-1.9,0.2
		c-0.4,0.4-0.9,0-0.9-0.5c0-0.6,0-1.2,0.1-1.8c0.1-0.4,0.1-0.9,0.1-1.3c0-6.1,0-12.2,0-18.2c0-0.3,0-0.5,0-0.8
		c0-0.9-0.3-1.6-1.1-2.1c-0.3-0.2-0.6-0.5-0.5-0.9c0.1-0.4,0.4-0.5,0.8-0.6c1.4-0.4,2.7-1.1,4.1-1.5c0.8-0.3,1.1-0.1,1.1,0.8
		c-0.2,3.7-0.1,7.4-0.1,11.1c0,1.1,0,1.1,1,0.6c2.3-1.2,5.7-0.9,7.8,0.7C72.8,33,74.1,35.6,74,38.1z M62.3,37.5
		c-0.1,1.7,0.2,3.4,0.4,5.1c0.2,1.3,1.3,2.4,2.5,2.5c1.7,0.2,3-0.6,3.7-2.2c0.6-1.5,0.7-3,0.5-4.6c-0.1-1.4-0.5-2.7-1.4-3.8
		c-1-1.3-2.9-2.2-4.7-1.6c-0.6,0.2-0.9,0.6-0.9,1.2C62.3,35.2,62.2,36.3,62.3,37.5z"/>
	<path class="st0" d="M109.3,62.2c0,1.3,0,2.6,0,3.9c0,0.6,0.1,0.8,0.8,0.8c1.6,0,3.2,0.1,4.8-0.1c0.7-0.1,1.2-0.4,1.4-1
		c0.2-0.5,0.3-1,0.4-1.5c0.1-0.5,0.4-0.7,0.9-0.7c0.5,0,0.7,0.3,0.6,0.8c-0.1,1.6-0.1,3.2-0.1,4.8c0,0.7,0.1,1.4,0.1,2.1
		c0,0.5-0.2,0.8-0.6,0.8c-0.5,0.1-0.7-0.2-0.9-0.7c-0.1-0.5-0.2-1-0.4-1.6c-0.2-0.6-0.8-1-1.4-1.1c-1.6-0.1-3.1-0.1-4.7-0.1
		c-0.7,0-0.8,0.1-0.8,0.8c0,2.2,0,4.4,0,6.6c0,0.7,0,1.5,0.2,2.2c0.2,0.5,0.5,0.7,1,0.8c0.6,0.1,1.3,0.2,1.9,0.3
		c0.5,0.1,0.8,0.3,0.7,0.8c-0.1,0.5-0.4,0.7-0.9,0.6c-2.4-0.2-4.8-0.1-7.2-0.1c-1,0-2-0.1-2.9,0.1c-0.5,0.1-0.7-0.1-0.8-0.6
		c0-0.4,0.1-0.7,0.6-0.8c0.3,0,0.6-0.1,0.9-0.1c1.2-0.1,1.4-0.5,1.6-1.8c0-0.2,0-0.4,0-0.5c0-6.1,0-12.1,0-18.2c0-0.1,0-0.1,0-0.2
		c-0.1-1.8-0.5-2.2-2-2.3c-0.3,0-0.5-0.1-0.7-0.4c-0.3-0.5,0.1-1.1,0.7-1c0.4,0,0.9,0,1.3,0c2.1,0,4.1,0,6.2,0c3,0,5.9,0,8.9,0
		c0.6,0,0.7,0.1,0.7,0.7c0,1.5,0,3.1,0,4.6c0,0.6-0.2,0.8-0.7,0.9c-0.5,0.1-0.8-0.2-0.9-0.7c-0.1-0.4-0.2-0.9-0.4-1.3
		c-0.4-1.2-1.2-1.8-2.4-2c-1.7-0.3-3.4-0.1-5.2-0.2c-0.5,0-0.7,0.2-0.8,0.7c0,0.2-0.1,0.5-0.1,0.7C109.3,59.7,109.3,61,109.3,62.2
		C109.3,62.2,109.3,62.2,109.3,62.2z"/>
	<path class="st0" d="M89.4,66.8c0.7,0,1.9,0,3-0.1c0.3,0,0.5,0,0.7,0.2c0.3,0.3,0.1,0.8-0.3,1c-0.4,0.1-0.9,0.2-1.3,0.3
		c-1.2,0.3-1.8,1.1-2.3,2.1c-1,1.7-2.1,3.4-3.2,5c-0.3,0.4-0.3,0.8,0,1.2c0.8,1.1,1.6,2.2,2.9,2.7c1,0.4,2.1,0.3,3-0.2
		c0.1-0.1,0.2-0.1,0.3-0.2c0.3-0.2,0.6-0.2,0.9,0.1c0.2,0.3,0,0.6-0.2,0.8c-1.6,1.5-3.4,2-5.5,1.8c-0.4,0-0.7-0.1-1.1-0.2
		c-1.2-0.2-2-1-2.6-2c-0.4-0.6-0.4-0.6-0.9-0.1c-2.3,2.1-4.9,2.8-7.9,1.9c-1.7-0.5-2.7-1.8-3.2-3.4c-0.8-2.6,0.2-4.6,2.1-6.2
		c0.4-0.4,0.9-0.7,1.4-1c0.4-0.2,0.4-0.4,0.1-0.6c-0.7-0.6-1.1-1.3-1.4-2.2c-0.5-1.5,0.2-3.6,1.6-4.6c1.3-0.9,2.7-1.3,4.3-0.8
		c1.4,0.4,2.3,1.3,2.7,2.7c0.3,1.3,0.1,2.6-1,3.5c-0.3,0.3-0.6,0.5-1,0.7c-0.3,0.2-0.3,0.4,0,0.6c0.3,0.3,0.7,0.6,1,0.8
		c1.1,1,2,2.1,2.8,3.4c0.3,0.5,0.4,0.4,0.6,0c1-1.6,1.8-3.2,2.5-4.9c0.2-0.5,0.1-0.7-0.5-0.8c-0.2,0-0.3-0.1-0.5-0.1
		c-0.4-0.1-0.6-0.3-0.6-0.7c0-0.4,0.3-0.5,0.7-0.5C87.5,66.8,88.2,66.8,89.4,66.8z M78.3,79c1.8-0.1,2.9-0.5,3.8-1.3
		c0.3-0.3,0.4-0.6,0.1-0.9c-0.5-0.7-1-1.5-1.5-2.2c-1-1.3-2.1-2.4-3.4-3.3c-0.3-0.2-0.6-0.2-1,0c-1.4,1.1-2,3-1.6,4.7
		C75.1,77.6,77,79.1,78.3,79z M79.8,65.6c0-0.4-0.1-0.9-0.2-1.3c-0.4-1-1.8-1.3-2.5-0.5c-0.6,0.7-0.7,2-0.2,2.8
		c0.4,0.6,0.9,1.2,1.5,1.7c0.3,0.2,0.6,0.2,0.8-0.1C79.7,67.4,79.8,66.5,79.8,65.6z"/>
	<path class="st0" d="M139.5,47c-1.7,0.1-3.2-0.3-4.5-1.1c-1.8-1-3-2.6-3.5-4.7c-0.4-1.9-0.4-3.8,0.4-5.7c1.1-2.6,3.1-4.3,5.8-4.9
		c2-0.5,4-0.3,5.9,0.6c2.2,1.1,3.6,2.8,4.1,5.1c0.6,2.8,0.2,5.5-1.6,7.8c-1.1,1.4-2.6,2.2-4.4,2.6C140.9,46.9,140.2,47.1,139.5,47z
		 M143.2,39.4c0-1.1,0-1.9-0.2-2.8c-0.3-1.2-0.6-2.3-1.3-3.2c-1.3-1.7-3.7-1.5-4.7,0.4c-0.3,0.6-0.5,1.4-0.7,2.1
		c-0.3,1.2-0.3,2.5-0.2,3.7c0.1,1.4,0.4,2.8,1.2,4c0.7,1,1.6,1.7,2.9,1.5c1.2-0.1,1.9-0.9,2.3-2C143,41.9,143.2,40.5,143.2,39.4z"/>
	<path class="st0" d="M84.3,37.4c-1.3,0-2.5,0-3.8,0c-0.4,0-0.6,0.2-0.6,0.6c0.2,2.7,1.6,5.2,4.6,5.7c1.7,0.3,3.2,0,4.3-1.5
		c0.2-0.3,0.5-0.5,0.8-0.2c0.3,0.2,0.6,0.5,0.3,1c-1.1,2.1-2.7,3.5-5,4c-4,0.7-7.7-1.4-8.6-5.5c-0.6-2.6-0.3-5.1,1.2-7.4
		c1.4-2.2,3.4-3.3,6-3.5c1.9-0.2,3.6,0.3,5,1.5c1.2,1,1.7,2.4,1.7,3.9c0,0.7-0.4,1.1-1,1.3c-0.5,0.1-0.9,0.2-1.4,0.2
		C86.6,37.4,85.5,37.4,84.3,37.4z M83,35.5c0.8,0,1.7,0.1,2.6-0.2c0.3-0.1,0.5-0.2,0.6-0.6c0.2-1.2-0.4-2.2-1.6-2.5
		c-1.9-0.5-3.6,1-4.2,2.7c-0.1,0.4,0.1,0.6,0.5,0.6C81.5,35.5,82.2,35.5,83,35.5z"/>
	<path class="st0" d="M213,37.4c-1.3,0-2.6,0-3.9,0c-0.4,0-0.6,0.2-0.5,0.5c0.1,2.8,1.6,5.3,4.6,5.8c1.6,0.3,3.2,0,4.3-1.5
		c0.2-0.2,0.4-0.4,0.7-0.3c0.3,0.1,0.6,0.4,0.5,0.8c0,0.6-0.4,1.1-0.8,1.6c-1.4,1.8-3.3,2.7-5.5,2.8c-3.5,0.1-6.4-1.9-7.3-5.5
		c-0.7-2.8-0.3-5.4,1.3-7.7c1.3-2,3.3-3.1,5.7-3.4c2.1-0.2,4,0.3,5.5,1.9c1,1.1,1.3,2.5,1.2,4c-0.1,0.6-0.7,1-1.7,1
		C215.6,37.4,214.3,37.4,213,37.4C213,37.4,213,37.4,213,37.4z M211.6,35.5c0.7-0.1,1.6,0.1,2.5-0.2c0.5-0.2,0.8-0.5,0.7-1
		c-0.2-1.5-1.1-2.3-2.6-2.2c-1.7,0.1-2.7,1.1-3.3,2.6c-0.2,0.5-0.1,0.7,0.5,0.7C210.1,35.5,210.7,35.5,211.6,35.5z"/>
	<path class="st0" d="M113.5,30.4c0.8,0,1.5,0.1,2.2,0.2c0.7,0.1,1.1,0.6,1.3,1.3c0.2,0.8,0.2,1.6-0.2,2.4c-0.4,0.8-1,0.8-1.5,0.2
		c-0.4-0.5-0.8-1-1.3-1.4c-1.3-1.3-3.3-1.2-4.6,0c-1.1,1-1.6,2.3-1.8,3.7c-0.2,2.1,0.2,4,1.7,5.6c1.1,1.1,2.5,1.5,4.1,1.4
		c1.3-0.1,2.3-0.5,3.1-1.6c0.3-0.4,0.6-0.5,1-0.2c0.4,0.3,0.4,0.7,0.2,1.1c-1,2.1-2.8,3.3-5,3.7c-3.8,0.7-7.8-1-9-5.3
		c-0.9-3.2-0.1-6.1,2.2-8.5c1.6-1.7,3.7-2.5,6-2.6C112.5,30.5,113.1,30.4,113.5,30.4z"/>
	<path class="st0" d="M131.4,73c0-1.6,0-3.2,0-4.7c0-0.7-0.1-0.8-0.8-0.8c-0.2,0-0.4,0-0.6,0c-0.4,0-0.7-0.2-0.8-0.6
		c-0.1-0.4,0.1-0.7,0.5-0.8c0.7-0.3,1.3-0.6,1.9-1c1.1-0.7,2.2-1.5,2.8-2.7c0.2-0.4,0.6-0.4,0.9-0.3c0.4,0.1,0.6,0.4,0.6,0.7
		c0,0.6,0,1.2,0,1.8c0,0.7,0,0.7,0.8,0.7c1,0,2,0,3,0c0.7,0,0.9,0.2,0.9,0.9c0,0.9-0.3,1.2-0.9,1.3c-1,0-2,0-3,0
		c-0.6,0-0.8,0.1-0.8,0.7c0,0.6,0,1.1,0,1.7c0,2.2-0.1,4.4,0.1,6.5c0.1,1,0.4,2,1.4,2.4c0.8,0.3,1.7,0.3,2.4-0.2
		c0.2-0.2,0.5-0.3,0.8,0c0.2,0.2,0.3,0.5,0.2,0.8c0,0.1-0.1,0.2-0.2,0.3c-1.1,1.2-2.5,1.8-4.1,1.8c-0.8,0-1.7,0.1-2.5-0.2
		c-1.1-0.4-1.9-1-2.3-2.2c-0.2-0.7-0.4-1.4-0.4-2.2C131.4,75.7,131.4,74.3,131.4,73C131.4,73,131.4,73,131.4,73z"/>
	<path class="st0" d="M149.5,81.5c-2.2,0.1-3.9-0.5-5.3-1.8c-2.1-2-2.8-4.5-2.4-7.3c0.6-3.8,2.9-6.2,6.7-7.1c1.9-0.4,3.8-0.5,5.6,0
		c0.4,0.1,0.6,0.3,0.8,0.6c0.5,1,0.5,2,0.1,2.9c-0.4,0.9-1.1,0.9-1.7,0.2c-0.4-0.6-0.9-1.1-1.5-1.6c-1.3-1-3-0.9-4.2,0.2
		c-1,0.9-1.6,2.1-1.8,3.5c-0.3,1.7,0,3.3,0.8,4.8c0.6,1.1,1.6,1.9,2.8,2.3c1.5,0.4,3.1,0.4,4.4-0.5c0.4-0.3,0.7-0.6,0.9-0.9
		c0.2-0.3,0.5-0.5,0.9-0.2c0.3,0.2,0.5,0.5,0.3,1c-1,2-2.5,3.2-4.7,3.8C150.7,81.5,150,81.6,149.5,81.5z"/>
	<path class="st0" d="M97.5,39.5c0,1.3,0,2.6,0,3.8c0,1.4,0.5,1.9,1.9,1.9c0.8,0,1.1,0.2,1.1,0.8c0,0.4-0.2,0.6-0.7,0.7
		c-0.9,0-1.8-0.1-2.8-0.1c-1.8-0.1-3.6,0-5.4,0.1c-0.6,0-0.8-0.2-0.8-0.8c0-0.3,0.2-0.5,0.5-0.6c0.2,0,0.3-0.1,0.5-0.1
		c0.8-0.1,1.1-0.5,1.2-1.3c0.1-1.9,0.1-3.8,0.1-5.7c0-1,0.1-2.1,0.1-3.1c0-0.8-0.2-1.4-1-1.8c-0.4-0.2-0.5-0.5-0.5-0.9
		c0-0.4,0.3-0.6,0.7-0.7c1.4-0.4,2.7-1.1,4-1.7c0.6-0.3,1,0,1,0.6c0,0.4-0.1,0.7-0.1,1.1c0,0.2-0.1,0.4,0.2,0.5
		c0.2,0.1,0.4-0.1,0.5-0.2c0.8-0.6,1.5-1.2,2.4-1.5c0.5-0.2,1-0.2,1.6,0c1.3,0.4,1.7,1.6,1.3,2.8c-0.4,1.3-1.8,1.9-2.9,1.4
		c-0.3-0.1-0.6-0.3-0.8-0.5c-1.3-0.7-2.1-0.2-2.1,1.2C97.5,36.8,97.5,38.2,97.5,39.5C97.5,39.5,97.5,39.5,97.5,39.5z"/>
	<path class="st0" d="M125.2,39.6c0,1.1,0,2.3,0,3.4c0,0.5,0.1,1,0.3,1.5c0.2,0.6,0.8,0.7,1.3,0.8c0.3,0.1,0.6,0,0.9,0
		c0.5,0.1,0.7,0.4,0.7,0.8c0,0.5-0.3,0.6-0.8,0.6c-1.5,0-3.1-0.1-4.6-0.1c-1.2,0-2.3,0.1-3.5,0.1c-0.4,0-0.8,0-0.8-0.6
		c0-0.5,0.2-0.8,0.7-0.8c1.4-0.1,1.5-0.5,1.6-1.7c0.1-2.9,0.1-5.8,0-8.7c0-0.6-0.3-1.2-0.9-1.5c-0.2-0.1-0.5-0.3-0.6-0.5
		c-0.2-0.4,0-0.8,0.4-1c1.4-0.6,2.9-1.1,4.2-1.8c0.2-0.1,0.5-0.2,0.7,0c0.2,0.2,0.3,0.4,0.3,0.7c0,0.4,0,0.8,0,1.2
		c0,0.1,0,0.3,0.1,0.4c0.2,0.1,0.3,0,0.4-0.1c0.8-0.6,1.5-1.2,2.5-1.5c1-0.3,2-0.1,2.6,0.6c0.6,0.6,0.5,2.2,0.1,2.7
		c-0.5,0.8-1.5,1.2-2.3,1c-0.3-0.1-0.7-0.2-1-0.4c-0.2-0.1-0.5-0.3-0.7-0.4c-0.9-0.2-1.3-0.1-1.5,0.8c-0.3,1.3-0.1,2.5-0.2,3.8
		C125.2,39,125.2,39.3,125.2,39.6C125.2,39.6,125.2,39.6,125.2,39.6z"/>
	<path class="st0" d="M199.1,46.3c-0.9,0-2-0.1-3.2,0.1c-0.7,0.1-0.9-0.2-0.9-0.8c0-0.4,0.2-0.6,0.6-0.6c0.2,0,0.4-0.1,0.6-0.1
		c0.7-0.2,1-0.6,1-1.3c0.2-2.5,0.1-5,0.1-7.5c0-0.5,0-1-0.1-1.4c0-0.7-0.3-1.2-0.9-1.5c-0.4-0.2-0.5-0.5-0.5-0.9
		c0.1-0.4,0.4-0.6,0.7-0.7c1.4-0.4,2.7-1,4-1.7c0.7-0.4,1.1-0.2,1.1,0.6c-0.1,3.7-0.1,7.5-0.1,11.2c0,0.7,0,1.3,0.1,2
		c0.1,0.7,0.6,1.1,1.5,1.2c0.6,0,0.7,0.3,0.7,0.8c0,0.5-0.2,0.7-0.7,0.7c-0.6,0-1.3-0.1-1.9-0.1C200.7,46.3,200,46.3,199.1,46.3z"/>
	<path class="st0" d="M126.5,65.3c-0.3,3.3-0.2,6.7-0.2,10c0,1,0.2,2,0.2,3c0,0.9,0.5,1.2,1.4,1.3c0.6,0,0.8,0.3,0.8,0.8
		c0,0.5-0.3,0.7-0.9,0.6c-1.6-0.1-3.2-0.2-4.8-0.2c-0.7,0-1.5,0.1-2.2,0.2c-0.6,0.1-0.9-0.1-0.9-0.5c-0.1-0.6,0.1-0.8,0.8-0.9
		c0.9-0.1,1.3-0.6,1.4-1.5c0.1-2.6,0.1-5.1,0.1-7.7c0-0.5,0-1-0.1-1.5c-0.1-0.6-0.5-0.9-0.9-1.1c-0.3-0.2-0.6-0.5-0.5-0.9
		c0.1-0.5,0.5-0.6,0.8-0.7c1.3-0.4,2.5-0.9,3.7-1.5c0.1,0,0.2-0.1,0.2-0.1C126.1,64.2,126.5,64.5,126.5,65.3z"/>
	<path class="st0" d="M197,23c0-1.5,1.1-2.6,2.6-2.6c1.4,0,2.6,1.1,2.6,2.6c0,1.4-1.1,2.6-2.6,2.6C198.1,25.5,197,24.5,197,23z"/>
	<path class="st0" d="M121.8,57.4c-0.1-1.7,1.4-2.5,2.4-2.5c1.5,0,2.7,1.2,2.7,2.7c0,1.5-1.2,2.6-2.6,2.6
		C122.8,60.1,121.8,59,121.8,57.4z"/>
</g>
</svg>
