<?xml version="1.0" encoding="UTF-8"?>
<svg xmlns="http://www.w3.org/2000/svg" version="1.1" viewBox="0 0 250 100">
  <defs>
    <style>
      .cls-1 {
        fill: #777;
      }
    </style>
  </defs>
  <!-- Generator: Adobe Illustrator 28.6.0, SVG Export Plug-In . SVG Version: 1.2.0 Build 709)  -->
  <g>
    <g id="Capa_1">
      <g>
        <g>
          <path class="cls-1" d="M149.8,53.9h-2.2v-7.3s-4,7.4-4,7.4h-.8l-4-7.3v7.2h-2.2v-12.8s1.3,0,1.3,0l5.4,9.3,5.2-9.3h1.3v12.8Z"/>
          <path class="cls-1" d="M25.2,41h4.8c4,0,6.8,2.7,6.8,6.4s-2.9,6.4-6.8,6.4h-4.8v-12.7ZM27.4,43.1v8.6h2.6c2.5,0,4.4-1.8,4.4-4.3s-1.8-4.3-4.4-4.3h-2.6Z"/>
          <path class="cls-1" d="M47.6,40.8c4,0,6.8,2.8,6.8,6.6s-2.9,6.6-6.8,6.6-6.8-2.8-6.8-6.6,3-6.6,6.8-6.6ZM47.7,52c2.5,0,4.4-2,4.4-4.6s-1.8-4.6-4.4-4.6-4.4,2-4.4,4.6,1.9,4.6,4.4,4.6Z"/>
          <path class="cls-1" d="M91,40.8c4,0,6.8,2.8,6.8,6.6s-2.9,6.6-6.8,6.6-6.8-2.8-6.8-6.6,3-6.6,6.8-6.6ZM91,52c2.5,0,4.4-2,4.4-4.6s-1.8-4.6-4.4-4.6-4.4,2-4.4,4.6,1.9,4.6,4.4,4.6Z"/>
          <path class="cls-1" d="M102.6,41.1h4.8c4,0,6.8,2.7,6.8,6.4s-2.9,6.4-6.8,6.4h-4.8v-12.7ZM104.8,43.1v8.6h2.6c2.5,0,4.4-1.8,4.4-4.3s-1.8-4.3-4.4-4.3h-2.6Z"/>
          <path class="cls-1" d="M125,40.8c4,0,6.8,2.8,6.8,6.6s-2.9,6.6-6.8,6.6-6.8-2.8-6.8-6.6,3-6.6,6.8-6.6ZM125,52c2.5,0,4.4-2,4.4-4.6s-1.8-4.6-4.4-4.6-4.4,2-4.4,4.6,1.9,4.6,4.4,4.6Z"/>
          <path class="cls-1" d="M156.8,41.1h2.2v12.7h-2.2v-12.7Z"/>
          <path class="cls-1" d="M166,41h.7l7.9,8.2v-8.1h2.2v12.8h-.6l-8-8v7.9h-2.2v-12.8Z"/>
          <path class="cls-1" d="M199.7,41.1h2.2v7.5c0,2.4,1.1,3.4,3,3.4s3.1-1,3.1-3.5v-7.5h2.2v7.5c0,3.8-2.2,5.5-5.3,5.5s-5.3-1.7-5.3-5.5v-7.5Z"/>
          <polygon class="cls-1" points="79 46.8 74.1 46.8 74.1 43.1 80.1 43.1 79 41.1 71.9 41.1 71.9 53.8 74.1 53.8 74.1 48.8 80.1 48.8 79 46.8"/>
          <path class="cls-1" d="M194.9,47.1h-5l-1.2,2.2h3.5c-.6,1.6-1.9,2.8-3.8,2.8s-4.4-2-4.4-4.6,1.9-4.6,4.4-4.6,2.2.5,3.1,1.2l1.2-1.8c-1.1-.9-2.6-1.4-4.3-1.4-3.8,0-6.8,2.9-6.8,6.6s2.9,6.6,6.8,6.6,6.5-2.8,6.5-6.6,0-.2,0-.3Z"/>
          <polygon class="cls-1" points="239.6 51.7 234.1 51.7 241 41.8 241 41.1 230.8 41.1 230.8 43.1 237.3 43.1 230.3 53.1 230.3 53.8 240.8 53.8 239.6 51.7"/>
          <polygon class="cls-1" points="223.8 51.7 218.8 51.7 218.8 48.7 224.4 48.7 224.4 48.7 223.3 46.7 218.8 46.7 218.8 43.1 224.9 43.1 223.8 41.1 216.6 41.1 216.6 53.8 224.9 53.8 223.8 51.7"/>
          <polygon class="cls-1" points="66.3 51.7 61.5 51.7 61.5 41.1 59.2 41.1 59.2 53.8 67.4 53.8 66.3 51.7"/>
          <path class="cls-1" d="M17.9,51.3h-5.5l-1.1,2.5h-2.4l6-12.9h.5l6,12.9h-2.4l-1.1-2.5ZM13.2,49.5h3.9l-1.9-4.4-1.9,4.4Z"/>
        </g>
        <polygon class="cls-1" points="19.4 57.1 9 57.1 9 59.2 21.5 59.2 19.4 57.1"/>
        <polygon class="cls-1" points="113 57.1 102.5 57.1 102.5 59.2 115 59.2 113 57.1"/>
      </g>
    </g>
  </g>
</svg>