<?xml version="1.0" encoding="utf-8"?>
<!-- Generator: $$$/GeneralStr/196=Adobe Illustrator 27.6.0, SVG Export Plug-In . SVG Version: 6.00 Build 0)  -->
<svg version="1.1" id="Capa_1" xmlns="http://www.w3.org/2000/svg" xmlns:xlink="http://www.w3.org/1999/xlink" x="0px" y="0px"
	 viewBox="0 0 250 100" style="enable-background:new 0 0 250 100;" xml:space="preserve">
<style type="text/css">
	.st0{fill:#777777;}
</style>
<g>
	<path class="st0" d="M120.3,26.4c-0.8,1-1.8,1.8-2.7,2.6c-1.1,0.8-2.2,1.6-3.1,2.6c-1,1.1-1.6,2.3-1.8,3.7
		c-0.2,1.2-0.1,2.5,0.3,3.7c0.5,1.2,1.2,2.2,2.3,3c0.2,0.1,0.2,0.2,0.2,0.4c0,0.9,0,1.7,0.1,2.6c0.1,1.1,0.2,2.1,0.5,3.2
		c0.6,2.4,1.5,4.7,2.8,6.8c0.8,1.2,1.7,2.3,2.7,3.3c0.3,0.3,0.4,0.3,0.5-0.2c0.4-1.5,1-3,1.8-4.3c0.8-1.4,1.7-2.6,2.8-3.6
		c1.2-1.2,2.6-2.1,4-3c1.6-1,3.3-2,4.9-2.9c1.2-0.7,2.3-1.5,3.3-2.5c1.2-1.1,2.1-2.4,2.8-3.9c0.4-1,0.7-2,0.9-3.1
		c0.1-1,0.1-1.9,0.1-2.9c0-0.6-0.1-1.1-0.2-1.6c-0.1-0.6-0.2-1.1-0.2-1.7c0-0.8-0.1-1.5,0.1-2.3c0.2-0.8,0.4-1.6,0.9-2.2
		c0-0.1,0.1-0.1,0.1-0.2c-0.1-0.1-0.2,0-0.2,0c-0.3,0.1-0.7,0.1-1,0.3c-0.8,0.3-1.4,0.8-1.9,1.5c-0.2,0.3-0.2,0.3-0.5,0.1
		c-0.2-0.1-0.4-0.2-0.5-0.3c-1.4-0.6-2.9-0.7-4.3-0.4c-1.4,0.3-2.5,1-3.4,2.1c-1.1,1.5-1.4,3.2-1,4.9c0.3,1.1,0.9,2.1,1.8,2.9
		c0.7,0.5,1.4,0.9,2.3,1.1c1.2,0.3,2.4,0.2,3.6-0.2c0.3-0.1,0.4-0.2,0.4-0.5c0-0.7-0.2-1.4-0.4-2.1c-0.2-0.6-0.2-0.6-0.8-0.5
		c-0.9,0.2-1.8,0.3-2.7-0.1c-1-0.5-1.9-1.7-1.6-3.1c0.3-1.9,2.3-3.1,4.1-2.5c1.2,0.4,2.1,1.1,2.7,2.3c0.9,1.8,1.1,3.8,0.7,5.8
		c-0.4,1.6-1.1,3-2.5,4c-1.1,0.8-2.3,1.2-3.6,1.3c-1.2,0.1-2.3-0.2-3.4-0.7c-0.5-0.2-1-0.4-1.5-0.6c-0.2-0.1-0.3,0-0.3,0.2
		c0,0.2,0,0.4,0,0.6c0.3,1.2,0.9,2.2,1.8,3.1c0.2,0.2,0.5,0.4,0.8,0.6c0.2,0.1,0.2,0.2,0,0.3c-0.9,0.4-1.7,0.8-2.6,1.2
		c-2,1.1-3.8,2.4-5.5,3.9c-0.9,0.9-1.7,1.9-2.4,2.9c-0.2,0.3-0.2,0.3-0.4,0c-0.4-0.5-0.8-1-1.1-1.6c-1.2-2.1-1.9-4.4-2.2-6.8
		c0-0.2,0.1-0.3,0.3-0.3c0.2,0,0.4,0.1,0.7,0.1c1.1,0,2.2,0.1,3.3-0.2c1.6-0.4,3.1-1.1,4.2-2.4c1.7-2,2-4.3,1-6.8
		c-0.5-1.2-1.4-2.1-2.6-2.8c-0.3-0.2-0.4-0.2-0.6,0.1c-0.5,0.7-0.9,1.4-1.1,2.2c-0.1,0.3,0,0.4,0.2,0.6c0.8,0.6,1.3,1.4,1.4,2.4
		c0.2,1.7-0.8,3.1-2.3,3.8c-1.4,0.6-2.7,0.6-4.1,0.2c-0.3-0.1-0.4-0.2-0.4-0.5c0-1.1,0.1-2.3,0.4-3.4c0.3-1.3,0.7-2.6,1.3-3.8
		c1.1-2.3,2.6-4.2,4.5-5.9c1.8-1.6,3.8-2.8,6.1-3.6c2-0.7,4.1-1,6.1-1.2c0.5,0,1-0.1,1.4-0.1c0.7-0.1,1.4-0.1,2.1-0.2
		c1.3-0.1,2.7-0.2,4-0.4c1.1-0.2,2.3-0.6,3.3-1.2c0.7-0.4,1.3-1,1.8-1.7c0.1-0.1,0.2-0.2,0.2-0.4c-0.1,0-0.2,0.1-0.3,0.1
		c-0.4,0.3-0.8,0.5-1.3,0.7c-1.2,0.5-2.4,0.6-3.7,0.8c-1.2,0.1-2.5,0.2-3.7,0.3c-1.4,0.1-2.8,0.3-4.2,0.6c-1.4,0.3-2.7,0.6-4,1
		c-2.4,0.7-4.6,1.6-6.7,3c-2.1,1.4-3.8,3.1-5.2,5.2c-0.7,1-1.3,2.1-1.8,3.2c-0.7,1.5-1.2,3.1-1.6,4.7c-0.1,0.4-0.2,0.8-0.3,1.2
		c0,0.1,0,0.3-0.2,0.3c-0.1,0-0.2-0.1-0.3-0.2c0,0,0,0,0,0c-0.6-0.7-0.9-1.6-1-2.5c-0.2-1.4,0.1-2.8,0.9-4c0.7-1,1.6-1.8,2.4-2.6
		c0.8-0.7,1.5-1.5,2.2-2.3C120,27.1,120.2,26.8,120.3,26.4z"/>
	<path class="st0" d="M122.8,58.7c0-0.1,0.1-0.2,0.1-0.3c0.3-0.8,0.8-1.5,1.3-2.2c1.6-2.2,3.5-4,5.7-5.5c1.5-1.1,3.2-1.8,4.9-2.6
		c2.2-0.9,4.4-1.8,6.3-3.2c1.2-0.9,2.2-1.9,3.1-3.1c0.9-1.2,1.5-2.6,2.1-4c0.6-1.5,0.9-3.1,1.2-4.7c0.2-1.1,0.3-2.1,0.5-3.2
		c0.1-1,0.3-2.1,0.5-3.1c0.2-1.3,0.6-2.6,1.1-3.8c0.6-1.3,1.4-2.5,2.6-3.4c0.6-0.5,1.2-0.8,1.9-1.2c0.1,0,0.2-0.1,0.1-0.1
		c0-0.1-0.1-0.1-0.2-0.1c-0.5,0-1.1,0.1-1.6,0.2c-0.9,0.2-1.7,0.5-2.5,0.9c-1.1,0.6-2,1.5-2.7,2.6c-1,1.6-1.3,3.3-1.6,5.1
		c-0.2,1-0.2,2-0.4,2.9c-0.1,1.2-0.3,2.4-0.5,3.6c-0.3,1.5-0.6,3-1.1,4.5c-0.5,1.4-1.3,2.7-2.2,3.9c-1,1.2-2.2,2-3.5,2.8
		c-1.8,1.1-3.7,2-5.6,3c-1.4,0.7-2.8,1.6-4,2.6c-1.9,1.5-3.4,3.4-4.4,5.6C123.3,56.8,123,57.7,122.8,58.7z"/>
	<path class="st0" d="M146.5,68.9C146.5,68.9,146.5,68.9,146.5,68.9c0-1.4,0-2.7,0-4.1c0-0.1,0-0.3,0-0.4c0-0.1,0-0.2,0.1-0.2
		c0.1,0,0.1,0,0.2,0.1c0.3,0.4,0.6,0.7,0.9,1.1c0.9,1.1,1.8,2.3,2.6,3.5c1.2,1.5,2.3,3,3.4,4.5c0.7,0.9,1.3,1.8,2,2.7
		c0.1,0.2,0.5,0.3,0.8,0.2c0.2-0.1,0.2-0.3,0.2-0.5c0-3.6,0-7.2,0-10.9c0-0.1,0-0.3,0-0.4c0-0.8,0.2-1.5,0.9-2
		c0.1,0,0.1-0.1,0.1-0.2c0-0.1-0.1-0.1-0.2-0.1c-0.8,0-1.7,0-2.5,0c-0.1,0-0.1,0-0.1,0c0,0.1,0,0.1,0.1,0.1c0,0.1,0.1,0.1,0.2,0.2
		c0.7,0.6,1,1.4,1,2.3c0,2.7,0,5.5,0,8.2c0,0.1,0,0.2-0.1,0.3c-0.1,0-0.2-0.1-0.3-0.1c-0.4-0.4-0.7-0.7-1-1.1
		c-1-1.2-1.9-2.4-2.8-3.7c-0.7-1-1.5-2.1-2.2-3.1c-0.5-0.8-1.1-1.5-1.8-2.2c-0.5-0.5-1.2-0.9-1.9-0.8c-0.4,0-0.9,0-1.3,0
		c-0.1,0-0.2,0-0.2,0.1c0,0.1,0.1,0.1,0.1,0.2c0.1,0,0.1,0.1,0.2,0.1c0.7,0.3,0.9,0.6,0.9,1.4c0,3.2,0,6.5,0,9.7
		c0,0.9-0.3,1.6-1,2.2c-0.1,0.1-0.2,0.1-0.2,0.3c0.1,0.1,0.2,0.1,0.3,0.1c0.9,0,1.8,0,2.7,0c0.1,0,0.2,0,0.3-0.1
		c0-0.1,0-0.2-0.1-0.3c0,0-0.1-0.1-0.1-0.1c-0.3-0.3-0.5-0.6-0.8-1c-0.4-0.5-0.5-1.2-0.5-1.8C146.5,71.6,146.5,70.3,146.5,68.9z"/>
	<path class="st0" d="M119.1,68.9c0-1.5,0-2.9,0-4.4c0-0.1,0-0.3,0.1-0.3c0.1,0,0.2,0.1,0.2,0.2c0.4,0.5,0.8,0.9,1.1,1.4
		c0.7,0.9,1.5,1.9,2.2,2.8c0.7,1,1.4,1.9,2.2,2.9c0.6,0.8,1.2,1.5,1.7,2.2c0.6,0.8,1.2,1.6,1.8,2.3c0.1,0.2,0.7,0.2,0.8,0.1
		c0.1,0,0.1-0.1,0.1-0.2c0-0.1,0-0.2,0-0.4c0-3.6,0-7.2,0-10.8c0-0.4,0.1-0.8,0.1-1.3c0.1-0.5,0.5-0.8,0.8-1.1
		c0.1-0.1,0.2-0.1,0.1-0.2c0-0.1-0.1,0-0.2,0c-0.8,0-1.6,0-2.4,0c-0.1,0-0.2,0-0.2,0.1c0,0.1,0.1,0.1,0.1,0.2
		c0.4,0.4,0.8,0.8,0.9,1.4c0.1,0.4,0.2,0.8,0.2,1.3c0,2.4,0,4.8,0,7.2c0,0.2,0,0.5,0,0.7c0,0.1,0,0.2-0.1,0.2c-0.1,0-0.2,0-0.2-0.1
		c-0.2-0.2-0.5-0.4-0.7-0.7c-1.2-1.3-2.2-2.8-3.2-4.2c-0.8-1.1-1.6-2.3-2.5-3.4c-0.6-0.8-1.3-1.7-2.1-2.3c-0.2-0.1-0.4-0.3-0.7-0.3
		c-0.7-0.1-1.4,0-2.1,0c-0.1,0-0.1,0-0.1,0.1c0,0.1,0,0.1,0.1,0.1c0.2,0.1,0.4,0.2,0.5,0.2c0.4,0.2,0.6,0.6,0.6,1
		c0,3.4,0,6.9,0,10.3c0,0.5-0.1,0.9-0.5,1.3c-0.2,0.2-0.4,0.4-0.6,0.6c-0.1,0.1-0.1,0.1-0.1,0.2c0,0.1,0.1,0.1,0.2,0.1
		c1,0,1.9,0,2.9,0c0.2,0,0.2-0.1,0.1-0.3c-0.1-0.2-0.2-0.3-0.4-0.5c-0.7-0.8-1.1-1.7-1-2.9C119.2,71.4,119.1,70.2,119.1,68.9z"/>
	<path class="st0" d="M111,62.3C111,62.3,111,62.3,111,62.3c-1.6,0-3.2,0-4.8,0c-0.1,0-0.2,0-0.2,0.1c0,0.1,0.1,0.1,0.1,0.2
		c0.3,0.4,0.5,0.8,0.5,1.3c0,3.7,0,7.3,0,11c0,0.5-0.1,0.9-0.6,1.2c-0.1,0.1-0.2,0.1-0.2,0.2c0,0.1,0.2,0.1,0.3,0.1
		c0.9,0,1.8,0,2.7,0c0,0,0.1,0,0.1,0c0.1,0,0.2-0.1,0.1-0.2c0,0-0.1-0.1-0.1-0.1c-0.5-0.3-0.7-0.8-0.7-1.4c0-1.6,0-3.2,0-4.7
		c0-0.3,0-0.4,0.4-0.4c1.3,0,2.5,0,3.8,0c0.6,0,1.1,0.1,1.5,0.5c0.2,0.2,0.4,0.3,0.6,0.4c0.1,0.1,0.2,0.1,0.3,0.1
		c0.1-0.1,0.1-0.2,0.1-0.3c0-0.7,0-1.5,0-2.2c0-0.1,0-0.3-0.1-0.3c-0.1-0.1-0.3,0-0.4,0.1c-0.3,0.2-0.6,0.4-0.9,0.6
		c-0.4,0.2-0.8,0.4-1.2,0.4c-1.2,0-2.5,0-3.7,0c-0.3,0-0.4-0.1-0.4-0.4c0-1.6,0-3.2,0-4.9c0-0.4,0.2-0.6,0.5-0.8
		c0.2-0.1,0.4-0.2,0.6-0.2c1.1,0,2.1-0.1,3.1,0.1c1.2,0.2,2.3,0.6,3.4,1.2c0.2,0.1,0.4,0.2,0.5,0.3c0.1,0,0.2,0,0.2,0
		c0.1-0.1,0-0.1,0-0.2c-0.1-0.5-0.3-0.9-0.5-1.3c-0.1-0.3-0.3-0.4-0.6-0.4C114.1,62.3,112.5,62.3,111,62.3z"/>
	<path class="st0" d="M123.4,46.5c0.1-1.1-0.8-1.9-1.8-1.9c-1,0-1.9,0.8-1.9,1.8c0,1,0.8,1.8,1.9,1.8
		C122.6,48.3,123.5,47.3,123.4,46.5z"/>
	<path class="st0" d="M128.2,29.3c1,0,1.8-0.8,1.8-1.9c0-1-0.8-1.8-1.8-1.8c-1,0-1.8,0.8-1.9,1.8C126.3,28.5,127.1,29.3,128.2,29.3z
		"/>
	<path class="st0" d="M119.3,36.9c-0.1,1,0.9,1.8,1.8,1.8c1.1,0,1.9-0.9,1.9-1.8c0-1.1-1-1.8-1.8-1.8C120.1,35,119.1,36,119.3,36.9z
		"/>
	<path class="st0" d="M135.8,81.3c0.1-0.3,0.1-0.5,0.2-0.8c0-0.2,0-0.5,0.2-0.5c0.2,0,0.3,0.3,0.3,0.4c0.3,0.8,0.6,1.5,0.9,2.3
		c0.1,0.3,0.3,0.6,0.5,0.8c0.1,0.1,0.2,0.2,0.3,0c0-0.1,0.1-0.1,0.1-0.2c0.5-1.1,1-2.2,1.5-3.3c0-0.1,0-0.2,0.1-0.1
		c0.1,0,0.1,0.1,0.1,0.2c0,0.1,0,0.1,0.1,0.2c0.1,1,0.3,1.9,0.4,2.9c0,0.4,0.3,0.7-0.1,1.1c0.3,0,0.6,0,0.9,0c0.1,0,0.2-0.1,0.1-0.2
		c-0.1-0.2-0.2-0.4-0.3-0.7c-0.3-0.9-0.4-1.8-0.5-2.7c-0.1-0.4-0.2-0.9,0-1.3c0,0,0-0.1,0-0.1c-0.2-0.1-0.8,0-0.9,0.3
		c-0.2,0.4-0.4,0.8-0.5,1.2c-0.3,0.6-0.6,1.2-0.9,1.8c0,0.1-0.1,0.2-0.2,0.2c-0.1,0-0.1-0.1-0.1-0.2c-0.4-0.9-0.8-1.8-1.2-2.8
		c-0.2-0.5-0.5-0.6-1-0.5c-0.1,0-0.1,0-0.1,0.1c0.1,0.5,0.1,1,0,1.5C135.7,81,135.7,81.1,135.8,81.3z"/>
	<path class="st0" d="M150.3,18.2c0.3,0,0.4-0.2,0.6-0.2c1.2-0.4,2.5-0.6,3.8-0.5c0.7,0,1.1-0.4,1.6-0.6c-0.2-0.1-0.3-0.1-0.4-0.1
		c-0.4,0-0.8,0-1.2,0c-0.2,0-0.3-0.1-0.3-0.3c0-0.3,0.2-0.5,0.6-0.6c0.3-0.1,0.6-0.1,0.9-0.1c0.4,0.1,0.9,0.1,1.3,0
		c0.4,0,0.9-0.1,1.2-0.4c0.1,0,0.2-0.1,0.1-0.2c0-0.1-0.1-0.1-0.2-0.1c-0.8,0-1.6,0-2.4,0c-0.4,0-0.7,0-1.1,0
		c-0.9,0.1-1.3,0.6-1.3,1.5c0,0.2-0.1,0.2-0.3,0.3c-0.7,0.1-1.4,0.3-2,0.6C150.8,17.7,150.5,17.9,150.3,18.2z"/>
	<path class="st0" d="M126.8,79.3C126.8,79.3,126.8,79.3,126.8,79.3c-0.4,0-0.7-0.1-1,0c-0.1,0-0.1,0.1,0,0.2
		c0.2,0.2,0.2,0.4,0.2,0.7c0,0.9,0,1.8,0,2.8c0,0.6,0.4,1.1,1,1.3c0.7,0.2,1.4,0.2,2.2,0.1c0.7-0.1,1.2-0.4,1.4-1.2
		c0.1-0.3,0.1-0.6,0.1-1c0-0.6,0-1.3,0-1.9c0-0.3,0-0.6,0.3-0.8c0.1-0.1,0-0.2-0.1-0.2c-0.2,0-0.5,0-0.7,0c-0.1,0-0.1,0-0.1,0.1
		c0,0,0,0.1,0.1,0.1c0.2,0.2,0.3,0.5,0.3,0.8c0,0.8,0,1.6,0,2.3c0,0.7-0.4,1.3-1.1,1.5c-0.4,0.1-0.9,0.1-1.3,0.1
		c-0.8-0.1-1.4-0.7-1.4-1.5c0-0.9,0-1.7,0-2.6C126.5,79.8,126.5,79.5,126.8,79.3z"/>
	<path class="st0" d="M149.9,83.6c-0.4,0.2-0.7,0.4-1,0.4c-0.7,0.2-1.4,0.1-2.1,0.1c-0.3,0-0.4-0.2-0.4-0.4c0-0.6,0-1.2,0-1.8
		c0-0.2,0.1-0.3,0.3-0.3c0.4,0,0.8,0,1.2,0c0.2,0,0.4,0,0.6,0.1C149,82,149,82,149,81.4c0-0.2-0.1-0.3-0.3-0.2
		c-0.6,0.4-1.4,0.3-2,0.3c-0.2,0-0.3-0.1-0.3-0.3c0-0.5,0-0.9,0-1.4c0-0.3,0.2-0.5,0.5-0.5c0.4,0,0.8,0,1.2,0c0.3,0,0.6,0.1,0.9,0.2
		c0.1,0.1,0.2,0.1,0.4,0.2c0.1,0,0.1,0.1,0.2,0c0.1-0.1,0-0.1,0-0.2c-0.1-0.3-0.2-0.4-0.5-0.4c-0.8,0-1.7,0-2.5,0
		c-0.2,0-0.5,0-0.7,0c-0.1,0-0.2,0-0.1,0.1c0.1,0.2,0.1,0.4,0.1,0.6c0,1.1,0,2.2,0,3.3c0,0.3,0,0.7-0.3,1c0.2,0,0.3,0,0.4,0
		c1.1,0,2.1,0,3.2,0C149.6,84.3,149.7,84.2,149.9,83.6z"/>
	<path class="st0" d="M100.3,84.3c0.1,0,0.2,0,0.2,0c1.2,0,2.3,0,3.5,0c0.4,0,0.6-0.2,0.7-0.6c-0.2,0.1-0.4,0.2-0.7,0.3
		c-0.7,0.3-1.5,0.2-2.2,0.2c-0.5,0-0.6-0.1-0.6-0.6c0-0.7,0-1.3,0-2c0-0.6,0-1.2,0-1.7c0-0.3,0.1-0.5,0.4-0.5c0.9,0,1.8-0.1,2.5,0.5
		c0,0,0,0,0.1,0c0.1,0,0.1,0,0.1-0.1c0-0.2-0.2-0.5-0.4-0.5c-0.3,0-0.6,0-1,0c-0.7,0-1.5,0-2.2,0c-0.2,0-0.4,0-0.2,0.3
		c0.1,0.2,0.1,0.3,0.1,0.5c0,1.2-0.1,2.5-0.1,3.7C100.5,83.9,100.5,84.1,100.3,84.3z"/>
	<path class="st0" d="M117.8,84.2C117.8,84.2,117.8,84.3,117.8,84.2c0.3,0.1,0.6,0.1,0.8,0.1c0.1,0,0.2-0.1,0.1-0.2
		c-0.1-0.1-0.2-0.3-0.2-0.5c0-0.5,0-1.1,0-1.6c0-0.2,0.1-0.3,0.3-0.3c0.7,0,1.5-0.2,2.2,0.3c0.1,0.1,0.2,0,0.2-0.1
		c0-0.2,0-0.4,0-0.5c0-0.2-0.1-0.2-0.2-0.1c-0.2,0.1-0.4,0.3-0.7,0.3c-0.5,0-1,0-1.5,0c-0.2,0-0.3-0.1-0.3-0.3c0-0.5,0-1.1,0-1.6
		c0-0.2,0.1-0.4,0.4-0.4c0.9-0.1,1.7,0,2.5,0.4c0.1,0.1,0.3,0.2,0.4,0.1c0.1-0.2-0.1-0.3-0.2-0.5c-0.1-0.1-0.2-0.1-0.3-0.1
		c-1.1,0-2.2,0-3.3,0c-0.1,0-0.1,0-0.2,0.1c0.2,0.2,0.2,0.4,0.2,0.6c0,1.2,0,2.4,0,3.6C117.9,83.8,118,84,117.8,84.2z"/>
	<path class="st0" d="M154.7,79.4c-0.3-0.1-0.5,0.1-0.7,0.2c-0.5,0.3-0.6,1-0.2,1.5c0.2,0.2,0.4,0.3,0.7,0.4
		c0.6,0.2,1.2,0.4,1.8,0.6c0.4,0.2,0.7,0.4,0.7,0.9c0,0.5-0.3,0.8-0.7,0.9c-0.4,0.2-0.9,0.2-1.4,0.1c-0.4-0.1-0.7-0.4-1-0.7
		c-0.1-0.1-0.2-0.3-0.4-0.2c-0.1,0,0,0.2,0,0.4c-0.1,0.3,0.1,0.4,0.3,0.5c0.3,0.1,0.6,0.2,0.9,0.2c0.7,0.1,1.4,0.1,2.1-0.3
		c0.7-0.4,0.8-1.4,0.2-2c-0.4-0.3-0.8-0.4-1.3-0.5c-0.4-0.2-0.9-0.3-1.3-0.5c-0.3-0.2-0.5-0.4-0.5-0.8c0-0.3,0.2-0.5,0.5-0.7
		C154.6,79.5,154.7,79.5,154.7,79.4z"/>
	<path class="st0" d="M135.6,82.1c0,0.1-0.1,0.1-0.1,0.1c-0.2,0.7-0.3,1.4-0.7,1.9c-0.1,0.1,0,0.2,0.1,0.2c0.2,0,0.5,0,0.7,0
		c0.2,0,0.2-0.1,0.1-0.2c-0.3-0.5-0.3-1-0.2-1.5C135.6,82.4,135.6,82.3,135.6,82.1z"/>
	<path class="st0" d="M101.5,81.5C101.5,81.6,101.5,81.6,101.5,81.5c0.4,0.1,0.7,0.1,1.1,0.1c0.2,0,0.5,0,0.7,0.1
		c0.2,0.1,0.3,0.3,0.5,0.2c0.1-0.1,0-0.4,0.1-0.6c0-0.2-0.1-0.2-0.3-0.1c-0.4,0.3-0.9,0.3-1.3,0.3C101.9,81.5,101.7,81.5,101.5,81.5
		z"/>
	<path class="st0" d="M155.1,79.3c0.2,0.1,0.4,0,0.6,0.1c0.4,0.1,0.9,0.3,1.2,0.7c0.1,0.1,0.1,0.2,0.2,0.1c0.1-0.1,0-0.5-0.1-0.6
		C156.3,79.4,155.7,79.2,155.1,79.3z"/>
	<path class="st0" d="M104.9,75.8c-0.8-0.7-1.3-1.5-1.7-2.5c-0.4-1-0.7-1.9-1.1-2.9c-0.8-2.1-1.6-4.2-2.4-6.3
		c-0.2-0.6-0.4-1.3-0.9-1.8c-0.1-0.1-0.2-0.2-0.4-0.2c-0.5,0-1,0-1.5,0c-0.2,0-0.2,0-0.1,0.2c0.3,0.3,0.5,0.7,0.6,1.1
		c0.1,0.2,0.1,0.4,0,0.6c-0.3,0.8-0.6,1.6-0.9,2.4c-1.1,2.7-2.2,5.4-3.3,8.1c-0.2,0.4-0.4,0.9-0.8,1.1c-0.2,0.1-0.3,0.3-0.5,0.4
		c0,0-0.1,0.1-0.1,0.2c0,0.1,0.1,0.1,0.2,0.1c0.7,0,1.5,0,2.2,0c0.1,0,0.3,0.1,0.4-0.1c0-0.1-0.1-0.2-0.2-0.3
		c-0.3-0.4-0.4-0.8-0.3-1.3c0.3-0.9,0.6-1.7,1-2.6c0.1-0.2,0.2-0.2,0.4-0.2c0.8,0,1.6,0,2.4,0c0,0,0,0,0,0c0.7,0,1.5,0,2.2,0
		c0.5,0,0.8,0.2,1,0.6c0.3,0.8,0.6,1.6,1,2.3c0.2,0.4,0.1,0.7-0.1,1c-0.1,0.1-0.1,0.2-0.2,0.3c0,0.1-0.1,0.1-0.1,0.2
		c0,0.1,0.2,0,0.2,0c0.9,0,1.8,0,2.7,0c0.2,0,0.4,0.1,0.5-0.1C105.3,76.1,105,76,104.9,75.8z M100.2,71.2c-0.7,0-1.4,0-2,0
		c-0.7,0-1.4,0-2.1,0c-0.4,0-0.4-0.1-0.3-0.4c0.7-1.8,1.4-3.6,2-5.4c0,0,0-0.1,0.1-0.1c0.1-0.1,0-0.4,0.3-0.4c0.2,0,0.2,0.2,0.2,0.4
		c0.7,1.8,1.5,3.6,2.2,5.4C100.7,71.1,100.6,71.2,100.2,71.2z"/>
	<path class="st0" d="M143.7,76c0,0-0.1-0.1-0.1-0.1c-0.8-0.7-1.4-1.7-1.8-2.7c-0.7-1.8-1.4-3.6-2-5.4c-0.5-1.3-1-2.6-1.5-3.9
		c-0.2-0.4-0.3-0.9-0.6-1.3c-0.2-0.2-0.3-0.5-0.7-0.5c-0.5,0-1,0-1.4,0c-0.1,0-0.1,0-0.2,0c0,0.1,0,0.1,0.1,0.2
		c0.3,0.4,0.5,0.8,0.7,1.2c0.1,0.1,0.1,0.3,0,0.4c-0.3,0.7-0.6,1.5-0.9,2.2c-0.7,1.8-1.4,3.6-2.1,5.4c-0.4,1-0.8,2-1.2,3
		c-0.3,0.6-0.7,1.1-1.3,1.5c-0.1,0.1-0.2,0.1-0.1,0.2c0,0.1,0.2,0.1,0.2,0.1c0.7,0,1.5,0,2.2,0c0.1,0,0.2,0,0.2-0.1
		c0-0.1-0.1-0.1-0.1-0.2c0,0,0-0.1-0.1-0.1c-0.4-0.4-0.4-0.9-0.2-1.4c0.3-0.8,0.6-1.6,0.9-2.4c0.1-0.2,0.2-0.3,0.5-0.3
		c0.8,0,1.6,0,2.4,0c0,0,0,0,0,0c0.7,0,1.5,0,2.2,0c0.5,0,0.8,0.2,1,0.7c0.3,0.7,0.5,1.4,0.8,2c0.3,0.6,0.3,1.1-0.2,1.6
		c-0.1,0.1-0.2,0.1-0.1,0.2c0,0.1,0.1,0,0.2,0c1,0,2,0,2.9,0c0.1,0,0.2,0,0.3-0.1C143.8,76.1,143.7,76.1,143.7,76z M138.8,71.2
		c-0.7,0-1.4,0-2.1,0c-0.7,0-1.4,0-2.1,0c-0.4,0-0.4-0.1-0.3-0.4c0.7-1.7,1.3-3.5,2-5.2c0.1-0.2,0.1-0.3,0.2-0.5
		c0-0.1,0.1-0.2,0.2-0.2c0.1,0,0.1,0.1,0.2,0.2c0.2,0.6,0.5,1.1,0.7,1.7c0.5,1.1,0.9,2.2,1.4,3.4c0.1,0.2,0.2,0.4,0.2,0.6
		C139.2,71.1,139.2,71.2,138.8,71.2z"/>
	<path class="st0" d="M112.3,83.9c-0.3-0.4-0.6-0.8-0.8-1.3c-0.2-0.4-0.1-0.5,0.2-0.6c0.2-0.1,0.4-0.2,0.6-0.3c0.8-0.4,0.9-1.5,0-2
		c-0.5-0.3-1.2-0.4-1.8-0.5c-0.6,0-1.2,0.1-1.8,0c-0.1,0-0.1,0-0.2,0.1c0.2,0.1,0.3,0.3,0.3,0.6c0,1.1,0,2.3,0,3.4
		c0,0.3,0,0.5-0.2,0.8c-0.1,0.1,0,0.2,0.1,0.2c0.2,0,0.5,0,0.7,0c0.1,0,0.2,0,0.1-0.1c-0.2-0.4-0.1-0.9-0.1-1.3c0-0.7,0-0.8,0.8-0.7
		c0.2,0,0.4,0.1,0.4,0.3c0.1,0.3,0.2,0.5,0.4,0.7c0.3,0.4,0.6,0.7,0.9,1.1c0.3,0.3,0.7,0.6,1.2,0.7
		C112.9,84.5,112.6,84.2,112.3,83.9z M110.8,82c-0.3,0-0.6,0-0.9,0c-0.2,0-0.3-0.1-0.3-0.4c0-0.3,0-0.6,0-0.9c0,0,0,0,0,0
		c0-0.3,0-0.5,0-0.8c0-0.4,0.1-0.6,0.5-0.6c0.5,0,1,0,1.5,0.2c0.7,0.2,0.9,1.1,0.4,1.8C111.6,81.8,111.2,81.9,110.8,82z"/>
	<path class="st0" d="M95.4,79.8c-0.3-0.2-0.6-0.4-1-0.4c-0.8-0.2-1.7-0.1-2.5-0.1c-0.1,0-0.2,0-0.4,0.1c0.3,0.2,0.3,0.5,0.3,0.8
		c0,0.3,0,0.6,0,1c0,0.9,0,1.8,0,2.7c0,0.2-0.2,0.4,0,0.5c0.1,0.1,0.4,0,0.5,0c0.1,0,0.2,0,0.2,0c0.1,0,0.1-0.1,0.1-0.1
		c-0.3-0.4-0.2-0.9-0.2-1.4c0-0.5,0-0.5,0.5-0.5c0.6,0,1.1,0.1,1.7-0.1c0.5-0.2,1-0.4,1.1-1C95.9,80.6,95.8,80.1,95.4,79.8z
		 M95.1,81c0,0.5-0.3,0.8-0.7,0.9c-0.6,0.3-1.2,0.2-1.8,0.2c-0.2,0-0.3-0.1-0.3-0.3c0-0.3,0-0.6,0-1c0,0,0,0,0,0c0-0.3,0-0.6,0-1
		c0-0.4,0.2-0.6,0.6-0.6c0.5,0,1,0,1.5,0.3C95,79.9,95.1,80.4,95.1,81z"/>
</g>
</svg>
