<?xml version="1.0" encoding="utf-8"?>
<!-- Generator: $$$/GeneralStr/196=Adobe Illustrator 27.6.0, SVG Export Plug-In . SVG Version: 6.00 Build 0)  -->
<svg version="1.1" id="Capa_1" xmlns="http://www.w3.org/2000/svg" xmlns:xlink="http://www.w3.org/1999/xlink" x="0px" y="0px"
	 viewBox="0 0 250 100" style="enable-background:new 0 0 250 100;" xml:space="preserve">
<style type="text/css">
	.st0{fill:#777777;}
</style>
<g>
	<path class="st0" d="M100.2,50c0-6.8,0-13.5,0-20.3c0-1.2,0-1.2,1.2-1.2c3.9,0,7.8,0,11.7,0c1.2,0,1.2,0,1.2,1.2
		c0,5.2,0,10.4,0,15.7c0,1,0,1,1,1c3.3,0,6.7,0,10,0c0.7,0,0.9-0.2,0.9-0.9c0-5.3,0-10.6,0-15.9c0-1,0-1,1-1c4,0,8.1,0,12.1,0
		c0.9,0,1,0.1,1,0.9c0,13.2,0,26.5,0,39.7c0,0.6-0.2,1.2-0.1,1.9c0,0.3-0.1,0.4-0.4,0.5c-0.3,0-0.6,0-0.8,0c-3.9,0-7.9,0-11.8,0
		c-1,0-1,0-1-1.1c0-5.4,0-10.8,0-16.2c0-1,0-1-1-1c-3.3,0-6.7,0-10,0c-0.9,0-0.9,0-0.9,0.9c0,5.4,0,10.9,0,16.3c0,1,0,1.1-1,1.1
		c-4,0-8,0-12,0c-1,0-1.1-0.1-1.1-1.1C100.2,63.5,100.2,56.7,100.2,50z"/>
	<path class="st0" d="M67.1,64.7c-2.5,0-4.9,0-7.4,0c-0.6,0-1,0.2-1.3,0.8c-0.8,1.8-1.7,3.7-2.5,5.5c-0.2,0.4-0.5,0.6-1,0.6
		c-2.1,0-4.1,0-6.2,0c-0.7,0-0.8-0.2-0.5-0.8c1.8-3.6,3.5-7.1,5.3-10.7c1.7-3.4,3.3-6.8,4.9-10.1c1.6-3.3,3.2-6.5,4.8-9.8
		c0.3-0.6,0.2-1.1,0-1.6c-1.4-3-2.8-6.1-4.2-9.1c-0.4-0.8-0.3-0.9,0.6-0.9c4.4,0,8.8,0,13.2,0c0.5,0,0.8,0.2,1,0.6
		c1.7,3.4,3.3,6.7,5,10.1c1.7,3.4,3.3,6.8,5,10.2c1.6,3.3,3.2,6.6,4.8,10c1.7,3.6,3.5,7.1,5.3,10.7c0.8,1.5,0.7,1.6-0.9,1.6
		c-4.5,0-9.1,0-13.6,0c-0.8,0-1.2-0.3-1.5-1c-0.8-1.8-1.7-3.6-2.5-5.5c-0.2-0.4-0.5-0.4-0.9-0.4C72.2,64.7,69.6,64.7,67.1,64.7z
		 M67.2,46.7c-0.1,0.1-0.2,0.2-0.2,0.2c-1.6,3.4-3.2,6.9-4.8,10.3c-0.3,0.5,0,0.6,0.4,0.6c3,0,6,0,9,0c0.5,0,0.7,0,0.4-0.6
		c-1-2.1-2-4.3-3-6.4C68.5,49.5,67.8,48.1,67.2,46.7z"/>
	<path class="st0" d="M150.9,49.9c0-6.8,0-13.6,0-20.4c0-1.1,0-1.1,1.1-1.1c4,0,8,0,12,0c0.9,0,1,0,1,1c0,11.3,0,22.6,0,34
		c0,1.1,0,1.1,1.1,1.1c4.7,0,9.4,0,14.1,0c1,0,1.1,0,1.1,1c0,1.6,0,3.3,0,4.9c0,0.9,0,1-1,1c-7.8,0-15.6,0-23.4,0c-1.7,0-3.3,0-5,0
		c-0.9,0-1-0.1-1-1C150.9,63.6,150.9,56.8,150.9,49.9z"/>
	<path class="st0" d="M201.8,50c0,6.8,0,13.6,0,20.4c0,1,0,1-1,1c-4,0-8,0-12.1,0c-0.9,0-0.9,0-0.9-1c0-13.6,0-27.2,0-40.9
		c0-1.2,0-1.2,1.1-1.2c4,0,7.9,0,11.9,0c1,0,1,0,1,1C201.8,36.3,201.8,43.1,201.8,50z"/>
</g>
</svg>
