<?xml version="1.0" encoding="utf-8"?>
<!-- Generator: $$$/GeneralStr/196=Adobe Illustrator 27.6.0, SVG Export Plug-In . SVG Version: 6.00 Build 0)  -->
<svg version="1.1" id="Capa_1" xmlns="http://www.w3.org/2000/svg" xmlns:xlink="http://www.w3.org/1999/xlink" x="0px" y="0px"
	 viewBox="0 0 250 100" style="enable-background:new 0 0 250 100;" xml:space="preserve">
<style type="text/css">
	.st0{fill:#777777;}
</style>
<g>
	<path class="st0" d="M138.4,83.2c0.1-0.4,0.1-0.8,0.1-1.1c0.1-2,0.4-3.9,0.4-5.9c0-0.9,0.2-1.9,0.2-2.8c0-0.3,0.2-0.5,0.5-0.5
		c0.9,0,1.9,0,2.8,0c0.4,0,0.5,0.3,0.6,0.6c0.3,1.7,0.6,3.4,1,5.2c0.3-0.6,0.4-1.1,0.5-1.6c0.3-1.3,0.8-2.6,1.1-3.9
		c0.1-0.2,0.2-0.3,0.4-0.3c1,0,2,0,3.1,0c0.3,0,0.4,0.2,0.4,0.5c-0.1,1.5-0.1,3.1-0.1,4.6c0,1.5-0.1,3.1-0.1,4.6c0,0.2,0,0.3,0,0.5
		c0.3-0.4,0.5-0.9,0.7-1.4c1.2-2.8,2.5-5.6,3.6-8.5c0.1-0.3,0.3-0.5,0.7-0.5c0.8,0,1.5,0,2.3,0c0.5,0,0.7,0.2,0.8,0.7
		c0.4,1.4,0.8,2.9,1.2,4.3c0.5,1.8,1.1,3.5,1.6,5.3c0.2,0.5,0.1,0.6-0.5,0.7c-0.7,0-1.3,0-2,0c-0.4,0-0.6-0.2-0.7-0.6
		c-0.2-0.7-0.4-1.3-0.5-2c-0.1-0.3-0.3-0.5-0.6-0.5c-0.7,0-1.3,0-2,0c-0.4,0-0.6,0.1-0.7,0.5c-0.2,0.7-0.5,1.4-0.8,2.1
		c-0.1,0.4-0.3,0.5-0.7,0.5c-1.5,0-3.1,0-4.6,0c-0.5,0-0.6-0.1-0.6-0.6c0-1.7,0.1-3.4,0.2-5.1c0-0.2,0-0.3-0.1-0.6
		c-0.2,0.7-0.4,1.3-0.5,1.9c-0.3,1.3-0.7,2.6-1,3.9c-0.1,0.4-0.3,0.6-0.7,0.6c-0.5,0-1,0-1.5,0c-0.3,0-0.5-0.1-0.6-0.5
		c-0.2-1.2-0.4-2.4-0.6-3.6c-0.1-0.8-0.3-1.5-0.5-2.3c0,1-0.2,2-0.2,3c0,0.9,0,1.8-0.1,2.7c0,0.4-0.2,0.6-0.6,0.6
		c-0.6,0-1.3-0.1-1.9-0.1c-0.8,0-1.6,0-2.4,0.1c-0.6,0-0.7-0.1-0.9-0.7c-0.1-0.6-0.3-1.2-0.5-1.8c-0.1-0.4-0.3-0.5-0.7-0.5
		c-0.6,0-1.3,0-2,0c-0.4,0-0.6,0.1-0.8,0.5c-0.2,0.7-0.5,1.4-0.8,2.1c-0.1,0.3-0.3,0.5-0.7,0.5c-1.7,0-3.4,0-5.1,0
		c-0.3,0-0.5-0.1-0.6-0.5c-0.4-1.7-0.9-3.4-1.4-5c-0.1-0.5-0.1-0.5,0.4-0.5c1,0.1,1.7-0.5,1.7-1.3c0-0.5-0.3-0.8-0.7-0.9
		c0,0-0.1,0-0.1,0c-1.3-0.1-1.3-0.1-1.5,1.2c-0.1,0.5-0.1,1-0.1,1.6c0,1.6-0.1,3.2-0.1,4.9c0,0.4-0.2,0.6-0.6,0.6
		c-0.6,0-1.2,0-1.8,0c-0.4,0-0.6-0.2-0.5-0.6c0.1-1,0.1-2.1,0.2-3.1c0.1-2,0.2-4.1,0.2-6.1c0-0.8,0-0.8,0.8-0.8c1.4,0,2.8,0,4.2,0
		c1.3,0,2.5,0.8,2.7,1.9c0.3,1.7,0,2.8-1.3,3.7c-0.5,0.3-0.5,0.6-0.3,1.1c0.4,1.1,0.8,2.2,1.2,3.3c0.3-0.1,0.3-0.3,0.4-0.5
		c1.4-3.1,2.7-6.1,3.9-9.2c0.2-0.4,0.4-0.6,0.9-0.6c0.8,0,1.5,0,2.3,0c0.4,0,0.6,0.2,0.7,0.6c0.9,3.2,1.8,6.3,2.8,9.4
		C138.2,82.9,138.2,83.1,138.4,83.2z M155.5,75.8C155.4,75.8,155.4,75.8,155.5,75.8c-0.3,0.4-0.4,0.8-0.6,1.2
		c-0.5,1.2-0.7,1.1,0.8,1.1c0,0,0.1,0,0.1,0c0.2,0,0.3-0.1,0.2-0.3C155.8,77.2,155.6,76.5,155.5,75.8z M133.4,75.9
		c-0.1,0-0.1,0-0.2,0c-0.3,0.7-0.5,1.3-0.8,2c-0.1,0.2,0,0.3,0.2,0.3c0.3,0,0.7,0,1,0c0.2,0,0.3-0.1,0.3-0.3
		C133.7,77.2,133.5,76.6,133.4,75.9z"/>
	<path class="st0" d="M125,6.1c16.1-0.2,29.6,13.4,29.5,29.6c-0.1,15.8-13.3,29.2-29.5,29.2c-16,0-29.6-13.5-29.3-29.9
		C95.8,19.4,108.9,5.9,125,6.1z M125.1,63.9c15.6,0.1,28.5-12.6,28.5-28.4c0-15.8-12.7-28.5-28.5-28.5c-15.9,0-28.5,12.8-28.5,28.5
		C96.5,51.1,109.4,64,125.1,63.9z"/>
	<path class="st0" d="M168.3,77.6c-0.1,0.2-0.1,0.3-0.1,0.5c0,1.6-0.1,3.2-0.1,4.8c0,0.7-0.1,0.8-0.8,0.8c-0.5,0-1,0-1.4,0
		c-0.4,0-0.6-0.2-0.6-0.6c0.2-2,0.2-4.1,0.3-6.2c0.1-1.2,0-2.4,0.1-3.5c0-0.6,0.1-0.6,0.6-0.6c0.8,0,1.5,0,2.3,0
		c0.4,0,0.6,0.1,0.8,0.5c0.8,1.8,1.6,3.6,2.4,5.5c0,0.1,0.1,0.1,0.2,0.3c0.2-0.8,0.2-1.6,0.2-2.3c0.1-1.1,0-2.2,0-3.3
		c0-0.6,0.1-0.7,0.7-0.7c0.5,0,1.1,0,1.6,0c0.4,0,0.5,0.2,0.5,0.5c-0.1,1.3-0.2,2.6-0.2,3.8c0,0.9-0.1,1.8-0.1,2.7
		c0,1.1-0.1,2.2-0.1,3.2c0,0.4-0.2,0.6-0.6,0.6c-0.8,0-1.6,0-2.4,0c-0.3,0-0.5-0.2-0.6-0.4c-0.8-1.7-1.6-3.5-2.4-5.2
		C168.5,77.9,168.4,77.7,168.3,77.6z"/>
	<path class="st0" d="M103.2,79.3c-0.4,0-0.8,0-1.2,0c-0.3,0-0.5,0.1-0.5,0.5c0,1.1-0.1,2.2-0.1,3.2c0,0.5-0.1,0.7-0.7,0.7
		c-0.6,0-1.2,0-1.9,0c-0.4,0-0.6-0.2-0.6-0.6c0.1-1.3,0.1-2.5,0.2-3.8c0.1-1.9,0.2-3.8,0.2-5.7c0-0.8,0-0.8,0.8-0.8
		c0.6,0,1.1,0,1.7,0c0.4,0,0.6,0.2,0.5,0.6c-0.2,0.9,0,1.9-0.2,2.8c-0.1,0.4,0.1,0.6,0.5,0.6c0.7,0,1.5,0,2.2,0
		c0.4,0,0.5-0.1,0.5-0.5c0-0.9,0.1-1.9,0.1-2.8c0-0.4,0.2-0.6,0.6-0.6c0.7,0,1.3,0,2,0c0.4,0,0.5,0.2,0.5,0.5
		c-0.1,1.4-0.2,2.8-0.2,4.2c0,0.3,0,0.5,0,0.8c0,1.6-0.1,3.2-0.1,4.8c0,0.4-0.2,0.6-0.6,0.6c-0.7,0-1.3,0-2,0
		c-0.4,0-0.6-0.1-0.5-0.5c0.1-1,0.1-1.9,0.1-2.9c0-0.2,0-0.3,0-0.5c0-0.3-0.1-0.5-0.5-0.5C104,79.3,103.6,79.3,103.2,79.3z"/>
	<path class="st0" d="M114.2,72.8c0.4,0,0.8,0,1.3,0c0.3,0,0.5,0.1,0.6,0.5c0.9,3.2,1.9,6.4,2.9,9.6c0.2,0.6,0.1,0.7-0.5,0.7
		c-0.6,0-1.2,0-1.9,0c-0.4,0-0.6-0.2-0.7-0.6c-0.2-0.7-0.4-1.4-0.6-2.1c-0.1-0.3-0.2-0.4-0.5-0.4c-0.7,0-1.5,0-2.2,0
		c-0.3,0-0.5,0.1-0.6,0.4c-0.3,0.7-0.6,1.4-0.8,2.2c-0.1,0.3-0.3,0.5-0.7,0.5c-0.7,0-1.4,0-2.1,0c-0.5,0-0.6-0.1-0.4-0.6
		c1.5-3.2,2.9-6.4,4.2-9.7c0.2-0.4,0.4-0.6,0.8-0.6C113.5,72.8,113.8,72.8,114.2,72.8z M114,75.7c-0.3,0.7-0.5,1.4-0.8,2
		c-0.1,0.1-0.2,0.3,0,0.4c0.4,0.1,0.8,0.1,1.2,0c0.2,0,0.2-0.2,0.1-0.3C114.4,77.2,114.3,76.5,114,75.7z"/>
	<path class="st0" d="M84.6,83.7c-0.3,0-0.6,0-0.8,0c-0.5,0.1-0.7-0.2-0.8-0.6c-0.2-0.7-0.4-1.3-0.5-2c-0.1-0.3-0.3-0.5-0.6-0.5
		c-0.7,0-1.4,0-2.1,0c-0.3,0-0.5,0.2-0.7,0.5c-0.2,0.7-0.5,1.4-0.7,2c-0.1,0.4-0.3,0.6-0.8,0.5c-0.7,0-1.4,0-2,0
		c-0.6,0-0.6-0.1-0.4-0.6c0.8-1.7,1.5-3.4,2.3-5.2c0.7-1.5,1.3-3,1.9-4.5c0.2-0.4,0.4-0.5,0.8-0.5c0.7,0,1.5,0,2.2,0
		c0.5,0,0.7,0.2,0.9,0.6c0.6,2,1.1,3.9,1.7,5.9c0.4,1.3,0.8,2.5,1.2,3.8c0.1,0.5,0.1,0.6-0.4,0.6C85.3,83.7,84.9,83.7,84.6,83.7
		C84.6,83.7,84.6,83.7,84.6,83.7z M81.1,75.9c-0.4,0.7-0.7,1.3-0.9,2.1c0,0.1,0,0.1,0.1,0.2c0.1,0.1,1.1,0.1,1.2,0
		c0.1-0.1,0.1-0.2,0.1-0.3C81.5,77.2,81.3,76.5,81.1,75.9z"/>
	<path class="st0" d="M89.8,83.7c-1,0-1.9,0-2.9,0c-0.4,0-0.6-0.2-0.5-0.6c0.1-1.5,0.2-3,0.3-4.5c0-0.5,0-1,0-1.5
		c0-1.3,0.1-2.5,0.1-3.8c0-0.4,0.2-0.5,0.5-0.5c0.7,0,1.4,0,2,0c0.4,0,0.5,0.2,0.5,0.6c-0.1,1.5-0.2,3.1-0.2,4.6
		c0,0.9-0.1,1.8-0.1,2.7c0,0.4,0.1,0.5,0.5,0.5c1,0,1.9,0.1,2.9-0.1c0.4-0.1,0.6,0.1,0.6,0.5c0,0.5-0.1,1-0.1,1.5
		c0,0.4-0.2,0.6-0.6,0.6C91.8,83.7,90.8,83.7,89.8,83.7z"/>
	<path class="st0" d="M162.2,83.7c-0.3,0-0.6,0-0.9,0c-0.4,0-0.6-0.1-0.6-0.6c0-0.8,0-1.6,0.1-2.5c0.1-1.9,0.2-3.8,0.2-5.7
		c0-0.6,0.1-1.1,0.1-1.7c0-0.3,0.1-0.4,0.4-0.4c0.7,0,1.5,0,2.2,0c0.3,0,0.5,0.2,0.4,0.5c-0.1,0.8-0.1,1.7-0.1,2.5
		c-0.1,1.2-0.1,2.4-0.1,3.6c0,1.2-0.1,2.4-0.1,3.7c0,0.4-0.2,0.6-0.6,0.6C162.9,83.7,162.6,83.7,162.2,83.7
		C162.2,83.7,162.2,83.7,162.2,83.7z"/>
	<path class="st0" d="M103.9,88.7c-0.2,0.2-0.1,0.3-0.1,0.5c0,1.3,0,2.6,0,3.9c0,0.1,0,0.3,0,0.4c0,0.1-0.1,0.2-0.2,0.2
		c-0.2,0-0.3-0.1-0.3-0.2c0-0.1-0.1-0.3-0.1-0.4c0-1.8,0-3.5,0-5.3c0-0.1,0-0.2,0-0.2c0.1-0.4,0.4-0.5,0.6-0.2
		c0.1,0.1,0.3,0.3,0.4,0.5c0.9,1.3,1.8,2.7,2.7,4c0.1,0.1,0.1,0.2,0.2,0.3c0.1-0.2,0.1-0.3,0.1-0.5c0-1.2,0-2.5,0-3.7
		c0-0.1,0-0.3,0-0.4c0-0.2,0.1-0.3,0.3-0.3c0.2,0,0.3,0.1,0.3,0.3c0,0.1,0,0.2,0,0.4c0,1.7,0,3.4,0,5.1c0,0.1,0,0.3,0,0.4
		c-0.1,0.3-0.3,0.4-0.5,0.1c-0.2-0.2-0.3-0.4-0.4-0.6c-0.9-1.3-1.7-2.5-2.6-3.8C104.2,89.1,104.1,88.8,103.9,88.7z"/>
	<path class="st0" d="M145,90.8c-0.3,0.2-0.6,0.4-0.8,0.5c-0.7,0.2-1.4,0.1-2-0.5c-0.6-0.6-0.9-1.4-0.5-2.3c0.3-0.9,1-1.5,1.9-1.4
		c0.9,0,1.6,0.6,1.9,1.5c0.4,1.3,0.4,2.5-0.1,3.8c-0.5,1.3-1.7,1.9-2.8,1.4c-0.1-0.1-0.3-0.1-0.4-0.3c-0.1-0.2-0.2-0.4-0.1-0.6
		c0.2-0.2,0.3,0,0.5,0.1c0.8,0.5,1.7,0.2,2.1-0.6C144.9,91.9,145,91.4,145,90.8z M144.8,89.3c0-1-0.4-1.5-1.3-1.5
		c-0.8,0-1.3,0.7-1.3,1.6c0,0.8,0.5,1.3,1.3,1.3C144.4,90.7,144.8,90.2,144.8,89.3z"/>
	<path class="st0" d="M122.3,90.5c0-0.9,0-1.8,0-2.6c0-0.5,0.1-0.6,0.6-0.6c0.9,0,1.9,0,2.8,0c0.1,0,0.2,0,0.2,0
		c0.2,0,0.4,0.1,0.4,0.4c0,0.2-0.2,0.3-0.4,0.3c-0.6,0-1.3,0-1.9,0c-1.2,0-1.1-0.1-1.1,1.1c0,1.1-0.3,1.2,1.2,1.2c0.5,0,1,0,1.4,0
		c0.2,0,0.4,0.1,0.4,0.3c0,0.3-0.2,0.3-0.4,0.3c-0.7,0-1.4,0-2.1,0c-0.4,0-0.5,0.1-0.5,0.5c0,0.4,0,0.8,0,1.3c0,0.4,0.2,0.5,0.5,0.5
		c0.7,0,1.4,0,2.1,0c0.2,0,0.3,0,0.5,0c0.2,0,0.3,0.1,0.3,0.3c0,0.2-0.1,0.3-0.4,0.4c-0.4,0-0.7,0-1.1,0c-0.7,0-1.3,0-2,0
		c-0.5,0-0.6-0.1-0.6-0.6C122.3,92.3,122.3,91.4,122.3,90.5C122.3,90.5,122.3,90.5,122.3,90.5z"/>
	<path class="st0" d="M161.2,90.6c0.1,0.7-0.1,1.4-0.5,2.1c-0.4,0.7-1,1.2-1.8,1.2c-0.8,0-1.4-0.4-1.8-1.1c-0.9-1.5-0.7-3.8,0.4-5
		c1-1.1,2.5-0.9,3.2,0.4C161.1,89,161.2,89.5,161.2,90.6z M160.5,90.6c0.1-0.8-0.2-1.6-0.6-2.2c-0.5-0.6-1.5-0.7-2-0.1
		c-0.9,1.1-0.9,3.1-0.1,4.2c0.7,1,1.8,0.9,2.4-0.2C160.4,91.8,160.6,91.2,160.5,90.6z"/>
	<path class="st0" d="M90.9,93.9c-0.8,0.1-1.4-0.4-2-0.9c-0.2-0.1-0.2-0.3-0.1-0.5c0.2-0.2,0.3-0.1,0.5,0c0.4,0.3,0.8,0.6,1.3,0.7
		c0.3,0.1,0.6,0,0.8-0.1c0.5-0.2,0.7-0.6,0.7-1c0-0.5-0.3-0.8-0.6-0.9c-0.5-0.2-1.1-0.4-1.6-0.6c-1.1-0.5-1.4-1.8-0.7-2.7
		c0.7-1,2.6-1,3.3,0c0.1,0.2,0.2,0.3,0,0.5c-0.2,0.2-0.3,0.1-0.5,0c-0.4-0.3-0.9-0.5-1.4-0.4c-0.6,0-1,0.3-1.1,0.9
		c-0.1,0.5,0.1,0.9,0.7,1.1c0.5,0.2,1,0.3,1.4,0.5c0.7,0.3,1.2,0.8,1.2,1.6c0,0.8-0.4,1.3-1.1,1.7C91.5,93.9,91.2,93.9,90.9,93.9z"
		/>
	<path class="st0" d="M113.3,90.5c0,0.9,0.2,1.6,0.8,2.2c0.9,0.9,2,0.9,2.9-0.1c0.1-0.1,0.2-0.4,0.4-0.3c0.2,0.1,0.1,0.3,0.1,0.5
		c0,0.2-0.1,0.3-0.2,0.4c-1.2,1.1-3,1-3.9-0.4c-1-1.4-0.9-3.4,0.2-4.8c1-1.2,2.8-1.2,3.8-0.1c0.1,0.1,0.2,0.2,0.2,0.4
		c0,0.2,0.1,0.5-0.1,0.6c-0.2,0.1-0.3-0.1-0.5-0.3c-0.8-1.1-2.6-0.9-3.2,0.2C113.4,89.4,113.3,89.9,113.3,90.5z"/>
	<path class="st0" d="M150.8,87.2c0.5,0,0.9,0,1.4,0c0.4,0,0.6,0.2,0.4,0.6c-0.7,1.8-1.5,3.7-2.2,5.5c0,0.1-0.1,0.2-0.2,0.3
		c-0.1,0.1-0.3,0.2-0.5,0.1c-0.2-0.1-0.1-0.3-0.1-0.4c0.2-0.6,0.5-1.1,0.7-1.7c0.4-1,0.9-2.1,1.3-3.1c0.2-0.5,0.1-0.5-0.4-0.6
		c-0.6,0-1.3,0-1.9,0c-0.3,0-0.5,0-0.5-0.4c0-0.3,0.3-0.4,0.5-0.4C149.9,87.2,150.4,87.2,150.8,87.2
		C150.8,87.2,150.8,87.2,150.8,87.2z"/>
	<path class="st0" d="M136.7,90.5c0,0.9,0,1.8,0,2.7c0,0.2,0,0.4-0.2,0.5c-0.2,0.2-0.5,0-0.5-0.4c0-0.7,0-1.5,0-2.2
		c0-0.8,0-1.7,0-2.5c0-0.4-0.1-0.6-0.5-0.4c-0.2,0.1-0.4,0.2-0.6-0.1c-0.1-0.3,0.1-0.4,0.3-0.5c0.2-0.1,0.5-0.2,0.7-0.3
		c0.5-0.2,0.7,0,0.7,0.5C136.7,88.7,136.7,89.6,136.7,90.5z"/>
	<path class="st0" d="M97.6,90.5c0-0.9,0-1.7,0-2.6c0-0.2,0-0.3,0.1-0.5c0-0.1,0.1-0.2,0.3-0.2c0.1,0,0.2,0.1,0.3,0.2
		c0,0.1,0,0.3,0,0.5c0,1.7,0,3.4,0,5.2c0,0.3,0.1,0.7-0.3,0.7c-0.4,0-0.3-0.4-0.3-0.7C97.6,92.2,97.6,91.3,97.6,90.5z"/>
	<path class="st0" d="M116.5,25.2c-0.9,0.1-1.7-0.1-2.5-0.2c-0.5,0-0.9-0.5-0.8-1.1c0.1-0.4,0.2-0.9,0.4-1.2
		c0.3-0.7,0.4-1.3,0.5-2.1c0.2-1.5,0.6-2.8,1.7-3.9c0.5-0.5,1-1.1,1.5-1.7c0.2-0.3,0.5-0.5,0.9-0.6c0.1,0,0.3-0.1,0.3-0.2
		c0.6-1.1,1.8-1.3,2.8-1.6c0.6-0.2,1.2-0.5,1.6-0.9c0.8-0.8,2.2-0.6,2.8,0.3c0.2,0.3,0.4,0.6,0.7,0.8c0.4,0.2,0.6,0.6,0.4,1
		c-0.1,0.3,0,0.4,0.2,0.4c1.4,0.6,2.2,1.7,2.8,3c0.2,0.4,0.3,0.8,0.5,1.2c0.1,0.5,0.1,1,0.1,1.4c0,1,0,2,0,2.9c0,0,0,0,0,0
		c-0.3,1.1,0.3,1.6,1.2,2.1c1.1,0.6,2.1,1.4,3.1,2.1c0.3,0.2,0.4,0.4,0.4,0.8c0.1,0.6,0.1,1.3,0.1,1.9c0,0.4-0.2,0.8-0.2,1.2
		c0,5.8,0,11.7,0,17.5c0,0.4,0.1,0.7,0.3,1c0.2,0.4,0.5,0.7,0.6,1.2c0.1,0.3,0.3,0.5,0.6,0.7c0.4,0.2,0.6,0.5,0.6,1
		c0.1,0.4,0,0.9,0,1.3c0,0.3-0.2,0.4-0.4,0.6c-1.6,1.4-3.3,2.9-4.9,4.3c-0.3,0.3-0.7,0.6-1,0.9c-0.2,0.2-0.5,0.3-0.8,0.3
		c-2.3,0-4.6,0-6.9,0c-1.5,0-3,0-4.5-0.1c-0.5,0-0.8-0.1-1.2-0.4c-1.7-1.5-3.3-2.9-4.9-4.5c-0.2-0.2-0.3-0.3-0.5-0.5
		c-0.7-0.6-0.9-1.4-0.6-2.3c0.1-0.2,0.2-0.3,0.3-0.4c0.6-0.2,0.7-0.7,0.9-1.2c0.1-0.4,0.4-0.7,0.5-1c0.1-0.3,0.2-0.5,0.2-0.8
		c0-4.5,0-9,0-13.6c0-1.6,0-3.2-0.1-4.8c0-0.7,0.1-1.4,0.1-2c0-0.8,0.5-1.1,1-1.5c0.6-0.4,1.2-0.9,1.8-1.3
		C116.5,25.4,116.5,25.3,116.5,25.2z M127.6,51.6c0.3-0.1,0.7-0.2,0.6-0.7c0-0.1,0.1-0.1,0.2-0.2c0.2-0.2,0.2-0.3,0-0.5
		c-0.3-0.3-0.3-0.6-0.1-0.9c0.2-0.3,0.2-0.5,0.3-0.9c0.1-0.8-0.2-1.5-0.5-2.1c0-0.1-0.1-0.1-0.2-0.1c-0.1,0-0.2,0-0.2,0.1
		c0,0.1,0,0.2-0.1,0.4c-0.1,0.1-0.1,0.2-0.2,0.4c-0.4,0-0.5,0.1-0.4,0.6c0.2,0.5,0.1,1.1-0.2,1.6c-0.1,0.2-0.3,0.4-0.6,0.1
		c-0.5-0.5-0.5-2,0.1-2.5c0.2-0.2,0.4-0.4,0.4-0.7c0.1-0.1,0.1-0.1,0.2-0.2c0.3,0,0.6,0.1,0.6-0.4c0-0.1,0.2-0.2,0.3-0.2
		c0.2,0,0.3,0.1,0.4,0.3c0.1,0.1,0.1,0.3,0.1,0.4c0.3-0.2,0.2-0.4,0-0.6c-0.3-0.3-0.3-0.6-0.1-0.9c0.5-0.7,0.3-1.4,0.2-2.1
		c0-0.1-0.1-0.2-0.2-0.3c0,0,0,0.1,0,0.1c0,0.1,0.1,0.2,0.1,0.3c0.3,0.6,0.1,1.2-0.2,1.8c-0.1,0.1-0.1,0.3-0.3,0.3
		c-0.2,0-0.3-0.1-0.3-0.3c-0.3-0.6-0.4-1.1-0.2-1.7c0-0.1,0.1-0.2,0-0.2c-0.1,0-0.2,0-0.3,0c-0.1,0-0.1,0.1,0,0.2
		c0.2,0.6,0.1,1.2-0.1,1.8c-0.5,0.4-0.6,0.4-0.8-0.2c-0.3-0.6-0.2-1.3,0-2c-0.2,0.2-0.3,0.1-0.5,0.1c0.2,0.7,0.2,1.3-0.1,1.9
		c-0.1,0.2-0.2,0.4-0.4,0.4c-0.2,0-0.3-0.2-0.4-0.4c-0.4-0.7-0.3-1.5,0-2.2c-0.2,0.2-0.3,0.3-0.6,0.3c0,0.2,0.1,0.3,0.1,0.4
		c0.1,0.6,0.1,1.1-0.2,1.6c-0.3,0.4-0.5,0.4-0.7,0c-0.2-0.4-0.3-0.8-0.3-1.2c0-0.5,0.3-0.8,0.4-1.2c0.1-0.2,0.2-0.4,0.2-0.6
		c0.1-0.1,0.2-0.3,0.3-0.4c0.4,0.1,0.7,0,0.9-0.4c0.2,0,0.4,0,0.6,0.1c0.3,0.4,0.6,0.2,0.8-0.1c0.2,0,0.3,0,0.5,0
		c0.1,0.1,0.1,0.1,0.2,0.2c0.1,0.4-0.1,0.6-0.4,0.8c-0.1,0-0.2,0.1-0.1,0.2c0,0,0.1,0.1,0.1,0.1c0.1,0,0.1-0.1,0.2-0.2
		c0.1-0.2,0.2-0.4,0.5-0.4c0.2,0,0.3-0.1,0.3-0.3c0-0.2,0.2-0.3,0.4-0.4c0.2,0,0.4,0.1,0.5,0.3c0,0.1,0,0.2,0.1,0.3
		c0.3-0.2,0.2-0.4,0-0.5c-0.3-0.3-0.3-0.5-0.1-0.8c0.2-0.3,0.3-0.6,0.3-0.9c0-0.3,0-0.6,0-0.9c0-0.3-0.1-0.6-0.4-0.8
		c-0.1-0.1-0.2-0.2-0.3-0.3c0-0.1,0-0.2,0-0.4c0.1,0,0.1,0,0.2-0.1c0.6-0.3,0.6-0.3,0.2-0.8c-0.2-0.3-0.1-0.5,0-0.8
		c0.2-0.2,0.3-0.4,0.3-0.7c0-0.3,0-0.7,0.4-0.8c-3.1,0-6.1,0-9.2,0c0.4,0.1,0.4,0.4,0.4,0.7c0,0.3,0.1,0.6,0.3,0.8
		c0.3,0.3,0.3,0.6,0,0.9c-0.3,0.2-0.2,0.4,0,0.6c0.2,0.2,0.3,0.4,0.2,0.7l0,0c-0.5,0.5-0.7,1.9-0.2,2.5c0.3,0.4,0.4,0.7-0.1,1
		c-0.1,0.1-0.2,0.2-0.1,0.4c0.3,0.3,0.5,0.8,0.9,0.9c0,0,0,0,0,0c0.1,0.2,0.1,0.4,0.2,0.6c0.2,0.6,0.1,1.2-0.1,1.8
		c-0.1,0.1-0.1,0.3-0.3,0.3c-0.2,0-0.3-0.2-0.4-0.3c-0.3-0.6-0.4-1.1-0.2-1.7c0-0.1,0.1-0.2,0.1-0.4c-0.3,0.4-0.4,1.7-0.1,2.2
		c0.3,0.4,0.4,0.7,0.1,1.2c0,0,0,0.1,0,0.2c0.1,0.3,0.4,0.6,0.1,1c-0.5,0.7-0.5,1.9,0,2.6c0.2,0.2,0.2,0.4,0,0.7
		c-0.2,0.2-0.5,0.4-0.1,0.7c0.2,0.2,0.2,0.6,0.4,0.7c0.3,0.1,0.4,0.4,0.5,0.6c0,0.1,0.1,0.3,0.2,0.3c0.2,0,0.2-0.1,0.2-0.2
		c0-0.1,0.2-0.3,0.1-0.4c-0.2,0.1-0.3,0.3-0.5,0.1c-0.2-0.2-0.4-0.5-0.3-0.8c0.2-0.4,0.2-0.7,0-1.1c-0.1-0.3,0.1-0.5,0.3-0.7
		c0.2-0.1,0.3,0.1,0.4,0.2c0.2,0.2,0.1,0.6,0.4,0.5c0.2,0,0.2-0.4,0.4-0.7c0,0,0,0,0,0c0.2-0.1,0.4-0.1,0.5,0.1
		c0.2,0.3,0.3,0.7,0.1,1c-0.1,0.2-0.1,0.3,0,0.5c0.2,0.5,0.1,0.8-0.4,1c-0.1,0-0.2,0-0.1,0.1c0,0.1,0.1,0.2,0.2,0.3
		c0.1,0,0.1,0,0.2-0.1c0.1-0.1,0.1-0.2,0.2-0.3c0.1-0.4,0.4-0.5,0.7-0.2c0.3,0.5,0.4,0.5,0.7,0c0.1-0.2,0.3-0.3,0.3-0.5
		c0.2,0.3,0.4,0.7,0.7,0.8c0.4,0.1,0.4-0.5,0.7-0.7c0.1,0.2,0.3,0.3,0.4,0.5C127.3,52.1,127.3,52.1,127.6,51.6z M132.3,32.1
		c-0.8,0.4-1.7,0.8-2.4,1.4c0.5,0,0.6,0.2,0.5,0.6c0,0.1-0.1,0.3,0.1,0.4c0.4,0.3,0.7,0.6,1.1,0.8c1.2,0.4,1.4,0.8,1.2,1.9
		c0,0.1,0,0.3,0.1,0.4c0.3,0.2,0.6,0.6,1.1,0.6c0-0.1,0-0.2-0.1-0.2c-0.2-0.2-0.4-0.4-0.6-0.5c-0.4-0.3-0.4-0.8-0.3-1.3
		c0-0.1,0.1-0.3-0.1-0.4c-0.6-0.4-1.3-0.6-1.9-1.1c-0.6-0.5-0.6-1.2,0.1-1.6c0.1-0.1,0.3-0.2,0.4-0.1c0.2,0.1,0.1,0.3,0.1,0.5
		c0,0.1-0.1,0.3,0,0.4c0.3,0.1,0.5,0.4,0.8,0.6c0.5,0.3,1.2,0.4,1.6,1c0-0.5-0.5-1-1.1-1.1c-0.6-0.1-1-0.5-1.2-1.1
		C131.6,32.5,132.1,32.4,132.3,32.1c0.5-0.1,0.6,0,0.5,0.5c0,0.2-0.1,0.3,0.1,0.5c0.3,0.2,0.6,0.6,1.1,0.6c0-0.3-0.3-0.5-0.5-0.6
		c-0.2-0.2-0.4-0.3-0.5-0.6c-0.1-0.3,0-0.5,0.2-0.8c-0.2,0.1-0.4,0.2-0.6,0.3C132.4,32,132.4,32,132.3,32.1z M124.5,18.4
		c0.8,0,1.6,0,2.4,0c0.4,0,0.5-0.2,0.4-0.5c-0.3-1-0.8-1.8-1.5-2.5c-0.1-0.2-0.3-0.2-0.5-0.2c-0.4,0.1-0.9,0.1-1.3,0
		c-0.3-0.1-0.4,0-0.6,0.2c-0.6,0.7-1.1,1.5-1.4,2.4c-0.2,0.6-0.2,0.6,0.4,0.6C123,18.4,123.8,18.4,124.5,18.4z M124.5,29.4
		c1.5,0,2.8,0,4.1,0c0.4,0,0.5-0.1,0.3-0.5c-0.4-1.1-0.8-2.2-1.1-3.3c-0.1-0.3-0.3-0.4-0.6-0.4c-1.8,0-3.7,0-5.5,0
		c-0.3,0-0.5,0.1-0.6,0.4c-0.4,1.1-0.8,2.2-1.1,3.3c-0.1,0.3-0.1,0.4,0.3,0.4C121.7,29.5,123.2,29.4,124.5,29.4z M122.1,14.8
		c-0.1,0-0.3,0.1-0.4,0.1c-0.9,0.4-1.5,1.1-1.9,2c-0.4,0.8-0.4,0.9,0.5,1.2c0.1,0,0.1,0,0.2,0.1c0.3,0.1,0.5,0.1,0.6-0.3
		c0.2-0.9,0.7-1.7,1.3-2.5c0.1-0.1,0.3-0.2,0.2-0.4C122.6,14.8,122.4,14.8,122.1,14.8z M119.7,26.1c0-0.2,0-0.3-0.2-0.3
		c-0.4-0.1-0.7-0.3-1.1,0c-0.6,0.4-1.2,0.8-1.8,1.2c-0.2,0.1-0.3,0.3,0,0.4c0.7,0.3,1.3,0.5,2,0.8c0.2,0.1,0.3,0,0.4-0.2
		C119.2,27.4,119.5,26.7,119.7,26.1z M130,25.5c-0.6,0-0.8,0.3-0.6,0.9c0.2,0.5,0.3,1,0.5,1.5c0.1,0.3,0.2,0.3,0.5,0.2
		c0.6-0.3,1.2-0.5,1.9-0.8c0.3-0.1,0.4-0.2,0.1-0.4c-0.6-0.4-1.3-0.9-1.9-1.3C130.3,25.6,130.2,25.5,130,25.5z M126.6,14.7
		c-0.1,0-0.3,0-0.3,0.1c-0.1,0.2,0.1,0.2,0.2,0.3c0.5,0.6,1,1.3,1.3,2.1c0.4,1,0.4,1,1.4,0.7c0.3-0.1,0.4-0.2,0.3-0.5
		c-0.4-1.1-1-1.9-2-2.5C127.2,14.9,126.9,14.7,126.6,14.7z M134,44c-0.1-0.7-0.6-0.7-1.1-0.8c-0.7-0.2-1.2-0.7-1.2-1.4
		c0-0.7-0.2-0.9-0.9-1.2c-0.3-0.1-0.5-0.2-0.7-0.3c-0.3-0.2,0-0.5,0.1-0.8c0-0.1,0-0.2-0.1-0.2c-0.1,0-0.2,0.1-0.2,0.2
		c0,0.9,0,1.7,0,2.6c0,0.1,0,0.2,0.1,0.2c0.7,0.2,0.4,0.7,0.4,1.1c0,0.1-0.1,0.3,0,0.4c0.4,0.3,0.7,0.6,1.2,0.7
		c1,0.2,1.3,0.6,1.2,1.4c-0.1,0.5,0.2,0.8,0.5,1c0.2,0.1,0.5,0.3,0.6,0.1c0.1-0.2-0.2-0.4-0.3-0.4c-0.7-0.3-0.8-0.9-0.6-1.6
		c0-0.1,0-0.2,0-0.2c-0.4-0.2-0.8-0.5-1.2-0.6c-0.8-0.2-1.2-0.6-1.2-1.4c0-0.4,0-0.7-0.4-0.9c-0.3-0.2-0.1-0.5,0-0.7
		c0.1-0.2,0.2-0.3,0.4-0.2c0.5,0.1,1,0.5,1.1,1.1c0,0.2,0,0.5,0,0.7c0,0.1-0.1,0.2,0,0.3c0.5,0.2,0.8,0.6,1.4,0.7
		C133.4,43.6,133.7,43.7,134,44z M124.4,55.9c1.7,0,3.3,0,5,0c0.1,0,0.4,0,0.4-0.2c0-0.2-0.2-0.2-0.4-0.2c-3.3,0-6.7-0.1-10,0.1
		c-0.1,0-0.3,0-0.3,0.1c0,0.2,0.2,0.1,0.3,0.1c0.1,0,0.2,0,0.3,0C121.3,55.9,122.9,55.9,124.4,55.9z M124.5,32.5c-1.5,0-2.9,0-4.4,0
		c-0.2,0-0.6-0.1-0.6,0.2c0,0.3,0.4,0.2,0.6,0.2c2.9,0,5.8,0,8.8,0c0.1,0,0.1,0,0.2,0c0.2,0,0.4,0,0.4-0.2c0-0.2-0.2-0.2-0.4-0.2
		c-0.1,0-0.2,0-0.3,0C127.4,32.5,126,32.5,124.5,32.5z M131.6,37.1c0.2-0.6,0.2-0.5-0.1-0.8c-0.4-0.3-0.8-0.5-1.3-0.7
		c-0.2-0.1-0.3-0.2-0.2-0.5c0-0.1,0.1-0.2,0.1-0.3c0-0.1,0.1-0.3-0.1-0.3c-0.2,0-0.2,0.2-0.2,0.3c0,0.8,0,1.6,0,2.5
		c0,0.1,0,0.3,0.1,0.3c0.5,0.2,0.4,0.7,0.4,1.1c0,0.2-0.1,0.3,0.1,0.5c0.4,0.3,0.8,0.7,1.3,0.8c0.8,0.2,1.2,0.6,1,1.4
		c-0.1,0.6,0.3,0.8,0.6,1c0.1,0.1,0.4,0.3,0.5,0.1c0.1-0.2-0.2-0.4-0.3-0.4c-0.6-0.4-0.8-0.9-0.7-1.7c0-0.1,0-0.2-0.1-0.2
		c-0.4-0.1-0.7-0.5-1.1-0.6c-1.3-0.5-1.4-0.8-1.3-1.8c0-0.3,0-0.5-0.3-0.7c-0.4-0.2-0.2-0.6,0-0.8c0.2-0.3,0.5-0.2,0.7,0
		C131.1,36.5,131.5,36.6,131.6,37.1z M134,48.4c-0.1-0.3-0.3-0.5-0.6-0.6c-0.3-0.1-0.7,0-1-0.2c-0.6-0.4-0.8-0.9-0.7-1.6
		c0-0.1,0.1-0.3-0.1-0.4c-0.3-0.2-0.7-0.5-1.1-0.6c-0.7-0.2-0.7-0.2-0.5-0.8c0-0.1,0.1-0.2,0-0.4c0-0.1-0.1-0.1-0.2,0
		c-0.1,0.1-0.1,0.2-0.1,0.3c0,0.8,0,1.5,0,2.3c0,0.1,0,0.3,0.1,0.4c0.5,0.2,0.4,0.6,0.4,1c0,0.3,0,0.4,0.2,0.6
		c0.5,0.5,1.1,0.4,1.6,0.6c0,0,0.1,0,0.2-0.1c0-0.1,0-0.2-0.1-0.2c-0.2-0.1-0.4-0.2-0.6-0.2c-0.9-0.2-1.2-0.5-1.2-1.5
		c0-0.3,0-0.6-0.3-0.8c-0.4-0.2-0.1-0.6,0-0.9c0.2-0.3,0.4-0.2,0.7-0.1c0.7,0.3,0.9,0.8,0.8,1.5c0,0.2-0.1,0.3,0.1,0.5
		c0.4,0.2,0.8,0.5,1.2,0.6C133.3,48.1,133.7,48.2,134,48.4z M117.3,50.5c0.2-0.4,0.5-0.5,0.8-0.6c0.2-0.1,0.5-0.2,0.7,0.1
		c0.2,0.3,0.2,0.8-0.1,1c-0.2,0.1-0.3,0.2-0.2,0.4c0.1,0.2,0.2,0.2,0.4,0.2c0.2,0,0.2,0.1,0.3,0.3c0,0.2,0,0.4-0.2,0.4
		c-0.2,0.1-0.3,0-0.4-0.2c0-0.1-0.1-0.2-0.2-0.2c-0.8-0.2-1.2-1-1.9-1.3c-0.2-0.1-0.3-0.4-0.5-0.5c-0.5-0.2-0.9-0.4-1.1-0.9
		c-0.1-0.1-0.2-0.1-0.3-0.1c-0.2,0.1,0,0.2,0.1,0.3c0.2,0.2,0.4,0.3,0.7,0.5c1.1,0.9,2.2,1.7,3.4,2.6c0.1,0.1,0.2,0.2,0.4,0.2
		c0.2-0.1,0.1-0.3,0.1-0.4c0-1.1,0-2.1,0-3.2c0-0.3,0-0.6,0-1c-0.4,0.3-0.4,0.3-0.2,0.8c0.1,0.2,0.1,0.5-0.2,0.6
		c-0.5,0-0.8,0.3-1.3,0.5C117,50.1,117,50.2,117.3,50.5z M124.5,20.2C124.5,20.2,124.5,20.2,124.5,20.2c-0.9,0-1.9,0-2.8,0
		c-0.2,0-0.4-0.1-0.4,0.2c0,0.3,0.3,0.2,0.4,0.2c1.9,0,3.7,0,5.6,0c0.2,0,0.5,0,0.4-0.3c0-0.3-0.3-0.2-0.5-0.2
		C126.4,20.2,125.5,20.2,124.5,20.2z M124.6,21.3c-1,0-1.9,0-2.9,0c-0.2,0-0.4,0-0.4,0.2c0,0.2,0.2,0.2,0.4,0.2c1.9,0,3.8,0,5.7,0
		c0.2,0,0.4,0,0.4-0.2c0-0.3-0.3-0.2-0.4-0.2C126.4,21.3,125.5,21.3,124.6,21.3z M114.9,48.3c0.4-0.2,0.8-0.3,1.2-0.4
		c0.9-0.2,1.2-0.6,1.2-1.5c0-0.5,0.2-0.8,0.7-1c0.3-0.1,0.5-0.3,0.8,0c0.3,0.3,0.2,0.7-0.2,0.9c-0.2,0.1-0.2,0.3-0.2,0.5
		c0.1,0.2,0.2,0.1,0.3,0.1c0.2-0.1,0.2,0.1,0.3,0.2c0,0.1,0,0.3,0,0.4c0,0,0,0,0,0c0-1.5,0-3,0-4.4c0.1,0.2-0.3,0.5-0.3,0.9
		c0,0.2,0.2,0.5,0.1,0.7c-0.2,0.3-0.5,0.1-0.7,0.3c0,0-0.1,0.1-0.2,0.1c-0.2,0-0.3,0.2-0.4,0.3c-0.1,0.2-0.4-0.1-0.4,0.2
		c0,0.2,0.1,0.4,0.1,0.5c0,0.8-0.5,1.3-1.3,1.5C115.5,47.7,115,47.8,114.9,48.3z M129.5,31.7c-0.2-0.2-0.4-0.1-0.6-0.1
		c-2.9,0-5.9,0-8.8,0c-0.1,0-0.2,0-0.3,0c-0.1,0-0.2,0-0.2,0.1c0,0.2,0.1,0.1,0.2,0.1c0.1,0,0.1,0,0.2,0c3,0,6,0,9,0
		C129.2,31.8,129.4,31.9,129.5,31.7z M119.5,30.9c0.6,0,1.1,0.1,1.5,0.1c2.6,0,5.2,0,7.8,0c0.2,0,0.5,0.1,0.5-0.1
		c0-0.3-0.3-0.1-0.5-0.2c-2.9,0-5.9,0-8.8,0C119.9,30.7,119.7,30.7,119.5,30.9z M114.9,43.9c0.4-0.3,0.7-0.4,1.2-0.5
		c0.9-0.2,1.2-0.6,1.2-1.5c0-0.6,0.2-0.9,0.7-1.2c0.3-0.1,0.5-0.2,0.7,0c0.3,0.3,0.2,0.8-0.1,1c-0.2,0.1-0.3,0.2-0.2,0.4
		c0,0.1,0.1,0.2,0.2,0.1c0.1-0.2,0.5,0.1,0.5-0.3c0-0.8,0-1.5-0.1-2.3c0-0.2,0-0.5-0.2-0.5c-0.3,0.1,0,0.3,0,0.5
		c0,0.2,0.1,0.5-0.2,0.5c-0.3,0-0.5,0.2-0.7,0.2c-0.3,0.1-0.5,0.4-0.8,0.5c-0.1,0.1,0.1,0.4,0,0.6c-0.1,0.4-0.1,0.8-0.5,1.1
		c-0.4,0.3-0.8,0.4-1.2,0.5C115.1,43.3,114.9,43.5,114.9,43.9z M119.3,54.7c0,0,0,0.1,0,0.1c3.4,0,6.8,0,10.2,0c0-0.1,0-0.1,0-0.2
		C126.2,54.5,122.7,54.7,119.3,54.7z M124.5,23.7C124.5,23.7,124.5,23.7,124.5,23.7c0.9,0,1.9,0,2.8,0c0.2,0,0.4,0,0.4-0.2
		c0-0.2-0.2-0.1-0.4-0.2c-1.9,0-3.8,0-5.7,0c-0.2,0-0.4-0.1-0.4,0.2c0,0.2,0.2,0.2,0.4,0.2C122.6,23.7,123.6,23.7,124.5,23.7z
		 M124.6,19.5c0.9,0,1.9,0,2.8,0c0.2,0,0.4,0.1,0.4-0.2c0-0.2-0.2-0.2-0.4-0.2c-1.9,0-3.7,0-5.6,0c-0.1,0-0.4,0-0.4,0.2
		c0,0.3,0.2,0.2,0.4,0.2C122.7,19.5,123.6,19.5,124.6,19.5z M132.2,51.1c-0.4-0.1-0.5,0-0.6,0.1c-0.2,0.2-0.4,0.4-0.6,0.6
		c-0.3,0.2-0.5,0.2-0.5-0.2c0-0.3-0.1-0.4-0.3-0.6c-0.4-0.2-0.1-0.6,0-0.8c0.1-0.2,0.3-0.3,0.5-0.2c0.3,0.1,0.6,0.2,0.8,0.5
		c0.1,0.1,0.1,0.2,0.2,0.1c0.1-0.1,0.1-0.3,0-0.3c-0.3-0.1-0.5-0.4-0.8-0.5c-0.3-0.1-0.6-0.1-0.8-0.2c-0.3-0.3,0-0.5,0-0.8
		c0-0.1,0-0.2-0.1-0.2c-0.1,0-0.2,0.1-0.2,0.2c0,0.8,0,1.7,0,2.5c0,0.1,0,0.2,0.1,0.2c0.4,0.1,0.4,0.5,0.4,0.9
		C131,51.9,131.6,51.5,132.2,51.1z M119.6,53.8C119.6,53.8,119.6,53.9,119.6,53.8c3.2,0.1,6.5,0.1,9.7,0.1c0,0,0-0.1,0-0.1
		C126.1,53.8,122.9,53.8,119.6,53.8z M124.6,22.4C124.6,22.4,124.6,22.4,124.6,22.4c-0.9,0-1.8,0-2.7,0c-0.1,0-0.2,0-0.4,0
		c-0.1,0-0.1,0-0.1,0.1c0,0,0.1,0.1,0.1,0.1c0.1,0,0.2,0,0.3,0c1.9,0,3.8,0,5.7,0c0.1,0,0.3,0,0.3-0.1c0-0.2-0.2-0.1-0.4-0.1
		C126.4,22.4,125.5,22.4,124.6,22.4z M118.4,33.8c-0.2,0.2-0.3,0.4-0.5,0.6c-0.4,0.3-0.9,0.3-1.2,0.6c-0.4,0.3-0.8,0.5-0.7,1.1
		c0.1,0.5,0,0.9-0.5,1.2c-0.2,0.1-0.3,0.3-0.5,0.4c-0.1,0.1-0.1,0.1,0,0.2c0.1,0.1,0.1,0,0.2,0c0.7-0.3,1-0.7,1-1.5
		c0-0.4,0.1-0.8,0.5-1.1c0.5-0.4,1.2-0.5,1.7-0.9C118.6,34.2,118.6,34.1,118.4,33.8z M118.6,38.9c-0.1-0.2,0-0.3-0.2-0.3
		c-0.2-0.1-0.2,0.1-0.2,0.2c-0.1,0.1-0.2,0.2-0.3,0.2c-0.3,0.4-0.9,0.4-1.3,0.7c-0.4,0.3-0.9,0.5-0.8,1.1c0.1,0.4-0.1,0.9-0.6,1.1
		c-0.2,0.1-0.3,0.3-0.5,0.4c-0.1,0.1-0.1,0.1,0,0.2c0,0,0.1,0.1,0.1,0.1c0.5,0,1.1-0.7,1.1-1.2c0-0.5,0-1,0.6-1.3
		c0.4-0.2,0.8-0.2,1.1-0.4C118.1,39.3,118.4,39.2,118.6,38.9z M119.3,16.1c0-0.4-0.3-0.9-0.7-1c-0.4-0.1-0.6,0.2-0.8,0.4
		c-0.2,0.2-0.1,0.4,0.1,0.6c0.3,0.1,0.6,0.3,0.8,0.4C119.1,16.6,119.3,16.5,119.3,16.1z M118.4,43.1c-0.2,0.5-0.6,0.8-1,0.9
		c-0.4,0.1-0.8,0.3-1.1,0.5c-0.3,0.1-0.4,0.3-0.3,0.6c0,0.5,0,1.1-0.6,1.3c-0.1,0-0.2,0.2-0.3,0.3c-0.1,0.1-0.2,0.1-0.1,0.2
		c0,0.1,0.1,0,0.2,0c0.7-0.1,1-0.5,1-1.2c0-0.5,0.1-1,0.7-1.3c0.5-0.2,1.1-0.3,1.5-0.7C118.6,43.5,118.6,43.4,118.4,43.1z
		 M125.6,12.9c-0.1-0.6-0.6-1-1.2-1.1c-0.6,0-1,0.2-1.2,0.8c-0.1,0.3-0.1,0.7,0.2,0.8c0.4,0.1,0.3-0.3,0.4-0.5
		c0.1-0.4,0.3-0.7,0.7-0.7c0.4,0,0.7,0.2,0.9,0.5C125.5,12.7,125.5,12.8,125.6,12.9z M135.6,51.3c-0.2-0.1-0.2,0-0.3,0.1
		c-0.9,0.7-1.9,1.4-2.7,2.1c-0.6,0.5-1.3,1-2,1.6c-0.1,0.1-0.2,0.1-0.1,0.2c0.1,0.1,0.2,0,0.2,0c0.1,0,0.1-0.1,0.2-0.1
		c1.5-1.2,3-2.4,4.5-3.5C135.5,51.6,135.7,51.5,135.6,51.3z M118.5,37.7c0.4-0.2,0.5-0.5,0.5-1c0-0.6,0-1.2,0-1.8
		c0-0.2,0-0.3-0.1-0.5c0,0-0.1,0-0.1,0c-0.1,0.2,0,0.3,0,0.5c0.1,0.2,0.1,0.5-0.1,0.6c-0.5,0.1-0.9,0.4-1.3,0.7
		c-0.4,0.3-0.4,0.2-0.2,0.7c0.2-0.4,0.2-0.4,0.8-0.8c0.2-0.2,0.5-0.3,0.7-0.1c0.3,0.3,0.2,0.9-0.1,1
		C118.3,37.2,118.3,37.5,118.5,37.7z M119.3,28.8c-0.2,0-0.4,0.1-0.5,0c-1.2-0.6-2.5-0.8-3.5-1.6c-0.1-0.1-0.3,0-0.4,0.1
		c-0.1,0.2,0,0.2,0.1,0.3c1.2,0.5,2.5,1.1,3.7,1.6C119.1,29.3,119.3,29.2,119.3,28.8z M113.3,51.2c0,0.2,0,0.2,0.1,0.2
		c1.6,1.3,3.1,2.5,4.7,3.8c0.1,0.1,0.2,0.2,0.3,0.1c0.1-0.2-0.1-0.2-0.2-0.3c-0.6-0.4-1.1-0.9-1.7-1.3
		C115.4,52.9,114.4,52.1,113.3,51.2z M114.8,35.1c0.3-0.2,0.4-0.3,0.6-0.5c0.4-0.2,0.8-0.3,1.2-0.6c0.3-0.2,0.7-0.4,0.7-0.8
		c0-0.3,0.1-0.6,0.5-0.6c-0.2-0.2-0.4-0.3-0.6-0.3c-0.2,1-0.1,0.9-0.7,1.5c-0.3,0.3-0.7,0.2-1,0.4C115.2,34.4,114.9,34.6,114.8,35.1
		z M113.7,50.5c0,0-0.1,0.1-0.1,0.1c1.6,1.3,3.3,2.5,4.9,3.8c0,0,0.1-0.1,0.1-0.1C117,53,115.3,51.8,113.7,50.5z M126.4,57.5
		c0,0,0,0.1,0,0.1c0.4,0.2,0.9,0.1,1.3,0.1c0.5-0.1,1,0.3,1.4-0.1c0,0,0.1,0,0.2,0.1c0.1,0.1,0.2,0.1,0.4,0c0.1-0.1,0.3-0.1,0.4,0
		c0.1,0.1,0.1,0.3,0.1,0.5c0,0.1-0.2,0.2-0.2,0.3c0.3,0.1,0.4-0.1,0.4-0.4c0-0.3,0.1-0.6-0.3-0.6C128.8,57.5,127.6,57.5,126.4,57.5z
		 M130,29.2c0.1,0,0.1,0,0.2-0.1c1.1-0.5,2.3-1,3.4-1.5c0.2-0.1,0.3-0.1,0.4-0.3c0-0.1,0-0.1-0.1-0.1c-0.2-0.1-0.2,0.2-0.4,0.2
		c0,0,0,0-0.1,0.1c-1.2,0.5-2.3,1-3.5,1.4c-0.1,0-0.2,0-0.2,0.2C129.7,29.1,129.8,29.2,130,29.2z M118.4,47.7
		c-0.4,0.5-0.8,0.9-1.4,0.9c-0.4,0-0.6,0.4-1,0.5c-0.1,0.1-0.2,0.2-0.1,0.3c0.1,0.1,0.2,0,0.2-0.1c0.1-0.1,0.3-0.2,0.4-0.2
		c0.4-0.2,0.8-0.2,1.2-0.3C118.3,48.5,118.6,48.1,118.4,47.7z M114.9,39.5c0.2-0.2,0.5-0.3,0.7-0.4c0.3-0.2,0.7-0.2,1-0.4
		c0.7-0.4,0.9-0.7,0.6-1.3c0,0.1-0.1,0.2-0.1,0.2c-0.2,0.5-0.5,0.8-1.1,1C115.5,38.7,115,38.8,114.9,39.5z M134,39.6
		c-0.2-0.3-0.3-0.6-0.7-0.7c-0.4-0.1-0.8-0.2-1.1-0.5c-0.3-0.3-0.4-0.5-0.6-0.8c0,0.3-0.2,0.7,0,0.8c0.3,0.2,0.5,0.4,0.8,0.6
		C132.9,39.1,133.6,39.1,134,39.6z M119.9,53C119.9,53,119.9,53,119.9,53c3.1,0.1,6.1,0.1,9.2,0.1c0,0,0,0,0-0.1
		C126,53,122.9,53,119.9,53z M131,53c1.3-1,2.6-2,3.9-3c0,0-0.1-0.1-0.1-0.1C133.5,50.8,132.2,51.8,131,53z M121.5,24.4
		c2,0,4,0.2,6,0C125.6,24.4,123.5,24.4,121.5,24.4z M130.3,30.5c0,0,0,0.1,0.1,0.1c1.4-0.7,2.8-1.4,4.2-2c0,0,0-0.1-0.1-0.1
		C133.1,29.1,131.7,29.8,130.3,30.5z M123.7,14.5c0.1,0,0.2,0,0.3-0.1c0.1-0.1,0.3-0.1,0.3-0.3c0-0.2-0.2-0.1-0.3-0.1
		c-0.4,0-0.7-0.1-1-0.3c-0.1-0.1-0.2-0.2-0.4,0c-0.1,0.1,0,0.3,0.1,0.4C122.9,14.4,123.2,14.5,123.7,14.5z"/>
	<path class="st0" d="M139,46.4c1.1,0,2.1,0.9,2.1,2c0,1.1-1,2.1-2.1,2.1c-1,0-2.1-1-2.1-2.1C136.8,47.4,137.9,46.4,139,46.4z
		 M138.5,47.2c0.2,0,0.3,0,0.5,0c0.2,0,0.3,0,0.5,0.1c0.6,0.2,0.8,0.8,0.4,1.2c-0.3,0.3-0.1,0.5,0,0.8c0.1,0.2,0.2,0.1,0.3,0
		c0.2-0.4,0.2-1.3-0.2-1.7C139.7,47.1,139.1,46.9,138.5,47.2z"/>
	<path class="st0" d="M124.9,46.7c0.2,0,0.4,0,0.4-0.2c0.1-0.3-0.2-0.3-0.3-0.3c-0.2-0.1-0.4-0.2-0.3-0.5c0-0.2,0.2-0.3,0.4-0.3
		c0.3,0,0.4,0.2,0.4,0.4c0,0.4,0.3,0.2,0.4,0.2c0.2,0,0.1-0.1,0.2-0.2c0-0.2-0.1-0.3-0.3-0.3c-0.3,0-0.4-0.2-0.5-0.4
		c0-0.3,0.1-0.5,0.4-0.6c0.4-0.1,0.5,0.2,0.6,0.5c0.1,0.3,0.2,0.4,0.5,0.4c0,0,0,0,0.1,0.1c0.1,0.2,0.1,0.4,0.1,0.6
		c-0.1,0.1-0.1,0.1-0.2,0.2c-0.3,0-0.4,0.1-0.5,0.4c-0.1,0.2-0.1,0.6-0.6,0.5c-0.2,0-0.1,0.2-0.1,0.3c0.1,0.6,0.1,1.2-0.1,1.7
		c-0.1,0.2-0.2,0.4-0.4,0.4c-0.2,0-0.3-0.2-0.4-0.4c-0.4-0.7-0.3-1.4,0-2C124.9,46.9,124.9,46.8,124.9,46.7
		C124.9,46.7,124.9,46.7,124.9,46.7z"/>
	<path class="st0" d="M123.6,41.9c-0.4,0.4-0.7,0.8-0.6,1.4c0.1,0.4-0.1,0.8-0.3,1.2c-0.3,0.2-0.5,0.1-0.7-0.2
		c-0.3-0.5-0.4-1.1-0.2-1.7c0-0.1,0.2-0.3-0.1-0.3c-0.2,0-0.3-0.2-0.5-0.3c0,0,0,0,0,0c-0.2-0.4-0.1-0.8,0.4-0.8
		c0.1,0,0.2-0.1,0.2-0.2c0.1-0.4,0.4-0.4,0.7-0.3c0,0,0.1,0.1,0.1,0.1c0,0.6,0.5,0.5,0.9,0.6C123.7,41.5,123.7,41.7,123.6,41.9z"/>
	<path class="st0" d="M124.9,50.1c0.2,0,0.3,0,0.5,0c0.4,0.5,0.5,0.5,0.9,0c0.2,0,0.3,0,0.5,0c0.1,0.2,0.2,0.3,0.4,0.5
		c-0.2,0.3-0.4,0.5-0.6,0.8c-0.3,0.2-0.3,0.8-0.7,0.7c-0.3-0.1-0.5-0.5-0.7-0.8c-0.1-0.1-0.2-0.2-0.4-0.4c-0.1-0.2-0.1-0.4,0-0.6
		C124.8,50.2,124.9,50.1,124.9,50.1z"/>
	<path class="st0" d="M127.9,37c0.1,0.1,0.2,0.2,0.3,0.3c0.3,0.7,0.5,1.4,0.1,2.2c-0.1,0.2-0.1,0.4-0.4,0.4c-0.3,0-0.3-0.2-0.4-0.4
		c-0.4-0.7-0.2-1.3,0-2C127.7,37.3,127.8,37.2,127.9,37z"/>
	<path class="st0" d="M127.7,49.5c-0.1-0.4-0.3-0.7-0.4-1.1c-0.1-0.5,0-0.9,0.2-1.3c0.1-0.1,0.1-0.2,0.2-0.4c0.3,0,0.5,0.1,0.6,0.4
		c0.3,0.6,0.3,1.2,0,1.9C128.2,49.3,128.1,49.5,127.7,49.5z"/>
	<path class="st0" d="M127.4,50.5c0.3,0.3,0.4,0.7,0.2,1.1c-0.3,0.5-0.3,0.5-0.7,0.1c-0.1-0.2-0.3-0.3-0.4-0.5
		c0.2-0.3,0.4-0.5,0.6-0.8C127.3,50.5,127.3,50.5,127.4,50.5z"/>
	<path class="st0" d="M127.6,37.5c-0.2,0.1-0.4,0.1-0.6,0c-0.1-0.2-0.2-0.4-0.5-0.5c0-0.1,0-0.2,0-0.4c0.1,0,0.2,0,0.3,0
		c0.4-0.3,0.8-0.2,1.1,0.1c0,0.1,0,0.2,0,0.4C127.8,37.2,127.7,37.3,127.6,37.5z"/>
	<path class="st0" d="M124,40.9c0-0.3,0-0.5,0-0.8c0-0.2,0.1-0.5,0.4-0.5c0.3,0,0.4,0.3,0.5,0.5c0,0.1,0,0.3,0,0.4
		C124.7,40.9,124.4,41,124,40.9z"/>
	<path class="st0" d="M124.8,50.8c0.1,0.1,0.2,0.2,0.4,0.4c0,0.2-0.2,0.3-0.3,0.5c-0.3,0.5-0.4,0.5-0.7,0c-0.1-0.3-0.2-0.5,0-0.8
		C124.3,50.7,124.5,50.7,124.8,50.8z"/>
	<path class="st0" d="M125.5,40.7c-0.1-0.2-0.2-0.4-0.1-0.6c0.1-0.2,0.3-0.6,0.6-0.4c0.3,0.2,0.5,0.5,0.4,0.9
		C126.1,40.9,125.8,41,125.5,40.7z"/>
	<path class="st0" d="M127,39.7c0.2-0.1,0.4-0.1,0.6,0.1c0.1,0.2,0.3,0.4,0.1,0.6c-0.1,0.3-0.4,0.3-0.7,0.3
		c-0.1-0.1-0.1-0.1-0.2-0.2c-0.1-0.3,0-0.5,0.1-0.8C126.9,39.8,126.9,39.7,127,39.7z"/>
	<path class="st0" d="M122.7,39.8c-0.2,0.1-0.4,0.2-0.6,0.1l0,0c-0.1-0.3-0.3-0.6-0.3-1c-0.1-0.6,0-1.1,0.3-1.6
		c-0.5,0.4-0.6,0.1-0.8-0.2c-0.2-0.4,0-0.6,0.4-0.7c0.1,0,0.2-0.1,0.3-0.2c0.1-0.2,0.2-0.3,0.4-0.4c0.2-0.1,0.3-0.5,0.1-0.6
		c-0.4-0.2-0.5-0.6-0.6-0.9c-0.1-0.2-0.1-0.4,0.1-0.5c0.3-0.2,0.5-0.1,0.8,0c0.2,0.1,0.2,0.3,0.2,0.5c0,0.3-0.3,0.6,0.3,0.8
		c0.2,0.1,0.4,0.5,0.2,0.8c-0.2,0.3-0.1,0.5,0,0.8c0.2,0.4,0,0.8-0.4,0.9c-0.1,0.1-0.2,0.1-0.2,0.2C123.1,38.5,123,39.2,122.7,39.8
		C122.7,39.8,122.7,39.8,122.7,39.8z"/>
	<path class="st0" d="M127,39.7c0,0,0,0.1-0.1,0.1c-0.4,0.3-0.6,0.1-0.7-0.2c-0.3-0.6-0.3-1.2,0-1.9c0.1-0.1,0.1-0.3,0.1-0.4
		c0.1-0.1,0.2-0.2,0.3-0.3c0.2,0.1,0.3,0.3,0.5,0.5C127.2,38.2,127.3,38.9,127,39.7z"/>
	<path class="st0" d="M125.5,37.3c0.3,0.7,0.4,1.5,0.1,2.2c-0.1,0.2-0.1,0.4-0.4,0.4c-0.2,0-0.3-0.2-0.4-0.4c-0.3-0.6-0.3-1.2,0-1.9
		c0.1-0.2,0.1-0.3,0.2-0.5c0.1-0.1,0.1-0.1,0.2-0.2C125.2,37.1,125.4,37.2,125.5,37.3z"/>
	<path class="st0" d="M124.2,37.5c0.2,0.6,0.3,1.3,0.1,1.9c-0.1,0.2-0.2,0.5-0.5,0.5c-0.3,0-0.4-0.3-0.4-0.5
		c-0.3-0.6-0.2-1.2,0.1-1.8c0.2-0.3,0.4-0.4,0.7-0.3C124.1,37.4,124.2,37.4,124.2,37.5z"/>
	<path class="st0" d="M120.8,37.2c0.4-0.1,0.6,0.1,0.7,0.5c0.2,0.6,0.2,1.3,0,1.9c-0.1,0.2-0.1,0.3-0.4,0.3c-0.2,0-0.3-0.2-0.4-0.3
		c-0.3-0.6-0.4-1.1-0.1-1.7C120.6,37.7,120.7,37.4,120.8,37.2C120.8,37.2,120.8,37.2,120.8,37.2z"/>
	<path class="st0" d="M126.8,35.2c-0.5-0.1-1-0.9-0.8-1.3c0.2-0.3,0.5-0.3,0.8-0.2c0.3,0,0.4,0.3,0.3,0.5
		C127.1,34.5,126.9,34.8,126.8,35.2L126.8,35.2z"/>
	<path class="st0" d="M125.8,34.1c0,0.4-0.3,1-0.6,1c-0.2,0-0.6-0.7-0.6-1.1c0-0.4,0.3-0.5,0.6-0.5
		C125.5,33.6,125.8,33.7,125.8,34.1z"/>
	<path class="st0" d="M127.7,35.2c-0.1-0.3-0.2-0.6-0.3-0.9c-0.1-0.2-0.1-0.4,0.1-0.5c0.3-0.2,0.6-0.2,0.9,0
		c0.2,0.1,0.2,0.3,0.1,0.5C128.4,34.6,128.4,35.2,127.7,35.2C127.7,35.2,127.7,35.2,127.7,35.2z"/>
	<path class="st0" d="M121,33.6c0.3,0,0.6,0,0.6,0.4c0,0.5-0.3,1.1-0.6,1.1c-0.2,0-0.6-0.7-0.6-1.1C120.4,33.7,120.7,33.6,121,33.6z
		"/>
	<path class="st0" d="M124.4,34.1c0,0.4-0.3,1-0.6,1c-0.2,0-0.6-0.6-0.6-1.1c0-0.4,0.3-0.5,0.6-0.5
		C124.1,33.6,124.4,33.7,124.4,34.1z"/>
	<path class="st0" d="M125.5,37.3c-0.1-0.1-0.2-0.2-0.4-0.3c0-0.1,0-0.2,0-0.4c0.5-0.3,0.9-0.4,1.4,0c0,0.1,0,0.2,0,0.4
		c-0.1,0.1-0.2,0.2-0.3,0.3C126,37.6,125.7,37.6,125.5,37.3z"/>
	<path class="st0" d="M125.1,36.7c0,0.1,0,0.2,0,0.4c-0.1,0.1-0.1,0.1-0.2,0.2c-0.2,0.2-0.4,0.5-0.8,0.3c0,0,0-0.1-0.1-0.1
		c-0.1-0.3-0.2-0.6,0.1-0.8c0.2-0.2,0.4-0.2,0.6,0C124.9,36.6,125,36.6,125.1,36.7z"/>
	<path class="st0" d="M125.9,36c-0.3,0-0.5-0.2-0.5-0.5c0-0.3,0.2-0.6,0.5-0.6c0.3,0,0.4,0.3,0.5,0.6
		C126.4,35.7,126.2,35.9,125.9,36z"/>
	<path class="st0" d="M126.8,35.2c0.5-0.5,0.5-0.5,0.9,0c0,0,0,0,0,0c0,0,0,0.1,0,0.1c0,0.5-0.2,0.7-0.5,0.7
		C126.9,35.9,126.7,35.6,126.8,35.2C126.8,35.2,126.8,35.2,126.8,35.2z"/>
	<path class="st0" d="M122.2,35.5c-0.1,0.3-0.2,0.5-0.5,0.5c-0.2,0-0.5-0.1-0.5-0.4c0-0.3,0.1-0.7,0.5-0.7
		C122,34.8,122.1,35.2,122.2,35.5z"/>
	<path class="st0" d="M124.5,36c-0.3-0.1-0.5-0.2-0.5-0.5c0-0.3,0.1-0.6,0.4-0.6c0.3,0,0.5,0.3,0.5,0.6
		C125,35.8,124.7,35.9,124.5,36z"/>
	<path class="st0" d="M122.8,40.7C122.8,40.7,122.7,40.7,122.8,40.7c-0.3-0.4-0.2-0.7-0.1-0.9c0,0,0,0,0,0c0.2-0.1,0.4-0.3,0.6-0.1
		c0.2,0.2,0.3,0.4,0.2,0.7C123.4,40.7,123.1,40.8,122.8,40.7z"/>
	<path class="st0" d="M122.1,39.9c0,0.1,0,0.2,0,0.4c0,0.3-0.2,0.4-0.4,0.5c-0.3,0.1-0.4-0.1-0.5-0.3c-0.1-0.3,0-0.5,0.2-0.7
		c0.2-0.2,0.3-0.1,0.5,0C122.1,39.8,122.1,39.9,122.1,39.9C122.2,39.9,122.1,39.9,122.1,39.9z"/>
	<path class="st0" d="M122.1,45.3c0.6,0,0.4-0.5,0.6-0.8c0.3-0.2,0.5-0.3,0.7,0.1c0.2,0.4,0.1,0.6-0.3,0.8c-0.1,0-0.3,0-0.3,0.2
		c0,0.2,0.1,0.2,0.2,0.3c0.5,0.3,0.5,0.8-0.1,1.1c-0.1,0.1-0.2,0.1-0.2,0.2c0.2,0.6,0.1,1.3-0.1,1.9c-0.5,0.4-0.5,0.3-0.8-0.2
		c-0.2-0.5-0.3-1-0.2-1.4c0.1-0.3,0-0.5-0.3-0.5c-0.1,0-0.1-0.1-0.2-0.1c0-0.1,0-0.1-0.1-0.2c-0.1-0.2-0.1-0.5,0-0.8
		C121.7,46,122,45.9,122.1,45.3C122.1,45.4,122.1,45.3,122.1,45.3z"/>
	<path class="st0" d="M124,46.7c0.2,0.5,0.5,1,0.4,1.6c0,0.3-0.1,0.7-0.3,1c-0.2,0.3-0.4,0.3-0.6,0c-0.4-0.7-0.5-1.4-0.1-2.1
		C123.5,46.8,123.7,46.7,124,46.7L124,46.7z"/>
	<path class="st0" d="M127.4,50.5c-0.1,0-0.2,0-0.3,0c-0.1-0.2-0.2-0.3-0.4-0.5c0-0.1-0.1-0.2,0-0.3c0.1-0.2,0.2-0.5,0.4-0.6
		c0.3-0.1,0.4,0.2,0.6,0.3c0,0.2,0,0.5,0,0.7C127.7,50.4,127.6,50.5,127.4,50.5z"/>
	<path class="st0" d="M126.3,50.1c-0.4,0.5-0.5,0.5-0.9,0c-0.1-0.4,0.1-0.6,0.3-0.8c0.1-0.1,0.2-0.1,0.3,0
		C126.3,49.4,126.5,49.7,126.3,50.1z"/>
	<path class="st0" d="M124.9,50.1c-0.1,0.1-0.1,0.1-0.2,0.2c-0.5,0.1-0.7,0-0.7-0.4c0-0.3,0.1-0.6,0.4-0.7c0.3,0,0.4,0.3,0.5,0.5
		C125,49.8,124.9,49.9,124.9,50.1z"/>
	<path class="st0" d="M127,44.4c0.3-0.1,0.5,0,0.6,0.3c0.1,0.2,0.2,0.4,0,0.6c-0.2,0.2-0.5,0.2-0.7,0.1c0,0,0,0-0.1-0.1
		C126.6,45,126.9,44.7,127,44.4z"/>
	<path class="st0" d="M124,46.7c0-0.3-0.1-0.5,0.2-0.7c0.2-0.1,0.3-0.1,0.5,0c0.2,0.2,0.3,0.4,0.2,0.6c0,0,0,0,0,0
		C124.5,47.2,124.5,47.2,124,46.7C124,46.7,124,46.7,124,46.7z"/>
	<path class="st0" d="M124.5,44.4c0.3,0.1,0.4,0.3,0.4,0.6c0,0.3-0.2,0.5-0.5,0.5c-0.3,0-0.4-0.2-0.4-0.5
		C124.1,44.7,124.2,44.5,124.5,44.4z"/>
	<path class="st0" d="M124.5,29.1c-1,0-2,0-3,0c-0.2,0-0.5,0-0.7-0.1c-0.3,0-0.4-0.2-0.3-0.5c0.3-0.9,0.7-1.9,1-2.8
		c0.1-0.3,0.4-0.4,0.6-0.4c1.5,0,3,0,4.6,0c0.4,0,0.7,0.2,0.8,0.6c0.3,0.8,0.6,1.7,0.9,2.5c0.1,0.4,0,0.5-0.3,0.6
		c-0.3,0.1-0.7,0.1-1,0.1C126.2,29.1,125.4,29.1,124.5,29.1z M124.4,28.6c1,0,1.9,0,2.9,0c0.4,0,0.5-0.1,0.3-0.5
		c-0.2-0.5-0.4-1-0.6-1.5c-0.1-0.3-0.3-0.4-0.6-0.4c-1.3,0-2.7,0-4,0c-0.3,0-0.5,0.1-0.6,0.4c-0.2,0.5-0.3,1-0.6,1.5
		c-0.2,0.4,0,0.5,0.3,0.5C122.6,28.6,123.5,28.6,124.4,28.6z"/>
	<path class="st0" d="M121.3,46.8c0,0.1,0,0.1,0.1,0.2c0.2,0.7,0.3,1.4,0,2.1c-0.1,0.2-0.1,0.4-0.4,0.4c-0.3,0-0.3-0.2-0.4-0.4
		c-0.3-0.7-0.3-1.3,0-2C120.8,46.7,121,46.6,121.3,46.8z"/>
	<path class="st0" d="M122.1,45.3C122.1,45.3,122.1,45.4,122.1,45.3c-0.3,0.2-0.5,0.3-0.7,0c-0.1-0.2-0.2-0.3-0.1-0.5
		c0.1-0.2,0.2-0.4,0.5-0.4C122.1,44.5,122.2,44.9,122.1,45.3z"/>
</g>
</svg>
