<?xml version="1.0" encoding="utf-8"?>
<!-- Generator: $$$/GeneralStr/196=Adobe Illustrator 27.6.0, SVG Export Plug-In . SVG Version: 6.00 Build 0)  -->
<svg version="1.1" id="Capa_1" xmlns="http://www.w3.org/2000/svg" xmlns:xlink="http://www.w3.org/1999/xlink" x="0px" y="0px"
	 viewBox="0 0 250 100" style="enable-background:new 0 0 250 100;" xml:space="preserve">
<style type="text/css">
	.st0{clip-path:url(#SVGID_00000093891641636062375450000010937884781201911941_);}
	.st1{fill:#777777;}
</style>
<g>
	<defs>
		<rect id="SVGID_1_" x="16.2" y="35.5" width="217.5" height="29"/>
	</defs>
	<clipPath id="SVGID_00000034787951602009550810000004825601946091997333_">
		<use xlink:href="#SVGID_1_"  style="overflow:visible;"/>
	</clipPath>
	<g style="clip-path:url(#SVGID_00000034787951602009550810000004825601946091997333_);">
		<path class="st1" d="M74.8,36l-9.4,14.2L56,36H52V64h4.1V43.6l8.8,13h0.8l8.8-13.1V64h4.2V36H74.8z"/>
		<path class="st1" d="M193,52.4h8.1v5.8c-2.1,1.5-4.5,2.4-7.1,2.4c-6,0-10-4.3-10-10.7c0-5.9,4.2-10.4,9.5-10.4
			c3.9,0,6,1.4,7.7,2.9l0.4,0.4l2.7-3.2l-0.4-0.4c-3.1-2.6-6.1-3.7-10.3-3.7c-7.8,0-13.9,6.4-13.9,14.6c0,8.5,5.8,14.4,14.1,14.4
			c4.1,0,8-1.5,11.1-4.3l0.2-0.2V48.5H193L193,52.4z"/>
		<path class="st1" d="M139.6,52.2c0,5.3-2.6,8.3-7.4,8.3c-4.8,0-7.6-3.1-7.6-8.5V36h-4.2v16.2c0,7.6,4.5,12.3,11.7,12.3
			c7.3,0,11.7-4.7,11.7-12.5V36h-4.2V52.2z"/>
		<path class="st1" d="M99.8,60.5c-5.7,0-9.9-4.5-9.9-10.6c0-5.9,4.2-10.4,9.8-10.4c5.7,0,9.9,4.5,9.9,10.6
			C109.7,56,105.5,60.5,99.8,60.5 M99.8,35.5c-8,0-14.2,6.4-14.2,14.6c0,8.2,6.1,14.4,14.1,14.4c8,0,14.2-6.4,14.2-14.6
			C114,41.7,107.9,35.5,99.8,35.5"/>
		<path class="st1" d="M162.6,41.3l5.2,11.7h-10.3L162.6,41.3z M160.8,35.8L148.1,64h4.4l3.2-7.1h13.7l3.1,7.1h4.5l-12.7-28.3H160.8
			z"/>
		<path class="st1" d="M213.1,36V64h20.6v-4h-16.4v-8.2h14.5v-3.9h-14.5v-8h16.3v-4H213.1z"/>
		<path class="st1" d="M30.7,41.3L35.8,53H25.5L30.7,41.3z M28.9,35.8L16.2,64h4.4l3.2-7.1h13.7l3.1,7.1h4.5L32.5,35.8H28.9z"/>
	</g>
</g>
</svg>
