<?xml version="1.0" encoding="utf-8"?>
<!-- Generator: $$$/GeneralStr/196=Adobe Illustrator 27.6.0, SVG Export Plug-In . SVG Version: 6.00 Build 0)  -->
<svg version="1.1" id="Capa_1" xmlns="http://www.w3.org/2000/svg" xmlns:xlink="http://www.w3.org/1999/xlink" x="0px" y="0px"
	 viewBox="0 0 250 100" style="enable-background:new 0 0 250 100;" xml:space="preserve">
<style type="text/css">
	.st0{fill:#777777;}
</style>
<g>
	<path class="st0" d="M75.1,17.7c5.3,6.4,11.4,12.1,16.8,18.3c0.1-6.2,0.1-12.4,0-18.5c1,0,2.9,0,3.8,0c-1.1,9.3-0.3,18.7-0.5,28.1
		c-5.3-6.7-10.7-13.4-17.1-19.1c-0.1,6.3,0,12.7,0,19c-1.1,0-2.2,0-3.2,0C75.5,36.2,75.1,27,75.1,17.7z"/>
	<path class="st0" d="M100.8,17.5c1.2,0.2,2.4,0.4,3.5,0.6c0.2,9.2,0.1,18.4,0,27.6c-1.3,0-2.6,0-3.9,0
		C100.7,36.2,101.7,26.8,100.8,17.5z"/>
	<path class="st0" d="M150.3,17.5c1.9,3.7,2.9,7.8,5.3,11.3c3.4,5.1,5.2,11.1,5.7,17.2c-0.8,0-2.4,0.1-3.2,0.1
		c-0.8-5-1.5-10.2-4.3-14.5c-1.4-2.2-2.6-4.5-3.7-6.8c-1.6,3.5-2.9,7.1-4.3,10.8c2.8,0.7,7.8-1.7,8.6,2.1c-3.1,0-6.2,0-9.3-0.1
		c-1.5,2.7-2.6,5.5-3.7,8.4c-1.1,0-3.2,0.1-4.2,0.1C142.3,36.9,145.4,26.8,150.3,17.5z"/>
	<path class="st0" d="M181,17.6c4.9,0,9.8-0.1,14.7,0.1c-0.2,0.4-0.5,1.3-0.7,1.7c-3.5,0.4-7.1-0.1-10.6,0c0,2.5,0,5,0,7.5
		c3.4,0.2,6.8-0.1,10.3-0.4l0.6,1.4l-0.4,0.9c-3.4,1.2-7,0.6-10.5,0.7c0,4.6,0,9.1,0,13.7c3.9,0,7.9,0.1,11.8-0.2
		c-0.1,0.6-0.2,1.9-0.3,2.5c-5.1,0.1-10.2-0.2-15.3,0.4C181.2,36.5,181.7,27,181,17.6z"/>
	<path class="st0" d="M49.2,46c4.9-9.2,7.7-19.5,13.2-28.3c1.8,7.8,7.8,13.7,9.5,21.6c0.6,2.2,0.9,4.4,1.2,6.7C72,46,71,46,70,46.1
		c-1-4.7-1.5-9.7-4-13.9c-1.5-2.4-2.9-4.9-4.2-7.5c-1.4,3.6-2.8,7.2-4.2,10.8c2.6,0,5.3-0.1,7.9,0.2c0.2,0.5,0.5,1.5,0.7,2
		c-3.1,0.2-6.5-0.6-9.4,0.4c-1.6,2.4-2.4,5.3-3.6,8C52.1,46,50.2,46,49.2,46z"/>
	<path class="st0" d="M109.4,17.8c5,6.3,9.8,12.9,13.3,20.2c4-6.8,8.5-13.3,13.5-19.5c-0.1,9.1,0.3,18.1-0.1,27.2
		c-1.3,0.3-2.6,0.2-3.9,0.3c0.7-6,0.7-12.2,0.3-18.2c-3.9,5.5-7.5,11.2-9.9,17.5c-3.1-6.1-5.1-12.9-10.1-17.7
		c-0.1,6-0.3,12-0.1,17.9c-0.8,0-2.4,0.2-3.1,0.2C110.1,36.3,109.3,27.1,109.4,17.8z"/>
	<path class="st0" d="M164,17.7c0.9,0,2.8,0.1,3.8,0.1c-0.1,8.5,0,16.9,0,25.4c3.9,0,7.7,0,11.6-0.1c0,1.9-0.9,2.8-2.7,2.6
		c-4.3-0.2-8.7-0.2-13-0.2C164.3,36.3,164.7,27,164,17.7z"/>
	<g>
		<path class="st0" d="M89.4,53.5c4.7,0.3,9.5-0.2,14.2,0.2c4,0.6,4.5,5.4,3.3,8.5c-1.2,2.5-4,3.2-6.4,3.7c6.1,2.8,8,9.7,7.9,15.9
			c-0.7,0-2.2,0-2.9,0c-0.2-3.1,0.1-6.6-1.8-9.2c-2.6-3.5-6.6-5.8-10.8-6.7c0,5.5-0.7,11,0.4,16.4c-1.4,0-2.9,0-4.3,0
			C90,72.8,89.1,63.1,89.4,53.5z M92.7,56c0,2.7,0,5.3,0.1,8c3.9-0.5,9.2,1.5,11.9-2.3c0.7-1.7,1-4.8-1.2-5.3
			C99.9,55.8,96.3,55.9,92.7,56z"/>
	</g>
	<g>
		<path class="st0" d="M50,53.8c5.2-0.2,10.5-0.5,15.6,0.1c3.4,0.9,3,5,2.7,7.8c-0.3,2.7-3.2,4.3-5.7,4.5c-2.9,0.2-5.9,0-8.8,0
			c0.1,5.4-0.5,10.9,0.5,16.3c-1.5,0-2.9,0-4.3,0C50.2,72.9,49.9,63.3,50,53.8z M53.7,56.1c0,2.6,0,5.2,0,7.9
			c4.2-0.1,9.8,1.3,12.5-3.1c-0.3-1.6,0-4-2-4.6C60.7,55.8,57.2,56.2,53.7,56.1z"/>
	</g>
	<path class="st0" d="M147.2,53.8c0.7,0.1,2.1,0.2,2.8,0.2c0.1,7.2,0.4,14.5-0.2,21.6c-1.5,7.4-12.1,9-16.7,3.7
		c-2.8-2.6-2.3-6.6-2.5-10c-0.3-5.1,0-10.3-0.3-15.4c0.9,0,2.7,0.1,3.6,0.1c0.1,6.9-0.2,13.8,0.1,20.7c1.2,3.5,5.6,5.8,9.1,4.2
		c2.2-0.7,4-2.8,3.9-5.2C147.4,67.1,146.9,60.5,147.2,53.8z"/>
	<path class="st0" d="M187.4,54.7c3.2-1.1,6.7-0.4,10-0.6c0,1.4,0,2.8,0,4.3c-2.4-1-5.1-1.8-7.8-1.1c-2.4,0.7-2.7,4.6-0.3,5.5
		c3.3,1.8,7.1,2.9,9.6,5.8c3,3.4,2.5,9.5-1.4,12c-3.9,2.8-8.9,1.7-13.4,1.8c0-1.4-0.1-2.9-0.1-4.3c3.3,1.2,7.1,1.8,10.5,0.5
		c3.1-1.2,3.5-5.6,1.4-8c-2.6-3.1-7.1-3.5-9.9-6.2C182.9,61.8,183.5,56,187.4,54.7z"/>
	<path class="st0" d="M62,82.5c5.3-9.1,8-19.4,13.3-28.5c1.4,4.3,3.1,8.5,5.6,12.3c3.1,4.8,4.5,10.6,5.2,16.2
		c-0.9-0.1-2.6-0.2-3.5-0.2c-0.5-5-1.5-10.2-4.2-14.5c-1.3-2.1-2.5-4.3-3.7-6.4c-1.4,3.5-2.8,7.1-4.1,10.7c2.9,0.5,7.7-1.8,8.8,2.1
		c-3.3,0.2-6.6,0.1-9.8,0.1c-1.1,2.7-2.2,5.4-3.3,8.1C64.8,82.4,63.4,82.5,62,82.5z"/>
	<path class="st0" d="M112.3,54.2c4.7,0,9.4,0,14.1,0l0.1,2c-3.7,0-7.4,0.1-11,0.2c0.2,2.3,0.2,4.7,0,7c3.7,0.3,7.4,0.3,11-0.2
		c-0.1,0.6-0.4,1.9-0.5,2.5c-3.3,1.1-6.9,0.7-10.3,0.9c0.3,5.3-0.4,10.6,0.6,15.9c-1.1,0-3.2-0.1-4.3-0.1
		C112.6,73,113.4,63.5,112.3,54.2z"/>
	<path class="st0" d="M153.8,54.6c5.2,6,9.8,12.8,13.3,20c4-6.9,8.7-13.2,13.4-19.5c0.2,9,0.2,18.1,0.3,27.2
		c-1.4,0.1-2.8,0.2-4.1,0.2c0.7-6,0.5-12.1,0.4-18.1c-4.3,5.2-7.4,11.3-10.3,17.4c-2.9-6.1-5.1-12.8-10-17.7
		c0.1,6-0.3,12.1-0.1,18.1c-1.1,0-2.2-0.1-3.3-0.1C154.6,72.9,153.6,63.7,153.8,54.6z"/>
</g>
</svg>
