<?xml version="1.0" encoding="utf-8"?>
<!-- Generator: $$$/GeneralStr/196=Adobe Illustrator 27.6.0, SVG Export Plug-In . SVG Version: 6.00 Build 0)  -->
<svg version="1.1" id="Capa_1" xmlns="http://www.w3.org/2000/svg" xmlns:xlink="http://www.w3.org/1999/xlink" x="0px" y="0px"
	 viewBox="0 0 250 100" style="enable-background:new 0 0 250 100;" xml:space="preserve">
<style type="text/css">
	.st0{fill:none;}
	.st1{fill:#777777;}
</style>
<rect x="-66.7" y="-70.3" class="st0" width="216" height="29"/>
<g>
	<path class="st1" d="M32.7,49.4c1-0.5,1.9-1.3,2.6-2.3c0.8-1.3,1.2-2.7,1.1-4.2c0-2.4-0.8-4.2-2.4-5.3c-0.8-0.6-1.7-1-2.7-1.2
		c-1.2-0.2-2.3-0.3-3.5-0.3H17v27.8h10.9c1.4,0,2.7-0.2,4-0.5c1.1-0.3,2.1-0.8,2.9-1.6c1.4-1.3,2.1-3.4,2.1-6.1
		c0.1-1.5-0.4-3-1.3-4.2C34.9,50.5,33.9,49.8,32.7,49.4z M32,44.9c0,0.7-0.2,1.4-0.7,1.9c-0.4,0.5-1.1,0.7-2.1,0.7h-8.1V40h8.1
		c1.8,0,2.7,0.8,2.7,2.5V44.9z M32.6,54v3.3c0,1-0.3,1.6-0.8,2.1c-0.7,0.5-1.5,0.7-2.3,0.7h-8.3v-8.6h8.5c0.8,0,1.5,0.2,2.1,0.6
		c0.3,0.2,0.5,0.5,0.6,0.8C32.6,53.3,32.6,53.6,32.6,54"/>
	<path class="st1" d="M111.7,36.1h-9v27.8h9c4.1,0,7.2-1.2,9-3.5c1.9-2.3,2.8-5.8,2.8-10.4c0-4.6-0.9-8.1-2.8-10.4
		C118.9,37.3,115.8,36.1,111.7,36.1 M118.9,46v8c0,1.9-0.6,3.4-1.7,4.5c-1.1,1-3,1.6-5.5,1.6H107V40h4.7c2.5,0,4.3,0.5,5.5,1.6
		C118.3,42.5,118.9,44,118.9,46z"/>
	<path class="st1" d="M131.2,63.9h18.4V60h-14.1v-8.4h12.3v-3.9h-12.3V40h14.1v-3.9h-18.4V63.9z"/>
	<path class="st1" d="M173,51.5c0.7-0.3,1.4-0.8,1.9-1.4c0.7-0.7,1.2-1.6,1.5-2.6c0.3-1.1,0.5-2.2,0.5-3.3c0-1.2-0.1-2.4-0.5-3.5
		c-0.3-1-0.9-1.9-1.6-2.6c-0.8-0.7-1.7-1.3-2.8-1.6c-1.2-0.4-2.5-0.5-3.8-0.5h-10.4v27.8h4.2V52.4h4.1l6.3,11.5h4.8l-6.7-11.7
		C171.5,52.1,172.3,51.8,173,51.5 M172.5,45.7c0,0.8-0.2,1.5-0.7,2.1c-0.3,0.3-0.6,0.5-1,0.7c-0.4,0.1-0.8,0.2-1.2,0.2h-7.6V40h7.6
		c0.8,0,1.5,0.2,2.1,0.7c0.3,0.3,0.5,0.6,0.6,0.9s0.2,0.7,0.2,1.1V45.7z"/>
	<path class="st1" d="M232.5,53.4c-0.3-0.9-0.8-1.6-1.5-2.3c-0.7-0.7-1.5-1.2-2.3-1.6c-1-0.5-2.1-0.8-3.2-1.1l-4.3-1.2
		c-1.5-0.4-2.6-0.9-3.2-1.5c-0.7-0.6-1-1.5-1-2.7c0-0.5,0.1-1.1,0.4-1.5c0.2-0.5,0.6-0.9,1-1.1c1-0.7,2.3-1,4-1
		c0.7,0,1.4,0.1,2.1,0.2c0.6,0.1,1.2,0.4,1.7,0.7c0.5,0.4,1,0.8,1.3,1.4c0.4,0.7,0.6,1.4,0.6,2.2V44h4.2l0-0.2
		c-0.1-1.3-0.5-2.5-1-3.7c-0.5-1-1.3-1.9-2.2-2.6c-0.9-0.7-2-1.2-3.1-1.5c-1.2-0.3-2.4-0.5-3.7-0.5c-1.3,0-2.6,0.2-3.9,0.6
		c-1.1,0.3-2.1,0.9-3,1.6c-0.8,0.6-1.5,1.4-1.9,2.4c-0.4,0.9-0.7,1.9-0.7,3c0,2.1,0.6,3.8,1.6,5c1.1,1.3,2.8,2.2,5,2.9l5.3,1.5
		c1.4,0.4,2.4,0.9,3,1.6c0.3,0.4,0.6,0.8,0.7,1.2c0.2,0.4,0.2,0.9,0.2,1.4c0,0.6-0.1,1.3-0.5,1.8c-0.3,0.5-0.8,1-1.3,1.3
		c-0.6,0.4-1.2,0.7-1.9,0.8c-0.8,0.2-1.6,0.3-2.4,0.3c-1.6,0.1-3.1-0.4-4.4-1.2c-1.1-0.8-1.8-2.1-2-3.8l0-0.2H212v0.2
		c0.1,1.4,0.4,2.7,1.1,4c0.6,1.1,1.4,2,2.4,2.7c1,0.7,2.1,1.3,3.3,1.6c1.3,0.3,2.6,0.5,3.9,0.5c1.3,0,2.6-0.2,3.9-0.6
		c1.2-0.3,2.3-0.9,3.3-1.6c0.9-0.7,1.7-1.5,2.2-2.5c0.6-1,0.9-2.2,0.8-3.4C233,55.4,232.9,54.4,232.5,53.4"/>
	<path class="st1" d="M61.8,63.9h4.3l-7.9-27.8h-8.4l-7.9,27.8h4.3l1.9-6.8h11.7L61.8,63.9z M54,36.6l4.8,16.9h-9.7L54,36.6z"/>
	<path class="st1" d="M90.5,63.6l-9.4-27.5h-4.2h-0.1h-3.9v27.8h4V36.4l9.4,27.5h4.2h0.1h3.9V36.1h-4V63.6z"/>
	<path class="st1" d="M202.7,63.9h4.3l-7.9-27.8h-8.4l-7.9,27.8h4.3l1.9-6.8h11.7L202.7,63.9z M194.9,36.6l4.8,16.9h-9.7L194.9,36.6
		z"/>
</g>
</svg>
