<?xml version="1.0" encoding="UTF-8"?>
<svg id="Capa_1" xmlns="http://www.w3.org/2000/svg" version="1.1" viewBox="0 0 250 100">
  <!-- Generator: Adobe Illustrator 29.6.1, SVG Export Plug-In . SVG Version: 2.1.1 Build 9)  -->
  <defs>
    <style>
      .st0 {
        fill: #777;
      }
    </style>
  </defs>
  <path class="st0" d="M98.88,53.51l.6-2.59c.27,0-.48,2.06,1.24,2.73.95.37,5.61.72,6.18.03.6-1.67,1.23-3.34,1.96-4.95,3.27-7.26,9.12-12.92,12.5-20.16,1.37-2.94,1.48-6.35,1.18-9.53-.06-.61-.27-1.31-.32-1.93-.02-.19-.16-.62.15-.58,3.68,12.41-5.27,22.98-10.91,33.06-.5.89-1.59,2.62-1.87,3.49-.04.11-.04.29.08.25,1.24-.59,2.02-1.45,2.42-2.77.23,1.47-.41,3.02-1.56,3.97s-2.13.55-2.31,2.18c-.21,1.91.76,2.35,2.52,1.83,1.85-.55,2.59-3.78,3.68-4.28.69-.32,1.15.36,1.65.44,1.1.16,1.4-1.45,1.63-2.25.32.03.36.71.35.94-.05,1.11-1.42,4.02-2.67,3.9-.55-.05-1.02-.71-1.63-.49-1.35,1.92-2.59,6.91-5.47,6.88-3.61-.03-2.76-5.36-2.16-7.6l-3.21.33c-1.05-.21-2.15-.08-3.09-.67l-.77-1.04c.63,7.4,4.34,18.6,13.98,15.03l-2.07-6.04c.33-.07.42.16.59.36.94,1.08,1.18,3,2.68,3.71,4.24-2.54,4.4-8.43,5.55-12.79.77-2.93,1.79-6.43,4.82-7.71-.88-1.31-3.46-1.09-4.22-2.43-.45-.8-.52-2.61-.44-3.53.64-7.38,11.51-9.9,12.43-1.47,2.35-.19,3.55-3,6.04-2.94-1.16,5.94-7.56,9.31-7.6,15.72-.62.11-.55-1.08-.53-1.47.06-1.04.74-2.01.87-2.94.04-.26.03-.3-.24-.24-.42.1-1.84.56-2.17.77-.81.51-1.69,1.93-2.51,2.5-.64.45-1.42.59-2.15,1.14-4.73,3.57-3.63,12.67-7.43,17.12l.06.23c2.03,1.26,4.26,2.35,6.59,2.92,12.99,3.22,22.3-6.62,24.05-18.77,1.38-9.53-2.02-20.59-5.99-29.21-.45-.99-1.62-3.66-2.2-4.37-.43-.54-1.55-1.02-2.14-1.49-1.67-1.32-3.06-3.05-4.02-4.97-.38-.75-.9-2.71-1.23-3.18-.21-.3-2.07-1.64-2.54-2.04-.93-.8-1.69-2.21-3.11-2.08,1.95,2.25,3.24,5,5.11,7.33s4.56,4.21,6.55,6.58c2.18,2.6,4.55,6.37,2.68,9.77l-.08-2.86c-1.62-7.01-9.37-9.9-12.36-16.06-.3-.04-.18.4-.15.58.21,1.7,1.24,3.2,1.71,4.69.03.09.05.28-.08.25-2.06-2.24-2.01-5.49-3.02-8.21-.17-.46-.86-2.03-1.21-2.24-.79-.47-2.34.32-2.78,1.03-.2.32.09.65.01.78,0,.02-.25-.14-.35-.08-.45.27-.63,2.34-.69,2.93-.01.14.1.6-.25.43-.97-.46-.06-3.95-.26-4.15-1.75.18-2.67,2.12-3.97,3.11.21-1.26-.35-1.12-1.19-1.64.01-.67.75-1.12.93-1.48.34-.67-2.07-3.35-2.78-3.62-.29-.11-.24.07-.26.26-.07.66.38,2.17.61,2.85.18.51,1.16,1.62.08,1.29-.69.59.65,3.14.87,3.9l1.72-.86c-.24,1.24-.15,2.33-1.65,2.58-.44.55,1.79,3.27,2,3.99-2.71-2.22-3.84-4.36-3.5-7.91.02-.19.2-.59-.12-.55-2,4.7-4.48,9.31-5.53,14.34l.74-.33c1.03.56,1.2,2.26-.05,2.57-.07-.06.56-1.89-.09-1.73-.36.18-.55.42-.95.18-.17,1.98,2.52,3.39,3.77,1.61.29-.41.4-1.11.6-1.39.15-.21.94-.62,1.25-.91.65-.62,1.89-2.22,2.41-2.61.22-.16,2.03-.45,2.68-.77,2.04-.99,2.43-2.9,3.37-4.75.04,3.8-2.24,5.79-5.96,5.78-.4.63-.74,1.32-1.21,1.9-.65.81-1.8,1.5-2.34,2.15-.33.39-.37.96-.69,1.38-1.46,2-4.57.4-4.58-1.8-.01-2.09,2.17-7.3,3.04-9.41.48-1.15,2.9-5.83,2.97-6.51.06-.57-.61-3.17-.47-3.35l.69.08-.52-3.19c2.12.63,4.36,1.85,4.49,4.32l1.73-1.21-1.9-.86c.45-.01.46-.51.85-.62.63-.18,2.62.16,2.77-.35l-.51-1.97c1.15-.24,1.21,1.89,1.66,2.05,1.49.1,2.78-.42,4.3-.33,5.62.36,7.91,6.25,13.21,7.27-.11.38-.83.31-1.05.63-.1.15-.2.46-.14.63l3.61,1.93c.96.37,1.91.5,2.94.43.04.3-.39.16-.6.17-.86.04-1.73-.02-2.59,0l-3.54-.95c.41.71.6,1.33,1.38,1.73l-.35.17c.82,2.04,2.12,2.54,4.15,3.03.04.3-.39.16-.6.17-.55.02-1.1-.02-1.64,0,.52,1.23.98,1.57,2.2,2.03,2.35.89,4.5.72,6.95.56l-1.98.35-5.62-.27c2.66,4.5,5.29,9.06,7.08,14,2.54,6.96,3.32,13.63,1.54,20.9-4.03,16.41-22.42,29.46-36.38,14.64-12.48,3.86-17.69-9.87-16.26-19.96.03-.22.07-.94.32-.97v3.46ZM122.54,41.23c1.84,1.11,4.14,1.34,6.22.8,1.05-.27,1.09-.53.49-1.53-1.36-2.3-5.99-1.99-6.71.74Z"/>
  <path class="st0" d="M97.84,58.18l1.26,5.39c8.85,25.48,47.48,19.21,52.4-5.88l.74-5.56c.37,6.11-.95,12.11-4.24,17.27-11.41,17.82-41.98,19.91-48.82-2.96-.8-2.67-1.24-5.47-1.33-8.25Z"/>
  <path class="st0" d="M103.97,87.73c2.39.34,3.44,3.3,1.28,4.74-.18.32-1.29.3-1.19.69.09.36,2.58,3.64,2.97,3.94.75.58,2.04.83,2.62-.05l4.33-9.66c1.57,2.79,2.42,6.11,3.85,8.93.38.75.59,1.38,1.59,1.26v.52h-3.89l-.17-.35.78-.25c.67-.48-.49-2.21-.54-2.84l-4.14.09c-.31,1.13-1.81,2.97.37,2.83v.52h-5.79l-3.46-4.66-1.29-.17v3.54c0,.77.82.74,1.38.86l.17.18-.26.26h-4.23v-.52c.91.1,1.35-.05,1.51-.99.25-1.39.16-5.19.05-6.71-.04-.52-.08-1.6-.65-1.77-.4-.12-1.05.21-.92-.38,1.74.18,3.93-.24,5.61,0ZM101.3,92.74c2.05,0,3.83-.72,3.2-3.12-.38-1.44-2.04-1.23-3.2-1.21v4.32ZM111.83,93.95h3.45c-.56-1.12-.94-2.33-1.48-3.46-.1-.2.02-.42-.33-.35l-1.64,3.8Z"/>
  <path class="st0" d="M125.91,87.73c2.81.38,3.92,3.76,1.12,4.92.27.31.7.29,1.03.53,1.74,1.25,1.22,3.75-.69,4.48-1.29.5-5.55.6-7,.44-.26-.03-.43-.02-.59-.27.68-.56,1.36.13,1.54-1.05.23-1.47.18-6.22.01-7.77-.15-1.36-.83-.52-1.55-1.29,1.91.19,4.28-.25,6.13,0ZM122.89,88.42v3.97h2.5c.54,0,1.41-.85,1.56-1.38.68-2.28-2.35-3.26-4.07-2.6ZM122.89,93.09v4.15c1.54.44,4.35.25,4.43-1.84.09-2.28-2.75-2.61-4.43-2.31Z"/>
  <path class="st0" d="M144.65,98.1v-.52c.23.01.47.01.68-.09.81-.39,3.63-8.06,4.35-9.48.11-.22.2-.46.41-.62,1.58,2.82,2.38,6.07,3.85,8.93.39.75.59,1.38,1.59,1.26v.52h-3.89l-.17-.35.78-.25c.66-.47-.52-2.19-.54-2.84l-4.14.09c-.32,1.27-1.76,2.61.28,3l-.18.35h-3.02ZM147.93,93.95h3.45c-.56-1.12-.94-2.33-1.48-3.46-.1-.2.02-.42-.33-.35l-1.64,3.8Z"/>
  <path class="st0" d="M94.13,98.1l-.18-.35.78-.25c.6-.42-.48-2.23-.69-2.78-.67-.06-3.77-.26-4.07.09-.22.27-.95,2.29-.76,2.57l1.11.36-.18.35h-2.94l-.18-.35c.16-.21.61-.2.85-.36.9-.61,3.36-7.9,4.22-9.43.08-.15.43-.66.55-.57,1.32,2.83,2.27,6.1,3.65,8.87.45.89.61,1.16,1.62,1.49l-.18.35h-3.63ZM93.7,93.95l-1.64-3.98-1.64,3.98h3.28Z"/>
  <path class="st0" d="M139.64,87.73c.14.63-.66.17-.97.5-.2.16-.26.32-.22.58.13.9,2.1,2.94,2.48,3.93.24.06.29-.15.4-.29.29-.35,2.02-3.16,2.07-3.47.04-.26.06-.45-.13-.66-.34-.4-1.01,0-.88-.59h3.63c.06.52-.59.34-1.03.61s-3.47,4.75-3.59,5.22-.11,3.06.04,3.51c.22.67.72.52,1.31.51v.52h-4.32v-.52c.46.01,1.18.11,1.35-.47.12-.4.1-2.94,0-3.38-.07-.29-2.93-4.66-3.27-5.02l-1.35-.98h4.49Z"/>
  <path class="st0" d="M162.96,87.73v2.42c-.46-.22-.32-.8-.61-1.21-.59-.83-1.97-.44-2.85-.52v8.73c0,.37,1.05.53,1.38.43v.52h-4.32v-.52c.33.1,1.38-.06,1.38-.43v-8.73l-2.47.21-.98,1.52v-2.42h8.46Z"/>
  <path class="st0" d="M134.8,87.73c-.18.49-.76.25-1.14.51-.34.24-.39.75-.43,1.13-.15,1.67-.2,5.83.02,7.43.13.91.63.67,1.37.87.29.16-.02.43-.09.43h-4.23v-.52c.4,0,.95.11,1.23-.24.5-.63-.05-7.36.16-8.66-.07-.55-.57-.49-.96-.61-.27-.08-.51.2-.43-.34h4.49Z"/>
  <path class="st0" d="M138.77,33.12l-.36-3.35c-.49-3.26-1.75-6.29-3.09-9.27,1.59,1.36,3.2,3.46,3.71,5.53.6,2.39.12,4.71-.26,7.09Z"/>
  <path class="st0" d="M110.43,65.81c.17.28-.31.86-.5,1.1-1.15,1.39-1.34.43-2.49-.25-.41.1-.43,1.67-1.91.69s-.24-1.78.54-2.76l1.51,1.19c1.68-2.25,1.09-1.15,2.85.04Z"/>
  <path class="st0" d="M105.43,51.46c.18.24-.73,1.37-1.11,1.37l-1.04-.67c-.22,0-.75,1.35-1.74.16-.61-.74.32-1.27.7-1.91l1.04,1.03,1.03-1.03,1.11,1.05Z"/>
  <path class="st0" d="M116.21,59.5c.16.17.54.23.62.52-.18,1.38-2.07,1.83-2.52.31l1.24-1.64c.31.2.44.56.66.8Z"/>
</svg>