<?xml version="1.0" encoding="utf-8"?>
<!-- Generator: $$$/GeneralStr/196=Adobe Illustrator 27.6.0, SVG Export Plug-In . SVG Version: 6.00 Build 0)  -->
<svg version="1.1" id="Capa_1" xmlns="http://www.w3.org/2000/svg" xmlns:xlink="http://www.w3.org/1999/xlink" x="0px" y="0px"
	 viewBox="0 0 250 100" style="enable-background:new 0 0 250 100;" xml:space="preserve">
<style type="text/css">
	.st0{fill:#777777;}
</style>
<g id="Layer_2">
</g>
<g>
	<path class="st0" d="M22.9,62.6c0,0-0.9,0-1.3,0.7c-0.4,0.5-0.4,1.2,0.2,1.9c0.2,0.2,0.6,0.4,1,0.4c0,0,8.8,0.8,16.7-7.6
		c0,0,13.2-14.3,15.5-16c0,0,4.6-3.9,4.1-1.4c0,0-1.3,4.4-0.8,14.6c0,0-6.3,1.1-6.2,2.2c0,0-0.2,1.3,2.5,0.1c0,0,5.8-1.5,9.5-1.8
		c0,0,1.2-0.6-0.2-1.2c0,0-0.8-0.3-3.1,0.3c0,0-0.4,0.2-0.4-1.3c0,0-0.4-13.1,1.9-17.4c0,0,0.5-2-2.6-0.8c0,0-3.7,1.5-8.2,7
		c0,0-10.8,13.7-17.4,17.3c0,0-3.6,2.3-7.9,2.8c-0.5,0-0.8,0.1-1.3,0.1C25,62.6,23.3,62.5,22.9,62.6z"/>
	<path class="st0" d="M58.3,56.3c0,0-0.6,0.4-1,1c0,0.1-0.3,0.4-0.4,0.4c-0.4,0.3-0.3,0.6-0.2,0.7c0,0,0.3,0.4,1.3,0.8
		c0,0,1.2,0.2,1.7,1.4c0,0,1.4,1.9,1.5,2.4c0,0,0.2,1.3-0.1,1.6c0,0-0.7,0.6-1.5-1.2c0,0-1.7-3.8-5.9-5c0,0-2.8-0.6-1-1.6
		C52.8,56.8,57.1,55.8,58.3,56.3z"/>
	<path class="st0" d="M57.6,57.3c0,0,0.5-0.2,0.9,0c0.1,0.1,0.2,0.3,0.2,0.3c0,0.1,0.3,0.7,0.3,1.5c0,0,0,0.1-0.1,0.1
		c-0.1,0-0.3,0-0.5,0l0.6,1.5l0.9,1l1.3,1.9c0,0-0.4-5.8-0.4-7.5l-3.2-0.1l-1.2,0.9v0.6l0.3,0.4C56.7,57.9,57.2,57.4,57.6,57.3z
		 M66.9,52.6c0,0-1.7,2.7-1,4.1c0,0,0.4,1.3,1.9,0.8c0,0,1.8-0.4,1.1,1.5c0,0-1,3.1,1.9,2.8c0,0,2.3-0.2,2.2-1.4c0,0,0-1.1-1.8-0.9
		c0,0-1.5,0.4-0.9-1.7c0,0,0.7-1.4,0.2-1.9c0,0-0.3-0.6-2.3-0.1c0,0-1.6,0.4-1.2-1.2C67,54.7,67.6,52,66.9,52.6z M79.5,38.7
		c0,0-1.2,0.5-1.7,1.6c0,0-0.8,1.4,0.6,2.1c0,0,1.5,0.7,2.2-0.3c0,0,1-1.7,0-3.3C80.5,38.8,80.3,38.4,79.5,38.7z M77.6,51.5
		c0,0-3.7,0-3.9,3.4c0,0-0.1,3.6,5.5,3.9h0.1c0,0,2.9,0,6.2-0.5c0,0,0.8,0.6,2.5,0.5c0,0,1.5,0,2.4-1.1c0,0,1,1.3,2.7,1.3
		c0,0,2.2,0.2,4-1.2c0,0,0.2-0.6-1.1-0.1c0,0-3.8,0.6-3.9-1c0,0-0.1-1.2,0.3-2.1c0,0,0.4-1-0.4-1.8l-1.4,0.9c0,0-0.8,3.2-2.2,3.8
		c0,0-2.3,0.9-1.9-1.5c0-0.2,0.1-0.5,0.2-0.7c0,0,0.8-2.2,3-2.3c0,0,1.1-0.1,0.8,1.2l1.6-1c0,0,0-0.8-2.4-0.9c0,0-2.4-0.2-4.1,1.4
		c0,0-1.8,1.9-0.8,3.5c0,0,0.3,0.3-1.1,0.4c0,0-5.3,0.5-6.8-0.9c0,0-2.5-1.8-0.3-3.8c0,0,0.5-0.5,1-0.6c0,0,0.3,0,0.3-0.4
		C78,51.7,77.9,51.5,77.6,51.5L77.6,51.5z"/>
	<path class="st0" d="M98.5,53.2c0,0-2.4,0.1-2.9,0.6c0,0-0.5,0.4,0.5,0.5c0,0,0.5,0.2,0.7,1.2c0,0,0.8,2.2-1.7,2.4l1.7,0.2
		c0,0,0.1-0.1,0.5-0.2c0,0,0.1,0.4,0.8,0.8c0,0,0.9,0.6,2.5-0.1c0,0,0.8-0.4,1.7-1.7c0,0,0.7-0.8,0.7-0.1c0,0,0,0.9,0.9,1.2
		c0,0,1.6,1.1,6.2-0.5c0,0,1.2-0.9-0.7-0.6c0,0-3.9,0.7-4-0.9c0,0-0.1-0.4,0.1-1c0,0,0.5-1.7-0.1-1.7c0,0-1.9-0.3-4.1,3.1
		c0,0-0.3,0.5-0.7,0.4c-0.2,0-0.3-0.2-0.3-0.8c0,0,0.1-1.5,0.4-1.9c0,0,0.4-0.7-0.4-0.8C100.4,53.3,99.5,53.2,98.5,53.2L98.5,53.2z"
		/>
	<path class="st0" d="M110.1,57.6c0,0,0.6,1.1,2.9,1.2c0,0,2.3,0,3.5-1.5c0,0,1.9,1.5,3.6,1.3c0,0,3,0,4.2-3.2c0,0,0.2-0.5,0.1-0.8
		c0,0-0.2-0.4-0.5,0c-0.1,0.1-0.1,0.2-0.3,0.4c0,0-0.9,2-2.8,2.2c0,0-2.5,0-2.3-1.3c0,0,0.2-2.9-0.6-3.6c-0.2-0.2-0.8-0.6-1.2-0.1
		c-0.2,0.2-0.2,0.5-0.2,1.2c0,0,0.3,2.8-1.6,3.7c0,0-2.3,1-2.7-0.7c0,0-0.4-1.7,1-3c0,0,1.1-1.1,2.5-0.9c0,0,0.8,0.1,0.9,0.8
		l1.2-1.2c0,0-0.6-0.5-2.5-0.4c0.2,0-2.6,0-4.1,2.2c0,0-0.8,1-0.8,2.4v0.6c0,0,0,0.1-0.6,0.2L110.1,57.6L110.1,57.6z M149.3,34.2
		c0,0-9.6-0.3-16.9,12c0,0-5.4,9.1,0,14.5c0.2,0.1,3.9,3.5,10.5,1.2c0,0,8.8-2.9,13.4-6.6c0,0,0.9-0.3,1,1.9v4.6l1.4-0.5v-7.6
		c0,0-0.1-1.5-1.5-0.8c0,0-8.9,6.1-14.6,7c0,0-8.3,1.9-9.4-4.5c0,0-2-7.3,5.7-14.5c0,0,3.8-4.5,10.9-3.9c0,0,3.6,0.4,5.3,2.6
		c0,0,1.4,1.4,2.7,0.5c0,0,0.9-0.8,0.2-2C158,38.1,155.3,34,149.3,34.2L149.3,34.2z"/>
	<path class="st0" d="M153.1,62.9c0,0,5.8-2,8.2-2.3c0,0,0.8-0.2,0.9,0.4c0,0,0.3,0.7-0.5,0.9l-3,0.7c0,0-4.1,1.2-4.3,1.4
		c0,0-0.9,0.5,0.3,1.5l1.6,1.5c0,0,0.7,0.5,1-0.4v-3.9l1.5-0.5v9c0,0,0,0.5-0.6,0.6c0,0-0.4,0.2-1.2-0.6l-5.5-5.8
		c0,0-0.8-1.1,0.4-1.9C151.9,63.5,152.6,63,153.1,62.9L153.1,62.9z M163.4,52c0,0-1.7,2.7-1,4.1c0,0,0.4,1.3,1.9,0.8
		c0,0,1.8-0.4,1.1,1.5c0,0-1,3.1,1.9,2.8c0,0,2.3-0.2,2.2-1.4c0,0,0-1.1-1.8-0.9c0,0-1.5,0.4-0.9-1.7c0,0,0.7-1.4,0.2-1.9
		c0,0-0.3-0.6-2.3-0.1c0,0-1.6,0.4-1.2-1.2C163.5,54.1,164.1,51.5,163.4,52L163.4,52z M171.1,57.7c0,0,0.8,0.6,2.5,0.5
		c0,0,1.5,0,2.4-1.1c0,0,1,1.3,2.7,1.3c0,0,2.2,0.2,4-1.2c0,0,0.2-0.6-1.1-0.1c0,0-3.8,0.6-3.9-1c0,0-0.1-1.2,0.3-2.1
		c0,0,0.4-1-0.4-1.8l-1.4,0.9c0,0-0.8,3.2-2.2,3.8c0,0-2.3,0.9-1.9-1.5c0-0.2,0.1-0.5,0.2-0.7c0,0,0.8-2.2,3-2.3
		c0,0,1.1-0.1,0.8,1.2l1.6-1c0,0,0-0.8-2.4-0.9c0,0-2.4-0.2-4.1,1.4c0,0-1.8,1.8-1.1,3.7C170.3,56.7,170.5,57.2,171.1,57.7
		L171.1,57.7z"/>
	<path class="st0" d="M184.2,52.6c0,0-2.4,0.1-2.9,0.6c0,0-0.5,0.4,0.5,0.5c0,0,0.5,0.2,0.7,1.2c0,0,0.8,2.2-1.7,2.4l1.7,0.2
		c0,0,0.1-0.1,0.5-0.2c0,0,0.1,0.4,0.8,0.8c0,0,0.9,0.6,2.5-0.1c0,0,0.8-0.4,1.7-1.7c0,0,0.7-0.8,0.7-0.1c0,0,0,0.9,0.9,1.2
		c0,0,1.6,1.1,6.2-0.5c0,0,1.2-0.9-0.7-0.6c0,0-3.9,0.7-4-0.9c0,0-0.1-0.4,0.1-1c0,0,0.5-1.7-0.1-1.7c0,0-1.9-0.3-4.1,3.1
		c0,0-0.3,0.5-0.7,0.4c-0.2,0-0.3-0.2-0.3-0.8c0,0,0.1-1.5,0.4-1.9c0,0,0.4-0.7-0.4-0.8C186,52.7,185.1,52.6,184.2,52.6L184.2,52.6z
		"/>
	<path class="st0" d="M195.5,56.3c0,0,0.2-2.8,4.4-3.3c0,0,2.3-0.2,3.5,1c0,0-1.2-9.1,0.7-15c-0.1,0.4,2.4-9.3,7.8-10.7
		c0,0,0.7-0.2,1.2,0.2l-1.7,1.5c0,0-3.9,2.3-5.4,9.7c0,0-1.5,6.6-0.2,13.3c0,0,0,0.4,0.6,0.1l-0.7,2.1l-3.5,1c0,0,0.4-1.8-1.8-1.8
		c0,0-1.8,0-1.7,1.8c0,0,0.1,1,1.8,0.8c0,0,1.5-0.1,1.8-1.1c0,0,3.3-0.9,3.5-0.9s0.5,1.4,0.5,1.4l-1.2,0.9c-0.2-0.1-1.5-0.3-2,0.1
		c0,0-0.7,0.6-3.1,0.8c0,0-3.3,0.3-4.1-1.4C195.5,57.1,195.3,56.4,195.5,56.3L195.5,56.3z"/>
	<path class="st0" d="M210.8,30.2c0,0,1.4-1,1.9,0.5c0,0,1.2,3.4-1,10.8c0,0-3.1,8.5-6.3,11.5l-1.6,2.9l0.5,1.3c0,0,1.5,1.1,4.4,1.2
		c0,0,4.4,0.2,7.2-1.7c0,0,0.4-1-1.7-0.1c0,0-5.7,1.4-7.6-0.2c0,0-1.4-0.7-0.6-1.8c0,0,5.1-5.8,7.3-12.7c0,0,3.3-9.5,0.2-13.2
		c0,0-0.5-0.5-1.1-0.4c0,0-0.6-0.2-1.9,0.6L210.8,30.2L210.8,30.2z"/>
	<path class="st0" d="M214.7,56.4c0,0,0.7,0,0.6-0.7c0,0-1.8-1.6,0.7-4.6c0,0,2.1-2.1,4.2-0.7c0,0,0.2,0.1,0.3,0.4
		c0.1,0.2,0.1,0.4,0.1,0.6c0,0-0.5,0.8-1.2,0.5c0,0-1.2-0.9-2.2,0.1c0,0-1.1,1.2,0.1,1.7c0,0,1,0.3,1.6-1c0,0,0.6-0.8,0-1.1l1.4-1.1
		c0,0,0.9,0.6,0.7,2c0,0-0.2,2.2-2.6,2.9c0,0-0.4,0.3,0.8,0.6c0,0,4.8,1.7,8-0.3c0,0,0.8-0.6,1.3-0.3c0,0,0.6,0.5-0.7,1.3
		c0,0-2.6,2.4-9.7,0.4c0,0-1.4-0.5-3.3,0.1l-0.8-0.4L214.7,56.4L214.7,56.4z"/>
</g>
</svg>
