<?xml version="1.0" encoding="utf-8"?>
<!-- Generator: $$$/GeneralStr/196=Adobe Illustrator 27.6.0, SVG Export Plug-In . SVG Version: 6.00 Build 0)  -->
<svg version="1.1" id="Capa_1" xmlns="http://www.w3.org/2000/svg" xmlns:xlink="http://www.w3.org/1999/xlink" x="0px" y="0px"
	 viewBox="0 0 250 100" style="enable-background:new 0 0 250 100;" xml:space="preserve">
<style type="text/css">
	.st0{fill:#777777;}
</style>
<g>
	<path class="st0" d="M124.5,5.3c12.5,0.2,23,4.2,31.6,12.6c9.1,8.8,13.7,19.6,13.7,32.3c0,11.7-4,21.9-12,30.5
		c-8.8,9.4-19.7,14.1-32.5,14.2c-11.6,0.1-21.9-3.9-30.5-11.8C86.1,75,81.3,65.1,80.4,53.4c-0.9-12.9,3-24.3,11.8-33.8
		C101,10.1,112.1,5.5,124.5,5.3z M126.6,16.3c-20.2,0-35.3,15-35.3,33.7c0,9.4,3.4,17.5,10.1,24.1c6.5,6.4,14.5,9.7,23.7,9.6
		c9.4,0,17.5-3.5,24-10.2c6.8-7,10-15.6,9.5-25.4c-0.5-8.7-3.9-16.2-10.2-22.2C142,19.6,134.1,16.4,126.6,16.3z M125.1,93.2
		c0.9,0.1,1.8-0.1,2.8-0.1c0.2,0,0.2-0.1,0.2-0.2c0-0.8-0.1-1.6-0.2-2.4c0-0.9-0.2-1.9-0.2-2.8c0-0.4,0-0.4,0.4-0.4
		c0.6,0,1.2-0.1,1.8-0.2c0.6-0.1,0.6-0.1,0.4-0.7c-0.2-0.7-0.2-0.7-0.9-0.6c-1,0.1-1.9,0.3-2.9,0.3c-0.2,0-0.3,0.1-0.2,0.3
		c0.1,0.7,0.1,1.5,0.1,2.2c0,0.4,0,0.4-0.4,0.4c-0.7,0-1.5,0-2.2,0c-0.2,0-0.3,0.1-0.3,0.3c0,0.2,0,0.4,0,0.6c0,0.4,0,0.5,0.5,0.5
		c0.7,0.1,1.5,0,2.2,0c0.3,0,0.3,0.1,0.3,0.3c0,0.3,0,0.5,0,0.8c0,0.5,0,0.5-0.5,0.5c-0.7,0-1.5,0-2.2,0c-0.3,0-0.4,0.1-0.4,0.4
		c0,0.2,0,0.5,0,0.7c0,0.2,0.1,0.3,0.3,0.3C124.2,93.2,124.6,93.2,125.1,93.2z M164.5,48.5c0.1,0,0.2,0,0.4,0c0.3,0,0.4-0.1,0.3-0.3
		c0-0.4,0-0.7-0.1-1.1c-0.1-0.4-0.2-0.9-0.2-1.3c0-0.2,0.1-0.2,0.2-0.3c0.3-0.1,0.7-0.1,1-0.1c0.2,0,0.3,0.1,0.4,0.3
		c0,0.1,0,0.2,0,0.3c0.1,0.7,0.1,1.4,0.1,2.1c0,0.2,0.1,0.3,0.4,0.3c0.2,0,0.4,0,0.6,0c0.3,0,0.4-0.1,0.3-0.4c0-0.5,0-1-0.1-1.5
		c0-0.5-0.1-1-0.1-1.6c-0.1-0.4,0-0.8-0.2-1.1c-0.1-0.2-0.1-0.2-0.3-0.2c-0.7,0-1.3,0.2-1.9,0.3c-1,0.1-2.1,0.3-3.1,0.5
		c-0.4,0.1-0.5,0-0.6-0.4c-0.1-0.7-0.3-1.3-0.4-2c0-0.2-0.2-0.3-0.4-0.3c-0.3,0.1-0.5,0.2-0.8,0.2c-0.1,0-0.1,0.1-0.1,0.2
		c0.1,0.4,0.1,0.8,0.2,1.2c0.2,0.7,0.3,1.4,0.4,2.1c0,0.3,0.1,0.3,0.4,0.3c0.8-0.1,1.5-0.1,2.3-0.2c0.3,0,0.4,0,0.4,0.3
		c0.1,0.6,0.1,1.2,0.1,1.9C163.9,48.5,163.9,48.5,164.5,48.5z M124.9,8.2C124.9,8.2,124.9,8.2,124.9,8.2c0.3,0,0.6,0,0.9,0
		c0.6,0,0.6,0.1,0.6-0.6c0-0.7,0.1-0.8-0.7-0.8c-1.2,0-2.3,0-3.5,0.1c-0.1,0-0.1,0-0.2,0c-0.2,0-0.3,0.1-0.3,0.4
		c0,0.3,0,0.5,0.1,0.8c0.1,0.8,0.1,1.6,0.2,2.5c0.1,0.7,0,1.3,0.2,2c0,0.2-0.1,0.3-0.2,0.3c-0.4,0-0.8,0.1-1.2,0.1
		c-0.3,0-0.7,0.1-1,0.1c-0.1,0-0.3,0.1-0.2,0.3c0,0.3,0,0.6,0.1,0.9c0.1,0.2,0.2,0.2,0.3,0.2c1.1-0.1,2.1-0.3,3.2-0.4
		c0.3,0,0.4-0.1,0.4-0.4c0-0.7,0-1.3-0.1-2c-0.1-0.5,0-0.6,0.5-0.6c0.7,0,1.4,0,2.1,0c0.2,0,0.3-0.1,0.3-0.3c0-0.2,0-0.4,0-0.6
		c0-0.2-0.1-0.4-0.3-0.4c-0.8-0.1-1.5,0-2.3,0c-0.3,0-0.4,0-0.4-0.4c0-0.3,0-0.6,0-0.8c0-0.3,0.1-0.4,0.4-0.4
		C124.1,8.2,124.5,8.2,124.9,8.2z M121.8,91.5c0.1-1.2,0.2-2.4,0.3-3.7c0-0.1,0-0.2,0-0.2c0.1-0.4,0.1-0.4,0.5-0.4
		c0.7,0,1.3,0.1,2,0.1c0.2,0,0.3-0.1,0.3-0.3c0-0.2,0-0.5,0-0.7c0-0.4,0-0.4-0.4-0.4c-1.1,0-2.1,0.1-3.2-0.1c-0.3,0-0.3,0.1-0.3,0.3
		c0,0.8-0.1,1.5-0.2,2.3c0,0.2-0.1,0.3-0.3,0.3c-0.3,0-0.6,0-0.9-0.1c-0.5-0.1-1-0.2-1.5-0.3c-0.2,0-0.3,0-0.3,0.2
		c0,0.3-0.1,0.5-0.1,0.8c0,0.2,0,0.3,0.2,0.3c0.8,0.2,1.5,0.3,2.3,0.3c0.3,0,0.4,0.1,0.3,0.4c0,0.3-0.1,0.6-0.1,0.9
		c0,0.3-0.1,0.4-0.4,0.3c-0.3-0.1-0.6-0.1-0.9-0.1c-0.5-0.1-1-0.2-1.6-0.2c-0.2,0-0.3,0-0.3,0.2c-0.1,0.2-0.1,0.5-0.1,0.7
		c0,0.2,0,0.3,0.3,0.4c0.9,0.1,1.7,0.3,2.6,0.4c0.5,0.1,1,0.2,1.5,0.1c0.1,0,0.3,0,0.3-0.2C121.7,92.4,121.9,92,121.8,91.5z
		 M81.9,52.5C81.9,52.5,81.9,52.5,81.9,52.5c0,0.2,0,0.4,0,0.6c0.1,1,0.2,1.9,0.3,2.9c0,0.3,0.1,0.4,0.4,0.3
		c0.4-0.1,0.9-0.1,1.3-0.2c0.6-0.1,1.1-0.1,1.6-0.2c0.7-0.1,1.5-0.2,2.2-0.4c0.2,0,0.3,0.1,0.4,0.3c0,0.3,0.1,0.6,0.1,1
		c0,0.4,0.1,0.8,0.2,1.2c0.1,0.2,0.2,0.3,0.4,0.2c0.2-0.1,0.5-0.1,0.7-0.2c0.3,0,0.3-0.2,0.3-0.5c-0.1-0.3-0.1-0.6-0.2-1
		c-0.1-0.7-0.3-1.4-0.4-2.1c0-0.2-0.1-0.3-0.4-0.3c-0.8,0.1-1.5,0.1-2.3,0.3c-0.2,0-0.3-0.1-0.3-0.3c0-0.6-0.1-1.2-0.1-1.8
		c0-0.2,0-0.4-0.1-0.6c0-0.1-0.1-0.3-0.3-0.2c-0.2,0.1-0.5,0.1-0.7,0.1c-0.3,0-0.3,0.1-0.3,0.4c0,0.5,0.1,0.9,0.1,1.4
		c0,0.3,0,0.6,0.1,0.9c0.1,0.2-0.1,0.3-0.3,0.3c-0.3,0-0.6,0.1-1,0.1c-0.3,0-0.4-0.1-0.4-0.4c0-0.1,0-0.2,0-0.3
		c-0.1-0.7-0.2-1.4-0.2-2.2c0-0.2-0.1-0.2-0.3-0.2c-0.3,0-0.5,0-0.8,0c-0.2,0-0.3,0.1-0.3,0.3C81.9,52.1,81.9,52.3,81.9,52.5z
		 M162.2,53.2c0-0.2,0-0.3-0.2-0.4c-0.3,0-0.5,0-0.8-0.1c-0.2,0-0.3,0.1-0.4,0.3c-0.1,0.7-0.2,1.5-0.3,2.2c-0.1,0.3-0.1,0.7-0.1,1
		c0,0.2,0.1,0.3,0.3,0.4c0.7,0.1,1.5,0.3,2.2,0.4c0.4,0.1,0.4,0.2,0.3,0.5c-0.2,0.7-0.3,1.4-0.5,2c-0.1,0.3,0,0.4,0.3,0.4
		c0.1,0,0.3,0.1,0.4,0.1c0.5,0.1,0.5,0.1,0.6-0.4c0,0,0-0.1,0-0.1c0.2-0.7,0.4-1.3,0.5-2c0-0.2,0.2-0.3,0.4-0.2
		c0.3,0.1,0.6,0.1,0.9,0.2c0.3,0,0.4,0.1,0.3,0.4c-0.1,0.4-0.1,0.9-0.3,1.3c-0.1,0.4-0.2,0.7-0.3,1.1c0,0.2,0,0.3,0.2,0.3
		c0.3,0.1,0.5,0.1,0.8,0.2c0.2,0.1,0.3,0,0.4-0.2c0.1-0.3,0.1-0.6,0.2-0.8c0.2-1.1,0.4-2.1,0.6-3.2c0.1-0.3,0-0.3-0.3-0.4
		c-0.8-0.1-1.5-0.2-2.3-0.4c-0.9-0.2-1.9-0.3-2.8-0.4c-0.4-0.1-0.4-0.1-0.3-0.5C162.1,54.5,162.1,53.8,162.2,53.2z M126,12.8
		c-0.1,0-0.2,0-0.2,0c-0.7,0-0.7-0.1-0.7,0.7c0,0.6,0,0.7,0.7,0.7c1,0,1.9,0,2.9,0.1c0.2,0,0.4-0.1,0.4-0.3c0.1-0.7,0.2-1.4,0.2-2.2
		c0-0.4,0.1-0.4,0.5-0.4c0.8,0,1.5,0.2,2.2,0.3c0.2,0,0.2,0,0.3-0.2c0.1-0.2,0-0.5,0.1-0.7c0.1-0.3,0-0.4-0.2-0.4
		c-0.8-0.2-1.6-0.4-2.4-0.3c-0.1,0-0.2-0.1-0.2-0.2c0-0.4,0.1-0.8,0.1-1.1c0-0.2,0.2-0.3,0.4-0.3c0.4,0.1,0.8,0.1,1.2,0.2
		c0.4,0.1,0.8,0.2,1.2,0.2c0.2,0,0.3,0,0.4-0.3c0.1-0.2,0.1-0.5,0.1-0.7c0.1-0.2,0-0.3-0.2-0.3c-0.5-0.1-1.1-0.2-1.6-0.3
		c-0.8-0.1-1.6-0.3-2.5-0.3c-0.2,0-0.4,0-0.4,0.3c0,0.4,0,0.7,0,1c-0.2,1.3-0.2,2.7-0.3,4.1c0,0.4-0.1,0.4-0.5,0.4
		C126.9,12.8,126.5,12.7,126,12.8z M89.1,51.2c0-0.6-0.1-1.4-0.1-2.1c0-0.4-0.1-0.4-0.4-0.4c-0.7,0-1.5,0-2.2,0
		c-0.2,0-0.3-0.1-0.3-0.3c0.1-0.5,0.1-1.1,0.1-1.6c0-0.3,0.1-0.5,0.1-0.8c0-0.2-0.1-0.3-0.3-0.3c-0.2,0-0.5,0-0.7-0.1
		c-0.2-0.1-0.3,0-0.4,0.3c0,0.8-0.2,1.6-0.1,2.3c0,0.3-0.1,0.4-0.4,0.4c-0.3,0-0.7,0-1,0c-0.2,0-0.2-0.1-0.2-0.3
		c0-0.3,0-0.6,0.1-0.9c0.1-0.6,0.1-1.1,0.1-1.7c0-0.2-0.1-0.3-0.3-0.3c-0.2,0-0.4,0-0.6-0.1c-0.4-0.1-0.4,0-0.4,0.3
		c0,0.5,0,1-0.1,1.5c-0.1,0.8,0,1.6-0.2,2.3c-0.1,0.4,0,0.4,0.4,0.4c1.7,0,3.3,0,5,0c0.4,0,0.5,0,0.5,0.5c0,0.6,0,1.3,0.1,1.9
		c0,0.3,0.1,0.4,0.4,0.4c0.2,0,0.4,0,0.6,0c0.2,0,0.3-0.1,0.3-0.3C89.1,52,89.1,51.7,89.1,51.2z M91.3,75c-0.2,0.1-0.3,0.2-0.5,0.3
		c-0.6,0.5-0.7,0.4-0.1,1c0.7,0.9,1.5,1.7,2.2,2.6c0.1,0.1,0.2,0.3,0.3,0.4c0.2,0,0.3-0.2,0.4-0.3c1.2-1.1,2.4-2.2,3.6-3.3
		c0.3-0.3,0.3-0.2,0.6,0.1c0.5,0.5,0.9,1.1,1.5,1.5c0.1,0.1,0.2,0.1,0.3,0c0.2-0.2,0.4-0.4,0.6-0.7c0.1-0.1,0.1-0.2,0-0.3
		c-0.3-0.3-0.5-0.6-0.8-0.8c-0.5-0.5-1-1-1.5-1.5c-0.3-0.3-0.3-0.3-0.6,0c-0.6,0.5-1.1,1-1.7,1.4c-0.1,0.1-0.3,0.2-0.4,0
		c-0.5-0.6-1-1.2-1.5-1.8c-0.1-0.2-0.2-0.2-0.4-0.1c-0.2,0.2-0.4,0.3-0.6,0.5c-0.2,0.1-0.2,0.2,0,0.4c0.5,0.6,1,1.3,1.5,1.9
		c0.1,0.1,0.1,0.3,0,0.4c-0.2,0.2-0.4,0.5-0.7,0.6c-0.3,0.2-0.4,0.2-0.6-0.1c-0.1-0.2-0.3-0.4-0.5-0.6c-0.4-0.4-0.8-0.8-1.1-1.3
		C91.4,75,91.4,75,91.3,75z M166.5,42.1c0.1,0,0.2,0,0.3,0c0.4-0.1,0.5-0.2,0.4-0.6c-0.2-1.3-0.6-2.6-1-3.9c0-0.2-0.1-0.2-0.3-0.2
		c-0.8,0.3-1.7,0.5-2.5,0.8c-0.9,0.3-1.8,0.5-2.6,0.8c-0.2,0.1-0.3,0-0.3-0.2c-0.1-0.2-0.1-0.5-0.2-0.7c-0.2-0.5-0.3-1-0.5-1.4
		c-0.1-0.1-0.2-0.2-0.3-0.1c-0.3,0.1-0.5,0.2-0.8,0.3c-0.2,0.1-0.2,0.2-0.2,0.4c0.1,0.3,0.2,0.6,0.3,1c0.2,0.7,0.5,1.5,0.7,2.2
		c0,0.2,0.1,0.3,0.3,0.2c0.3-0.1,0.7-0.2,1-0.3c0.4-0.1,0.9-0.2,1.3-0.4c0.2,0,0.3,0,0.3,0.2c0.1,0.8,0.4,1.5,0.5,2.3
		c0,0.2,0.1,0.2,0.3,0.2c0.3,0,0.5-0.1,0.8-0.1c0.1,0,0.2-0.1,0.2-0.2c0-0.1,0-0.2,0-0.4c-0.2-0.7-0.4-1.3-0.5-2
		c-0.1-0.4,0-0.4,0.3-0.5c0.2-0.1,0.5-0.1,0.7-0.2c0.4-0.1,0.4-0.1,0.6,0.3c0.1,0.1,0.1,0.3,0.1,0.4c0.1,0.6,0.3,1.2,0.4,1.8
		C166.1,42.1,166.1,42.1,166.5,42.1z M168.2,51C168.2,51,168.2,51,168.2,51c0,0,0-0.1,0-0.1c0-0.8,0-0.8-0.8-0.8c-1.6,0-3.1,0-4.7,0
		c-0.3,0-0.4,0-0.4-0.4c0-0.7-0.1-1.4-0.1-2.2c0-0.2-0.1-0.3-0.3-0.3c-0.2,0-0.5,0-0.7,0.1c-0.3,0-0.4,0.2-0.4,0.4
		c0,0.5,0.1,1.1,0.1,1.6c0,0.5,0,1.1,0,1.6c0,0.2,0.1,0.3,0.3,0.3c0.8,0,1.5,0.1,2.3,0.1c0.4,0,0.4,0,0.4,0.4c0,0.8-0.1,1.5-0.1,2.3
		c0,0.1-0.1,0.3,0.1,0.3c0.3,0.1,0.7,0.1,1,0.1c0.1,0,0.2-0.1,0.2-0.2c0-0.6,0.2-1.1,0.1-1.7c0-0.3,0.1-0.5,0.1-0.8
		c0-0.2,0.1-0.2,0.3-0.2c0.3,0,0.6,0,0.9,0c0.2,0,0.3,0.1,0.3,0.3c0,0.8-0.1,1.6-0.2,2.4c0,0.2,0.1,0.4,0.3,0.4
		c0.2,0,0.5,0.1,0.7,0.1c0.2,0,0.3-0.1,0.3-0.3c0-0.2,0-0.4,0-0.7C168,52.8,168.1,51.9,168.2,51z M120.2,8c0-0.2-0.1-0.4-0.1-0.6
		c0-0.2-0.2-0.3-0.4-0.3c-0.3,0.1-0.6,0.1-1,0.1c-1,0.1-2,0.3-3,0.5c-0.2,0-0.3,0-0.3,0.3c0.2,1,0.4,2,0.7,3
		c0.2,0.7,0.3,1.5,0.5,2.2c0.1,0.2,0,0.4-0.3,0.4c-0.7,0.2-1.4,0.4-2.1,0.6c-0.2,0-0.2,0.1-0.2,0.3c0.1,0.3,0.2,0.5,0.2,0.8
		c0,0.2,0.1,0.2,0.3,0.2c1.1-0.2,2.1-0.6,3.2-0.8c0.2,0,0.3-0.2,0.3-0.4c-0.1-0.4-0.1-0.7-0.2-1.1c-0.1-0.4-0.1-0.7-0.2-1.1
		c0-0.2,0-0.3,0.3-0.4c0.7-0.1,1.5-0.3,2.3-0.4c0.2,0,0.3-0.1,0.3-0.3c0-0.2,0-0.4-0.1-0.6c-0.1-0.4-0.1-0.4-0.5-0.4
		c-0.8,0-1.5,0.2-2.3,0.4c-0.2,0-0.3,0-0.4-0.2c-0.1-0.4-0.1-0.7-0.2-1.1c0-0.2,0.1-0.3,0.2-0.3c0.8-0.1,1.6-0.2,2.3-0.3
		C120.2,8.5,120.2,8.4,120.2,8z M96.5,21.5c-0.1,0-0.2,0-0.3-0.1c-0.2-0.2-0.4-0.4-0.6-0.6c-0.2-0.3-0.2-0.3,0-0.6
		c0.4-0.3,0.7-0.7,1.1-1c0.2-0.2,0.5-0.4,0.7-0.6c0.1-0.1,0.2-0.2,0.1-0.3c-0.2-0.3-0.3-0.5-0.5-0.7c-0.1-0.1-0.3-0.2-0.4,0
		c-0.1,0.1-0.3,0.3-0.4,0.4c-1,0.7-1.7,1.7-2.5,2.6c-0.1,0.1-0.1,0.2,0,0.3c0.2,0.2,0.4,0.4,0.6,0.6c1.1,1,2.1,2,3.2,2.9
		c0.2,0.2,0.3,0.3,0,0.6c-0.5,0.5-1,1.1-1.4,1.6c-0.1,0.1-0.1,0.2,0,0.3c0.2,0.2,0.5,0.4,0.7,0.6c0.1,0.1,0.2,0.1,0.3,0
		c0.7-0.9,1.4-1.8,2.2-2.6c0.2-0.2,0.2-0.3,0-0.4c-0.5-0.5-1.1-1.1-1.6-1.6c-0.2-0.2-0.2-0.3,0-0.5c0.5-0.5,1.1-1,1.6-1.5
		c0.1-0.1,0.1-0.3,0-0.4c-0.2-0.2-0.3-0.4-0.4-0.5c-0.2-0.3-0.2-0.3-0.4,0c-0.6,0.5-1.1,1-1.7,1.6C96.7,21.4,96.6,21.5,96.5,21.5z
		 M136.5,91.6c0,0,0.1,0,0.2,0c1.3-0.2,2.4-0.9,3.6-1.2c0.4-0.1,0.4-0.2,0.3-0.6c-0.6-1.6-1.2-3.1-1.9-4.7c-0.1-0.3-0.1-0.4,0.2-0.5
		c0.2-0.1,0.5-0.2,0.7-0.3c0.4-0.2,0.8-0.5,1.3-0.6c0.2-0.1,0.2-0.1,0.1-0.3c-0.1-0.2-0.2-0.4-0.3-0.6c-0.2-0.4-0.2-0.4-0.6-0.2
		c-1,0.4-1.9,0.9-2.9,1.2c-0.3,0.1-0.3,0.2-0.2,0.4c0.3,0.7,0.5,1.4,0.7,2.1c0.1,0.2,0,0.4-0.2,0.5c-0.8,0.2-1.5,0.6-2.2,0.7
		c-0.1,0-0.2,0-0.1,0.1c0.1,0.2,0.1,0.5,0.2,0.7c0.2,0.5,0.1,0.5,0.6,0.3c0.7-0.2,1.4-0.4,2-0.6c0.2-0.1,0.4-0.1,0.4,0.1
		c0.1,0.3,0.2,0.6,0.3,1c0.1,0.2,0,0.3-0.2,0.4c-0.8,0.2-1.6,0.6-2.5,0.8c-0.1,0-0.2,0.1-0.2,0.2c0.1,0.3,0.1,0.6,0.3,0.9
		C136.2,91.6,136.3,91.7,136.5,91.6z M87.8,46.5c0,0.1,0,0.2,0,0.3c0,0.3,0.1,0.4,0.3,0.4c0.2,0,0.4,0,0.5,0.1
		c0.4,0.1,0.5,0,0.5-0.4c0.1-1.1,0.1-2.1,0.3-3.2c0-0.2,0-0.3-0.2-0.3c-0.4-0.1-0.9-0.2-1.3-0.3c-0.3-0.1-0.6-0.1-0.9-0.1
		c-0.2,0-0.4-0.2-0.3-0.4c0.1-0.3,0.1-0.7,0.2-1c0.1-0.4,0.2-0.8,0.3-1.2c0-0.2,0.1-0.3-0.2-0.4c-0.2-0.1-0.5-0.1-0.7-0.2
		c-0.2-0.1-0.4,0-0.4,0.3c-0.2,0.7-0.4,1.5-0.5,2.2c0,0.2-0.2,0.3-0.4,0.3c-0.3-0.1-0.7-0.1-1-0.2c-0.1,0-0.2-0.1-0.2-0.3
		c0-0.4,0.1-0.8,0.2-1.2c0.1-0.5,0.2-0.9,0.3-1.4c0-0.1,0-0.3-0.1-0.3c-0.3-0.1-0.5-0.2-0.8-0.2c-0.2-0.1-0.3,0-0.3,0.2
		c-0.2,0.6-0.3,1.2-0.4,1.8c-0.1,0.7-0.3,1.4-0.4,2.2c-0.1,0.3,0,0.3,0.3,0.4c0.2,0,0.5,0.1,0.7,0.1c0.8,0.1,1.6,0.3,2.5,0.4
		c0.7,0.1,1.3,0.2,2,0.3c0.2,0,0.3,0.2,0.3,0.4C88,45.3,87.9,45.9,87.8,46.5z M135.4,10.9c0-0.4,0.2-0.7,0.3-1.1
		c0-0.1,0.1-0.2,0.3-0.1c0.2,0.1,0.4,0.1,0.6,0.2c0.6,0.2,1.2,0.4,1.8,0.6c0.2,0.1,0.4,0.1,0.4-0.2c0.1-0.2,0.1-0.4,0.2-0.6
		c0.1-0.2,0-0.3-0.2-0.4c-1.3-0.5-2.6-0.8-4-1.1c-0.1,0-0.2,0-0.3,0.1c-0.1,0.2-0.1,0.3-0.2,0.5c-0.3,1.5-0.7,3.1-1,4.6
		c-0.1,0.4-0.2,0.4-0.5,0.4c-0.1,0-0.1,0-0.2,0c-0.6-0.1-1.2-0.2-1.8-0.4c-0.2,0-0.3,0-0.3,0.2c0,0.3-0.1,0.5-0.1,0.8
		c0,0.2,0.1,0.4,0.3,0.4c0.2,0,0.4,0,0.6,0c0.8,0.1,1.7,0.4,2.5,0.6c0.3,0.1,0.4,0.1,0.5-0.3c0.2-0.7,0.4-1.4,0.6-2
		c0.1-0.4,0.2-0.4,0.6-0.3c0.7,0.2,1.4,0.4,2.1,0.6c0.2,0,0.3,0,0.4-0.2c0.1-0.2,0.1-0.5,0.2-0.7c0.1-0.2,0-0.4-0.2-0.4
		c-0.7-0.2-1.4-0.5-2.2-0.6C135.5,11.2,135.4,11.1,135.4,10.9z M159.6,24.3c0-0.1-0.1-0.2-0.2-0.3c-0.5-0.8-1.2-1.4-1.8-2.2
		c-0.2-0.3-0.5-0.6-0.7-0.9c-0.1-0.2-0.3-0.2-0.4,0c-0.3,0.3-0.6,0.5-0.8,0.8c-1,0.9-2,1.8-3,2.7c-0.2,0.2-0.3,0.2-0.6,0
		c-0.5-0.5-1-1-1.5-1.5c-0.1-0.1-0.3-0.2-0.4,0c-0.1,0.2-0.3,0.3-0.4,0.5c-0.3,0.3-0.3,0.4,0,0.6c0.8,0.7,1.5,1.5,2.2,2.3
		c0.1,0.2,0.2,0.2,0.4,0c0.6-0.5,1.1-1,1.7-1.4c0.3-0.3,0.4-0.3,0.6,0.1c0.5,0.6,0.9,1.1,1.4,1.7c0.1,0.2,0.3,0.2,0.4,0.1
		c0.2-0.1,0.3-0.3,0.5-0.4c0.3-0.2,0.3-0.3,0.1-0.5c-0.5-0.6-1-1.2-1.5-1.8c-0.1-0.1-0.1-0.2,0-0.3c0.3-0.3,0.5-0.6,0.9-0.8
		c0.2-0.1,0.3,0,0.4,0.1c0.1,0.3,0.4,0.5,0.6,0.7c0.4,0.4,0.8,0.8,1.1,1.3c0,0.1,0.1,0.1,0.2,0.1C159,24.9,159.3,24.6,159.6,24.3
		C159.6,24.3,159.6,24.3,159.6,24.3z M153.1,72.6c-0.1,0-0.2,0.1-0.2,0.2c-0.7,0.8-1.3,1.7-2.1,2.4c-0.2,0.2-0.2,0.4,0,0.6
		c0.5,0.5,1,1,1.5,1.5c0.2,0.2,0.2,0.3,0,0.6c-0.5,0.5-1,1.1-1.6,1.5c-0.2,0.1-0.2,0.2-0.1,0.4c0.2,0.2,0.4,0.4,0.5,0.6
		c0.1,0.2,0.3,0.2,0.4,0c0.6-0.5,1.1-1.1,1.7-1.6c0.2-0.2,0.3-0.2,0.5,0c0.2,0.2,0.4,0.4,0.6,0.6c0.2,0.2,0.2,0.3,0,0.5
		c-0.6,0.6-1.2,1.2-1.9,1.7c-0.1,0.1-0.1,0.2,0,0.3c0.2,0.2,0.4,0.4,0.6,0.7c0.1,0.1,0.2,0.1,0.3,0c1.1-0.9,2.1-2,3.1-3
		c0.1-0.1,0.1-0.2,0-0.2c-0.6-0.5-1.2-1.1-1.7-1.6c-0.7-0.7-1.4-1.3-2.2-2c-0.2-0.2-0.2-0.4,0-0.6c0.6-0.5,1-1.1,1.5-1.7
		c0.1-0.1,0.1-0.2,0-0.3c-0.2-0.2-0.5-0.4-0.7-0.5C153.2,72.6,153.1,72.6,153.1,72.6z M148.8,17.7c0-0.1,0-0.1-0.1-0.2
		c-0.1-0.1-0.3-0.2-0.4-0.4c-0.5-0.4-1.1-0.8-1.6-1.1c-0.1-0.1-0.3-0.2-0.2-0.4c0.2-0.3,0.4-0.6,0.6-0.9c0.1-0.2,0.3-0.2,0.5-0.1
		c0.7,0.5,1.4,0.9,2.1,1.4c0.2,0.1,0.3,0.1,0.4-0.1c0.1-0.2,0.2-0.3,0.3-0.4c0.3-0.4,0.3-0.4-0.1-0.7c-1-0.7-2.1-1.3-3.1-2
		c-0.1-0.1-0.2-0.1-0.3-0.1c-0.1-0.1-0.2,0-0.3,0.1c-0.4,0.6-0.7,1.2-1.1,1.8c-0.4,0.6-0.7,1.3-1.1,1.9c-0.2,0.3-0.3,0.6-0.5,0.8
		c-0.1,0.2-0.2,0.3-0.5,0.2c-0.2-0.1-0.4-0.2-0.6-0.4c-0.4-0.3-0.8-0.6-1.3-0.7c-0.2-0.1-0.3,0-0.3,0.1c-0.1,0.3-0.2,0.5-0.3,0.8
		c-0.1,0.1,0,0.2,0.1,0.3c0.5,0.2,1,0.5,1.4,0.8c0.5,0.3,0.9,0.6,1.4,0.9c0.3,0.2,0.3,0.2,0.6-0.1c0.3-0.5,0.7-1.1,1-1.6
		c0.4-0.6,0.4-0.6,0.9-0.2c0.5,0.4,1,0.7,1.5,1.1c0.2,0.1,0.3,0.1,0.4-0.1c0.2-0.2,0.3-0.4,0.5-0.7
		C148.7,17.7,148.8,17.7,148.8,17.7z M146.1,19.3c-0.1,0-0.1,0.1-0.2,0.1c-0.2,0.2-0.3,0.5-0.5,0.7c-0.1,0.2-0.1,0.3,0.1,0.4
		c0.4,0.2,0.7,0.5,1.1,0.8c0.5,0.4,1,0.8,1.5,1.2c0.2,0.2,0.3,0.1,0.5-0.1c0.5-0.6,1-1.1,1.4-1.7c0.2-0.2,0.3-0.2,0.5-0.1
		c0.6,0.5,1.2,1,1.7,1.6c0.1,0.1,0.2,0.1,0.3,0c0.2-0.2,0.3-0.3,0.5-0.5c0.3-0.3,0.3-0.3,0-0.6c-0.6-0.5-1.1-1-1.7-1.5
		c-0.1-0.1-0.2-0.3,0-0.4c0.2-0.2,0.4-0.5,0.6-0.7c0.2-0.3,0.3-0.3,0.6,0c0.6,0.5,1.2,1.1,1.8,1.6c0.1,0.1,0.3,0.1,0.4,0
		c0.2-0.2,0.3-0.3,0.5-0.5c0.2-0.2,0.2-0.3,0-0.5c-0.6-0.5-1.1-1.1-1.7-1.6c-0.4-0.4-0.9-0.8-1.3-1.2c-0.1-0.1-0.2-0.2-0.4,0
		c-0.4,0.6-0.9,1.1-1.3,1.6c-0.7,0.8-1.3,1.7-2,2.5c-0.2,0.3-0.3,0.3-0.5,0c-0.5-0.5-1.1-0.9-1.7-1.3
		C146.2,19.4,146.2,19.4,146.1,19.3z M83.7,57.9c-0.3,0.1-0.5,0.1-0.8,0.2c-0.2,0-0.3,0.1-0.2,0.4c0.1,0.5,0.3,1.1,0.4,1.6
		c0.2,0.8,0.4,1.5,0.6,2.3c0.1,0.2,0.2,0.3,0.4,0.2c0.6-0.2,1.2-0.3,1.8-0.5c1-0.3,2-0.7,3.1-0.9c0.4-0.1,0.4-0.1,0.5,0.3
		c0.2,0.7,0.4,1.3,0.7,2c0.1,0.1,0.1,0.2,0.3,0.1c0.2-0.1,0.5-0.2,0.7-0.3c0.2-0.1,0.3-0.2,0.2-0.4c-0.1-0.2-0.2-0.5-0.3-0.7
		c-0.3-0.8-0.6-1.6-0.8-2.5c0-0.2-0.2-0.2-0.3-0.2c-0.7,0.2-1.4,0.4-2.1,0.6c-0.4,0.1-0.4,0.1-0.5-0.3c-0.2-0.7-0.3-1.4-0.5-2
		c-0.1-0.3-0.2-0.4-0.4-0.3c-0.2,0-0.3,0.1-0.5,0.1c-0.4,0.1-0.5,0.2-0.4,0.6c0.2,0.7,0.3,1.4,0.5,2.1c0.1,0.2,0,0.4-0.2,0.4
		c-0.3,0.1-0.6,0.1-0.8,0.2c-0.4,0.1-0.4,0.1-0.5-0.3c-0.2-0.8-0.4-1.6-0.5-2.4C83.9,58,83.9,57.9,83.7,57.9z M132.3,89.6
		c0.2,0,0.3,0.1,0.4,0.3c0,0.2,0.1,0.5,0.1,0.7c0.1,0.5,0,0.5-0.5,0.6c0,0-0.1,0-0.1,0c-0.7,0.1-1.5,0.2-2.2,0.3
		c-0.2,0-0.2,0.1-0.2,0.3c0,0.2,0.1,0.4,0.1,0.6c0,0.4,0.1,0.4,0.4,0.4c0.1,0,0.1,0,0.2,0c1.2-0.2,2.4-0.3,3.6-0.6
		c0.4-0.1,0.4-0.1,0.3-0.5c-0.2-0.7-0.3-1.5-0.5-2.2c-0.2-0.9-0.4-1.8-0.6-2.8c-0.1-0.2,0-0.4,0.3-0.4c0.7-0.1,1.4-0.4,2.1-0.5
		c0.2-0.1,0.2-0.2,0.2-0.3c-0.1-0.2-0.2-0.4-0.2-0.6c-0.1-0.4-0.1-0.4-0.5-0.3c-0.1,0-0.2,0.1-0.4,0.1c-0.9,0.3-1.8,0.5-2.7,0.7
		c-0.3,0-0.3,0.1-0.3,0.4c0.1,0.8,0.3,1.5,0.4,2.3c0,0.2-0.1,0.3-0.2,0.4c-0.6,0.1-1.3,0.2-1.9,0.3c-0.6,0.1-0.6,0.1-0.6,0.7
		c0.1,0.7,0.1,0.7,0.7,0.6C130.9,89.8,131.6,89.7,132.3,89.6z M156.2,68.1c-0.2,0-0.2,0.2-0.3,0.3c-0.6,0.9-1.1,1.9-1.8,2.8
		c-0.1,0.1-0.1,0.2,0,0.3c0.6,0.5,1.3,0.9,1.9,1.4c0.2,0.1,0.2,0.3,0.1,0.5c-0.4,0.5-0.7,0.9-1.1,1.4c-0.6,0.7-0.6,0.6,0.1,1.2
		c0.4,0.3,0.4,0.3,0.7-0.1c0.4-0.6,0.9-1.1,1.3-1.6c0.1-0.2,0.3-0.2,0.5-0.1c0.3,0.2,0.5,0.4,0.8,0.6c0.2,0.1,0.2,0.2,0.1,0.4
		c-0.1,0.2-0.3,0.4-0.4,0.6c-0.4,0.4-0.8,0.9-1.2,1.3c-0.2,0.2-0.2,0.3,0,0.5c0.2,0.1,0.3,0.3,0.5,0.5c0.3,0.2,0.3,0.2,0.5-0.1
		c0.8-1,1.6-2,2.3-3.1c0.2-0.3,0.2-0.4-0.1-0.6c-0.8-0.5-1.5-1-2.2-1.5c-0.6-0.4-1.3-0.8-1.9-1.3c-0.3-0.2-0.3-0.3-0.2-0.6
		c0.2-0.3,0.5-0.6,0.7-0.9c0.2-0.3,0.4-0.5,0.5-0.9c0.1-0.2,0.1-0.3-0.1-0.4c-0.2-0.1-0.5-0.3-0.7-0.4
		C156.3,68.1,156.2,68.1,156.2,68.1z M155.5,30.7c0.1,0,0.1-0.1,0.2-0.1c0.6-0.4,1.2-0.8,1.8-1.1c0.4-0.2,0.4-0.2,0.6,0.1
		c0.1,0.1,0.1,0.2,0.1,0.2c0.3,0.6,0.6,1.1,0.9,1.7c0.1,0.1,0.2,0.2,0.3,0.1c0.2-0.1,0.4-0.2,0.7-0.3c0.3-0.2,0.3-0.2,0.2-0.5
		c0-0.1-0.1-0.1-0.1-0.2c-0.4-0.6-0.7-1.2-1.1-1.8c-0.1-0.2-0.1-0.2,0.1-0.3c0.3-0.2,0.6-0.4,1-0.6c0.1-0.1,0.3,0,0.3,0.1
		c0.1,0.2,0.2,0.3,0.3,0.5c0.3,0.6,0.8,1.1,1,1.7c0.1,0.2,0.2,0.2,0.4,0.1c0.3-0.1,0.5-0.3,0.7-0.5c0.1-0.1,0.1-0.1,0.1-0.2
		c0-0.1-0.1-0.2-0.2-0.3c-0.7-1-1.2-2.1-1.8-3c-0.3-0.5-0.3-0.5-0.8-0.2c-1.4,0.9-2.7,1.9-4.1,2.8c-0.3,0.2-0.4,0.2-0.6-0.1
		c-0.4-0.6-0.8-1.1-1.3-1.7c-0.1-0.2-0.2-0.2-0.3,0c-0.2,0.2-0.4,0.4-0.6,0.5c-0.2,0.1-0.2,0.2-0.1,0.4c0.7,0.9,1.5,1.7,2,2.7
		C155.4,30.7,155.4,30.7,155.5,30.7z M114.3,84.6c0-0.2-0.1-0.2-0.2-0.3c-0.4-0.1-0.8-0.2-1.1-0.4c-0.7-0.3-1.3-0.5-1.9-0.8
		c-0.2-0.1-0.4-0.1-0.5,0.2c-0.3,0.6-0.6,1.3-0.8,2c-0.2,0.4-0.3,0.4-0.6,0.2c-0.7-0.3-1.3-0.6-2-1c-0.1-0.1-0.2,0-0.3,0.1
		c-0.1,0.2-0.2,0.4-0.3,0.6c-0.2,0.4-0.2,0.4,0.2,0.6c0.7,0.3,1.4,0.7,2,1c0.2,0.1,0.2,0.2,0.1,0.4c-0.1,0.2-0.2,0.4-0.3,0.6
		c-0.3,0.6-0.3,0.6-0.9,0.3c0,0,0,0-0.1,0c-0.6-0.3-1.3-0.6-1.9-1c-0.1-0.1-0.2,0-0.3,0.1c-0.1,0.3-0.2,0.5-0.4,0.8
		c-0.1,0.2-0.1,0.3,0.1,0.3c0.4,0.2,0.7,0.4,1.1,0.5c0.9,0.4,1.7,0.9,2.7,1.2c0.2,0.1,0.4,0.1,0.4-0.2c0.1-0.3,0.2-0.5,0.3-0.8
		c0.5-1.3,1-2.6,1.5-3.9c0.1-0.4,0.2-0.4,0.6-0.3c0.6,0.2,1.3,0.5,2,0.7c0.1,0,0.2,0.1,0.3-0.1C114.1,85.2,114.2,84.9,114.3,84.6z
		 M92.3,22c-0.1,0-0.1,0.1-0.2,0.1c-0.2,0.2-0.3,0.3-0.5,0.5c-0.7,0.9-1.4,1.8-2.1,2.8c-0.1,0.1-0.1,0.2,0.1,0.3c1.5,1,2.9,2,4.4,3
		c0.2,0.1,0.2,0.3,0.1,0.4c-0.2,0.3-0.4,0.6-0.6,0.9c-0.2,0.3-0.4,0.6-0.6,0.9c-0.1,0.2-0.1,0.3,0.1,0.4c0.2,0.1,0.4,0.2,0.6,0.3
		c0.3,0.2,0.4,0.1,0.5-0.1c0.5-0.8,1.1-1.6,1.6-2.4c0.3-0.5,0.3-0.5-0.1-0.8c-0.5-0.4-1.1-0.8-1.6-1.2c-0.2-0.2-0.2-0.3-0.1-0.5
		c0.4-0.5,0.7-0.9,1.1-1.4c0.6-0.7,0.6-0.5-0.2-1.2c-0.3-0.3-0.4-0.2-0.6,0.1c-0.5,0.6-0.9,1.2-1.4,1.7c-0.2,0.2-0.3,0.2-0.5,0.1
		c-0.2-0.2-0.5-0.4-0.7-0.5c-0.2-0.1-0.2-0.3-0.1-0.4c0.5-0.7,1-1.4,1.6-2c0.1-0.2,0.1-0.3,0-0.4c-0.2-0.2-0.4-0.3-0.5-0.4
		C92.4,22.1,92.4,22,92.3,22z M88,66c0,0.2-0.1,0.2-0.2,0.3c-0.2,0.1-0.3,0.1-0.5,0.2c-0.6,0.3-0.7,0.3-1-0.4
		c-0.3-0.7-0.5-1.3-0.8-2c-0.1-0.2-0.2-0.2-0.3-0.2c-0.2,0.1-0.4,0.2-0.6,0.2c-0.3,0.1-0.4,0.2-0.2,0.5c0.2,0.6,0.5,1.3,0.8,1.9
		c0.2,0.6,0.5,1.2,0.7,1.8c0.1,0.2,0.2,0.2,0.4,0.1c0.5-0.2,1-0.5,1.5-0.7c1.1-0.5,2.1-1,3.2-1.5c0.4-0.2,0.4-0.2,0.6,0.2
		c0,0,0,0.1,0.1,0.1c0.3,0.5,0.6,1.1,0.8,1.6c0.2,0.3,0.2,0.3,0.5,0.1c0.2-0.1,0.3-0.2,0.5-0.3c0.3-0.2,0.4-0.2,0.1-0.6
		c-0.6-0.9-1.1-1.9-1.5-2.9c0-0.1-0.1-0.2-0.3-0.1c-0.3,0.1-0.7,0.2-1,0.4c-0.4,0.2-0.8,0.4-1.2,0.5c-0.2,0.1-0.4,0.1-0.5-0.2
		c0-0.1-0.1-0.2-0.1-0.3c-0.3-0.6-0.5-1.2-0.7-1.9C88.3,63,88.2,62.9,88,63c-0.2,0.1-0.5,0.2-0.7,0.3c-0.2,0.1-0.2,0.2-0.2,0.4
		c0.1,0.5,0.4,1,0.6,1.5C87.8,65.5,88,65.7,88,66z M109.2,82.5c0-0.1-0.1-0.2-0.2-0.3c-0.2-0.1-0.4-0.2-0.6-0.3
		c-0.8-0.4-1.6-0.9-2.3-1.4c-0.2-0.1-0.3-0.1-0.4,0.1c-0.3,0.6-0.7,1.1-1.1,1.7c-0.3,0.5-0.4,0.5-0.9,0.2c0,0,0,0,0,0
		c-0.5-0.4-1-0.7-1.5-1.1c-0.2-0.1-0.3-0.1-0.4,0.1c-0.2,0.2-0.3,0.4-0.5,0.6c-0.1,0.2-0.1,0.3,0,0.4c0.2,0.1,0.3,0.3,0.5,0.4
		c0.5,0.3,0.9,0.7,1.5,1c0.2,0.1,0.3,0.2,0.1,0.5c-0.2,0.3-0.4,0.5-0.5,0.8c-0.1,0.2-0.2,0.2-0.4,0.1c-0.3-0.1-0.5-0.2-0.7-0.4
		c-0.4-0.3-0.8-0.7-1.3-1c-0.4-0.2-0.4-0.2-0.6,0.1c-0.1,0.1-0.2,0.3-0.3,0.4c-0.2,0.2-0.1,0.3,0.1,0.5c0.4,0.3,0.8,0.6,1.3,0.9
		c0.7,0.5,1.3,1,2.1,1.4c0.2,0.1,0.3,0.1,0.4-0.1c0.2-0.4,0.4-0.8,0.7-1.2c0.6-1,1.2-2,1.8-3.1c0.3-0.6,0.4-0.5,1-0.2
		c0.5,0.3,1,0.6,1.5,0.9c0.1,0.1,0.3,0.1,0.3,0C109,83.2,109.1,82.8,109.2,82.5z M145.9,80.8c0,0,0-0.1-0.1-0.1
		c-0.1-0.2-0.2-0.4-0.4-0.6c-0.2-0.3-0.3-0.4-0.6-0.1c0,0.1-0.1,0.1-0.2,0.1c-0.9,0.5-1.7,1-2.6,1.5c-0.2,0.1-0.2,0.2-0.1,0.4
		c0.3,0.7,0.7,1.3,1,2c0.1,0.3,0.1,0.4-0.2,0.5c-0.7,0.4-1.3,0.7-2,1c-0.2,0.1-0.2,0.2-0.2,0.4c0.1,0.2,0.2,0.4,0.3,0.6
		c0.2,0.3,0.2,0.3,0.6,0.2c0.7-0.3,1.4-0.6,2-1c0.2-0.1,0.3,0,0.4,0.1c0.1,0.3,0.3,0.6,0.4,0.8c0.1,0.2,0,0.4-0.2,0.4
		c-0.8,0.3-1.5,0.8-2.3,1.1c-0.1,0.1-0.2,0.2-0.1,0.3c0.1,0.3,0.2,0.5,0.4,0.8c0.1,0.1,0.1,0.2,0.3,0.1c0.1,0,0.2-0.1,0.3-0.1
		c0.6-0.3,1.1-0.6,1.7-0.9c0.6-0.3,1.2-0.6,1.7-0.9c0.2-0.1,0.2-0.2,0.1-0.4c-0.1-0.2-0.2-0.4-0.3-0.6c-0.7-1.3-1.5-2.6-2.2-3.9
		c-0.2-0.3-0.2-0.4,0.2-0.6c0.6-0.4,1.2-0.7,1.8-1.1C145.8,81,145.9,81,145.9,80.8z M98,83.6c0.1,0,0.2-0.1,0.3-0.2
		c0.4-0.6,0.9-1.1,1.3-1.7c0.6-0.8,1.2-1.5,1.8-2.3c0.2-0.2,0.3-0.3,0.6-0.1c0.5,0.5,1.2,0.9,1.8,1.3c0.1,0.1,0.2,0.1,0.3-0.1
		c0.2-0.2,0.3-0.5,0.5-0.7c0.1-0.1,0.1-0.2-0.1-0.3c-0.5-0.3-0.9-0.6-1.4-1c-0.4-0.3-0.8-0.7-1.2-1c-0.2-0.1-0.3-0.2-0.5,0
		c-0.5,0.6-1,1.1-1.5,1.8c-0.1,0.2-0.3,0.2-0.4,0.1c-0.1-0.1-0.2-0.1-0.2-0.2c-0.5-0.5-1.1-0.9-1.5-1.4c-0.1-0.1-0.2-0.1-0.3,0
		c-0.2,0.2-0.4,0.4-0.6,0.6c-0.2,0.1-0.1,0.3,0,0.4c0.6,0.5,1.2,1.1,1.8,1.6c0.2,0.2,0.2,0.3,0,0.6c-0.2,0.2-0.4,0.4-0.6,0.6
		c-0.2,0.2-0.3,0.3-0.6,0.1c-0.3-0.2-0.6-0.5-0.8-0.8c-0.3-0.3-0.7-0.6-1-0.9c-0.1-0.1-0.2-0.2-0.3,0c-0.2,0.2-0.4,0.4-0.6,0.6
		c-0.1,0.1-0.2,0.2,0,0.4c0.5,0.5,1,0.9,1.5,1.4c0.5,0.5,1,0.9,1.5,1.3C97.8,83.6,97.9,83.6,98,83.6z M109.3,14.3
		c-0.1-0.3-0.2-0.5-0.3-0.8c-0.1-0.2-0.2-0.2-0.4-0.1c-0.7,0.3-1.4,0.6-2.1,1c-0.2,0.1-0.3,0.1-0.4-0.1c-0.1-0.2-0.2-0.5-0.3-0.7
		c-0.2-0.5-0.2-0.5,0.3-0.7c0,0,0.1,0,0.1-0.1c0.6-0.4,1.3-0.8,1.9-1c0.2-0.1,0.2-0.1,0.1-0.3c-0.1-0.2-0.2-0.5-0.3-0.7
		c-0.1-0.2-0.2-0.2-0.4-0.1c-0.5,0.2-1,0.4-1.5,0.7c-0.7,0.4-1.4,0.8-2.2,1.2c-0.2,0.1-0.2,0.2-0.1,0.4c0.9,1.5,1.7,3,2.6,4.5
		c0.1,0.2,0.1,0.3-0.1,0.5c-0.4,0.2-0.8,0.5-1.2,0.7c-0.2,0.1-0.5,0.3-0.7,0.4c-0.2,0.1-0.2,0.2-0.1,0.4c0.1,0.2,0.3,0.4,0.4,0.6
		c0.1,0.2,0.3,0.3,0.5,0.1c0.9-0.6,1.8-1.1,2.7-1.7c0.3-0.2,0.4-0.2,0.2-0.6c-0.3-0.6-0.7-1.2-1-1.8c-0.2-0.3-0.1-0.4,0.2-0.5
		c0.7-0.3,1.3-0.6,2-0.9C109.2,14.5,109.3,14.5,109.3,14.3z M119.6,85.8c0-0.2-0.1-0.3-0.2-0.3c-0.3-0.1-0.6,0-1-0.1
		c-0.5-0.1-1.1-0.2-1.6-0.4c-0.2-0.1-0.5-0.1-0.7-0.1c-0.2,0-0.3,0-0.3,0.2c-0.2,0.7-0.4,1.3-0.5,2c-0.1,0.6-0.1,0.7-0.8,0.4
		c-0.6-0.2-1.3-0.4-1.9-0.6c-0.1,0-0.2-0.1-0.3,0.1c-0.1,0.3-0.2,0.5-0.3,0.8c-0.1,0.1,0,0.2,0.1,0.3c0.3,0.1,0.5,0.2,0.8,0.3
		c0.5,0.1,1.1,0.3,1.6,0.5c0.2,0.1,0.2,0.1,0.2,0.3c-0.1,0.2-0.1,0.4-0.2,0.7c-0.1,0.6-0.1,0.6-0.8,0.5c-0.7-0.1-1.4-0.4-2.1-0.7
		c-0.2-0.1-0.3,0-0.4,0.2c-0.1,0.2-0.1,0.4-0.2,0.7c-0.1,0.2,0,0.3,0.2,0.4c0.7,0.2,1.5,0.5,2.2,0.7c0.6,0.1,1.2,0.3,1.7,0.4
		c0.2,0.1,0.3,0,0.4-0.2c0.1-0.4,0.2-0.8,0.3-1.3c0.1-0.7,0.4-1.4,0.5-2.1c0.1-0.6,0.2-1.2,0.4-1.7c0-0.2,0.1-0.3,0.4-0.3
		c0.7,0.2,1.5,0.3,2.2,0.4c0.2,0,0.2-0.1,0.3-0.2C119.5,86.4,119.5,86.1,119.6,85.8z M90.4,36.2c0,0.1,0,0.2,0.1,0.2
		c0.3,0.1,0.6,0.2,0.9,0.3c0.1,0,0.2,0,0.3-0.1c0.4-1,0.9-2,1.4-3c0.1-0.2,0.1-0.3-0.1-0.4c-0.6-0.4-1.3-0.7-2-1
		c-0.3-0.2-0.3-0.2-0.2-0.5c0.2-0.4,0.4-0.7,0.6-1.1c0.2-0.3,0.4-0.6,0.5-0.9c0.1-0.1,0.1-0.2-0.1-0.3c-0.2-0.1-0.5-0.3-0.7-0.4
		c-0.1-0.1-0.3-0.1-0.4,0.1c-0.4,0.7-0.9,1.3-1.2,2c-0.2,0.3-0.3,0.4-0.7,0.2c-0.2-0.1-0.4-0.3-0.6-0.4c-0.3-0.2-0.3-0.3-0.2-0.6
		c0.2-0.3,0.3-0.6,0.5-0.9c0.2-0.4,0.5-0.8,0.7-1.2c0.1-0.1,0.1-0.3-0.1-0.4c-0.2-0.1-0.4-0.2-0.6-0.4c-0.2-0.1-0.3-0.1-0.5,0.1
		c-0.3,0.6-0.6,1.1-0.9,1.6c-0.4,0.6-0.7,1.3-1,1.9c-0.1,0.2-0.1,0.3,0.1,0.4c0.3,0.1,0.6,0.3,0.9,0.4c1.3,0.6,2.5,1.2,3.8,1.8
		c0.3,0.2,0.4,0.3,0.2,0.6c-0.2,0.3-0.3,0.7-0.5,1C90.6,35.5,90.4,35.8,90.4,36.2z M135.7,15.5c0,0.2,0.1,0.2,0.2,0.2
		c1.1,0.3,2.1,0.7,3.2,1.2c0.1,0.1,0.2,0,0.3-0.1c0.1-0.2,0.2-0.5,0.3-0.7c0.2-0.5,0.4-1,0.7-1.5c0.1-0.2,0.1-0.3,0.4-0.2
		c0.3,0.1,0.6,0.2,0.8,0.3c0.4,0.3,0.8,0.5,1.3,0.7c0.2,0.1,0.3,0.1,0.4-0.1c0.2-0.3,0.3-0.6,0.4-0.8c0.1-0.1,0-0.2-0.1-0.2
		c-0.8-0.3-1.4-0.9-2.3-1.1c-0.2,0-0.2-0.1-0.2-0.3c0.1-0.4,0.3-0.7,0.4-1c0.1-0.1,0.2-0.2,0.3-0.1c0.5,0.2,0.9,0.4,1.4,0.6
		c0.3,0.2,0.7,0.3,1,0.5c0.1,0.1,0.3,0.1,0.4-0.1c0.1-0.2,0.2-0.5,0.3-0.7c0.1-0.2,0.1-0.3-0.1-0.4c-0.5-0.2-1-0.5-1.5-0.7
		c-0.7-0.3-1.5-0.6-2.2-1c-0.2-0.1-0.3-0.1-0.3,0.1c0,0.1-0.1,0.2-0.1,0.3c-0.3,0.7-0.5,1.4-0.8,2.1c-0.3,0.7-0.6,1.4-0.8,2.2
		c-0.2,0.7-0.3,0.7-0.9,0.4c-0.6-0.2-1.2-0.4-1.7-0.6c-0.1,0-0.3-0.1-0.3,0.1C135.9,14.9,135.8,15.2,135.7,15.5z M100.6,23.5
		c0.1,0,0.1-0.1,0.2-0.1c0.6-0.5,1.1-1,1.7-1.5c0.3-0.2,0.5-0.4,0.8-0.6c0.2-0.1,0.2-0.3,0-0.4c-0.5-0.6-0.9-1.2-1.4-1.8
		c-0.1-0.1-0.2-0.3,0-0.4c0.7-0.4,1.2-1,2-1.4c0.2-0.1,0.2-0.2,0.1-0.3c-0.1-0.2-0.2-0.4-0.3-0.6c-0.2-0.3-0.2-0.3-0.6-0.1
		c-0.6,0.4-1.2,0.8-1.8,1.3c-0.2,0.1-0.3,0.1-0.5-0.1c-0.2-0.3-0.4-0.5-0.6-0.8c-0.1-0.2,0-0.3,0.1-0.4c0.7-0.5,1.3-1.1,2.1-1.5
		c0.1-0.1,0.2-0.1,0.1-0.3c-0.2-0.2-0.3-0.5-0.5-0.7c-0.1-0.1-0.2-0.2-0.4-0.1c-0.3,0.2-0.6,0.5-1,0.7c-0.8,0.5-1.6,1.1-2.3,1.7
		c-0.2,0.1-0.2,0.3-0.1,0.4c0.2,0.3,0.5,0.6,0.7,0.8c0.8,1.1,1.7,2.1,2.5,3.2c0.2,0.3,0.2,0.4-0.1,0.6c-0.6,0.4-1.1,0.9-1.6,1.4
		c-0.1,0.1-0.1,0.2,0,0.4c0.2,0.2,0.4,0.4,0.6,0.6C100.5,23.5,100.6,23.6,100.6,23.5z M160.8,68.9c0.4,0.1,0.8,0.4,1.1,0.6
		c0.1,0.1,0,0.2,0,0.2c-0.2,0.3-0.3,0.6-0.5,0.9c-0.3,0.5-0.6,0.9-0.8,1.4c0,0.1-0.1,0.2,0,0.3c0.3,0.1,0.5,0.3,0.7,0.5
		c0.2,0.1,0.3,0.1,0.4-0.1c0.1-0.2,0.2-0.4,0.3-0.5c0.6-0.9,1.1-1.8,1.6-2.8c0.2-0.5,0.2-0.5-0.2-0.7c-1.4-0.7-2.8-1.4-4.2-2.1
		c-0.5-0.3-0.6-0.3-0.3-0.9c0-0.1,0.1-0.1,0.1-0.2c0.2-0.4,0.5-0.9,0.7-1.4c0.1-0.2,0.1-0.4-0.2-0.5c-0.2-0.1-0.5-0.2-0.7-0.3
		c-0.2-0.1-0.3,0-0.4,0.2c-0.4,0.9-0.9,1.9-1.3,2.8c-0.2,0.5-0.3,0.5,0.2,0.7c0.1,0.1,0.2,0.1,0.4,0.2c0.5,0.3,1,0.5,1.4,0.8
		c0.3,0.2,0.3,0.3,0.2,0.6c-0.3,0.7-0.7,1.4-1.1,2c-0.1,0.1-0.1,0.2,0,0.3c0.3,0.2,0.6,0.3,0.8,0.5c0.1,0.1,0.2,0,0.2-0.1
		c0.4-0.7,0.9-1.4,1.3-2.1C160.5,68.9,160.6,68.8,160.8,68.9z M161.9,34.1c0-0.2,0.1-0.3,0.2-0.3c0.3-0.1,0.6-0.2,0.8-0.4
		c0.3-0.1,0.4-0.1,0.5,0.2c0.3,0.8,0.7,1.5,0.9,2.4c0,0.2,0.1,0.2,0.3,0.1c0.3-0.1,0.5-0.2,0.8-0.3c0.1,0,0.2-0.1,0.1-0.3
		c0-0.1-0.1-0.2-0.1-0.4c-0.3-0.8-0.6-1.6-1-2.4c-0.2-0.4-0.2-0.8-0.5-1.2c-0.1-0.2-0.2-0.2-0.4-0.1c-0.9,0.4-1.8,0.9-2.8,1.3
		c-0.6,0.3-1.3,0.6-1.9,0.9c-0.2,0.1-0.4,0.1-0.5-0.1c-0.3-0.7-0.8-1.2-1.1-1.9c-0.1-0.2-0.2-0.2-0.4-0.1c-0.3,0.1-0.5,0.3-0.8,0.5
		c-0.1,0.1-0.1,0.1,0,0.2c0.4,0.7,0.8,1.4,1.1,2.2c0.1,0.3,0.3,0.6,0.4,0.9c0.1,0.2,0.2,0.2,0.3,0.1c0.7-0.3,1.4-0.6,2.1-0.9
		c0.3-0.1,0.4-0.1,0.4,0.2c0.1,0.4,0.3,0.8,0.5,1.1c0.2,0.3,0.3,0.7,0.4,1c0,0.2,0.1,0.2,0.3,0.2c0.2-0.1,0.5-0.2,0.7-0.2
		c0.3-0.1,0.3-0.2,0.2-0.5c-0.2-0.5-0.4-1-0.6-1.6C162.1,34.5,162,34.3,161.9,34.1z M88.7,41.4c0,0.2,0.1,0.3,0.2,0.3
		c0.2,0.1,0.5,0.1,0.7,0.2c0.2,0.1,0.4-0.1,0.5-0.3c0-0.5,0.2-0.9,0.3-1.3c0.2-0.6,0.3-1.1,0.5-1.7c0.1-0.2,0-0.3-0.2-0.4
		c-0.6-0.2-1.3-0.4-1.9-0.7c-0.7-0.3-0.6-0.2-0.4-0.9c0.2-0.6,0.4-1.2,0.7-1.8c0.1-0.3,0.1-0.3-0.1-0.4c-0.2-0.1-0.4-0.2-0.7-0.3
		c-0.2-0.1-0.3-0.1-0.4,0.1c-0.3,0.7-0.6,1.5-0.9,2.2c-0.1,0.2-0.2,0.3-0.4,0.2c-0.3-0.1-0.7-0.2-1-0.3c-0.2-0.1-0.3-0.2-0.2-0.4
		c0.3-0.8,0.6-1.7,1-2.4c0.1-0.1,0-0.2-0.1-0.2c-0.2-0.1-0.5-0.2-0.7-0.3c-0.3-0.1-0.4-0.1-0.5,0.2c-0.5,1.2-1,2.5-1.4,3.8
		c-0.1,0.2,0,0.3,0.2,0.4c1,0.3,1.9,0.6,2.9,0.9c0.7,0.2,1.4,0.5,2.1,0.6c0.2,0,0.3,0.1,0.3,0.3c-0.1,0.3-0.2,0.7-0.3,1
		C88.9,40.6,88.8,41,88.7,41.4z M90.9,71.4c0,0.1-0.1,0.1-0.1,0.2c-0.3,0.2-0.6,0.4-0.9,0.6c-0.2,0.1-0.3,0.1-0.4-0.1
		c-0.4-0.7-1-1.4-1.3-2.2c-0.1-0.2-0.2-0.2-0.3-0.1c-0.2,0.1-0.5,0.3-0.7,0.4c-0.2,0.1-0.2,0.2-0.1,0.4c0.2,0.4,0.4,0.7,0.6,1.1
		c0.5,0.8,1,1.6,1.5,2.4c0.2,0.3,0.2,0.3,0.5,0.1c0.6-0.4,1.2-0.8,1.7-1.2c0.8-0.6,1.7-1.1,2.5-1.7c0.3-0.2,0.3-0.2,0.5,0.1
		c0.4,0.6,0.9,1.2,1.3,1.8c0.1,0.1,0.2,0.2,0.3,0.1c0.2-0.2,0.4-0.4,0.7-0.5c0.1-0.1,0.2-0.2,0.1-0.4c-0.2-0.3-0.4-0.5-0.6-0.8
		c-0.5-0.6-1-1.2-1.4-1.9c-0.1-0.2-0.2-0.2-0.4-0.1c-0.6,0.4-1.3,0.8-1.9,1.2c-0.3,0.2-0.3,0.2-0.5-0.1c-0.4-0.6-0.8-1.3-1.2-1.9
		c-0.1-0.1-0.2-0.2-0.3-0.1c-0.3,0.1-0.5,0.3-0.8,0.4c-0.1,0.1-0.1,0.2-0.1,0.3c0.3,0.7,0.7,1.5,1.2,2.1
		C90.8,71.3,90.9,71.3,90.9,71.4z M111.8,12c-0.2,0-0.3-0.1-0.3-0.2c-0.1-0.3-0.2-0.6-0.3-0.8c-0.1-0.3-0.1-0.4,0.2-0.5
		c0.1,0,0.2-0.1,0.3-0.1c0.7-0.2,1.4-0.5,2.1-0.6c0.2,0,0.2-0.1,0.2-0.3c-0.1-0.3-0.1-0.5-0.2-0.8c0-0.2-0.1-0.2-0.3-0.2
		c-1.2,0.3-2.5,0.8-3.7,1.2c-0.5,0.2-0.5,0.2-0.3,0.8c0.6,1.5,1.2,3,1.8,4.5c0.1,0.4,0.1,0.4-0.2,0.5c-0.7,0.3-1.3,0.6-2,0.8
		c-0.1,0.1-0.2,0.1-0.1,0.3c0.1,0.3,0.2,0.6,0.4,0.9c0.1,0.1,0.2,0.2,0.3,0.1c0.2-0.1,0.4-0.2,0.7-0.3c0.7-0.3,1.5-0.6,2.2-0.9
		c0.4-0.2,0.5-0.2,0.3-0.7c-0.2-0.7-0.5-1.3-0.7-2c-0.1-0.2-0.1-0.4,0.2-0.4c0.3-0.1,0.6-0.3,1-0.3c0.5-0.1,0.9-0.3,1.3-0.4
		c0.1,0,0.2-0.1,0.1-0.2c-0.1-0.3-0.1-0.6-0.2-0.9c0-0.1,0-0.1-0.1-0.1c-0.8,0.2-1.7,0.3-2.4,0.7C111.9,12,111.8,12,111.8,12z
		 M160.3,58.2c-0.2,0-0.3,0.1-0.3,0.2c0,0.2-0.1,0.5-0.1,0.7c-0.2,0.8-0.5,1.6-0.7,2.4c-0.1,0.4-0.1,0.4,0.3,0.5
		c0.7,0.2,1.3,0.5,2,0.7c0.3,0.1,0.4,0.2,0.3,0.5c0,0.1,0,0.1-0.1,0.2c-0.2,0.6-0.5,1.2-0.8,1.9c-0.1,0.2,0,0.3,0.2,0.4
		c0.2,0.1,0.4,0.2,0.6,0.3c0.2,0.1,0.3,0,0.4-0.2c0.3-0.7,0.6-1.4,0.9-2.2c0.1-0.3,0.2-0.3,0.5-0.2c0.3,0.1,0.6,0.2,0.9,0.3
		c0.2,0.1,0.2,0.1,0.1,0.3c-0.1,0.2-0.1,0.4-0.2,0.6c-0.2,0.6-0.5,1.1-0.7,1.7c-0.1,0.4-0.1,0.4,0.2,0.5c0.2,0.1,0.3,0.1,0.5,0.2
		c0.2,0.1,0.3,0.1,0.4-0.1c0.3-0.7,0.6-1.4,0.8-2.1c0.2-0.6,0.4-1.1,0.6-1.7c0.1-0.2,0-0.3-0.2-0.4c-0.6-0.2-1.1-0.4-1.7-0.5
		c-1-0.3-2-0.6-2.9-0.9c-0.8-0.2-0.7-0.3-0.5-1c0.2-0.5,0.3-1,0.4-1.6c0-0.1,0-0.3-0.1-0.3C160.9,58.3,160.5,58.2,160.3,58.2z
		 M149.8,83.6c0,0.2-0.2,0.3-0.4,0.5c-0.6,0.4-1.2,0.9-1.8,1.2c-0.2,0.1-0.2,0.2-0.1,0.4c0.1,0.2,0.2,0.4,0.3,0.6
		c0.2,0.3,0.2,0.3,0.5,0.1c0.5-0.3,0.9-0.6,1.4-0.9c0.6-0.5,1.3-0.9,1.9-1.4c0.2-0.2,0.2-0.3,0.1-0.4c-0.7-0.9-1.4-1.7-2.1-2.6
		c-0.4-0.5-0.8-1-1.2-1.5c-0.1-0.1-0.2-0.3,0-0.4c0.7-0.4,1.1-1.1,1.8-1.5c0.1-0.1,0.1-0.2,0-0.3c-0.2-0.2-0.4-0.5-0.6-0.7
		c-0.1-0.1-0.2-0.1-0.3,0c-0.7,0.8-1.7,1.3-2.5,2c-0.4,0.3-0.4,0.3-0.1,0.7c0.4,0.6,0.9,1.1,1.3,1.7c0.1,0.2,0.1,0.3-0.1,0.4
		c-0.3,0.2-0.6,0.4-0.9,0.7c-0.3,0.2-0.6,0.5-0.9,0.6c-0.2,0.1-0.2,0.2-0.1,0.4c0.1,0.2,0.3,0.4,0.4,0.7c0.1,0.2,0.2,0.2,0.4,0.1
		c0.3-0.2,0.7-0.5,1-0.7c0.4-0.2,0.7-0.5,1-0.7c0.1-0.1,0.2-0.1,0.3,0.1c0.2,0.3,0.4,0.5,0.6,0.8C149.7,83.4,149.8,83.5,149.8,83.6z
		"/>
	<path class="st0" d="M157.9,53.9c-0.1,4.9-3,12.5-9.1,18.8c-6.3,6.6-14.1,10-23.2,10.2c-8.9,0.2-16.7-2.8-23.2-9
		c-7-6.6-10.4-14.9-10.3-24.5c0.1-8.7,3.4-16.3,9.5-22.5c6.6-6.7,14.8-10,24.2-9.8C143.2,17.4,158,31.7,157.9,53.9z M109.1,50
		c0,0.3,0,0.6,0,0.9c0,1.4,0,2.8,0,4.1c0,0.3,0,0.4,0.4,0.4c0.3,0,0.6,0,0.8,0c0.4,0,0.4,0,0.4-0.4c0-0.9,0-1.8,0-2.8
		c0-0.4,0.1-0.5,0.5-0.5c0.7,0,1.5,0,2.2,0c0.4,0,0.6,0.1,0.8,0.5c0.5,1,1.1,1.9,1.7,2.9c0.1,0.2,0.3,0.3,0.5,0.3c0.4,0,0.7,0,1.1,0
		c0.1,0,0.3,0.1,0.4-0.1c0.1-0.1-0.1-0.3-0.1-0.4c-0.6-1-1.2-2.1-1.8-3.1c-0.1-0.2-0.1-0.4,0.2-0.5c0.4-0.2,0.8-0.5,1.1-0.9
		c0.7-0.8,1-1.8,0.8-2.8c-0.1-0.9-0.6-1.7-1.3-2.2c-0.7-0.6-1.5-0.8-2.3-0.8c-1.6,0-3.2,0-4.8,0c-0.4,0-0.4,0-0.4,0.4
		C109.1,46.7,109.1,48.3,109.1,50z M121,44.8c-0.1,0.1,0,0.2,0,0.4c0,3.2,0,6.5,0,9.7c0,0.1,0,0.2,0,0.3c0,0.2,0.1,0.3,0.3,0.3
		c0.3,0,0.6,0,0.9,0c0.4,0,0.5,0,0.5-0.5c0-1.8,0-3.6,0-5.4c0-0.2,0-0.3,0-0.5c0-0.1,0-0.1,0.1-0.2c0.1,0,0.1,0,0.1,0.1
		c1.1,1.1,2.2,2.2,3.3,3.3c0.2,0.2,0.2,0.2,0.4,0c1-1,2-2,3.1-3.1c0.1-0.1,0.2-0.3,0.4-0.2c0.2,0.1,0.1,0.3,0.1,0.4
		c0,1.8,0,3.5,0,5.3c0,0.1,0,0.3,0,0.4c0,0.2,0.1,0.3,0.3,0.3c0.4,0,0.7,0,1.1,0c0.2,0,0.3-0.1,0.3-0.3c0-0.4,0-0.8,0-1.3
		c0-2.9,0-5.8,0-8.8c0-0.1,0.1-0.2-0.1-0.3c-0.1,0-0.1,0.1-0.2,0.1c-0.6,0.6-1.2,1.2-1.9,1.9c-0.5,0.5-1.1,1.1-1.6,1.6
		c-0.5,0.5-0.9,0.9-1.4,1.4c-0.3,0.3-0.4,0.2-0.7,0c-0.8-0.8-1.6-1.6-2.4-2.4C122.7,46.5,121.9,45.6,121,44.8z M146.7,50
		c0,1.6,0,3.3,0,4.9c0,0.4,0,0.5,0.5,0.5c0.2,0,0.4,0,0.6,0c0.5,0,0.5,0,0.5-0.5c0-0.8,0-1.7,0-2.5c0-0.6,0-0.6,0.7-0.6
		c1.5,0,3,0,4.5,0c0.3,0,0.4,0,0.4-0.4c0-0.4,0-0.7,0-1.1c0-0.2-0.1-0.3-0.3-0.3c-1.6,0.1-3.2,0-4.8,0c-0.3,0-0.4-0.1-0.4-0.4
		c0-1,0-2,0-3c0-0.3,0.1-0.3,0.3-0.3c0.3,0,0.6,0,0.9,0c1.3,0,2.5,0,3.8,0c0.5,0,0.5,0,0.5-0.5c0-0.3,0-0.5,0-0.8
		c0-0.4,0-0.4-0.4-0.4c-2.1,0-4.2,0-6.3,0c-0.4,0-0.4,0-0.4,0.4C146.7,46.7,146.7,48.3,146.7,50z M143.6,55.4
		C143.6,55.4,143.6,55.4,143.6,55.4c0.2,0,0.4,0,0.6,0c0.3,0,0.3-0.1,0.2-0.3c-0.1-0.1-0.1-0.2-0.2-0.4c-0.5-1-1-2-1.5-3
		c-0.4-0.9-0.8-1.7-1.3-2.6c-0.5-1-1-2-1.5-2.9c-0.2-0.4-0.4-0.9-0.7-1.3c0-0.1,0-0.2-0.1-0.2c-0.1,0-0.1,0.1-0.1,0.1
		c-0.3,0.6-0.6,1.2-0.9,1.8c-0.6,1.3-1.3,2.6-1.9,3.9c-0.2,0.4-0.4,0.9-0.7,1.3c-0.5,1.1-1.1,2.1-1.6,3.2c-0.1,0.2-0.1,0.3,0.2,0.3
		c0.4,0,0.8,0,1.1,0c0.3,0,0.4-0.1,0.6-0.4c0.5-1,1-2,1.5-3.1c0.5-1,1-2.1,1.6-3.1c0-0.1,0.1-0.2,0.2-0.2c0.1,0,0.1,0.1,0.2,0.2
		c0.2,0.4,0.4,0.7,0.6,1.1c0.8,1.7,1.7,3.3,2.5,5c0.1,0.3,0.3,0.5,0.7,0.4C143.3,55.4,143.4,55.4,143.6,55.4z M106,55.4
		C106,55.4,106,55.4,106,55.4c0.2,0,0.4,0,0.6,0c0.2,0,0.3-0.1,0.2-0.3c-0.2-0.4-0.4-0.8-0.6-1.2c-0.5-1-1-2-1.5-3
		c-0.4-0.8-0.8-1.7-1.3-2.6c-0.6-1.1-1.1-2.3-1.7-3.4c0-0.1,0-0.2-0.1-0.2c-0.1,0-0.1,0.1-0.1,0.2c-0.5,1-1,1.9-1.5,2.9
		c-0.5,1.1-1,2.1-1.6,3.2c-0.6,1.1-1.1,2.3-1.7,3.4c-0.1,0.3-0.3,0.5-0.3,0.8c0,0-0.1,0-0.1,0.1c0,0.1,0.1,0.1,0.2,0.1
		c0.4,0,0.9,0,1.3,0c0.2,0,0.3-0.1,0.4-0.3c0.2-0.5,0.5-0.9,0.7-1.3c0.8-1.6,1.6-3.3,2.5-4.9c0-0.1,0.1-0.2,0.2-0.2
		c0.1,0,0.2,0.1,0.2,0.2c1,2,2.1,4.1,3.1,6.1c0.1,0.3,0.3,0.4,0.6,0.4C105.7,55.4,105.9,55.4,106,55.4z"/>
	<path class="st0" d="M112.9,46.3c0.5,0,1.1,0,1.6,0c1,0,1.7,0.7,1.8,1.6c0.2,1.2-0.7,2-1.6,2.1c-1.2,0.1-2.4,0-3.7,0c0,0,0,0,0,0
		c-0.2,0-0.3-0.1-0.3-0.3c0-1,0-2.1,0-3.1c0-0.2,0.1-0.3,0.3-0.3C111.7,46.3,112.3,46.3,112.9,46.3
		C112.9,46.3,112.9,46.3,112.9,46.3z"/>
</g>
</svg>
