<?xml version="1.0" encoding="UTF-8"?>
<svg xmlns="http://www.w3.org/2000/svg" version="1.1" viewBox="0 0 250 100">
  <defs>
    <style>
      .cls-1, .cls-2 {
        fill: #777;
      }

      .cls-2 {
        fill-rule: evenodd;
      }
    </style>
  </defs>
  <!-- Generator: Adobe Illustrator 28.6.0, SVG Export Plug-In . SVG Version: 1.2.0 Build 709)  -->
  <g>
    <g id="Capa_1">
      <g>
        <path class="cls-2" d="M82.7,33.4s0,0,0,0h0c.3-.4.7-.8,1-1.1.5-.5.5-.9.3-1.6v-.2c-.9-2.2-1.3-3.2-2.1-5.6,0,0,0-.2-.4-.2-.6,0-1.5,0-2.7,0-2.9,0-6.9,0-8.2,0-.2,0-.3,0-.4.2-.3.8-.5,1.4-.7,2-.2.6-.5,1.3-.7,2.2-.1.4-.1.9.2,1.5.8,1.1,2.3,2.4,2.6,2.6h0c.1.1.2.2.4.3h-8.5,0c.2-.2.4-.4.6-.6.8-.9,1.6-1.7,2.4-2.5.5-.7.9-1.3,1.2-1.9.7-2,1.4-4.1,2.2-6.3h0c1.6-4.4,3.3-9.2,5-14.1.3-.7.4-1.8.4-2.5,0-.7,0-1.5,0-2.2,0,0,0-.5,0-.8,0,0,.4,0,.8,0,.4,0,.9,0,1.1,0,.9,0,1.6,0,2.2,0,0,0,.3.3.3.5,2.4,6.5,4.8,13.1,7.2,19.6l1,2.8c.2.5.4,1,.6,1.6h0c.5,1.4.9,2.8,1.5,4.1.3.7.8,1.2,1.3,1.7h0c.2.3.4.5.5.7h-9.2s0,0,0,0ZM81.5,23.6s-4.9-13.2-5.7-15.4c-.8,2.2-5.1,15.4-5.1,15.4h10.8Z"/>
        <path class="cls-1" d="M142.6,8.8c-1.7,0-3-1.3-3-2.9s1.3-2.9,3.1-2.9c1.7,0,3,1.3,3,2.9,0,.8-.3,1.5-.9,2.1-.6.5-1.3.8-2.2.8h0Z"/>
        <path class="cls-1" d="M127,33.3s0,.1-.1.1h9.3,0c0,0,0-.2,0-.2-.3-.3-.6-.6-.9-.9-.7-.6-1-1.4-1-2.5,0-6.8,0-14.6,0-21.3V3.6c0-.2,0-.3,0-.5l-7.4,2.3s0,0,0,0c0,0,0,0,0,0h0c.3.2.6.4.9.6.8.4,1.2,1,1.1,2,0,6.1,0,13.6,0,22.2,0,.8-.2,1.4-.8,2-.4.4-.8.8-1.1,1.2Z"/>
        <path class="cls-1" d="M173.5,33.4s0,0,0,0h9.3s0,0,0,0c0,0,0,0,0,0h0c-.5-.5-.9-1-1.3-1.4-.3-.4-.5-.8-.5-1.3,0-2.8,0-6.8,0-9.3v-1.7c0-1.6.7-1.8,2-2.2.2,0,.5-.1.8-.2.8-.3,1.7-.4,2.6-.5h0c.5,0,1-.2,1.4-.3.2,0,.4-.2.5-.2.4-1.3.8-2.5,1.3-3.9h0c0,0,.3-.9.3-.9-.1,0-.3,0-.4,0-1,0-2.7.1-4.1.9-2,1.1-3.7,3.2-4.3,5.1v-5.9l-7.4,2.4h0s0,0,0,0h0s0,0,0,0c.4.2.7.5,1,.6.7.3.9.8.9,1.6,0,2.1,0,4.2,0,6.3v1.8s0,0,0,0c0,2,0,4.4,0,6.3,0,.5-.2,1-.6,1.5-.4.5-.8.9-1.2,1.4h0s0,0,0,0h0Z"/>
        <path class="cls-1" d="M138.4,33.3s0,.1-.1.1h0s9.4,0,9.4,0h0s0-.1,0-.1c-.4-.4-.7-.8-1.1-1.1-.6-.6-.9-1.2-.9-2.1,0-4.5,0-10,0-14.5v-3.7c0-.2,0-.3,0-.5h0s-7.4,2.2-7.4,2.2h0c0,0,0,.1,0,.1.3.2.6.4.9.6.7.3,1,.8,1,1.7,0,4.2,0,9.6,0,14.1,0,.8-.2,1.4-.8,1.9-.4.4-.8.8-1.1,1.2Z"/>
        <path class="cls-1" d="M103,33.1c-.7,0-4.6-.2-4.6-5.1,0-4.6,0-9.6,0-14.2v-2.1h3.9v-.2s0-.1,0-.2c0-.1,0-.2,0-.3v-.2h-4v-4.5l-7.9,5.1.2.3h2.5v.6c0,.6,0,1.8,0,2.5,0,1.2,0,2.4,0,3.6h0c0,2.8,0,6.1.2,8.8.3,3.8,2.4,5.9,6.3,6.4.5,0,1,0,1.4,0h.2c1.3,0,2.1-.3,2.1-.3v-.2c-.1,0-.1,0-.1,0Z"/>
        <path class="cls-2" d="M114.1,10.9c5.5,0,10.3,4.1,11.2,9.6h0c0,.2,0,.4,0,.6h-17.3c0,.1,0,.2,0,.3,0,.2,0,.2,0,.4,0,1.4,1.1,4.1,1.9,5.2,1.7,2.5,3.8,3.9,6.4,4.5,0,0,.1,0,.2,0h0s0,0,.1,0c0,0,.1,0,.2,0,0,0,0,0,.1,0,2.1.3,5.9-.7,7.3-4.7,0,0,0,0,.1,0,0,0,.1,0,.2,0,0,0,0,0,0,0-.2,1.1-.9,2.5-2.2,3.8h0c-.9.9-2.1,1.7-3.7,2.3,0,0-.1,0-.2,0-.9.3-1.8.6-2.8.7-.5,0-1,.1-1.6.1h-.3c-2.9,0-5.6-1.1-7.7-3.1-.4-.4-.9-.9-1.2-1.4-1.7-2-2.5-4.3-2.5-6.8,0-.5,0-1.5,0-1.8.4-3.6,2.7-6.7,5.8-8.4,1.6-.9,3.5-1.4,5.5-1.5h.2ZM113.7,12c-4.4,0-5.5,4.7-5.4,8h12.8c-.9-4.7-3.5-8-7.4-8Z"/>
        <path class="cls-2" d="M172.2,20.5c-1-5.5-5.7-9.6-11.2-9.6h-.2c-2,0-3.9.6-5.5,1.5-3.1,1.7-5.3,4.8-5.8,8.4,0,.2,0,1.2,0,1.8,0,2.5.8,4.8,2.5,6.8.4.5.8.9,1.2,1.4,2.1,2,4.8,3.1,7.7,3.1h.3c.5,0,1.1,0,1.6-.1.9,0,1.9-.3,2.8-.7,0,0,.1,0,.2,0,1.6-.6,2.8-1.4,3.7-2.3h0c1.3-1.3,2-2.7,2.2-3.8,0,0,0,0,0,0,0,0,0,0,0,0,0,0,0,0,0,0,0,0-.1,0-.2,0h0s0,0,0,0c0,0,0,0,0,0-1.4,4.1-5.2,5-7.3,4.7,0,0,0,0-.1,0,0,0-.1,0-.2,0,0,0,0,0-.1,0h0c0,0-.1,0-.2,0-2.6-.5-4.7-2-6.4-4.5-.8-1.1-1.9-3.7-1.9-5.2,0-.2,0-.3,0-.4,0,0,0-.1,0-.3h17.3c0-.2,0-.4,0-.6h0ZM155.1,20c0-3.2,1.1-8,5.4-8s6.5,3.3,7.4,8h-12.8Z"/>
        <path class="cls-1" d="M156,75.5c0-1.3-.4-2-.4-2,0-.1-.2-.3-.3-.4-.8-1.2-2-2-3.5-2.3-.4,0-.8-.2-1.2-.2-.2,0-.4,0-.7,0,0,0-.2,0-.4,0-2.7,0-4.6,1.1-5.6,1.7h-.1c-.5.4-1,.6-1.5.9h-.2c0,.1-.3.3-.3.3h0c-.5.3-1.1.6-1.6.9l-.5.3c-.8.5-1.7.9-2.6,1.3-.3.1-.7.2-1.1.1-.7,0-1.4-.5-1.7-1.1-.5-.9-.3-2,.6-2.8.5-.4.9-.7,1.3-.9,0,0,.2-.1.2-.1v-.3c-1.6.3-2.6.7-3.8,1.5-1.2.8-2.2,2.5-2.2,3.8,0,.8.3,1.6.7,2.2,0,0,0,0,0,0,0,0,0,0,0,0,0,0,0,0,0,0,0,0,0,0,0,0,0,.1.2.2.3.3,0,0,0,0,0,0h0s0,0,0,0c0,0,0,0,0,0,0,0,.2.2.3.3.1.1.3.2.4.4.8.6,1.6.8,2.5,1,1.9.2,3.7-.4,5.2-1.9.6-.7,1.8-2.4,2.9-3.9,0,0,0,0,0-.1,0,0,0,0,0-.1,0,0,0,0,0,0,.5-.6,2.3-2.7,4.3-3.1,3.7-.6,4.3,2.3,4.3,2.7.2,1.8-.3,3.1-1.4,4.5,0,0,0,0,0,0h0s0,0,0,0c-.8,1.1-3.5,2.7-7.1-.4,0,0,0,0,0,0,0,0,0,0,0,0h0c0,0-.1.1-.1.1,1,1.1,2.6,1.9,4.2,2.4.1,0,.2,0,.3,0,0,0,0,0,.1,0,.1,0,.3,0,.4,0,.1,0,.3,0,.4,0,0,0,0,0,0,0s0,0,0,0h.1s0,0,0,0h0s0,0,0,0h0c1.3.1,2.6,0,3.7-.6,2.4-1,3.5-2.7,3.5-5.1h0Z"/>
        <path class="cls-1" d="M96.7,69.9c.1-.2.6-.8.6-1.4h0c0-4.1,0-8.6,0-12.7,0-.8,0-1.7,0-2.6h0c0-2.5,0-5.1,0-7.5,0-.7-.3-1.2-.9-1.5-.3-.2-.6-.4-1-.6h-.1c0,0,0,0,0-.1,0,0,0,0,0,0l7.4-2.3v6.8c0,6.2,0,13.7,0,20,0,1.1.3,1.8,1,2.5.3.3.6.6,1,1h0c0,0-9.4,0-9.4,0,0,0,.1-.2.1-.2h0c.5-.5.9-1,1.3-1.5Z"/>
        <path class="cls-1" d="M172.8,68.5c0,.6-.4,1.2-.6,1.4-.4.5-.8,1-1.3,1.4h0s0,0,0,0c0,0,0,0,0,0h9.3,0s0,0,0,0c0,0,0,0,0,0h0c-.3-.4-.6-.7-.9-1-.7-.6-1-1.4-1-2.5,0-3.7,0-9,0-13.4,0-2.4-1.6-4.4-3.9-5.1,0,0,0,0,0,0,0,0,0,0,0,0,0,0,0,0,0,0,0,0,0,0,0,0h0c-.1,0-.2,0-.3,0,0,0,0,0,0,0-.1,0-.2,0-.4,0,0,0,0,0,0,0h0s0,0,0,0c0,0-.2,0-.2,0h-.3s0,0,0,0c0,0,0,0,0,0,0,0-.1,0-.2,0-.4,0-.9,0-1.3.1,0,0-.1,0-.2,0,0,0,0,0-.1,0h0s0,0,0,0c0,0,0,0,0,0-1.1.2-2.4.8-3.5,1.5-.6.4-1.9,1.3-2.3,1.8v-3.2l-7.5,2.6s0,0,0,0h0s0,0,0,0c.4.3.7.5,1,.6.7.4,1,.8,1,1.7v.4c0,4,0,9.1,0,13.2,0,1.3-.7,2-1.4,2.7l-.8.7h9.5,0s0,0,0,0h0s0-.1,0-.1c-.5-.5-.9-1-1.4-1.5-.3-.3-.4-.8-.4-1.1,0-4.6,0-10,0-14.2,0-.2,0-.6.1-.7,1-1.3,3.5-2.5,5.8-1.6,1.5.6,2.2,2.1,2.2,3.9h0c0,3.6,0,8.5,0,12.5h0Z"/>
        <path class="cls-2" d="M129,59.5s0,0,0,0h0c0,.3,0,.5,0,.8,0,3-1.2,5.7-3.1,7.8,0,0,0,0,0,0,0,0,0,0,0,0h0s-.3.3-.3.3c-.1.1-.2.2-.4.3,0,0,0,0-.1,0-.6.5-1.2.9-1.8,1.2-1.6.9-3.5,1.4-5.4,1.5h-.3c-2.9,0-5.6-1.1-7.7-3.1-2.2-2.2-3.5-5.1-3.5-8.2,0-4.2,2.3-7.9,5.8-9.9h0s0,0,0,0h0s0,0,0,0c1.6-.9,3.5-1.4,5.4-1.5h.2c1.8,0,3.5.5,5.1,1.3h0c0,0,0,0,.1.1,0,0,0,0,.1,0,.8.5,1.6,1.1,2.4,1.7,2,2,3.3,4.5,3.5,7.3ZM124.6,66.5c0-.2,0-.5,0-.7h0c0-.1,0-.2,0-.3,0-1.9-1.6-8.5-4.3-12.1-.2-.3-.5-.7-.8-1-.6-.7-1.6-1.4-2.8-1.8-1.7-.6-4.3,0-5.2,1.5-.5.8-.8,1.7-.8,2.4,0,.7,0,1.5,0,2.2,0,.4,0,1.1.2,1.6.2,1.6.7,3.2,1.3,4.6h0c.8,2,2,3.8,3.4,5.5.7.7,1.7,1.5,2.9,1.9,1.7.6,4.3,0,5.2-1.5.5-.8.8-1.7.8-2.4Z"/>
        <path class="cls-2" d="M93.7,59.6s0,0,0,0c-.2-2.8-1.5-5.4-3.5-7.3-.7-.7-1.5-1.3-2.4-1.7,0,0,0,0-.1,0h0s0,0,0,0h0c-1.5-.8-3.3-1.3-5.1-1.3h-.2c-2,0-3.8.6-5.4,1.5,0,0,0,0,0,0h0s0,0,0,0c-3.5,2-5.9,5.7-5.8,9.9,0,2.1.6,4.1,1.7,5.9-1,1.2-2.9,2.4-3.9,2.8-1.1.5-2.5.8-4.1,1-3.8,0-5.5-.9-7.4-2.5,0,0,0,0,0,0,0,0,0,0,0,0-1.2-1.1-2.3-2.3-3.3-3.8-3.2-5-4.3-9.8-3.4-14.7.4-1.8,1.6-4.1,4.5-5.6,3.4-1.8,6.8-1.7,9.6-.1.2.1.4.2.6.4,0,0,0,0,0,0,0,0,0,0,0,0,1.1.8,2.2,1.7,3.2,2.7,0,0,0,0,0,0,.1.1.4.4,1.3.4h5.8c-2.4-3.4-6.2-5.6-10.5-6.1h0c-1-.1-2.1-.1-3.1,0-.4,0-.8,0-1.2.1-5.4.7-9.1,4.1-10.5,5.7,0,0,0,0,0,0-2.2,2.4-3.6,5.4-3.9,8.7-.8,7.1,3.3,13.6,10,15.7,1,.3,2.1.6,3.2.7,0,0,0,0,0,0,0,0,0,0,0,0,.2,0,.4,0,.8,0h0s0,0,0,0c.3,0,.6,0,.9,0h0c.3,0,.6,0,.9,0,0,0,.1,0,.2,0,.2,0,.5,0,.7,0,0,0,0,0,.1,0,0,0,0,0,.1,0,.2,0,.5,0,.7-.1h.2c.3,0,.6-.1.9-.2,0,0,0,0,.1,0,.3,0,.5-.1.8-.2,0,0,0,0,0,0,0,0,0,0,0,0,.3,0,.5-.2.8-.3,0,0,0,0,0,0,0,0,0,0,0,0h0c1.9-.7,3.8-1.7,5.4-3.1.4-.4.7-.7.9-.9.4.7,1,1.3,1.5,1.8,2.1,2,4.8,3.1,7.7,3.1h.3c2,0,3.8-.6,5.4-1.5.6-.4,1.2-.8,1.8-1.2,0,0,0,0,.1,0,.1-.1.2-.2.4-.3l.3-.3s0,0,.1-.1c2-2,3.2-4.8,3.1-7.8,0-.3,0-.5,0-.8h0ZM89.3,65.7c0,.2,0,.5,0,.7,0,.7-.4,1.6-.8,2.4-.8,1.4-3.4,2-5.2,1.5-1.2-.4-2.3-1.2-2.9-1.9-1.5-1.7-2.6-3.5-3.4-5.4h0c0,0,0,0,0,0-.6-1.5-1-3-1.3-4.6,0-.5-.1-1.2-.2-1.6,0-.7,0-1.5,0-2.2,0-.7.3-1.6.8-2.4.8-1.4,3.4-2,5.2-1.5,1.2.4,2.1,1.1,2.8,1.8.3.3.5.7.8,1,2.7,3.6,4.3,10.2,4.3,12.1,0,.1,0,.2,0,.3h0Z"/>
        <path class="cls-2" d="M147.1,68.4c-1,.5-2,.7-2.2.7h0c-3.1.6-5.2,0-5.2,0-4.7-1.2-7.9-6-7.4-10.9.3-2.7,1.6-5.1,3.5-6.8,0,0,0,0,0,0,0,0,.1,0,.2-.1,0,0,0,0,0,0,0,0,0,0,0,0,1.7-1.4,3.2-1.7,3.8-1.9,0,0,0,0,0,0h0c.5-.1,1.1-.2,1.7-.3.2,0,.5,0,.7,0,2.3,0,4.3.7,6.1,2.1.3.2.6.4.9.4s.6-.1.8-.3c1.1-.6,2.2-1.3,3.2-1.9l1-.5c.1,0,.2-.1.4-.2v.5h0c0,1.2,0,2.3,0,3.3,0,0-.2.1-.3.2-.3,0-.6,0-1.1,0h-1.3c-.1,0-.3,0-.4,0h-.1s-.8,0-.8,0l.3.8h0c0,.2.2.4.3.6,2,3.9,1.8,7.7-.7,11.3-.6.9-1.3,1.6-2.1,2.2,0,0,0,0,0,0,0,0,0,0,0,0-.2.1-.4.3-.6.4h0s0,0,0,0c0,0,0,0,0,0,0,0,0,0,0,0,0,0-.2,0-.3.1,0,0-.1,0-.2,0,0,0,0,0,0,0ZM136.7,54.6c0,4.5,1.6,8.6,4.8,12.1.1.2.3.3.4.4,0,0,0,0,0,0,.5.5,2.1,1.6,3.9.8,1.9-.8,2.2-3.2,2.2-4.4,0-.3,0-.5,0-.7h0c-.2-3.3-1.4-6.4-3.4-9.2l-.2-.3c-.3-.5-.7-.9-1.1-1.4h0c-.1-.3-.3-.4-.5-.6h0c0,0-.1,0-.2-.2h0c-.9-.8-2.5-1.4-4.3-.5-1.3.7-1.6,2.2-1.7,3.2,0,.2,0,.4,0,.6h0Z"/>
        <path class="cls-2" d="M204.1,58.4c-1-5.5-5.7-9.6-11.2-9.6h-.2c-2,0-3.9.6-5.5,1.5-3.1,1.7-5.3,4.8-5.8,8.4,0,.2,0,1.2,0,1.8,0,2.5.8,4.8,2.5,6.8.4.5.8.9,1.2,1.4,2.1,2,4.8,3.1,7.7,3.1h.3c.5,0,1.1,0,1.6-.1.9,0,1.9-.3,2.8-.7,0,0,.1,0,.2,0,1.6-.6,2.8-1.4,3.7-2.3h0c1.3-1.3,2-2.7,2.2-3.8,0,0,0,0,0,0,0,0,0,0,0,0,0,0,0,0,0,0,0,0,0,0,0,0,0,0-.1,0-.1,0-1.4,4.1-5.2,5-7.3,4.7h0s0,0,0,0c0,0,0,0,0,0,0,0-.1,0-.2,0,0,0,0,0-.1,0h0c0,0-.1,0-.2,0-2.6-.5-4.7-2-6.4-4.5-.8-1.1-1.9-3.7-1.9-5.2,0-.2,0-.3,0-.4,0,0,0-.1,0-.3h17.3c0-.2,0-.4,0-.6h0ZM187,57.9c0-3.2,1.1-8,5.4-8s6.5,3.3,7.4,8h-12.8Z"/>
        <path class="cls-1" d="M145.1,89.4c0,0,.2-.1.2-.3l.6-1.1c-.2-.2-.4-.3-.6-.5-.2-.1-.5-.3-.8-.4-.3,0-.6-.2-.9-.2-.3,0-.6,0-.9,0-.6,0-1.1,0-1.5.3s-.8.4-1.1.7c-.3.3-.5.6-.7,1-.2.4-.2.8-.2,1.1s0,.9.2,1.2.3.6.5.8c.2.2.5.4.7.5.3.1.6.3.9.3.3,0,.6.2.9.3.3,0,.5.2.7.3.2,0,.4.2.5.4.1.2.2.4.2.6,0,.4-.1.7-.4.9-.2.2-.6.3-1,.3s-.6,0-.8-.1c-.2,0-.4-.2-.6-.3,0,0,0,0,0,0-.2,0-.3-.2-.4-.3-.1,0-.3-.1-.4-.1s-.2,0-.3,0c0,0-.2.1-.2.2l-.7,1.1c.2.2.4.4.7.6.3.2.6.3.9.4.3.1.6.2,1,.3.3,0,.7,0,1,0,.6,0,1.1,0,1.6-.3.5-.2.9-.4,1.2-.7.3-.3.6-.7.7-1.1.2-.4.3-.9.3-1.4s0-.8-.2-1.1c-.1-.3-.3-.6-.5-.8-.2-.2-.5-.4-.7-.5-.3-.1-.6-.3-.9-.4-.3-.1-.6-.2-.9-.3-.3,0-.5-.2-.7-.3-.2,0-.4-.2-.5-.4-.1-.1-.2-.3-.2-.5,0-.3.1-.6.3-.8.2-.2.6-.3,1-.3s.5,0,.7.1c.2,0,.4.1.5.2,0,0,.2.1.3.2,0,0,.1,0,.2,0,.1,0,.2.1.4.1s.2,0,.3,0Z"/>
        <path class="cls-2" d="M106,93.9v3.5h-2.4v-10.4h3.7c.7,0,1.4,0,1.9.3.5.2,1,.4,1.3.7.3.3.6.7.8,1.1.2.4.2.9.2,1.3s0,1-.3,1.4c-.2.4-.4.8-.8,1.1-.3.3-.8.6-1.3.7-.5.2-1.1.3-1.9.3h-1.3ZM106,92.1h1.3c.6,0,1.1-.2,1.4-.5.3-.3.4-.7.4-1.3s0-.5-.1-.6c0-.2-.2-.4-.3-.5-.1-.1-.3-.2-.5-.3-.2,0-.5-.1-.8-.1h-1.3v3.3Z"/>
        <path class="cls-2" d="M122,97.4h-1.9c-.2,0-.4,0-.5-.1-.1,0-.2-.2-.3-.4l-.6-1.8h-4l-.6,1.8c0,.1-.1.3-.3.4-.1.1-.3.2-.5.2h-1.9l4-10.4h2.5l4,10.4ZM118.2,93.4l-1-2.9c0-.2-.1-.4-.2-.6,0-.2-.2-.5-.2-.8,0,.3-.2.6-.2.8,0,.2-.2.5-.2.6l-1,2.8h2.8Z"/>
        <path class="cls-2" d="M126.1,93.6v3.9h-2.4v-10.4h3.4c.8,0,1.4,0,1.9.2.5.2,1,.4,1.3.6s.6.6.7,1c.2.4.2.8.2,1.2s0,.7-.1,1c0,.3-.2.6-.4.8-.2.3-.4.5-.7.7-.3.2-.6.4-.9.5.2,0,.3.2.5.3.1.1.3.3.4.4l2.2,3.6h-2.2c-.4,0-.7-.2-.9-.5l-1.7-3c0-.1-.2-.2-.3-.3-.1,0-.2,0-.4,0h-.6ZM127.1,91.9h-1s0-3.1,0-3.1h1c.6,0,1.1.1,1.4.4.3.3.4.6.4,1.1s0,.4,0,.6c0,.2-.2.4-.3.5-.1.1-.3.3-.6.3-.2,0-.5.1-.8.1Z"/>
        <path class="cls-1" d="M136.7,97.4h-2.4v-10.4h2.4v10.4Z"/>
      </g>
    </g>
  </g>
</svg>