<?xml version="1.0" encoding="utf-8"?>
<!-- Generator: $$$/GeneralStr/196=Adobe Illustrator 27.6.0, SVG Export Plug-In . SVG Version: 6.00 Build 0)  -->
<svg version="1.1" id="Capa_1" xmlns="http://www.w3.org/2000/svg" xmlns:xlink="http://www.w3.org/1999/xlink" x="0px" y="0px"
	 viewBox="0 0 250 100" style="enable-background:new 0 0 250 100;" xml:space="preserve">
<style type="text/css">
	.st0{fill:#777777;}
</style>
<g id="Layer_2">
</g>
<g>
	<path class="st0" d="M162.4,97.3c-0.7-0.2-1.4-0.4-2-0.9c-1.7-1.3-2.3-3.4-1.6-5.3c0.8-2,2.9-3.1,5-2.8c3.6,0.6,5.2,4.4,3.1,7.2
		c-0.7,1-1.8,1.5-3,1.8C163.4,97.3,162.9,97.3,162.4,97.3z M163.1,96.1c2,0,3.5-1.4,3.5-3.3c0-1.9-1.6-3.5-3.6-3.5
		c-1.9,0-3.5,1.6-3.5,3.4C159.6,94.6,161.1,96.1,163.1,96.1z"/>
	<path class="st0" d="M71.5,96.8c1.3-2.6,2.5-5.3,3.8-7.9c0.2-0.3,0.3-0.5,0.7-0.5c0.4,0,0.7,0.1,0.8,0.5c1.2,2.5,2.3,5,3.5,7.5
		c0.1,0.2,0.4,0.5,0.1,0.7c-0.3,0.2-1,0-1.1-0.3c-0.3-0.7-0.7-1.4-1-2.1c-0.2-0.4-0.4-0.6-0.9-0.6c-0.9,0-1.8,0-2.8,0
		c-0.4,0-0.7,0.1-0.9,0.5c-0.2,0.5-0.4,1-0.7,1.4c-0.5,1-0.5,1-1.6,0.9C71.5,96.9,71.5,96.9,71.5,96.8z M76.1,93
		C76.1,93,76.1,93,76.1,93c0.3,0,0.6,0,0.9,0c0.3,0,0.5-0.1,0.3-0.4c-0.3-0.8-0.7-1.5-1-2.3c-0.1-0.3-0.3-0.2-0.4,0
		c-0.3,0.7-0.7,1.5-1.1,2.2c-0.1,0.3-0.1,0.4,0.3,0.5C75.4,93,75.7,93,76.1,93z"/>
	<path class="st0" d="M180.2,97.3c-0.7-0.2-1.5-0.4-2.1-0.8c-0.4-0.2-0.3-0.5-0.1-0.8c0.2-0.3,0.4-0.5,0.7-0.2
		c1,0.7,2.2,0.7,3.4,0.6c0.3,0,0.6-0.2,0.8-0.4c0.3-0.4,0.2-0.8-0.3-0.9c-0.5-0.1-1-0.1-1.5-0.1c-0.6,0-1.1,0-1.7-0.2
		c-0.7-0.2-1.1-0.6-1.2-1.3c-0.1-0.7,0.1-1.3,0.7-1.7c1-0.7,2-0.6,3.1-0.5c0.6,0.1,1.1,0.3,1.6,0.5c0.4,0.2,0.3,0.4,0.2,0.7
		c-0.1,0.3-0.2,0.6-0.7,0.4c-0.9-0.5-2-0.7-3-0.4c-0.3,0.1-0.5,0.2-0.6,0.4c-0.2,0.4,0.1,0.8,0.7,0.8c0.8,0.1,1.6,0,2.3,0.1
		c0.6,0.1,1.3,0.3,1.7,0.9c0,0.9,0,1.8,0,2.6c0,0.3,0,0.3-0.3,0.3C182.6,97.2,181.4,97.3,180.2,97.3z"/>
	<path class="st0" d="M148.5,97.3c-0.7-0.2-1.4-0.4-2.1-0.7c-0.4-0.2-0.4-0.5-0.2-0.8c0.2-0.4,0.5-0.4,0.8-0.2
		c1.1,0.7,2.3,0.6,3.5,0.5c0.4,0,0.8-0.3,0.8-0.8c0-0.5-0.4-0.6-0.8-0.7c-0.8-0.1-1.6-0.1-2.3-0.2c-1-0.1-1.5-0.5-1.7-1.3
		c-0.1-0.9,0.3-1.7,1.2-2c1.4-0.5,2.9-0.3,4.2,0.4c0.5,0.2,0.1,0.5,0,0.8c-0.1,0.3-0.3,0.4-0.6,0.2c-0.9-0.5-1.9-0.6-3-0.4
		c-0.4,0.1-0.8,0.2-0.7,0.7c0.1,0.5,0.4,0.6,0.8,0.6c0.9,0,1.7,0,2.6,0.2c1.3,0.3,1.7,1.1,1.3,2.4c-0.2,0.6-0.6,0.9-1.2,1.1
		c-0.3,0.1-0.5,0.2-0.8,0.3C149.8,97.3,149.2,97.3,148.5,97.3z"/>
	<path class="st0" d="M148.2,51.5c-0.3,0.3-0.5,0.3-0.8,0.3c-3.7,0-7.4,0.1-11,0c-2.3-0.1-4.6-0.1-6.9-0.1c-0.4,0-0.7,0-1.1,0.5
		c6.3,0,12.5,0,18.8,0c-0.3,0.4-0.6,0.3-0.8,0.3c-5.7,0-11.4,0-17,0c-0.4,0-0.7,0-1.1,0c-0.4,0-0.8,0.1-1.1,0.5c6.3,0,12.5,0,18.8,0
		c-0.1,0.2-0.2,0.2-0.3,0.2c-0.1,0-0.2,0-0.4,0c-5.9,0-11.7,0-17.6,0c-0.8,0-1.2,0.3-1.7,0.8c-1.1,1-1,2.3-0.9,3.5
		c0.1,0.8,0.8,1.4,1.4,2c0.1,0.1,0.3,0.2,0.4,0c0.1-0.1,0-0.3-0.1-0.4c-0.2-0.5-0.4-0.9-0.6-1.4c-0.2-0.4-0.1-0.6,0.3-0.8
		c0.6-0.3,1.2-0.5,1.8-0.8c0.4-0.2,0.6-0.1,0.8,0.2c0.3,0.4,0.6,0.8,0.9,1.2c0.2,0.2,0.3,0.5,0.3,0.8c0,0.5-0.1,0.9,0,1.3
		c0.1,0.8-0.3,1.2-1,1.6c-1.3,0.8-2.7,0.8-4.1,0.9c-0.3,0-0.4-0.1-0.5-0.4c-0.1-0.3-0.2-0.5-0.3-0.8c-0.2-0.7-0.5-1.1-1.3-1.3
		c-0.6-0.1-0.5-0.6-0.4-1c0.1-0.5,0-0.8-0.5-1c-0.5-0.2-0.7-0.5-0.4-1c0.1-0.2,0.1-0.4,0.2-0.6c0.4-0.8,0.4-1.5-0.4-2.1
		c-0.5-0.4,0-0.6,0.3-1c-4,0-7.9,0-11.9,0c0.3-0.3,0.5-0.2,0.7-0.2c3.7,0,7.4,0,11,0c0.4,0,0.9,0,1.2-0.6c-4.6,0-9.2,0-13.9,0
		c0.3-0.3,0.6-0.3,0.8-0.3c4.2,0,8.4,0,12.6,0c0.2,0,0.5,0.1,0.5-0.2c0-0.3-0.4-0.2-0.6-0.2c-4.5,0-9,0-13.5,0c-0.3,0-0.6,0-0.8-0.3
		c0.2-0.2,0.5-0.1,0.7-0.1c4.4,0,8.8,0,13.3,0c0.2,0,0.3,0,0.5,0c0.1,0,0.3,0,0.2-0.2c0-0.1-0.1-0.2-0.2-0.2c-0.2,0-0.4,0-0.6,0
		c-4.7,0-9.3,0-14,0c-0.3,0-0.7,0-0.9-0.2c-0.1-0.1-0.2-0.1-0.1-0.2c0-0.1,0.1-0.1,0.2-0.1c0.2,0,0.4,0,0.5,0c5.3,0,10.6,0,16,0
		c0.8,0,0.9,0,1-0.8c0.1-0.4,0.3-0.5,0.7-0.6c0.6-0.1,0.9-0.5,1-1.1c0-0.7,0.4-1.1,1.1-1.3c0.3-0.1,0.5-0.2,0.7-0.4
		c0.3-0.3,0.5-0.6,0.3-1.1c-0.6-1.5-1.2-3-1.8-4.5c-0.1-0.2-0.3-0.4-0.4-0.6c-1.4-1.5-2.3-3.3-3.1-5.1c-0.7-1.7-1.5-3.4-1.6-5.2
		c-0.1-0.6,0.1-1.2,0.3-1.7c0.3-0.7,0.2-1.2-0.2-1.8c-0.5-0.7-0.4-0.8,0.4-1c1.1-0.2,1.1-0.2,0.9-1.4c-0.3-1.3-0.3-1.3,1-1.1
		c1.7,0.2,1.4,0.5,2.3-1.1c0.6-1.1,0.6-1.1,1.8-0.6c0.2,0.1,0.4,0.2,0.5,0.2c0.4,0.2,0.8,0.3,1.1-0.3c0.2-0.4,0.6-0.5,0.9-0.1
		c0.4,0.4,0.8,0.3,1.2-0.1c0.4-0.4,0.5-0.3,0.7,0.2c0.2,0.5,0.4,1,0.5,1.5c0.1,0.5,0.4,0.7,0.9,0.9c0.5,0.2,0.9,0.4,1.4,0.6
		c0.4,0.2,0.5,0.4,0.1,0.7c-0.1,0.1-0.2,0.2-0.3,0.3c-0.5,0.4-0.7,1.4-0.3,1.9c0.1,0.2,0.3,0.2,0.4,0.1c0.2,0,0.4-0.1,0.6-0.2
		c0.4-0.1,0.6,0,0.6,0.5c0,0.9-0.3,1.8-0.7,2.6c-0.2,0.3-0.1,0.5,0.1,0.7c0.2,0.1,0.3,0.3,0.4,0.5c0.4,0.5,0.4,0.6-0.2,0.8
		c-0.3,0.1-0.3,0.3-0.2,0.5c0.6,1.2,1.1,2.4,1.7,3.6c0.2,0.4,0.7,0.5,1,0.8c0.2,0.2,0.6,0.3,0.4,0.7c-0.2,0.4-0.3,0.9-0.9,0.9
		c-0.4,0-0.8,0-1.2,0.2c-0.4,0.2-1-0.2-1.3-0.7c-0.8-1.4-1.5-2.8-2.3-4.2c-0.5-1-1-2-1.9-2.8c-0.1-0.1-0.3-0.4-0.5-0.3
		c-0.2,0.1-0.1,0.4,0,0.5c0.1,0.4,0.3,0.9,0.4,1.3c0.2,0.7,0.6,1.4,1.4,1.6c0.4,0.2,0.7,0.5,0.7,0.9c0.1,0.7,0.5,1.2,1,1.7
		c0.5,0.4,0.7,0.9,0.5,1.6c-0.1,0.3-0.1,0.5,0.2,0.7c0,0,0.1,0.1,0.1,0.1c0.9,0.6,1.3,1.4,0.8,2.4c-0.2,0.3-0.1,0.7,0,1.1
		c0.2,1.1,0.2,1.1-0.8,1.5c-0.9,0.3-1.6,0.9-1.9,1.8c-0.2,0.6-0.5,1.2-0.7,1.9c-0.2,0.9-0.6,1.7-1.3,2.3c-0.1,0.1-0.4,0.2-0.3,0.5
		c0.1,0.2,0.3,0.1,0.5,0.1c2.7,0,5.4,0,8.2-0.1c3.2-0.1,6.5,0,9.7,0c0.2,0,0.6-0.1,0.6,0.2c0,0.3-0.3,0.4-0.6,0.4
		c-0.2,0-0.4,0-0.6,0c-5.9,0-11.8,0-17.7,0c-0.3,0-0.6-0.1-0.9,0.1c-0.1,0-0.1,0.2-0.1,0.2c0,0.1,0.1,0.1,0.2,0.1c0.2,0,0.3,0,0.5,0
		c5.8,0,11.5,0,17.3,0C147.7,51.4,147.9,51.4,148.2,51.5z M135.2,31.3c-0.2-0.3-0.3-0.5-0.7-0.3c-0.7,0.4-1.2,0.3-1.6-0.2
		c-0.4-0.4-0.4-1-0.1-1.6c0.1-0.2,0.2-0.4,0.1-0.6c-0.5-0.7-0.6-1.5-0.6-2.4c0-0.4-0.2-0.6-0.6-0.7c-0.7-0.1-1.5-0.3-2.2-0.4
		c-0.6-0.1-1.1,0.2-1.7,0.4c-0.2,0.1-0.2,0.3-0.2,0.5c0.1,0.6,0.2,1.3,0.4,1.9c0.3,1,0.7,2,2.1,1.9c0.3,0,0.7,0.1,1,0.4
		c0.6,0.6,1.2,1.3,1.6,2.1c0.9,1.7,1.8,3.3,2.7,4.9c0.2,0.4,0.6,0.7,1.1,0.4c0.2-0.1,0.4-0.1,0.7-0.1c0.2,0,0.4,0,0.5-0.3
		c0.1-0.3-0.1-0.4-0.3-0.5c-0.6-0.3-0.9-0.8-1.2-1.3c-0.5-1.2-1-2.3-1.5-3.5C134.5,31.5,134.5,31.5,135.2,31.3z M133.4,41.5
		c-1.1,0.1-2.2,0.6-3.3,1.1c-0.1,0-0.2,0.2-0.2,0.3c-0.2,0.4-0.4,0.8-0.6,1.2c-0.1,0.2-0.1,0.4,0.2,0.4c0.6,0.1,1.1,0.4,1.6,0.7
		c0.5,0.4,1.2,0.3,1.6-0.3c0.5-0.7,1.1-1.4,1.5-2.1c0.2-0.3,0.6-0.5,0.5-0.9c-0.2-0.4-0.7-0.4-1.2-0.5
		C133.5,41.5,133.4,41.5,133.4,41.5z M133.1,37.9c-0.7,0-1.2,0.2-1.6,0.7c-0.4,0.4-0.7,0.8-1.2,1.1c-0.5,0.4-0.7,0.8-0.6,1.4
		c0.2,0.8,0.2,0.9,0.9,0.6c1.1-0.4,2.2-1,3.5-0.6c0.3,0.1,0.2-0.2,0.2-0.3c-0.2-0.8-0.5-1.6-0.7-2.4
		C133.6,38.1,133.4,37.9,133.1,37.9z M131.9,35.8c-0.4,0-0.8,0.1-1.1,0.4c-0.5,0.3-1,0.8-1.5,1.2c-0.9,0.9-0.9,0.9-0.2,1.9
		c0,0,0.1,0.1,0.1,0.1c0.2,0.3,0.4,0.3,0.7,0.1c0.4-0.3,0.7-0.6,1-0.9c0.5-0.6,1.1-1.1,2-1.1c0.1,0,0.2,0,0.2-0.2
		C133.2,36.7,132.5,35.8,131.9,35.8z M130.2,33.4c-0.1-0.1-0.1-0.1-0.1-0.2c-0.7-0.8-1.8-1.1-2.7-0.5c-0.3,0.2-0.6,0.4-0.9,0.6
		c-0.8,0.6-0.8,0.6-0.3,1.5c0.1,0.2,0.2,0.3,0.3,0.5c0.2,0.4,0.4,0.5,0.8,0.2c0.9-0.7,1.7-1.6,2.8-2
		C130.1,33.6,130.1,33.5,130.2,33.4z M131.4,22.5c-0.5,0.1-0.9,0.1-1.3,0.2c-0.2,0-0.4,0.1-0.4,0.3c-0.2,0.5-0.3,1-0.2,1.5
		c0.1,0.4,0.7,0.3,1,0.4c0.5,0.1,1.1,0.2,1.6,0.3c0.3,0.1,0.6,0,0.9,0c0.4-0.1,0.4-0.2,0.2-0.5c-0.3-0.5-0.7-1.1-1-1.7
		C132,22.6,131.8,22.4,131.4,22.5z M130.7,34c-0.3,0-0.6,0.1-0.9,0.3c-0.8,0.4-1.5,1.1-2.2,1.7c-0.5,0.4-0.5,0.8,0.3,1.5
		c0.4,0.4,0.6-0.1,0.8-0.3c0.9-0.8,1.8-1.7,3.1-1.8c0.2,0,0.3-0.1,0.2-0.3C131.9,34.8,131,34,130.7,34z M126.8,25.2
		c-0.2-0.5-0.4-1-0.6-1.5c-0.1-0.4-0.4-0.4-0.7-0.2c-0.2,0.2-0.5,0.4-0.8,0.5c-1.1,0.8-1.1,0.8-0.1,1.7c0.9,0.8,0.9,0.8,1.8,0
		C126.6,25.6,126.9,25.5,126.8,25.2z M126.4,52.9c-0.3-0.5-0.5-1.1-0.8-1.6c-0.2-0.4-0.5-0.4-0.7,0c-0.3,0.5-0.7,0.9-1,1.4
		c-0.1,0.1-0.2,0.2-0.1,0.4c0.3,0.4,0.6,0.8,0.9,1.3c0.1,0.1,0.2,0.1,0.3,0.1C125.2,54.3,126.4,53.1,126.4,52.9z M128.3,51.3
		c0-0.1-0.1-0.1-0.1-0.2c-0.2-0.4-0.4-0.8-0.6-1.1c-0.2-0.4-0.3-0.8-0.8-0.9c-0.5-0.1-0.6,0.4-0.8,0.7c-0.4,0.4-0.5,0.7,0,1.2
		c0.2,0.2,0.3,0.5,0.4,0.8c0.3,0.6,0.5,0.7,1.1,0.4c0.2-0.1,0.4-0.3,0.6-0.4C128.2,51.5,128.3,51.5,128.3,51.3z M129.4,45
		c-0.2,0-0.5-0.1-0.6,0.2c-0.1,0.3,0.2,0.3,0.3,0.4c0.5,0.3,0.8,0.8,1,1.3c0.1,0.4,0.3,0.8,0.6,1.1c0.3,0.4,0.5,0.4,0.7-0.1
		c0.2-0.6,0.4-1.1,0.5-1.7c0.1-0.3,0-0.5-0.3-0.5c-0.5,0-0.9-0.2-1.3-0.5C130.1,45.1,129.8,44.9,129.4,45z M127.1,31
		c-0.4,0.1-0.8,0.1-1.2,0.2c-1.4,0.3-1.4,0.4-0.8,1.7c0.2,0.5,0.3,0.6,0.8,0.2c0.5-0.5,1-0.9,1.7-1.1c0.2-0.1,0.5,0,0.5-0.2
		c0-0.2-0.2-0.4-0.4-0.6C127.6,31,127.4,31,127.1,31z M129,46.1c-0.2,0-0.8,0.8-0.8,1c0,0.1,0.1,0.1,0.1,0.1c0.8,0.4,1,1.2,1.3,2
		c0.1,0.3,0.2,0.5,0.5,0.5c0.4-0.1,0.6-0.3,0.8-0.6c0.1-0.3-0.2-0.3-0.3-0.5c-0.3-0.3-0.5-0.7-0.7-1c-0.2-0.4-0.3-0.7-0.5-1.1
		C129.3,46.3,129.2,46.1,129,46.1z M129,23.2c0.1-0.3-0.1-0.4-0.3-0.4c-0.6,0.1-1.2,0.1-1.7,0.2c-0.3,0-0.4,0.2-0.3,0.5
		c0.2,0.4,0.3,0.7,0.5,1.1c0.1,0.2,0.2,0.6,0.5,0.5c0.4-0.1,1-0.1,1.2-0.6C129,24,129,23.6,129,23.2z M124.8,36.7
		c0.6,0,1.1-0.1,1.3-0.5c0.2-0.3-0.2-0.6-0.4-0.9c0-0.1-0.1-0.2-0.2-0.3c-0.2-0.5-0.5-0.6-1.1-0.4c-1,0.4-1,0.3-0.6,1.3
		C124.2,36.4,124.4,36.8,124.8,36.7z M130.6,32.9c-0.3-0.8-0.5-1.5-0.8-2.3c-0.1-0.2-0.3-0.3-0.5-0.3c-0.6,0-0.9-0.3-1.1-0.8
		c-0.1-0.2-0.1-0.4-0.4-0.5C127.4,30.6,129.2,32.4,130.6,32.9z M133.4,25.7c-0.3,0-0.6,0.1-0.6,0.6c-0.1,1.5,0.6,2.5,2,2.9
		c0.1,0,0.2,0,0.2-0.1c0.4-0.4,0.3-0.7-0.2-0.8c-0.6-0.1-0.8-0.4-0.8-1c0-0.4-0.1-0.8-0.1-1.2C133.8,25.8,133.7,25.7,133.4,25.7z
		 M123.7,34.2c0.3,0,0.6-0.1,0.9-0.2c0.2-0.1,0.3-0.2,0.2-0.4c-0.2-0.5-0.3-1.1-0.7-1.5c-0.3-0.3-0.8,0.1-1.2,0c0,0-0.1,0-0.1,0
		c-0.3,0-0.5,0.1-0.3,0.5c0.2,0.4,0.4,0.8,0.5,1.2C123.2,34.1,123.4,34.2,123.7,34.2z M126,38.8c0.5-0.1,1-0.3,1.4-0.6
		c0.1-0.1,0.2-0.2,0.1-0.4c-0.2-0.4-0.4-0.8-0.8-1.1c-0.3-0.2-0.5,0.2-0.8,0.2c0,0,0,0-0.1,0c-1,0.4-1,0.4-0.4,1.4
		C125.5,38.6,125.6,38.9,126,38.8z M124,30.6c0.2-0.7-0.2-0.9-0.9-0.9c-1.3-0.2-1.3-0.2-1.1,1.1c0.1,0.6,0.3,0.8,0.9,0.7
		c0.1,0,0.3,0,0.4,0C123.8,31.4,124.2,31.3,124,30.6z M129.6,50.3c0-0.1-0.1-0.1-0.1-0.2c-0.4-0.4-0.5-0.9-0.7-1.4
		c-0.2-0.4-0.4-0.7-0.7-0.9c-0.4-0.2-0.6,0-0.8,0.3c-0.2,0.3-0.1,0.4,0.1,0.6c0.4,0.3,0.6,0.8,0.7,1.2c0.1,0.3,0.2,0.5,0.4,0.8
		c0.1,0.1,0.3,0.3,0.4,0.2C129.3,50.7,129.5,50.5,129.6,50.3z M128.1,40.2c-0.3,0-0.5,0-0.8,0c-0.2,0-0.3,0.1-0.3,0.3
		c0.1,1,1.3,1.6,2.2,1.3c0.2-0.1,0.2-0.2,0.2-0.3C129.5,40.4,129.2,40.1,128.1,40.2z M126.5,29.5c-0.3,0-0.7,0.1-1.2,0.1
		c-0.7,0.1-0.8,0.2-0.8,0.9c0,0.4,0.1,0.5,0.5,0.4c0.6-0.2,1.2-0.4,1.8-0.4c0.4,0,0.5-0.2,0.5-0.6C127.3,29.4,126.9,29.5,126.5,29.5
		z M124.9,58.4c-0.3,0-0.5,0.1-0.8,0.1c-0.2,0.1-0.4,0.2-0.2,0.4c0.5,0.5,1,1.1,1.5,1.6c0.2,0.2,0.3,0.2,0.5,0
		c0.2-0.3,0.4-0.7,0.1-1c-0.2-0.3-0.5-0.6-0.7-0.9C125.2,58.5,125.1,58.4,124.9,58.4z M124.8,57c-0.1-0.3,0.2-0.7-0.3-0.8
		c-0.4-0.1-0.9-0.4-1.3-0.1c-0.3,0.2,0,0.7,0.1,1c0,0.1,0,0.2,0.1,0.2c0.2,0.8,0.3,0.8,1,0.6C124.9,57.8,124.8,57.4,124.8,57z
		 M123.5,29.1c0.4,0.1,0.6-0.1,0.7-0.5c0.1-0.5-0.1-0.6-0.5-0.7c-0.2-0.1-0.5-0.1-0.7-0.3c-0.5-0.3-0.7-0.2-0.8,0.3
		c-0.2,0.9-0.3,0.9,0.7,1.1C123,29.1,123.2,29.1,123.5,29.1z M124.1,27.5c0.3,0,0.7-0.3,0.8-0.4c0.1-0.3-0.2-0.4-0.3-0.5
		c-0.1-0.1-0.2-0.3-0.4-0.4c-0.8-0.8-1.1-0.7-1.5,0.4c-0.1,0.2-0.1,0.3,0.1,0.4C123.2,27.2,123.7,27.3,124.1,27.5z M128.9,22.3
		c0,0,0-0.1,0-0.1c-0.6-0.3-1.3-0.5-1.9-0.8c-0.3-0.1-0.4,0-0.6,0.2c-0.1,0.2-0.2,0.4-0.3,0.5c-0.2,0.3-0.1,0.4,0.2,0.4
		C127.3,22.5,128.1,22.4,128.9,22.3z M128.3,60.4c0,0.9,0,0.9,0.8,0.4c0.1,0,0.2-0.1,0.3-0.1c0.5-0.2,0.5-0.5,0.2-0.8
		c-0.2-0.3-0.5-0.7-0.9-0.5c-0.4,0.1-0.3,0.6-0.3,0.9C128.3,60.3,128.3,60.4,128.3,60.4z M123.4,53.5c-0.2,0.6-0.2,1-0.2,1.5
		c0,0.2,0.1,0.4,0.3,0.4c0.4,0,0.7,0.4,1.1,0.1c0.1-0.1,0.2-0.3,0.1-0.4C124.2,54.6,123.9,54.1,123.4,53.5z M128.6,42.3
		c-0.8,0-0.9,0.1-0.6,0.7c0.1,0.3,0.2,0.5,0.3,0.8c0.1,0.3,0.3,0.4,0.5,0c0.2-0.3,0.3-0.6,0.5-0.9c0.3-0.4,0.1-0.6-0.3-0.6
		C128.7,42.3,128.6,42.3,128.6,42.3z M127.8,60.6c0-0.4-0.1-0.5-0.5-0.6c-0.3,0-1,0.7-0.9,1c0.1,0.4,0.6,0.3,0.9,0.4
		C127.9,61.5,127.6,60.9,127.8,60.6z M127.4,27.7c-0.1-0.4-0.2-0.8-0.3-1.2c-0.1-0.3-0.2-0.4-0.5-0.1c-0.2,0.1-0.3,0.3-0.5,0.4
		c-0.1,0.1-0.2,0.3,0,0.4c0.3,0.3,0.6,0.6,0.9,0.9C127.3,28.2,127.4,28.1,127.4,27.7z M127.4,39.7c0,0,0.3,0,0.5,0
		c0.2-0.1,0.6,0.1,0.6-0.2c0.1-0.3-0.2-0.5-0.4-0.7c-0.1-0.2-0.3-0.2-0.5-0.1c-0.2,0.2-0.5,0.3-0.8,0.4c-0.2,0.1-0.5,0-0.5,0.3
		c0,0.3,0.4,0.2,0.6,0.3C127.1,39.7,127.2,39.7,127.4,39.7z"/>
	<path class="st0" d="M93.3,29.9c0.2-1.3,0.7-2.7,1.1-4.1c1.5-4.4,3.8-8.3,6.8-11.7c2.8-3.2,6.1-5.8,9.8-7.8c4-2.2,8.3-3.6,12.9-4.1
		c6.4-0.7,12.6,0.2,18.5,2.8c4,1.8,7.6,4.2,10.7,7.3c4.9,4.8,8.1,10.5,9.7,17.2c0,0.2,0.1,0.4,0.1,0.6c0,0.5-0.2,0.8-0.7,0.8
		c-0.4,0.1-0.8-0.1-0.9-0.5c-0.1-0.5-0.2-1-0.4-1.5c-1.6-6.2-4.8-11.5-9.4-15.9c-4.5-4.3-9.7-7.2-15.8-8.6
		C129.9,3,124,3.3,118.2,5.1c-5.2,1.6-9.7,4.3-13.6,8c-4.9,4.7-8.2,10.4-9.7,17c-0.1,0.6-0.5,0.9-1,0.8
		C93.5,30.8,93.3,30.6,93.3,29.9z"/>
	<path class="st0" d="M128.7,71.4c-6,0-11.1-1.2-16-3.5c-5-2.4-9.2-5.7-12.6-10.1c-3.1-3.9-5.2-8.4-6.5-13.2c0-0.1,0-0.2-0.1-0.3
		c-0.1-0.6,0.1-1,0.5-1.1c0.5-0.1,0.9,0.1,1.1,0.7c0.4,1.5,0.9,3,1.5,4.5c1.1,2.8,2.6,5.5,4.5,7.9c2,2.7,4.5,5,7.2,7
		c4.4,3.1,9.2,5.1,14.5,6c6.4,1,12.6,0.3,18.5-2.3c3.4-1.5,6.5-3.4,9.2-5.8c3.1-2.7,5.6-5.9,7.5-9.5c1.4-2.6,2.4-5.3,3.1-8.2
		c0.1-0.2,0.1-0.5,0.2-0.7c0.2-0.4,0.5-0.6,0.9-0.5c0.4,0.1,0.6,0.4,0.7,0.8c0,0.2,0,0.4-0.1,0.6C161,51.6,157,58,151,63.1
		c-3.3,2.8-6.9,4.8-10.9,6.3c-2.7,1-5.4,1.6-8.3,1.8C130.5,71.3,129.3,71.5,128.7,71.4z"/>
	<path class="st0" d="M128.5,92.7c0-1.2,0-2.4,0-3.6c0-0.5,0.2-0.6,0.7-0.6c1,0,2.1,0.1,3.1,0c3.3-0.2,4.6,2.7,4.4,5
		c-0.3,2.3-1.8,3.6-4.1,3.6c-0.8,0-1.6,0-2.3,0c-0.4,0-0.7,0-1.1,0c-0.4,0-0.6-0.2-0.6-0.6C128.6,95.2,128.5,93.9,128.5,92.7z
		 M129.6,92.7c0,0.8,0,1.6,0,2.5c0,0.6,0.1,0.8,0.8,0.8c0.8,0,1.6,0,2.5,0c0.3,0,0.5,0,0.8-0.1c1.7-0.6,2.6-2.9,1.7-4.6
		c-0.6-1.2-1.5-1.8-2.8-1.7c-0.8,0-1.5,0-2.3,0c-0.5,0-0.7,0.2-0.7,0.6C129.6,91,129.6,91.9,129.6,92.7z"/>
	<path class="st0" d="M170.3,94c0-0.8,0-1.6,0-2.4c0-0.5,0.2-0.6,0.6-0.6c1.1,0,2.3,0,3.4,0c1.4,0,2.2,0.9,2,2.2
		c-0.1,0.6-0.4,1.1-1,1.3c-0.4,0.1-0.4,0.3-0.2,0.6c0.4,0.5,0.7,1,1.1,1.5c0.2,0.3,0.1,0.4-0.2,0.5c-0.6,0-1,0-1.3-0.6
		c-0.3-0.5-0.6-0.9-0.9-1.3c-0.3-0.4-1.8-0.7-2.2-0.4c-0.2,0.1-0.2,0.3-0.2,0.5c0,0.5,0,0.9,0,1.4c0,0.4-0.2,0.5-0.6,0.5
		c-0.3,0-0.6-0.1-0.6-0.5C170.4,95.7,170.3,94.9,170.3,94C170.3,94,170.3,94,170.3,94z M173.2,92.2c-0.5,0-0.9,0-1.4,0
		c-0.4,0-0.4,0.3-0.4,0.6c0,0.3-0.1,0.7,0.4,0.7c0.9,0,1.8,0,2.7,0c0.4,0,0.6-0.3,0.6-0.7c0-0.4-0.3-0.6-0.6-0.6
		C174.1,92.2,173.7,92.2,173.2,92.2z"/>
	<path class="st0" d="M116,94c0-0.8,0-1.6,0-2.4c0-0.4,0.1-0.6,0.6-0.6c1.1,0,2.3,0,3.4,0c1.6,0.1,2.5,1.3,1.8,2.6
		c-0.2,0.3-0.4,0.6-0.7,0.7c-0.5,0.2-0.5,0.4-0.2,0.8c0.3,0.4,0.6,0.9,1,1.3c0.2,0.3,0.3,0.5-0.2,0.5c-0.6,0-1-0.1-1.3-0.6
		c-0.2-0.4-0.5-0.7-0.7-1.1c-0.3-0.6-0.7-0.7-1.3-0.7c-1.2,0.1-1.1-0.1-1.2,1.1c0,0.2,0,0.4,0,0.6c0,0.4-0.1,0.6-0.5,0.6
		c-0.4,0-0.6-0.2-0.6-0.6C116,95.6,116,94.8,116,94z M118.8,92.2c-0.4-0.1-0.9,0-1.3,0c-0.2,0-0.3,0-0.4,0.2c-0.3,0.6,0,1.1,0.7,1.1
		c0.3,0,0.6,0,0.9,0c0.5,0,1,0,1.5-0.1c0.4,0,0.6-0.3,0.5-0.7c0-0.4-0.3-0.5-0.6-0.5C119.7,92.2,119.3,92.2,118.8,92.2z"/>
	<path class="st0" d="M108.1,94c0-0.8,0-1.6,0-2.4c0-0.4,0.1-0.6,0.6-0.6c1.4,0,2.8,0,4.2,0c0.4,0,0.5,0.2,0.5,0.6
		c0,0.4-0.1,0.6-0.5,0.6c-1,0-2,0-2.9,0c-0.4,0-0.7,0.1-0.7,0.6c0,0.5,0.3,0.6,0.7,0.6c0.3,0,0.7,0,1,0c0.4,0,0.6,0.2,0.6,0.6
		c0,0.4-0.2,0.6-0.6,0.6c-0.3,0-0.6,0-0.9,0c-0.7,0-1,0.6-0.7,1.2c0.1,0.2,0.3,0.2,0.6,0.2c1,0,2.1,0,3.1,0c0.3,0,0.6,0,0.6,0.5
		c0,0.4-0.1,0.6-0.5,0.6c-1.4,0-2.9,0-4.3,0c-0.4,0-0.6-0.2-0.6-0.6C108.1,95.6,108.1,94.8,108.1,94z"/>
	<path class="st0" d="M92,97c-0.7,0-1.4,0-2.1,0c-0.4,0-0.6-0.1-0.6-0.6c0-1.6,0-3.2,0-4.9c0-0.4,0.2-0.6,0.6-0.6c1.4,0,2.8,0,4.2,0
		c0.4,0,0.6,0.1,0.6,0.5c0,0.4-0.2,0.7-0.6,0.6c-1,0-2,0-3,0c-0.4,0-0.6,0.1-0.6,0.6c0,0.5,0.2,0.6,0.6,0.6c0.4,0,0.8,0,1.2,0
		c0.4,0,0.5,0.3,0.5,0.6c0,0.3-0.1,0.6-0.5,0.6c-0.4,0-0.9,0-1.3,0c-0.6,0-0.6,0.3-0.6,0.7c0,0.4,0,0.7,0.6,0.7c1,0,2.1,0,3.1,0
		c0.4,0,0.7,0.1,0.7,0.6c0,0.5-0.3,0.6-0.7,0.5C93.4,97,92.7,97,92,97z"/>
	<path class="st0" d="M139,94c0-0.8,0-1.6,0-2.3c0-0.5,0.2-0.7,0.7-0.7c1.3,0,2.7,0,4,0c0.4,0,0.6,0.2,0.6,0.6
		c0,0.5-0.2,0.5-0.6,0.5c-1,0-2,0-2.9,0c-0.5,0-0.7,0.2-0.7,0.7c0,0.5,0.3,0.6,0.7,0.6c0.4,0,0.7,0,1.1,0c0.5,0,0.6,0.2,0.6,0.6
		c0,0.4-0.2,0.5-0.5,0.5c-0.3,0-0.7,0-1.1,0c-0.7,0-0.8,0-0.7,0.8c0,0.7,0,0.7,0.8,0.7c1,0,1.9,0,2.9,0c0.4,0,0.7,0,0.7,0.5
		c0,0.5-0.3,0.5-0.7,0.5c-1.3,0-2.7,0-4,0c-0.6,0-0.8-0.2-0.7-0.8C139,95.5,139,94.8,139,94C139,94,139,94,139,94z"/>
	<path class="st0" d="M84.3,91c0.8,0,1.5,0,2.3,0c0.4,0,0.6,0.2,0.6,0.6c0,0.4-0.1,0.6-0.5,0.6c-0.4,0-0.7,0-1.1,0
		c-0.5,0-0.7,0.2-0.7,0.6c0,1.2,0,2.3,0,3.5c0,0.4-0.1,0.7-0.6,0.7c-0.5,0-0.6-0.3-0.6-0.7c0-1.2,0-2.3,0-3.5c0-0.5-0.2-0.7-0.7-0.6
		c-0.3,0-0.7,0-1,0c-0.4,0-0.6,0-0.6-0.5c0-0.5,0.1-0.7,0.6-0.7C82.8,91,83.5,91,84.3,91C84.3,91,84.3,91,84.3,91z"/>
	<path class="st0" d="M97.1,94c0-0.8,0-1.6,0-2.5c0-0.4,0.2-0.6,0.6-0.6c0.4,0,0.6,0.2,0.6,0.6c0,1.2,0,2.4,0,3.6
		c0,0.6,0.2,0.8,0.8,0.7c0.8,0,1.5,0,2.3,0c0.4,0,0.6,0.2,0.6,0.6c0,0.4-0.2,0.5-0.6,0.5c-1.2,0-2.4,0-3.6,0c-0.4,0-0.6-0.2-0.6-0.6
		C97.1,95.6,97.1,94.8,97.1,94z"/>
	<path class="st0" d="M119.3,25.8c-3-0.2-5.9-0.5-8.8-0.7c-1.1-0.1-2.3-0.2-3.4-0.3c-0.1,0-0.4,0.1-0.4-0.2c0-0.2,0.2-0.3,0.3-0.3
		c0.2,0,0.4-0.1,0.6-0.1c2.3,0.2,4.7,0.3,7,0.5c1.6,0.1,3.2,0.3,4.8,0.4c0.1,0,0.2,0,0.3,0.1c0.1,0,0.2,0.1,0.2,0.2
		c0,0.2-0.1,0.2-0.3,0.2C119.6,25.8,119.4,25.8,119.3,25.8z"/>
	<path class="st0" d="M149.8,24.7c-1,0.3-1.9,0.2-2.9,0.3c-3.1,0.3-6.3,0.5-9.4,0.7c-0.2,0-0.4,0-0.5,0c-0.2,0-0.4,0-0.5-0.2
		c0-0.3,0.2-0.3,0.4-0.3c0.8-0.1,1.6-0.2,2.3-0.2c3-0.2,6-0.5,9-0.7C148.7,24.3,149.3,24.1,149.8,24.7z"/>
	<path class="st0" d="M105,94c0,0.8,0,1.6,0,2.5c0,0.4-0.2,0.5-0.6,0.5c-0.4,0-0.6-0.1-0.6-0.6c0-1.6,0-3.2,0-4.9
		c0-0.5,0.2-0.6,0.6-0.6c0.5,0,0.6,0.2,0.6,0.6C105,92.4,105,93.2,105,94z"/>
	<path class="st0" d="M112.6,20.4c0.1,0,0.2,0.1,0.4,0.1c2.3,0.7,4.7,1.5,7,2.2c0.2,0.1,0.5,0.1,0.4,0.4c-0.1,0.3-0.3,0.2-0.5,0.1
		c-2.4-0.8-4.9-1.5-7.3-2.3c-0.2,0-0.4-0.1-0.4-0.3C112.2,20.5,112.4,20.4,112.6,20.4z"/>
	<path class="st0" d="M128.5,13.7c0,1.4,0,2.8,0,4.2c0,0.2,0.1,0.5-0.2,0.6c-0.3,0-0.3-0.3-0.3-0.5c0-2.4,0-4.9,0-7.3
		c0-0.4,0-0.9,0-1.3c0-0.2,0-0.5,0.2-0.5c0.3,0,0.2,0.3,0.2,0.5C128.5,10.8,128.5,12.3,128.5,13.7C128.5,13.7,128.5,13.7,128.5,13.7
		z"/>
	<path class="st0" d="M143.9,20.4c0.2,0,0.5,0.1,0.5,0.3c0,0.2-0.2,0.2-0.4,0.3c-2.4,0.8-4.8,1.6-7.2,2.3c-0.2,0.1-0.5,0.2-0.6-0.1
		c-0.1-0.3,0.2-0.4,0.4-0.4c2.3-0.8,4.7-1.5,7-2.3C143.7,20.5,143.8,20.5,143.9,20.4z"/>
	<path class="st0" d="M124.7,11.6c0-0.2,0-0.4,0.2-0.4c0.3-0.1,0.2,0.2,0.3,0.3c0.5,2.1,1,4.2,1.6,6.4c0,0.2,0.1,0.4-0.1,0.5
		c-0.3,0.1-0.3-0.1-0.4-0.3c-0.5-2.1-1-4.2-1.5-6.3C124.7,11.7,124.7,11.7,124.7,11.6z"/>
	<path class="st0" d="M121.3,21.5c-0.1,0.3-0.3,0.3-0.5,0.2c-0.8-0.5-1.7-1-2.5-1.5c-0.9-0.5-1.7-1-2.6-1.6
		c-0.2-0.1-0.5-0.1-0.3-0.4c0.1-0.2,0.4-0.2,0.6-0.1c1,0.6,2,1.2,3,1.8c0.7,0.4,1.3,0.8,2,1.2C121.1,21.2,121.3,21.3,121.3,21.5z"/>
	<path class="st0" d="M122.9,20.6c-0.1,0.2-0.2,0.3-0.4,0.2c-0.2-0.1-0.3-0.3-0.5-0.4c-1.2-1.2-2.5-2.5-3.7-3.7
		c-0.1-0.1-0.4-0.3-0.2-0.5c0.2-0.2,0.4-0.1,0.6,0.1c1.3,1.3,2.6,2.6,3.9,3.9C122.7,20.3,122.8,20.4,122.9,20.6z"/>
	<path class="st0" d="M135.5,21.8c-0.3,0-0.4-0.2-0.2-0.4c0.1-0.1,0.2-0.2,0.3-0.3c1.6-0.9,3.2-1.9,4.8-2.8c0.1,0,0.1-0.1,0.2-0.1
		c0.2-0.1,0.4-0.1,0.6,0.1c0.1,0.2-0.1,0.3-0.3,0.4c-1.1,0.6-2.1,1.2-3.2,1.8c-0.6,0.3-1.2,0.7-1.8,1
		C135.8,21.6,135.6,21.7,135.5,21.8z"/>
	<path class="st0" d="M122.6,12.9c0.2,0,0.2,0.2,0.3,0.3c0.8,1.8,1.6,3.6,2.3,5.4c0.1,0.2,0.2,0.4-0.1,0.6c-0.2,0.1-0.3,0-0.4-0.2
		c-0.8-1.8-1.6-3.6-2.4-5.4C122.3,13.2,122.3,13,122.6,12.9z"/>
	<path class="st0" d="M120.3,14.6c0.2,0,0.3,0.1,0.4,0.3c1,1.4,2,2.9,2.9,4.3c0.1,0.2,0.4,0.4,0.1,0.6c-0.3,0.2-0.4-0.1-0.5-0.3
		c-1-1.4-2-2.9-3-4.3C120.1,14.9,120,14.7,120.3,14.6z"/>
	<path class="st0" d="M131.7,11.6c-0.1,0.3-0.2,0.7-0.3,1c-0.4,1.6-0.8,3.1-1.2,4.7c0,0.2-0.1,0.3-0.1,0.5c-0.1,0.2,0,0.6-0.4,0.5
		c-0.3-0.1-0.2-0.4-0.1-0.6c0.1-0.5,0.2-1,0.4-1.5c0.4-1.6,0.8-3.1,1.2-4.7c0-0.2,0.1-0.4,0.3-0.4C131.7,11.3,131.7,11.4,131.7,11.6
		z"/>
	<path class="st0" d="M134.1,13.3c-0.1,0.3-0.2,0.6-0.4,0.9c-0.5,1.3-1.1,2.6-1.6,3.9c-0.1,0.2-0.2,0.3-0.2,0.5
		c-0.1,0.1-0.1,0.3-0.3,0.2c-0.2-0.1-0.2-0.3-0.1-0.4c0.2-0.5,0.4-1.1,0.6-1.6c0.5-1.2,1-2.3,1.5-3.5c0.1-0.1,0.1-0.3,0.3-0.3
		C134,13,134.1,13.1,134.1,13.3z"/>
	<path class="st0" d="M134.6,20.3c-0.1,0-0.2-0.1-0.2-0.2c-0.1-0.2,0-0.3,0.1-0.4c0.3-0.4,0.7-0.7,1-1.1c0.7-0.8,1.5-1.6,2.2-2.3
		c0.2-0.2,0.3-0.4,0.5-0.1c0.2,0.2,0,0.4-0.1,0.5c-1.1,1.1-2.2,2.3-3.2,3.4C134.8,20.2,134.8,20.3,134.6,20.3z"/>
	<path class="st0" d="M133.4,19.6c-0.3-0.1-0.3-0.3-0.1-0.6c0.6-1,1.2-2,1.9-3c0.2-0.4,0.5-0.8,0.7-1.1c0.1-0.1,0.2-0.3,0.4-0.2
		c0.3,0.1,0.1,0.3,0,0.5c-0.6,0.9-1.1,1.8-1.7,2.7c-0.3,0.5-0.6,1-0.9,1.4C133.7,19.5,133.6,19.6,133.4,19.6z"/>
</g>
</svg>
