<?xml version="1.0" encoding="UTF-8"?>
<svg id="Capa_1" xmlns="http://www.w3.org/2000/svg" version="1.1" viewBox="0 0 250 100">
  <!-- Generator: Adobe Illustrator 29.4.0, SVG Export Plug-In . SVG Version: 2.1.0 Build 152)  -->
  <defs>
    <style>
      .st0 {
        fill: #777;
      }
    </style>
  </defs>
  <polygon class="st0" points="35.1 60.9 30.3 60.9 30.3 57.9 29.4 57.9 29.4 65.9 30.3 65.9 30.3 61.8 35.1 61.8 35.1 65.9 36 65.9 36 57.9 35.1 57.9 35.1 60.9" shape-rendering="geometricPrecision"/>
  <path class="st0" d="M53,62.8c0,.3,0,.6-.2.8-.2.3-.3.5-.5.7-.3.2-.5.3-.8.5-.6.3-1.3.3-2,0-.3,0-.6-.3-.8-.5-.3-.2-.4-.4-.5-.7-.2-.3-.2-.6-.2-.8v-4.9h-.9v4.9c0,.4,0,.8.3,1.2s.4.7.8,1c.3.3.7.5,1.1.7s.8.3,1.3.3.9,0,1.3-.3.8-.4,1.1-.7c.3-.3.6-.6.8-1,.2-.3.3-.8.3-1.2v-4.9h-.9v4.9Z" shape-rendering="geometricPrecision"/>
  <polygon class="st0" points="55.6 58.8 58.8 58.8 58.8 65.9 59.8 65.9 59.8 58.8 62.9 58.8 62.9 57.9 55.6 57.9 55.6 58.8" shape-rendering="geometricPrecision"/>
  <polygon class="st0" points="65.8 61.7 68.6 61.7 68.6 60.8 65.8 60.8 65.8 58.8 69.8 58.8 69.8 57.9 64.9 57.9 64.9 65.9 70.1 65.9 70.1 65 65.8 65 65.8 61.7" shape-rendering="geometricPrecision"/>
  <path class="st0" d="M81.2,58.7c-.3-.3-.5-.4-.8-.5-.3-.2-.7-.2-1-.2h-2.3v8h.9v-3h1.5c.3,0,.7,0,1-.2.3-.2.6-.3.8-.5.3-.3.4-.5.6-.8.2-.3.2-.7.2-1s0-.7-.2-1c-.3-.4-.4-.7-.7-.8ZM79.4,62h-1.5v-3.3h1.5c.3,0,.4,0,.7.2.2,0,.4.2.5.3.2.2.3.3.3.5,0,.2.2.4.2.7s0,.4-.2.6-.3.3-.3.5c-.2.2-.3.3-.5.3-.3.2-.5.2-.7.2Z" shape-rendering="geometricPrecision"/>
  <path class="st0" d="M95.7,62.6c.4-.2.8-.5,1-.8.3-.4.4-.9.4-1.4s0-.7-.2-.9c-.2-.3-.3-.6-.6-.8-.3-.3-.5-.4-.8-.6s-.7-.3-1-.3h-2.4v8h.9v-3h1.8l2.4,3h1.2l-2.2-2.7c-.2,0-.3-.3-.5-.5ZM93,58.8h1.6c.3,0,.5,0,.7.2s.4.2.6.3.3.3.3.5c0,.2.2.4.2.7s0,.4-.2.6-.3.3-.3.5c-.2.2-.3.3-.6.3-.2,0-.4.2-.7.2h-1.6v-3.3Z" shape-rendering="geometricPrecision"/>
  <polygon class="st0" points="100.2 65.9 101.2 65.9 101.2 61.7 104.2 61.7 104.2 60.9 101.2 60.9 101.2 58.8 105.1 58.8 105.1 57.9 100.2 57.9 100.2 65.9" shape-rendering="geometricPrecision"/>
  <path class="st0" d="M112.6,62.9c0,.3,0,.6-.2.8-.2.3-.3.5-.5.8-.3.2-.5.3-.8.5-.6.3-1.3.3-2,0-.3,0-.6-.3-.8-.5-.3-.2-.4-.4-.5-.8-.2-.3-.2-.6-.2-.8v-4.9h-.9v4.9c0,.4,0,.8.3,1.3.2.4.4.7.8,1,.3.3.7.5,1.1.7s.8.3,1.3.3.9,0,1.3-.3.8-.4,1.1-.7.6-.6.8-1c.2-.4.3-.8.3-1.3v-4.9h-.9v4.9h0Z" shape-rendering="geometricPrecision"/>
  <polygon class="st0" points="116.2 57.9 116.2 65.9 117.1 65.9 117.1 60.2 119.8 63.3 122.6 60.2 122.6 65.9 123.5 65.9 123.5 57.9 119.8 62 116.2 57.9" shape-rendering="geometricPrecision"/>
  <polygon class="st0" points="127.1 61.7 129.9 61.7 129.9 60.8 127.1 60.8 127.1 58.8 131.2 58.8 131.2 57.9 126.3 57.9 126.3 65.9 131.5 65.9 131.5 65 127.1 65 127.1 61.7" shape-rendering="geometricPrecision"/>
  <path class="st0" d="M137,62.6c.4-.2.8-.5,1-.8.3-.4.4-.9.4-1.4s0-.7-.2-.9c-.2-.3-.3-.6-.6-.8-.3-.3-.5-.4-.8-.6s-.7-.3-1-.3h-2.4v8h.9v-3h1.8l2.4,3h1.2l-2.2-2.7c-.2,0-.3-.3-.5-.5ZM134.3,58.8h1.6c.3,0,.5,0,.7.2.2,0,.4.2.6.3s.3.3.3.5c0,.2.2.4.2.7s0,.4-.2.6c0,.2-.3.3-.3.5-.2.2-.3.3-.6.3-.2,0-.4.2-.7.2h-1.6v-3.3Z" shape-rendering="geometricPrecision"/>
  <rect class="st0" x="141.5" y="57.9" width=".9" height="8" shape-rendering="geometricPrecision"/>
  <polygon class="st0" points="146.2 61.7 149 61.7 149 60.8 146.2 60.8 146.2 58.8 150.3 58.8 150.3 57.9 145.3 57.9 145.3 65.9 150.6 65.9 150.6 65 146.2 65 146.2 61.7" shape-rendering="geometricPrecision"/>
  <polygon class="st0" points="157.5 65.9 158.4 65.9 158.4 61.7 161.5 61.7 161.5 60.9 158.4 60.9 158.4 58.8 162.3 58.8 162.3 57.9 157.5 57.9 157.5 65.9" shape-rendering="geometricPrecision"/>
  <path class="st0" d="M168,62.6c.4-.2.8-.5,1-.8.3-.4.4-.9.4-1.4s0-.7-.2-.9c-.2-.3-.3-.6-.6-.8-.3-.3-.5-.4-.8-.6s-.7-.3-1-.3h-2.4v8h.9v-3h1.8l2.4,3h1.2l-2.2-2.7c-.2,0-.3-.3-.5-.5ZM165.3,58.8h1.6c.3,0,.5,0,.7.2.2,0,.4.2.6.3s.3.3.3.5c0,.2.2.4.2.7s0,.4-.2.6c0,.2-.3.3-.3.5-.2.2-.3.3-.6.3-.2,0-.4.2-.7.2h-1.6v-3.3Z" shape-rendering="geometricPrecision"/>
  <path class="st0" d="M187.2,57.9h-.9v5.9l-5.5-5.8v8h.9v-5.9l5.5,5.8v-8Z" shape-rendering="geometricPrecision"/>
  <path class="st0" d="M196.2,64.4c-.3.3-.7.4-1,.5-.7.2-1.3.2-1.9,0-.3,0-.6-.2-.8-.3-.5-.3-.9-.7-1.3-1.2-.3-.5-.4-1-.4-1.5s0-.6,0-.8.2-.5.4-.8c.3-.5.8-.8,1.3-1.1.8-.4,1.6-.5,2.6-.3.3,0,.7.3,1,.4h.2c0,0,.5-.6.5-.6h-.2c-.4-.3-.8-.5-1.2-.6-.8-.3-1.5-.3-2.3,0-.3,0-.7.3-1,.3-.3.2-.6.3-.9.6-.3.3-.5.5-.8.8-.3.3-.3.7-.5,1,0,.3-.2.7-.2,1.1s0,.7.2,1c0,.3.3.7.4.9s.4.6.7.8.6.5.8.7c.3.2.7.3,1.1.4v.9h-.8c0,.2,0,.3,0,.6,0,0,0,.3.3.5.2.2.3.2.5.3,0,0,.3,0,.3,0,.3,0,.6,0,.8-.3.3-.3.3-.5.3-.8s0-.5-.3-.7c0-.2-.3-.3-.5-.3h.3c.4,0,.8,0,1.3-.2.4-.2.8-.3,1.3-.6h.2c0,0-.5-.8-.5-.8v-.3ZM193.4,67.5h.2-.2ZM193,66.6c.2,0,.3,0,.4,0,.3,0,.4.6.3.7s-.6,0-.8-.3c0-.2,0-.3,0-.3Z" shape-rendering="geometricPrecision"/>
  <rect class="st0" x="206.9" y="57.9" width=".9" height="8" shape-rendering="geometricPrecision"/>
  <path class="st0" d="M215.2,61.9c-.3-.2-.6-.3-.9-.3-.3,0-.6,0-.9,0s-.5,0-.8,0c-.3,0-.4,0-.7-.3-.2,0-.3-.3-.4-.4s-.2-.3-.2-.5c0-.3,0-.4.2-.6.2-.2.3-.3.5-.4.3,0,.5-.2.8-.3.4,0,.9,0,1.3,0s.3,0,.4,0c.2,0,.3,0,.5,0s.3,0,.5.2h.2c0,0,.3-.7.3-.7h-.2c-.2-.2-.3-.2-.5-.3-.2,0-.3,0-.5,0s-.3,0-.5,0c-.5,0-.8,0-1.2,0s-.3,0-.4,0c-.7,0-1.3.3-1.7.8s-.7.8-.7,1.3,0,.8.3,1c0,0,0,0,.2.2.2.3.5.4.6.5.3.2.6.3.9.3.3,0,.6,0,.8,0s.3,0,.5,0c.2,0,.3,0,.5,0,.2,0,.3,0,.4.2.2,0,.3.2.3.3,0,0,0,.2.2.3,0,0,0,.3,0,.3,0,.3,0,.4-.2.7,0,.2-.3.3-.4.4-.2.2-.4.3-.7.3-.3,0-.5,0-.8,0h-.9c-.2,0-.3,0-.4,0-.2,0-.3,0-.4,0-.2,0-.3,0-.3,0h-.4c0,0-.3.7-.3.7h.2c.2.2.4.2.6.3.3,0,.4,0,.7.2.3,0,.4,0,.7,0h.6c.4,0,.8,0,1.2-.2.4,0,.8-.3,1-.4s.5-.4.7-.8c.2-.3.3-.6.3-1s0-.7-.3-1c-.2-.5-.4-.8-.7-.9Z" shape-rendering="geometricPrecision"/>
  <polygon class="st0" points="219.6 61.7 222.3 61.7 222.3 60.8 219.6 60.8 219.6 58.8 223.7 58.8 223.7 57.9 218.7 57.9 218.7 65.9 223.9 65.9 223.9 65 219.6 65 219.6 61.7" shape-rendering="geometricPrecision"/>
  <path class="st0" d="M32.5,48.6c0,0,0,.2.2.3h1.8c-2.5-5.5-5.1-11.1-7.6-16.5l-.3-.5-7.5,16.4c0,.3-.3.4-.3.7h1.9c.3-.6.6-1.2.8-1.8s.5-1.1.8-1.6l1.4-3h6l2.8,6ZM28.9,41.3h-4.6l2.3-5.5.9,2.2c.2.4.3.8.5,1.3.2.4.3.8.6,1.3s.2.3.3.6c0,0,0,0,0,.2Z" shape-rendering="geometricPrecision"/>
  <polygon class="st0" points="43.7 49 45.4 49 45.4 33.4 52.4 33.4 52.4 31.8 36.6 31.8 36.6 33.4 43.7 33.4 43.7 49" shape-rendering="geometricPrecision"/>
  <polygon class="st0" points="67.8 47.3 58.2 47.3 58.2 39.7 64.3 39.7 64.3 38.1 58.2 38.1 58.2 33.4 67.1 33.4 67.1 31.8 56.6 31.8 56.6 49 67.8 49 67.8 47.3" shape-rendering="geometricPrecision"/>
  <polygon class="st0" points="83.5 47.3 73.3 47.3 73.3 31.8 71.6 31.8 71.6 49 83.5 49 83.5 47.3" shape-rendering="geometricPrecision"/>
  <rect class="st0" x="87.2" y="31.8" width="1.8" height="17.2" shape-rendering="geometricPrecision"/>
  <polygon class="st0" points="97 39.7 103.1 39.7 103.1 38.1 97 38.1 97 33.4 105.9 33.4 105.9 31.8 95.3 31.8 95.3 49 106.5 49 106.5 47.3 97 47.3 97 39.7" shape-rendering="geometricPrecision"/>
  <path class="st0" d="M123.5,48.5c-.4-.5-.9-1.1-1.3-1.7l-2.8-3.5c-.4-.5-.8-.9-1.1-1.3.9-.4,1.8-1,2.3-1.8.7-.9.9-1.9.9-3s-.2-1.3-.4-2c-.3-.7-.7-1.2-1.2-1.7s-1.1-.8-1.8-1.2c-.7-.3-1.4-.4-2.2-.4h-5.2v17.2h1.8v-6.5h4l5.1,6.3h0c0,0,1.7,0,1.7,0h.5l-.3-.4ZM112.4,33.4h3.5c.6,0,1.1,0,1.5.3.5.2.8.5,1.3.8.3.3.6.8.8,1.2.2.4.3.9.3,1.4s0,1-.3,1.4c-.2.4-.5.8-.8,1.2-.3.3-.8.6-1.3.8-.4.2-1,.3-1.5.3h-3.5v-7.4Z" shape-rendering="geometricPrecision"/>
  <polygon class="st0" points="183.9 49 185.6 49 185.6 33.4 192.6 33.4 192.6 31.8 176.9 31.8 176.9 33.4 183.9 33.4 183.9 49" shape-rendering="geometricPrecision"/>
  <polygon class="st0" points="198.5 39.7 204.5 39.7 204.5 38.1 198.5 38.1 198.5 33.4 207.4 33.4 207.4 31.8 196.8 31.8 196.8 49 208 49 208 47.3 198.5 47.3 198.5 39.7" shape-rendering="geometricPrecision"/>
  <path class="st0" d="M225,48.5c-.4-.5-.9-1.1-1.3-1.7l-2.8-3.5c-.4-.5-.8-.9-1.1-1.3.9-.4,1.8-1,2.3-1.8.7-.9.9-1.9.9-3s-.2-1.3-.4-2c-.3-.7-.7-1.2-1.2-1.7-.5-.5-1.1-.8-1.8-1.2s-1.4-.4-2.2-.4h-5.3v17.2h1.8v-6.5h4l5.2,6.4h0c0,0,1.7,0,1.7,0h.5l-.3-.5ZM213.9,33.4h3.5c.6,0,1.1,0,1.5.3.5.2.8.5,1.3.8.3.3.6.8.8,1.2.2.4.3.9.3,1.4s0,1-.3,1.4c-.2.4-.5.8-.8,1.2-.3.3-.8.6-1.3.8-.4.2-1,.3-1.5.3h-3.5v-7.4Z" shape-rendering="geometricPrecision"/>
  <rect class="st0" x="229.3" y="31.8" width="1.8" height="17.2" shape-rendering="geometricPrecision"/>
  <path class="st0" d="M147,46.3c-.6-.9-1.1-1.9-1.7-2.8-1.3-2.3-2.6-4.6-3.9-7-.7-1.2-1.3-2.3-1.9-3.4,0,0-.2-.3-.3-.4-.2-.3-.3-.5-.3-.7v1.3h0v15.8h2v-10.3c2,3.4,4,6.8,6,10.1,2-3.4,4.1-6.8,6.1-10.2l.2,10.1v.3h1.8v-17.2c-2.6,4.9-5.3,9.6-8,14.5Z" shape-rendering="geometricPrecision"/>
  <path class="st0" d="M172.8,48.5c0,0,0,.2.2.3h1.8c-2.5-5.4-5.1-11-7.6-16.4l-.3-.5-7.5,16.3c0,.3-.3.4-.3.7h1.9c.3-.6.6-1.2.8-1.8s.5-1.1.8-1.6l1.4-3h6l2.8,6ZM169.1,41.2h-4.5l2.3-5.4.9,2.2c.2.4.3.8.5,1.3.2.4.3.8.6,1.3,0,.2.2.3.3.5q0,.2,0,.3Z" shape-rendering="geometricPrecision"/>
  <path class="st0" d="M41.6,57.9l-3.8,7.6c0,0,0,.2-.2.3h1c.2-.3.3-.6.4-.8s.3-.5.3-.8l.7-1.4h2.9l1.5,2.8c0,0,0,0,0,.2h.9c-1.3-2.5-2.5-5.1-3.8-7.6l-.2-.3ZM42.7,62.3h-2.3l1.2-2.5.4,1c0,.2.2.4.3.6,0,.2.2.4.3.6,0,.2,0,.3.2.3h0Z" shape-rendering="geometricPrecision"/>
  <path class="st0" d="M86.7,57.9l-3.8,7.6c0,0,0,.2-.2.3h1c.2-.3.3-.6.4-.8s.3-.5.3-.8l.7-1.4h2.9l1.5,2.8c0,0,0,0,0,.2h.9c-1.3-2.6-2.5-5.1-3.8-7.7l-.2-.3ZM87.7,62.4h-2.3l1.2-2.5.4,1c0,.2.2.4.3.6,0,.2.2.4.3.6,0,0,.2.2.2.3q0,0,0,0Z" shape-rendering="geometricPrecision"/>
  <path class="st0" d="M175.3,57.9l-3.8,7.6c0,0,0,.2-.2.3h1c.2-.3.3-.6.4-.8s.3-.5.3-.8l.7-1.4h2.9l1.5,2.8c0,0,0,0,0,.2h.9c-1.3-2.5-2.5-5.1-3.8-7.6l-.2-.3ZM176.4,62.3h-2.3l1.2-2.5.4,1c0,.2.2.4.3.6s.2.4.3.6c0,.2,0,.3.2.3h0Z" shape-rendering="geometricPrecision"/>
  <path class="st0" d="M201.5,57.9l-3.8,7.6c0,0,0,.2-.2.3h1c.2-.3.3-.6.4-.8s.3-.5.3-.8l.7-1.4h2.9l1.5,2.8c0,0,0,0,0,.2h.9c-1.3-2.5-2.5-5.1-3.8-7.6l-.2-.3ZM202.7,62.4h-2.3l1.2-2.5.4,1c0,.2.2.4.3.6s.2.4.3.6c0,0,0,.2.2.3,0,0,0,0,0,0Z" shape-rendering="geometricPrecision"/>
</svg>