<?xml version="1.0" encoding="utf-8"?>
<!-- Generator: $$$/GeneralStr/196=Adobe Illustrator 27.6.0, SVG Export Plug-In . SVG Version: 6.00 Build 0)  -->
<svg version="1.1" id="Capa_1" xmlns="http://www.w3.org/2000/svg" xmlns:xlink="http://www.w3.org/1999/xlink" x="0px" y="0px"
	 viewBox="0 0 250 100" style="enable-background:new 0 0 250 100;" xml:space="preserve">
<style type="text/css">
	.st0{fill:#777777;}
</style>
<g>
	<path class="st0" d="M71.6,42.8C71.6,42.8,71.6,42.8,71.6,42.8c3.7,0,7.4,0,11,0c1,0,1.4-0.5,1.2-1.4c-0.2-0.8-0.9-0.6-1.4-0.5
		c-5.1,0.3-10.2,0.3-15.3,0.2c-0.4,0-0.8,0.1-1-0.3c-0.2-0.4,0.2-0.7,0.4-1c5-6.1,9.9-12.4,15.5-18c0.5-0.5,1.2-1.1,0.8-1.8
		c-0.3-0.6-1.2-0.4-1.8-0.4c-5.7,0-11.3,0-17,0c-0.8,0-1.7,0-2.5,0c-0.6,0-0.9,0.3-0.9,0.9c0,0.6,0.3,0.9,0.9,0.9c0.5,0,1,0,1.6,0
		c4,0,8.1-0.7,12.1-0.1c0.4,0.1,1-0.1,1.1,0.4c0.1,0.5-0.2,0.9-0.5,1.2c-1.5,1.7-2.9,3.5-4.3,5.2c-3.5,4.5-7.5,8.6-11.2,13
		c-0.3,0.4-0.8,0.8-0.7,1.3c0.2,0.6,0.9,0.5,1.4,0.5C64.4,42.8,68,42.8,71.6,42.8z"/>
	<path class="st0" d="M107.8,42.8c3.5,0,7,0,10.5,0c0.7,0,1.7,0.5,1.8-0.9c0-1.4-1.1-0.9-1.7-0.9c-4.9,0.3-9.7,0.2-14.6,0.1
		c-0.5,0-1.2,0.3-1.4-0.3c-0.2-0.5,0.4-0.9,0.7-1.3c3.2-4.1,6.5-8.1,9.9-11.9c1.9-2.1,3.8-4.2,5.7-6.4c0.3-0.3,0.6-0.7,0.4-1.1
		c-0.2-0.4-0.7-0.5-1.1-0.5c-0.3,0-0.7,0-1,0c-6.2,0-12.3,0-18.5,0c-0.3,0-0.7,0-1,0.1c-0.5,0.1-0.7,0.4-0.7,0.9
		c0,0.5,0.3,0.8,0.8,0.8c0.7,0,1.4,0,2.1,0c4-0.1,8-0.7,12,0c0.4,0.1,0.8-0.1,1,0.4c0.1,0.4-0.2,0.7-0.4,1c-2.7,3.3-5.4,6.6-8.2,9.8
		c-2.6,3-5.1,6-7.9,8.8c-0.3,0.3-0.6,0.7-0.4,1.1c0.2,0.5,0.7,0.4,1.1,0.4C100.4,42.8,104.1,42.8,107.8,42.8z"/>
	<path class="st0" d="M154.2,67.4c0.9,1.9,1.8,3.9,2.8,5.8c1.1,2.2,2,4.4,3.2,6.5c0.7,1.2,1.1,0.7,1.5-0.1c1.8-3.7,3.5-7.4,5.3-11.1
		c0.2-0.3,0.1-0.8,0.6-0.8c0.5,0,0.5,0.5,0.6,0.8c0.1,0.4,0.1,0.7,0.1,1.1c0.4,3.3,0.3,6.6,1.1,9.8c0.1,0.4,0,1,0.6,1
		c0.7,0,0.4-0.7,0.4-1.1c0.1-1.6-0.3-3.2-0.5-4.7c-0.3-3.3-0.7-6.6-1.2-9.9c0-0.3,0.1-0.6-0.3-0.7c-0.4-0.1-0.5,0.2-0.7,0.6
		c-0.5,1.1-1.1,2.3-1.6,3.4c-1.6,3.3-3,6.7-4.7,10c-0.5,1-0.7,0.4-1,0c-0.9-1.8-1.7-3.6-2.5-5.4c-1.2-2.5-2.5-5-3.6-7.6
		c-0.1-0.3-0.4-0.8-0.8-0.7c-0.5,0-0.5,0.6-0.5,0.9c0,2-0.8,3.8-0.8,5.8c0,2.3-0.3,4.6-0.7,6.9c-0.1,0.7-0.1,1.4-0.1,2.1
		c0,0.3,0,0.6,0.4,0.6c0.3,0,0.4-0.2,0.5-0.4c0.1-0.5,0.3-0.9,0.4-1.4c0.2-2.3,0.5-4.6,0.7-6.9C153.4,70.3,154,68.9,154.2,67.4z"/>
	<path class="st0" d="M143.2,70.2C143.2,70.2,143.2,70.2,143.2,70.2c0-0.6,0-1.2,0-1.8c0-1.4,0-2.8,0-4.2c0-0.4,0.1-1-0.6-0.9
		c-0.6,0-0.6,0.5-0.6,1c0,0.2,0,0.5,0,0.7c0,3.5,0,7.1,0,10.6c0,1.5-0.6,2.8-1.8,3.6c-1.9,1.1-4,1.2-5.9,0.1c-1.5-0.9-2-2.5-2-4.3
		c0-3.5,0-7,0-10.5c0-0.4,0.2-1.1-0.5-1.1c-0.7,0-0.5,0.7-0.5,1.1c0,3.8,0,7.5,0,11.3c0,2.4,1.7,4.6,4.4,5.2
		c3.2,0.7,7.8-1.1,7.5-5.7C143.1,73.5,143.2,71.8,143.2,70.2z"/>
	<path class="st0" d="M183,62.7c-2-0.1-3.9,1.5-4.5,3.5c-0.4,1.6,0.4,3.3,2.1,4.3c1.5,0.8,2.9,1.6,4.4,2.4c1.5,0.8,2.1,2.1,1.8,3.7
		c-0.2,1.5-1.3,2.7-2.8,2.9c-2,0.3-3.9,0.1-5-1.8c-0.2-0.4-0.5-1-1-0.6c-0.5,0.4-0.1,0.8,0.2,1.2c2.1,3.4,6.7,3.4,9.2,0.3
		c1.5-1.8,1.1-4.3-0.6-6c-1.4-1.4-3.2-1.9-4.9-2.7c-2.3-1.1-2.8-4-0.9-5.7c1.1-0.9,3.3-0.7,4.7,0.5c0.3,0.3,0.6,1,1.1,0.5
		c0.4-0.4-0.1-0.9-0.4-1.2C185.5,63.2,184.3,62.7,183,62.7z"/>
	<path class="st0" d="M118,80.3c0.3-0.7,0.4-1.3,0.4-1.9c0-1.8,0-3.7,0-5.5c0-1.1,0.4-1.4,1.4-1.4c1.1,0.1,2.3,0.1,3.4,0.1
		c0.4,0,0.9,0,0.9-0.5c0-0.6-0.5-0.6-0.9-0.6c-1.2,0-2.4,0-3.5,0c-0.7,0-1.2-0.2-1.2-1c0-1.5,0-2.9,0-4.4c0-0.9,0.4-1.2,1.3-1.2
		c1,0.1,2.1,0.1,3.1,0c0.4,0,1.2,0.3,1.2-0.5c0-0.6-0.7-0.5-1.1-0.5c-1.4,0-2.8,0-4.2,0c-1,0-1.3,0.4-1.3,1.4c0,4.7,0,9.3,0,14
		C117.3,79,117.3,79.7,118,80.3z"/>
	<path class="st0" d="M189.3,41.4c-1.8-1.5-3.4-3.2-5.1-4.8c-1.6-1.5-3.1-3-4.5-4.7c-0.3-0.4-0.5-0.9,0.2-0.8c1,0.1,1.7-0.5,2.6-0.6
		c2.1-0.3,3.6-1.5,4.7-3.2c0.9-1.2,0.8-3.2-0.1-4.5c-1.8-2.6-4.5-3.3-7.3-3.4c-3-0.1-5.9,0.1-8.9,0.1c-1.2,0-1.6,0.3-1.5,1.5
		c0.1,3.3,0,6.7,0,10.1c0,2.8,0,5.7,0,8.5c-0.1,3.3-0.1,3.3,3.2,3.2c1.1,0,1.3-0.4,1.2-1.5c-0.1-2.8-0.1-5.6-0.1-8.3
		c0-0.4,0-0.9,0.5-1.1c0.4-0.1,0.6,0.1,0.8,0.4c2.7,2.5,5.5,4.9,7.6,8c1.6,2.3,3.5,2.9,6.1,2.5c0.4-0.1,0.9,0.1,1.2-0.3
		C190.2,41.9,189.6,41.6,189.3,41.4z M178.8,30.5c-1.2,0.2-2.4,0.2-3.7,0.3c-1,0.1-1.6-0.3-1.5-1.5c0.1-1.2,0-2.4,0-3.7c0,0,0,0,0,0
		c0-1.2,0.1-2.4,0-3.5c-0.1-1,0.4-1.3,1.3-1.5c2-0.3,3.9-0.1,5.8,0.7c1.9,0.8,3,3.3,2.5,5.3C182.6,28.9,181.1,30.2,178.8,30.5z"/>
	<path class="st0" d="M228.1,24.9c-2-2.8-5-4.2-8.3-5.1c-2.2-0.6-4.6-1.1-6.8-0.9c-2.9,0.3-5.9,0.7-8.6,2.2c-3.7,2-6,4.9-6.8,9
		c-0.3,1.4,0.1,2.7,0.6,4.1c0.7,2,1.8,3.7,3.4,5c3.5,3,7.7,3.7,12.5,4c2.8-0.3,6-0.6,8.9-2c3.3-1.5,5.7-3.7,6.9-7.3
		C230.9,30.6,230.1,27.7,228.1,24.9z M225.1,34c-0.8,2.5-1.8,4.7-3.8,6.3c-3.1,2.4-6.7,2.5-10.3,1.9c-5.4-0.9-8.7-5.2-8.4-10.7
		c-0.1-4.2,1.3-7.5,4.8-9.8c2.8-1.8,5.9-1.6,9-1.3c3.9,0.4,6.9,2.3,8.2,6C225.5,28.7,226,31.2,225.1,34z"/>
	<path class="st0" d="M47,42.1c-0.4-0.5-0.5-1.2-0.9-1.8c-2.8-4.5-4.8-9.5-7-14.3c-0.9-1.9-1.6-3.8-2.4-5.6
		c-0.1-0.3-0.3-0.7-0.7-0.8c-2.1-0.6-3.6,0.1-4.6,2c-2.4,4.7-5.1,9.2-7.8,13.7c-1.2,2-2.4,4-3.5,6c-0.2,0.3-0.7,0.8-0.2,1.3
		c0.6,0.5,2.1,0.2,2.4-0.6c0.8-1.9,1.8-3.6,2.8-5.4c0.8-1.4,1.7-2.6,3.6-2.2c0.7,0.1,1.4,0,2.1,0c2-0.2,4,0.2,5.9,0.2
		c1.2,0,1.9,0.5,2.2,1.5c0.7,2.1,1.9,3.9,2.4,6.1c0.1,0.4,0.4,0.7,0.8,0.7c1.5,0,2.9,0,4.4,0C47,42.8,47.3,42.5,47,42.1z M35.9,32.9
		c-1.2,0-2.4,0-3.7,0c0,0.1,0,0.1,0,0.2c-1.3,0-2.5,0-3.8,0c-0.9,0-1.1-0.3-0.6-1.1c1.5-2.6,3.1-5.2,4.5-7.9c0.5-1,0.8-0.7,1.1,0
		c1.3,2.6,2.3,5.3,3.4,7.9C37.1,32.8,36.4,32.9,35.9,32.9z"/>
	<path class="st0" d="M157.6,41.5c-0.5-0.8-0.9-1.6-1.3-2.4c-1.4-2.9-2.9-5.8-4.2-8.7c-1.3-3.1-2.9-6.1-4-9.3
		c-0.4-1.3-3.5-2.1-4.5-1.2c-0.1,0.1-0.2,0.2-0.2,0.3c-1.8,3.8-4.1,7.3-6.1,11c-1.8,3.3-3.8,6.5-5.7,9.7c-0.3,0.5-0.8,0.9-0.6,1.5
		c0.2,0.5,0.8,0.4,1.2,0.4c0.8,0.1,1.1-0.4,1.3-1c0.9-2.1,2.1-4.1,3.2-6.1c0.4-0.7,0.8-1.4,1.9-1.4c3.4,0.1,6.8,0,10.2,0.3
		c0.5,0,0.8,0.2,1,0.7c0.8,1.8,1.8,3.6,2.3,5.5c0.5,1.9,1.7,2.3,3.2,2c0.7,0,1.2,0,1.7,0C158,42.8,158.1,42.3,157.6,41.5z
		 M146.8,33.1c-2.4,0-4.8,0-7.2,0c-1.5,0-1.5-0.1-0.7-1.4c1.5-2.7,3.1-5.5,4.6-8.3c0.1-0.2,0.2-0.3,0.5-0.6c0.8,1.8,1.6,3.4,2.3,5
		c0.5,1.1,0.8,2.3,1.5,3.4C148.4,32.4,148,33.1,146.8,33.1z"/>
	<path class="st0" d="M109.5,79.5c-1.3-1.9-2.7-3.9-4-5.7c-0.8-1.1-0.7-1.2,0.6-1.6c1.9-0.5,3.2-1.8,3.7-3.6c0.5-1.5-0.3-2.8-1.1-4
		c-1.4-1.9-3.6-1.4-5.6-1.6c-1.1-0.1-1.6,0.3-1.6,1.5c0,4.7,0,9.3,0,14c0,0.5,0,1,0.1,1.6c0,0.3,0.2,0.5,0.6,0.5
		c0.3,0,0.5-0.2,0.5-0.5c0-0.6,0.1-1.2,0.1-1.8c0-1.9-0.2-3.7,0.1-5.7c1.5,1,2,2.5,2.9,3.6c1,1.3,1.9,2.7,2.9,4
		c0.3,0.3,0.7,0.9,1.2,0.4C110.3,80.1,109.7,79.8,109.5,79.5z M103.4,71.3c-0.5-0.2-0.6-0.5-0.6-1c0-0.9,0-1.8,0-2.7c0,0,0,0,0,0
		c0-0.4,0-0.8,0-1.1c0.1-0.8-0.5-1.9,0.5-2.3c1-0.4,2.3-0.3,3.3,0.2c1.7,0.8,2.5,3.5,1.7,5.1C107.7,70.7,104.7,71.7,103.4,71.3z"/>
	<path class="st0" d="M95,79.7c-0.1-0.3-0.1-0.6-0.2-0.9c-1.8-4.5-3.7-9.1-5.5-13.6c-0.3-0.6-0.4-1.7-1.1-1.7
		c-0.7,0-0.8,1.1-1.3,1.7c-0.1,0.1,0,0.2,0,0.3c-1,2.4-1.9,4.9-2.9,7.3c-0.9,2.2-1.8,4.4-2.7,6.5c-0.1,0.4-0.4,0.9,0.2,1.1
		c0.6,0.2,0.7-0.4,0.8-0.7c0.5-1.1,0.9-2.1,1.3-3.2c0.4-1.1,0.9-1.8,2.3-1.7c1.6,0.2,3.3,0.1,4.9,0c0.9-0.1,1.3,0.3,1.6,1.1
		c0.5,1.3,0.8,2.8,1.7,4c0.2,0.2,0.3,0.5,0.6,0.4C95.1,80.3,95,80,95,79.7z M89.6,73.9c-0.6,0-1.1,0-1.7,0c0,0,0,0,0,0
		c-0.5,0-0.9,0-1.4,0c-1.9,0-1.9,0-1.2-1.7c0.8-1.9,1.6-3.8,2.4-5.7c0.1-0.2,0.2-0.6,0.5-0.6c0.3,0,0.2,0.3,0.3,0.6
		c0.8,1.9,1.5,3.7,2.3,5.5C91.5,73.7,91.4,73.9,89.6,73.9z"/>
	<path class="st0" d="M75.6,65.4c-1.2-2.3-3.3-2.5-5.5-2.5c-2.5,0-2.4,0-2.6,2.6c-0.2,4.1,0.1,8.3-0.2,12.4c-0.1,0.6,0,1.1,0.1,1.7
		c0.1,0.4,0.2,1,0.9,0.9c0.6-0.1,0.5-0.6,0.5-1c0-1.4,0-2.8,0-4.2c0-3,0-3,3-3c0.2,0,0.4,0,0.6,0C75.4,71.7,77.3,68.6,75.6,65.4z
		 M71.3,71.3c-0.4,0-0.8,0-1.1,0c-1.1,0.1-1.5-0.3-1.4-1.3c0-0.8,0-1.6,0-2.4c0,0,0,0,0,0c0-0.2-0.1-0.5,0-0.7
		c0.3-0.9-0.8-2.4,0.7-2.8c2-0.6,4.2,0.4,5.1,1.8C76.1,68.4,73.9,71.4,71.3,71.3z"/>
</g>
</svg>
