<?xml version="1.0" encoding="utf-8"?>
<!-- Generator: $$$/GeneralStr/196=Adobe Illustrator 27.6.0, SVG Export Plug-In . SVG Version: 6.00 Build 0)  -->
<svg version="1.1" id="Capa_1" xmlns="http://www.w3.org/2000/svg" xmlns:xlink="http://www.w3.org/1999/xlink" x="0px" y="0px"
	 viewBox="0 0 250 100" style="enable-background:new 0 0 250 100;" xml:space="preserve">
<style type="text/css">
	.st0{fill-rule:evenodd;clip-rule:evenodd;fill:#777777;}
</style>
<path class="st0" d="M125,40.8c0-3.9,2.9-6.8,7-6.8c1.9,0,3.3,0.5,3.7,0.6l0,0v1.8c-0.2-0.1-1.8-0.8-3.6-0.8c-3,0-5.2,2.1-5.2,4.9
	c0,2.9,2.1,4.9,5.2,4.9c2,0,3.4-0.5,3.5-0.6v1.8c-0.1,0.1-1.5,0.5-3.7,0.5C127.1,47.2,125,43.5,125,40.8z M67.2,34.2h-1.8v7.5
	c0,2.9-1.7,3.8-3.7,3.8c-2.5,0-3.7-1.3-3.7-3.8v-7.5h-1.9v7.9c0,3.5,2.5,5.1,5.5,5.1c3.5,0,5.5-1.9,5.5-5.1V34.2z M80.7,34.2h-1.8
	v9.9l-7.7-9.9h-1.5v12.9h1.7v-9.9l7.7,9.9h1.6V34.2z M83.7,34.2h1.8v12.9h-1.8V34.2z M96.5,34.2h-9.3v1.6H91v11.3h1.8V35.8h3.7V34.2
	z M98.2,34.2h7.4v1.6h-5.5v3.9h5.3v1.6h-5.3v4.2h5.6v1.7h-7.5V34.2z M112.3,34.2H108v12.9h4.3c4.5,0,6.8-3.2,6.8-6.4
	C119.2,37.6,117.1,34.2,112.3,34.2z M109.9,45.4v-9.6h2.2c3.5,0,5.2,2.3,5.2,4.8c0,2.7-1.8,4.8-5.2,4.8H109.9z M152.7,34.2h1.8v11.2
	h5.3v1.7h-7.2V34.2z M179.4,34.2h-3.9v12.9h1.8v-5.6h2.3l3.5,5.6h2.2c-0.9-1.2-3.9-6-3.9-6c0.3-0.1,2.2-0.8,2.2-3.2
	C183.6,35.5,182,34.2,179.4,34.2z M177.3,39.9v-4.1h1.8c1.8,0,2.5,0.9,2.5,2.1c0,1.1-0.6,2.1-2.5,2.1L177.3,39.9L177.3,39.9z
	 M143.5,34c-3.8,0-6.8,3-6.8,6.6c0,3.7,3,6.6,6.8,6.6c3.8,0,6.8-3,6.8-6.6C150.3,37,147.2,34,143.5,34z M143.5,45.5
	c-2.7,0-4.9-2.2-4.9-4.9s2.2-4.9,4.9-4.9s4.9,2.2,4.9,4.9S146.3,45.5,143.5,45.5z M159.8,40.6c0-3.6,3.1-6.6,6.8-6.6s6.8,3,6.8,6.6
	c0,3.6-3.1,6.6-6.8,6.6C162.8,47.2,159.8,44.3,159.8,40.6z M161.7,40.6c0,2.7,2.2,4.9,4.9,4.9c2.7,0,4.9-2.2,4.9-4.9
	s-2.2-4.9-4.9-4.9C163.9,35.7,161.7,37.9,161.7,40.6z M190.5,34c-2.5,0-4.1,1.5-4.1,3.4c0,1.8,1,2.7,2.4,3.3
	c0.1,0.1,0.3,0.2,0.6,0.3v0c0.4,0.2,1,0.4,1.3,0.6l0.1,0c0.7,0.4,1.9,1,1.9,2.1c0,0.9-0.9,1.8-2.6,1.8s-2.6-0.7-2.8-0.9l-0.9,1.6
	c0,0,0.1,0,0.1,0.1v0c0.3,0.2,1.4,0.9,3.7,0.9c2.3,0,4.5-1.1,4.5-3.6c0-2.2-2-3.2-3.2-3.7c-0.3-0.1-0.7-0.3-1-0.5v0
	c-0.1-0.1-0.3-0.1-0.4-0.2c-0.9-0.4-1.6-1-1.6-1.9c0-0.9,0.8-1.7,2.3-1.7c1.5,0,2.4,0.5,2.5,0.7l0.5-1.6c0,0-0.1,0-0.3-0.1
	C193,34.4,191.9,34,190.5,34z M71.3,52.9h6.8v1.7h-5v3.7h5v1.6h-5v6h-1.8V52.9z M62.3,52.8c-3.8,0-6.8,3-6.8,6.6
	c0,3.7,3,6.6,6.8,6.6c3.8,0,6.8-3,6.8-6.6C69.2,55.7,66.2,52.8,62.3,52.8z M62.3,64.3c-2.7,0-4.9-2.2-4.9-4.9c0-2.7,2.2-4.9,4.9-4.9
	c2.7,0,4.9,2.2,4.9,4.9C67.3,62.1,65.1,64.3,62.3,64.3z M113.7,52.9h1.8v12.9h-1.6l-7.7-9.9v9.9h-1.8V52.9h1.6l7.7,10V52.9z
	 M172,52.9h-1.8v10l-7.8-10h-1.5v12.9h1.8v-9.9l7.6,9.9h1.7V52.9z M126.3,52.9h9.3v1.7h-3.7v11.2H130V54.6h-3.8V52.9z M145.9,52.9
	h-9.3v1.7h3.8v11.2h1.8V54.6h3.7V52.9z M94.9,52.9h7.3v1.7h-5.4v3.9h5.3V60h-5.3v4.2h5.6v1.6h-7.5V52.9z M125.1,52.9h-7.3v12.9h7.5
	v-1.6h-5.6V60h5.3v-1.6h-5.3v-3.9h5.4V52.9z M145.7,59.4c0-3.6,3.1-6.6,6.8-6.6c3.8,0,6.8,2.9,6.8,6.6c0,3.6-3.1,6.6-6.8,6.6
	C148.6,66,145.7,63.1,145.7,59.4z M147.6,59.4c0,2.7,2.2,4.9,4.9,4.9c2.7,0,4.9-2.2,4.9-4.9c0-2.7-2.2-4.9-4.9-4.9
	C149.8,54.5,147.6,56.7,147.6,59.4z M88.2,52.9H84v12.9h4.4c3.2,0,4.4-1.8,4.4-3.4c0-2.7-2.2-3.2-2.4-3.2c0,0,0,0,0.1,0v0
	c0.3-0.1,1.7-0.7,1.7-2.8C92.2,54.5,90.9,52.9,88.2,52.9z M85.8,58.5v-3.9h2.1c1.5,0,2.4,0.7,2.4,1.9c0,1.3-1,2-2.4,2H85.8z
	 M85.8,64.2v-4.1h2.5c1.8,0,2.6,0.9,2.6,2.1c0,1-0.5,2-2.6,2H85.8z M173.5,64.6c0-0.7,0.6-1.3,1.3-1.3c0.7,0,1.3,0.6,1.3,1.3
	c0,0.7-0.6,1.3-1.3,1.3C174.1,65.9,173.5,65.3,173.5,64.6z"/>
</svg>
