<?xml version="1.0" encoding="utf-8"?>
<!-- Generator: $$$/GeneralStr/196=Adobe Illustrator 27.6.0, SVG Export Plug-In . SVG Version: 6.00 Build 0)  -->
<svg version="1.1" id="Capa_1" xmlns="http://www.w3.org/2000/svg" xmlns:xlink="http://www.w3.org/1999/xlink" x="0px" y="0px"
	 viewBox="0 0 250 100" style="enable-background:new 0 0 250 100;" xml:space="preserve">
<style type="text/css">
	.st0{fill:#777777;}
</style>
<g>
	<path class="st0" d="M120.3,3.2c1.7,0.1,3.8-0.1,5.9,0.1c3.7,0.3,7.1,1.5,10.2,3.6c5.4,3.8,8.5,9,9.1,15.5c0.7,7-1.8,13-7,17.8
		c-0.4,0.3-0.4,0.5,0,0.9c4.1,4.7,5.9,10.1,5.3,16.3c-0.5,5.2-2.7,9.5-6.4,13.1c-3.5,3.4-7.8,5.4-12.7,5.8
		c-3.4,0.3-6.8,0.1-10.2,0.1c-0.6,0-0.6-0.3-0.6-0.7c0-2.7,0-5.4,0-8.1c0-0.6,0-1.2,0-1.9c0-0.6,0.2-0.8,0.8-0.7c2.7,0,5.3,0,8,0
		c3.7,0,6.6-1.5,8.5-4.7c3.5-5.8,0.1-13.3-6.5-14.6c-0.4-0.1-0.9-0.1-1.3-0.1c-2.9,0-5.7,0-8.6,0c-0.8,0-0.8,0-0.8-0.8
		c0-3.3,0-6.6,0-9.9c0-0.6,0.2-0.8,0.8-0.7c3.2,0,6.5,0,9.7,0c4.9,0,8.8-3.2,9.7-8c1-5.2-2.7-10.4-7.9-11.2
		c-0.6-0.1-1.2-0.1-1.8-0.1c-3.2,0-6.4,0-9.6,0c-0.8,0-0.8,0-0.8-0.8c0-3.3,0-6.6,0-9.9c0-0.8,0-0.8,0.8-0.8
		C116.4,3.2,118.2,3.2,120.3,3.2z"/>
	<path class="st0" d="M112,70.7c0,1.6,0,3.3,0,4.9c0,0.8,0,0.8-0.9,0.8c-2.9,0-5.7,0-8.6,0c-0.8,0-0.8,0-0.8-0.9
		c0.1-2.3,0-4.6,0.1-6.9c0-1,0-2-0.1-3c0-0.5,0.2-0.7,0.7-0.7c3,0,5.9,0,8.9,0c0.6,0,0.7,0.2,0.7,0.7C112,67.4,112,69.1,112,70.7
		C112,70.7,112,70.7,112,70.7z"/>
	<path class="st0" d="M112,39.9c0,1.6,0,3.3,0,4.9c0,0.5-0.2,0.8-0.7,0.8c-3,0-5.9,0-8.9,0c-0.7,0-0.7-0.4-0.7-0.9
		c0.1-2.5,0-5.1,0.1-7.6c0-0.8,0-1.5-0.1-2.3c0-0.5,0.2-0.7,0.7-0.7c3,0,5.9,0,8.9,0c0.6,0,0.8,0.2,0.7,0.8
		C112,36.6,112,38.2,112,39.9z"/>
	<path class="st0" d="M112,9c0,1.7,0,3.3,0,5c0,0.6-0.2,0.8-0.8,0.8c-2.9,0-5.9,0-8.8,0c-0.6,0-0.8-0.3-0.7-0.8
		c0.2-2.9,0-5.8,0.1-8.7c0-0.5,0-0.9-0.1-1.4c0-0.4,0.1-0.7,0.6-0.7c3,0,6.1,0,9.1,0c0.5,0,0.6,0.3,0.6,0.7C112,5.6,112,7.3,112,9
		C112,9,112,9,112,9z"/>
	<path class="st0" d="M80.5,90.4c0-1.5,0-3.1,0-4.6c0-1.2,0.6-1.7,1.7-1.7c1.5,0,3.1,0,4.6,0c2.6-0.1,4.6,2.5,3.9,4.8
		c-0.2,0.6-0.1,1.2,0.1,1.8c0.1,0.4,0.2,0.8,0.3,1.2c0.5,2.6-1.4,4.9-4.1,4.9c-1.5,0-3.1,0-4.6,0c-0.7,0-1.3-0.2-1.8-0.8
		c-0.1-0.2-0.2-0.4-0.2-0.7C80.5,93.6,80.5,92,80.5,90.4C80.5,90.4,80.5,90.4,80.5,90.4z M85.7,93.5c0.5,0,1,0,1.4,0
		c0.5,0,0.9-0.1,1-0.7c0.1-0.4-0.3-0.8-0.9-0.8c-1,0-2.1,0-3.1,0c-0.6,0-0.4,0.5-0.4,0.8c0,0.3,0,0.7,0.5,0.7
		C84.6,93.5,85.1,93.5,85.7,93.5z M85.6,87.2C85.6,87.2,85.6,87.2,85.6,87.2c-0.5,0-1,0-1.5,0c-0.5,0-0.4,0.4-0.4,0.7
		c0,0.3-0.2,0.8,0.4,0.8c0.9,0,1.9,0,2.8,0c0.5,0,0.8-0.3,0.8-0.8c0-0.4-0.3-0.7-0.8-0.7C86.5,87.2,86,87.2,85.6,87.2z"/>
	<path class="st0" d="M119.7,90.9c0-1.7,0-3.3,0-5c0-1.2,0.7-1.8,1.8-1.8c1.6,0,3.3,0,4.9,0c2.6,0.1,4.7,2.2,4.4,5.1
		c-0.1,1.5-1,2.4-2.2,3.2c-0.5,0.3-0.5,0.5-0.2,0.9c0.7,0.9,1.4,1.9,2,2.9c0.1,0.2,0.3,0.3,0.2,0.6c-0.1,0.2-0.3,0.1-0.5,0.1
		c-0.7,0-1.5,0-2.2,0c-0.5,0-0.8-0.2-1-0.5c-0.6-1-1.3-1.9-1.9-2.8c-0.3-0.4-1.7-0.7-2.1-0.4c-0.2,0.1-0.1,0.3-0.1,0.5
		c0,0.8,0,1.7,0,2.5c0,0.5-0.2,0.7-0.7,0.7c-0.7,0-1.3,0-2,0c-0.4,0-0.6-0.2-0.5-0.5C119.6,94.4,119.6,92.6,119.7,90.9
		C119.6,90.9,119.7,90.9,119.7,90.9z M124.9,87.2C124.9,87.2,124.9,87.2,124.9,87.2c-0.5,0-1,0-1.5,0c-0.3,0-0.5,0-0.5,0.4
		c0,0.6,0,1.3,0,1.9c0,0.3,0.2,0.5,0.5,0.5c1-0.1,2.1,0.1,3.1,0c0.8-0.1,1.2-0.7,1.2-1.6c-0.1-0.7-0.7-1.2-1.4-1.2
		C125.8,87.2,125.3,87.2,124.9,87.2z"/>
	<path class="st0" d="M145.2,90.8c0-1.7,0-3.3,0-5c0-1.1,0.7-1.8,1.9-1.7c1.7,0,3.3,0,5,0c2.7,0.1,4.6,2.4,4.3,5.1
		c-0.2,1.5-1.1,2.4-2.2,3.1c-0.4,0.3-0.4,0.4-0.1,0.8c0.7,1,1.4,1.9,2.1,2.9c0.1,0.2,0.3,0.3,0.2,0.6c-0.1,0.2-0.4,0.1-0.6,0.1
		c-0.7,0-1.5,0-2.2,0c-0.4,0-0.7-0.1-0.9-0.5c-0.6-0.9-1.3-1.9-1.9-2.8c-0.3-0.5-1.6-0.7-2.1-0.5c-0.2,0.1-0.2,0.3-0.2,0.5
		c0,0.8,0,1.5,0,2.3c0,0.8,0,0.8-0.8,0.8c-0.6,0-1.1,0-1.7,0c-0.6,0-0.7-0.2-0.7-0.7C145.2,94.2,145.2,92.5,145.2,90.8z M150.4,87.2
		c-0.5,0-1,0-1.5,0c-0.4,0-0.5,0.1-0.5,0.5c0,0.6,0,1.2,0,1.7c0,0.4,0.2,0.5,0.5,0.5c1,0,2.1,0.1,3.1-0.1c0.8-0.1,1.2-0.6,1.2-1.4
		c0-0.7-0.6-1.2-1.3-1.3C151.3,87.2,150.9,87.2,150.4,87.2z"/>
	<path class="st0" d="M93.3,90.3c0-1.9,0-3.8,0-5.8c0-0.4,0.2-0.6,0.6-0.6c0.7,0.1,1.4,0.1,2,0c0.5,0,0.6,0.3,0.6,0.7
		c0,1.1,0,2.3,0,3.4c0,0.5,0.2,0.7,0.6,0.6c1.2,0,2.4,0,3.6,0c0.6,0,0.7-0.2,0.7-0.7c0-1.1,0-2.3,0-3.4c0-0.5,0.2-0.7,0.7-0.6
		c0.6,0.1,1.2,0,1.8,0c0.5,0,0.7,0.2,0.7,0.7c0,3.8,0,7.6,0,11.4c0,0.4-0.1,0.6-0.6,0.6c-0.6,0-1.2,0-1.9,0c-0.6,0-0.7-0.2-0.7-0.7
		c0-1.1,0-2.1,0-3.2c0-0.5-0.1-0.7-0.6-0.7c-1.3,0-2.6,0-3.9,0c-0.4,0-0.4,0.3-0.4,0.6c0,1.1,0,2.2,0,3.3c0,0.8-0.1,0.8-0.9,0.8
		c-0.5,0-1,0-1.5,0c-0.8,0-0.8,0-0.8-0.8C93.4,94,93.4,92.2,93.3,90.3C93.4,90.3,93.4,90.3,93.3,90.3z"/>
	<path class="st0" d="M116.8,96.7c-2.1-0.1-1.5,0.3-2.4-1.6c-0.7-1.5-1.3-3-1.9-4.5c-0.1-0.1-0.1-0.4-0.3-0.4
		c-0.2,0-0.2,0.2-0.3,0.4c-0.8,1.8-1.5,3.6-2.3,5.4c-0.2,0.5-0.5,0.8-1.2,0.7c-0.6-0.1-1.3,0-1.9,0c-0.8,0-0.8,0-0.5-0.8
		c0.6-1.5,1.3-3,1.9-4.5c0.9-2.1,1.8-4.2,2.7-6.3c0.3-0.6,0.6-1.2,1.4-1.2c0.8,0,1.3,0.3,1.6,1c1.6,3.7,3.2,7.5,4.8,11.2
		c0.2,0.4,0,0.6-0.4,0.6C117.6,96.7,117.2,96.7,116.8,96.7z"/>
	<path class="st0" d="M167.8,96.7c-2,0-1.5,0.3-2.3-1.5c-0.7-1.5-1.3-3-1.9-4.6c-0.1-0.2-0.1-0.4-0.3-0.4c-0.2,0-0.2,0.2-0.3,0.4
		c-0.8,1.8-1.6,3.7-2.3,5.5c-0.2,0.4-0.4,0.6-0.9,0.6c-0.7,0-1.4,0-2.2,0c-0.7,0-0.8-0.1-0.5-0.7c1.2-2.8,2.4-5.7,3.7-8.5
		c0.4-0.8,0.7-1.7,1.1-2.5c0.3-0.6,0.8-1,1.5-1c0.7,0,1.1,0.4,1.4,1c1.6,3.7,3.1,7.4,4.7,11c0.2,0.6,0.2,0.7-0.5,0.7
		C168.6,96.7,168.2,96.7,167.8,96.7z"/>
	<path class="st0" d="M137.7,90c-0.1,0.3-0.3,0.6-0.4,1c-0.7,1.7-1.5,3.4-2.2,5.1c-0.2,0.5-0.4,0.7-1,0.6c-0.7-0.1-1.4,0-2.2,0
		c-0.4,0-0.6-0.1-0.4-0.6c1.6-3.7,3.2-7.4,4.7-11.1c0.3-0.7,0.7-1.1,1.5-1.1c0.8,0,1.2,0.5,1.5,1.2c1.5,3.5,3,6.9,4.4,10.4
		c0.5,1.1,0.5,1.1-0.7,1.1c-0.6,0-1.1,0-1.7,0c-0.5,0-0.7-0.2-0.9-0.6c-0.8-1.8-1.5-3.6-2.3-5.4C138,90.5,138,90.2,137.7,90z"/>
</g>
</svg>
