<?xml version="1.0" encoding="UTF-8"?>
<svg id="Capa_1" xmlns="http://www.w3.org/2000/svg" version="1.1" viewBox="0 0 250 100">
  <!-- Generator: Adobe Illustrator 29.6.1, SVG Export Plug-In . SVG Version: 2.1.1 Build 9)  -->
  <defs>
    <style>
      .st0 {
        fill: #777;
      }
    </style>
  </defs>
  <path class="st0" d="M18.32,62.56v-25.52h12.67c.24,0,3.03.79,3.47.97,3.97,1.63,4.92,5.8,3.65,9.59-.22.67-1.17,1.38-1.07,1.92.08.45,2.19,2.04,2.52,3.68.63,3.06.25,5.68-2.35,7.6-.54.4-3.13,1.76-3.55,1.76h-15.34ZM31.88,42.32c-1.92-.53-6.02.39-8.22,0v5.28h7.33c.11,0,1.81-.91,1.88-.99,1.13-1.16.41-3.91-1-4.29ZM23.65,57.72h8.67c1.19,0,2.59-1.55,2.45-2.84-.08-.78-1.92-2.44-2.45-2.44h-8.67v5.28Z"/>
  <path class="st0" d="M213.68,37.48c10.17,1.57,12.59,17.66,3.93,23.25-.7.45-3.75,1.83-4.37,1.83h-13.11v-25.08c4.15.46,9.58-.62,13.56,0ZM205.01,57.72h8.22c.26,0,2.33-1.37,2.69-1.74,3.47-3.62,2.73-11.71-2.36-13.55-2.14-.77-6.59-1.06-8.55.1v15.18Z"/>
  <path class="st0" d="M123.67,37.04v9.24c1.93-.66,9.49-9.24,10.45-9.24h6.89l-10.15,9.9,10.59,15.63h-6.67l-7.55-11.69c-.66-.39-3.56,2.44-3.56,2.67v9.02h-5.33v-24.86c1.29-1.29,3.62-.43,5.33-.66Z"/>
  <path class="st0" d="M153.78,37.15c8.72-1.16,15.71,4.9,15.22,13.74-.93,16.55-28.15,15.97-25.73-3.46.63-5.07,5.41-9.6,10.51-10.28ZM153.77,41.98c-8.27,1.52-7.72,15.96,2.14,16.19,11.24.26,11.07-18.62-2.14-16.19Z"/>
  <path class="st0" d="M90.33,55.09l4.64-1.79c4.78,9.25,17.38,3.44,13.8-6.57-2.23-6.25-11.9-6.68-13.56,0l-4.87-2.42c4.66-11.23,22.6-9.29,24,3.07,1.83,16.22-17.21,21.74-24.01,7.71Z"/>
  <path class="st0" d="M177.89,37.48v16.5c0,.47,1.65,2.66,2.24,3.06,2.45,1.7,6.47,1.36,8.43-.86.23-.27,1.33-2.08,1.33-2.21v-16.5h4.89v16.94c0,.26-1.2,2.89-1.49,3.36-4.09,6.7-14.74,6.71-18.88.08-.35-.55-1.41-3.01-1.41-3.45v-16.94h4.89Z"/>
  <path class="st0" d="M88.99,62.56l-6-.43c-2.37-4.92-4.03-10.77-6.5-15.57-.17-.33-.91-1.87-1.27-1.6l-7.18,17.54-5.72.06c1.46-3.02,9.69-24.64,11.11-25.3.97-.46,4.17-.58,4.85.49l10.71,24.82Z"/>
  <polygon class="st0" points="48.99 37.04 48.99 57.72 61.88 57.72 61.88 62.56 44.1 62.56 44.1 37.04 48.99 37.04"/>
  <polygon class="st0" points="225.9 56.4 231.48 56.81 231.68 62.57 225.9 62.56 225.9 56.4"/>
</svg>