<?xml version="1.0" encoding="UTF-8"?>
<svg id="Capa_1" xmlns="http://www.w3.org/2000/svg" version="1.1" viewBox="0 0 250 100">
  <!-- Generator: Adobe Illustrator 29.6.1, SVG Export Plug-In . SVG Version: 2.1.1 Build 9)  -->
  <defs>
    <style>
      .st0 {
        fill: #777;
      }
    </style>
  </defs>
  <g id="Capa_11" data-name="Capa_1">
    <g>
      <g>
        <g>
          <path class="st0" d="M81.04,33.24h6.95c1.71,0,3.06.47,3.91,1.33.69.69,1.03,1.52,1.03,2.55v.04c0,1.69-.9,2.63-1.97,3.23,1.73.66,2.8,1.67,2.8,3.68v.04c0,2.74-2.23,4.11-5.6,4.11h-7.12v-14.97h0ZM89.66,37.67c0-.98-.77-1.54-2.16-1.54h-3.25v3.16h3.04c1.46,0,2.37-.47,2.37-1.58v-.04h0ZM88.05,42.03h-3.81v3.29h3.91c1.46,0,2.33-.51,2.33-1.62v-.04c0-1-.75-1.62-2.44-1.62"/>
          <path class="st0" d="M97.75,40.77v-.04c0-4.26,3.36-7.74,7.98-7.74s7.94,3.44,7.94,7.7v.04c0,4.26-3.36,7.74-7.98,7.74s-7.94-3.44-7.94-7.7M110.22,40.77v-.04c0-2.57-1.88-4.71-4.54-4.71s-4.49,2.1-4.49,4.66v.04c0,2.57,1.88,4.71,4.54,4.71s4.49-2.1,4.49-4.66"/>
          <polygon class="st0" points="121.98 36.28 117.43 36.28 117.43 33.24 129.83 33.24 129.83 36.28 125.27 36.28 125.27 48.21 121.98 48.21 121.98 36.28"/>
          <path class="st0" d="M138.26,33.13h3.04l6.42,15.08h-3.44l-1.37-3.36h-6.33l-1.37,3.36h-3.36s6.42-15.08,6.42-15.08ZM141.73,41.94l-1.99-4.86-1.99,4.86h3.98,0Z"/>
          <polygon class="st0" points="152.73 33.24 155.76 33.24 162.78 42.46 162.78 33.24 166.03 33.24 166.03 48.21 163.23 48.21 155.98 38.69 155.98 48.21 152.73 48.21 152.73 33.24"/>
          <rect class="st0" x="172.47" y="33.24" width="3.29" height="14.97"/>
          <path class="st0" d="M181.55,40.77v-.04c0-4.26,3.21-7.74,7.81-7.74,2.82,0,4.51.94,5.9,2.31l-2.1,2.42c-1.15-1.05-2.33-1.69-3.83-1.69-2.52,0-4.34,2.1-4.34,4.66v.04c0,2.57,1.78,4.71,4.34,4.71,1.71,0,2.76-.69,3.94-1.75l2.1,2.12c-1.54,1.65-3.25,2.67-6.14,2.67-4.4,0-7.68-3.4-7.68-7.7"/>
          <path class="st0" d="M205.69,33.13h3.04l6.42,15.08h-3.44l-1.37-3.36h-6.33l-1.37,3.36h-3.36l6.42-15.08h0ZM209.15,41.94l-1.99-4.86-1.99,4.86h3.98,0Z"/>
          <polygon class="st0" points="219.37 33.24 230.67 33.24 230.67 36.17 222.64 36.17 222.64 39.21 229.7 39.21 229.7 42.14 222.64 42.14 222.64 45.28 230.77 45.28 230.77 48.21 219.37 48.21 219.37 33.24"/>
        </g>
        <g>
          <polygon class="st0" points="103.33 59.56 107.54 59.56 107.54 60.44 104.34 60.44 104.34 62.71 106.94 62.71 106.94 63.59 104.34 63.59 104.34 65.92 107.71 65.92 107.71 66.8 103.33 66.8 103.33 59.56"/>
          <path class="st0" d="M114.71,63.07l-2.14-3.51h1.17l1.14,1.96c.23.39.46.86.46.86h.02s.2-.46.44-.86l1.14-1.96h1.17l-2.14,3.51,2.29,3.73h-1.15l-1.31-2.23c-.23-.41-.46-.83-.46-.83h-.02s-.2.43-.43.83l-1.31,2.23h-1.14l2.29-3.73h0Z"/>
          <path class="st0" d="M123.44,59.56h2.65c1.32,0,2.28.89,2.28,2.27s-.95,2.3-2.28,2.3h-1.63v2.68h-1.02v-7.24h0ZM125.93,63.24c.87,0,1.41-.54,1.41-1.41s-.53-1.39-1.39-1.39h-1.48v2.8s1.47,0,1.47,0Z"/>
          <path class="st0" d="M133.65,59.56h2.21c.76,0,1.08.06,1.35.16.74.28,1.22,1,1.22,1.96s-.51,1.7-1.3,1.96v.02s.08.09.21.33l1.54,2.81h-1.15l-1.53-2.88h-1.55v2.88h-1.02v-7.24ZM136.12,63.04c.79,0,1.28-.5,1.28-1.31,0-.53-.21-.91-.57-1.12-.2-.1-.43-.16-1-.16h-1.17v2.59h1.46Z"/>
          <polygon class="st0" points="144.2 59.56 148.41 59.56 148.41 60.44 145.22 60.44 145.22 62.71 147.82 62.71 147.82 63.59 145.22 63.59 145.22 65.92 148.59 65.92 148.59 66.8 144.2 66.8 144.2 59.56"/>
          <path class="st0" d="M154.08,65.2s.77.78,1.85.78c.68,0,1.25-.38,1.25-1.07,0-1.57-3.51-1.23-3.51-3.45,0-1.13.97-2.02,2.34-2.02s2.05.73,2.05.73l-.46.84s-.67-.62-1.59-.62c-.77,0-1.31.48-1.31,1.06,0,1.5,3.5,1.1,3.5,3.45,0,1.12-.86,2.04-2.3,2.04-1.54,0-2.4-.95-2.4-.95l.57-.77h0Z"/>
          <path class="st0" d="M163.67,65.2s.77.78,1.85.78c.68,0,1.25-.38,1.25-1.07,0-1.57-3.51-1.23-3.51-3.45,0-1.13.97-2.02,2.34-2.02s2.05.73,2.05.73l-.46.84s-.67-.62-1.59-.62c-.77,0-1.31.48-1.31,1.06,0,1.5,3.51,1.1,3.51,3.45,0,1.12-.86,2.04-2.3,2.04-1.54,0-2.4-.95-2.4-.95l.57-.77h0Z"/>
          <rect class="st0" x="173.23" y="59.56" width="1.02" height="7.24"/>
          <path class="st0" d="M183.42,59.44c2.09,0,3.71,1.61,3.71,3.69s-1.62,3.8-3.71,3.8-3.72-1.66-3.72-3.8,1.63-3.69,3.72-3.69M183.42,65.99c1.48,0,2.67-1.23,2.67-2.86s-1.19-2.77-2.67-2.77-2.68,1.19-2.68,2.77,1.2,2.86,2.68,2.86"/>
          <path class="st0" d="M192.59,59.56h1l3.22,4.71c.27.39.61,1.05.61,1.05h.02s-.07-.65-.07-1.05v-4.71h1.02v7.24h-1l-3.23-4.7c-.27-.4-.61-1.06-.61-1.06h-.02s.07.65.07,1.06v4.7h-1.02v-7.24Z"/>
          <path class="st0" d="M204.35,65.2s.77.78,1.85.78c.68,0,1.25-.38,1.25-1.07,0-1.57-3.51-1.23-3.51-3.45,0-1.13.97-2.02,2.34-2.02s2.05.73,2.05.73l-.46.84s-.67-.62-1.59-.62c-.77,0-1.31.48-1.31,1.06,0,1.5,3.51,1.1,3.51,3.45,0,1.12-.86,2.04-2.3,2.04-1.54,0-2.4-.95-2.4-.95l.57-.77h0Z"/>
        </g>
      </g>
      <path class="st0" d="M58.31,50c-.62-.56-2.46-1.44-3.61-1.79h0c3.28-2.96,5.35-7.24,5.35-11.99,0-8.92-7.25-16.16-16.16-16.16h-24.66v9.46h4.88v-4.58h19.78c6.22,0,11.27,5.06,11.27,11.27,0,3.23-1.37,6.15-3.55,8.2-2.24-6.23-8.21-10.69-15.2-10.69h-17.02v.23h-.02v2.74l.19.52c1.48,4.15,4.09,7.67,7.41,10.29-4.01,0-7.66.01-7.74.01v4.96c.08,0,3.73,0,7.74.01-3.31,2.62-5.93,6.14-7.41,10.29l-.19.52v2.74h.02v.23h17.02c8,0,14.66-5.85,15.93-13.49,5.05,1.11,8.84,5.63,8.84,11,0,6.22-5.06,11.27-11.27,11.27h-25.8v-4.58h-4.88v9.46h30.68c8.91,0,16.16-7.25,16.16-16.16,0-5.83-3.11-10.95-7.75-13.79M36.41,61.15c-1.85,0-5.83,0-10.61,0,3.26-5.27,9.08-8.62,15.45-8.62v-.03c2.28,0,4.39,0,6.11,0-1.19,4.95-5.65,8.64-10.95,8.64M41.26,47.49v-.03c-6.37,0-12.19-3.35-15.45-8.62,4.77,0,8.76,0,10.61,0,5.31,0,9.77,3.69,10.95,8.64-1.72,0-3.83,0-6.11,0"/>
    </g>
  </g>
</svg>