<?xml version="1.0" encoding="utf-8"?>
<!-- Generator: $$$/GeneralStr/196=Adobe Illustrator 27.6.0, SVG Export Plug-In . SVG Version: 6.00 Build 0)  -->
<svg version="1.1" id="Capa_1" xmlns="http://www.w3.org/2000/svg" xmlns:xlink="http://www.w3.org/1999/xlink" x="0px" y="0px"
	 viewBox="0 0 250 100" style="enable-background:new 0 0 250 100;" xml:space="preserve">
<style type="text/css">
	.st0{fill:#777777;}
</style>
<g id="Layer_2">
</g>
<g>
	<path class="st0" d="M143.2,71.7c0.1,0,0.2-0.1,0.3-0.2c-1.1-0.2-1.9-0.8-2.4-1.7c-0.2-0.4-0.2-0.5,0.3-0.5c0.4,0,0.6,0.1,0.9,0.4
		c0.7,0.9,1.6,1.1,2.7,1c0.4,0,0.8-0.1,1.1-0.2c1-0.4,1.4-1.1,1.5-2.1c0-0.3,0-0.5,0-0.9c-1.1,1-2.3,1.5-3.8,1.1
		c-0.9-0.2-1.7-0.7-2.2-1.5c-1.1-1.6-0.9-3.6,0.5-5c1.5-1.5,3.3-1.4,5.5,0.2c0-0.3,0-0.5,0-0.7c0-0.3,0.1-0.4,0.4-0.4
		c0.7,0,0.7,0,0.7,0.7c0,1.6,0,3.1,0,4.7c0,0.7,0,1.4-0.1,2.1c-0.2,1.3-0.9,2.2-2.2,2.7c-0.1,0-0.3,0-0.2,0.2
		C145.1,71.7,144.2,71.7,143.2,71.7z M144.7,67.9c1.8,0,2.9-1,2.9-2.7c0-1.7-1.2-2.9-2.8-2.9c-1.7,0-3,1.2-3,2.9
		C141.8,66.8,142.9,67.9,144.7,67.9z"/>
	<path class="st0" d="M220.9,36c-0.1,0-0.2,0-0.3,0c-0.3,0-0.4-0.1-0.4-0.4c0-0.7,0-1.4,0.1-2.1c0-0.1,0-0.1,0-0.3
		c-0.4,0.6-0.6,1.1-0.8,1.7c-0.1,0.2-0.2,0.5-0.3,0.7c-0.1,0.2-0.1,0.4-0.4,0.4c-0.2,0-0.3-0.2-0.4-0.4c-0.3-0.6-0.5-1.1-0.8-1.7
		c-0.1-0.2-0.2-0.3-0.3-0.5c0,0.7,0,1.4,0,2.1c0,0.3-0.2,0.5-0.5,0.4c-0.2,0-0.3-0.1-0.3-0.3c0-1,0-2.1,0-3.1c0-0.2,0.1-0.3,0.4-0.3
		c0.1,0,0.2,0,0.3,0c0.3,0,0.5,0.1,0.6,0.4c0.2,0.6,0.5,1.2,0.8,1.8c0,0.1,0.1,0.2,0.2,0.2c0.1,0,0.1-0.1,0.1-0.2
		c0.3-0.5,0.5-1.1,0.8-1.6c0.1-0.3,0.3-0.5,0.7-0.5c0.2,0,0.4,0,0.6,0C220.9,33.6,220.9,34.8,220.9,36z"/>
	<path class="st0" d="M39.1,40.1c0-2.5,0-5,0-7.5c0-0.5,0-0.5,0.6-0.5c1.4,0,2.9-0.1,4.3,0.1c1.7,0.3,2.9,1.2,3.3,2.9
		c0.4,1.4-0.2,3.1-1.5,4c-0.1,0.1-0.3,0.1-0.3,0.3c0,0.2,0.3,0.2,0.4,0.2c1.5,0.6,2.5,1.7,2.7,3.3c0.3,2.5-1.3,4.6-3.8,5.1
		c-0.9,0.2-1.7,0.1-2.6,0.1c-0.9,0-1.8,0-2.6,0c-0.5,0-0.5,0-0.5-0.5C39.1,45.1,39.1,42.6,39.1,40.1z M40.8,43.4
		C40.8,43.4,40.8,43.4,40.8,43.4c0,0.9,0,1.8,0,2.7c0,0.3,0.1,0.4,0.3,0.3c1,0,1.9,0,2.9-0.1c0.8-0.1,1.5-0.3,2.1-0.8
		c0.8-0.8,1.1-1.7,0.8-2.8c-0.4-1.1-1.1-1.9-2.3-2.1c-1.1-0.2-2.3-0.2-3.4-0.2c-0.3,0-0.4,0.1-0.4,0.4
		C40.8,41.7,40.8,42.6,40.8,43.4z M40.8,36.2C40.8,36.2,40.8,36.2,40.8,36.2c0,0.7,0,1.5,0,2.2c0,0.2,0.1,0.3,0.3,0.3
		c0.4,0,0.8,0,1.3,0c0.7-0.1,1.4-0.1,2.1-0.5c0.8-0.5,1.4-1.6,1.2-2.6c-0.1-0.9-0.9-1.6-1.9-1.8c-0.9-0.2-1.8-0.1-2.7-0.1
		c-0.2,0-0.2,0.2-0.2,0.3C40.8,34.8,40.8,35.5,40.8,36.2z"/>
	<path class="st0" d="M85.9,36.2c0,0.1,0,0.3,0,0.4c0,3.6,0,7.3,0,10.9c0,0.5,0,0.5-0.5,0.5c-0.2,0-0.5,0-0.7,0
		c-0.5,0-0.5,0-0.5-0.5c0-1.6,0-3.1,0-4.7c0-3.4,0-6.8,0-10.2c0-0.2-0.1-0.6,0.2-0.7c0.2-0.1,0.4,0.2,0.5,0.4c1.2,1.3,2.3,2.7,3.5,4
		c1.6,1.8,3.2,3.6,4.8,5.5c0.5,0.5,0.9,1.1,1.4,1.6c0.2,0.2,0.3,0.4,0.5,0.5c0.1-0.2,0.1-0.3,0.1-0.4c0-3.7,0-7.4,0-11.1
		c0-0.6,0-0.6,0.6-0.6c1.4,0,1.1-0.1,1.1,1.1c0,4.8,0,9.5,0,14.3c0,0.2,0.1,0.5-0.1,0.6c-0.3,0.1-0.4-0.2-0.6-0.4
		c-1.6-1.8-3.2-3.7-4.8-5.5c-1.7-1.9-3.4-3.9-5-5.8c-0.1-0.1-0.1-0.2-0.2-0.3C86,36.2,86,36.2,85.9,36.2z"/>
	<path class="st0" d="M189.7,40.1c0-2.5,0-5,0-7.5c0-0.5,0-0.5,0.5-0.5c1.7,0,3.4-0.1,5.1,0.1c1.1,0.1,2.2,0.3,3,1
		c1.2,1,1.6,2.4,1.3,3.9c-0.4,1.9-1.8,3.2-3.9,3.4c-0.4,0-0.7,0.1-1.1,0.1c-0.4,0-0.4,0.1-0.2,0.4c0.6,0.8,1.3,1.7,1.9,2.5
		c1.1,1.4,2.2,2.8,3.3,4.2c0.1,0.1,0.2,0.1,0.1,0.3c-0.1,0.1-0.2,0.1-0.3,0.1c0,0-0.1,0-0.1,0c-1.1,0.2-1.8-0.2-2.4-1.1
		c-1.5-2-3.1-4-4.6-6c-0.3-0.4-0.6-0.3-0.9-0.3c-0.2,0-0.2,0.2-0.2,0.4c0,1.2,0,2.3,0,3.5c0,1,0,2.1,0,3.1c0,0.3-0.1,0.5-0.4,0.4
		c-0.3,0-0.5,0-0.8,0c-0.4,0-0.5,0-0.5-0.5c0-1.1,0-2.3,0-3.4C189.7,42.9,189.7,41.5,189.7,40.1C189.7,40.1,189.7,40.1,189.7,40.1z
		 M191.5,36.4C191.5,36.4,191.5,36.4,191.5,36.4c0,0.8,0,1.5,0,2.3c0,0.3,0.1,0.4,0.4,0.4c0.6,0,1.2,0,1.7,0c0.8,0,1.6,0,2.4-0.2
		c1.3-0.3,2.1-1.3,2-2.7c-0.1-1.3-0.9-2.2-2.2-2.4c-1.4-0.1-2.7,0-4.1-0.1c-0.2,0-0.3,0.1-0.3,0.3C191.5,34.9,191.5,35.6,191.5,36.4
		z"/>
	<path class="st0" d="M52.7,40.1c0-2.5,0-5,0-7.5c0-0.5,0-0.6,0.5-0.6c1.7,0,3.4,0,5.1,0.1c1.3,0.1,2.5,0.5,3.5,1.5
		c1.6,1.8,1.4,5.7-2,6.7c-0.7,0.2-1.4,0.3-2.1,0.3c-0.1,0-0.2,0-0.3,0.1c0,0.1,0.1,0.2,0.1,0.3c1.7,2.2,3.5,4.5,5.2,6.7
		c0.1,0.1,0.3,0.2,0.2,0.3c-0.1,0.1-0.2,0.1-0.3,0.1c-0.3,0-0.6,0-0.9,0c-0.5,0.1-0.8-0.2-1.1-0.5c-1.7-2.2-3.4-4.3-5-6.5
		c-0.3-0.4-0.6-0.4-1-0.4c-0.2,0-0.2,0.2-0.2,0.3c0,0.9,0,1.7,0,2.6c0,1.3,0,2.7,0,4c0,0.5,0,0.5-0.5,0.5c-1.4,0-1.2,0.2-1.2-1.1
		C52.7,44.7,52.7,42.4,52.7,40.1z M54.4,36.4c0,0.8,0,1.5,0,2.3c0,0.3,0.1,0.4,0.4,0.4c1,0,2,0,3,0c0.5,0,1.1-0.1,1.6-0.3
		c1.1-0.4,1.8-1.5,1.7-2.7c-0.2-1.3-1-2.1-2.3-2.2c-1.3-0.1-2.7,0-4.1-0.1c-0.3,0-0.3,0.1-0.3,0.4C54.4,34.9,54.4,35.6,54.4,36.4z"
		/>
	<path class="st0" d="M101.8,40.1c0-2.5,0-5,0-7.5c0-0.5,0-0.5,0.5-0.5c2.7,0,5.5,0,8.2,0c0.5,0,0.5,0,0.5,0.5c0,0.2,0,0.5,0,0.7
		c0,0.3-0.1,0.4-0.5,0.4c-2.2,0-4.3,0-6.5,0c-0.6,0-0.6,0-0.6,0.6c0,1.2,0,2.5,0,3.7c0,0.6,0,0.6,0.6,0.6c2.1,0,4.2,0,6.4,0
		c0.5,0,0.6,0,0.6,0.6c0,1.3,0.1,1.1-1.1,1.1c-2,0-4,0-6,0c-0.3,0-0.4,0.1-0.4,0.4c0,1.8,0,3.6,0,5.4c0,0.4,0.1,0.4,0.5,0.4
		c2.2,0,4.3,0,6.5,0c0.5,0,0.5,0,0.5,0.5c0,0.2,0,0.5,0,0.7c0,0.3-0.1,0.4-0.4,0.4c0,0-0.1,0-0.1,0c-2.7,0-5.4,0-8.2,0
		c-0.5,0-0.5,0-0.5-0.5C101.8,45.1,101.8,42.6,101.8,40.1C101.8,40.1,101.8,40.1,101.8,40.1z"/>
	<path class="st0" d="M160.7,40.1c0-2.5,0-5,0-7.5c0-0.4,0.1-0.5,0.5-0.5c2.8,0,5.5,0,8.3,0c0.4,0,0.5,0.1,0.5,0.5
		c0,0.3,0,0.5,0,0.8c0,0.3-0.1,0.4-0.4,0.4c-0.6,0-1.3,0-1.9,0c-1.6,0-3.2,0-4.8,0c-0.3,0-0.5,0.1-0.5,0.4c0,1.3,0,2.7,0,4
		c0,0.3,0.1,0.4,0.4,0.4c2.1,0,4.3,0,6.4,0c0.6,0,0.6,0,0.6,0.6c0,1.3,0.2,1.1-1.1,1.1c-2,0-3.9,0-5.9,0c-0.5,0-0.5,0-0.5,0.5
		c0,1.7,0,3.5,0,5.2c0,0.3,0.1,0.5,0.5,0.5c2.2,0,4.3,0,6.5,0c0.5,0,0.5,0,0.5,0.5c0,0.3,0,0.5,0,0.8c0,0.3-0.1,0.4-0.4,0.4
		c-2.8,0-5.5,0-8.3,0c-0.3,0-0.4-0.1-0.4-0.5C160.7,45.1,160.7,42.6,160.7,40.1z"/>
	<path class="st0" d="M185.9,48.1c-0.6,0.2-0.8-0.2-1.1-0.7c-0.6-1.3-1.3-2.7-1.9-4c-0.2-0.4-0.4-0.5-0.8-0.5c-1.9,0-3.8,0-5.7,0
		c-0.4,0-0.7,0.1-0.9,0.5c-0.7,1.4-1.4,2.9-2,4.3c-0.1,0.3-0.3,0.4-0.5,0.4c-0.4,0-0.7,0-1.1,0c-0.3,0-0.3-0.1-0.2-0.3
		c1.7-3.5,3.3-7,5-10.6c0.7-1.5,1.4-3,2.1-4.5c0.1-0.2,0.2-0.6,0.5-0.6c0.3,0,0.4,0.4,0.5,0.6c1,2.1,2,4.3,3,6.4
		c1.3,2.8,2.6,5.6,3.9,8.3c0.3,0.6,0.3,0.6-0.4,0.6C186.1,48.1,186,48.1,185.9,48.1z M179.2,41.3C179.2,41.3,179.2,41.3,179.2,41.3
		c0.7,0,1.5,0,2.2,0c0.5,0,0.5,0,0.3-0.4c-0.8-1.6-1.5-3.3-2.3-4.9c0-0.1-0.1-0.2-0.2-0.2c-0.1,0-0.2,0.1-0.2,0.2
		c-0.8,1.7-1.6,3.3-2.4,5c-0.1,0.3-0.1,0.4,0.2,0.4C177.7,41.3,178.4,41.3,179.2,41.3z"/>
	<path class="st0" d="M148.1,40.1c0-2.5,0-5,0-7.5c0-0.5,0-0.5,0.5-0.5c1.7,0,3.3,0,5,0.1c1.4,0.1,2.6,0.4,3.5,1.5
		c1.1,1.3,1.2,2.7,0.7,4.3c-0.5,1.5-1.8,2.3-3.3,2.5c-1.4,0.2-2.8,0.2-4.3,0.2c-0.4,0-0.5,0.1-0.5,0.5c0,2.1,0,4.3,0,6.4
		c0,0.5,0,0.5-0.5,0.5c-0.2,0-0.5,0-0.7,0c-0.4,0-0.5-0.1-0.5-0.5C148.1,45.1,148.1,42.6,148.1,40.1z M152,33.8c-0.7,0-1.3,0-1.9,0
		c-0.3,0-0.4,0.1-0.4,0.4c0,1.5,0,3.1,0,4.6c0,0.3,0.1,0.4,0.4,0.3c0.6,0,1.2,0,1.7,0c0.8,0,1.6,0,2.4-0.2c1.3-0.3,2.1-1.3,2-2.7
		c-0.1-1.3-1-2.2-2.3-2.4C153.3,33.7,152.6,33.8,152,33.8z"/>
	<path class="st0" d="M207.2,48.5c-1.8,0-3.2-0.8-4.2-2.2c-0.2-0.3-0.4-0.6-0.6-0.9c-0.2-0.2-0.1-0.4,0.1-0.5
		c0.3-0.1,0.5-0.3,0.8-0.5c0.3-0.2,0.4-0.1,0.6,0.1c0.2,0.5,0.5,0.9,0.9,1.3c1.1,1.2,2.7,1.4,4,0.4c1-0.8,1.3-2.1,0.8-3.2
		c-0.4-0.8-1.1-1.4-1.7-1.9c-0.9-0.7-1.8-1.4-2.6-2.1c-0.9-0.7-1.6-1.6-1.8-2.8c-0.4-2.1,0.9-4,3.1-4.4c1.3-0.3,2.5,0.1,3.5,1
		c0.5,0.4,0.8,0.8,1.2,1.3c0.2,0.2,0.2,0.4-0.1,0.5c-0.3,0.2-0.5,0.4-0.8,0.6c-0.2,0.2-0.3,0.1-0.5-0.1c-0.3-0.4-0.6-0.8-1-1.1
		c-0.8-0.7-1.7-0.8-2.7-0.4c-1.2,0.5-1.6,2.2-0.7,3.3c0.5,0.7,1.2,1.2,1.9,1.7c1,0.7,2,1.4,2.8,2.3c0.8,0.9,1.4,1.9,1.4,3.1
		c0.1,2.1-1.6,4.1-3.7,4.4C207.7,48.5,207.4,48.5,207.2,48.5z"/>
	<path class="st0" d="M139.8,48.5c-1.4,0-2.6-0.6-3.6-1.8c-0.3-0.4-0.6-0.9-0.9-1.3c-0.1-0.2-0.1-0.4,0.1-0.5
		c0.3-0.1,0.5-0.3,0.8-0.5c0.2-0.2,0.4-0.1,0.5,0.1c0.3,0.6,0.7,1.1,1.2,1.5c1.3,1.2,3.3,1,4.3-0.2c0.7-0.9,0.7-2.3,0-3.2
		c-0.8-1-1.8-1.8-2.8-2.6c-0.8-0.6-1.7-1.2-2.3-2c-1-1.3-1.3-2.7-0.5-4.2c0.7-1.5,2-2.1,3.7-2.1c1.1,0,2,0.5,2.8,1.2
		c0.4,0.4,0.7,0.8,1,1.2c0.1,0.2,0.1,0.3,0,0.4c-0.3,0.2-0.5,0.4-0.8,0.6c-0.2,0.2-0.4,0.2-0.6-0.1c-0.2-0.4-0.6-0.7-0.9-0.9
		c-0.6-0.5-1.3-0.7-2.1-0.6c-1.9,0.3-2.1,2.2-1.4,3.3c0.4,0.6,0.9,1,1.4,1.4c1.2,0.9,2.4,1.7,3.4,2.8c0.6,0.6,1,1.4,1.3,2.2
		c0.4,1.6-0.1,2.9-1.3,4.1C142.2,48.1,141.1,48.5,139.8,48.5z"/>
	<path class="st0" d="M118,44.2c0-1.1,0-2.2,0-3.3c0-0.3-0.1-0.5-0.2-0.8c-1.6-2.5-3.1-5-4.7-7.6c-0.1-0.1-0.2-0.2-0.1-0.3
		c0.1-0.2,0.2-0.1,0.4-0.1c1.7,0,1.2-0.2,2.1,1.2c1,1.7,2.1,3.3,3.1,5c0,0.1,0.1,0.1,0.1,0.2c0.1,0.2,0.2,0.2,0.3,0
		c1-1.6,2-3.3,3-4.9c0.2-0.4,0.4-0.7,0.7-1.1c0.1-0.1,0.2-0.2,0.3-0.3c0.5-0.1,0.9,0,1.4,0c0.2,0,0.2,0.2,0.1,0.3
		c-1.5,2.5-3.1,5-4.6,7.6c-0.2,0.3-0.3,0.6-0.3,0.9c0,2.3,0,4.5,0,6.8c0,0.4-0.1,0.5-0.4,0.4c-0.3,0-0.5,0-0.8,0
		c-0.3,0-0.4-0.1-0.4-0.4C118,46.5,118,45.4,118,44.2C118,44.2,118,44.2,118,44.2z"/>
	<path class="st0" d="M75.5,40.9c0-2.2,0-4.4,0-6.6c0-0.5,0-0.5-0.5-0.5c-0.8,0-1.7,0-2.5,0c-0.5,0-0.5,0-0.5-0.5c0-0.2,0-0.4,0-0.7
		c0-0.5,0-0.5,0.5-0.5c0.7,0,1.4,0,2.2,0c1.9,0,3.7,0,5.6,0c0.5,0,0.5,0,0.6,0.6c0,0.2,0,0.5,0,0.7c0,0.3-0.1,0.4-0.4,0.4
		c-0.8,0-1.7,0-2.5,0c-0.6,0-0.6,0-0.6,0.6c0,4.2,0,8.4,0,12.5c0,0.3,0,0.6,0,0.9c0,0.2-0.1,0.4-0.4,0.4c-0.3,0-0.7,0-1,0
		c-0.3,0-0.4-0.1-0.4-0.4c0-0.8,0-1.5,0-2.3C75.5,43.9,75.5,42.4,75.5,40.9z"/>
	<path class="st0" d="M68.3,40.2c0,2.5,0,5,0,7.5c0,0.5,0,0.5-0.5,0.5c-0.3,0-0.5,0-0.8,0c-0.2,0-0.4-0.1-0.4-0.4c0-0.1,0-0.2,0-0.4
		c0-4.9,0-9.8,0-14.8c0-0.5,0-0.5,0.5-0.5c0.2,0,0.5,0,0.7,0c0.3,0,0.4,0.1,0.4,0.5c0,1.6,0,3.3,0,4.9
		C68.3,38.4,68.3,39.3,68.3,40.2z"/>
	<path class="st0" d="M81.1,65.2c-1,0-1.9,0-2.9,0c-0.3,0-0.4,0.1-0.4,0.4C78,67.1,79,67.8,80,68c1.3,0.3,2.5-0.2,3.2-1.3
		c0.2-0.3,0.3-0.3,0.8-0.1c0.3,0.2,0.2,0.4,0,0.6c-0.8,1.5-2.6,2.1-4.2,1.8c-1.6-0.3-2.8-1.6-3-3.3c-0.3-2.5,1.5-4.6,4-4.5
		c2,0.1,3.6,1.7,3.7,3.7c0,0.3-0.1,0.4-0.4,0.4C83.1,65.2,82.1,65.2,81.1,65.2z M80.6,64.3C80.6,64.3,80.6,64.3,80.6,64.3
		c0.8,0,1.5,0,2.3,0c0.4,0,0.4-0.1,0.3-0.4c-0.4-1.1-1.4-1.7-2.6-1.7c-1.2,0-2.1,0.6-2.6,1.7c-0.1,0.3-0.1,0.4,0.3,0.4
		C79.1,64.3,79.8,64.3,80.6,64.3z"/>
	<path class="st0" d="M102.6,65.2c-1,0-1.9,0-2.9,0c-0.3,0-0.4,0.1-0.4,0.4c0.2,1.3,1,2.1,2.1,2.3c1.3,0.3,2.5-0.2,3.2-1.3
		c0.2-0.4,0.3-0.4,0.8-0.1c0.3,0.2,0.2,0.4,0,0.6c-0.8,1.5-2.6,2.1-4.2,1.8c-1.6-0.3-2.8-1.6-3-3.3c-0.3-2.5,1.5-4.6,3.9-4.5
		c2,0.1,3.6,1.6,3.7,3.7c0,0.3-0.1,0.4-0.4,0.4C104.5,65.2,103.5,65.2,102.6,65.2z M102.1,64.3C102.1,64.3,102.1,64.3,102.1,64.3
		c0.8,0,1.5,0,2.3,0c0.3,0,0.4-0.1,0.3-0.4c-0.4-1.1-1.4-1.7-2.6-1.7c-1.2,0-2.2,0.7-2.6,1.7c-0.1,0.3,0,0.4,0.3,0.4
		C100.5,64.3,101.3,64.3,102.1,64.3z"/>
	<path class="st0" d="M161.2,62.6c0-0.3,0-0.5,0-0.8c0-0.3,0.1-0.4,0.5-0.4c0.1,0,0.1,0,0.2,0c0.4,0,0.4,0.2,0.4,0.4
		c0,1.3,0,2.6,0,3.8c0,0.9,0,1.8,0,2.7c0,0.4-0.2,0.5-0.5,0.5c-0.3,0-0.5-0.1-0.5-0.4c0-0.2,0.1-0.4,0-0.7c-1.1,1.1-2.3,1.6-3.8,1.2
		c-0.9-0.2-1.7-0.8-2.2-1.5c-1.2-1.7-0.9-3.9,0.7-5.3C157.1,61,159.4,60.6,161.2,62.6z M158.3,68.1c1.7,0,2.9-1.2,2.9-2.9
		c0-1.7-1.2-3-2.9-3c-1.6,0-2.8,1.1-2.9,3C155.5,66.8,156.8,68.1,158.3,68.1z"/>
	<path class="st0" d="M185.9,65.2c-1,0-2,0-2.9,0c-0.3,0-0.4,0.1-0.3,0.4c0.2,1.2,0.9,2.1,2,2.4c1.2,0.3,2.4-0.2,3.1-1.1
		c0,0,0.1-0.1,0.1-0.2c0.3-0.4,0.7-0.4,1,0c0.1,0.2,0,0.3-0.1,0.4c-0.9,1.5-2.4,2.2-4.2,1.9c-1.5-0.3-2.6-1.4-3-3.1
		c-0.3-1.5,0.4-3.2,1.7-4.1c1.3-0.9,3.1-0.8,4.4,0.1c1,0.7,1.5,1.8,1.6,3.1c0,0.3-0.2,0.2-0.4,0.2C187.8,65.2,186.8,65.2,185.9,65.2
		z M185.4,64.3C185.4,64.3,185.4,64.3,185.4,64.3c0.8,0,1.6,0,2.4,0c0.2,0,0.4,0,0.3-0.3c-0.4-1.1-1.4-1.8-2.6-1.8
		c-1.3,0-2.2,0.6-2.6,1.7c-0.2,0.4-0.1,0.4,0.3,0.4C183.9,64.3,184.6,64.3,185.4,64.3z"/>
	<path class="st0" d="M107.2,61.4c0.3-0.1,0.5,0.1,0.6,0.5c0.6,1.5,1.2,2.9,1.8,4.4c0,0.1,0.1,0.3,0.2,0.3c0.1,0,0.1-0.2,0.2-0.3
		c0.6-1.5,1.3-2.9,1.9-4.4c0-0.1,0.1-0.1,0.1-0.2c0.1-0.1,0.1-0.3,0.2-0.2c0.1,0,0.1,0.2,0.2,0.3c0.6,1.5,1.3,2.9,1.9,4.4
		c0.1,0.2,0.1,0.5,0.3,0.5c0.2,0,0.2-0.3,0.3-0.5c0.6-1.4,1.2-2.9,1.9-4.3c0.1-0.3,0.8-0.5,1.1-0.3c0.2,0.1,0,0.2,0,0.4
		c-0.5,1.1-0.9,2.1-1.4,3.2c-0.5,1.2-1,2.4-1.6,3.6c-0.1,0.1-0.1,0.3-0.3,0.3c-0.1,0-0.2-0.2-0.2-0.3c-0.7-1.5-1.3-3-2-4.5
		c0-0.1-0.1-0.3-0.2-0.3c-0.2,0-0.2,0.2-0.2,0.3c-0.7,1.5-1.3,3-2,4.5c-0.1,0.1-0.1,0.3-0.2,0.3c-0.2,0-0.2-0.2-0.2-0.3
		c-1-2.2-1.9-4.4-2.9-6.6C106.6,61.4,106.6,61.4,107.2,61.4z"/>
	<path class="st0" d="M139.1,65.1c0,1.1,0,2.2,0,3.3c0,0.4-0.2,0.5-0.5,0.5c-0.3,0-0.5,0-0.5-0.4c0-0.2,0.1-0.5-0.1-0.6
		c-0.2-0.1-0.3,0.2-0.5,0.3c-2.2,1.9-5.6,0.6-6.2-2.3c-0.4-2.5,1.4-4.7,3.9-4.7c1,0,1.8,0.4,2.5,1.1c0.1,0.1,0.1,0.3,0.3,0.2
		c0.1-0.1,0.1-0.2,0.1-0.3c0,0,0,0,0-0.1c0-0.7,0.2-0.8,0.9-0.6c0.2,0.1,0.2,0.2,0.2,0.4C139.1,62.9,139.1,64,139.1,65.1
		C139.1,65.1,139.1,65.1,139.1,65.1z M138.1,65.2c0-1.8-1.2-3-2.9-3c-1.6,0-2.8,1.3-2.8,3.1c0,1.6,1.3,2.8,2.8,2.8
		C137,68.1,138.1,66.9,138.1,65.2z"/>
	<path class="st0" d="M69.7,62.5c0.5-0.5,1-0.9,1.6-1.1c1.9-0.7,3.5,0.3,3.8,2.3c0.2,1.6,0.1,3.3,0.1,4.9c0,0.2-0.1,0.3-0.3,0.3
		c0,0,0,0-0.1,0c-0.7,0-0.7,0-0.7-0.7c0-1.3,0-2.5,0-3.8c0-0.3,0-0.6-0.1-0.9c-0.2-0.8-0.8-1.3-1.6-1.3c-1.5,0-2.5,0.9-2.7,2.4
		c-0.1,1.3,0,2.5-0.1,3.8c0,0.2,0.1,0.4-0.1,0.5c-0.2,0.1-0.5,0.1-0.8,0c-0.2-0.1-0.1-0.3-0.1-0.4c0-2.3,0-4.6,0-6.9
		c0-0.8,0-1.7,0-2.5c0-0.4,0.2-0.4,0.5-0.4c0.3,0,0.5,0,0.5,0.4c0,1,0,2.1,0,3.1C69.6,62.2,69.6,62.3,69.7,62.5z"/>
	<path class="st0" d="M91.1,62.5c0.1,0,0.2-0.1,0.3-0.2c1-1,2.5-1.3,3.6-0.7c0.9,0.5,1.4,1.3,1.5,2.3c0.1,1.2,0,2.4,0.1,3.7
		c0,0.3,0,0.7,0,1c0,0.3-0.1,0.5-0.4,0.4c-0.1,0-0.1,0-0.2,0c-0.3,0-0.4-0.1-0.4-0.4c0-1.3,0-2.7,0-4c0-0.4,0-0.8-0.2-1.2
		c-0.2-0.6-0.7-1-1.4-1.1c-1.6-0.2-2.8,1.1-2.8,2.8c0,1.1,0,2.3,0,3.4c0,0.4,0,0.5-0.5,0.5c-0.5,0-0.5,0-0.5-0.5c0-2.2,0-4.4,0-6.6
		c0-0.3,0.1-0.4,0.4-0.4c0.6,0,0.6,0,0.6,0.4C91.1,62,91.1,62.2,91.1,62.5C91.1,62.4,91.1,62.4,91.1,62.5z"/>
	<path class="st0" d="M164.3,65.1c0-1.1,0-2.2,0-3.3c0-0.3,0-0.5,0.4-0.5c0.6,0,0.6,0,0.6,0.5c0,0.2-0.1,0.5,0.1,0.6
		c0.2,0.1,0.3-0.2,0.5-0.4c1.2-1.1,2.8-1.1,3.9-0.2c0.4,0.4,0.7,0.8,0.8,1.4c0.1,0.5,0.2,0.9,0.2,1.4c0,1.2,0,2.5,0,3.7
		c0,0.4-0.2,0.4-0.5,0.4c-0.3,0-0.5-0.1-0.5-0.5c0-1.2,0-2.4,0-3.7c0-0.4,0-0.9-0.2-1.3c-0.2-0.8-0.8-1.2-1.6-1.2
		c-1.6-0.1-2.6,1.3-2.7,2.5c-0.1,1.2,0,2.5-0.1,3.7c0,0.2,0.1,0.4-0.1,0.5c-0.2,0.1-0.5,0.1-0.8,0c-0.1-0.1-0.1-0.2-0.1-0.4
		C164.3,67.3,164.3,66.2,164.3,65.1C164.3,65.1,164.3,65.1,164.3,65.1z"/>
	<path class="st0" d="M172.5,65.2c0-2.4,2.1-4.2,4.6-3.9c1,0.1,1.9,0.5,2.6,1.2c0.4,0.4,0.3,0.8-0.3,0.9c-0.2,0-0.3-0.1-0.4-0.2
		c-0.9-1-2.1-1.2-3.4-0.9c-1.3,0.3-2.3,1.7-2.2,3c0.1,1.4,1.1,2.5,2.4,2.7c1.2,0.2,2.3-0.1,3.1-1c0.2-0.2,0.5-0.1,0.8,0.2
		c0.2,0.2,0,0.3-0.1,0.4c-1.8,2-5.3,1.9-6.8-0.5C172.7,66.6,172.5,66,172.5,65.2z"/>
	<path class="st0" d="M64,64.3c0-1.3,0-2.7,0-4c0-0.5,0-0.5-0.5-0.5c-0.5,0-0.9,0-1.4,0c-0.3,0-0.4-0.1-0.4-0.4c0-0.1,0-0.2,0-0.3
		c0-0.3,0.1-0.4,0.4-0.4c1.6,0,3.3,0,4.9,0c0.3,0,0.4,0.1,0.4,0.4c0,0.1,0,0.2,0,0.3c0,0.3-0.1,0.5-0.4,0.4c-0.4,0-0.9,0-1.3,0
		c-0.5,0-0.5,0-0.5,0.5c0,2.7,0,5.3,0,8c0,0.1,0,0.2,0,0.3c0,0.1,0,0.2,0,0.2c-0.3,0.2-0.6,0.1-0.9,0.1c-0.2,0-0.2-0.2-0.2-0.3
		c0-0.1,0-0.2,0-0.3C64,66.9,64,65.6,64,64.3C64,64.3,64,64.3,64,64.3z"/>
	<path class="st0" d="M124.6,65.6c0,1,0,1.9,0,2.9c0,0.3-0.1,0.4-0.4,0.4c-0.6,0-0.6,0-0.6-0.4c0-1.9,0-3.8,0-5.7
		c0-0.5,0-0.5-0.5-0.5c-0.3,0-0.5,0-0.5-0.4c0-0.4,0.1-0.5,0.5-0.5c0.5,0,0.5,0,0.5-0.5c0-0.4,0-0.9,0.1-1.3
		c0.1-0.7,0.5-1.1,1.1-1.2c0.4-0.1,0.8,0,1.2,0.1c0.3,0.1,0.4,0.8,0.2,1c-0.1,0-0.1,0-0.2,0c-0.1,0-0.2-0.1-0.3-0.1
		c-0.8-0.2-1.1,0.1-1.1,0.8c0,0.1,0,0.2,0,0.3c0,0.9-0.1,0.8,0.8,0.8c0.1,0,0.1,0,0.2,0c0.5,0,0.7,0.3,0.5,0.7
		c-0.1,0.1-0.2,0.1-0.3,0.1c-0.3,0-0.6,0-0.9,0c-0.3,0-0.4,0.1-0.4,0.4C124.6,63.6,124.6,64.6,124.6,65.6
		C124.6,65.6,124.6,65.6,124.6,65.6z"/>
	<path class="st0" d="M127.1,65.1c0-1.1,0-2.2,0-3.3c0-0.3,0.1-0.5,0.4-0.5c0.6,0,0.6,0,0.6,0.5c0,0,0,0.1,0,0.1
		c0,0.1,0,0.2,0.1,0.2c0.1,0,0.1-0.1,0.2-0.1c0.3-0.4,0.8-0.7,1.3-0.8c0.3-0.1,0.6,0,0.9,0.1c0.2,0.1,0.2,0.2,0.2,0.3
		c-0.2,0.5-0.3,0.6-0.8,0.6c-0.6,0-1,0.3-1.3,0.8c-0.3,0.5-0.4,1-0.4,1.5c-0.1,1.3-0.1,2.5-0.1,3.8c0,0.2,0.1,0.4-0.1,0.5
		c-0.3,0.1-0.6,0.1-0.8,0c-0.1-0.1-0.1-0.2-0.1-0.4C127.1,67.3,127.1,66.2,127.1,65.1z"/>
	<path class="st0" d="M150.2,65.1c0-1.1,0-2.2,0-3.3c0-0.3,0.1-0.5,0.4-0.5c0.6,0,0.6,0,0.6,0.5c0,0,0,0.1,0,0.1
		c0,0.1,0,0.2,0.1,0.2c0.1,0.1,0.2-0.1,0.2-0.1c0.6-0.6,1.2-1,2-0.8c0.4,0.1,0.4,0.2,0.3,0.6c-0.2,0.3-0.4,0.5-0.8,0.4
		c-0.7-0.1-1.1,0.4-1.4,0.9c-0.2,0.4-0.4,0.9-0.4,1.4c0,1.3-0.1,2.5-0.1,3.8c0,0.5,0,0.5-0.6,0.5c-0.4,0-0.4-0.2-0.4-0.5
		C150.2,67.3,150.2,66.2,150.2,65.1z"/>
	<path class="st0" d="M213.9,34.5c0-0.4,0-0.8,0-1.1c0-0.2-0.1-0.3-0.3-0.3c-0.2,0-0.4,0-0.6,0c-0.2,0-0.4-0.1-0.4-0.4
		c0-0.2,0.2-0.3,0.4-0.3c0.9-0.1,1.8,0,2.6,0c0.2,0,0.3,0.1,0.3,0.3c0,0.2,0,0.3-0.2,0.3c-0.1,0-0.1,0-0.2,0c-0.8,0-0.7,0-0.7,0.7
		c0,0.6,0,1.2,0,1.8c0,0.3,0,0.5-0.4,0.5c-0.4,0-0.4-0.2-0.4-0.5C213.9,35.2,213.9,34.9,213.9,34.5
		C213.9,34.5,213.9,34.5,213.9,34.5z"/>
</g>
</svg>
