<?xml version="1.0" encoding="utf-8"?>
<!-- Generator: $$$/GeneralStr/196=Adobe Illustrator 27.6.0, SVG Export Plug-In . SVG Version: 6.00 Build 0)  -->
<svg version="1.1" id="Capa_1" xmlns="http://www.w3.org/2000/svg" xmlns:xlink="http://www.w3.org/1999/xlink" x="0px" y="0px"
	 viewBox="0 0 250 100" style="enable-background:new 0 0 250 100;" xml:space="preserve">
<style type="text/css">
	.st0{fill-rule:evenodd;clip-rule:evenodd;fill:#777777;}
</style>
<path class="st0" d="M178.2,64.4L169.6,52c0-0.1-0.1-0.1-0.1-0.2c0-0.1,0-0.1,0-0.2c0-0.1,0.1-0.1,0.1-0.2c0,0,0.1-0.1,0.2-0.1
	c1.9-0.6,3.6-1.9,4.8-3.5c1.2-1.7,1.8-3.6,1.8-5.7c0,0,0.6-10.3-11.8-10.3c-3.6-0.1-7.2,0.7-10.5,2.2v0.5c0.6,0.2,1,0.6,1.4,1
	c0.3,0.5,0.5,1,0.6,1.6v27.1c0,0.5-0.1,1.1-0.3,1.6c-0.3,0.5-0.6,0.9-1.1,1.1v0.7h7.5v-0.7c0,0-1.1-0.7-1.1-2.7V52.6
	c0-0.2,0.1-0.3,0.2-0.5c0.1-0.1,0.3-0.2,0.5-0.2h1.5c0.2,0,0.3,0,0.5,0.1c0.2,0.1,0.3,0.2,0.4,0.3l10.5,15c0.1,0.1,0.1,0.2,0.2,0.2
	c0.1,0,0.2,0.1,0.3,0.1h5.9V67C180,66.4,179,65.5,178.2,64.4L178.2,64.4z M163.7,49.3h-1.9c-0.2,0-0.3-0.1-0.5-0.2
	c-0.1-0.1-0.2-0.3-0.2-0.5V36.2c0-0.3,0.1-0.5,0.3-0.7c0.2-0.2,0.4-0.3,0.7-0.4c0.7-0.1,1.4-0.1,2.1-0.2c4.2,0,6.9,2.6,6.9,7.1
	C171,47.2,168.1,49.3,163.7,49.3z M84.6,52l8.7,12.4v0c0.7,1.1,1.7,2,2.9,2.7v0.7h-5.9c-0.1,0-0.2,0-0.3-0.1c-0.1,0-0.2-0.1-0.2-0.2
	l-10.5-15c-0.1-0.1-0.2-0.3-0.4-0.3C78.7,52,78.5,52,78.3,52h-1.5c-0.2,0-0.3,0.1-0.5,0.2c-0.1,0.1-0.2,0.3-0.2,0.5v11.8
	c0,2,1.1,2.7,1.1,2.7v0.7h-7.5v-0.7c0.5-0.3,0.8-0.7,1.1-1.1c0.3-0.5,0.4-1,0.3-1.5V37.2c0-0.6-0.2-1.2-0.6-1.6
	c-0.3-0.5-0.8-0.8-1.4-1V34c3.3-1.5,6.9-2.3,10.5-2.2c12.4,0,11.8,10.3,11.8,10.3c0,2-0.6,4-1.8,5.7c-1.2,1.7-2.9,2.9-4.8,3.5
	c-0.1,0-0.1,0.1-0.2,0.1c0,0-0.1,0.1-0.1,0.2c0,0.1,0,0.1,0,0.2C84.5,51.9,84.6,52,84.6,52z M76.8,49.3h1.9c4.4,0,7.4-2.1,7.4-7.1
	c0-4.5-2.7-7.1-6.9-7.1c-0.7,0-1.4,0.1-2.2,0.2c-0.3,0-0.5,0.2-0.7,0.4c-0.2,0.2-0.3,0.5-0.3,0.7v12.4c0,0.2,0.1,0.3,0.2,0.5
	C76.4,49.2,76.6,49.3,76.8,49.3z M30.5,48.6c0,0.1,0.1,0.1,0.2,0.1v0c3.4,1.5,5.8,4.7,5.8,9.1c0,6.3-4.6,9.9-10.2,9.9H12.6v-0.7
	c0.5-0.3,0.8-0.7,1.1-1.1c0.3-0.5,0.4-1,0.3-1.5V37.5c0-0.6-0.2-1.2-0.6-1.6c-0.3-0.5-0.8-0.8-1.4-1v-0.5c2.3-1.4,6-2.5,10.4-2.5
	c11.4,0,10.8,9.5,10.8,9.5c0,1.2-0.2,2.5-0.7,3.6c-0.5,1.2-1.2,2.2-2.1,3.1c-0.1,0-0.1,0.1-0.1,0.2c0,0.1,0,0.1,0,0.2
	C30.4,48.4,30.4,48.5,30.5,48.6z M19.3,35.3c-0.2,0.2-0.3,0.5-0.3,0.7h0v11.1c0,0.2,0.1,0.3,0.2,0.5c0.1,0.1,0.3,0.2,0.5,0.2h2.4
	c4,0,6.6-2.1,6.6-6.3s-2.5-6.6-6.4-6.6c-0.8,0-1.5,0.1-2.3,0.2C19.7,35,19.5,35.2,19.3,35.3z M19.9,65h3.9l0,0
	c4.3,0,7.1-2.7,7.1-7.3c0-4.6-2.8-7.3-7.1-7.3h-4.1c-0.2,0-0.3,0.1-0.5,0.2c-0.1,0.1-0.2,0.3-0.2,0.5v13c0,0.2,0.1,0.4,0.3,0.6
	C19.5,64.9,19.7,65,19.9,65z M117.6,48.7c-0.1,0-0.1-0.1-0.2-0.1c0-0.1-0.1-0.1-0.1-0.2s0-0.1,0-0.2c0-0.1,0.1-0.1,0.1-0.2
	c0.9-0.9,1.6-1.9,2.1-3.1c0.5-1.2,0.7-2.4,0.7-3.6c0,0,0.6-9.5-10.8-9.5c-4.4,0-8.1,1.1-10.4,2.5v0.5c0.6,0.2,1,0.5,1.4,1
	c0.3,0.5,0.5,1,0.6,1.6v26.9c0,0.5-0.1,1.1-0.3,1.6c-0.3,0.5-0.6,0.9-1.1,1.1v0.7h13.5c5.7,0,10.2-3.7,10.2-9.9
	C123.3,53.4,121,50.2,117.6,48.7L117.6,48.7z M106,36.1c0-0.3,0.1-0.5,0.3-0.7c0.2-0.2,0.4-0.3,0.7-0.4c0.8-0.1,1.5-0.2,2.3-0.2
	c3.9,0,6.4,2.4,6.4,6.6s-2.7,6.3-6.6,6.3h-2.4c-0.2,0-0.3-0.1-0.5-0.2c-0.1-0.1-0.2-0.3-0.2-0.5L106,36.1L106,36.1z M110.8,65h-3.9
	c-0.1,0-0.2,0-0.3-0.1c-0.1,0-0.2-0.1-0.3-0.2c-0.1-0.1-0.1-0.2-0.2-0.3s-0.1-0.2-0.1-0.3v-13c0-0.2,0.1-0.3,0.2-0.5
	c0.1-0.1,0.3-0.2,0.5-0.2h4.1c4.3,0,7.1,2.7,7.1,7.3C117.9,62.3,115,65,110.8,65L110.8,65z M59,33v-0.7h6V33
	c-0.5,0.3-0.8,0.7-1.1,1.1c-0.3,0.5-0.4,1-0.3,1.5v22.2c0,6.6-3.6,10.3-10.7,10.3c-7,0-11.5-3.7-11.5-10.3V35.7
	c0-0.5-0.1-1.1-0.3-1.5c-0.3-0.5-0.6-0.9-1.1-1.1v-0.7h7.5V33c0,0-1.1,0.7-1.1,2.7V57c0,5.6,2.1,8,6.8,8c4.7,0,6.9-2.3,6.9-7.4v-22
	C60.1,33.7,59,33,59,33z M199.5,52l8.7,12.4v0c0.7,1.1,1.7,2,2.9,2.7v0.7h-5.9c-0.1,0-0.2,0-0.3-0.1c-0.1,0-0.2-0.1-0.2-0.2
	l-10.5-15c-0.1-0.1-0.2-0.3-0.4-0.3c-0.2-0.1-0.3-0.1-0.5-0.1h-1.5c-0.2,0-0.3,0.1-0.5,0.2c-0.1,0.1-0.2,0.3-0.2,0.5v11.8
	c0,2,1.1,2.7,1.1,2.7v0.7h-7.5v-0.7c0.5-0.3,0.8-0.7,1.1-1.1c0.3-0.5,0.4-1,0.3-1.6V37.2c0-0.6-0.2-1.2-0.6-1.6
	c-0.3-0.5-0.8-0.8-1.4-1V34c3.3-1.5,6.9-2.3,10.5-2.2c12.4,0,11.8,10.3,11.8,10.3c0,2-0.6,4-1.8,5.7c-1.2,1.7-2.9,2.9-4.8,3.5
	c-0.1,0-0.1,0.1-0.2,0.1c0,0-0.1,0.1-0.1,0.2c0,0.1,0,0.1,0,0.2C199.5,51.9,199.5,52,199.5,52z M191.7,49.3h1.9
	c4.4,0,7.4-2.1,7.4-7.1c0-4.5-2.7-7.1-6.9-7.1c-0.7,0-1.4,0.1-2.1,0.2c-0.3,0-0.5,0.2-0.7,0.4c-0.2,0.2-0.3,0.5-0.3,0.7v12.4
	c0,0.2,0.1,0.3,0.2,0.5C191.4,49.2,191.5,49.3,191.7,49.3z M231.1,32.3V33c0,0,1.4,0.5,0.2,2.7l-6.7,12.1c0,0.1-0.1,0.1-0.2,0.2
	c-0.1,0-0.1,0.1-0.2,0.1c-0.1,0-0.2,0-0.2-0.1c-0.1,0-0.1-0.1-0.2-0.2l-6.7-12.1c-1.2-2.2,0.2-2.7,0.2-2.7v-0.7h-8.8v0.7
	c1.2,0.5,2.3,1.5,2.9,2.7l9.1,16.3c0.2,0.3,0.2,0.6,0.2,0.9v11.6c0,0.5-0.1,1.1-0.3,1.6c-0.3,0.5-0.6,0.9-1.1,1.1v0.7h7.8v-0.7
	c-0.5-0.3-0.8-0.7-1.1-1.1c-0.3-0.5-0.4-1-0.3-1.6V52.8c0-0.3,0.1-0.7,0.2-0.9l9.1-16.3c0.6-1.2,1.7-2.1,2.9-2.7v-0.7L231.1,32.3z
	 M135.7,65h10.7c0.5,0,1.1-0.1,1.6-0.3c0.5-0.3,0.9-0.6,1.2-1.1h0.7v4.1h-21.4v-0.7c0.5-0.3,0.8-0.7,1.1-1.1c0.3-0.5,0.4-1,0.3-1.5
	V35.7c0-0.5-0.1-1.1-0.3-1.5c-0.3-0.5-0.6-0.9-1.1-1.1v-0.7h19.9v4.1h-0.7c-0.3-0.5-0.7-0.8-1.2-1.1c-0.5-0.2-1-0.4-1.6-0.3h-9.3
	c-0.2,0-0.5,0.1-0.6,0.3c-0.2,0.2-0.3,0.4-0.3,0.6v11.3c0,0.2,0.1,0.3,0.2,0.5c0.1,0.1,0.3,0.2,0.5,0.2h5.9c2,0,2.7-1.1,2.7-1.1h0.7
	v5H144c0,0-0.7-1.1-2.7-1.1h-5.8c-0.2,0-0.3,0.1-0.5,0.2c-0.1,0.1-0.2,0.3-0.2,0.5v12.9c0,0.2,0.1,0.5,0.3,0.6
	C135.2,64.9,135.4,65,135.7,65z"/>
</svg>
