<?xml version="1.0" encoding="utf-8"?>
<!-- Generator: $$$/GeneralStr/196=Adobe Illustrator 27.6.0, SVG Export Plug-In . SVG Version: 6.00 Build 0)  -->
<svg version="1.1" id="Capa_1" xmlns="http://www.w3.org/2000/svg" xmlns:xlink="http://www.w3.org/1999/xlink" x="0px" y="0px"
	 viewBox="0 0 250 100" style="enable-background:new 0 0 250 100;" xml:space="preserve">
<style type="text/css">
	.st0{fill-rule:evenodd;clip-rule:evenodd;fill:#777777;}
</style>
<path class="st0" d="M217.4,57.4V58h-5.9v-0.6c1.6,0,1.5-0.5,1.5-2.5V43.8c0-0.9,0-1.5-0.1-1.7c-0.2-0.7-0.5-0.7-1.5-0.7v-0.5h6v0.5
	c-1.6,0-1.5,0.5-1.5,2.5v11.1C215.8,56.8,215.8,57.4,217.4,57.4L217.4,57.4z M199.5,58.1c-6.4,0-5.9-1-6.9-2.5
	c-1.2-1.8-2.2-4.4-4.4-4.4c-0.6,0-2.6,0-2.8,0c-1,0-1.6,0-2.2,0v5.1c0,1.2,0.6,1.2,1.6,1.2v0.6h-6v-0.6c0.9,0,1.5,0,1.5-0.9V44.5
	v-1.2c0-1.2-0.5-1.6-1.5-1.6v-0.5h7.8c2.6,0,4.4-0.1,5.5,0.2c2.7,0.6,4.3,2,4.4,4.2c0,2.2-1.1,4.2-5.4,4.9c2.8,0.4,3.1,1.6,4.2,3.4
	c1.1,2.1,1.7,3.7,4.4,3.7C199.5,57.8,199.5,58,199.5,58.1L199.5,58.1z M183,49.5c2.2,0,5.4,0.1,7.4-0.4c1.1-0.4,2.6-1,2.6-3.4
	c0-1.7-0.9-2.2-1.8-2.7c-2-0.9-5.7-0.6-8.1-0.6L183,49.5L183,49.5z M162.1,53.8h-10.2l-1,1.7c-0.4,0.6-0.6,1.1-0.6,1.4
	c0,0.9,0.5,1,1.4,0.9v0.6h-5.3v-0.5c1.1,0,1.4-0.4,1.7-1c0.2-0.6,0.5-1,1.1-2.2l7-13.4h2.2l7.5,13.6c1.4,2.5,1.2,2.8,2.7,2.8v0.6
	h-6.3v-0.6c1.5-0.1,1.6-0.6,0.9-1.8L162.1,53.8L162.1,53.8z M161.1,51.8l-4.3-8l-4.1,8H161.1L161.1,51.8z M139,51
	c-1.7,0-1.8,0.1-1.8,1.8v2.5c-0.7,1.6-3.2,2.7-5.1,3.2c-1.5,0.4-3.1,0.6-4.6,0.6c-3.9,0-7-0.9-9.4-2.8c-1.8-1.6-3.1-3.7-3.1-5.9
	c0-2.7,1.1-4.9,3.6-6.7c2.3-1.8,5.2-2.7,8.7-2.7c1.4,0,2.8,0.1,4.3,0.5c1.4,0.4,2.7,0.9,3.8,1.5l0.9,3.8l-0.6,0.2
	c-0.6-1.1-2.1-2.7-3.4-3.6c-1.2-0.7-3-1.1-4.8-1.1c-2.1,0-4.3,0.7-5.5,1.6c-2,1.4-3.6,3.4-3.6,6c0,2.7,1.6,4.8,3.2,5.9
	c1.6,1,3.4,1.7,5.9,1.6c1.5,0,3-0.4,3.8-0.7c0.9-0.4,2.2-1,2.7-2v-1.5c0-0.5,0.1-1.8-0.2-2.1c-0.4-0.2-0.9-0.2-1.6-0.2v-0.6h6.5
	L139,51L139,51L139,51z M97.5,41.6v0.5c-0.7,0-0.9,0-1.2,0.2c-0.2,0.2-0.4,0.5-0.4,1.2v13.2h8.1c2.1,0,3.4-0.9,4.1-1.8l0.6,0.2
	l-1.7,3.6H91.6v-0.6c1,0,1.5-0.2,1.5-1.4V44.5c0-1,0-1.5-0.2-1.8c-0.2-0.4-0.5-0.4-1.4-0.4v-0.5L97.5,41.6L97.5,41.6z M65.9,41.9
	v0.6c-1,0-1.7,0.2-1.2,1.4c0.1,0.5,0.5,1,0.9,1.8l5.7,10.7c0.7-1.7,6.4-12.3,6.5-13.1c0.1-0.9-1.2-0.7-1.4-0.7V42h5.1v0.6
	c-0.4,0-1-0.1-1.2,0.1c-0.4,0.5-1.2,2.5-2.6,4.8c-1.8,3.7-4.3,8.5-5.8,11.5h-2.5L62,45.2c-0.6-1.1-1.1-2.2-1.5-2.5
	c-0.4-0.2-0.6-0.2-1.1-0.2v-0.6H65.9L65.9,41.9L65.9,41.9z M46.8,49.9c1.5,0.2,2.7,0.6,3.6,1c0.9,0.5,1.8,1.2,1.8,3.6
	c0,1.8-1.1,3-1.8,3.3c-1.7,1.4-5.9,1.4-8.4,1.4h-9.2v-0.5c0.7,0,1,0,1.4-0.4c0.2-0.2,0.1-1.2,0.1-2.2V44.6c0-1.1,0-1.4-0.4-1.7
	c-0.4-0.2-0.6-0.2-1.2-0.2V42c6,0,8.4,0,12,0c2.5,0.1,5.5,1,5.5,3.9c0,1.1-0.5,2.2-1.2,2.8C48.1,49.4,47.9,49.5,46.8,49.9L46.8,49.9
	z M37,49.4h4.1c1.7,0,3.9,0,5.2-1.1c0.5-0.4,1-1.5,1-2.1c0-1-0.2-1.5-1.2-2.2c-1.1-0.7-3.3-0.6-5.2-0.6h-3.7L37,49.4L37,49.4z
	 M37,57.3h4.8c3.4,0,7-0.2,7-3c0-1-0.6-1.8-1.2-2.3c-1.4-1-3.4-1-6.5-1c-1.4,0-2.7,0-3.9,0L37,57.3L37,57.3z"/>
</svg>
