<?xml version="1.0" encoding="utf-8"?>
<!-- Generator: $$$/GeneralStr/196=Adobe Illustrator 27.6.0, SVG Export Plug-In . SVG Version: 6.00 Build 0)  -->
<svg version="1.1" id="Capa_1" xmlns="http://www.w3.org/2000/svg" xmlns:xlink="http://www.w3.org/1999/xlink" x="0px" y="0px"
	 viewBox="0 0 250 100" style="enable-background:new 0 0 250 100;" xml:space="preserve">
<style type="text/css">
	.st0{fill:#777777;}
</style>
<g>
	<path class="st0" d="M115.6,42.7h-2.5v-2.8h2.5V42.7z M115.6,61.3h-2.4V45.5h2.4V61.3z"/>
	<path class="st0" d="M120.9,61.3h-2.4V45.5h2.4v2.6c0.3-0.9,1.7-3,5-3c4.4,0,6.5,3.2,6.5,7.3v8.9h-2.4v-8.9c0-3-1.6-5.1-4.5-5.1
		c-2.9,0-4.6,2.1-4.6,5.2L120.9,61.3L120.9,61.3z"/>
	<path class="st0" d="M146.1,51l-2.9,3.2v7.1h-2.6V38.7h2.6v12l10.6-12h3.1l-9,10.2l9,12.4h-3L146.1,51z"/>
	<path class="st0" d="M160.7,61.3h-2.4v-23h2.4V61.3z"/>
	<path class="st0" d="M171,61.7c-4.6,0-8.1-3.6-8.1-8.3c0-4.6,3.5-8.3,8-8.3c4.6,0,8.1,3.7,8,8.9h-13.6c0.2,3,2.5,5.4,5.7,5.4
		c3.2,0,4.7-1.9,5.3-3.2h2.4C178.1,58.4,175.8,61.7,171,61.7z M165.5,51.9h10.9c-0.5-2.4-2.3-4.6-5.4-4.6
		C167.9,47.3,165.9,49.6,165.5,51.9z"/>
	<path class="st0" d="M183.7,42.7h-2.5v-2.8h2.5V42.7z M183.6,61.3h-2.4V45.5h2.4V61.3z"/>
	<path class="st0" d="M188.9,61.3h-2.4V45.5h2.4v2.6c0.3-0.9,1.7-3,5-3c4.4,0,6.5,3.2,6.5,7.3v8.9h-2.4v-8.9c0-3-1.6-5.1-4.5-5.1
		c-2.9,0-4.6,2.1-4.6,5.2L188.9,61.3L188.9,61.3z"/>
	<path class="st0" d="M52.4,50.1c0,5.3,3.8,9.2,8.8,9.2c4.6,0,6.9-2.9,7.6-4.3h2.6c-0.7,2.1-3.8,6.7-10.3,6.7
		c-6.5,0-11.5-4.9-11.5-11.7c0-6.6,5-11.7,11.5-11.7s9.6,4.5,10.3,6.8h-2.7c-0.8-1.5-3.1-4.4-7.6-4.4C56.1,40.8,52.4,44.7,52.4,50.1
		z"/>
	<path class="st0" d="M80.8,61.7c-4.5,0-8.1-3.5-8.1-8.3c0-4.7,3.5-8.3,8.1-8.3c3.6,0,5.3,2.3,5.7,3.3v-3h2.4v15.8h-2.4v-3
		C86,59.4,84.3,61.7,80.8,61.7z M86.5,53.4c0-3.4-2.4-6-5.7-6c-3.3,0-5.7,2.6-5.7,6c0,3.4,2.4,6,5.7,6S86.5,56.8,86.5,53.4z"/>
	<path class="st0" d="M94.2,61.3h-2.4v-23h2.4V61.3z"/>
	<polygon class="st0" points="103.6,58.9 108.6,45.5 111.2,45.5 105.1,61.3 102.1,61.3 96,45.5 98.6,45.5 	"/>
</g>
</svg>
