<?xml version="1.0" encoding="utf-8"?>
<!-- Generator: $$$/GeneralStr/196=Adobe Illustrator 27.6.0, SVG Export Plug-In . SVG Version: 6.00 Build 0)  -->
<svg version="1.1" id="Capa_1" xmlns="http://www.w3.org/2000/svg" xmlns:xlink="http://www.w3.org/1999/xlink" x="0px" y="0px"
	 viewBox="0 0 250 100" style="enable-background:new 0 0 250 100;" xml:space="preserve">
<style type="text/css">
	.st0{fill:#777777;}
</style>
<g>
	<path class="st0" d="M69.9,55.7h-4.6v-0.2h1.2l-2.7-5.7h-2.1v5.7h1.2v0.2h-4.2v-0.2h1V44.6h-1.2v-0.3h6.1c1.3,0,2.2,0.3,2.7,0.8
		s0.8,1.2,0.8,2.1c0,1.2-0.4,1.9-1.4,2.3c-0.5,0.2-1,0.3-1.5,0.3h-1c0.2,0.4,0.6,0.8,1,1c0.5,0.3,1,0.4,1.5,0.4l2,4.2h1.2L69.9,55.7
		z M61.7,49.6h1.7c0.6,0,1.6-0.2,2-0.5c0.4-0.3,0.7-1,0.7-2s-0.2-1.7-0.6-2c-0.4-0.3-1.2-0.5-1.9-0.5h-2.1V49.6z"/>
	<path class="st0" d="M57.9,55.7h-4.4v-0.2h1.2l-1.5-3.6h-4.5L47,55.5h1.3v0.2h-2.7v-0.2h1.2l5.1-11.4l5,11.4h1L57.9,55.7L57.9,55.7
		z M48.7,51.7h4.3l-2.1-4.9L48.7,51.7z"/>
	<path class="st0" d="M123.9,55.7h-4.4v-0.2h1.2l-1.5-3.6h-4.5l-1.6,3.6h1.3v0.2h-2.7v-0.2h1.2l5-11.4l5,11.4h1V55.7z M114.8,51.7
		h4.3l-2.1-4.9L114.8,51.7z"/>
	<path class="st0" d="M110.5,55.7l-9.1-11.1v10.9h1.2v0.2h-2.6v-0.2h1.2V44.6h-1.2v-0.3h3.8l6.5,7.9v-7.7h-1.2v-0.2h2.6v0.2h-1.2
		L110.5,55.7L110.5,55.7z"/>
	<path class="st0" d="M98.2,55.7h-4.3v-0.2H95V44.6h-1.2v-0.3h4.3v0.2H97v10.9h1.2V55.7z"/>
	<path class="st0" d="M75.9,55.9c-2.3,0-3.7-1-4.4-1.8c-1-1-1.6-2.5-1.6-3.9c0-0.8,0.1-1.5,0.4-2.2c0.3-0.7,0.7-1.4,1.2-1.9
		c1.2-1.2,2.7-1.8,4.4-1.8h0.1c1.6,0,3.1,0.6,4.3,1.7c0.5,0.5,1,1.2,1.3,1.9c0.3,0.7,0.4,1.5,0.4,2.3c0,0.8-0.1,1.6-0.5,2.3
		c-0.3,0.7-0.8,1.4-1.3,1.9C79,55.3,77.4,55.9,75.9,55.9z M75.9,44.4c-2.6,0-4,2-4,5.7c0,0.6,0,2,0.5,3.2c0.6,1.5,1.8,2.3,3.4,2.3
		c1.7,0,2.8-0.8,3.4-2.3c0.4-1,0.6-2.1,0.5-3.2C79.8,46.4,78.5,44.4,75.9,44.4z"/>
	<path class="st0" d="M92.3,55.7h-9.2v-0.2h1.2V44.6h-1.2v-0.3h4.4v0.2h-1.2v10.9h3.2c1.8,0,2.5-3.1,2.6-4.8h0.2V55.7z"/>
	<path class="st0" d="M141.3,55.7H137v-0.2h1.2v-5.6h-5.7v5.6h1.2v0.2h-4.4v-0.2h1.2V44.6h-1.2v-0.2h4.4v0.2h-1.2v5.1h5.7v-5.1H137
		v-0.2h4.4v0.2h-1.2v10.9h1.2L141.3,55.7z"/>
	<path class="st0" d="M152.4,55.7H143v-0.2h1.2V44.6H143v-0.3h9.4v4.1h-0.2c0-1.8-1.1-3.9-2.7-3.9h-3.4v5h1.6c1.5,0,1.7-0.9,1.7-2.6
		h0.2v5.5h-0.2c0-1-0.1-1.6-0.4-2c-0.2-0.4-0.7-0.6-1.4-0.6h-1.6v5.7h3.4c1.5,0,2.5-2.5,2.6-4.8h0.2L152.4,55.7L152.4,55.7z"/>
	<path class="st0" d="M166,55.7h-4.6v-0.2h1.2l-2.7-5.7h-2.1v5.7h1.2v0.2h-4.2v-0.2h1V44.6h-1.2v-0.3h6c1.3,0,2.2,0.3,2.7,0.8
		s0.8,1.2,0.8,2.1c0,1.2-0.4,1.9-1.4,2.3c-0.5,0.2-1,0.3-1.5,0.3h-1c0.2,0.4,0.6,0.8,1,1c0.5,0.3,1,0.4,1.5,0.4l2,4.2h1.2L166,55.7
		L166,55.7z M157.8,49.6h1.7c0.6,0,1.6-0.2,2-0.5c0.4-0.3,0.7-1,0.7-2s-0.2-1.7-0.6-2c-0.4-0.3-1.2-0.5-1.9-0.5h-2.1V49.6z"/>
	<path class="st0" d="M178.1,55.7h-4.6v-0.2h1.2l-2.7-5.7H170v5.7h1.1v0.2h-4.2v-0.2h1V44.6h-1.2v-0.2h6c1.3,0,2.2,0.3,2.7,0.8
		c0.5,0.5,0.8,1.2,0.8,2.1c0,1.2-0.4,1.9-1.4,2.3c-0.5,0.2-1,0.3-1.5,0.3h-1c0.2,0.4,0.6,0.8,1,1c0.5,0.3,1,0.4,1.5,0.4l2,4.2h1.2
		L178.1,55.7L178.1,55.7z M170,49.6h1.7c0.6,0,1.6-0.2,2-0.5c0.4-0.3,0.7-1,0.7-2s-0.2-1.7-0.6-2s-1.2-0.5-1.9-0.5H170L170,49.6
		L170,49.6z"/>
	<path class="st0" d="M203,55.7h-4.6v-0.2h1.2l-2.7-5.7h-2.1v5.7h1.2v0.2h-4.2v-0.2h1V44.6h-1.2v-0.3h6c1.3,0,2.2,0.3,2.7,0.8
		c0.5,0.5,0.8,1.2,0.8,2.1c0,1.2-0.4,1.9-1.4,2.3c-0.5,0.2-1,0.3-1.5,0.3h-1c0.2,0.4,0.6,0.8,1,1c0.5,0.3,1,0.4,1.5,0.4l2,4.2h1.2
		L203,55.7L203,55.7z M194.8,49.6h1.7c0.6,0,1.6-0.2,2-0.5c0.4-0.3,0.7-1,0.7-2s-0.2-1.7-0.6-2c-0.5-0.4-1.2-0.6-1.9-0.5h-2.1V49.6
		L194.8,49.6z"/>
	<path class="st0" d="M215.4,55.7H211v-0.2h1.2l-1.5-3.6h-4.5l-1.6,3.6h1.3v0.2h-2.4v-0.2h0.9l5.1-11.4l5,11.4h1L215.4,55.7
		L215.4,55.7z M206.3,51.7h4.3l-2.1-4.9L206.3,51.7z"/>
	<path class="st0" d="M189.6,55.7h-9.4v-0.2h1.2V44.6h-1.2v-0.3h9.4v4.1h-0.2c0-1.8-1.1-3.9-2.7-3.9h-3.3v5h1.6
		c1.5,0,1.7-0.9,1.7-2.6h0.2v5.5h-0.2c0-1-0.1-1.6-0.4-2c-0.2-0.4-0.7-0.6-1.4-0.6h-1.6v5.7h3.4c1.5,0,2.5-2.5,2.6-4.8h0.2
		L189.6,55.7L189.6,55.7z"/>
	<path class="st0" d="M40.4,55.9c-1.1,0-2.2-0.3-3.2-0.9c-0.8-0.5-1.5-1.2-1.9-2.1c-0.5-0.9-0.7-1.8-0.7-2.8V50c0-1,0.3-2,0.7-2.8
		c0.5-0.9,1.1-1.6,2-2.1c0.9-0.6,2-0.9,3.1-0.9h0.1c0.9,0,1.7,0.2,2.5,0.5c0.3,0.2,0.6,0.3,0.9,0.3c0.2,0,0.4,0,0.6-0.1
		c0.2-0.1,0.3-0.3,0.4-0.5h0.2v4h-0.2c0-2-1.9-3.8-3.9-3.9h-0.2c-1.2,0-2.1,0.3-2.8,1c-0.9,0.8-1.4,2.3-1.4,4.4v0.2
		c0,2.2,0.6,3.8,1.5,4.7c0.4,0.3,0.8,0.6,1.3,0.7s1,0.2,1.5,0.1c1-0.1,2-0.6,2.8-1.3c0.3-0.3,0.6-0.7,0.8-1.2
		c0.2-0.4,0.3-0.9,0.3-1.4h0.2v3.9h-0.2c-0.1-0.2-0.2-0.4-0.4-0.5c-0.2-0.1-0.4-0.2-0.6-0.2c-0.3,0-0.7,0.1-1,0.2
		C42.2,55.7,41.3,55.9,40.4,55.9L40.4,55.9z"/>
	<path class="st0" d="M110.3,44.6V54"/>
	<path class="st0" d="M101.1,44.6v11"/>
	<path class="st0" d="M117,46.8l-3.9,8.7"/>
	<path class="st0" d="M208.7,46.8l-3.9,8.7"/>
	<path class="st0" d="M132.4,49.9h5.8"/>
	<path class="st0" d="M143,44.6h7.7"/>
	<path class="st0" d="M180.2,44.6h7.6"/>
	<path class="st0" d="M143,55.5h7.7"/>
	<path class="st0" d="M180.2,55.5h7.6"/>
	<path class="st0" d="M154.7,44.6h6.9"/>
	<path class="st0" d="M166.8,44.6c0,0,4.2,0,6.8,0"/>
	<path class="st0" d="M191.6,44.6h6.8"/>
	<path class="st0" d="M50.9,46.8l-4,8.8"/>
	<path class="st0" d="M58.6,44.6h7"/>
	<path class="st0" d="M83.1,55.5h7.2"/>
	<path class="st0" d="M45.6,55.5h2.7"/>
	<path class="st0" d="M111.7,55.5h2.7"/>
	<path class="st0" d="M129.3,55.5h4.3"/>
	<path class="st0" d="M137,55.5h4.3"/>
	<path class="st0" d="M129.3,44.6h4.3"/>
	<path class="st0" d="M137,44.6h4.3"/>
	<path class="st0" d="M203.5,55.5h2.4"/>
	<path class="st0" d="M53.4,55.5h4.5"/>
	<path class="st0" d="M119.6,55.5h4.4"/>
	<path class="st0" d="M211,55.5h4.4"/>
	<path class="st0" d="M58.7,55.5h4.2"/>
	<path class="st0" d="M65.3,55.5h4.6"/>
	<path class="st0" d="M61,49.6h4.6"/>
	<path class="st0" d="M48.8,51.6h4.3"/>
	<path class="st0" d="M114.9,51.6h4.3"/>
	<path class="st0" d="M206.4,51.6h4.3"/>
	<path class="st0" d="M38.3,45.1c0.8-0.5,3.5-1.2,5.2,0.1"/>
	<path class="st0" d="M43,55.1c-0.8,0.5-3.2,1.1-5-0.3"/>
	<path class="st0" d="M154.8,55.5h4.2"/>
	<path class="st0" d="M166.9,55.5h4.2"/>
	<path class="st0" d="M191.8,55.5h4.2"/>
	<path class="st0" d="M161.4,55.5h4.6"/>
	<path class="st0" d="M173.6,55.5h4.5"/>
	<path class="st0" d="M198.4,55.5h4.6"/>
	<path class="st0" d="M157.1,49.6h4.6"/>
	<path class="st0" d="M169.2,49.6h4.6"/>
	<path class="st0" d="M194,49.6h4.6"/>
	<path class="st0" d="M83.1,44.6h4.4"/>
	<path class="st0" d="M93.8,44.6h4.3"/>
	<path class="st0" d="M93.8,55.5h4.3"/>
	<path class="st0" d="M99.9,55.5h2.6"/>
	<path class="st0" d="M99.9,44.6h2.6"/>
	<path class="st0" d="M109.1,44.6h2.6"/>
</g>
</svg>
