<?xml version="1.0" encoding="UTF-8"?>
<svg id="Capa_1" xmlns="http://www.w3.org/2000/svg" version="1.1" viewBox="0 0 250 100">
  <!-- Generator: Adobe Illustrator 29.6.1, SVG Export Plug-In . SVG Version: 2.1.1 Build 9)  -->
  <defs>
    <style>
      .st0 {
        fill: #777;
      }
    </style>
  </defs>
  <polygon class="st0" points="132.66 27.73 132.66 53.29 129.6 53.29 129.6 34.93 120.65 43.65 111.55 34.93 111.55 53.29 108.64 53.29 108.64 27.73 120.65 39.67 132.66 27.73"/>
  <path class="st0" d="M148.39,28.85c12.86-1.36,19.66,14.06,9.9,22.14-8.82,7.31-22.38-.15-20.69-11.51.8-5.33,5.34-10.06,10.79-10.63ZM149.16,31.6c-12.25,1.21-10.92,20.56,2.09,19.39,12.15-1.09,10.79-20.66-2.09-19.39Z"/>
  <path class="st0" d="M185.61,53.29h-3.37l-4.13-8.42h-7.35v8.42h-3.06v-24.02h11.25c1.07,0,3.13,1.01,3.98,1.69,4.83,3.87,3.55,10.9-1.89,13.38l4.57,8.95ZM170.77,41.96h8.19c.24,0,1.55-.61,1.81-.79,2.76-1.87,2.76-6.35,0-8.21-.26-.18-1.57-.79-1.81-.79h-8.19v9.79Z"/>
  <path class="st0" d="M83.39,53.29l10.48-25.56,10.63,25.56h-3.21l-1.97-5.11-10.71-.08-2.01,5.19h-3.21ZM89.82,45.18h8.26l-4.21-9.79-4.06,9.79Z"/>
  <path class="st0" d="M59.83,53.29h-3.21l-2.01-5.18-10.71.08-1.97,5.11h-3.21l10.41-25.55,10.71,25.55ZM53.25,45.18l-4.06-9.95-4.06,9.95h8.11Z"/>
  <path class="st0" d="M189.59,53.29l10.63-25.56,10.48,25.56h-3.21l-1.97-5.11-10.71-.07-2.01,5.18h-3.21ZM196.02,45.18h8.26l-4.21-9.79-4.06,9.79Z"/>
  <path class="st0" d="M79.1,30.96l-1.62,2.42c-2.61-2.23-10.42-2.99-10.77,1.61-.35,4.58,6.22,4.18,9.34,5.52,3.48,1.49,4.76,5.02,3.49,8.53-2.28,6.28-12.04,5.82-16.32,2.01l1.6-2.34c3.44,3.11,12.76,3.84,12-2.84-.55-4.79-9.87-2.87-12.37-7.22-1.65-2.87-.67-6.52,1.97-8.38,3.64-2.56,9.13-1.6,12.68.69Z"/>
  <path class="st0" d="M19.94,48.19c3.83,3.87,10.14,3.69,13.97-.09l1.97,1.98c-6.85,6.97-19.18,3.81-21.46-5.78-3.01-12.67,12.68-20.8,21.53-11.58l-1.93,1.9c-3.05-2.81-7.03-3.92-10.97-2.26-6.27,2.64-7.9,11-3.11,15.84Z"/>
  <polygon class="st0" points="228.76 29.26 228.76 32.17 220.96 32.17 220.96 53.29 217.9 53.29 217.9 32.17 210.09 32.17 210.09 29.26 228.76 29.26"/>
  <rect class="st0" x="232.89" y="29.26" width="3.06" height="24.02"/>
  <path class="st0" d="M127.27,62.5c2.29-.36,3.88,2.26,2.21,4.02,1.93,1.44,1.88,4.42-.43,5.41-3.72,1.59-6.47-3.11-3.12-5.41-1.58-1.39-.62-3.71,1.34-4.02ZM127.26,63.88c-1.3.3-.78,2.55.82,2.04,1.17-.37.86-2.42-.82-2.04ZM127.11,67.4c-1.96.4-1.62,3.64.55,3.58,2.55-.07,2.43-4.2-.55-3.58Z"/>
  <path class="st0" d="M119.01,62.5c2.32-.37,3.86,2.24,2.21,4.02,1.93,1.46,1.91,4.4-.43,5.41-3.7,1.59-6.47-3.09-3.12-5.41-1.58-1.39-.62-3.71,1.34-4.02ZM119,63.88c-1.3.3-.78,2.55.82,2.04,1.2-.38.87-2.43-.82-2.04ZM118.85,67.4c-1.96.4-1.62,3.64.55,3.58,2.55-.07,2.43-4.2-.55-3.58Z"/>
  <path class="st0" d="M135.54,62.51c2.3-.3,3.86,2.22,2.2,4.02,1.86,1.43,1.91,4.29-.33,5.36-3.69,1.77-6.66-3.05-3.22-5.36-1.58-1.37-.6-3.76,1.34-4.02ZM135.53,63.88c-1.3.3-.78,2.55.82,2.04,1.17-.37.86-2.42-.82-2.04ZM135.38,67.4c-1.88.39-1.7,3.52.45,3.58,2.62.08,2.6-4.21-.45-3.58Z"/>
  <path class="st0" d="M114,62.16v9.72c-.33.4-.92.19-1.38.23v-7.65l-1.68.76.02-1.51,3.04-1.55Z"/>
</svg>