<?xml version="1.0" encoding="utf-8"?>
<!-- Generator: $$$/GeneralStr/196=Adobe Illustrator 27.6.0, SVG Export Plug-In . SVG Version: 6.00 Build 0)  -->
<svg version="1.1" id="Capa_1" xmlns="http://www.w3.org/2000/svg" xmlns:xlink="http://www.w3.org/1999/xlink" x="0px" y="0px"
	 viewBox="0 0 250 100" style="enable-background:new 0 0 250 100;" xml:space="preserve">
<style type="text/css">
	.st0{fill-rule:evenodd;clip-rule:evenodd;fill:#777777;}
</style>
<g>
	<path class="st0" d="M76.1,52.9l3.4,1.9c-1.7,3.1-5,5.1-8.7,5.1c-5.4,0-9.9-4.1-9.9-10s4.5-10,9.9-10c3.7,0,7,2,8.7,5.1l-3.4,1.9
		c-1-2-2.9-3.2-5.3-3.2c-3.4,0-6,2.5-6,6.2s2.6,6.2,6,6.2C73.2,56.2,75.1,55,76.1,52.9 M97.5,59.5v-8.1H88v8.1h-3.8V40.5H88v7h9.5
		v-7h3.8v18.9H97.5 M119.4,51.6l-3.4-8l-3.4,8H119.4z M127,59.5h-4.1l-1.9-4.3h-9.9l-1.9,4.3H105l8.4-18.9h5.1L127,59.5z
		 M144.4,59.5l-10.1-14.9v14.9h-3.5V40.5h5l8.5,12.6V40.5h3.5v18.9H144.4 M155.1,59.5V40.5h13.5V44h-10v4.1h8.7v3.5h-8.7V56h10.6
		v3.5H155.1 M175.3,59.5V40.5h3.8v15.2h10v3.8H175.3"/>
</g>
</svg>
