<?xml version="1.0" encoding="utf-8"?>
<!-- Generator: $$$/GeneralStr/196=Adobe Illustrator 27.6.0, SVG Export Plug-In . SVG Version: 6.00 Build 0)  -->
<svg version="1.1" id="Capa_1" xmlns="http://www.w3.org/2000/svg" xmlns:xlink="http://www.w3.org/1999/xlink" x="0px" y="0px"
	 viewBox="0 0 250 100" style="enable-background:new 0 0 250 100;" xml:space="preserve">
<style type="text/css">
	.st0{fill:#777777;}
</style>
<g>
	<path class="st0" d="M122.8,56.5c-5.3,0-10.5,0-15.8,0c-0.9,0-1.3-0.2-1.3-1.2c0-3.5,0-3.5,3.5-3.5c9.5,0,19,0,28.5,0
		c0.6,0,1.1,0,1.6-0.2c0.9-0.3,1.6-0.9,1.5-2c-0.1-1-0.8-1.6-1.8-1.7c-0.4-0.1-0.8,0-1.2,0c-8.6,0-17.3,0-25.9,0
		c-2.6,0-4.7-1-6.4-2.9c-2.7-3.2-1.7-7.2,1.7-9.3c1.3-0.8,2.6-1.4,4.2-1.4c10.4,0,20.7,0,31.1,0c1.2,0,1.6,0.3,1.6,1.5
		c-0.1,4,0.3,3.3-3.1,3.3c-9.8,0-19.5,0-29.3,0c-0.8,0-1.6-0.1-2.2,0.6c-0.5,0.5-0.8,1-0.6,1.8c0.2,0.8,0.7,1.2,1.5,1.3
		c0.5,0.1,1,0.1,1.5,0.1c8.3,0,16.6-0.1,24.9,0c2.6,0,5,0.5,7,2.4c2.9,2.7,2.5,7.6-0.9,9.8c-1.6,1-3.3,1.5-5.1,1.5
		C132.7,56.4,127.8,56.4,122.8,56.5C122.8,56.5,122.8,56.5,122.8,56.5z"/>
	<path class="st0" d="M206.6,34.2c4.5,0,9.1,0,13.6,0c3.5,0,5.7,2.1,5.7,5.6c0,3.6,0,7.3,0,10.9c0,3.5-2.2,5.8-5.7,5.8
		c-9,0-18.1,0-27.1,0c-3.5,0-5.6-2-5.7-5.5c-0.1-3.8-0.1-7.6,0-11.4c0-3.3,2.3-5.4,5.6-5.4C197.5,34.2,202.1,34.2,206.6,34.2
		C206.6,34.2,206.6,34.2,206.6,34.2z M206.7,51.5C206.7,51.5,206.7,51.5,206.7,51.5c3.6,0,7.2,0,10.8,0c2.2,0,3.3-1,3.4-3.3
		c0.1-1.9,0-3.7,0-5.6c-0.1-2.5-1.1-3.5-3.6-3.5c-7.1,0-14.2,0-21.4,0c-2.1,0-3.2,1.1-3.3,3.1c-0.1,2,0,3.9,0,5.9
		c0,2.2,1.1,3.3,3.3,3.4C199.5,51.5,203.1,51.5,206.7,51.5z"/>
	<path class="st0" d="M39.3,34.2c5.4,0,10.7,0,16.1,0c1.2,0,1.5,0.3,1.5,1.5c-0.1,3.3,0,3.3-3.4,3.3c-8.8,0-17.6,0.1-26.4,0
		c-2.5,0-4.1,1.3-3.9,3.9c0.1,1.6,0.1,3.2,0,4.9c-0.1,2.3,1.5,3.8,3.7,3.8c9.5-0.1,18.9,0,28.4-0.1c1.4,0,1.7,0.4,1.6,1.7
		c-0.1,3.3,0,3.3-3.3,3.3c-9.8,0-19.6,0-29.4,0c-1.4,0-2.8-0.1-3.9-1.2c-1-0.9-1.5-1.9-1.5-3.3c0-4.4,0-8.8,0-13.2
		c0-2.9,1.7-4.6,4.6-4.6C28.7,34.2,34,34.2,39.3,34.2C39.3,34.2,39.3,34.2,39.3,34.2z"/>
	<path class="st0" d="M82.5,56.5c-5,0-10,0-15,0c-4.4,0-6.1-1.9-6.2-6.3c-0.1-5,0.3-9.9,0.1-14.9c0-0.8,0.1-1.1,1-1.1
		c3.8-0.3,3.8-0.3,3.8,3.6c0,3.3,0.1,6.7,0,10c-0.1,2.1,1.1,3.8,3.6,3.8c7.3-0.1,14.6,0,21.8,0c2.2,0,3.4-1.2,3.4-3.4
		c0-4.2,0-8.4,0-12.6c0-1.1,0.3-1.4,1.4-1.3c3.4,0,3.4,0,3.5,3.5c0,5.8,0,11.6,0,17.4c0,1-0.2,1.4-1.3,1.4
		C93.1,56.5,87.8,56.5,82.5,56.5C82.5,56.5,82.5,56.5,82.5,56.5z"/>
	<path class="st0" d="M165.9,34.2c5.2,0,10.4,0,15.6,0c1.1,0,1.4,0.3,1.4,1.4c-0.1,3.4,0,3.4-3.4,3.4c-3.3,0-6.6,0-9.9,0
		c-1,0-1.4,0.3-1.4,1.4c0,4.8,0,9.6,0,14.4c0,1.2-0.2,1.7-1.5,1.7c-3.3-0.1-3.3,0-3.3-3.2c0-4.2-0.1-8.5,0-12.7
		c0-1.3-0.4-1.5-1.6-1.5c-3.9,0-7.9,0-11.8,0c-1.1,0-1.6-0.2-1.6-1.5c-0.1-3.9-0.4-3.3,3.2-3.3C156.4,34.2,161.2,34.2,165.9,34.2z"
		/>
	<path class="st0" d="M195.7,66.5c0,1,0,2.1,0,3.1c0,0.5,0,1-0.7,0.9c-0.6,0-0.6-0.5-0.6-0.9c0-1.5,0-3,0-4.5c0-0.4-0.2-1,0.5-1.1
		c0.7-0.1,1,0.2,1.3,0.7c0.7,1.2,1.4,2.3,2.4,3.4c0-1.1,0-2.1,0-3.2c0-0.4-0.1-0.9,0.5-0.9c0.7,0,0.7,0.4,0.7,0.9c0,1.5,0,3,0,4.5
		c0,0.4,0.1,1-0.5,1.1c-0.6,0.1-0.9-0.2-1.2-0.7c-0.7-1.1-1.4-2.3-2.1-3.4C195.9,66.4,195.8,66.5,195.7,66.5z"/>
	<path class="st0" d="M68.9,67.1c0-0.1,0-0.2,0-0.3c-0.1-2.9,1-3.7,3.9-2.6c1.4,0.5,1.9,2.2,0.7,3.1c-1.1,0.8-0.6,1.3-0.1,2
		c0.3,0.4,0.9,0.8,0.4,1.2c-0.5,0.4-1.1,0-1.4-0.6c-0.1-0.2-0.2-0.5-0.3-0.7c-0.4-0.5-0.6-1.4-1.4-1.2c-0.8,0.2-0.5,1-0.5,1.6
		c-0.1,0.4,0.1,0.9-0.5,0.9c-0.7,0.1-0.6-0.5-0.6-1C68.9,68.7,68.9,67.9,68.9,67.1C68.9,67.1,68.9,67.1,68.9,67.1z M71.2,66.9
		c0.7,0.1,1.6-0.2,1.6-1c0-0.6-0.7-1-1.6-1.1c-0.9,0-1.1,0.5-1.1,1.2C70,66.8,70.5,67,71.2,66.9z"/>
	<path class="st0" d="M18.8,67.3c0-0.3,0-0.6,0-0.9c0-2.6,0-2.6,2.7-2.4c1.6,0.1,2.2,1.1,1.5,2.5c-0.2,0.5-0.2,0.8,0.2,1.2
		c0.9,1.1,0.5,2.4-0.9,2.8c-0.9,0.2-1.9,0.1-2.8,0.1c-0.6,0-0.6-0.4-0.6-0.8C18.8,68.9,18.7,68.1,18.8,67.3
		C18.7,67.3,18.8,67.3,18.8,67.3z M21.1,69.4c0.3-0.1,1.2,0.1,1.2-0.9c-0.1-0.9-0.9-0.8-1.5-0.9c-0.6,0-1.1,0-1.1,0.8
		C19.7,69.4,20.2,69.5,21.1,69.4z M20.7,66.7c0.7,0,1.3-0.3,1.2-1c-0.1-0.7-0.7-0.8-1.4-0.9c-0.7,0-1,0.3-1,1
		C19.7,66.6,20.1,66.8,20.7,66.7z"/>
	<path class="st0" d="M168.3,67.2c0-2.1,1.2-3.4,3-3.4c1.6,0,3,1.6,3,3.5c0,2.2-1.1,3.3-3.2,3.3C169.2,70.5,168.3,69.5,168.3,67.2z
		 M169.5,66.7c0,2.1,0.6,2.9,1.8,2.8c1.4-0.1,1.6-1.1,1.7-2.2c0.1-1.3-0.9-2.6-1.9-2.4C169.9,65,169.5,66,169.5,66.7z"/>
	<path class="st0" d="M122.2,70.5c-2.5,0-2.5,0-2.5-2.5c0-1,0-2,0-3c0-0.8,0.3-1.1,1.1-1c1,0,1.9,0,2.9,0c0.3,0,0.6,0.1,0.6,0.5
		c0,0.4-0.4,0.4-0.7,0.4c-0.6,0-1.1,0-1.7,0c-0.8,0-0.8,0.5-0.9,1.1c-0.1,0.7,0.4,0.7,0.9,0.7c0.4,0,0.7,0,1.1,0c0.4,0,1-0.2,1,0.6
		c0,0.7-0.7,0.5-1.1,0.5c-0.3,0-0.6,0-0.9,0c-0.6,0-1,0.1-1,0.8c0,0.7,0.3,0.9,0.9,0.8c0.6,0,1.1,0,1.7,0c0.4,0,0.9,0,0.9,0.6
		c0,0.6-0.5,0.5-0.9,0.5C123.2,70.5,122.7,70.5,122.2,70.5z"/>
	<path class="st0" d="M48.8,69.6c0.2,0.6,0.1,0.8-0.2,0.9c-0.4,0.1-0.6-0.1-0.9-0.4c-1-1.5-2.4-1.5-3.3-0.1
		c-0.2,0.3-0.5,0.6-0.9,0.5c-0.5-0.1-0.3-0.6-0.2-0.9c0.6-1.7,1.2-3.4,1.9-5.1c0.3-0.8,1-1,1.5-0.2C47.8,66.1,48.2,68.1,48.8,69.6z
		 M46.1,65.7c-0.3,0.8-1,1.4-0.5,2.3c0.1,0.2,1,0.2,1.1,0C47.2,67.2,46.2,66.5,46.1,65.7z"/>
	<path class="st0" d="M225.2,70.5c-0.4,0-0.7-0.1-0.8-0.4c-0.2-1-0.8-1.1-1.6-1.1c-0.8,0-1.5,0.1-1.7,1.1c-0.1,0.5-0.6,0.6-1,0.3
		c-0.5-0.3-0.1-0.6,0-0.9c0.5-1.6,1.1-3.1,1.6-4.7c0.2-0.5,0.4-0.9,1-0.9c0.6,0,0.8,0.4,1,0.8c0.6,1.6,1.1,3.3,1.7,5
		C225.7,70.1,225.7,70.4,225.2,70.5z M222.8,65.5c-0.3,1-1.2,1.6-0.7,2.5c0.2,0.4,1.2,0.3,1.3,0C223.9,67.2,223.2,66.5,222.8,65.5z"
		/>
	<path class="st0" d="M94.2,66.9c-0.1-1.1,0.3-2.3,1.7-2.9c1-0.4,2-0.4,2.9,0.2c0.4,0.3,1.1,0.7,0.6,1.3c-0.4,0.6-0.8,0.1-1.2-0.3
		c-0.8-0.7-1.5-0.6-2.2,0.2c-0.7,0.8-0.9,2.6-0.2,3.4c0.8,0.9,1.9,1,2.8,0.1c0.4-0.4,0.8-0.3,1,0c0.3,0.4-0.1,0.8-0.3,1
		c-1,0.9-2.3,0.9-3.4,0.4C94.4,69.8,94.1,68.5,94.2,66.9z"/>
	<path class="st0" d="M144.7,67.1c0-0.8,0-1.5,0-2.3c0-0.4,0-0.9,0.6-0.8c0.6,0,0.6,0.5,0.6,0.9c0,1.1,0.1,2.2,0,3.3
		c-0.1,1,0.3,1.4,1.3,1.3c0.2,0,0.4,0,0.6,0c0.4,0.1,1.2-0.2,1.2,0.6c0,0.8-0.7,0.5-1.2,0.5C144.7,70.6,144.7,70.6,144.7,67.1z"/>
	<path class="st0" d="M228.7,29.3c1.7,0,2.5,0.8,2.5,2.5c0,1.4-1.2,2.6-2.6,2.6c-1.3,0-2.4-1.2-2.5-2.5
		C226.1,30.3,227.1,29.4,228.7,29.3z M230.3,33c0.8-0.9,0.7-1.7,0-2.6c-0.7-0.9-1.6-1-2.4-0.6c-0.8,0.4-1.4,1.1-1.3,2.1
		c0.1,1.1,0.9,1.6,1.9,1.8c0.5,0.1,1,0,1.1-0.4c0.1-0.4-0.3-0.8-0.7-1.1c-0.8-0.6-0.5,0.9-1.2,0.6c0-0.4,0-0.8,0-1.1
		c0-0.7-0.1-1.4,0.9-1.3c0.9,0.1,1.5,0.3,1,1.5C229.5,32.3,229.9,32.6,230.3,33z"/>
</g>
</svg>
