<?xml version="1.0" encoding="utf-8"?>
<!-- Generator: $$$/GeneralStr/196=Adobe Illustrator 27.6.0, SVG Export Plug-In . SVG Version: 6.00 Build 0)  -->
<svg version="1.1" id="Capa_1" xmlns="http://www.w3.org/2000/svg" xmlns:xlink="http://www.w3.org/1999/xlink" x="0px" y="0px"
	 viewBox="0 0 250 100" style="enable-background:new 0 0 250 100;" xml:space="preserve">
<style type="text/css">
	.st0{fill:#777777;}
</style>
<g id="Layer_2">
</g>
<g>
	<path class="st0" d="M216,50.7c0-7.6,0-15.3,0-22.9c0-0.4,0-0.7,0.3-1c0.2-0.2,0.5-0.4,0.8-0.4c4.2,0,8.4,0,12.7,0
		c0.3,0,0.6,0,0.9,0.1c0.8,0.3,1.7,0.2,2.5,0.4c0.7,0.2,1.4,0.5,2.1,0.8c1,0.5,1.8,1.2,2.6,1.8c0.7,0.5,1.1,1.1,1.6,1.8
		c0.3,0.4,0.5,0.9,0.8,1.2c0.3,0.4,0.5,0.9,0.6,1.3c0.2,0.9,0.6,1.7,0.7,2.7c0.1,2.5,0.1,5,0.1,7.4c0,0.7,0,1.5-0.1,2.2
		c-0.2,0.9-0.5,1.7-0.8,2.6c-0.2,0.6-0.6,1-0.8,1.6c-0.1,0.3-0.4,0.5-0.6,0.8c-0.7,1.1-1.7,1.9-2.8,2.6c-0.1,0-0.2,0.1-0.2,0.1
		c-0.8,0.1-0.7,0.8-0.4,1.4c0.4,0.7,0.6,1.4,1,2c0.3,0.6,0.4,1.3,0.8,1.8c0.3,0.3,0.4,0.7,0.5,1.1c0.2,0.5,0.5,1,0.7,1.5
		c0.3,0.6,0.5,1.3,0.8,1.9c0.3,0.5,0.5,1.1,0.8,1.6c0.3,0.5,0.4,1.1,0.8,1.5c0.3,0.4,0.4,0.9,0.6,1.3c0.2,0.6,0.4,1.2,0.7,1.7
		c0.3,0.5,0.5,1,0.7,1.5c0.3,0.5,0.5,1,0.7,1.6c0.1,0.3,0.2,0.6,0.4,0.8c0.3,0.4,0.1,0.8-0.3,1c-0.3,0.1-0.6,0.2-0.9,0.2
		c-2,0-4,0-6.1,0c-0.3,0-0.5,0-0.8-0.1c-0.6-0.1-0.9-0.4-1.2-1c-0.5-1.3-1.2-2.5-1.8-3.8c-0.3-0.5-0.5-1.1-0.7-1.7
		c-0.2-0.6-0.4-1.2-0.8-1.7c-0.3-0.4-0.4-0.8-0.6-1.2c-0.2-0.5-0.5-1-0.7-1.5c-0.3-0.6-0.5-1.3-0.8-1.9c-0.4-0.9-0.9-1.8-1.3-2.7
		c-0.2-0.5-0.4-1-0.6-1.4c-0.1-0.3-0.3-0.5-0.3-0.8c-0.1-0.5-0.4-0.9-1-0.9c-0.5-0.1-1-0.2-1.5-0.3c-0.3-0.1-0.4,0.1-0.5,0.3
		c0,0.2,0,0.4,0,0.7c0,5.6,0,11.2,0,16.8c0,0.9-0.4,1.3-1.2,1.3c-2,0-4.1,0-6.1,0c-0.8,0-1.2-0.5-1.2-1.3
		C216,65.9,216,58.3,216,50.7z M233.2,40.9c-0.1-1.4,0.2-3.1-0.4-4.7c-0.3-0.9-0.9-1.7-1.7-2c-0.8-0.3-1.6-0.6-2.5-0.5
		c-1,0-2,0-3.1,0c-0.8,0-1,0.2-1,1c0,2.3,0,4.6,0,6.9c0,1.9,0,3.9,0,5.8c0,0.3,0,0.5,0.3,0.6c0.5,0.2,0.9,0.5,1.4,0.4
		c1.2,0,2.3,0,3.5,0c0.2,0,0.5,0,0.7-0.2c0.4-0.3,1-0.5,1.4-0.8c0.4-0.3,0.8-0.7,0.9-1.1c0.3-1,0.6-2,0.5-3.1
		C233.1,42.5,233.2,41.8,233.2,40.9z"/>
	<path class="st0" d="M8.9,50.6c0-7.6,0-15.1,0-22.7c0-0.2,0-0.4,0-0.5c0-0.8,0.3-1,1.1-1c4.2,0,8.4,0,12.7,0c0.5,0,1,0.1,1.5,0.2
		c0.7,0.2,1.4,0.1,2,0.3c0.7,0.2,1.4,0.4,2.1,0.8c0.3,0.2,0.7,0.4,1,0.6c1,0.7,2,1.4,2.8,2.4c0.7,0.9,1.2,1.9,1.6,3
		c0.4,1.2,0.7,2.3,0.9,3.5c0,0.2,0.1,0.5,0.1,0.7c0,8.3,0,16.7,0,25c0,1-0.2,1.9-0.5,2.9c-0.2,0.9-0.6,1.8-1,2.6
		c-0.3,0.7-0.7,1.3-1.2,1.9c-0.3,0.3-0.6,0.6-0.9,0.9c-0.5,0.4-1,1-1.6,1.3c-0.5,0.3-1.1,0.6-1.7,0.9c-0.7,0.3-1.4,0.3-2,0.6
		c-1,0.5-1.9,0.4-2.9,0.5c-3.4,0.4-6.9,0.1-10.3,0.2c-0.8,0-1.7,0-2.5,0c-0.9,0-1.2-0.3-1.2-1.2C8.9,65.9,8.9,58.3,8.9,50.6z
		 M17.2,50.6c0,5.3,0,10.7,0,16c0,0.8,0,0.8,0.8,0.8c1.3,0,2.7,0,4,0c0.8,0,1.5-0.1,2.2-0.4c0.8-0.3,1.3-0.9,1.6-1.6
		c0.3-0.8,0.5-1.7,0.5-2.5c0-7.3,0-14.7,0-22c0-1.4,0-2.8-0.3-4.2c-0.2-0.6-0.5-1.1-0.9-1.6c-0.8-1-2-1.2-3.2-1.3
		c-1.3-0.1-2.5,0-3.8,0c-0.9,0-1,0.1-1,1C17.2,40,17.2,45.3,17.2,50.6z"/>
	<path class="st0" d="M173.3,50.7c0-7.6,0-15.3,0-22.9c0-0.3,0-0.6,0.2-0.9c0.3-0.4,0.6-0.5,1.1-0.5c7.1,0,14.1,0,21.2,0
		c0.8,0,1.1,0.3,1.1,1.1c0,1.7,0,3.4,0,5.1c0,0.8-0.1,1-1,1c-4.3,0-8.6,0-12.9,0c-0.2,0-0.3,0-0.5,0c-0.4,0-0.6,0.2-0.6,0.6
		c0,0.2,0,0.3,0,0.5c0,3.5,0,7,0,10.4c0,1.2,0,1.2,1.2,1.2c3.8,0,7.5,0,11.3,0c0.2,0,0.5,0,0.7,0c0.5,0,0.7,0.2,0.7,0.7
		c0,1.8,0,3.6,0,5.4c0,0.9-0.4,1.1-1.3,1.1c-3.9,0-7.8,0-11.7,0c-0.8,0-0.9,0.1-0.9,0.9c0,3.2,0,6.3,0,9.5c0,0.9,0,1.8,0,2.6
		c0,0.9,0,0.9,0.8,0.9c4,0,8.1,0,12.1,0c0.5,0,0.9,0.1,1.4,0.1c0.5,0,0.6,0.4,0.6,0.8c0,0.4,0,0.8,0,1.2c0,1.4,0,2.7,0,4.1
		c0,1.1-0.1,1-1.2,1.3c-0.1,0-0.3,0-0.4,0c-6.7,0-13.4,0-20,0c-0.1,0-0.2,0-0.4,0c-1.2-0.1-1.6-0.4-1.6-1.6
		C173.3,65.7,173.3,58.2,173.3,50.7z"/>
	<path class="st0" d="M55.2,50.7c0-7.6,0-15.1,0-22.7c0-0.2,0-0.4,0-0.5c0.1-0.8,0.3-1.1,1.1-1.1c7,0,14,0,21.1,0
		c0.9,0,1.2,0.4,1.2,1.2c0,1.6,0,3.3,0,4.9c0,0.7-0.3,1-1,1c-4.4,0-8.7,0-13.1,0c-0.8,0-0.9,0.1-0.9,0.9c0,3.7,0,7.4,0,11
		c0,0.6,0,0.7,0.7,0.7c0.5,0,1,0,1.4,0c3.6,0,7.1,0,10.7,0c0.9,0,1,0.1,1,1c0,1.6,0,3.1,0,4.7c0,0.1,0,0.1,0,0.2
		c-0.1,1-0.3,1.2-1.3,1.2c-2.2,0-4.4,0-6.6,0c-1.8,0-3.6,0-5.4,0c-0.6,0-0.6,0.1-0.6,0.6c0,4.2,0,8.4,0,12.7c0,0.5,0.1,0.6,0.6,0.6
		c4.1,0,8.2,0,12.2,0c0.4,0,0.8,0,1.2,0.1c0.6,0.1,1,0.4,1,1c0,1.8,0,3.7,0,5.5c0,0.3-0.2,0.6-0.5,0.7c-0.3,0.1-0.6,0.2-0.9,0.2
		c-6.9,0-13.8,0-20.7,0c-0.3,0-0.6-0.1-0.9-0.2c-0.3-0.1-0.4-0.3-0.4-0.6c0-0.2,0-0.4,0-0.5C55.2,65.9,55.2,58.3,55.2,50.7z"/>
	<path class="st0" d="M109.9,58.4c0.2-0.2,0.1-0.5,0.2-0.7c0.2-1.3,0.4-2.7,0.7-4c0.2-1.2,0.3-2.4,0.8-3.6c0.1-0.3,0.1-0.7,0.2-1
		c0.2-1,0.5-2,0.7-3c0.1-0.7,0.2-1.4,0.5-2c0.5-1.1,0.3-2.3,0.8-3.4c0.2-0.3,0.1-0.8,0.2-1.2c0.2-1,0.4-2.1,0.7-3.1
		c0.3-1,0.3-2,0.8-2.9c0.1-0.1,0.1-0.3,0.1-0.5c0.1-0.6,0.1-1.2,0.4-1.7c0.2-0.5,0.1-1,0.2-1.5c0.2-0.8,0.4-1.7,0.5-2.5
		c0.1-0.5,0.7-0.9,1.2-0.9c2.1,0,4.3,0,6.4,0c0.8,0,1.2,0.4,1,1.2c-0.3,1.1-0.4,2.2-0.8,3.3c-0.1,0.3-0.1,0.6-0.2,0.9
		c-0.3,1.1-0.5,2.2-0.9,3.2c-0.1,0.3-0.1,0.6-0.2,0.8c-0.4,1.2-0.4,2.4-0.9,3.6c-0.1,0.3-0.1,0.7-0.2,1c-0.3,1-0.5,2.1-0.9,3.2
		c-0.1,0.3-0.1,0.6-0.2,0.9c-0.4,1.1-0.5,2.2-0.9,3.3c-0.1,0.3-0.1,0.7-0.2,1c-0.4,1.1-0.5,2.3-0.9,3.4c-0.1,0.2-0.1,0.5-0.1,0.7
		c-0.3,1.1-0.5,2.2-0.9,3.2c-0.1,0.3-0.1,0.6-0.2,0.9c-0.3,1.2-0.5,2.5-0.9,3.6c-0.1,0.3-0.1,0.5-0.2,0.8c-0.3,1.1-0.5,2.2-0.9,3.3
		c-0.1,0.2-0.1,0.5-0.1,0.8c-0.4,1.1-0.5,2.4-0.9,3.5c-0.1,0.3-0.1,0.7-0.2,1c-0.4,1.1-0.5,2.3-0.9,3.3c0,0.1,0,0.1-0.1,0.2
		c-0.2,0.9-0.6,1.3-1.6,1.3c-1.4,0-2.9,0-4.3,0c-0.4,0-0.8-0.1-1.1-0.3c-0.3-0.1-0.5-0.4-0.6-0.7c0-1.1-0.4-2.2-0.7-3.2
		c-0.2-0.9-0.3-1.8-0.8-2.7c-0.1-0.2-0.1-0.4-0.1-0.6c-0.3-1.3-0.6-2.6-0.9-3.8c-0.1-0.2-0.1-0.5-0.1-0.7c0-1-0.5-1.9-0.7-2.9
		c-0.3-1.3-0.7-2.7-1-4c-0.2-0.8-0.3-1.6-0.5-2.4c-0.2-0.7-0.2-1.4-0.5-2.1c-0.4-0.9-0.3-1.8-0.8-2.6c0,0,0-0.1,0-0.1
		c-0.1-1-0.6-2-0.7-3c-0.1-0.6-0.4-1.2-0.5-1.8c0-1.1-0.4-2-0.7-3c-0.2-0.9-0.3-1.8-0.7-2.6c0,0,0-0.1-0.1-0.2
		c-0.1-1.2-0.5-2.3-0.8-3.5c-0.2-0.9-0.2-2-0.7-2.9c0,0,0-0.1,0-0.1c-0.1-1.1-0.6-2-0.7-3.1c0-0.3-0.1-0.5-0.2-0.7
		c-0.3-0.7,0.1-1.3,0.8-1.3c2.2,0,4.3,0,6.5,0c0.5,0,1.1,0.5,1.1,1c0.1,1.1,0.5,2.2,0.8,3.3c0.3,1.2,0.6,2.4,0.9,3.6
		c0.2,1.1,0.5,2.2,0.7,3.3c0.2,1,0.4,2,0.7,3c0.3,1,0.5,2.1,0.8,3.2c0.3,1.2,0.4,2.4,0.8,3.5c0.1,0.3,0.1,0.6,0.2,0.9
		c0.3,1.3,0.6,2.5,0.9,3.8c0.3,1.5,0.7,3.1,0.8,4.6C109.5,57.4,109.8,57.9,109.9,58.4z"/>
	<path class="st0" d="M152,50.7c0,7.6,0,15.2,0,22.8c0,1.1-0.4,1.5-1.5,1.5c-1.9,0-3.7,0-5.6,0c-0.5,0-0.9-0.1-1.2-0.5
		c-0.2-0.2-0.3-0.4-0.3-0.7c0-0.1,0-0.3,0-0.4c0-15.2,0-30.3,0-45.5c0-0.2,0-0.5,0-0.7c0.1-0.5,0.6-0.8,1.1-0.8c2,0,4.1,0,6.1,0
		c0.9,0,1.3,0.4,1.3,1.3C152,35.4,152,43,152,50.7z"/>
</g>
</svg>
