<?xml version="1.0" encoding="utf-8"?>
<!-- Generator: $$$/GeneralStr/196=Adobe Illustrator 27.6.0, SVG Export Plug-In . SVG Version: 6.00 Build 0)  -->
<svg version="1.1" id="Capa_1" xmlns="http://www.w3.org/2000/svg" xmlns:xlink="http://www.w3.org/1999/xlink" x="0px" y="0px"
	 viewBox="0 0 250 100" style="enable-background:new 0 0 250 100;" xml:space="preserve">
<style type="text/css">
	.st0{fill-rule:evenodd;clip-rule:evenodd;fill:#777777;}
	.st1{fill-rule:evenodd;clip-rule:evenodd;fill:#FFFFFF;}
</style>
<g>
	<polygon class="st0" points="187.3,84.7 187.3,15.3 62.7,15.3 62.7,84.7 187.3,84.7 	"/>
	<path class="st1" d="M72.2,28h6c11.5,0,12.7,7.4,12.7,18.8c0,10.9-0.9,18.8-11.5,18.8h-7.1V28L72.2,28z M79,59.8
		c4.3-0.1,4.6-1.6,4.6-13.1c0-11.4-0.2-12.9-4.6-13V59.8L79,59.8z"/>
	<polygon class="st1" points="94.9,28 101.7,28 101.7,65.7 94.9,65.7 94.9,28 	"/>
	<polygon class="st1" points="106.3,28 121.9,28 121.9,33.8 113.2,33.8 113.2,43.4 119.6,43.4 119.6,49.6 113.2,49.6 113.2,59.8 
		122.3,59.8 122.3,65.7 106.3,65.7 106.3,28 	"/>
	<path class="st1" d="M130.1,54.7c0,2.1,0,5.8,3,5.8c2.3,0,3.1-2.1,3.1-3.7c0-6.7-12.5-8.3-12.5-19.4c0-5.7,3.1-10.3,8.9-10.3
		c6.2,0,8.6,4.7,8.7,11.5h-6.1c0-2.1,0-5.7-2.8-5.7c-1.6,0-2.6,1.4-2.6,3.4c0,6.4,12.5,8.6,12.5,19.5c0,5.8-3.3,10.4-9.5,10.4
		c-7.4,0-8.8-6.5-8.8-11.6H130.1L130.1,54.7z"/>
	<polygon class="st1" points="145.4,28 161,28 161,33.8 152.3,33.8 152.3,43.4 158.7,43.4 158.7,49.6 152.3,49.6 152.3,59.8 
		161.3,59.8 161.3,65.7 145.4,65.7 145.4,28 	"/>
	<polygon class="st1" points="164.5,28 171.3,28 171.3,59.8 178.8,59.8 178.8,65.7 164.5,65.7 164.5,28 	"/>
	<path class="st1" d="M175.2,29.7c0-1,0.8-1.8,1.8-1.8c1,0,1.8,0.8,1.8,1.8c0,1-0.8,1.8-1.8,1.8C176,31.5,175.2,30.7,175.2,29.7
		L175.2,29.7z M175.5,29.7c0,0.8,0.7,1.4,1.5,1.4c0.8,0,1.5-0.6,1.5-1.4c0-0.8-0.7-1.4-1.5-1.4C176.2,28.3,175.5,28.9,175.5,29.7
		L175.5,29.7z M177.9,30.7h-0.3l-0.6-0.9h-0.4v0.9h-0.3v-2h0.9c0.2,0,0.3,0,0.5,0.1c0.2,0.1,0.2,0.3,0.2,0.4c0,0.4-0.3,0.5-0.6,0.5
		L177.9,30.7L177.9,30.7z M177,29.5c0.3,0,0.7,0.1,0.7-0.3c0-0.3-0.2-0.3-0.5-0.3h-0.5v0.6H177L177,29.5z"/>
	<polygon class="st1" points="75.8,72.5 73.7,72.5 73.7,73.3 75.1,73.3 75.1,74.1 73.7,74.1 73.7,75.6 72.4,75.6 72.4,71.7 
		75.8,71.7 75.8,72.5 	"/>
	<path class="st1" d="M79.5,75.7c-1.2,0-2.3-0.8-2.3-2.1c0-1.4,1-2,2.3-2c1.2,0,2.2,0.8,2.2,2C81.7,74.9,80.7,75.7,79.5,75.7
		L79.5,75.7z M80.2,73.1c0-0.3-0.3-0.7-0.7-0.7c-0.4,0-0.6,0.4-0.7,0.7c0,0.2-0.1,0.7,0,1.1c0.1,0.4,0.3,0.7,0.7,0.7
		c0.4,0,0.6-0.3,0.7-0.7C80.2,73.9,80.2,73.4,80.2,73.1L80.2,73.1z"/>
	<path class="st1" d="M84.8,74.1v1.5h-1.3v-3.9h2.8c0.8,0,1.2,0.5,1.3,1.2c0,0.6-0.3,1.1-0.8,1.2l0.8,1.5h-1.4l-0.6-1.5H84.8
		L84.8,74.1z M84.8,73.3h0.9c0.2,0,0.4-0.2,0.4-0.4c0-0.2-0.2-0.4-0.4-0.4h-0.9V73.3L84.8,73.3z"/>
	<path class="st1" d="M93.5,72.8c0,0.1,0.1,0.2,0.2,0.2c0.4,0.1,0.4,0,0.8,0.1c0.6,0.1,1.1,0.3,1.3,0.9c0.1,0.3,0.1,0.7-0.1,1
		c-0.4,0.6-1.2,0.7-1.6,0.7c-0.5,0-1.7,0-2.2-0.9l0.6-0.5c0.1,0.1,0.2,0.2,0.3,0.3c0.5,0.3,1.1,0.3,1.4,0.2c0.1,0,0.2-0.1,0.2-0.1
		c0.1-0.1,0-0.3-0.1-0.3c-0.3-0.1-0.4,0-1.1-0.3c-0.4-0.1-0.9-0.3-1.1-0.8c-0.1-0.3-0.1-0.7,0-1c0.2-0.5,0.9-0.6,1.2-0.7
		c0.7-0.1,1.6,0,2.3,0.7l-0.6,0.5c-0.4-0.3-1.1-0.4-1.5-0.2C93.6,72.7,93.5,72.7,93.5,72.8L93.5,72.8z"/>
	<path class="st1" d="M99.9,74.7c0.5,0,0.8-0.2,0.8-0.5v-2.5h1v2.7c0,0.8-0.5,1.3-1.8,1.3h-0.3c-1.3,0-1.8-0.5-1.8-1.3v-2.7h1.3v2.5
		C99.2,74.5,99.4,74.7,99.9,74.7L99.9,74.7z"/>
	<path class="st1" d="M107.7,74.3c-0.1,0.6-0.7,1.1-1.3,1.3c-0.2,0-0.5,0.1-0.8,0.1c-1.1,0-2.1-0.9-2.1-2.1c0-1.1,1-2,2.1-2
		c0.4,0,0.7,0.1,0.8,0.1c0.6,0.1,1.1,0.6,1.2,1.2l-1.1,0.1c0-0.5-0.5-0.7-0.8-0.7c-0.5,0-0.8,0.4-0.8,1.2v0.1c0,0.8,0.3,1.2,0.8,1.2
		c0.5,0,0.8-0.1,0.9-0.8L107.7,74.3L107.7,74.3z"/>
	<path class="st1" d="M113.7,74.3c-0.1,0.6-0.7,1.1-1.3,1.3c-0.2,0-0.5,0.1-0.8,0.1c-1.1,0-2.1-0.9-2.1-2.1c0-1.1,1-2,2.1-2
		c0.4,0,0.7,0.1,0.8,0.1c0.6,0.1,1.1,0.6,1.2,1.2l-1.1,0.1c0-0.5-0.5-0.7-0.8-0.7c-0.5,0-0.8,0.4-0.8,1.2v0.1c0,0.8,0.3,1.2,0.8,1.2
		c0.5,0,0.8-0.1,0.9-0.8L113.7,74.3L113.7,74.3z"/>
	<polygon class="st1" points="119.1,75.6 115.5,75.6 115.5,71.7 119,71.7 119,72.5 116.8,72.5 116.8,73.3 118.2,73.3 118.2,74.1 
		116.8,74.1 116.8,74.8 119.1,74.8 119.1,75.6 	"/>
	<path class="st1" d="M122.3,72.8c0,0.1,0.1,0.2,0.2,0.2c0.4,0.1,0.4,0,0.8,0.1c0.6,0.1,1.1,0.3,1.3,0.9c0.1,0.3,0.1,0.7-0.1,1
		c-0.4,0.6-1.2,0.7-1.6,0.7c-0.5,0-1.7,0-2.2-0.9l0.6-0.5c0.1,0.1,0.2,0.2,0.3,0.3c0.5,0.3,1.1,0.3,1.4,0.2c0.1,0,0.2-0.1,0.2-0.1
		c0.1-0.1,0-0.3-0.1-0.3c-0.3-0.1-0.4,0-1.1-0.3c-0.4-0.1-0.9-0.3-1.1-0.8c-0.1-0.3-0.1-0.7,0-1c0.2-0.5,0.9-0.6,1.2-0.7
		c0.7-0.1,1.6,0,2.3,0.7l-0.6,0.5c-0.4-0.3-1.1-0.4-1.5-0.2C122.4,72.7,122.3,72.7,122.3,72.8L122.3,72.8z"/>
	<path class="st1" d="M127.9,72.8c0,0.1,0.1,0.2,0.2,0.2c0.4,0.1,0.4,0,0.8,0.1c0.6,0.1,1.1,0.3,1.3,0.9c0.1,0.3,0.1,0.7-0.1,1
		c-0.4,0.6-1.2,0.7-1.6,0.7c-0.5,0-1.7,0-2.2-0.9l0.6-0.5c0.1,0.1,0.2,0.2,0.3,0.3c0.5,0.3,1.1,0.3,1.4,0.2c0.1,0,0.2-0.1,0.2-0.1
		c0.1-0.1,0-0.3-0.1-0.3c-0.3-0.1-0.4,0-1.1-0.3c-0.4-0.1-0.9-0.3-1.1-0.8c-0.1-0.3-0.1-0.7,0-1c0.2-0.5,0.9-0.6,1.2-0.7
		c0.7-0.1,1.6,0,2.3,0.7l-0.6,0.5c-0.4-0.3-1.1-0.4-1.5-0.2C128,72.7,127.9,72.7,127.9,72.8L127.9,72.8z"/>
	<polygon class="st1" points="135.7,72.5 133.5,72.5 133.5,73.3 134.9,73.3 134.9,74.1 133.5,74.1 133.5,75.6 132.2,75.6 
		132.2,71.7 135.7,71.7 135.7,72.5 	"/>
	<path class="st1" d="M139.6,74.7c0.5,0,0.8-0.2,0.8-0.5v-2.5h1v2.7c0,0.8-0.5,1.3-1.8,1.3h-0.3c-1.3,0-1.8-0.5-1.8-1.3v-2.7h1.3
		v2.5C138.9,74.5,139.1,74.7,139.6,74.7L139.6,74.7z"/>
	<polygon class="st1" points="144.6,71.7 144.6,74.8 146.5,74.8 146.5,75.6 143.3,75.6 143.3,71.7 144.6,71.7 	"/>
	<polygon class="st1" points="152.5,71.7 152.5,74.8 154.4,74.8 154.4,75.6 151.2,75.6 151.2,71.7 152.5,71.7 	"/>
	<polygon class="st1" points="157.5,71.7 157.5,75.6 156.2,75.6 156.2,71.7 157.5,71.7 	"/>
	<polygon class="st1" points="160.5,71.7 161.5,74.2 162.5,71.7 163.7,71.7 162.1,75.6 160.8,75.6 159.2,71.7 160.5,71.7 	"/>
	<polygon class="st1" points="166.7,71.7 166.7,75.6 165.4,75.6 165.4,71.7 166.7,71.7 	"/>
	<polygon class="st1" points="171.6,73.8 171.6,71.7 172.6,71.7 172.6,75.6 171.5,75.6 169.7,73.4 169.7,75.6 168.6,75.6 
		168.6,71.7 169.8,71.7 171.6,73.8 	"/>
	<path class="st1" d="M176.6,74.3v-0.8h2v2.1h-0.5l-0.3-0.4c-0.4,0.4-1,0.5-1.5,0.5c-1.1,0-1.9-1-1.9-2.1c0-1.1,1-2,2.1-2
		c0.3,0,0.7,0,0.8,0.1c0.6,0.2,1.1,0.6,1.2,1.2l-1.1,0.1c0-0.4-0.4-0.7-0.8-0.7c-0.5,0-0.8,0.3-0.8,0.8v0.9c0,0.6,0.4,0.8,0.8,0.8
		c0.3,0,0.7-0.3,0.7-0.5c0,0,0,0,0,0H176.6L176.6,74.3z"/>
</g>
</svg>
