<?xml version="1.0" encoding="utf-8"?>
<!-- Generator: $$$/GeneralStr/196=Adobe Illustrator 27.6.0, SVG Export Plug-In . SVG Version: 6.00 Build 0)  -->
<svg version="1.1" id="Capa_1" xmlns="http://www.w3.org/2000/svg" xmlns:xlink="http://www.w3.org/1999/xlink" x="0px" y="0px"
	 viewBox="0 0 250 100" style="enable-background:new 0 0 250 100;" xml:space="preserve">
<style type="text/css">
	.st0{fill:#777777;}
</style>
<path class="st0" d="M90.7,40.7h9c7.7,0,10.7,4.5,10.7,9.3c0,4.9-3.9,9.2-11.2,9.2h-8.4c-0.2,0-0.2-0.1-0.2-0.2
	c0-0.1,0.1-0.2,0.2-0.2h1.6c0.5,0,0.8-0.3,0.8-0.8V42c0-0.4-0.2-0.9-0.8-0.9h-1.6c-0.1,0-0.2-0.1-0.2-0.2
	C90.5,40.8,90.5,40.7,90.7,40.7 M96.3,58.4c0,0.4,0.2,0.5,0.4,0.5h2.4c5.8,0,8-4.5,8-9s-2.2-8.8-7.2-8.8h-3.2
	c-0.3,0-0.4,0.3-0.4,0.4C96.3,41.5,96.3,58.4,96.3,58.4z M111.3,40.7c-0.1,0-0.3,0.1-0.3,0.2s0.1,0.2,0.2,0.2h1.6
	c0.4,0,0.7,0.3,0.7,0.9v16c0,0.3-0.3,0.8-0.7,0.8h-1.6c-0.2,0-0.2,0.1-0.2,0.2s0,0.2,0.2,0.2h7.6c0.1,0,0.3,0,0.3-0.1s0-0.2-0.2-0.2
	h-1.5c-0.2,0-0.8-0.1-0.8-0.8V41.9c0-0.5,0.3-0.8,0.8-0.8h1.4c0.1,0,0.2-0.1,0.2-0.2c0-0.1-0.1-0.2-0.2-0.2L111.3,40.7L111.3,40.7z
	 M123.1,50c0-5.1,2.3-9.3,6.6-9.3c4.2,0,6.6,4.1,6.6,9.3s-2.2,9.3-6.6,9.3C125.4,59.3,123.1,55.1,123.1,50 M129.7,59.6
	c6.1,0,10-4.3,10-9.6s-3.8-9.7-10-9.7c-6.1,0-10,4.3-10,9.6S123.7,59.6,129.7,59.6 M159.2,59.1c-2.4,0.3-3.7-3.7-4.9-5.6
	c-0.9-1.4-2.8-2.8-4.7-3.1c3.1-0.2,6.6-1.2,6.6-4.7c0-2.9-1.8-5.1-8.3-5.1h-7.5c-0.1,0-0.2,0.1-0.2,0.2s0.1,0.2,0.2,0.2h1.7
	c0.4,0,0.7,0.3,0.7,0.9v16c0,0.3-0.3,0.8-0.7,0.8h-1.7c-0.1,0-0.2,0.1-0.2,0.2c0,0.1,0.1,0.2,0.2,0.2h8c0.1,0,0.2-0.1,0.2-0.2
	s-0.1-0.2-0.2-0.2h-1.6c-0.2,0-0.8-0.1-0.8-0.8v-7.6h0.8c3.9,0,4.2,4.3,6.2,6.7c1.7,2.1,3.9,2.4,5.1,2.4c0.5,0,0.9,0,1.2-0.1
	C159.5,59.5,159.6,59.1,159.2,59.1 M146.8,41.1h1.2c2,0,5.2,0.8,5.2,4.5c0,3.4-2.8,4.6-5.5,4.6H146v-8.3
	C146,41.4,146.3,41.1,146.8,41.1"/>
</svg>
