<?xml version="1.0" encoding="UTF-8"?>
<svg id="Capa_1" xmlns="http://www.w3.org/2000/svg" version="1.1" viewBox="0 0 250 100">
  <!-- Generator: Adobe Illustrator 29.6.1, SVG Export Plug-In . SVG Version: 2.1.1 Build 9)  -->
  <defs>
    <style>
      .st0 {
        fill: #777;
      }
    </style>
  </defs>
  <path class="st0" d="M160.61,74.73h1.72c.45,0,.85.1,1.21.28s.62.44.82.77c.2.33.3.7.3,1.12s-.1.79-.3,1.12c-.2.33-.47.58-.82.77s-.75.28-1.21.28h-1.72v-4.34ZM162.3,78.79c.4,0,.75-.09,1.06-.24s.54-.38.71-.67.26-.61.26-.98-.09-.7-.26-.98-.4-.51-.71-.67-.67-.24-1.06-.24h-1.38v3.77h1.38Z"/>
  <path class="st0" d="M160.61,74.73h1.72c.45,0,.85.1,1.21.28s.62.44.82.77c.2.33.3.7.3,1.12s-.1.79-.3,1.12c-.2.33-.47.58-.82.77s-.75.28-1.21.28h-1.72v-4.34ZM162.3,78.79c.4,0,.75-.09,1.06-.24s.54-.38.71-.67.26-.61.26-.98-.09-.7-.26-.98-.4-.51-.71-.67-.67-.24-1.06-.24h-1.38v3.77h1.38Z"/>
  <polygon class="st0" points="171.83 78.79 171.83 79.08 168.84 79.08 168.84 74.73 171.74 74.73 171.74 75.02 169.15 75.02 169.15 76.73 171.46 76.73 171.46 77.02 169.15 77.02 169.15 78.79 171.83 78.79"/>
  <polygon class="st0" points="171.83 78.79 171.83 79.08 168.84 79.08 168.84 74.73 171.74 74.73 171.74 75.02 169.15 75.02 169.15 76.73 171.46 76.73 171.46 77.02 169.15 77.02 169.15 78.79 171.83 78.79"/>
  <path class="st0" d="M176.33,78.95c-.28-.11-.51-.26-.67-.43l.14-.24c.16.16.35.3.62.4.26.1.52.16.81.16.41,0,.72-.09.94-.24s.31-.37.31-.61c0-.2-.06-.35-.17-.47-.11-.11-.26-.2-.41-.27-.17-.06-.38-.13-.67-.2-.31-.09-.57-.16-.77-.23s-.35-.18-.5-.34c-.13-.16-.2-.37-.2-.62,0-.21.06-.4.17-.58.11-.17.28-.31.51-.43.23-.1.51-.16.87-.16.24,0,.48.03.71.1s.43.17.6.28l-.11.26c-.17-.11-.37-.21-.57-.27-.21-.06-.41-.1-.62-.1-.4,0-.71.09-.91.24-.21.16-.31.37-.31.62,0,.2.06.35.17.47.11.11.26.2.41.27.17.06.4.13.68.2.31.09.57.16.77.23.18.07.35.18.48.34s.2.35.2.61c0,.21-.06.4-.17.58-.11.17-.28.31-.52.41-.24.1-.52.16-.87.16-.34.01-.64-.04-.92-.14"/>
  <path class="st0" d="M176.33,78.95c-.28-.11-.51-.26-.67-.43l.14-.24c.16.16.35.3.62.4.26.1.52.16.81.16.41,0,.72-.09.94-.24s.31-.37.31-.61c0-.2-.06-.35-.17-.47-.11-.11-.26-.2-.41-.27-.17-.06-.38-.13-.67-.2-.31-.09-.57-.16-.77-.23s-.35-.18-.5-.34c-.13-.16-.2-.37-.2-.62,0-.21.06-.4.17-.58.11-.17.28-.31.51-.43.23-.1.51-.16.87-.16.24,0,.48.03.71.1s.43.17.6.28l-.11.26c-.17-.11-.37-.21-.57-.27-.21-.06-.41-.1-.62-.1-.4,0-.71.09-.91.24-.21.16-.31.37-.31.62,0,.2.06.35.17.47.11.11.26.2.41.27.17.06.4.13.68.2.31.09.57.16.77.23.18.07.35.18.48.34s.2.35.2.61c0,.21-.06.4-.17.58-.11.17-.28.31-.52.41-.24.1-.52.16-.87.16-.34.01-.64-.04-.92-.14Z"/>
  <path class="st0" d="M182.97,74.73h1.72c.45,0,.85.1,1.21.28s.62.44.82.77.3.7.3,1.12-.1.79-.3,1.12-.47.58-.82.77-.75.28-1.21.28h-1.72v-4.34ZM184.67,78.79c.4,0,.75-.09,1.06-.24s.54-.38.71-.67.26-.61.26-.98-.09-.7-.26-.98c-.17-.28-.4-.51-.71-.67s-.67-.24-1.06-.24h-1.38v3.77h1.38Z"/>
  <path class="st0" d="M182.97,74.73h1.72c.45,0,.85.1,1.21.28s.62.44.82.77.3.7.3,1.12-.1.79-.3,1.12-.47.58-.82.77-.75.28-1.21.28h-1.72v-4.34ZM184.67,78.79c.4,0,.75-.09,1.06-.24s.54-.38.71-.67.26-.61.26-.98-.09-.7-.26-.98c-.17-.28-.4-.51-.71-.67s-.67-.24-1.06-.24h-1.38v3.77h1.38Z"/>
  <polygon class="st0" points="194.19 78.79 194.19 79.08 191.19 79.08 191.19 74.73 194.1 74.73 194.1 75.02 191.51 75.02 191.51 76.73 193.82 76.73 193.82 77.02 191.51 77.02 191.51 78.79 194.19 78.79"/>
  <polygon class="st0" points="194.19 78.79 194.19 79.08 191.19 79.08 191.19 74.73 194.1 74.73 194.1 75.02 191.51 75.02 191.51 76.73 193.82 76.73 193.82 77.02 191.51 77.02 191.51 78.79 194.19 78.79"/>
  <polygon class="st0" points="203.82 74.73 203.82 79.08 203.51 79.08 203.51 75.02 202.44 75.02 202.44 74.73 203.82 74.73"/>
  <polygon class="st0" points="203.82 74.73 203.82 79.08 203.51 79.08 203.51 75.02 202.44 75.02 202.44 74.73 203.82 74.73"/>
  <path class="st0" d="M210.63,75.27c.3.38.45.92.45,1.6,0,.48-.09.88-.24,1.22-.16.33-.38.58-.67.75-.28.17-.62.26-1.02.26s-.74-.07-.99-.23l.13-.26c.21.13.5.2.85.2.5,0,.89-.16,1.18-.48s.43-.79.43-1.42c0-.18-.01-.37-.04-.52-.09.28-.26.5-.51.65-.26.16-.54.24-.88.24-.28,0-.54-.06-.77-.16s-.4-.26-.51-.45c-.11-.2-.18-.43-.18-.68s.06-.5.18-.7.3-.35.51-.45c.21-.11.47-.16.74-.16.61.01,1.04.2,1.35.58M210.01,76.89c.18-.09.33-.21.43-.37s.16-.33.16-.52c0-.17-.04-.34-.14-.5s-.24-.28-.43-.38-.41-.14-.67-.14c-.34,0-.61.1-.82.28s-.31.44-.31.75.1.55.31.74c.21.18.5.28.87.28.21,0,.43-.04.61-.14"/>
  <path class="st0" d="M210.63,75.27c.3.38.45.92.45,1.6,0,.48-.09.88-.24,1.22-.16.33-.38.58-.67.75-.28.17-.62.26-1.02.26s-.74-.07-.99-.23l.13-.26c.21.13.5.2.85.2.5,0,.89-.16,1.18-.48s.43-.79.43-1.42c0-.18-.01-.37-.04-.52-.09.28-.26.5-.51.65-.26.16-.54.24-.88.24-.28,0-.54-.06-.77-.16s-.4-.26-.51-.45c-.11-.2-.18-.43-.18-.68s.06-.5.18-.7.3-.35.51-.45c.21-.11.47-.16.74-.16.61.01,1.04.2,1.35.58ZM210.01,76.89c.18-.09.33-.21.43-.37s.16-.33.16-.52c0-.17-.04-.34-.14-.5s-.24-.28-.43-.38-.41-.14-.67-.14c-.34,0-.61.1-.82.28s-.31.44-.31.75.1.55.31.74c.21.18.5.28.87.28.21,0,.43-.04.61-.14Z"/>
  <path class="st0" d="M217.88,77.2c.17.18.24.41.24.68,0,.38-.14.68-.44.89s-.7.33-1.21.33-.91-.11-1.21-.33-.44-.51-.44-.89c0-.27.09-.5.24-.68s.38-.31.68-.4c-.24-.09-.44-.21-.57-.37-.13-.17-.2-.37-.2-.61,0-.34.13-.62.4-.82s.62-.3,1.08-.3.81.1,1.09.3c.27.2.41.48.41.82,0,.24-.07.44-.2.61-.13.17-.33.3-.58.37.3.09.52.21.7.4M217.45,78.58c.24-.17.35-.4.35-.7s-.11-.52-.35-.7c-.24-.17-.57-.26-.98-.26s-.74.09-.96.26c-.23.17-.35.4-.35.7s.11.52.34.7c.23.17.55.26.98.26s.74-.09.98-.26M215.61,76.45c.2.16.5.23.87.23s.65-.07.87-.23.31-.35.31-.62-.11-.47-.33-.62-.5-.23-.87-.23-.64.07-.85.23-.31.37-.31.62c.01.27.11.47.31.62"/>
  <path class="st0" d="M217.88,77.2c.17.18.24.41.24.68,0,.38-.14.68-.44.89s-.7.33-1.21.33-.91-.11-1.21-.33-.44-.51-.44-.89c0-.27.09-.5.24-.68s.38-.31.68-.4c-.24-.09-.44-.21-.57-.37-.13-.17-.2-.37-.2-.61,0-.34.13-.62.4-.82s.62-.3,1.08-.3.81.1,1.09.3c.27.2.41.48.41.82,0,.24-.07.44-.2.61-.13.17-.33.3-.58.37.3.09.52.21.7.4ZM217.45,78.58c.24-.17.35-.4.35-.7s-.11-.52-.35-.7c-.24-.17-.57-.26-.98-.26s-.74.09-.96.26c-.23.17-.35.4-.35.7s.11.52.34.7c.23.17.55.26.98.26s.74-.09.98-.26ZM215.61,76.45c.2.16.5.23.87.23s.65-.07.87-.23.31-.35.31-.62-.11-.47-.33-.62-.5-.23-.87-.23-.64.07-.85.23-.31.37-.31.62c.01.27.11.47.31.62Z"/>
  <path class="st0" d="M222.7,78.83c-.26-.18-.45-.44-.6-.77s-.21-.72-.21-1.16.07-.84.21-1.16c.14-.33.34-.58.6-.77.26-.18.55-.27.88-.27s.62.09.88.27c.26.18.45.44.6.77s.21.72.21,1.16-.07.84-.21,1.16c-.14.33-.34.58-.6.77-.26.18-.55.27-.88.27s-.62-.09-.88-.27M224.31,78.59c.21-.16.37-.37.48-.65s.17-.62.17-1.02-.06-.74-.17-1.02c-.11-.28-.28-.51-.48-.65-.21-.16-.45-.23-.72-.23s-.51.07-.72.23-.37.37-.48.65-.17.62-.17,1.02.06.74.17,1.02c.11.28.28.51.48.65.21.16.45.23.72.23.27,0,.51-.09.72-.23"/>
  <path class="st0" d="M222.7,78.83c-.26-.18-.45-.44-.6-.77s-.21-.72-.21-1.16.07-.84.21-1.16c.14-.33.34-.58.6-.77.26-.18.55-.27.88-.27s.62.09.88.27c.26.18.45.44.6.77s.21.72.21,1.16-.07.84-.21,1.16c-.14.33-.34.58-.6.77-.26.18-.55.27-.88.27s-.62-.09-.88-.27ZM224.31,78.59c.21-.16.37-.37.48-.65s.17-.62.17-1.02-.06-.74-.17-1.02c-.11-.28-.28-.51-.48-.65-.21-.16-.45-.23-.72-.23s-.51.07-.72.23-.37.37-.48.65-.17.62-.17,1.02.06.74.17,1.02c.11.28.28.51.48.65.21.16.45.23.72.23.27,0,.51-.09.72-.23Z"/>
  <polygon class="st0" points="146.14 34.67 111.05 34.67 111.05 36.69 144.14 36.69 144.14 42.74 146.14 42.74 146.14 34.67"/>
  <polygon class="st0" points="144.14 77.08 106.97 77.08 106.97 69.9 104.95 69.9 104.95 79.08 146.14 79.08 146.14 69.9 144.14 69.9 144.14 77.08"/>
  <rect class="st0" x="104.95" y="35.68" width="2" height="7.06"/>
  <polygon class="st0" points="119.78 28.06 124.82 28.06 124.82 26.05 119.78 26.05 119.78 22.9 128.23 22.9 128.23 20.9 117.78 20.9 117.78 29.85 119.78 29.85 119.78 28.06"/>
  <polygon class="st0" points="126.29 27.73 131.33 27.73 131.33 30.88 122.86 30.88 122.86 32.88 133.33 32.88 133.33 23.93 131.33 23.93 131.33 25.73 126.29 25.73 126.29 27.73"/>
  <path class="st0" d="M24.71,47h6.28c6.57,0,10.3,3.35,10.3,8.82,0,6.1-3.65,9.66-10.27,9.66h-6.31v-18.49ZM31.03,64.86c5.25,0,7.97-3.06,7.97-9.01,0-5.36-2.77-8.24-8-8.24h-4.11v17.25h4.14Z"/>
  <rect class="st0" x="44.51" y="47" width="2.17" height="18.49"/>
  <path class="st0" d="M49.88,62.41l1.01-.34c.92,2.2,3.38,3.01,5.8,3.01,2.77,0,5.02-1.45,5.02-3.72,0-2.38-2.17-3.16-5.06-4.01-3.19-.89-6.77-1.9-6.77-5.55,0-3.33,3.65-5.06,7.24-5.06,2.91,0,5.67,1.11,6.68,3.38l-1.01.34c-.92-2.18-3.31-3.01-5.73-3.01-2.77,0-5.02,1.43-5.02,3.7,0,2.38,2.17,3.09,5.06,3.93,3.22.92,6.77,1.99,6.77,5.65,0,3.33-3.65,5.06-7.24,5.06-2.91,0-5.76-1.11-6.75-3.38"/>
  <polygon class="st0" points="67.08 47 79.62 47 79.62 47.72 69.25 47.72 69.25 56.93 77.43 56.93 77.43 57.57 69.25 57.57 69.25 65.48 67.08 65.48 67.08 47"/>
  <path class="st0" d="M95.04,52.29c0-3.35-2.67-5.28-7.29-5.28h-4.92v.64h4.92c3.38,0,4.99,1.48,4.99,4.65s-1.62,4.65-4.99,4.65h-4.92v.64h4.19l5.02,7.92h2.57l-5.06-8.03c3.5-.47,5.5-2.3,5.5-5.19"/>
  <polygon class="st0" points="107.35 47 105.66 47 98.24 65.48 99.04 65.48 105.75 48.8 112.53 65.48 114.88 65.48 107.35 47"/>
  <polygon class="st0" points="143.09 47 141.4 47 133.98 65.48 134.77 65.48 141.47 48.8 148.27 65.48 150.62 65.48 143.09 47"/>
  <polygon class="st0" points="202.98 47 201.3 47 193.88 65.48 194.67 65.48 201.38 48.8 208.16 65.48 210.52 65.48 202.98 47"/>
  <path class="st0" d="M114.88,56.28c0-5.58,4.11-9.48,9.96-9.48,3.33,0,6.13,1.53,6.97,3.43l-.95.34c-.98-2.11-3.22-3.22-5.76-3.22-4.14,0-7.92,3.53-7.92,8.87s3.72,8.95,7.9,8.95c2,0,4.28-.82,5.12-1.96v-5.39h2.17v1.84c0,3.92-3.52,6.07-7.55,6.07-5.86.01-9.94-3.89-9.94-9.46"/>
  <polygon class="st0" points="152.85 47 154.99 47 167.01 61.98 167.01 47 167.72 47 167.72 65.48 167.06 65.48 153.57 48.74 153.57 65.48 152.85 65.48 152.85 47"/>
  <path class="st0" d="M170.14,56.28c0-5.58,4.11-9.48,9.96-9.48,3.33,0,6.13,1.53,6.97,3.43l-.95.34c-.98-2.11-3.22-3.22-5.76-3.22-4.1,0-7.87,3.53-7.87,8.87s3.72,8.98,7.85,8.98c2.54,0,4.78-1.11,5.76-3.22l.95.34c-.85,1.9-3.65,3.43-6.97,3.43-5.83,0-9.93-3.9-9.93-9.48"/>
  <rect class="st0" x="189.25" y="47" width="2.17" height="18.49"/>
  <path class="st0" d="M211.28,62.41l1.01-.34c.92,2.2,3.38,3.01,5.82,3.01,2.77,0,5.02-1.45,5.02-3.72,0-2.38-2.17-3.16-5.06-4.01-3.19-.89-6.77-1.9-6.77-5.55,0-3.33,3.65-5.06,7.24-5.06,2.91,0,5.67,1.11,6.68,3.38l-1.01.34c-.92-2.18-3.31-3.01-5.73-3.01-2.77,0-5.02,1.43-5.02,3.7,0,2.38,2.17,3.09,5.06,3.93,3.22.92,6.77,1.99,6.77,5.65,0,3.33-3.65,5.06-7.24,5.06-2.91,0-5.76-1.11-6.77-3.38"/>
</svg>