<?xml version="1.0" encoding="utf-8"?>
<!-- Generator: $$$/GeneralStr/196=Adobe Illustrator 27.6.0, SVG Export Plug-In . SVG Version: 6.00 Build 0)  -->
<svg version="1.1" id="Capa_1" xmlns="http://www.w3.org/2000/svg" xmlns:xlink="http://www.w3.org/1999/xlink" x="0px" y="0px"
	 viewBox="0 0 250 100" style="enable-background:new 0 0 250 100;" xml:space="preserve">
<style type="text/css">
	.st0{fill-rule:evenodd;clip-rule:evenodd;fill:#777777;}
</style>
<g id="Symbols">
	<g id="header_x2F_desktop" transform="translate(-24.000000, -24.000000)">
		<path id="logo-white" class="st0" d="M154.6,73.8h-9.8v2.5h6.5c-0.3,4.2-3.3,5.5-6.9,5.8c-4.5,0.3-8-3.5-8.1-7.9
			c-0.1-4.4,3.6-8.2,8.1-8.2c3.1,0,5.7,1.8,6.8,3.7l2.4-1.3c-1.2-3-5.1-5.1-9.2-5.2c-6.3-0.2-11.4,4.9-11.3,10.9
			c0.1,5.9,5.2,10.7,11.3,10.6C153.5,84.6,155.2,77.1,154.6,73.8L154.6,73.8z M207.8,75.9l2.7-7.1l2.7,7.1H207.8z M209.5,63.9
			L201,84.1h3.4l2.3-5.7h7.7l2.3,5.7h3.4l-8.5-20.2H209.5z M123.6,82.9c-1,0-1.7-0.7-1.7-1.6c0-0.8,0.5-1.2,1.4-1.8
			c0,0,0.1,0,0.1-0.1c0.2,0.3,1.9,2.3,2.2,2.6C124.9,82.6,124.3,82.9,123.6,82.9L123.6,82.9z M124.2,75.2c0.6,0,1,0.3,1,0.9
			c0,0.5-0.3,0.9-0.9,1.2c0,0-0.2,0.1-0.3,0.2c-0.2-0.2-0.5-0.6-0.5-0.6c-0.2-0.3-0.3-0.5-0.3-0.8C123.2,75.6,123.6,75.2,124.2,75.2
			L124.2,75.2z M129,80.6l0.1-0.2l-1-1.1c0,0-1,1.2-1.2,1.5c-0.3-0.3-1.6-1.9-1.9-2.2c1.2-0.8,1.7-1.6,1.7-2.5c0-1.4-1-2.3-2.6-2.3
			c-1.5,0-2.6,1-2.6,2.3c0,0.7,0.2,1.3,0.7,1.8c0,0,0.1,0.1,0.3,0.3c-1.5,0.9-2.2,1.9-2.2,3.1c0,1.8,1.3,3,3.3,3
			c1.1,0,2.2-0.4,3.1-1.2c0.2,0.3,0.9,1.1,0.9,1.1h2.1c0,0-1.6-1.9-1.8-2.2C128.3,81.6,128.7,81.1,129,80.6L129,80.6z M159.6,75.9
			l2.7-7.1l2.7,7.1H159.6z M161.3,63.9l-8.5,20.2h3.4l2.3-5.7h7.7l2.3,5.7h3.4l-8.5-20.2H161.3z M177.9,81.7H176v-6.9h2
			c2.1,0,5.3,0.1,5.3,3.3C183.4,81.2,180.8,81.8,177.9,81.7L177.9,81.7z M176,66.4h0.5c2.4-0.1,5.1-0.2,5.1,2.9
			c0,3.1-2.5,3.1-5.1,3.1H176V66.4z M182.6,73.2c1.4-0.9,2.2-2.1,2.2-3.7c0.1-4.7-3.1-5.4-6.4-5.5h-5.7v20.2h6.5
			c4.2,0,7.2-1.4,7.4-5.5C186.8,76.3,185,73.7,182.6,73.2L182.6,73.2z M237.2,79L223,63.9h-2v20.2h3V69.3l13.9,14.8h2.2V63.9h-3V79z
			 M193.2,81.7h-1.9v-6.9h2c2.1,0,5.3,0.1,5.3,3.3C198.7,81.2,196.2,81.8,193.2,81.7L193.2,81.7z M191.3,66.4h0.5
			c2.4-0.1,5.1-0.2,5.1,2.9c0,3.1-2.5,3.1-5.1,3.1h-0.5V66.4z M197.9,73.2c1.4-0.9,2.2-2.1,2.2-3.7c0.1-4.7-3.1-5.4-6.4-5.5H188
			v20.2h6.5c4.2,0,7.2-1.4,7.4-5.5C202.1,76.3,200.4,73.7,197.9,73.2L197.9,73.2z M82,63.9h-3l0,20.2h8.8v-2.5H82V63.9z M247.9,75.9
			l2.7-7.1l2.7,7.1H247.9z M251.6,63.9h-2l-8.5,20.2h3.4l2.3-5.7h7.7l2.3,5.7h3.4L251.6,63.9z M72.5,79.6c-1.6,1.5-3.6,2.3-5.8,2.3
			c-2.2,0-4.2-0.8-5.7-2.3c-1.6-1.5-2.4-3.4-2.4-5.6c0-2.1,0.8-4.1,2.4-5.6c1.5-1.5,3.6-2.3,5.7-2.3c2.2,0,4.2,0.8,5.8,2.3
			c1.6,1.5,2.4,3.5,2.4,5.6C75,76.2,74.1,78.1,72.5,79.6L72.5,79.6z M74.8,66.5c-2.1-2-5-3.1-8-3.1c-3,0-5.8,1.1-7.9,3.1
			c-2.2,2-3.3,4.7-3.3,7.5c0,2.9,1.1,5.5,3.3,7.5c2.1,2,5,3.1,7.9,3.1c3,0,5.8-1.1,8-3.1c2.1-2,3.3-4.6,3.3-7.5
			C78.1,71.2,77,68.5,74.8,66.5L74.8,66.5z M96.8,63.3c-1.6,0-2.5,0.3-4,0.9c-4.6,2-7,5.9-6.5,10.7c0.4,4.3,2.5,7.1,6.5,8.9
			c1.4,0.6,2.4,0.9,3.9,1c1.6,0.1,2.6,0,4.1-0.6c1.2-0.4,1.9-0.7,2.8-1.5v-2.8c0,0-1.7,1.1-2.8,1.6c-1.5,0.5-2.5,0.8-4.1,0.6
			c-1.7-0.2-2.6-0.6-3.9-1.5c-1.1-0.8-1.7-1.3-2.4-2.5c-0.6-1.1-0.8-1.8-0.9-3.1c-0.3-3.1,0.6-5.5,3.2-7.4c1.3-1,2.3-1.3,3.9-1.5
			c1.6-0.2,2.6,0.1,4.1,0.6c1.2,0.4,1.8,0.9,2.8,1.5v-2.7c-0.9-0.8-1.2-1-2.8-1.6C99.6,63.4,98.1,63.2,96.8,63.3L96.8,63.3z
			 M104.6,84.1h10.5v-2.4h-7.3v-6.9h7.1v-2.4h-7.1v-5.9h7.3v-2.5h-10.5V84.1z M51.4,74.6c-0.2,4.1-3.1,7.1-7.1,7.1h-3.1V66.5l3.1,0
			C48.5,66.6,51.5,70.1,51.4,74.6L51.4,74.6z M44.3,63.9h-6.4v20.2h6.4c6.7,0,10.5-4.8,10.4-10.4C54.5,68.3,50.2,63.9,44.3,63.9
			L44.3,63.9z"/>
	</g>
</g>
</svg>
