<?xml version="1.0" encoding="UTF-8"?>
<svg id="Capa_1" xmlns="http://www.w3.org/2000/svg" version="1.1" viewBox="0 0 250 100">
  <!-- Generator: Adobe Illustrator 29.4.0, SVG Export Plug-In . SVG Version: 2.1.0 Build 152)  -->
  <defs>
    <style>
      .st0 {
        fill: none;
      }

      .st1 {
        fill: #777;
        fill-rule: evenodd;
      }
    </style>
  </defs>
  <rect class="st0" x="-21.9" y="-98" width="352" height="40"/>
  <path class="st1" d="M45.8,44.5h1.7c1.6,0,2.6.3,3.5,1.2.8.8,1.3,2.1,1.3,3.6s-.3,2.4-1,3.3c-.7.9-1.7,1.4-3.3,1.3h-2.3v-9.4ZM40.1,39.7v18.9h8.3c3.3,0,5.3-.7,6.9-2.2,1.8-1.7,2.7-4.1,2.7-7.2,0-5.8-3.6-9.4-9.5-9.4h-8.4ZM75.1,45.5c0-3.9-2.8-6.2-7.6-6.2s-7.6,2.4-7.6,5.9.5,2.8,1.4,3.6c.9.8,2,1.3,5.1,2.2,3.3,1,3.8,1.3,3.8,2.1s-.8,1.6-2.3,1.6-2.9-.7-3-2.6h-5.7c0,4.2,3.3,6.8,8.5,6.8s8.2-2.4,8.2-6.4-.7-3.1-1.9-4c-.9-.7-2.1-1.2-4.5-1.9l-1.4-.4c-2.3-.6-2.6-.8-2.6-1.6s.7-1.4,1.9-1.4,2.3.7,2.4,2h5.4ZM88.3,50.2l-2.6,2.6,1.7,1.6c-.3.2-.6.2-1,.2-2.1,0-3.6-2.2-3.6-5.3s1.4-5.3,3.7-5.3,3.7,1.9,3.7,5.2-.1,2.1-.4,2.6l-1.6-1.6ZM96.1,58.1l-2.4-2.4c1.4-1.3,2.3-3.9,2.3-6.6,0-5.7-3.9-9.8-9.3-9.8s-9.6,4.2-9.6,10,3.7,9.9,9.2,9.9,3.3-.4,4.6-1.1l2.7,2.7,2.6-2.6ZM115.4,39.7h-5.7v11.6c0,2-.9,2.9-2.7,2.9s-2.9-.9-2.9-2.9v-11.6h-5.7v11.1c0,2.3.2,3.6.9,4.7,1.3,2.3,3.8,3.4,7.6,3.4s4.9-.5,6.4-1.8c.9-.8,1.5-1.8,1.8-2.9.3-.9.4-1.8.4-3.3v-11.2ZM127.4,52h-3.7l.5-1.7.5-1.6c.3-.9.5-1.6,1-3.2l.4,1.6.4,1.5.4,1.5.5,1.8ZM128.4,39.7h-5.7l-7,18.9h5.8l1-2.7h6l.9,2.7h5.8l-6.9-18.9ZM142.3,44.1h2.8c1.8,0,2.6.7,2.6,1.9s-.8,2-2.3,1.9h-3.2v-3.9ZM136.6,39.7v18.9h5.7v-6.7h2.4c2.2,0,2.9.8,3.2,3.8v1.1c.2,1.1.3,1.3.5,1.8h5.7,0c-.2-.4-.3-1-.4-2l-.2-2c-.3-2.6-1.1-4.1-2.7-4.7,1.7-.8,2.8-2.6,2.8-4.6s-.4-2.6-1.3-3.6c-1.3-1.4-2.9-2-5.9-2h-9.6ZM171.7,39.7h-15.5v18.9h15.8v-4.7h-10.2v-3h9v-4.2h-9v-2.6h9.9v-4.5ZM180.5,44.5h1.7c1.6,0,2.6.3,3.5,1.2.8.8,1.3,2.1,1.3,3.6s-.3,2.4-1,3.3c-.7.9-1.7,1.4-3.3,1.3h-2.3v-9.4ZM174.8,39.7v18.9h8.3c3.3,0,5.3-.7,6.9-2.2,1.8-1.7,2.7-4.1,2.7-7.2,0-5.8-3.6-9.4-9.5-9.4h-8.4ZM209.9,54.2h-4c-1.5,0-2.6,0-5.3.3.6-.3,1-.6,1.3-.7,0,0,.4-.2,1.1-.5,1.7-.8,3.2-1.7,4.2-2.6,1.6-1.2,2.4-2.8,2.4-4.7,0-3.6-2.9-5.9-7.3-5.9s-4.4.7-5.8,2c-1.4,1.4-2,3-2,5.7v.3h4.9c0-2.4.9-3.4,2.7-3.4s2.2.7,2.2,1.8-.5,1.6-2.4,2.8c-1.5.9-2.5,1.5-3.2,2-.9.6-1.8,1.3-2.6,2.1-1.3,1.3-2,3.2-2,5.1s0,.2,0,.3h15.8v-4.5Z"/>
</svg>