<?xml version="1.0" encoding="UTF-8"?>
<svg xmlns="http://www.w3.org/2000/svg" version="1.1" viewBox="0 0 250 100">
  <defs>
    <style>
      .cls-1 {
        fill: #777;
      }
    </style>
  </defs>
  <!-- Generator: Adobe Illustrator 28.6.0, SVG Export Plug-In . SVG Version: 1.2.0 Build 709)  -->
  <g>
    <g id="Capa_1">
      <g>
        <path class="cls-1" d="M140.8,11.7c0,.3,0,.4,0,.6,0,2.7,0,5.4,0,8.1,0,.4.1.6.4.9,2,2,4.1,4.1,6.1,6.1-.5.5-1,1-1.5,1.6-1.6,1.5-3.1,3.1-4.7,4.6-.2.2-.3.4-.3.7,0,2.7,0,5.5,0,8.2v.6h-.6c-2.7,0-5.5,0-8.2,0-.4,0-.6.1-.8.4-2,2-3.9,3.9-5.9,5.9,0,0-.2.2-.3.3-.6-.6-1.2-1.2-1.8-1.8-1.5-1.5-3-2.9-4.4-4.4-.2-.2-.5-.3-.8-.3-2.7,0-5.5,0-8.2,0h-.6c0-.2,0-.4,0-.6,0-2.7,0-5.4,0-8.2,0-.4-.1-.7-.4-1-2-2-4-3.9-6-5.9,0,0,0,0-.2-.2.6-.6,1.2-1.2,1.7-1.7,1.5-1.5,3-3,4.5-4.4.3-.3.3-.5.3-.9,0-2.7,0-5.4,0-8.2v-.6c.2,0,.4,0,.5,0,2.8,0,5.5,0,8.3,0,.3,0,.5,0,.7-.3,1.9-1.9,3.9-3.9,5.8-5.8.3-.3.5-.3.8,0,1.9,1.9,3.9,3.9,5.8,5.8.2.2.5.3.8.3,2.7,0,5.5,0,8.2,0s.3,0,.6,0ZM125,12.8c-1.9,0-3.8,0-5.7,0-.2,0-.4,0-.6.2-2.7,2.7-5.5,5.5-8.2,8.2-.1.1-.2.3-.2.5,0,3.9,0,7.7,0,11.6,0,.1,0,.3.2.4,2.7,2.7,5.4,5.4,8.1,8.1.3.3.5.3.9.3,3.7,0,7.4,0,11.1,0,.4,0,.7-.1.9-.4,2.6-2.7,5.3-5.3,7.9-7.9.2-.2.3-.4.3-.7,0-3.8,0-7.5,0-11.3,0-.3,0-.5-.3-.7-2.7-2.7-5.4-5.3-8.1-8-.2-.2-.4-.3-.6-.3-1.9,0-3.8,0-5.7,0Z"/>
        <path class="cls-1" d="M107.8,63.1c-.7,0-1.4,0-2.1,0q-.7,0-.7-.8c.2,0,.3,0,.5,0,1.9,0,3.8,0,5.7,0,.4,0,.6.1.7.5,1.2,4.3,2.4,8.5,3.7,12.8,0,0,0,.2.1.3.4-1.5.8-2.9,1.3-4.3.9-2.9,1.7-5.9,2.5-8.8.1-.4.2-.5.6-.5,2,0,4,0,6,0v.8h-2.7v17.8h2.7v.8h-8.7v-.7h2.7v-17.8s0,0,0,0c-.4,1.3-.7,2.5-1.1,3.8-1.4,4.8-2.8,9.6-4.1,14.4,0,.2-.1.4-.5.4-.3,0-.4-.1-.5-.4-1.7-6-3.5-12.1-5.2-18.1,0,0,0-.2-.1-.3v18h2.8v.8c-.2,0-.4,0-.5,0-1.7,0-3.4,0-5.2,0q-.7,0-.6-.8h2.7v-17.8Z"/>
        <path class="cls-1" d="M59.6,81.7v-.8h2.8v-17.8c-.7,0-1.4,0-2.2,0q-.8,0-.6-.8c.1,0,.3,0,.4,0,3,0,5.9,0,8.9,0,1.4,0,2.7.2,4,.7,1.9.7,3.1,2.1,3.9,3.7,2,3.9,1.7,9.1-1.6,12.6-1.3,1.4-2.9,2-4.7,2.3-.9.1-1.8.2-2.6.2-2.6,0-5.2,0-7.7,0h-.6ZM65.9,63v18c1.5,0,2.9-.1,4.3-.2,1.8-.1,2.9-1.2,3.5-2.8.5-1.2.7-2.4.7-3.7,0-1.8,0-3.6,0-5.3,0-1.4-.4-2.7-1.1-3.9-.6-.9-1.4-1.6-2.5-1.7-1.6-.2-3.3-.2-4.9-.3Z"/>
        <path class="cls-1" d="M130.4,72.2c0-3.8,1.5-6.9,4.6-9.1,2.9-2,6.5-1.7,9,.7,2.5,2.4,3.8,5.3,3.6,8.8-.2,3.5-1.7,6.3-4.5,8.3-2.9,2-6.7,1.6-9.3-.9-1.8-1.8-3-3.9-3.3-6.4,0-.5,0-1,0-1.3ZM134.3,72s0,0,.1,0c0,1.1,0,2.2,0,3.3,0,1.2.1,2.4.6,3.5.5,1.1,1.2,2,2.4,2.3.4.1.9.2,1.4.2,1.8,0,3.8-.7,4.3-2.9.1-.5.2-.9.3-1.4.3-3.4.4-6.7,0-10.1-.1-1.1-.4-2.2-1.2-3.1-1.2-1.2-2.6-1.4-4.2-1.1-1.4.2-2.5.9-3,2.3-.2.7-.4,1.4-.5,2.1-.1,1.6-.2,3.2-.3,4.9Z"/>
        <path class="cls-1" d="M189.9,84.3v.7H59.4v-.7h130.5Z"/>
        <path class="cls-1" d="M167.9,63.1v19c-.4.2-.7,0-.9-.3-3.9-6.2-7.8-12.3-11.7-18.5,0,0,0,0-.2-.2v17.8h3v.8h-6.6v-.7h2.7v-17.9c-.7,0-1.5,0-2.3,0q-.7,0-.6-.8h.5c2,0,4,0,6,0,.4,0,.7.1.9.5,2.7,4.2,5.3,8.5,8,12.7,0,0,0,.1.2.3v-12.6h-2.9v-.8h6.5c0,.1,0,.2,0,.3,0,.4,0,.5-.5.5-.8,0-1.5,0-2.3,0Z"/>
        <path class="cls-1" d="M183.9,80.9h3.2v.8h-9.9v-.8h3.2v-17.8c-1.5,0-3-.2-4.1,1.2-.7.8-1,1.7-1.3,2.7-.1.5-.3,1-.4,1.4-.1.6-.1.6-.9.5.2-2.2.3-4.4.5-6.6h15.8c.2,2.2.3,4.4.5,6.6-.7.1-.7.1-.9-.5-.3-1.1-.6-2.2-1.1-3.2-.6-1.4-1.8-2.1-3.3-2.1-.5,0-.9,0-1.4,0v17.8Z"/>
        <path class="cls-1" d="M97.9,63.1c-.8,0-1.6,0-2.4,0q-.7,0-.6-.8c2.2,0,4.4,0,6.5,0,.2.7.1.8-.6.8-.7,0-1.5,0-2.3,0v.8c0,3.8,0,7.5,0,11.3,0,.9,0,1.8-.2,2.7-.3,2-1.5,3.2-3.4,3.8-2.1.7-4.3.7-6.4,0-1.8-.5-2.9-1.8-3.1-3.7-.1-1.1-.2-2.3-.2-3.4,0-3.6,0-7.3,0-10.9v-.5c-.7,0-1.3,0-2,0q-.7,0-.7-.8h8.8c.2.7.2.8-.6.8-.7,0-1.5,0-2.2,0v.5c0,3.8,0,7.6,0,11.4,0,1.2,0,2.4.3,3.6.3,1.6,1.6,2.5,3.3,2.6.9,0,1.8,0,2.7-.4,1.7-.6,2.6-1.8,2.8-3.6,0-.8.1-1.6.1-2.4,0-3.8,0-7.6,0-11.4,0-.1,0-.2,0-.4Z"/>
        <path class="cls-1" d="M127.6,91.6c.6,1,1.3,2,2,3.1-.4,0-.7,0-1,0-.1,0-.3-.1-.3-.3-.4-.6-.7-1.1-1.1-1.7-.6-1-1.2-1.2-2.4-.9v2.8h-.9c0-.1,0-.2,0-.3,0-2,0-4,0-6,0-.2,0-.4.3-.4,1.1,0,2.1,0,3.2,0,.9,0,1.5.7,1.6,1.5.1,1-.3,1.7-1.2,2,0,0-.2,0-.2,0ZM124.9,90.8c.8,0,1.6,0,2.4,0,.5,0,.8-.5.8-1,0-.5-.3-.9-.8-.9-.8,0-1.6,0-2.5,0v2Z"/>
        <path class="cls-1" d="M144.2,89.9c-.3,0-.6,0-.8.1-.3-1.1-.9-1.4-2.1-1.2-.4,0-.7.3-.8.8,0,.5.2.7.7.9.6.2,1.2.3,1.7.5,1,.3,1.6,1.1,1.5,2-.1,1-.9,1.8-2,1.8-.6,0-1.3,0-1.9-.3-.8-.3-1.2-1.1-1.2-2,.2,0,.5,0,.8,0,.4,1.3,1.3,1.8,2.5,1.4.5-.2.8-.5.9-1,0-.5-.2-.8-.8-1-.5-.2-1.1-.3-1.6-.5-1.1-.3-1.6-1-1.5-1.8,0-.9.7-1.5,1.8-1.7,1.2-.2,2.4.3,2.7,1.4,0,.2,0,.4.2.6Z"/>
        <path class="cls-1" d="M105.4,88c1.2,0,2.3,0,3.4,0,.8,0,1.4.8,1.4,1.7,0,1.1-.5,1.9-1.4,2.1-.4,0-.9,0-1.3.1-.4,0-.8,0-1.2,0v2.7h-.9v-6.6ZM106.3,91.1c.8,0,1.5,0,2.2-.2.5,0,.7-.5.7-1.1,0-.5-.3-1-.7-1-.7,0-1.5,0-2.3,0v2.3Z"/>
        <path class="cls-1" d="M119.9,94.6s0,0,0,0q-.9,0-1.2-.8t-1.7-1.2-1.7,1.2s0,0,0,0q-.3.8-1.2.6c.2-.5.3-.9.5-1.3.6-1.6,1.2-3.3,1.8-4.9,0-.3.2-.4.5-.4.3,0,.5-.1.7.3.8,2.1,1.6,4.2,2.4,6.3,0,0,0,0,0,0ZM116.9,89c-.3,1-.6,1.9-1,2.8h2c-.3-1-.7-1.9-1-2.8Z"/>
        <path class="cls-1" d="M133.9,88c.1,0,.2,0,.3,0,.4,0,.5,0,.5.5,0,1.9,0,3.8,0,5.7v.5h-.9v-6.6Z"/>
        <path class="cls-1" d="M115.5,36.9c-.2-.8-.1-.8.6-.8.7,0,1.5,0,2.3,0v-17.4c-.8,0-1.5,0-2.3,0-.7,0-.8,0-.6-.8.1,0,.3,0,.4,0,3.1,0,6.2,0,9.2,0,1.6,0,3.3.3,4.7,1,2.2,1,3.4,2.9,4.1,5.1,1.3,4.1.5,7.7-2.6,10.8-1.2,1.2-2.7,1.7-4.3,2-1.1.1-2.2.2-3.3.2-2.6,0-5.2,0-7.8,0-.2,0-.3,0-.5,0ZM121.9,18.7v17.3c1.4,0,2.8,0,4.2,0,.9,0,1.8-.2,2.5-.8,1.1-.9,1.6-2.1,1.9-3.4.4-2.3.4-4.5.3-6.8,0-1.2-.2-2.3-.7-3.4-.5-1.2-1.2-2.2-2.6-2.5-1.8-.5-3.7-.3-5.6-.3Z"/>
      </g>
    </g>
  </g>
</svg>