<?xml version="1.0" encoding="UTF-8"?>
<svg xmlns="http://www.w3.org/2000/svg" version="1.1" viewBox="0 0 250 100">
  <defs>
    <style>
      .cls-1 {
        fill: #777;
      }
    </style>
  </defs>
  <!-- Generator: Adobe Illustrator 28.6.0, SVG Export Plug-In . SVG Version: 1.2.0 Build 709)  -->
  <g>
    <g id="Capa_1">
      <g>
        <path class="cls-1" d="M181.7,16.8h7.7c-.5,3.7-1.4,7.4-1.4,11.1-.2,12.1,0,24.2,0,38.1-2.6-1.8-4.6-2.5-5.6-4-8.4-11.3-16.6-22.7-24.9-34-.5-.7-1-1.4-2-1.9.5,12.7-2.1,25.4,1.4,38.2h-8.2c0-.2-.2-.5,0-.7,4-7.3,2.2-10.7-6-10.8-4.5,0-9,0-13.5,0-.4,0-.9.1-1.7.2v17.8c6-.6,12.5,2.1,18.3-3.5v10.5c-5.5-5.5-12-2.9-18.5-3.4v19c8.6-1.6,17.8,3.3,26-5-.4,3.2-.7,5.7-1.1,8.3h-32.8c.5-3.5,1.3-7,1.3-10.6.2-9.9.1-19.7,0-29.6,0-6.1-1-6.3-6.9-5.9-7.6.5-15.2.1-21.6.1.3-5.6,1.2-11.1.7-16.6-.2-2-3.4-5.1-5.5-5.4-6.2-.7-12.5-.3-18.9-.3v17.9c6.3-.6,12.8,2,18.5-3.6v10.5c-5.6-5.5-12.1-2.6-18.4-3.5v19c8.5-1.3,17.7,3.1,26-4.8-.5,3.2-.8,5.6-1.2,8.2h-32.8c2.2-15.9,2.1-31.7,0-47.9h32.7c-.5-7.3-.9-14.2-1.3-21,6.8,0,14.8-.6,22.6.2,7.4.8,12.3,5.9,14.9,12.8,4.4,11.7,1.4,23.2-8.9,32.6,5.4,0,10.1,0,14.8,0s9.6,0,15.2,0c-.6-10.8,1.2-21.5-1.6-32.1,4.8-1.4,8.3,0,11.5,4.8,6.9,10.4,14.5,20.3,22.4,30.3-.4-11.7,2-23.4-1.3-35.3ZM99.6,6.9v40.4c8.5,0,17.5,2.1,22.2-7.3,4.6-9.1,4.6-18.6-.9-27.3-5.2-8.1-13.6-5.6-21.3-5.8Z"/>
        <path class="cls-1" d="M130.7,43.9c3.3-3.3,6.5-6.5,9.8-9.8.8.9,1.8,2,2.7,3-6.9,6.7-10.4,8.5-12.5,6.8Z"/>
      </g>
    </g>
  </g>
</svg>