<?xml version="1.0" encoding="utf-8"?>
<!-- Generator: $$$/GeneralStr/196=Adobe Illustrator 27.6.0, SVG Export Plug-In . SVG Version: 6.00 Build 0)  -->
<svg version="1.1" id="Capa_1" xmlns="http://www.w3.org/2000/svg" xmlns:xlink="http://www.w3.org/1999/xlink" x="0px" y="0px"
	 viewBox="0 0 250 100" style="enable-background:new 0 0 250 100;" xml:space="preserve">
<style type="text/css">
	.st0{fill:#777777;}
</style>
<g>
	<g>
		<path class="st0" d="M153.7,83c1.9-4,3.6-7.7,5.3-11.4c0.9-1.9,1.8-3.9,2.7-5.8c0.2-0.3,0.3-0.8,0.8-0.7c0.5,0.1,0.4,0.6,0.5,1
			c0.6,5.6,1.2,11.1,1.8,16.7c0.1,0.6,0.1,1.1,0.3,1.6c0.2,1.1,0.8,1.9,2.1,1.9c0.4,0,0.8,0,1,0.4c-0.3,0.5-0.8,0.4-1.2,0.4
			c-1.3,0-2.6-0.1-3.8-0.2c-0.5,0-0.8-0.1-0.8-0.8c0-3.6-0.6-7.1-0.8-10.6c-0.1-1.4-0.3-2.7-0.4-4.4c-0.3,0.6-0.6,1-0.8,1.4
			c-2.1,4.4-4.2,8.8-6.2,13.2c-0.2,0.4-0.3,1-0.8,1c-0.6,0-0.8-0.6-1-1c-2.3-4.4-4.5-8.9-6.5-13.4c-0.1-0.3-0.2-0.5-0.5-1.1
			c-0.2,2.3-0.4,4.3-0.6,6.3c-0.2,2.1-0.3,4.3-0.6,6.4c-0.2,1.4,0.1,2.5,1.8,2.6c-0.2,0.6-0.6,0.6-0.9,0.6c-1.4,0-2.7-0.2-4.1,0
			c-0.3,0-0.7,0-0.8-0.3c-0.1-0.4,0.3-0.4,0.6-0.5c0.9-0.1,1.1-0.7,1.2-1.4c0.4-3.5,0.8-7,1.2-10.6c0.3-2.6,0.5-5.3,0.9-7.9
			c0.1-0.5,0-1.2,0.5-1.3c0.6-0.1,0.7,0.6,0.9,1c2.5,5.1,5,10.2,7.5,15.3C153.1,81.9,153.4,82.3,153.7,83z"/>
		<path class="st0" d="M171.9,65.4c2.2,0,4.4,0,6.7,0c0.1,0.1,0.2,0.2,0.3,0.3c-2.3,0.2-2,1.8-2,3.1c0,3.4,0,6.8,0,10.3
			c0,0.9,0.1,1.7,0.4,2.5c0.8,3.1,3,4.6,6.3,4.4c2.7-0.1,4.8-2.1,5.3-5.1c0.3-1.8,0.3-3.6,0.3-5.4c0-2.2,0-4.4,0-6.7
			c0-2.5,0-2.5-2.2-3.5c2-0.4,4-0.2,6.2,0c-2.2,0.5-1.8,2.1-1.9,3.5c-0.1,3.4,0.1,6.8-0.2,10.3c-0.5,8.4-8.5,9.5-13.1,7.2
			c-2.5-1.3-3.4-3.5-3.8-6.2c-0.3-2.6-0.2-5.1-0.2-7.7c0-1.3,0-2.6,0-3.8C174,66.5,174,66.5,171.9,65.4z"/>
		<path class="st0" d="M97.5,71.1c-0.5-0.2-0.6-0.4-0.6-0.6c-0.2-2.4-1.8-3.5-3.9-3.9c-3.8-0.7-7.5-0.8-10.2,2.6
			c-2.2,2.7-2.3,8.3-0.3,11.6c2.7,4.5,6.9,5.6,11.7,4.7c1.4-0.3,2.2-1.2,2.7-2.5c0.1-0.4,0.1-1,0.7-1.1c0.9,2.5-0.4,5-2.9,5.3
			c-4.3,0.6-8.6,0.5-12.3-2.3c-3.6-2.8-5-7.8-3.6-12.4c1.4-4.4,5-7.2,9.7-7.6c2.9-0.2,5.6,0.3,8.4,0.6c0.4,0,0.9,0.2,0.9,0.6
			C97.7,67.8,97.6,69.4,97.5,71.1z"/>
		<path class="st0" d="M72.1,83.2c0.2,1.1,0,2.1-0.2,3.1c-0.2,0.7-0.7,0.9-1.4,0.9c-1.8,0-3.6,0-5.4-0.1c-1.2-0.1-2.4-0.1-3.6,0
			c-0.5,0.1-1.1,0.3-1.6-0.5c2-0.4,1.8-1.9,1.8-3.4c0-4.7,0-9.5,0-14.2c0-2.4,0-2.4-2.1-3.4c0.3-0.6,0.9-0.4,1.4-0.4
			c3.2,0,6.4,0,9.6-0.1c0.6,0,0.9,0,0.8,0.7c-0.2,0.9,0.1,2-0.5,2.8c-0.1,0-0.3,0-0.3-0.1c-0.4-1.9-1.8-2-3.3-2
			c-3.5,0-2.9-0.4-2.9,2.9c0,1.4,0,2.7,0,4.1c0,0.8,0.3,1.2,1.1,1.1c1.6-0.2,3.3,0.4,4.9-0.5c0.4-0.2,0.6,0,0.6,0.4
			c-0.1,1.2-0.2,2.3-0.4,3.5c-0.2,0-0.4,0-0.4-0.1c-0.4-0.6-0.2-1.5-1.1-1.7c-1.4-0.4-2.8-0.3-4.2-0.2c-0.5,0-0.5,0.5-0.5,0.9
			c0,2.1,0,4.3,0,6.4c0,1.6,0.6,2.1,2.2,2.2c0.6,0,1.3,0,1.9,0c1.8-0.1,2.3-0.4,2.9-2.1C71.6,83.5,71.7,83.3,72.1,83.2z"/>
		<path class="st0" d="M20.8,65.6c0.2-0.5,0.7-0.4,1.1-0.4c3.3,0,6.7,0,10,0c0.4,0,0.8,0,0.7,0.6c-0.1,1,0,2-0.6,3.2
			c-1-3.2-3.5-2.1-5.6-2.3c-0.6-0.1-0.8,0.4-0.8,0.9c0,2.1,0,4.1,0,6.2c0,0.8,0.4,1.1,1.1,1c1.6-0.1,3.3,0.4,4.9-0.5
			c0.3-0.2,0.6,0,0.5,0.3c-0.2,1.2,0.1,2.5-0.5,3.6c-0.1,0-0.3,0-0.3-0.1c-0.3-2-1.8-1.9-3.3-1.9c-2.8,0-2.5-0.3-2.5,2.4
			c0,1.6,0,3.3,0,4.9c0,1.7,0.6,2.2,2.3,2.3c0.7,0,1.4,0,2.1,0c1.3-0.1,2.4-0.5,2.7-2c0-0.2,0.1-0.3,0.2-0.4c0,0,0.1,0,0.1,0
			c1,2.1-0.1,3.8-2.3,3.9c-2.9,0.1-5.7-0.5-8.6-0.1c-0.3,0-0.8,0.1-0.9-0.3c-0.1-0.5,0.4-0.4,0.7-0.5c0.5-0.2,0.6-0.5,0.7-0.9
			c0.2-0.8,0.2-1.5,0.2-2.3c0-4.7,0-9.3,0-14C23,66.6,23,66.6,20.8,65.6z"/>
		<path class="st0" d="M102.6,68.8c-0.3-1.3,0-2.3,0.4-3.4c0.1-0.4,0.5-0.4,0.9-0.4c5.1,0.5,10.3,0.2,15.4,0.1
			c1.2,0,1.5,0.4,1.4,1.4c-0.1,0.8,0,1.6-0.4,2.5c-0.5-0.9-0.7-1.9-1.7-2.1c-1.7-0.3-3.3-0.3-5-0.2c-0.5,0-0.5,0.5-0.5,0.9
			c0,5.5,0,11,0,16.5c0,1.2,0.5,2.1,1.9,2c0.2,0,0.4,0.1,0.5,0.3c-0.1,0.5-0.5,0.4-0.8,0.4c-1.8,0-3.6-0.2-5.4,0
			c-0.3,0-0.7,0-0.8-0.3c-0.1-0.4,0.3-0.4,0.6-0.5c0.6-0.1,0.8-0.6,0.9-1.1c0.1-0.6,0.2-1.3,0.2-1.9c0-5,0-10,0-15
			c0-1.1-0.3-1.6-1.5-1.5c-0.6,0.1-1.3,0-1.9,0C105.3,66.9,103.5,66.6,102.6,68.8z"/>
		<path class="st0" d="M228.1,69.6c-0.3-2.8-2-3.5-4.1-3.5c-1.3,0-2.4,0.6-2.9,1.8c-0.5,1.2-0.4,2.4,0.3,3.4c0.7,1,1.6,1.8,2.6,2.5
			c1.2,1,2.4,1.9,3.4,3.1c1.9,2.1,2.3,4.4,1.2,7c-1.1,2.5-3.2,3.4-5.8,3.5c-1.2,0.1-2.4,0-3.6-0.4c-1-0.3-1.5-0.9-1.4-2
			c0.1-1,0.1-1.9,0.4-2.9c0.6,0,0.4,0.5,0.5,0.8c0.4,1.8,1.3,2.7,2.9,3c2.2,0.4,3.8-0.2,4.7-1.6c0.8-1.4,0.7-3.3-0.4-4.7
			c-1.1-1.4-2.5-2.4-3.8-3.5c-0.8-0.7-1.5-1.4-2.2-2.2c-1.5-2-1.9-4.1-0.8-6.4c1.2-2.3,3.4-2.8,5.8-2.8c0.6,0,1.3,0.1,1.9,0.2
			c1.8,0.3,1.8,0.3,1.8,2.2C228.7,68.4,228.7,68.4,228.1,69.6z"/>
		<path class="st0" d="M199.8,82.1c0.5,0.3,0.4,0.7,0.5,1c0.4,2,1.7,3,4.1,2.9c2.1,0,3.6-1.1,3.9-3c0.2-1.5-0.3-2.8-1.3-3.9
			c-1.1-1.2-2.4-2.1-3.6-3.1c-1.7-1.5-3.3-3.2-3.3-5.7c-0.1-2.8,1.6-4.9,4.4-5.4c1.6-0.3,3.2-0.1,4.8,0.3c0.5,0.1,0.8,0.3,0.8,0.8
			c-0.1,1-0.1,2-0.2,3c-0.6,0.1-0.5-0.3-0.6-0.6c-0.5-1.6-1.4-2.3-3.2-2.4c-1.7-0.1-3,0.5-3.6,1.7c-0.6,1.3-0.3,2.9,0.8,4.1
			c1.2,1.3,2.6,2.3,3.9,3.3c2.2,1.8,3.8,4,3.3,7.1c-0.3,2-1.4,3.6-3.3,4.4c-2.2,1-4.4,0.9-6.6,0.2c-0.9-0.3-1.3-0.8-1.2-1.7
			C199.4,84.2,199.3,83.2,199.8,82.1z"/>
		<path class="st0" d="M53.8,83.2c0.3,1.2,0,2.3-0.3,3.3c-0.2,0.6-0.8,0.7-1.4,0.7c-2.1,0-4.3,0.1-6.4-0.2c-1-0.1-2,0-2.9,0.1
			c-0.6,0.1-1.3,0.3-2-0.3c2.6-0.8,1.8-3.1,1.9-4.7c0.2-4.5,0.1-9,0.1-13.5c0-1.5-0.3-2.8-2.4-2.7c0.9-0.7,6.1-0.8,7.1-0.2
			c-2,1-2,1-2,3.5c0,4.6,0,9.2,0.1,13.8c0,2.4,0.5,2.8,2.9,2.9c0.6,0,1.1,0,1.7,0c1.6,0.1,2.8-0.5,3.3-2.2c0-0.1,0.1-0.2,0.2-0.3
			C53.5,83.2,53.6,83.2,53.8,83.2z"/>
		<path class="st0" d="M134,86.9c-2.5,0-4.8,0-7.2,0c-0.1-0.1-0.1-0.2-0.2-0.3c2.1-0.4,1.9-1.9,1.9-3.4c0-4.8,0-9.7,0-14.5
			c0-1.4,0.1-2.9-2-3c0.1-0.1,0.2-0.2,0.3-0.3c2.1,0,4.1,0,6.2,0c-2,0.8-1.7,2.4-1.7,4c0,4.2,0,8.4,0,12.6c0,0.6,0.1,1.2,0.1,1.8
			c0,1.5,0.3,2.7,2.2,2.7C133.6,86.5,133.7,86.7,134,86.9z"/>
	</g>
	<g>
		<path class="st0" d="M147.7,35.2c0.1,12.2-9.8,22.7-22.7,22.7c-12.6,0-22.7-10.2-22.7-22.8c0-12.4,10-22.7,22.7-22.7
			C138,12.5,147.8,23.2,147.7,35.2z M147,35.2c0.1-12.1-9.8-21.9-21.9-22c-11.8,0-21.9,9.5-22,21.9c0,12.2,9.7,22,21.9,22
			C137.5,57.2,147,47,147,35.2z"/>
		<path class="st0" d="M142.2,35.2c0,9.1-7.3,17.1-17.2,17.1c-9.5,0-17.2-7.6-17.2-17.2c0-9.8,8.1-17.2,17.3-17.1
			C134.5,18.1,142.2,25.8,142.2,35.2z M108.6,35.2c-0.1,9.1,7.4,16.4,16.3,16.4c8.9,0,16.5-7.2,16.5-16.4c0-9.1-7.3-16.4-16.4-16.4
			C115.9,18.8,108.5,26.3,108.6,35.2z"/>
		<path class="st0" d="M110.7,47.9c-0.6,0-1.3,0.2-2,0.1c-1.4-0.2-2.1-1.6-1.6-2.9c0.2-0.3,0.4-0.2,0.6-0.2c0.3,0.1,0.1,0.3,0,0.4
			c-0.4,1.2,0.4,2.1,1.6,2c0.6-0.1,1.2-0.1,1.8-0.1c1,0,2,0.7,1.9,2.3c0,0.3-0.3,0.3-0.5,0.3c-0.2,0-0.1-0.2-0.1-0.4
			c0-0.5-0.1-0.9-0.5-1.3C111.5,47.9,111.1,47.9,110.7,47.9z"/>
		<path class="st0" d="M110.6,46.2c0,0.1-0.1,0.4-0.1,0.7c0,0.1-0.1,0.2-0.3,0.3c-0.4,0.1-0.5,0.1-0.4-0.4c0.3-1.2-0.3-1.8-1.6-1.9
			c-0.5,0-1.1-0.1-1.6-0.2c-1.4-0.4-2-1.8-1.2-3.1c0.2-0.2,0.5-0.3,0.7-0.1c0.1,0.1,0,0.2,0,0.3c-0.2,0.3-0.4,0.7-0.3,1.1
			c0.1,0.6,0.5,1,1.1,1.2c0.5,0.1,1.1,0.1,1.7,0.2c0.4,0.1,0.9,0.1,1.2,0.4C110.3,44.9,110.6,45.5,110.6,46.2z"/>
		<path class="st0" d="M107.6,39c0,0.6-0.3,1-0.6,1.5c-0.1,0.1-0.6,0.1-0.7,0c-0.1-0.1,0-0.2,0.1-0.3c0.2-0.2,0.4-0.5,0.4-0.8
			c0.1-0.7-0.1-1.2-0.7-1.5c-0.5-0.3-0.9-0.5-1.4-0.8c-0.6-0.3-1-0.8-1.1-1.4c-0.2-0.8,0.2-1.8,1-2.2c0.3-0.2,0.4,0.1,0.6,0.2
			c0.2,0.2-0.1,0.2-0.2,0.3c-1,0.7-0.9,1.8,0.1,2.5c0.5,0.3,1.1,0.6,1.6,0.9C107.2,37.8,107.6,38.3,107.6,39z"/>
		<path class="st0" d="M111.4,50.2c0.6,0,1.1-0.2,1.7-0.4c0.5-0.1,0.9-0.3,1.4-0.2c0.9,0.2,1.6,1,1.5,1.9c0,0.3-0.3,0.4-0.5,0.4
			c-0.2,0-0.2-0.2-0.2-0.3c-0.2-1.1-0.8-1.5-1.8-1.3c-0.7,0.1-1.3,0.5-2,0.5c-1.4,0.1-2.5-1.2-2.1-2.5c0.1-0.3,0.3-0.3,0.6-0.3
			c0.3,0,0.1,0.2,0.1,0.4c0,0.3,0,0.5,0,0.7C110.2,49.9,110.7,50.2,111.4,50.2z"/>
		<path class="st0" d="M145,42.7c0,1-0.8,1.8-1.8,2c-0.3,0-0.4-0.2-0.4-0.4c-0.1-0.3,0.2-0.2,0.3-0.2c1.1-0.3,1.5-1.3,0.9-2.3
			c-0.3-0.4-0.7-0.8-1-1.2c-0.4-0.5-0.7-1.1-0.6-1.8c0.2-0.7,0.6-1.1,1.2-1.4c0.3-0.1,0.4,0.1,0.5,0.3c0.1,0.2-0.1,0.2-0.2,0.3
			c-0.9,0.6-1.1,1.3-0.5,2.2c0.3,0.5,0.7,0.9,1,1.3C144.8,41.7,145,42.2,145,42.7z"/>
		<path class="st0" d="M111.4,19.5c0.2,0.1,0.6-0.1,0.7,0.4c0,0.3,0,0.4-0.3,0.3c-0.2-0.1-0.5-0.1-0.7,0c-0.8,0.2-1.2,0.9-1,1.9
			c0.1,0.6,0.4,1.3,0.5,1.9c0.2,1.2-0.7,2.2-1.9,2.2c-0.2,0-0.5-0.3-0.4-0.5c0-0.1,0-0.1,0.1-0.1c0,0,0.1,0,0.1,0
			c1.1-0.1,1.7-0.8,1.3-2.2c-0.2-0.5-0.3-1-0.4-1.6C109.1,20.5,110,19.5,111.4,19.5z"/>
		<path class="st0" d="M146,31.4c0,0.6-0.3,1.1-0.7,1.5c-0.3,0.2-0.5,0-0.6-0.1c-0.2-0.1,0-0.2,0.1-0.3c0.8-0.9,0.6-1.9-0.5-2.4
			c-0.3-0.2-0.7-0.3-1.1-0.4c-0.3-0.1-0.7-0.2-1-0.4c-1.1-0.5-1.3-1.6-0.7-2.7c0.1-0.2,0.5-0.2,0.6-0.1c0.1,0.1,0.1,0.2,0,0.2
			c-0.5,1.4-0.2,1.9,1.1,2.3c0.4,0.1,0.9,0.2,1.3,0.4C145.5,29.9,146,30.5,146,31.4z"/>
		<path class="st0" d="M130.7,15.7c0,0.2-0.2,0.3-0.4,0.4c-0.2,0.1-0.2-0.1-0.2-0.2c-0.6-1.1-1.6-1.3-2.5-0.4
			c-0.3,0.3-0.5,0.6-0.8,1c-0.1,0.2-0.3,0.3-0.4,0.5c-0.9,0.9-2.1,0.8-3-0.2c-0.1-0.2-0.1-0.6,0.1-0.7c0.1-0.1,0.2,0.1,0.3,0.1
			c0.3,0.3,0.6,0.6,1.2,0.6c0.4,0,0.7-0.1,0.9-0.3c0.3-0.3,0.6-0.6,0.8-0.9c0.2-0.3,0.5-0.6,0.8-0.9c1.1-0.9,2.7-0.4,3.2,0.9
			C130.7,15.6,130.7,15.6,130.7,15.7z"/>
		<path class="st0" d="M143.2,29.9c0.1,0,0.3,0,0.4,0.2c0.1,0.1-0.1,0.2-0.2,0.3c-0.6,0.8-0.5,1.6,0.4,2.2c0.4,0.3,0.9,0.5,1.4,0.8
			c0.8,0.5,1.3,1.2,1.1,2.2c-0.1,0.6-0.4,1.1-1,1.4c-0.3,0.2-0.5-0.1-0.6-0.2c-0.2-0.2,0.1-0.3,0.2-0.3c0.9-0.7,0.9-1.8-0.1-2.4
			c-0.5-0.4-1.1-0.6-1.6-1c-0.5-0.3-0.8-0.7-0.9-1.3c-0.1-0.7,0.2-1.2,0.6-1.7C143,29.9,143.1,29.8,143.2,29.9z"/>
		<path class="st0" d="M121.2,56.2c-0.9,0-1.6-0.5-1.9-1.4c-0.1-0.3,0.1-0.4,0.3-0.5c0.2-0.1,0.2,0.1,0.3,0.3c0.5,1,1.5,1.2,2.4,0.5
			c0.3-0.3,0.6-0.7,0.9-1c0.2-0.2,0.3-0.4,0.5-0.5c0.9-0.9,2.1-0.8,2.9,0.2c0.1,0.2,0.1,0.5-0.1,0.7c-0.1,0.1-0.2,0-0.2-0.1
			c-1.1-1-1.7-1-2.6,0.2c-0.3,0.4-0.6,0.8-0.9,1.1C122.2,56,121.8,56.2,121.2,56.2z"/>
		<path class="st0" d="M132.4,16c-0.4,0-0.7,0.2-1,0.4c-0.4,0.3-0.7,0.6-1,0.8c-0.3,0.2-0.6,0.4-0.9,0.5c-1,0.4-1.9-0.2-2.4-1.1
			c-0.1-0.3,0.1-0.4,0.3-0.5c0.2-0.1,0.2,0.1,0.3,0.2c0.7,1,1.4,1.1,2.4,0.4c0.5-0.4,0.9-0.8,1.4-1.1c1.3-0.7,2.7-0.1,3,1.3
			c0.1,0.3-0.1,0.6-0.4,0.6c-0.1,0-0.2-0.1-0.2-0.2c0-0.1-0.1-0.3-0.1-0.4C133.5,16.3,133,16,132.4,16z"/>
		<path class="st0" d="M140.1,23.3c0.2,0,0.3,0,0.2,0.3c0,0,0,0,0,0.1c-0.3,1.2,0.3,1.9,1.5,2c0.5,0,1,0.1,1.4,0.2
			c0.9,0.2,1.6,0.6,1.8,1.6c0.2,0.6,0,1.2-0.4,1.7c-0.2,0.3-0.4,0.1-0.6,0c-0.3-0.1,0-0.3,0-0.4c0.6-1,0.1-2-1-2.2
			c-0.5-0.1-1.1-0.1-1.6-0.2c-1-0.1-1.6-0.6-1.8-1.4c-0.1-0.4-0.1-0.9,0.1-1.3C139.7,23.3,139.7,23.3,140.1,23.3z"/>
		<path class="st0" d="M113.1,20.2c0-0.3,0-0.3,0.2-0.3c0.1,0,0.2,0,0.3,0.1c0.9,0.2,1.6-0.3,1.8-1.2c0.1-0.5,0.1-0.9,0.2-1.4
			c0.1-1.2,0.7-1.9,1.7-2.1c0.6-0.1,1.1,0.1,1.6,0.4c0.3,0.2,0.1,0.4,0,0.6c-0.1,0.2-0.2,0-0.3,0c-1.1-0.6-2.1-0.2-2.3,1.1
			c-0.1,0.6-0.1,1.2-0.2,1.7c-0.3,1.3-1.2,1.9-2.5,1.6C113.2,20.6,113.1,20.4,113.1,20.2z"/>
		<path class="st0" d="M106.8,25.8c0.3,0,0.3,0.3,0.4,0.4c0.1,0.2-0.1,0.2-0.3,0.2c-1.2,0.3-1.6,1.3-0.9,2.3
			c0.3,0.4,0.6,0.8,0.9,1.2c0.3,0.4,0.5,0.7,0.6,1.2c0.1,1-0.5,1.7-1.2,2c-0.3,0.1-0.4-0.1-0.5-0.3c-0.1-0.2,0.1-0.2,0.2-0.3
			c0.9-0.5,1.1-1.4,0.5-2.2c-0.3-0.4-0.6-0.8-0.9-1.2c-0.4-0.5-0.6-1.1-0.5-1.8C105.2,26.6,106,25.8,106.8,25.8z"/>
		<path class="st0" d="M119.9,16.6c0.1,0.1,0.2,0.1,0.2,0.2c0.9,0.6,1.7,0.5,2.2-0.4c0.3-0.4,0.5-0.9,0.7-1.3
			c0.4-0.7,0.9-1.1,1.7-1.2c0.7-0.1,1.6,0.4,2,1c0.1,0.3-0.1,0.4-0.2,0.5c-0.2,0.2-0.2,0-0.3-0.1c-0.8-1-1.8-0.9-2.5,0.1
			c-0.3,0.5-0.5,1-0.8,1.4c-0.3,0.6-0.8,1-1.5,1.1c-0.6,0.1-1.2-0.2-1.6-0.6c-0.2-0.2,0-0.4,0-0.5C119.8,16.6,119.8,16.5,119.9,16.6
			z"/>
		<path class="st0" d="M108.1,43.9c-0.4,0-0.4,0-0.2-0.4c0.5-1.1,0.2-1.8-0.9-2.2c-0.5-0.2-1.1-0.3-1.6-0.5
			c-1.4-0.7-1.8-2.2-0.7-3.3c0.2-0.2,0.5-0.2,0.7,0c0.1,0.2,0,0.2-0.1,0.3c-0.3,0.3-0.5,0.7-0.5,1.2c0,0.5,0.3,0.8,0.7,1.1
			c0.4,0.3,0.9,0.4,1.3,0.5c0.5,0.1,0.9,0.3,1.3,0.6c1,0.7,0.9,1.8,0.4,2.6C108.3,44,108.2,43.9,108.1,43.9z"/>
		<path class="st0" d="M130.3,53.4c0,0.1,0,0.3-0.2,0.4c-0.2,0.1-0.2-0.1-0.4-0.2c-0.9-0.6-1.6-0.5-2.2,0.4c-0.3,0.5-0.5,1-0.8,1.5
			c-0.6,0.9-1.4,1.2-2.3,1c-0.6-0.1-1-0.5-1.3-1c-0.2-0.3,0.1-0.4,0.2-0.6c0.2-0.2,0.2,0.1,0.3,0.2c0.7,0.9,1.8,0.9,2.4,0
			c0.3-0.5,0.5-1,0.8-1.5c0.4-0.7,1-1.2,1.9-1.1c0.5,0,0.9,0.3,1.3,0.6C130.3,53.2,130.4,53.3,130.3,53.4z"/>
		<path class="st0" d="M133.8,52.1c0,0.4-0.1,0.4-0.4,0.3c-1-0.5-1.7-0.2-2.1,0.9c-0.2,0.5-0.3,1.1-0.5,1.6
			c-0.4,1.1-1.5,1.6-2.5,1.3c-0.4-0.1-0.7-0.3-0.9-0.6c-0.1-0.1-0.1-0.2-0.1-0.4c0.2-0.4,0.2-0.4,0.5-0.1c0.8,0.7,1.8,0.5,2.3-0.5
			c0.2-0.4,0.3-0.9,0.5-1.4c0.1-0.3,0.2-0.6,0.4-0.9c0.6-1,1.7-1.1,2.7-0.5C133.7,51.8,133.8,52,133.8,52.1z"/>
		<path class="st0" d="M136.9,50.2c0,0.2-0.1,0.3-0.3,0.2c-0.3-0.1-0.6-0.2-0.8-0.1c-0.7,0.1-1.1,0.6-1.2,1.5c0,0.5-0.1,1-0.2,1.5
			c-0.3,1.6-1.7,2.4-3.1,1.6c-0.3-0.2-0.3-0.3-0.2-0.6c0.1-0.2,0.2-0.2,0.4-0.1c0.3,0.2,0.7,0.4,1.1,0.3c0.8-0.1,1.2-0.7,1.3-1.6
			c0.1-0.6,0.1-1.1,0.2-1.7c0.2-1,1.2-1.8,2.6-1.3C136.9,49.9,136.9,49.9,136.9,50.2z"/>
		<path class="st0" d="M112.3,20.7c0-0.2-0.1-0.7-0.1-1.1c-0.2-1.3,0.6-2.4,1.9-2.5c0.4,0,0.7,0.1,1.1,0.2c0.2,0.1,0.2,0.5,0.1,0.7
			c-0.1,0.1-0.2,0-0.3,0c-0.4-0.1-0.8-0.2-1.2-0.1c-0.7,0.3-1,0.9-0.9,1.8c0.1,0.6,0.2,1.1,0.1,1.7c-0.1,1.3-1,1.9-2.3,1.8
			c-0.3,0-0.3-0.3-0.3-0.5c0-0.2,0.2-0.1,0.3-0.1C111.8,22.7,112.4,22.1,112.3,20.7z"/>
		<path class="st0" d="M137.1,50.8c0-0.7-0.2-1.4-0.1-2.1c0.2-1.2,1.2-1.7,2.3-1.5c0.3,0,0.3,0.3,0.3,0.5c0,0.2-0.2,0.1-0.3,0.1
			c-1.4-0.1-1.7,0.9-1.6,1.8c0.1,0.6,0.1,1.1,0.1,1.7c-0.1,1.5-1.5,2.4-2.9,1.8c-0.2-0.1-0.3-0.5-0.2-0.7c0.1-0.1,0.2,0,0.4,0
			c0.9,0.3,1.7-0.1,1.9-1C137.1,51.3,137.1,51.1,137.1,50.8z"/>
		<path class="st0" d="M143.8,33.5c0.2,0.1,0.4,0.1,0.5,0.3c0.1,0.2-0.1,0.2-0.2,0.3c-0.8,0.7-0.8,1.5,0,2.2c0.3,0.3,0.7,0.6,1,0.8
			c0.3,0.2,0.6,0.5,0.8,0.8c0.7,1.1,0.1,2.5-1.1,2.9c-0.2,0.1-0.6-0.2-0.6-0.4c0-0.2,0.2-0.2,0.3-0.2c0.7-0.3,1-0.8,0.9-1.5
			c0-0.4-0.2-0.6-0.4-0.9c-0.3-0.3-0.6-0.6-1-0.9c-0.3-0.2-0.6-0.5-0.8-0.7c-0.8-1-0.4-2,0.5-2.8C143.7,33.5,143.7,33.5,143.8,33.5z
			"/>
		<path class="st0" d="M137.8,19.1c0,0.2,0,0.3-0.1,0.4c-0.4,0.2-0.5,0.1-0.5-0.3c0-1-0.9-1.6-1.9-1.3c-0.4,0.1-0.8,0.3-1.2,0.5
			c-0.6,0.3-1.1,0.6-1.8,0.5c-0.8-0.1-1.6-0.8-1.6-1.6c0-0.3,0.2-0.4,0.4-0.4c0.2-0.1,0.2,0.2,0.2,0.3c0.4,1.1,1.1,1.4,2.1,0.9
			c0.4-0.2,0.8-0.5,1.3-0.7c0.6-0.3,1.3-0.4,2-0.1C137.4,17.6,137.7,18.3,137.8,19.1z"/>
		<path class="st0" d="M141.2,48c-0.1,0-0.3,0.1-0.4-0.1c-0.1-0.1-0.2-0.3-0.1-0.5c0.1-0.2,0.3-0.1,0.4-0.1c1-0.1,1.6-0.9,1.3-1.9
			c-0.2-0.5-0.5-1-0.7-1.5c-0.2-0.5-0.5-1-0.4-1.5c0.1-0.8,0.8-1.4,1.6-1.6c0.2,0,0.5,0.3,0.5,0.4c0,0,0,0.1-0.1,0.1
			c0,0-0.1,0-0.1,0.1c-1.2,0.5-1.5,1.2-0.8,2.4c0.3,0.6,0.7,1.2,0.8,1.9C143.3,46.9,142.4,47.9,141.2,48z"/>
		<path class="st0" d="M108.9,22.4c0.2,0,0.4,0,0.5,0.3c0.1,0.3,0.1,0.4-0.3,0.4c-1.1,0.1-1.7,1-1.3,2c0.2,0.4,0.4,0.9,0.6,1.3
			c0.2,0.3,0.3,0.7,0.4,1c0.2,1.1-0.6,1.9-1.6,2.1c-0.3,0.1-0.4-0.2-0.4-0.4c-0.1-0.2,0.2-0.2,0.3-0.2c1.1-0.4,1.4-1.1,0.9-2.1
			c-0.2-0.5-0.5-1-0.7-1.5c-0.4-1-0.2-1.8,0.5-2.5C107.9,22.6,108.4,22.5,108.9,22.4z"/>
		<path class="st0" d="M112.2,51.3c0-0.3,0.2-0.5,0.5-0.5c0.1,0,0.2,0.1,0.2,0.1c0,0.1,0,0.2,0,0.2c0.1,1.1,0.9,1.6,1.9,1.3
			c0.4-0.1,0.8-0.3,1.1-0.5c0.5-0.3,1-0.5,1.6-0.5c0.9,0,1.7,0.7,1.8,1.6c0,0.3-0.2,0.4-0.4,0.5c-0.2,0.1-0.2-0.2-0.2-0.3
			c-0.2-0.5-0.5-0.9-1.1-1.1c-0.4-0.1-0.7,0-1,0.2c-0.4,0.2-0.9,0.5-1.3,0.7c-0.8,0.4-1.6,0.5-2.4-0.1
			C112.5,52.5,112.3,52,112.2,51.3z"/>
		<path class="st0" d="M115.6,53.4c0-0.3,0.3-0.3,0.5-0.4c0.2-0.1,0.2,0.2,0.2,0.3c0.3,1.2,1.3,1.6,2.3,0.9c0.5-0.3,0.9-0.7,1.3-1
			c0.3-0.3,0.7-0.5,1.2-0.5c0.9-0.1,1.5,0.4,2,1.2c0.1,0.3-0.1,0.4-0.3,0.6c-0.2,0.1-0.2-0.1-0.3-0.2c-0.6-0.9-1.4-1.1-2.3-0.4
			c-0.5,0.4-0.9,0.8-1.5,1.1c-1.3,0.7-2.7,0.1-3.1-1.3C115.6,53.5,115.6,53.4,115.6,53.4z"/>
		<path class="st0" d="M105.5,29.5c0.2,0,0.3,0.2,0.4,0.4c0.1,0.2-0.1,0.2-0.3,0.3c-1,0.5-1.2,1.5-0.5,2.4c0.4,0.4,0.8,0.7,1.3,1.1
			c0.4,0.4,0.8,0.8,0.9,1.3c0.2,0.9-0.4,1.5-0.9,1.9c-0.2,0.2-0.4,0-0.6-0.2c-0.2-0.2,0.1-0.2,0.1-0.3c0.8-0.7,0.8-1.5,0-2.3
			c-0.4-0.3-0.8-0.6-1.2-1c-0.6-0.5-0.9-1.1-0.8-1.9C104.1,30.5,104.8,29.5,105.5,29.5z"/>
		<path class="st0" d="M140.8,21.5c0,0.2,0,0.3-0.1,0.5c-0.1,0.3-0.3,0.3-0.6,0.3c-0.3,0-0.1-0.2-0.1-0.4c0.2-1.1-0.6-1.9-1.8-1.7
			c-0.6,0.1-1.3,0.4-1.9,0.5c-1.3,0.3-2.3-0.5-2.3-1.8c0-0.2,0.2-0.5,0.5-0.5c0.1,0,0.1,0.1,0.2,0.2c0,0.2,0,0.3,0.1,0.5
			c0.2,0.8,0.9,1.2,1.7,1c0.5-0.1,1-0.3,1.5-0.4c0.4-0.1,0.9-0.2,1.3-0.1C140.1,19.7,140.7,20.5,140.8,21.5z"/>
		<path class="st0" d="M116.3,18.3c0-0.4,0-0.4,0.4-0.3c1,0.4,1.7,0.1,2.1-0.9c0.1-0.4,0.2-0.9,0.4-1.3c0.3-0.8,0.8-1.5,1.7-1.7
			c0.8-0.1,1.4,0.2,1.9,0.7c0.2,0.2,0,0.4-0.1,0.6c-0.1,0.2-0.2,0-0.3-0.1c-0.9-0.8-2-0.6-2.5,0.6c-0.1,0.3-0.2,0.6-0.3,1
			c-0.1,0.4-0.2,0.8-0.4,1.1c-0.6,1.1-1.7,1.2-2.7,0.6C116.3,18.6,116.2,18.5,116.3,18.3z"/>
		<path class="st0" d="M138.7,50.9c-0.2,0-0.3,0-0.5,0c-0.3-0.1-0.3-0.3-0.3-0.5c0-0.3,0.2-0.1,0.4-0.1c1.2,0.1,1.9-0.6,1.7-1.8
			c-0.1-0.6-0.3-1.2-0.4-1.7c-0.3-1.4,0.4-2.3,1.8-2.4c0.2,0,0.5,0.3,0.5,0.5c0,0.1-0.1,0.1-0.1,0.1c-0.1,0-0.2,0-0.2,0.1
			c-1.1,0.2-1.5,0.8-1.2,1.9c0.1,0.5,0.3,1,0.4,1.4c0.2,0.8,0.1,1.5-0.5,2.1C139.8,50.7,139.3,50.9,138.7,50.9z"/>
		<path class="st0" d="M137.7,21c0,1.1,0.7,1.7,1.7,1.5c0.6-0.1,1.2-0.2,1.9-0.1c1.4,0.1,2.3,1.6,1.7,2.9c-0.2,0.3-0.4,0.2-0.6,0.1
			c-0.3-0.1-0.1-0.3,0-0.4c0.4-1.1-0.2-2-1.4-2c-0.7,0-1.3,0.1-2,0.1c-1.2,0-2-0.8-1.9-2c0-0.2,0-0.4,0.1-0.5
			c0.1-0.1,0.3-0.2,0.5-0.1C137.8,20.7,137.6,20.9,137.7,21z"/>
		<path class="st0" d="M138.4,35.6c0.1,7.3-5.9,13.5-13.5,13.5c-7.4,0-13.4-6-13.4-13.5c0-7.4,6-13.4,13.5-13.4
			C132.5,22.2,138.4,28.4,138.4,35.6z M124.9,48.7c6.9,0.1,13.1-5.5,13.1-13.1c0-7.6-6.2-13.1-13.1-13.1c-7.1,0-13.1,5.9-13.1,13.1
			C111.8,42.9,117.9,48.8,124.9,48.7z"/>
		<path class="st0" d="M128,39.6c0.2,0.8,0.1,1.5-0.4,2.2c-0.3,0.4-0.7,0.6-1.1,0.9c-0.2,0.1-0.4,0.2-0.6,0.3
			c-0.1,0-0.2,0.1-0.1,0.1c0,0.1,0.1,0.1,0.2,0.1c0.3,0,0.5-0.2,0.7-0.3c0.8-0.6,1.9-0.3,2.1,0.6c0,0.2,0.1,0.3,0,0.5
			c-0.1-0.7-0.4-1.1-1.1-1.1c-0.5,0-0.9,0.3-1,0.7c-0.2,0.5,0,0.8,0.6,1.4c-0.3,0-0.2,0.1-0.2,0.3c0.2,0.7,0.1,1.4-0.3,2
			c0,0-0.1,0.1-0.1,0.1c0,0,0,0-0.1,0c0.6-1.2,0.5-2.2-0.7-2.9c-0.8-0.5-1.7-0.3-2.4,0.3c-0.7,0.6-0.7,1.4-0.2,2.7
			c-0.7-0.5-0.9-1.5-0.5-2.7c-0.1-0.1-0.2,0.1-0.3,0c0.6-0.5,0.8-0.9,0.6-1.4c-0.2-0.4-0.6-0.7-1.1-0.7c-0.5,0-0.9,0.4-1,1
			c-0.2-0.7,0.5-1.5,1.3-1.4c0.4,0,0.7,0.2,0.9,0.5c0.2,0.2,0.4,0.3,0.6,0.4c0.1,0,0.2,0,0.2-0.1c0-0.1-0.1-0.1-0.1-0.2
			c-0.4-0.2-0.7-0.4-1.1-0.6c-0.8-0.6-1.2-1.5-1-2.5c0-0.1,0-0.2,0.2-0.3c0.1,0.6,0.2,1.1,0.5,1.6c0.4,0.5,0.8,0.8,1.4,0.9
			c0-0.2-0.1-0.2-0.2-0.3c-0.6-0.5-1.1-1.2-1.4-2c0,0,0-0.1,0-0.1c-0.1-0.2-0.2-0.4-0.4-0.4c-0.1,0-0.1,0.3-0.2,0.4
			c-0.1,0.2-0.2,0.3-0.3,0.5c-0.1,0-0.1,0.1-0.2,0.1c-0.1,0-0.1-0.1,0-0.2c0.1-0.2,0-0.5-0.1-0.7c-0.1-0.2-0.2-0.3-0.4,0
			c-0.2,0.3-0.5,0.6-0.8,0.8c-0.1,0-0.2,0.1-0.3,0c-0.1-0.1,0-0.2,0-0.2c0.1-0.3,0.2-0.6,0-0.8c-0.2-0.2-0.4,0.1-0.7,0.2
			c-0.4,0.1-0.7,0.2-1,0.2c-0.1,0-0.2,0-0.3,0c0.2-0.3,0.5-0.5,0.7-0.9c0.1-0.1,0.2-0.3,0.1-0.4c-0.1-0.1-0.2,0-0.4,0
			c-0.5,0.1-1,0.2-1.5,0.2c-0.1,0-0.2,0-0.2-0.1c0-0.1,0.1-0.1,0.2-0.2c0.3-0.2,0.6-0.4,0.9-0.7c0.1-0.2,0.1-0.2-0.1-0.3
			c-0.6-0.2-1.1-0.5-1.5-0.9c-0.1,0-0.2-0.1-0.1-0.2c0-0.1,0.1-0.1,0.2-0.1c0.3,0,0.6,0,0.9-0.2c-1-0.5-1.7-1.1-2.2-2
			c-0.1-0.1-0.2-0.3-0.2-0.5c0.6,0.4,1.2,0.8,2,0.9c-0.9-1.3-1.9-2.4-1.9-4c0.4,1,1,1.8,2.1,2.4c-0.8-1.6-1-3.1-0.6-4.8
			c0.2,1.1,0.4,2.3,1.2,3.2c-0.3-1.8-0.4-3.6,1-5c-0.4,0.9-0.5,1.8-0.3,2.8c0.1,0.4,0.2,0.8,0.4,1.2c0.3-2.2,1.1-4,2.8-5.4
			c0,0.3-0.1,0.3-0.1,0.4c-0.6,0.9-1.1,1.9-1.3,3c-0.1,0.6,0,1.2,0.2,1.8c0.1,0.2,0.1,0.3-0.1,0.5c-0.4,0.4-0.4,0.9-0.1,1.3
			c0.3,0.4,0.8,0.6,1.3,0.4c0.3-0.1,0.4-0.1,0.6,0.1c0.3,0.3,0.6,0.5,0.9,0.7c0,0,0,0,0,0.1c-1.5-0.1-2.6,0.3-3,1.9
			c-0.2,0.9,0.2,1.9,1,2.4c0.5,0.4,1.1,0.5,1.8,0.4c0.6-0.1,1.2-0.4,1.6-0.9c-0.1,0.6,0,1.1,0.2,1.7c0.2-0.1,0.2-0.3,0.4-0.4
			c0,0.2-0.1,0.4-0.1,0.6c-0.1,0.6-0.1,1.2,0.1,1.8c0.2,0.9,0.5,1.8,0.8,2.7c0.4-1.7,1.3-3.3,0.6-5.1c0.2,0,0.2,0.3,0.4,0.3
			c0.2-0.5,0.2-1,0.1-1.6c1.1,1.1,2.2,1.3,3.4,0.5c0.8-0.5,1.2-1.5,1-2.4c-0.4-1.5-1.5-2-3.1-1.8c0.4-0.4,0.8-0.6,1.1-0.9
			c0.1-0.1,0.2,0,0.3,0c0.5,0.1,0.8,0,1.1-0.4c0.3-0.4,0.3-0.8,0-1.1c-0.1-0.1-0.1-0.2-0.1-0.4c0.5-1.2,0.3-2.3-0.2-3.4
			c-0.2-0.5-0.5-1-0.9-1.5c-0.1-0.1-0.2-0.2-0.1-0.4c1.8,1.3,2.5,3.2,2.8,5.3c0.4-0.7,0.5-1.3,0.5-2c0-0.7-0.1-1.3-0.4-2
			c0.7,0.6,1,1.4,1.1,2.3c0.1,0.9,0,1.8-0.2,2.8c0.5-0.5,0.7-1.1,0.9-1.6c0.2-0.6,0.2-1.1,0.4-1.7c0.4,1.6,0.2,3.2-0.5,4.7
			c1-0.5,1.5-1.3,2-2.2c0,1.6-0.9,2.7-1.9,4c0.8-0.1,1.4-0.4,2-0.8c-0.2,0.6-0.6,1-1,1.4c-0.4,0.4-0.9,0.7-1.5,1
			c0.3,0.2,0.6,0.2,0.9,0.2c0.1,0,0.2,0,0.2,0.1c0,0.1-0.1,0.1-0.1,0.2c-0.5,0.4-0.9,0.8-1.5,0.9c-0.2,0.1-0.2,0.1-0.1,0.3
			c0.3,0.3,0.6,0.5,0.9,0.7c0.1,0,0.2,0.1,0.2,0.2c0,0.1-0.1,0.1-0.2,0.1c-0.5,0-1.1-0.1-1.6-0.2c-0.1,0-0.2-0.1-0.3,0
			c-0.1,0.1,0,0.2,0,0.3c0.1,0.4,0.4,0.7,0.7,0.9c-0.2,0.1-0.3,0-0.5,0c-0.5-0.1-0.9-0.2-1.3-0.4c-0.3-0.1-0.3,0-0.3,0.2
			c0,0.2,0,0.4,0.1,0.6c0,0.2-0.1,0.3-0.3,0.2c-0.4-0.2-0.6-0.4-0.8-0.8c-0.1-0.1-0.1-0.2-0.2-0.2c-0.2,0-0.2,0.2-0.2,0.3
			c-0.1,0.2,0,0.4,0,0.6c0,0.1,0,0.2-0.1,0.2c-0.1,0-0.1,0-0.2-0.1C128.2,40,128.1,39.8,128,39.6c0-0.1,0-0.2-0.1-0.3
			c-0.1,0-0.2,0.1-0.2,0.2c-0.2,0.2-0.2,0.5-0.4,0.7c-0.3,0.7-0.8,1.3-1.4,1.8c0.8-0.2,1.4-0.7,1.7-1.4c0.1-0.3,0.2-0.6,0.2-0.9
			C127.9,39.6,127.9,39.5,128,39.6z"/>
		<path class="st0" d="M123.9,38c-0.2-0.5-0.2-0.9-0.1-1.4c0-0.8,0.3-1.5,0.4-2.3c0-0.1,0.1-0.1,0.1-0.1c0.2,0,0.5-0.1,0.7,0
			c0.4,0.1,0.7,0.2,1.1,0.2c0.2,0,0.3,0.2,0.4,0.4c0,0.1,0,0.2-0.2,0.2c-0.6,0-0.6,0.1-0.5,0.6c0.1,0.5,0.2,1,0.2,1.5
			c0,0.2,0,0.4-0.1,0.5c-0.1,0.1-0.1,0.2-0.2,0c-0.6-0.7-1.1-0.6-1.6,0.2C124,37.9,124,37.9,123.9,38z"/>
		<path class="st0" d="M126,35.8c0.9,1.1,1.7,1.4,2.6,1c0.8-0.4,1.2-1.2,1-2c-0.2-0.8-1-1.4-2.1-1.4c0.5-0.3,1.4-0.1,1.9,0.4
			c0.7,0.6,0.9,1.5,0.6,2.4c-0.4,0.8-1.3,1.4-2.1,1.3C127,37.3,126.2,36.7,126,35.8z"/>
		<path class="st0" d="M123.8,35.7c-0.1,0.8-0.8,1.5-1.7,1.7c-0.9,0.2-1.9-0.2-2.3-1c-0.5-0.8-0.4-1.7,0.3-2.4
			c0.6-0.6,1.5-0.9,2.2-0.6c-0.6,0-1,0.1-1.4,0.4c-0.4,0.3-0.6,0.7-0.7,1.3c-0.1,0.7,0.4,1.5,1.2,1.8
			C122.2,37.2,123.1,36.8,123.8,35.7z"/>
		<path class="st0" d="M125.8,46.6c0.3-0.7,0.2-1.2-0.3-1.5c-0.4-0.3-1-0.3-1.4-0.1c-0.5,0.3-0.6,0.8-0.4,1.6
			c-0.4-0.4-0.5-0.9-0.3-1.4c0.2-0.5,0.8-0.9,1.4-0.8c0.6,0.1,1.1,0.5,1.2,1.1C126.2,46,126,46.4,125.8,46.6z"/>
		<path class="st0" d="M128.3,43.8c-0.1-0.3-0.3-0.6-0.7-0.6c-0.3,0-0.5,0.2-0.6,0.4c-0.1,0.3,0,0.6,0.3,0.8c-0.4,0-0.7-0.4-0.6-0.8
			c0-0.4,0.4-0.7,0.8-0.7C128,43.1,128.3,43.4,128.3,43.8z"/>
		<path class="st0" d="M122.3,44.4c0.3-0.2,0.4-0.5,0.3-0.8c-0.1-0.2-0.3-0.4-0.5-0.4c-0.4,0-0.6,0.2-0.8,0.6
			c-0.1-0.4,0.2-0.8,0.6-0.8c0.4-0.1,0.8,0.2,0.9,0.6C122.9,43.9,122.7,44.3,122.3,44.4z"/>
	</g>
</g>
</svg>
