<?xml version="1.0" encoding="utf-8"?>
<!-- Generator: $$$/GeneralStr/196=Adobe Illustrator 27.6.0, SVG Export Plug-In . SVG Version: 6.00 Build 0)  -->
<svg version="1.1" id="Capa_1" xmlns="http://www.w3.org/2000/svg" xmlns:xlink="http://www.w3.org/1999/xlink" x="0px" y="0px"
	 viewBox="0 0 250 100" style="enable-background:new 0 0 250 100;" xml:space="preserve">
<style type="text/css">
	.st0{fill:#777777;}
</style>
<g id="Layer_2">
</g>
<g id="Layer_2_00000102509134159340710320000004039249129772105132_">
	<g id="Layer_1-2">
		<path class="st0" d="M127.1,59.7c-5.6-1.3-10.3,2.6-11.4,7.7c-1.4,6.3,2.3,12.1,7.3,13.3c5.6,1.3,10.3-2.6,11.4-7.7
			C135.8,66.6,132.1,60.9,127.1,59.7z M126.3,80c-2.6,0.3-4.7-2.9-5.4-9.3s0.2-9.9,2.8-10.3s4.7,2.9,5.4,9.3S128.9,79.6,126.3,80z"
			/>
		<path class="st0" d="M105.2,60.4v-0.6h-9.8v0.6c3.5,0,5.2,4.2,2.6,10.2l-1.9,4.2c-1.6-3.3-5.6-11.5-5.6-11.5
			c-0.9-1.9-0.2-2.9,1-2.9v-0.6H81.3v0.6c1.2,0,2.1,0.7,3.5,3.7L92.9,82l-1.4,3.2c-0.8,1.6-2.5-0.2-4.5-0.2c-1.7,0-3.1,1.3-3.1,3
			c0,1.7,1.3,3,3,3c0.1,0,0.1,0,0.2,0c1.8-0.1,3.4-1.2,4.1-2.9l3.5-7.7l6.1-13.1C103.1,62.2,105.2,60.4,105.2,60.4z"/>
		<path class="st0" d="M112.3,75.6V49.8l-5.6,1.9l-3.2,1.1l0.1,0.5c2.1-0.6,3.1,0,3.1,1.8v20.4c0,3.4-0.9,4.3-3.1,4.3v0.6h11.7v-0.6
			C113.2,79.9,112.3,79,112.3,75.6z"/>
		<path class="st0" d="M149.8,59.3c-3.8,0-5.5,5-5.8,6.7v-6.1l-5.6,1.9l-3.2,1.2l0.1,0.5c2.1-0.6,3.1,0,3.1,1.8v10.3
			c0,3.4-0.9,4.3-3.1,4.3v0.6h11.7v-0.6c-2.2,0-3.1-0.9-3.1-4.3v-7.2c0.9-3.1,1.7-4.9,2.9-4.9c1.4,0,1.9,1.6,3.5,1.6
			c1.4,0.1,2.6-0.9,2.7-2.3c0-0.1,0-0.2,0-0.2c0.1-1.7-1.1-3.1-2.8-3.2C150.2,59.3,150,59.3,149.8,59.3z"/>
		<path class="st0" d="M56.6,53.7c3.4,0,7,2.9,8.8,7.5l0.5-0.2l-0.6-8H41.4l-0.6,8l0.5,0.2c1.8-4.6,5.4-7.5,8.9-7.5h0.5v22
			c0,3.4-1.5,4.2-3.7,4.2v0.6h12.8v-0.6c-2.2,0-3.6-0.8-3.6-4.2v-22L56.6,53.7z"/>
		<path class="st0" d="M83.7,77.3c-0.3,0.3-0.7,0.5-1.2,0.5c-0.8,0-1.4-0.7-1.4-1.7V64.7c0-1.6-0.6-5.3-6.7-5.3
			c-4.8,0-9.7,3.9-9.7,6.1c-0.1,1.2,0.8,2.2,2,2.3c0.1,0,0.3,0,0.4,0c1.3,0.1,2.3-0.9,2.4-2.1c0,0,0-0.1,0-0.1c0-1-0.5-1.4-0.5-2.6
			c0-1,1.4-1.9,3-1.9c2.3,0,3.6,1.2,3.6,4.2v11.3c-1,0.8-2.2,1.2-3.4,1.2c-2.2,0-3.4-1.3-3.4-3.1c0-2.9,2.5-4.9,6.8-5.4v-0.8
			c-8.1,0.7-11.6,3.6-11.6,7.4c0,2.8,2.2,5,5,5c0.1,0,0.2,0,0.4,0c2.5,0,4.8-1.2,6.3-3.2c0.3,1.8,1.8,3.2,3.7,3.2
			c2.1-0.1,3.9-1.5,4.5-3.5L83.7,77.3z"/>
		<path class="st0" d="M145.5,20.7c-3.5,0-6.1,2.3-7.7,4.8V11.2l-5.6,1.9l0,0l-3.1,1.1l0.1,0.5c1.8-0.5,2.7-0.2,3,1v26h0.4
			c1-0.9,2.3-1.5,3.7-1.6c1.8,1.3,4,2,6.2,2.1c5,0,10.4-3.7,10.4-11.5C152.9,25,149.9,20.7,145.5,20.7z M142.5,41.1
			c-3.2,0-4.6-3.2-4.7-7.1V27c1.5-2.2,2.8-3.4,4.3-3.4c3.8,0,5.3,4.4,5.3,7.8C147.4,35.2,146.3,41.1,142.5,41.1L142.5,41.1z"/>
		<path class="st0" d="M167.7,38.1c-3.6,0.1-6.8-2.4-7.7-5.9l12.4-5.2c-1.1-4.2-4.1-6.3-8.2-6.3c-5.4,0-9.5,5-9.5,11
			c-0.1,5.7,4.3,10.4,10,10.5c0,0,0.1,0,0.1,0c4.5-0.1,8.3-3.3,9.2-7.6l-0.4-0.1C172.5,36.7,170.2,38.1,167.7,38.1z M159.6,28.8
			c0-4.9,2-7,4.4-7c1.6-0.2,3,1,3.1,2.6c0,0.1,0,0.3,0,0.4c0,1.5-1.2,3.5-3.7,4.7l0.2-0.1l-3.8,1.9
			C159.6,30.5,159.5,29.7,159.6,28.8L159.6,28.8z"/>
		<path class="st0" d="M102.9,21.1c-4.1,0.1-8.3,0-12.4-0.4l-0.7,6.4h0.5c0,0,3.1-4.6,10.2-5l1.2-0.1l-13,19.7h18.6l1.1-9.1H108
			c-0.3,2.2-4,7.9-9.6,8.2L96,40.9L109,21.1H102.9z"/>
		<path class="st0" d="M72.5,36.9V11.1L67,13l-3.2,1.1l0.1,0.5c2.1-0.6,3.1,0,3.1,1.8v20.4c0,3.4-0.9,4.3-3.1,4.3v0.5h11.7v-0.5
			C73.4,41.2,72.5,40.3,72.5,36.9z"/>
		<path class="st0" d="M82.4,17.6c1.8,0,3.3-1.5,3.3-3.3S84.3,11,82.4,11c-1.8,0-3.3,1.5-3.3,3.3c0,0,0,0,0,0
			C79.1,16.1,80.6,17.6,82.4,17.6C82.4,17.6,82.4,17.6,82.4,17.6z"/>
		<path class="st0" d="M85.4,36.9v-16l-5.6,1.9L76.6,24l0.1,0.5c2.1-0.6,3.1,0.2,3.1,2.1v10.4c0,3.4-0.9,4.3-3.1,4.3v0.5h11.7v-0.5
			C86.3,41.2,85.4,40.3,85.4,36.9z"/>
		<path class="st0" d="M52.8,40.7h0.1h-1c-2.3,0.1-2.5-0.9-2.5-2.4V28h1c4.5,0.1,5.2,1.5,5.8,4.6h0.4V28l0,0V27l0,0v-4.5h-0.4
			c-0.6,3.1-1.3,4.5-5.8,4.6h-1.1v-9.5c0-1.5,0.2-2.5,2.5-2.4h0.7c3.8,0,6.2,2.7,8,7.3h0.5l-0.4-8.3h-20v0.6c2.2,0,3.1,0.9,3.1,4.2
			v17.9c0,3.4-0.9,4.3-3.1,4.3v0.5h21l0.9-8.8h-0.4C60.5,38.4,56.7,40.6,52.8,40.7z"/>
		<path class="st0" d="M129,39c-0.8,0-1.4-0.7-1.4-1.7V26c0-1.6-0.6-5.3-6.7-5.3c-4.8,0-9.7,3.9-9.7,6.1c-0.1,1.2,0.8,2.2,2,2.3
			c0.1,0,0.3,0,0.4,0c1.3,0.1,2.3-0.9,2.4-2.2c0,0,0,0,0-0.1c0-1-0.5-1.4-0.5-2.6c0-1,1.4-1.9,3-1.9c2.3,0,3.6,1.2,3.6,4.2V38
			c-1,0.8-2.2,1.2-3.4,1.2c-2.2,0-3.4-1.2-3.4-3.1c0-2.9,2.5-4.9,6.8-5.4v-0.9c-8.1,0.7-11.6,3.5-11.6,7.4c0,2.8,2.2,5,5,5
			c0.1,0,0.2,0,0.4,0c2.5-0.1,4.8-1.3,6.3-3.3c0.3,1.8,1.8,3.2,3.7,3.2c2.1-0.1,3.9-1.5,4.5-3.5l-0.1-0.2
			C129.8,38.9,129.4,39.1,129,39z"/>
		<path class="st0" d="M207,38.1V27.5c0-3.9-1.8-6.8-5.4-6.8c-3,0-6.2,2.5-7.6,5.4v-15l-5.5,1.9l-3.2,1.1l0.1,0.5
			c2.1-0.6,3.1,0,3.1,1.8v21.3c0,2.1-0.6,2.8-3.6,2.8c-2.7,0-4.1-1.6-4.1-5.2V22.4h4.7l0.4-1.4h-5.1v-5.3h-0.5
			c-1.6,2.9-4.3,5-7.5,5.9v0.7h2.4V36c0,3.7,2.3,5.8,5.2,5.8c3.3,0,6.5-0.2,7.9-0.2h8v-0.6c-1.7,0-2.3-0.6-2.3-3V27.4
			c1.1-2.2,2.7-3.7,4.5-3.7c2,0,2.9,1.2,2.9,4.2v10.1c0,2.4-0.6,3-2.3,3v0.6h10.1v-0.6C207.6,41.1,207,40.5,207,38.1z"/>
	</g>
</g>
</svg>
