<?xml version="1.0" encoding="utf-8"?>
<!-- Generator: $$$/GeneralStr/196=Adobe Illustrator 27.6.0, SVG Export Plug-In . SVG Version: 6.00 Build 0)  -->
<svg version="1.1" id="Capa_1" xmlns="http://www.w3.org/2000/svg" xmlns:xlink="http://www.w3.org/1999/xlink" x="0px" y="0px"
	 viewBox="0 0 250 100" style="enable-background:new 0 0 250 100;" xml:space="preserve">
<style type="text/css">
	.st0{fill:#777777;}
</style>
<g>
	<path class="st0" d="M125.2,10.2c0.4,0.5,0.6,1.2,0.9,1.8c1.2,3.1,2.4,6.1,3.4,9.2c0.4,1.1,1,0.9,1.8,0.8c0.9-0.1,0.6-0.7,0.7-1.3
		c0-0.5,0-1,0.1-1.4c0.1-0.4,0-0.7-0.3-1c-0.4-0.3-0.9-0.5-0.2-1c0.3-0.2-0.2-0.4-0.4-0.5c-1-0.4-1.3-1.3-0.9-2.2
		c0.1-0.2,0.2-0.5,0.1-0.7c-0.2-1,0.3-1.6,1.2-2c1-0.4,2.1-0.5,3,0.3c0.6,0.5,1,1.1,1.1,1.9c0.2,1.1,0.8,1.8,1.6,2.5
		c1.9,1.7,3.4,3.7,4.1,6.2c0.2,0.6,0.3,1.3,0.4,2c0.1,0.7,0.2,1.5-0.9,1.8c-0.4,0.1-0.3,0.4,0,0.6c0.7,0.3,1.2,0.8,1.3,1.6
		c0,0.1,0.1,0.3,0.2,0.3c1.1,0.3,1.7,1.3,2.7,1.8c3,1.3,5.1,3.5,6.2,6.6c0.2,0.7,0.5,1.2,1.2,1.7c0.8,0.5,0.7,1.3-0.1,1.8
		c-0.6,0.3-0.8,0.8-0.8,1.4c0,0.9,0,1.8,0.1,2.7c0.2,1.7,1.6,2.7,2.5,3.9c0.8,0.9,1.7,1.8,2.5,2.7c0.2,0.2,0.4,0.5,0.8,0.4
		c0.7-0.1,0.9,0.3,0.9,0.9c0.1,2.7,0.8,5.2,1.6,7.7c0.2,0.6,0.3,1.2,0.5,1.8c0.2,0.5,0.4,1.2,1.1,0.4c0.3-0.3,0.6-0.2,0.8,0
		c0.7,0.6,1.3,1.3,1.8,2c0.2,0.2,0.3,0.5,0.1,0.8c-0.2,0.3-0.6,0.3-0.8,0.1c-1.1-0.8-2.3-1.2-3.7-1.4c-0.3,0-0.4-0.3-0.5-0.6
		c-1-3.9-2.7-7.6-5.3-10.7c-0.9-1.1-2.1-1.9-3.2-2.8c-0.5-0.4-1.1-0.7-1.8-0.6c-2,0.1-2.8-1.4-3.7-2.8c-0.1-0.2-0.1-0.7-0.5-0.7
		c-0.3,0-0.5,0.3-0.6,0.6c-1.4,2.8-2.3,5.8-2.4,8.9c0,1.2-0.3,2-1.3,2.8c-1.1,0.9-2.2,1.8-3.3,2.8c-0.2,0.2-0.5,0.3-0.4,0.5
		c0.1,0.3,0.4,0.1,0.6,0.2c0.8,0.3,1.6,0.5,2.1,1.3c0.2,0.3,0.3,0.7,0.1,1c-0.2,0.3-0.7,0.4-0.9,0.2c-1.6-0.9-3,0.3-4.5,0.5
		c-0.3,0-0.4,0.2-0.6,0.4c-0.1,0.1-0.1,0.3-0.2,0.4c-0.9,0.5-1.8,0.9-2,2.2c-0.1,0.5-1.1,0.5-1.7,0.3c-0.6-0.2-1-0.7-1.3-1.3
		c-0.2-0.4,0-0.7,0.4-0.7c1.3-0.1,2.1-0.9,2.9-1.7c1.2-1,1.1-1-0.1-2c-1.3-1-2.7-2.1-4.2-3c-1.3-0.7-2-1.8-2.2-3.3
		c-0.3-2.1-1-4.1-2.2-5.9c-0.6-0.9-1.1-2-1.2-3.1c0-0.2-0.1-0.4-0.2-0.6c-0.2-0.4-0.3-0.9-0.8-0.8c-0.5,0-0.5,0.5-0.5,0.9
		c-0.1,0.6-0.5,0.7-0.9,0.7c-1.2-0.1-2,0.3-2.9,1.2c-1.6,1.7-3.4,3-5,4.6c-1.6,1.7-3.1,3.5-4.5,5.4c-0.8,1.1-1.7,2-2.3,3.3
		c-0.2,0.4-0.5,0.6-0.9,0.8c-0.6,0.3-1,0.6-1.1,1.3c0,0.3-0.3,0.5-0.5,0.6c-1.1,0.4-2.1,0.3-3.1-0.2c-0.2-0.1-0.4-0.3-0.4-0.5
		c0-0.3,0.2-0.5,0.5-0.6c0.1,0,0.1-0.1,0.2-0.1c1.9,0,2.8-1.4,3.7-2.7c1-1.4,2.1-2.8,3.2-4.1c0.4-0.5,0.7-1,0.9-1.7
		c0.3-1,0.9-1.8,1.6-2.5c2.1-2.1,4-4.4,6-6.6c1.6-1.8,1-4.1-1.2-5.1c-1.1-0.5-2.2-1-3.4-1.1c-0.3,0-0.6-0.2-0.8-0.3
		c-1.9-1.1-3.6-2.3-5.2-3.9c-1.4-1.4-3.1-2.6-5.2-2.9c-1.1-0.2-2-0.9-2.7-1.7c-0.5-0.5-1-1-1.7-1c-1.8,0-3.3-0.7-5-1.1
		c-0.9-0.2-1.8-0.8-2.6,0.3c0,0.1-0.2,0.1-0.3,0c-0.4-0.1-0.7-1.3-0.5-1.6c0.2-0.2,0.4-0.5,0.4-0.8c0.1-1.1,0.9-1.5,1.7-1.9
		c1.1-0.4,2.3-0.8,3.5-0.8c0.4,0,0.8,0,1.1-0.2c0.7-0.5,1.4-0.8,2.3-0.7c0.1,0,0.1,0,0.2,0c1.3-0.4,1.4-0.4,2.2,0.9
		c0.2,0.4,0.4,0.7,0.9,0.6c0.3-0.1,0.5,0,0.7,0.3c0.1,0.2,0.3,0.4,0.5,0.3c0.7-0.3,1.1,0.2,1.4,0.7c0.7,1.2,1.7,1.5,2.9,1.3
		c2.6-0.4,5.2-0.8,7.8-1c5-0.4,10.1-0.5,15.1,0.2c1,0.1,1.9,0.3,2.8-0.5c0.5-0.4,1.2-0.3,2-0.4c-0.6-0.4-1-0.2-1.4-0.3
		c-1.2-0.3-1.5-0.8-1.2-2c0.1-0.2-0.1-0.5-0.2-0.8c-1.2-3.4-2.5-6.9-3.7-10.3c-0.2-0.4-0.4-0.8-0.2-1.3
		C125.1,10.2,125.1,10.2,125.2,10.2z M125.9,47.6c0.3,1.3,0.6,2.7,0.9,4c0.3,1.3,0.4,2.7,1,4c1.3,2.8,3.4,4.9,5.8,6.6
		c0.3,0.2,0.4,0.1,0.6-0.1c1.5-1.6,2.7-3.5,3.5-5.6c1.3-3.4,1-6.8,0.5-10.3c0-0.1-0.1-0.2-0.2-0.3c-0.5-0.8-0.2-1.3,0.5-1.8
		c1.2-0.8,1.8-2.2,2.6-3.3c0.1-0.2,0.3-0.5,0-0.7c-0.3-0.2-0.4,0.1-0.6,0.3c-0.1,0.1-0.2,0.2-0.3,0.3c-1.6,1.6-3.4,2.6-5.8,2.4
		c-0.7-0.1-1.3,0.2-1.9,0.4c-1.9,0.8-3.8,1.7-5.7,2.5C126.2,46.4,125.9,46.9,125.9,47.6z M118.1,25.8c-1.1,0.1-2.2,0.1-3.2,0.2
		c-3.3,0.1-6.6,0.6-9.8,1.2c-1,0.2-1,0.3-0.4,1c1.2,1.6,2.7,2.8,4.6,3.5c1.2,0.5,2.4,0.6,3.7,0.8c1.4,0.2,2.2-1.4,3.5-1
		c0.1,0,0.2-0.2,0.3-0.3c1.8-1.5,4-2.4,6.3-2.8c1.4-0.2,2.7,0.1,4.1-0.3c0.2-0.1,0.6,0,0.5-0.3c-0.2-0.6-0.2-1.2-1.1-1.3
		C123.8,26.1,120.9,26,118.1,25.8z"/>
	<path class="st0" d="M191.3,83.4c-0.1,0.6-0.2,1.2-0.3,1.8c-0.5,2.5-2.1,3.9-4.6,4.3c-1.1,0.2-2.3,0.2-3.5,0
		c-2.9-0.4-4.6-2.3-4.8-5.3c-0.1-3.1,0-6.3,0-9.4c0-1,0.7-0.7,1.2-0.8c0.6-0.1,1,0.1,1,0.9c0,2.6,0,5.3,0,7.9c0,0.7,0.1,1.5,0.2,2.2
		c0.5,2.4,2.5,3.6,4.9,3.4c3-0.3,4-2,4.1-4.9c0.1-2.6,0-5.2,0-7.9c0-1.7,0-1.7,1.6-1.6C191.3,77.1,191.3,80.2,191.3,83.4z"/>
	<path class="st0" d="M92.2,89.8c-1.5-0.5-3.1-1-4.2-2.2c-2.3-2.5-2.8-5.4-1.7-8.5c1-3,3.4-4.5,6.4-4.9c1.9-0.3,3.8-0.1,5.6,0.6
		c0.8,0.3,1,1.5,0.3,2c-0.4,0.3-0.6-0.1-0.9-0.3c-1.4-1-2.9-1.6-4.6-1.3c-2.4,0.4-4,1.9-4.7,4.2c-0.5,1.8-0.5,3.6,0.1,5.3
		c1.2,3.7,4.8,4.7,8.2,3.4c0.5-0.2,1-0.5,1.5-0.8c0.4-0.2,0.5-0.1,0.5,0.3c0,0.6-0.2,1-0.7,1.2c-0.9,0.5-1.9,0.7-2.9,1
		C94.1,89.8,93.1,89.8,92.2,89.8z"/>
	<path class="st0" d="M146.1,78.4c-0.4,0.4-0.5,0.7-0.7,1c-1.5,2.9-2.9,5.7-4.4,8.6c-0.2,0.3-0.2,0.8-0.7,0.7
		c-0.4,0-0.5-0.4-0.6-0.7c-1.6-3.1-3.2-6.2-4.8-9.5c-0.4,1.2-0.3,2.3-0.5,3.4c-0.3,2.1-0.4,4.2-0.6,6.4c-0.1,0.9-0.6,0.9-1.2,0.9
		c-0.8,0-0.5-0.7-0.4-1c0.6-4.5,1.2-9,1.8-13.6c0-0.3,0.1-0.6,0.5-0.7c0.5-0.1,0.6,0.3,0.8,0.6c1.7,3.2,3.3,6.4,5,9.6
		c0.1,0.2,0.1,0.3,0.3,0.5c0.1,0.2,0.1,0.5,0.4,0.5c0.2,0,0.3-0.3,0.4-0.5c1.7-3.2,3.4-6.4,5.1-9.6c0.1-0.2,0.3-0.5,0.4-0.7
		c0.1-0.3,0.3-0.4,0.7-0.4c0.4,0.1,0.4,0.3,0.4,0.6c0.3,2.5,0.6,5,0.9,7.5c0.2,2,0.5,3.9,0.7,5.9c0.1,0.5,0.4,1.1-0.6,1.2
		c-1.5,0.1-1.7,0-1.8-0.9C146.8,85,146.5,81.8,146.1,78.4z"/>
	<path class="st0" d="M114.5,81.5c0,2.2,0,4.4,0,6.7c0,0.8-0.3,1-1.1,1c-0.8,0-1-0.2-1-1c0-1.8,0-3.7,0-5.5c0-0.9-0.3-1.2-1.1-1.2
		c-2.3,0-4.7,0-7,0c-0.7,0-1,0.4-1,1.1c0,1.8,0,3.7,0,5.5c0,0.9-0.3,1.1-1.1,1.1c-0.8,0-1.1-0.2-1.1-1c0-4.4,0-8.9,0-13.3
		c0-0.8,0.3-1,1.1-1c0.8,0,1.2,0.2,1.1,1.1c-0.1,1.5,0,2.9,0,4.4c0,0.7,0.3,0.9,1,1c2.4,0.2,4.7,0.2,7.1,0c0.9-0.1,1.1-0.4,1.1-1.2
		c0-1.3,0-2.7,0-4c0-0.7,0-1.3,1-1.3c1.1,0,1.1,0.6,1.1,1.3C114.4,77.3,114.5,79.4,114.5,81.5z"/>
	<path class="st0" d="M129.4,89.2c-0.8,0.2-1.2-0.3-1.5-1.1c-0.5-1.4-1.1-2.8-1.6-4.2c-0.2-0.5-0.5-0.8-1.1-0.8c-1.2,0-2.4,0-3.6,0
		c-0.5,0-0.8,0.2-1,0.7c-0.5,1.5-1.1,3-1.6,4.5c-0.3,0.8-1,1.1-1.7,0.8c-0.6-0.2-0.2-0.6-0.1-0.9c1-2.3,2.1-4.7,3.1-7
		c1-2.2,2-4.4,3-6.7c0.2-0.3,0.2-0.8,0.7-0.8c0.5,0,0.5,0.5,0.7,0.8c2,4.6,4,9.2,6.1,13.8C131,89.2,130.9,89.2,129.4,89.2z
		 M123.5,77c-0.7,1.6-1.3,3-1.9,4.4c-0.2,0.4-0.1,0.6,0.4,0.6c1,0,1.9,0,2.9,0c0.5,0,0.6-0.2,0.4-0.6C124.7,80,124.2,78.6,123.5,77z
		"/>
	<path class="st0" d="M152.4,81.6c0-2.1,0-4.3,0-6.4c0-1.1,0.1-1.2,1.2-1.2c2,0,4,0,5.9,0c0.6,0,0.9,0.2,0.9,0.9
		c0,0.5-0.2,0.6-0.7,0.6c-1.3,0-2.7,0-4-0.1c-0.7,0-1.1,0.2-1,1c0,1,0,2.1,0,3.1c0,0.7,0.2,1.1,1,1c1.2-0.1,2.4,0,3.5-0.1
		c0.7-0.1,0.6,0.3,0.6,0.7c0,0.5,0,0.9-0.6,0.8c-1.2-0.2-2.4-0.1-3.5-0.1c-0.7,0-1,0.2-1,0.9c0,1.4,0,2.8,0,4.2
		c0,0.7,0.3,0.9,0.9,0.9c1.3,0,2.7,0.1,4-0.1c0.5-0.1,0.9-0.1,0.9,0.6c0,0.7-0.3,0.8-0.9,0.8c-2.1,0-4.2,0-6.3,0
		c-0.8,0-1.1-0.3-1.1-1.1C152.4,86,152.4,83.8,152.4,81.6z"/>
	<path class="st0" d="M174.5,89.2c-0.8,0.2-1.2-0.3-1.5-1.1c-0.5-1.4-1.1-2.8-1.6-4.2c-0.2-0.6-0.6-0.8-1.2-0.7c-1.1,0-2.3,0-3.4,0
		c-0.7,0-1.1,0.2-1.3,0.9c-0.5,1.5-1.1,2.9-1.6,4.4c-0.3,0.7-1.1,1.1-1.8,0.7c-0.5-0.2-0.2-0.6,0-0.9c0.8-1.7,1.5-3.4,2.3-5.2
		c1.3-2.9,2.6-5.7,3.9-8.6c0.1-0.3,0.2-0.8,0.7-0.8c0.5,0,0.5,0.5,0.7,0.8c2,4.6,4,9.2,6.1,13.8C176.1,89.2,176,89.2,174.5,89.2z
		 M168.6,77c-0.7,1.6-1.3,3-1.9,4.4c-0.2,0.5,0,0.6,0.4,0.6c0.9,0,1.9,0,2.8,0c0.5,0,0.6-0.2,0.4-0.7C169.8,80,169.2,78.6,168.6,77z
		"/>
	<path class="st0" d="M69.7,81.6c0-2.2,0-4.4,0-6.6c0-0.8,0.3-1,1-1c2,0,4.1,0,6.1,0c0.6,0,0.9,0.2,0.9,0.9c0,0.9-0.6,0.6-1,0.6
		c-1.3,0-2.7,0-4,0c-0.6,0-0.8,0.2-0.8,0.8c0,1.2,0,2.3,0,3.5c0,0.7,0.3,0.8,0.9,0.8c1.2,0,2.4,0,3.6-0.1c0.7,0,0.8,0.3,0.8,0.8
		c0,0.6-0.3,0.7-0.8,0.7c-1.2-0.1-2.4,0-3.6-0.1c-0.6,0-1,0.2-0.9,0.9c0,1.4,0,2.9,0,4.3c0,0.6,0.2,0.9,0.9,0.9
		c1.4,0,2.8,0.1,4.2-0.1c0.5-0.1,0.9-0.1,0.9,0.6c0,0.6-0.3,0.9-0.9,0.8c-2.2,0-4.3,0-6.5,0c-0.7,0-0.9-0.3-0.9-0.9
		C69.7,86.1,69.7,83.9,69.7,81.6z"/>
	<path class="st0" d="M58.7,81.5c0-2.1,0-4.3,0-6.4c0-0.7,0.1-1.1,1-1.1c0.8,0,1.1,0.3,1.1,1.1c0,3.8,0,7.6,0,11.3
		c0,1.5,0,1.5,1.5,1.5c1.2,0,2.3,0,3.5-0.1c0.5-0.1,1-0.1,1,0.6c0,0.7-0.3,0.8-0.9,0.8c-2.1,0-4.1,0-6.2,0c-0.7,0-1-0.2-1-1
		C58.8,86,58.7,83.8,58.7,81.5z"/>
</g>
</svg>
