<?xml version="1.0" encoding="utf-8"?>
<!-- Generator: $$$/GeneralStr/196=Adobe Illustrator 27.6.0, SVG Export Plug-In . SVG Version: 6.00 Build 0)  -->
<svg version="1.1" id="Capa_1" xmlns="http://www.w3.org/2000/svg" xmlns:xlink="http://www.w3.org/1999/xlink" x="0px" y="0px"
	 viewBox="0 0 250 100" style="enable-background:new 0 0 250 100;" xml:space="preserve">
<style type="text/css">
	.st0{fill:#777777;}
</style>
<g id="Layer_2">
</g>
<g>
	<path class="st0" d="M242.8,67c-0.8,0-1.5,0-2.3,0c-0.2,0-0.3-0.1-0.4-0.3c-0.9-2-1.8-4.1-2.7-6.1c-1-2.3-2-4.5-3-6.8
		c-0.1-0.2-0.2-0.3-0.4-0.3c-4.4,0-8.9,0-13.3,0c-0.3,0-0.5,0.1-0.7,0.4c-0.5,1.1-0.9,2.2-1.4,3.3c-1.3,2.9-2.6,5.9-3.9,8.8
		c-0.1,0.2-0.2,0.4-0.3,0.7c-0.1,0.1-0.2,0.2-0.3,0.2c-0.6,0-1.2,0-1.8,0c-0.2,0-0.3,0-0.2-0.3c0.6-1.1,1.1-2.3,1.6-3.4
		c0.8-1.8,1.7-3.6,2.5-5.4c1.5-3.3,3-6.5,4.5-9.8c1-2.2,2-4.4,3-6.6c1.2-2.6,2.4-5.3,3.6-7.9c0-0.1,0-0.2,0.2-0.2
		c0.1,0,0.1,0.1,0.2,0.2c1.3,2.6,2.4,5.3,3.7,7.9c1.2,2.6,2.4,5.3,3.6,7.9c1.3,2.7,2.5,5.4,3.7,8.1c0.7,1.5,1.3,3,2,4.5
		c0.7,1.4,1.3,2.8,1.9,4.2c0.1,0.1,0.1,0.3,0.2,0.3C242.8,66.8,242.8,66.9,242.8,67z M227.2,52c2,0,4,0,6,0c0.3,0,0.3,0,0.2-0.3
		c-0.9-2-1.8-4-2.7-6c-1.1-2.5-2.2-5-3.3-7.5c0-0.1,0-0.3-0.2-0.3c-0.1,0-0.1,0.2-0.2,0.3c0,0,0,0,0,0c-0.8,1.9-1.7,3.7-2.5,5.6
		c-1.1,2.6-2.3,5.3-3.5,7.9c-0.1,0.3-0.1,0.3,0.2,0.3C223.2,52,225.2,52,227.2,52z"/>
	<path class="st0" d="M62.5,32.2c-0.1,0.1-0.2,0-0.4,0.1c0.5,0.1,0.9,0.1,1.4,0.2c1.8,0.4,3.6,1,5.2,1.9c0.1,0.1,0.2,0.2,0.2,0.3
		c0,0.6,0,1.1,0,1.7c0,0.1,0,0.2-0.1,0.2c-0.1,0-0.1,0-0.2-0.1c-0.9-0.6-1.9-1.2-3-1.6c-1.3-0.6-2.7-0.9-4.2-1
		c-1.5-0.2-3-0.1-4.5,0.3c-1.5,0.4-2.8,1.1-3.8,2.4c-1.9,2.6-1.7,5.9,0.9,8.1c1,0.8,2.1,1.4,3.3,1.9c1.5,0.7,3.1,1.3,4.7,2
		c1.8,0.7,3.5,1.5,5,2.7c1.7,1.2,3,2.6,3.5,4.6c0.4,1.4,0.5,2.9,0.2,4.4c-0.3,1.8-1.2,3.3-2.5,4.6c-1.2,1.2-2.8,1.9-4.4,2.3
		c-2,0.5-4,0.7-6,0.6c-2.9-0.2-5.7-1-8.3-2.4c-0.2-0.1-0.3-0.2-0.3-0.4c0-0.6,0-1.3,0-1.9c0-0.1,0-0.2,0.1-0.2
		c0.1,0,0.1,0.1,0.2,0.1c1.8,1.3,3.9,2.3,6.1,2.9c1.6,0.4,3.2,0.5,4.8,0.3c1.6-0.2,3.2-0.5,4.6-1.4c2.3-1.4,3.4-3.5,3.4-6.1
		c0-2.2-1-3.9-2.7-5.2c-1.6-1.3-3.5-2.1-5.4-2.9c-1.6-0.6-3.1-1.2-4.7-2c-1.5-0.7-2.9-1.5-4-2.6c-1.3-1.2-2-2.8-2.2-4.6
		c-0.2-1.7,0.1-3.3,1-4.7c0.8-1.3,1.9-2.3,3.3-3.1c1.2-0.7,2.4-1,3.8-1.2c0.1,0,0.2,0,0.4,0c-0.2-0.1-0.3-0.1-0.4-0.1
		C59.3,32.2,60.9,32.2,62.5,32.2z"/>
	<path class="st0" d="M106.6,32.2c-0.1,0.1-0.3,0-0.4,0.1c0.7,0.1,1.3,0.2,1.9,0.3c1.6,0.4,3.1,0.9,4.5,1.7c0.2,0.1,0.3,0.3,0.3,0.5
		c0,0.4,0,0.9,0,1.3c0,0.1,0,0.2,0,0.2c-0.1,0.1-0.1,0-0.2-0.1c-1.6-1.1-3.4-1.8-5.3-2.2c-1.3-0.3-2.7-0.4-4-0.3
		c-1.3,0.1-2.6,0.3-3.8,0.7c-3.4,1.2-6.1,3.3-7.9,6.5c-1.1,2-1.8,4.2-2.1,6.5c-0.3,2.2-0.2,4.4,0.3,6.5c0.4,1.9,1.1,3.7,2.1,5.3
		c2,3.1,4.7,5.3,8.3,6.3c2,0.6,4.1,0.7,6.1,0.4c2.4-0.3,4.6-1.2,6.6-2.6c0.2-0.1,0.2-0.1,0.2,0.1c0,0.5,0,1.1,0,1.6
		c0,0.1-0.1,0.2-0.2,0.3c-1.9,1.1-3.9,1.8-6.1,2.2c-1.3,0.2-2.6,0.3-3.9,0.2c-3.8-0.3-7.3-1.5-10.2-4c-2.2-1.9-3.7-4.2-4.7-6.9
		c-0.6-1.7-0.9-3.4-1.1-5.1c-0.3-2.8,0.1-5.6,1-8.3c1.4-4,3.9-7.1,7.6-9.2c1.9-1.1,3.9-1.7,6-2c0.1,0,0.2,0,0.5,0
		c-0.2-0.1-0.3-0.1-0.4-0.2C103.2,32.2,104.9,32.2,106.6,32.2z"/>
	<path class="st0" d="M171.7,50c0-5.6,0-11.2,0-16.8c0-0.3,0.1-0.3,0.3-0.3c1.2,0,2.5,0,3.7,0c1.6,0,3.2,0,4.9,0
		c2.7,0,5.4,0.3,8.1,1.1c2.5,0.7,4.7,1.9,6.6,3.7c1.8,1.8,3.2,3.8,4,6.2c0.5,1.4,0.8,2.8,0.9,4.2c0.3,2.5,0,5-0.8,7.4
		c-0.7,2.3-1.9,4.3-3.5,6c-2.1,2.3-4.6,3.7-7.5,4.5c-1.4,0.4-2.9,0.6-4.4,0.8c-1.6,0.2-3.2,0.2-4.8,0.2c-2.3,0-4.6,0-7,0
		c-0.6,0-0.6,0-0.6-0.5C171.7,61,171.7,55.5,171.7,50C171.7,50,171.7,50,171.7,50z M174,50C174,50,174,50,174,50c0,5,0,10,0,15.1
		c0,0.3,0,0.3,0.4,0.3c2.4,0,4.8,0,7.3,0c1.3,0,2.7-0.2,4-0.4c1.6-0.3,3.2-0.7,4.6-1.5c3.4-1.8,5.6-4.5,6.9-8.1
		c0.7-1.9,0.9-3.8,0.9-5.7c0-1.8-0.3-3.5-0.9-5.2c-0.7-2-1.8-3.7-3.2-5.2c-1.7-1.8-3.7-3-6.1-3.7c-2.3-0.7-4.7-0.9-7.1-0.9
		c-2.1,0-4.2,0-6.3,0c-0.3,0-0.3,0.1-0.3,0.3C174,39.9,174,45,174,50z"/>
	<path class="st0" d="M20.8,67c-3,0-6,0-9,0c-0.4,0-0.4,0-0.4-0.4c0-11.1,0-22.2,0-33.3c0-0.4,0-0.4,0.4-0.4c6,0,12,0,17.9,0
		c0.5,0,0.5,0,0.5,0.5c0,0.3,0,0.6,0,1c0,0.3,0,0.3-0.4,0.3c-2.1,0-4.2,0-6.3,0c-3.1,0-6.3,0-9.4,0c-0.4,0-0.4,0-0.4,0.4
		c0,4.5,0,9,0,13.5c0,0.3,0.1,0.3,0.3,0.3c1.9,0,3.9,0,5.8,0c2.4,0,4.7,0,7.1,0c0.4,0,0.4,0,0.4,0.4c0,0.4,0,0.7,0,1.1
		c0,0.3-0.1,0.3-0.3,0.3c-1.7,0-3.4,0-5.1,0c-2.6,0-5.2,0-7.8,0c-0.4,0-0.4,0-0.4,0.4c0,4.6,0,9.2,0,13.7c0,0.4,0,0.4,0.4,0.4
		c5.1,0,10.3,0,15.4,0c0.8,0,0.6,0,0.7,0.6c0,0.3,0,0.6,0,0.8c0,0.2-0.1,0.3-0.3,0.3c-0.7,0-1.4,0-2.1,0C25.5,67,23.1,67,20.8,67
		C20.8,67,20.8,67,20.8,67z"/>
	<path class="st0" d="M154.7,67c-0.3,0-0.6,0-0.9,0c-0.3,0-0.4-0.1-0.5-0.3c-0.8-1.7-1.5-3.5-2.3-5.2c-1.1-2.6-2.3-5.1-3.4-7.7
		c-0.1-0.1-0.1-0.2-0.3-0.2c-0.2,0-0.4,0-0.6,0c-4.3,0-8.6,0-12.9,0c-0.3,0-0.4,0.1-0.5,0.3c-0.7,1.6-1.4,3.2-2.1,4.8
		c-0.6,1.4-1.2,2.8-1.9,4.3c-0.5,1.2-1.1,2.4-1.6,3.7c-0.1,0.2-0.2,0.3-0.5,0.3c-0.5,0-1.1,0-1.6,0c-0.3,0-0.3-0.1-0.2-0.3
		c1.4-2.9,2.6-5.8,4-8.6c1.1-2.4,2.2-4.8,3.3-7.2c1.2-2.5,2.3-5.1,3.5-7.6c1.2-2.6,2.4-5.2,3.6-7.8c0.3-0.6,0.5-1.2,0.8-1.8
		c0-0.1,0-0.2,0.1-0.2c0.1,0,0.1,0.1,0.1,0.1c1.1,2.4,2.2,4.8,3.3,7.2c1.5,3.3,3,6.5,4.5,9.8c1.1,2.5,2.3,5,3.4,7.5
		c1.3,2.9,2.6,5.8,4,8.7C156,67,156,67,155.7,67C155.4,67,155,67,154.7,67z M140.4,37.8c-0.1,0.1-0.1,0.2-0.1,0.2
		c-0.8,1.5-1.4,3.1-2.1,4.6c-1.3,3-2.7,6-4,9c-0.2,0.3-0.1,0.3,0.2,0.3c3.9,0,7.9,0,11.8,0c0.4,0,0.4,0,0.2-0.4
		c-0.5-1.1-1-2.3-1.5-3.4c-1.3-2.9-2.5-5.8-3.9-8.6C140.9,39,140.7,38.4,140.4,37.8z"/>
</g>
</svg>
