<?xml version="1.0" encoding="UTF-8"?>
<svg id="Capa_1" xmlns="http://www.w3.org/2000/svg" xmlns:xlink="http://www.w3.org/1999/xlink" version="1.1" viewBox="0 0 250 100">
  <!-- Generator: Adobe Illustrator 29.6.1, SVG Export Plug-In . SVG Version: 2.1.1 Build 9)  -->
  <defs>
    <style>
      .st0 {
        fill: none;
      }

      .st1 {
        mask: url(#mask);
      }

      .st2 {
        isolation: isolate;
        opacity: .3;
      }

      .st3 {
        fill: #777;
      }

      .st4 {
        fill: #fff;
      }

      .st5 {
        clip-path: url(#clippath);
      }
    </style>
    <clipPath id="clippath">
      <rect class="st0" x="27.01" y="18.5" width="195.99" height="63"/>
    </clipPath>
    <mask id="mask" x="27.01" y="18.25" width="195.99" height="63.25" maskUnits="userSpaceOnUse">
      <g id="mask0_3204_99">
        <path class="st4" d="M222.99,18.5H27.01v63h195.99V18.5Z"/>
      </g>
    </mask>
  </defs>
  <g class="st5">
    <g class="st1">
      <g>
        <path class="st2" d="M125.98,18.25l-16.47,16.47,16.47,16.47,16.47-16.47-16.47-16.47ZM124.34,40.18h-2.4v-11.35h2.4v11.35Z"/>
        <path class="st3" d="M35.53,63.79c-.27.62-.52,1.04-.69,1.21-.17.17-.4.3-.67.37-.27.07-.87.1-1.73.1h-1.78c-.3,0-.4-.05-.42-.1,0,0-.05-.12-.07-.74v-2.97c.22,0,.59-.02,1.14-.02h1.56c.27,0,.45.05.57.15.07.07.2.27.35.82.07.27.15.5.22.62v.05h.15s.1,0,.15-.05h.05v-.27s0-.05-.05-.5c0-.3-.05-.54-.05-.79,0-.92,0-1.44.05-1.59v-.35h-.07c-.07-.02-.15-.05-.22-.05h-.05c-.17.07-.27.3-.3.69-.05.45-.1.55-.12.59,0,0-.05.05-.32.1-.74,0-1.39,0-1.93.02h-1.14v-1.54c-.02-.59-.02-.94-.02-.97,0-.69.07-.87.1-.89,0,0,.05-.05.37-.05l2.13-.05h.92c.25,0,.32.02.35.05.02.02.07.05.22.3.17.3.3.55.37.74.07.22.15.37.22.47v.05h.3s.1-.1.1-.17c-.02-.32-.05-.74-.05-1.19s0-.05.02-.22c0-.12.02-.22.02-.32,0-.05-.02-.1-.05-.15,0-.02-.12-.1-.12-.1h-5.8s-.5,0-.5,0c-.27,0-.57,0-.84-.05-.17,0-.27-.02-.4.05h-.02v.05s-.05.12-.05.17,0,.15.15.22h.02c.15.02.3.05.47.05.52,0,.64.1.64.12,0,0,.05.12.05.72l.05,1.96v4.81c0,.12,0,.22-.05.3-.07.02-.27.07-.77.1-.2,0-.32.02-.42.05-.1.02-.1.05-.15.1h-.05v.15c0,.1.05.15.07.2.05.05.12.05.22.05.4,0,.99,0,1.83-.05h3.2s.87-.02.87-.02h2.13v-.05c.12-.12.17-.27.17-.45,0-.32.05-.64.1-.97,0-.1.05-.32.22-.89v-.07l-.05-.05c-.2-.15-.42-.07-.57.27v-.05l-.02.02Z"/>
        <path class="st3" d="M45.17,61.41c-.32-.25-.87-.57-1.59-.94-.94-.5-1.54-.84-1.76-1.09-.22-.22-.32-.47-.32-.74s.15-.67.47-.94c.32-.27.72-.42,1.21-.42s.89.15,1.21.42c.32.27.57.72.72,1.34v.07l.17.02s.1,0,.15-.05h.05v-.07c0-.07.02-.27.05-.52v-.62s0-.25-.02-.55v-.05h-.05c-.27-.22-.55-.37-.79-.45-.35-.1-.77-.17-1.24-.17-.87,0-1.59.22-2.11.69-.52.47-.79,1.04-.79,1.71s.07.69.22.99c.2.35.5.69.89,1.02.25.2.77.5,1.56.92.77.4,1.29.77,1.54,1.04.25.3.37.59.37.94s-.07.52-.25.77c-.17.27-.37.47-.67.62-.3.15-.62.22-.94.22-.57,0-1.07-.2-1.51-.64-.45-.42-.69-.92-.74-1.44,0-.1-.05-.17-.07-.22-.05-.05-.12-.07-.2-.07-.12,0-.17.07-.2.1-.02.05-.05.12-.07.45,0,.32-.05.77-.1,1.31v.2c0,.12.05.22.15.32.05.05.17.15.64.32.57.2,1.19.3,1.83.3s1.31-.12,1.76-.35c.45-.22.82-.57,1.07-1.02.27-.45.4-.94.4-1.44s-.07-.79-.25-1.11c-.17-.32-.42-.62-.74-.87h-.05Z"/>
        <path class="st3" d="M55.45,61.41c-.32-.25-.87-.57-1.59-.94-.94-.5-1.54-.84-1.76-1.09-.22-.22-.32-.47-.32-.74s.15-.67.47-.94.72-.42,1.21-.42.89.15,1.21.42c.32.27.57.72.72,1.34v.07l.17.02s.1,0,.15-.05h.05v-.07c0-.07,0-.22.05-.52v-.62s0-.2-.02-.55v-.05h-.05c-.27-.22-.55-.37-.79-.45-.35-.1-.77-.17-1.24-.17-.87,0-1.59.22-2.11.69-.52.47-.79,1.04-.79,1.71s.07.69.22.99c.2.35.5.69.89,1.02.25.2.74.5,1.56.92.77.4,1.29.77,1.54,1.04.25.3.37.59.37.94s-.07.52-.25.77c-.15.27-.4.47-.67.62-.3.15-.62.22-.94.22-.57,0-1.07-.22-1.51-.64-.45-.42-.69-.92-.74-1.44,0-.1-.05-.17-.07-.22-.05-.05-.12-.07-.17-.07-.12,0-.17.07-.2.1-.05.05-.05.12-.07.45,0,.35-.05.79-.1,1.34v.2c0,.12.05.22.15.32.05.05.17.15.64.32.57.2,1.19.3,1.81.3s1.31-.12,1.76-.35.82-.57,1.07-1.02c.27-.45.4-.94.4-1.44s-.07-.79-.25-1.11c-.17-.32-.42-.62-.74-.87l-.05-.02Z"/>
        <path class="st3" d="M69.25,63.44c-.17,0-.3.2-.37.35-.27.62-.52,1.04-.69,1.21-.17.17-.4.3-.67.37-.27.07-.87.1-1.73.1h-1.76c-.27,0-.37-.05-.42-.1,0,0-.05-.12-.07-.74v-2.97c.22,0,.59-.02,1.14-.02h1.56c.27,0,.45.05.57.15.07.07.2.27.35.82.07.27.15.5.22.62v.05h.15s.07,0,.15-.05h.05v-.27s0-.05-.05-.5c0-.3-.05-.54-.05-.79,0-1.09,0-1.46.05-1.59v-.35h-.07c-.07-.02-.15-.05-.22-.05h-.05c-.17.07-.27.3-.3.69-.05.45-.1.57-.12.59,0,0-.05.05-.35.1-.74,0-1.39,0-1.93.02h-1.14v-.87c0-1.04-.02-1.59-.02-1.66,0-.69.07-.87.1-.89,0,0,.05-.05.37-.05l2.13-.05h.92c.25,0,.32.02.35.05,0,0,.07.07.22.3.17.3.3.55.37.74.1.22.15.4.22.47v.05h.3s.1-.07.12-.17c-.02-.32-.05-.74-.05-1.19s0-.05.02-.22c0-.15.02-.25.02-.35,0-.05-.02-.1-.05-.15,0-.02-.12-.1-.12-.1h-5.8s-.5,0-.5,0c-.27,0-.57,0-.84-.05-.17,0-.27-.02-.4.05h-.02v.05s-.05.12-.05.17,0,.15.15.22h.02c.15.02.3.05.47.05.52,0,.64.1.64.12,0,0,.05.15.07.72v1.96s.02,1.73.02,1.73v3.07c0,.12,0,.22-.05.3-.07.02-.27.07-.77.1-.2,0-.32.02-.42.05-.05,0-.1.05-.15.1h-.05v.15c0,.1.05.15.07.2.05.05.12.05.22.05.4,0,.99,0,1.83-.05h3.2s.87-.02.87-.02h2.16v-.05c.12-.12.17-.27.17-.45,0-.32.05-.67.1-.97,0-.15.1-.42.22-.89v-.07l-.05-.05c-.07-.05-.15-.07-.2-.07l-.07.02Z"/>
        <path class="st3" d="M82.92,56.95c-.45.02-.77.05-.97.05s-.32,0-.5-.05c-.4-.07-.62-.07-.89,0h-.05v.05c-.05.07-.05.15-.07.25v.05c.05.12.1.17.17.2.05,0,.1.02.4.05.17,0,.32.05.37.05.42.07.5.15.52.15,0,0,.07.12.07.82s0,.62.05.99c.02.4.05.62.05.74.02,1.04.05,1.56.05,1.73v1.36s0,.3.02.77v.05c-.15-.17-.3-.32-.42-.47l-1.64-1.83c-.69-.77-1.16-1.29-1.41-1.54-.22-.25-.5-.55-.79-.87l-1.66-1.86-.12-.15c-.17-.2-.35-.4-.54-.57h-.55c-.32.05-.87.05-1.56.05h-.12v.52h.1c.1,0,.27.05.57.07.25.02.47.1.62.22.07.05.12.1.12.15,0,.07.07.4.07,1.51v2.9c.02.77.02,1.26.02,1.56,0,.57,0,1.04-.07,1.34-.05.05-.1.07-.15.1-.12.05-.32.1-.62.12l-.32.05-.27.12v.37h.4c.35-.02.72-.05,1.21-.05s1.21,0,1.64.05c.17,0,.25.02.42,0h.07v-.42h-.05s-.05-.05-.07-.07h-.02c-.45-.1-.87-.15-1.29-.2l-.15-.05v-.47l-.05-2.28c-.05-1.56-.07-2.82-.07-3.69.05,0,.07.05.1.07.05.05.17.17.5.57.42.47.72.84.94,1.07.84.89,1.46,1.59,1.96,2.13h.02s.07.1.12.15c.07.07.22.22.45.47l.59.69c.07.1.22.25.45.47,1.02,1.04,1.51,1.56,1.66,1.73l.05.05.47-.05v-.1c0-.52.02-.84.02-.99,0-.69,0-1.49-.05-2.48l-.05-1.39v-.3l-.05-.99-.07-2.18c0-.1.05-.2.15-.3,0,0,.05-.05.25-.1.1-.02.22-.05.32-.05.15,0,.25-.02.35-.07h.07s.02-.42.02-.42h-.25c-.1,0-.3,0-.52.02l-.02.1Z"/>
        <path class="st3" d="M96.2,56.73v-.05h-.07c-.07,0-.12-.02-.17-.02-.1,0-.22.05-.32.25-.05.1-.2.4-.22.42,0,0-.02.02-.07.02-.07,0-.27,0-.57-.05h-1.26l-2.48.02h-1.61l-.32-.05h-.05c-.1,0-.15-.02-.17-.05,0,0-.07-.07-.15-.22-.15-.25-.25-.35-.4-.35s-.12,0-.2.1c-.05.05-.07.15-.1.32l-.27,1.04c0,.1-.05.3-.17.72-.1.37-.12.47-.12.52s0,.1.05.15v.05h.15c.15,0,.3-.12.47-.4.54-.74.82-.99.97-1.07.07-.05.32-.1,1.14-.1h.99v1.73l.05.55v2.55s.02,1.16.02,1.16c0,.59,0,.97-.05,1.16,0,.07-.02.12-.05.15-.05.05-.17.1-.47.2-.25.07-.5.12-.67.15-.17,0-.27.05-.32.1-.05.05-.07.12-.1.27v.07l.2.07h.4l1.73-.1c.27,0,.69.02,1.21.02h1.09s0-.37,0-.37h-.07c-.07-.05-.15-.07-.25-.1-.15,0-.42-.07-.84-.2-.3-.07-.37-.15-.4-.15,0-.02-.05-.1-.05-.27v-1.44c0-.45.02-.79.02-.97l-.05-4.29v-.4h1.07c.64,0,1.04,0,1.21.07.15.05.27.12.35.2.12.17.22.45.32.84.05.25.1.32.12.37.05.07.15.1.17.1s.12,0,.2-.07h.02v-.05s.05-.12.05-.17c0-.74.05-1.21.05-1.36v-.84c0-.07,0-.17-.05-.27h.05Z"/>
        <path class="st3" d="M102.54,56.97l-1.83-.05h-.69v.12c0,.1,0,.22.12.3.05.05.15.07.69.12.32.02.59.07.74.15,0,.05.05.07.05.1.02.32.05.62.05.92v4.91c0,1.44-.1,1.66-.12,1.68-.02.02-.2.15-1.11.22-.12,0-.22.05-.35.07h-.07s.02.42.02.42h4.43v-.4c-.1-.07-.27-.12-.57-.15-.12,0-.27-.02-.47-.07-.15-.05-.22-.07-.25-.12-.05-.05-.07-.12-.1-.25,0-.15-.05-.47-.05-.97v-5.95c0-.25.05-.37.07-.42,0-.02.02-.05.07-.07.05,0,.22-.07.77-.15.22-.02.37-.05.47-.07h.07v-.45h-.12c-.77.02-1.41.05-1.88.05l.05.05Z"/>
        <path class="st3" d="M117.85,65.55h-.05c-.1-.07-.25-.12-.45-.17-.05,0-.17-.05-.32-.07-.17-.05-.22-.05-.22-.05-.05-.02-.12-.12-.22-.35-.1-.2-.27-.69-.57-1.61l-1.61-4.36c-.22-.54-.35-.89-.4-1.07-.15-.45-.32-.87-.52-1.26v-.05h-.62v.1c-.15.42-.25.77-.35,1.02-.42,1.09-.62,1.68-.72,1.96l-.64,1.81c-.12.32-.22.59-.32.87-.05.1-.12.35-.27.74-.3.84-.57,1.51-.79,1.98-.1.2-.22.32-.37.4,0,0-.1.05-.59.07h-.3c-.07,0-.15,0-.22.07h-.05v.05c0,.07-.02.12-.02.17v.15h.1c.17,0,.32.02.42.02h1.31c.5,0,.92.02,1.29.02h.55v-.07s.05-.1.05-.15c0-.07-.05-.12-.12-.2h-.02l-.97-.1c-.12,0-.22-.05-.32-.05-.02-.07-.02-.1-.02-.1,0-.02.05-.2.37-1.16l.59-1.91s.05-.15.07-.22c.15,0,.32-.02.45-.02h1.91c.12,0,.25,0,.42.02.42,1.11.64,1.78.69,1.98.05.2.15.42.22.67.15.45.17.57.17.59v.1c-.07.02-.2.05-.35.05l-.72.05s-.12.02-.2.05h-.05v.05c-.02.07-.05.15-.05.22v.07h.05s.12.07.2.1h3.62v-.07s.05-.1.05-.12,0-.1-.02-.15v-.05l-.05-.02ZM114.04,61.41h-.79c-.57,0-1.11,0-1.56-.05,0-.02,0-.07.02-.1,0-.07.05-.2.12-.35.07-.17.12-.35.2-.54.12-.4.32-.94.62-1.66.07-.17.15-.35.2-.5l.59,1.49c.02.07.2.52.5,1.31.05.12.07.22.12.37l-.02.02Z"/>
        <path class="st3" d="M129.2,63.51c-.17.42-.27.62-.32.69-.05.07-.1.15-.12.17-.1.17-.25.32-.42.5-.3.25-.52.4-.64.45-.07.02-.25.07-.62.07l-1.19.05h-1.44v-7.36c0-.37.07-.45.1-.45,0,0,.12-.05.69-.07.57,0,.69-.02.74-.05h.07v-.07c.02-.1.05-.2.05-.3v-.12h-.89l-.54.05h-.84l-1.66-.05h-.52v.45h.1c.64.12.99.2,1.07.22.05,0,.15.05.22.07,0,.05.02.1.02.12v5.08l-.05,1.81c0,.5-.05.59-.05.59,0,.02-.1.1-.35.1-.35.02-.69.1-1.07.2h-.05v.05c-.05.07-.07.15-.07.22v.12h1.26c.42-.05,1.73-.05,3.91-.05l2.68.07v-.1c0-.07.02-.17.05-.25.05-.42.12-.94.27-1.61.02-.15.05-.3.1-.47v-.12h-.42v.07h-.03l-.05-.1Z"/>
        <path class="st3" d="M146.37,57.15c-.45-.22-1.04-.32-1.76-.32s-.77,0-1.09.05l-1.17.07c-.32,0-.52.02-.64.02h-.37c-.35,0-.62-.02-.77-.02h-.22l-.03.05c-.03.07-.05.12-.05.17s0,.1.05.17v.05h.07c.82.12,1.11.25,1.21.35.05.05.12.15.12.55v.12c0,.89,0,1.73.03,2.53.05,1.83.07,2.92.07,3.47s0,.3,0,.4v.27c0,.22-.03.3-.05.32,0,0-.05.05-.2.07l-.99.2v.4h1.24l1.21-.02c.22,0,.52,0,.92.05.2,0,.35.05.4.05.12,0,.2,0,.22-.05.05-.05.1-.1.12-.2v-.1c-.05-.07-.1-.12-.15-.15,0,0-.1-.02-.42-.1-.42-.1-.74-.17-.89-.2,0-.1-.05-.22-.05-.42v-.59l-.1-3.15v-.4c0-.15-.05-.59-.05-1.73s0-.45,0-.57v-.97c.07-.02.3-.07.92-.07s.42.05.74.12c.32.07.55.17.69.27.27.2.5.45.64.77.17.32.25.64.25.99s-.07.69-.25.99c-.15.32-.4.55-.69.72-.3.17-.62.25-.97.25s-.42,0-.54-.07c-.07-.02-.15-.05-.25-.05h-.05c-.08.02-.1.07-.15.12v.1c0,.1.1.17.2.25.22.15.42.25.6.3.17.05.37.07.62.07.89,0,1.61-.27,2.13-.82.52-.55.79-1.19.79-1.93s-.12-.89-.37-1.36c-.25-.45-.59-.79-1.04-1.02h.05Z"/>
        <path class="st3" d="M159.99,65.55h-.05c-.1-.07-.25-.12-.45-.17-.05,0-.17-.05-.32-.07-.17-.05-.22-.05-.22-.05-.05-.02-.12-.12-.22-.35-.1-.2-.27-.74-.57-1.61l-1.61-4.36c-.22-.54-.35-.89-.4-1.07-.15-.45-.32-.87-.52-1.26v-.05h-.62v.1c-.12.42-.25.77-.35,1.02-.4,1.02-.62,1.68-.72,1.96l-.64,1.81c-.1.3-.22.57-.32.87-.02.1-.12.35-.27.74-.3.84-.57,1.51-.79,1.98-.1.2-.22.32-.37.42,0,0-.1.05-.59.07h-.27c-.07,0-.15,0-.22.07h-.05v.05c0,.07-.03.12-.03.17v.15h.1c.17,0,.32.02.42.02h1.31c.5,0,.92.02,1.29.02h.54v-.07s.05-.1.05-.15c0-.07-.07-.15-.12-.2h-.03l-.97-.1c-.12,0-.22-.05-.32-.05-.03-.07-.03-.1-.03-.1,0-.02.05-.2.37-1.16l.62-1.91s.05-.12.07-.22c.15,0,.3-.02.45-.02h1.91c.12,0,.27,0,.42.02.5,1.36.67,1.83.72,1.98.05.2.12.4.22.67.15.45.17.57.17.59v.1c-.07,0-.17.05-.35.05l-.72.05c-.05,0-.12.02-.2.05h-.05v.05c-.03.07-.05.15-.05.22v.07h.05c.05.05.12.07.2.1h3.59v-.07s.05-.1.05-.15,0-.1-.02-.15v-.05l-.1-.02ZM156.18,61.41h-.79c-.57,0-1.11,0-1.56-.05,0-.05,0-.07.02-.1,0-.07.05-.2.12-.35.07-.17.12-.35.17-.54.15-.42.35-.97.64-1.66.07-.17.15-.35.2-.5l.59,1.49s.12.32.5,1.31c.05.12.07.22.12.37l-.02.02Z"/>
        <path class="st3" d="M172.7,65.57h-.07c-.45-.1-.74-.17-.94-.27-.17-.1-.32-.2-.45-.32-.12-.15-.37-.47-.72-1.02l-.87-1.51c-.25-.42-.45-.79-.62-1.09.07-.05.15-.1.27-.15.92-.47,1.39-1.16,1.39-2.03s-.12-.89-.4-1.26c-.25-.37-.59-.64-1.04-.82-.42-.15-1.16-.22-2.18-.22h-2.85c-.2,0-.32.05-.4.1h-.03v.05s-.02.1-.02.15c0,.12.05.17.1.2.02,0,.07.05.62.12.42.05.54.15.57.2.02.05.1.22.1.89v5.33c-.02.64-.05,1.11-.05,1.26v.05c-.05.1-.1.12-.1.12-.05,0-.27.05-1.12.15h-.05c-.1.1-.12.17-.12.27v.15s.27.05.27.05h3.54c.4,0,.15,0,.27-.05h.1v-.1c0-.1,0-.2-.07-.25,0-.02-.32-.12-.32-.12-.54-.12-.69-.2-.74-.22-.07-.05-.12-.1-.12-.15-.02-.15-.05-.25-.05-.35v-3.15h.67c.12,0,.22,0,.3.05.05.02.15.1.3.32l1.02,1.86c.45.77.82,1.44,1.14,2.06v.05h2.65v-.42l.03.07ZM166.58,57.96v-.45h.37c.49,0,.92.07,1.24.25.35.17.6.37.72.62.2.32.27.64.27.94s-.07.52-.17.77c-.12.25-.27.42-.42.57-.17.12-.42.22-.69.27-.42.07-.79.12-1.12.12h-.17v-1.81l-.02-1.29Z"/>
        <path class="st3" d="M183.58,57.17s0-.1-.05-.17c0-.02-.02-.05-.02-.05-.07-.05-.17-.1-.3-.1l-2.58.1h-1.98s-1.02.02-1.02.02h-1.12c-.07,0-.17,0-.25.07h-.02v.05s-.03.07-.03.12,0,.15.12.22c.05.02.15.07.57.15.37.07.47.15.49.15.03.02.08.1.08.3v6.24c0,.5,0,.84-.05,1.04-.05.05-.1.07-.15.1-.05,0-.17.05-.47.1-.25.05-.42.1-.54.15h-.05v.35l.25.05c.35,0,.67,0,.94-.05.4-.05.77-.1,1.09-.1.64,0,1.16.05,1.54.12h.05c.07,0,.12-.05.15-.1.02-.05.05-.1.05-.15,0-.12-.07-.22-.27-.3-.22-.1-.5-.17-.74-.2-.25,0-.37-.07-.45-.12,0-.07-.02-.12-.02-.17v-3.47h1.39c1.19,0,1.54,0,1.61.05.02,0,.07.05.1.1.15.25.25.59.32,1.04v.07l.2.02s.12,0,.22-.05h.07s-.07-2.65-.07-2.65c0-.2,0-.37-.05-.5v-.05h-.07c-.15-.07-.2-.05-.32,0h-.05s-.1.64-.1.64c-.12.42-.15.5-.15.52-.05.07-.15.15-.25.17-.12.05-.42.1-1.07.1h-1.78c0-.15-.02-.27-.02-.42v-2.77c0-.15.05-.17.07-.2.12-.05.3-.1.5-.1h1.88c.65,0,1.09.05,1.34.15.1.05.17.12.22.25.12.3.2.55.2.72,0,.15.05.27.1.35.07.1.25.1.42.02h.05v-.32l-.07-1.24v-.3h.02l.07.02Z"/>
        <path class="st3" d="M195.59,56.95s-.2,0-.49-.02c-.42-.02-.74-.02-1.14,0h-.1v.12c0,.07.02.15.05.22v.05h.07c.49.1.82.2.97.32.07.05.12.12.15.22.02.07.07.32.1,1.14l.1,1.98v1.56c0,.79-.1,1.39-.25,1.76-.17.37-.45.67-.84.89-.4.22-.99.32-1.73.32s-.69-.05-1.04-.2c-.35-.12-.62-.27-.79-.45-.17-.17-.3-.42-.37-.69-.07-.3-.12-1.07-.12-2.3v-3.39l.05-.77s.05-.1.1-.12c.1-.07.25-.1.45-.1s.1,0,.17,0h.17c.1,0,.2,0,.32-.05h.05v-.07c0-.07.02-.12.02-.15s0-.12-.05-.22v-.07h-3.64c-.1,0-.17.02-.25.1-.03.02-.07.1-.07.17s0,.1.02.15c0,.02.02.05.02.05.1.07.32.12.64.12h.4c.05,0,.1,0,.12.05.05.05.1.2.1.5v5c0,.67.08,1.19.25,1.54.12.27.35.55.69.82.32.27.77.5,1.29.64.3.1.77.15,1.46.15s.87-.07,1.31-.22c.45-.15.79-.32,1.07-.55.27-.22.47-.47.62-.77.15-.27.25-.64.32-1.11.05-.35.07-.97.07-1.86v-1.29l-.05-1.44c0-.47-.03-.79-.03-.92,0-.22.05-.4.12-.47.05-.05.22-.15.94-.22h.1v-.47h-1.41l.05.05Z"/>
        <path class="st3" d="M212.51,65.6c-.54-.07-.94-.17-1.19-.25-.17-.07-.22-.12-.22-.12,0,0-.05-.1-.05-.55v-2.23c-.02-1.68-.05-2.8-.05-3.47v-.64c.02-.5.05-.59.07-.59,0,0,.02-.05.15-.1.05,0,.22-.05.74-.1.22,0,.42-.05.57-.15h.05v-.45h-2.23c-.25-.02-.35-.05-.57.05h-.05v.05c-.05.1-.2.52-.47,1.26-.07.2-.15.42-.25.64l-.25.59c-.12.27-.17.45-.2.5-.02.1-.07.17-.1.25-.02.07-.07.15-.1.22-.32.92-.79,1.98-1.36,3.15l-2.68-5.9-.3-.64s-.07-.1-.12-.15h-.05c-.1-.05-.2-.07-.3-.07h-.37c-.3,0-.52.02-.64.02-.37,0-.69,0-.92-.05-.12,0-.22-.02-.25-.02s-.12,0-.22.05h-.05v.05c-.05.07-.07.12-.07.17s.02.12.1.22v.05h.07c.64.07,1.14.15,1.49.2v.07c0,.3-.05,1.09-.12,2.3-.1,1.76-.17,3-.2,3.91-.05.92-.1,1.24-.15,1.34,0,0-.02.05-.05.05,0,0-.07.05-.47.05-.4.05-.67.12-.82.22h-.05v.4h.89c.35,0,.57-.02.72-.02l2.21.07v-.07c.07-.07.07-.12.07-.17s0-.12-.05-.2v-.05h-.07c-.17-.02-.35-.05-.54-.05-.6,0-.77-.07-.82-.1-.1-.05-.12-.15-.15-.27-.07-.54-.1-1.04-.1-1.46,0-1.36.02-2.65.1-3.82.02-.62.05-1.07.07-1.36.3.57.74,1.51,1.34,2.82.72,1.59,1.34,3.15,1.86,4.66v.07h.35v-.07c.07-.1.12-.25.2-.42.15-.4.32-.87.52-1.36l.47-1.14.37-.92,1.01-2.43.12-.3c.1-.25.2-.47.27-.62v5.47c0,.57,0,.87-.02.99-.12.07-.32.15-.54.2-.27,0-.5.07-.64.15h-.05v.4h.05s.1.07.15.07h.37c.3,0,.94-.02,1.88-.02s.2,0,.5,0h1.31v-.25c0-.07-.02-.15-.1-.17h-.05l-.02.02Z"/>
        <path class="st3" d="M222.2,62.3c-.17-.32-.42-.62-.74-.87-.32-.25-.87-.57-1.58-.94-.94-.5-1.54-.84-1.76-1.09-.22-.22-.32-.47-.32-.74s.15-.67.47-.94c.32-.27.72-.42,1.21-.42s.87.15,1.21.42c.32.27.57.72.72,1.34v.07l.17.02s.1,0,.15-.05h.05v-.07c0-.07.02-.27.05-.52v-.62s0-.25-.03-.54v-.05h-.05c-.27-.22-.54-.37-.79-.45-.35-.1-.77-.17-1.24-.17-.87,0-1.59.22-2.11.69-.52.47-.79,1.04-.79,1.71s.07.69.22.99c.2.35.49.69.89,1.02.25.2.77.5,1.56.92.77.4,1.29.77,1.54,1.04.25.3.37.59.37.94s-.07.52-.25.77c-.17.27-.37.47-.67.62-.3.15-.62.22-.94.22-.57,0-1.07-.2-1.51-.64-.45-.42-.69-.92-.74-1.44,0-.1-.02-.17-.07-.22-.05-.05-.12-.07-.17-.07-.12,0-.17.05-.2.1-.02.05-.05.12-.07.45,0,.35-.05.79-.1,1.31v.2c0,.12.05.22.15.32.05.05.17.15.64.32.59.2,1.19.3,1.83.3s1.31-.12,1.76-.35c.45-.22.82-.57,1.07-1.02.27-.45.4-.94.4-1.44s-.08-.79-.25-1.11h-.07Z"/>
        <path class="st3" d="M112.8,75.21c-.22-.2-.5-.32-.82-.42-.32-.1-.67-.15-1.04-.15h-2.58v6.79h.94v-2.33h1.51c.37,0,.69-.05,1.02-.15.32-.1.62-.22.87-.42.25-.2.45-.42.59-.72.15-.27.22-.62.22-.99s-.05-.64-.17-.92c-.12-.27-.3-.52-.52-.69h-.02ZM110.84,78.2h-1.54v-2.73h1.59c.52,0,.94.12,1.24.35.3.22.45.55.45,1.02s-.05.4-.12.57c-.07.17-.2.32-.35.42-.15.12-.32.22-.54.27-.22.07-.45.1-.72.1Z"/>
        <path class="st3" d="M118.72,74.56h-.82l-3.1,6.84h.97l.79-1.73h3.47l.77,1.73h1.02l-3.07-6.79v-.05h-.02ZM119.66,78.82h-2.73l1.36-3.05,1.36,3.05Z"/>
        <path class="st3" d="M128.58,78.48c.22-.12.42-.25.6-.42.17-.17.3-.37.4-.59.1-.22.15-.5.15-.77s-.05-.59-.17-.84c-.12-.25-.3-.47-.52-.64-.22-.17-.47-.32-.79-.42-.3-.1-.64-.15-1.02-.15h-2.92v6.79h.94v-2.58h1.76l1.88,2.53v.05h1.17l-2.06-2.73c.22-.05.42-.12.6-.2v-.02ZM125.24,75.48h1.96c.52,0,.92.1,1.19.32.27.22.42.52.42.89s-.02.37-.12.55c-.07.15-.2.3-.32.4-.15.1-.32.2-.52.25-.2.05-.42.1-.64.1h-1.93v-2.5h-.02Z"/>
        <path class="st3" d="M133.54,74.61h-.94v6.79h.94v-6.79Z"/>
        <path class="st3" d="M140.84,78.25c-.35-.3-.92-.52-1.66-.69-.37-.07-.67-.15-.89-.22-.22-.07-.4-.17-.52-.27-.12-.1-.2-.2-.25-.3-.05-.12-.07-.25-.07-.4s.03-.27.1-.4c.05-.12.15-.22.25-.32.1-.1.25-.15.42-.22.17-.05.35-.07.54-.07.32,0,.64.05.94.17.3.1.6.3.89.52l.08.05.54-.72-.07-.05c-.35-.27-.69-.47-1.07-.62-.37-.15-.82-.2-1.31-.2s-.62.05-.89.15c-.27.1-.52.22-.72.4-.2.17-.37.37-.47.59-.1.22-.17.5-.17.77s.05.55.15.77c.1.22.25.4.42.57.2.15.42.3.72.4.27.1.62.2.99.3.35.07.62.15.84.22.22.07.37.17.5.25.12.1.2.2.22.3.05.12.07.25.07.4,0,.32-.12.57-.37.74-.25.2-.59.3-1.01.3s-.84-.07-1.19-.22c-.35-.15-.69-.37-1.01-.69l-.07-.07-.59.69.07.05c.4.37.84.64,1.29.82.45.17.94.27,1.49.27s.64-.05.94-.15c.3-.1.54-.22.74-.4.2-.17.37-.37.5-.62.12-.25.17-.52.17-.82,0-.55-.2-.97-.55-1.26h.03Z"/>
        <path d="M129.84,28.11h-7.88v.72h7.88v-.72Z"/>
        <path d="M129.84,40.18h-7.88v.72h7.88v-.72Z"/>
        <path d="M127.42,34.16h-5.48v.72h5.48v-.72Z"/>
      </g>
    </g>
  </g>
</svg>