<?xml version="1.0" encoding="utf-8"?>
<!-- Generator: $$$/GeneralStr/196=Adobe Illustrator 27.6.0, SVG Export Plug-In . SVG Version: 6.00 Build 0)  -->
<svg version="1.1" id="Capa_1" xmlns="http://www.w3.org/2000/svg" xmlns:xlink="http://www.w3.org/1999/xlink" x="0px" y="0px"
	 viewBox="0 0 250 100" style="enable-background:new 0 0 250 100;" xml:space="preserve">
<style type="text/css">
	.st0{fill:#777777;}
</style>
<path class="st0" d="M156.5,41.8c-0.4,0.5-0.5,1.4-1,2.2c-0.7,1.1-1.7,2.5-2.3,2.5c-0.3,0-0.4-0.6-0.4-0.6s-0.4-1.1,0.2-2.4
	c0.4-1,0.7-1.2,1.2-1.9c0.5-0.7,0.8-1,1.2-1.7c0.3-0.6,0.4-0.8,0.6-1.7c0-0.2,0-0.8-0.3-0.7c-0.3,0-1.2,1.9-2.1,3
	c-0.9,1-2.5,2.3-2.5,2.3s-0.2,0.1-0.2-0.2c0-0.3-0.1-1.1,0.1-1.9c0.2-0.8,0.4-1.5,1.1-2.7c0.8-1.3,1.7-2.2,2.2-2.7
	c0.2-0.2,0.8-0.6,0.5-0.8c-0.3-0.2-1.1,0.6-1.7,1c-0.8,0.6-1.1,0.8-1.9,1.7c-0.8,1-1,1.4-1,1.4s-0.8,1.2-1,2.4
	c-0.2,1.2-0.2,1.9-0.2,1.9s0,1.1,0.1,1.7c0.1,0.7,0.4,1.7,0.4,1.7s0.4,1.2,0.6,1.9c0.2,0.7,0.4,2.8,0.4,2.8s0.2,1.5,0.1,2.9
	c-0.1,1.4-0.2,2.3-0.4,2.7c-0.2,0.4-0.6,1.6-1.3,2.4c-0.7,0.8-0.8,0.9-0.8,0.9s-0.7,0.6-1.3,0.9s-1.5,0.7-1.9,0.8
	c-0.4,0.1-1,0.1-1,0.1h-0.5l-0.2-0.1l-0.1-0.3c0,0-0.4-1.6-0.9-2.5c-0.4-0.8-1.2-2-1.2-2s-1.4-1.9-2.5-3c-1.3-1.3-2.7-2.2-3.6-2.9
	c-0.3-0.2-1-0.7-1-0.7s-2.9-2.9-3.9-5.2c-0.7-1.6-1.2-2.7-1-4.5c0-0.4,0.2-1.2,0.3-1.2l0.5,0.2c0,0,0.5,0.5,1,0.6
	c0.2,0.1,0.7,0.2,0.7,0.2s0.4,0,0.6,0.1c0.2,0.1,0.6,0.2,0.8,0.3s0.6,0.4,0.6,0.4l0.7,0.5l0.7,0.6c0,0,0.4,0.3,0.5,0.3
	c0.1,0,0.2,0.1,0.2,0.1h0.2c0,0,0.2,0,0.2-0.2c0-0.2-0.2,0-0.6-0.4c-0.4-0.4-0.6-0.7-0.6-0.7s-0.1-0.3-0.4-0.7
	c-0.3-0.4-0.7-0.7-0.7-0.7s-0.3-0.2-0.7-0.3c-0.4-0.1-0.5-0.1-0.6-0.3c0-0.2,0.5-0.1,0.5-0.1s0.6,0.1,1.1,0.3
	c0.5,0.2,0.8,0.5,0.8,0.5l0.3,0.3l0.2,0.2l0.2,0.1c0,0,0.2,0.2,0.2-0.1c0-0.2,0-0.4-0.1-0.5l-0.2-0.2l-0.8-0.7
	c-0.2-0.2-0.4-0.4-0.6-0.6c-0.2-0.2-0.6-0.4-1-0.6c-0.4-0.2-0.6-0.1-1-0.3c-0.3-0.1-0.5-0.2-0.7-0.4c0,0-0.2-0.2,0.1-0.1
	c0.4,0.1,0.6,0.2,1,0.3c0.6,0.2,1,0.2,1.6,0.4c0.2,0.1,0.6,0.2,0.6,0.2l0.8,0.3c0,0,1,0.6,1.7,0.6s1.3-0.1,1.6-0.2
	c0.2-0.1,0.7-0.4,0.8-0.5c0.1-0.1,0.2-0.2,0.2-0.2l0.1-0.2v-0.2c-0.2-0.2-0.6,0.4-1.2,0.5c-0.7,0.1-0.6,0.2-1.1,0.1
	c-0.5-0.1-0.8-0.2-1.1-0.6c-0.6-0.6-0.9-1.2-1.7-1.5c-0.4-0.2-1-0.3-1-0.3s-0.9-0.3-1.4-0.6c-0.4-0.2-1.1-0.3-0.9-0.6
	c0.1-0.2,1.1,0.4,1.8,0.5c0.5,0.1,0.9,0,1.3,0s1-0.1,1-0.1c0.1,0,0.4,0,0.7,0.1s0.4,0.2,0.7,0.3c0.3,0.1,0.6,0.3,0.7,0.3l0.2,0
	l0.1-0.1l0-0.1l0-0.1l-0.1-0.1l-0.2-0.2c0,0-0.4-0.2-0.7-0.5s-0.6-0.7-1.1-0.8c-0.5-0.2-1-0.2-1-0.2l-0.6,0l-0.2,0
	c0,0-0.4-0.1-0.1-0.2c0.3-0.1,0.5-0.1,0.6-0.1c0,0,0.6-0.1,0.9,0s0.8,0.4,0.9,0.4c0,0,0.5,0.4,1,0.5c0.5,0.1,1.2,0.2,1.2,0.2
	l0.3-0.1l0.2,0l0.1-0.1l0-0.2c0,0,0-0.2-0.2-0.2c-0.2,0-0.7-0.1-1.2-0.4c-0.4-0.3-0.8-0.6-0.8-0.6s-0.3-0.3-1-0.4
	c-0.6-0.2-0.8-0.2-0.8-0.2l-0.2-0.1l-0.4-0.2c0,0-0.2-0.1-0.4-0.3s-0.4-0.6,0.3-0.4c0.7,0.2,0.8,0.3,0.8,0.3s0.4,0.4,0.7,0.4
	c0.2,0,0.4,0.1,0.5-0.1c0.2-0.2-0.4-0.4-0.8-0.7c-0.3-0.2-0.6-0.7-0.6-0.7s-0.2-0.2,0.1-0.1c0.4,0.1,1,0.5,1,0.5s0.3,0.2,0.5,0.2
	c0.1,0,0.4,0.2,0.6,0.3c0.1,0,0.5,0.1,0.7,0.2c0.3,0.2,0.5,0.5,0.6,0.6c0.2,0.1,0.3,0.3,0.5,0.4c0.2,0,0.2,0.1,0.4,0
	c0.1-0.1,0.2-0.1,0.2-0.1s0-0.1-0.2-0.2c-0.2-0.1-0.4-0.4-0.4-0.4l-0.1-0.2l0-0.2l-0.2-0.3l-0.4-0.5c0,0-0.6-0.8-1.1-1
	c-0.5-0.3-0.8-0.4-0.8-0.4s-0.2-0.1-0.4-0.2c-0.2-0.2-0.3-0.3-0.4-0.5c-0.2-0.2-0.3-0.4-0.5-0.6c-0.4-0.4-1.8-0.7-1.3-1
	c0.3-0.2,0.6-0.1,0.8,0c0.2,0,0.5,0.2,0.9,0.3c0.2,0.1,0.4,0.1,0.6,0.2c0.2,0.1,0.5,0.1,0.6,0.2s0.2,0.2,0.3,0.3
	c0,0,0.4,0.6,0.9,0.8c0.6,0.3,0.8,0.5,1.4,0.5c0.4,0,1.2-0.1,1.2-0.1s0.2-0.1,0-0.3c-0.2-0.2-0.2-0.2-0.4-0.3
	c-0.6-0.2-1.2-0.2-1.6-0.6c-0.2-0.2-0.3-0.2-0.4-0.6c-0.2-0.3-0.1-0.4-0.2-0.6c-0.1-0.2-0.3-0.5-0.3-0.5s-0.6-0.7-1.2-1.1
	c-0.7-0.4-1.2-0.7-1.2-0.8c-0.1-0.1-0.4-0.4-0.4-0.4l-0.2-0.3l-0.1-0.2c-0.1-0.4,0.7,0.1,1.2,0.3c0.7,0.2,1.1,0.6,1.8,0.8
	c0.4,0.1,0.6,0.1,1,0.3c0.7,0.3,0.9,1,1.6,1c0.4,0,1.2,0.2,1-0.2c-0.2-0.4-1-0.4-1.4-0.9c-0.2-0.2-0.2-0.4-0.4-0.6
	c-0.3-0.4-1.1-0.8-1.1-0.8s-0.2-0.2-0.5-0.8c-0.2-0.6-0.8-1-1.9-1.5c-0.7-0.4-2.1-0.4-1.6-0.8c0.3-0.2,0.6-0.2,1-0.1
	c0.4,0.2,0.6,0.4,1,0.5c0.4,0.2,0.5,0.2,0.6,0.2c0.1,0,0.4,0.2,0.5,0.2c0.1,0,0.7,0.1,0.8,0.2l0.8,0.2l0.6,0.2c0,0,0.3,0.1,0.5,0.1
	s0.5-0.1,0.5-0.1l0.2-0.2l0-0.1c0,0,0.1-0.2-0.2-0.2c-0.3,0-0.4,0-0.5,0l-0.3-0.1l-0.1,0c0,0-0.6-0.4-1-0.6
	c-0.5-0.2-0.6-0.2-0.6-0.2l-0.2,0l-0.2,0c0,0-0.2,0-0.5-0.3c-0.3-0.3-0.4-0.4-0.7-0.7l-0.4-0.4c0,0-0.3-0.2-0.3-0.4
	c0-0.3,0.7,0.4,0.7,0.4l0.5,0.3c0,0,0.4,0.3,1.1,0.3s1.6-0.2,1.6-0.2s0.1-0.1,0.5,0c0.4,0.1,0.7,0.4,0.7,0.4l0.3,0.3l0.5,0.5l0.1,0
	c0,0,0.2-0.2-0.1-0.7c-0.4-0.4-1-0.8-1-0.8s-0.8-0.5-1.6-0.6c-0.8-0.2-1.2-0.2-1.2-0.2s-0.6,0-1-0.4c-0.4-0.4-0.6-0.8-0.6-0.8
	l-0.1-0.6c0,0-0.2-0.2-0.6-0.4c-0.4-0.2-0.8-0.4-0.8-0.4s-0.6-0.2-0.6-0.5c-0.1-0.5,1,0,1.6,0.1c0.6,0.1,0.8,0.3,1.4,0.4
	c0.5,0.1,0.8,0.2,1.3,0.1c0.3,0,0.4,0,0.7-0.1c0.3,0,0.5,0,0.8,0c0.4,0.1,0.6,0.3,1,0.4c0.2,0.1,0.4,0.2,0.6,0.3
	c0.2,0,0.7,0.2,0.6,0l-0.1-0.2c-0.2-0.3-0.4-0.3-0.7-0.5c-0.5-0.4-0.8-0.7-1.4-1c-0.4-0.2-0.6-0.3-1.1-0.4c-0.3,0-0.6,0-0.9,0
	c-0.4-0.1-0.5-0.3-0.8-0.5c-0.6-0.3-0.9-0.6-1.5-0.8c-0.4-0.2-1.1-0.3-1.1-0.3l-0.3,0l-0.1,0c-0.6-0.2,1-0.6,1.7-0.8
	c0.4-0.1,0.5-0.2,0.9-0.1c0.3,0,0.7,0.5,1,0.3c0.5-0.3-0.6-1-1-1.2c-0.5-0.2-1.3,0-1.3,0l-1.8,0l-0.5-0.1c0,0-0.3,0-0.6-0.3
	c-0.2-0.3-1.2-1.4-2.2-1.6c-1.1-0.2-1.4,0-1.5-0.1c-0.9-1.4-1.9-1.7-2.6-2.4c-0.2-0.2-0.5-0.6-0.6-0.6s-0.2,0.6-0.4,1.2
	c-0.2,0.6-0.1,0.9,0,1.1c0.2,0.2,0.4,0.4,0,0.6c-0.4,0.2-0.9,0.2-0.9,0.2s-0.4-0.1-0.8-0.3c-0.4-0.2-1.1-0.5-1.1-0.5
	s-0.7-0.2-1.2-0.2s-0.5,0.1-0.9,0.1c-0.2,0-0.3,0-0.5,0c-0.2,0-0.4-0.1-0.4,0.1c0,0.2,0.4,0.2,0.7,0.3s0.9,0.1,0.8,0.3
	c-0.2,0.2-0.8,0.2-0.8,0.2c0,0-0.4-0.1-0.8-0.1c-0.5,0-0.6,0-1.3,0.4c-0.1,0-0.1,0.3,0.2,0.2c0.3-0.1,0.7-0.2,1.1-0.2
	c0.5,0,0.8,0.2,1.2,0.3c0.4,0.1,0.4,0.2,1,0.3c0.1,0,0.4-0.1,0.4,0.1c0,0.1-0.2,0.2-0.2,0.2s-0.4,0.1-0.3,0.2c0.1,0.2,0.4,0,0.6,0
	s0.4,0,0.4,0.2l-0.1,0.1c-0.4,0.1-0.7,0.2-1.1,0.4c-1,0.4-1.4,0.9-2.3,1.4c-0.9,0.4-2.4,1-2.4,1s-0.4,0.2-1.1,0.4
	c-0.6,0.2-0.7,0.1-1.1,0.2c-0.4,0-0.6,0.1-1,0.3c-0.2,0.1-0.4,0.2-0.6,0.4l-0.6,0.8l-0.3,0.5c-0.1,0.2-0.2,0.2-0.2,0.4
	c-0.1,0.2-0.1,0.3-0.2,0.5c-0.1,0.5,0,0.8,0.1,1.2c0,0.1,0,0.2,0.1,0.3c0,0.1,0.2,0.2,0.2,0.2l0.2,0c0,0,0.6,0,0.9-0.1
	s0.9-0.2,0.9-0.2l0.7-0.2l0.4-0.2c0,0,0.3,0,0.3,0.2c0,0.1-0.1,0.3-0.1,0.3s-0.2,0.1-0.4,0.2c-0.2,0.1-0.7,0.2-0.7,0.2l-0.5,0.2
	l-0.4,0c0,0-0.1,0-0.2,0.2s-0.1,0.1-0.1,0.2c0.1,0.1,0.1,0.2,0.2,0.2c0.2,0.1,0.2,0.2,0.4,0.2c0.3,0.1,0.4,0.1,0.7,0.1
	c0.4,0,0.6-0.1,1-0.2c0.3-0.2,0.4-0.2,0.9-0.4c0.1,0,0.4-0.1,0.4-0.1c0.8-0.1,1.2,0,1.9,0.2c0.8,0.1,1.1,0.4,1.9,0.5
	c0.8,0.1,1.3,0.4,2.1,0.2c0.4-0.1,0.6-0.3,0.8,0.1c0.2,0.4,0.2,0.6,0.2,0.6s0,0.2-0.3,1c-0.3,0.8-1.2,2.6-1.2,2.6l-0.6,1.2
	c0,0-0.5,1-1.6,2.2c-1.1,1.2-1.2,1.3-1.2,1.3s-0.6,0.4-1.2,1.2c-0.6,0.8-0.6,1-1.2,1.6c-0.4,0.4-0.6,0.6-1,0.8
	c-0.4,0.3-1,0.2-2.3,1.2c-1.2,0.8-1.8,1.5-1.9,1.5c-0.1,0-0.5-0.4-0.6-0.4c-0.1-0.1-2.4-1.6-2.4-1.6l-1-0.6l-0.4-0.3l-0.1-0.2
	l-0.2-0.3c0,0-0.4-0.4-0.8-0.8c-0.4-0.4-0.9-0.7-1.6-0.9c-0.7-0.2-1.1-0.3-1.8-0.1c-0.4,0.2-0.7,0.3-1,0.6c-0.4,0.4-0.5,0.7-0.8,1.2
	c-0.3,0.5-0.6,0.9-0.8,1.2c-0.2,0.2-0.5,0.9-0.5,0.9S98.4,35.2,98,36c-0.5,0.9-0.7,1.5-1.2,2.3c-0.8,1.4-1.8,2.8-2.1,3.5
	c-0.3,0.6-0.3,0.7-0.3,0.7s-0.1,0.4-0.1,0.6c0,0.2,0,0.6-0.1,0.8c0,0.2-0.2,0.4-0.2,0.4c0,0-0.5,1-0.6,1.6c-0.2,0.6-0.5,2.5-0.1,2.7
	c0.4,0.2,3.7-1.2,4.1-2.5c0.3-0.9-0.9-1.3-0.6-2.1c0.1-0.3,0.2-0.3,0.4-0.6c0.3-0.5,0.2-1.6,0.8-2.6c0.4-0.7,1.3-1.6,2.5-3
	c0.8-0.8,1.5-2.2,1.5-2.2s0.2-0.5,0.5-0.4c0.4,0.1,0.7,0,0.7,0l0.2,0.1l0.3,0.3l0.5,0.7c0,0,0.8,1.2,1.1,1.5c0.3,0.3,0.6,0.6,1,0.9
	c0.4,0.4,0.6,0.6,1.2,1c0.8,0.6,0.5,0.9-0.5,0.3c-0.4-0.2-0.9-0.4-1.4-0.5c-0.5-0.1-2.3-0.6-3.2-0.7c-0.9-0.1-1-0.1-1-0.1
	s-0.4,0-1,0.3c-0.5,0.3-0.8,0.6-0.8,0.6s-0.6,0.7-0.6,0.8c0,0.1-0.3,0.6-0.3,0.6s-0.2,0.2-0.2,0.5c-0.1,0.3,0,0.6,0,0.6l0,0.6l0,0.6
	c0,0,0.1,1.4,0.4,2.8c0.1,0.4,0.2,1,0.2,1l0.2,1.4c0,0,0.1,1.5,0.2,2c0.1,0.5,0.2,0.5,0.3,0.8c0.2,0.6-0.1,0.9,0.2,1.6
	c0.3,0.7,0.5,0.6,0.8,1.1c0.2,0.3,0.3,0.4,0.4,0.8c0.2,0.4,0.7,1.7,1.3,2.7c0.6,1,1.5,2.2,2,2.1c0.6-0.1,1-1,1-1s0.6-1.7,0.2-3.4
	c-0.4-1.7-2.2-0.9-2.5-2.1c0-0.3,0-0.7,0-0.7s0-0.5-0.1-0.7c-0.1-0.2-0.7-1.4-1-2.3c-0.2-0.8-0.2-3.2-0.3-3.9
	c-0.4-1.7-0.5-1.6-0.2-1.9c0.3-0.3,0.5-0.2,0.5-0.2l0.4,0l0.3,0.1c0,0,0.3,0.2,0.5,0.3c0.2,0.1,0.7,0.6,0.7,0.6l1.4,0.9
	c0,0,0.8,0.4,1.1,0.6c0.3,0.2,0.6,0.4,0.6,0.4l0.4,0.2l0.6,0.4l0.1,0.1l0.1,0.2c0,0,0.3,0.6,1.5,1.3c1,0.6,1.8,0.4,2.1,0.8
	c0.1,0.1,0.8,1,1.1,1.6c0.4,0.6,0.9,1.4,1,1.6c0.2,0.2,1.2,1.5,1.2,1.5l1.3,1.4l1.7,1.6l1.6,1.3l1,0.8c0,0,0.9,0.8,1.9,1.5
	c1,0.6,1,0.7,1.6,1.2c0.5,0.3,1.1,0.8,1.7,1.2c0.6,0.5,1.4,1.5,1.1,1.8c-0.2,0.1-0.6-0.4-1.2-1c-0.6-0.5-0.8-0.7-1.4-1.1
	c-0.7-0.6-1.1-0.8-1.9-1.3c-0.4-0.2-1.1-0.7-1.2-0.6c-0.3,0.8-0.2,1.6-0.2,2.7c0,0.7,0.2,1.4,0.4,2.3c0.2,0.9,0.4,1.4,0.7,2.2
	c0.3,0.8,0.9,2.1,0.9,2.1l0.9,1.8l0.8,1.4l0.4,0.7l0.2,0.2c0,0,0.2,0.5,0,0.8c-0.2,0.3-0.4,1-0.8,1c-0.4,0.1-1.2,0.1-1.2,0.1
	l-4.7-0.1L116,76c0,0-0.3-0.2-1.7-0.2c-0.8,0-1.5,0.4-2,0.4c-0.4,0-2.3-0.1-3.7,0.4c-1.2,0.5-1.8,0.6-2.2,1.4
	c-0.3,0.6,1.6,1.6,3.1,1.9c2.5,0.6,1.8-0.5,2.7-1.2c0.1-0.1,0.2-0.2,0.3-0.2c0.6-0.2,1,0.3,1.6,0.3c0.7,0,1.1-0.2,1.8-0.4
	c3.6-0.5,9.3,1.2,9.3,1.2s1.4,0.4,2,0.3c0.8-0.2,0.6-0.4,0.8-0.9c0.2-0.4,0.1-0.4,0.2-0.8c0-0.2,0-0.4-0.1-0.6
	c-0.2-0.7-0.6-1.6-0.6-1.6s-0.3-0.7-0.4-1.1c-0.2-0.5-0.3-0.8-0.4-1.4c-0.2-1.5-0.2-1.4-0.2-2.2c0-1.5,0.2-2.3,0.6-3.8
	c0.6-2.1,1.7-3.1,2.5-5.1c0.2-0.6,0.2-1.4,0.5-1.4c0.3,0,0.3,1,0.1,1.6c-0.5,2.1-1.8,2.9-2.4,5.1c-0.4,1.6-0.7,2.6-0.6,4.3
	c0,0.9,0.4,2.3,0.4,2.3s0.5,1.6,0.7,2.2c0.2,0.6,0.7,1.6,0.7,1.6l1.1,1.9l0.6,0.9c0,0,0.4,0.4,0.2,1c-0.2,0.6-0.6,1-1.1,1.5
	c-1.4,1.6-4.5,3.9-5.3,4.5c-1.1,0.8-1.1,1.1-1.2,1.3c-0.4,1.3-1.7,1.3-3.1,2.8c-0.3,0.3-1.2,1.2-1,1.9c0.1,0.3,3.5,0.9,5.5,0
	c1.6-0.7,0.2-1.4,0.6-2.2c0.3-0.6,1.1-0.6,1.5-1c0.6-0.8,0.2-0.8,0.7-1.4c1.7-2.1,2.8-3.3,5.9-5.1c0.3-0.2,0.8-0.4,0.8-0.4
	s0.4-0.2,0.6-0.4c0.2-0.3,0.2-0.6,0.2-1c0-0.2,0-0.4,0-0.6c0-0.3,0-0.4,0-0.7c-0.1-0.4-0.4-0.8-0.5-1c-0.2-0.2-0.4-0.6-0.6-1.3
	c-0.2-0.8-0.2-1.4,0.1-2.2c0.3-0.8,1-1.5,1-1.5l1.8-1.2c0,0,1.6-1.1,2-1.6c0.5-0.4,1.5-1.4,2.2-2.4c0.8-1.2,1.3-1.9,1.6-3.3
	c0.1-0.5,0.2-1.3,0.2-1.3s0-0.6,0.3-0.6c0.3,0,0.4,0.1,0.4,0.1s0.3,0.2,0.4,1c0,0.8-0.2,1.7-0.2,1.7s-0.2,0.9-0.3,1.5
	c0,0.4,0,0.6,0,1c0,0.7,0.3,1.2,0.3,1.2s0.2,0.1,0.2-0.2c0-0.3,0.1-0.8,0.2-1.3c0.1-0.4,0.2-0.3,0.4-1c0.3-0.9,0-0.8,0.2-1.3
	c0.1-0.2,0.3-0.5,0.5-0.5s0.3,0.3,0.3,0.3s0.2,1,0,2c-0.2,1-0.9,2.3-0.9,2.3l-0.6,1c0,0-0.4,0.7-0.6,1.1c-0.2,0.5-0.2,0.7-0.1,1.1
	c0.1,0.5,0.5,1.1,0.7,1c0.2-0.1-0.2-0.5,0.2-1.5c0.5-1,1.1-1.6,1.1-1.6s0.9-1,1.3-1.8c0.4-0.7,0.7-1.9,0.7-1.9s0.3-1,0.2-1.9
	c0-0.8-0.2-1.3-0.2-1.3l-0.4-0.6l-0.2-0.5l0.1-0.3c0.1,0,0.4,0.2,0.6,0.5c0.2,0.3,0.5,0.7,0.6,1.3c0.1,0.4,0.2,0.8,0.2,1.1
	c0,0.3-0.1,1.6,0.4,2.5c0.2,0.4,0.7,1.3,0.7,0.9c0.1-0.9-0.3-1.4-0.3-2.2c0-1,0.3-0.7,0.4-1.2c0.1-0.5,0.2-0.6,0.1-1.3
	c-0.1-0.6-0.4-1.5-0.4-1.5l-0.3-0.6l-0.1-0.2c0,0,0.1-0.1,0.2-0.1l1-0.3c0,0,1.2-0.6,1.7-1c0.5-0.4,1.1-1,1.1-1s0.8-1,1.2-1.7
	c1-1.8,1-4.1,0.9-5.1c0-1-0.3-2.3-0.3-2.3s-0.3-1.6-0.2-2.6c0.1-1,0.2-1.5,0.2-1.5s0-1,0.8-2.1c0.9-1.1,1.3-1.8,1.4-2.7
	C157.1,42.5,156.8,41.3,156.5,41.8L156.5,41.8z M130.2,34.6c-0.1,0-0.3-0.2-0.3-0.2s0,0,0.1-0.1s0.3,0,0.3,0l0.1,0l0.2,0.3
	C130.5,34.7,130.3,34.6,130.2,34.6z M130.7,33.3c-0.1,0-0.3-0.2-0.3-0.2s0-0.1,0.1-0.2c0.1-0.1,0.3,0,0.3,0l0.1,0.1
	c0,0,0.2,0.2,0.2,0.3C131.1,33.4,130.8,33.3,130.7,33.3z M131.1,31.9c-0.2,0-0.4-0.2-0.4-0.2s0-0.1,0.1-0.2c0.2-0.1,0.4,0,0.4,0
	l0.2,0.1c0.1,0.1,0.3,0.3,0.3,0.4C131.6,32.1,131.3,32,131.1,31.9z M131.5,30.7c-0.2,0-0.4-0.2-0.4-0.2s0-0.1,0.1-0.2
	c0.2-0.1,0.4,0,0.4,0l0.2,0.1c0.1,0.1,0.3,0.3,0.3,0.4C132,30.9,131.6,30.7,131.5,30.7z M131.8,29.2c-0.2,0-0.4-0.2-0.4-0.2
	s0-0.1,0.1-0.2c0.2-0.1,0.4,0,0.4,0l0.2,0.1c0.1,0.1,0.3,0.3,0.3,0.4C132.4,29.4,132,29.2,131.8,29.2z M132.1,27.6
	c-0.2,0-0.6-0.3-0.6-0.3s-0.1-0.1,0.2-0.2c0.2-0.1,0.5-0.1,0.5-0.1l0.2,0.1c0.1,0.1,0.4,0.4,0.4,0.6
	C132.8,27.9,132.3,27.7,132.1,27.6z M132.2,26c-0.3,0-0.7-0.4-0.7-0.4s-0.1-0.1,0.2-0.3c0.2-0.2,0.6-0.1,0.6-0.1s0.1,0,0.2,0.1
	c0.1,0.1,0.4,0.5,0.5,0.7C133.1,26.3,132.5,26.1,132.2,26z M132.5,24.2c-0.3,0-0.8-0.4-0.8-0.4s-0.1-0.2,0.2-0.3
	c0.3-0.2,0.7-0.1,0.7-0.1s0.2,0,0.3,0.2c0.1,0.1,0.5,0.6,0.6,0.8C133.5,24.6,132.8,24.3,132.5,24.2z M132.3,16.8
	c-0.2,0-0.6-0.3-0.6-0.3s-0.1-0.1,0.2-0.2c0.2-0.1,0.6,0,0.6,0s0.1,0,0.2,0.1c0.1,0.1,0.4,0.4,0.4,0.5
	C133.1,17.1,132.5,16.9,132.3,16.8z M133.2,18.6c0,0.2-0.5,0-0.8-0.1c-0.2,0-0.6-0.3-0.6-0.3s-0.1-0.1,0.2-0.2
	c0.2-0.2,0.6-0.1,0.6-0.1s0.1,0,0.2,0.1C132.9,18.1,133.1,18.4,133.2,18.6z M132,21.6c0.2-0.2,0.6-0.1,0.6-0.1s0.1,0,0.2,0.1
	c0.1,0.1,0.4,0.5,0.5,0.7c0,0.2-0.6,0-0.8-0.1c-0.3,0-0.7-0.4-0.7-0.4S131.8,21.7,132,21.6z M132.5,20.2c-0.3,0-0.7-0.4-0.7-0.4
	s-0.1-0.1,0.2-0.3c0.2-0.2,0.6-0.1,0.6-0.1s0.1,0,0.2,0.1c0.1,0.1,0.4,0.5,0.5,0.7C133.4,20.5,132.8,20.3,132.5,20.2z M133.1,14.2
	c0.3,0.1,0.4,0.3,0.2,0.3c-0.2,0-0.2,0-0.4,0c-0.4,0-0.3-0.2-0.8,0.1c-0.5,0.2-0.1,0.1-0.8,0.4c-0.6,0.2-0.5-0.4-0.5-0.4
	s0-0.1,0.1-0.4c0.1-0.3,0.5,0,0.8,0C132.3,14.2,132.7,14.2,133.1,14.2z M131.3,11.8l0.2,0.1c0.1,0.1,0.4,0.4,0.4,0.6
	c0,0.2-0.5,0-0.7-0.1c-0.2,0-0.6-0.3-0.6-0.3s-0.1-0.1,0.2-0.2C131,11.7,131.3,11.8,131.3,11.8z M129.8,9.9c0.2-0.1,0.5-0.1,0.5-0.1
	l0.2,0.1c0.1,0.1,0.4,0.4,0.4,0.6s-0.5,0-0.7-0.1c-0.2,0-0.6-0.3-0.6-0.3S129.6,10,129.8,9.9z M129.4,35.6c0.1-0.1,0.3,0,0.3,0
	l0.1,0l0.2,0.3c0,0.1-0.2,0-0.4,0C129.6,35.9,129.4,35.7,129.4,35.6C129.4,35.7,129.3,35.7,129.4,35.6z M113.5,16.7
	c-0.1,0.1-0.2,0.1-0.4,0.2c-0.2,0.2-0.4,0.6-0.5,0.4c-0.2-0.1-0.1-0.6-0.1-0.6s0.1-0.3,0.3-0.6c0.2-0.3,0.4-0.3,0.4-0.3
	c0.2,0,0.7,0.2,0.7,0.5C114,16.7,113.7,16.6,113.5,16.7z M116.7,17.9c0,0-0.2,0-0.2-0.2c0-0.3,0.2-0.3,0.2-0.3s0.5-0.2,0.5,0.1
	C117.3,17.7,116.7,17.9,116.7,17.9z M121,12.5c0,0-0.5,0.8-1.2,1.2c-0.7,0.3-1.2,0.5-2.5,0.6c-0.2,0-0.1-0.1-0.1-0.1
	s1.6-0.4,2.4-0.9c0.5-0.3,1-0.6,1.2-0.8C121.3,12,121,12.5,121,12.5z M94.3,47c0,0.2-0.2,0.6-0.3,0.6s-0.2-0.4-0.2-0.6
	c0-0.2,0.1-0.8,0.4-0.7C94.4,46.3,94.3,46.8,94.3,47z M95.3,42.5c0,0-0.4,0.8-0.5,0.4c-0.1-0.3,0.1-0.8,0.1-0.8
	c0.3-0.3,0.4-0.7,0.6-0.5C95.7,41.8,95.3,42.5,95.3,42.5z M100.2,34.7c-0.4,0.4-1.5,2.5-1.7,2.1c-0.2-0.3,1.1-2.3,1.4-2.7
	c0.3-0.4,0.5-0.4,0.5-0.4l0.1,0.1C100.4,33.9,100.6,34.3,100.2,34.7z M103.2,31.6c0,0-0.8,0.2-0.7-0.1c0.2-0.3,0.7-0.4,0.7-0.4
	c0.4,0.1,0.5,0.1,0.5,0.3C103.8,31.6,103.2,31.6,103.2,31.6z M106.4,37.1c-0.4,0.4-0.5-0.1-1-0.7c-0.5-0.6-0.4-1-0.4-1h0.1l0.1,0
	l0.2,0.1l0.1,0.1l0.4,0.4C106.1,36.3,106.5,37.1,106.4,37.1z M100.3,49c-0.1,0-0.2-0.2-0.2-0.2s-0.3-0.5-0.4-0.8
	c-0.1-0.3-0.2-0.8-0.2-0.8s-0.1-0.7-0.1-0.9c0-0.3,0-0.6,0.1-0.8c0-0.2,0.2-0.1,0.2-0.1c0.2,0,0.2,0.2,0.2,0.2v0.1c0,0,0,0.7,0,1.3
	c0,0.2,0.4,1.9,0.4,1.9S100.4,49,100.3,49z M100.2,40.7c-0.3,0.4-0.5,0.4-0.5,0.4c0,0-0.1-0.2,0.2-0.7s0.5-0.4,0.5-0.4l0.1,0.1
	C100.4,40.1,100.5,40.2,100.2,40.7z M103,57.3c0.1-0.2,0.6,0.2,0.6,0.2c0.2,0,0.4,0.4,0.4,0.4s0.1,0.3-0.2,0.4
	c-0.2,0.1-0.4-0.1-0.4-0.1S102.9,57.5,103,57.3z M106.8,45.2c-0.6-0.1-1.7-1-2.2-1.3c-0.5-0.2-1.3-0.3-0.9-0.6c0,0,0.1-0.1,0.2-0.1
	s0.4,0.1,0.4,0.1l0.9,0.4c0,0,0.5,0.2,0.8,0.4c0.3,0.2,0.9,0.6,0.9,0.6l0.2,0.2C107,44.9,107.3,45.3,106.8,45.2z M111.6,37.3
	c0,0-0.7,0.9-1.1,1.5c-0.5,0.8-1.2,1.9-1.3,1.8c-0.1-0.1,0.6-1.4,0.9-2.1c0.4-0.8,1-1.3,1.2-1.4C111.9,36.9,111.6,37.3,111.6,37.3z
	 M109.5,77.1c0,0,0,0.2-0.3,0.4c-0.3,0.2-0.4,0.1-0.4,0.1c0,0-0.3-0.2-0.3-0.3c0-0.2,0.5-0.3,0.5-0.3
	C109.7,76.9,109.5,77.1,109.5,77.1L109.5,77.1z M115.6,76.8c-0.3,0-0.3-0.1-0.3-0.2c0,0,0.1-0.1,0.4-0.1c0.3,0,0.3,0.2,0.3,0.2
	C116.1,76.8,116,76.9,115.6,76.8z M122.7,77.2c-0.6,0.2-0.8,0.1-1.4,0.1c-0.4,0-0.6,0.1-1.1,0.1c-0.8,0-0.8,0-1.9-0.3
	c-0.2-0.1-0.4-0.3-0.4-0.4c0.1-0.1,0.2-0.1,0.2-0.1s1.4,0.2,2.2,0.3c0.6,0,1,0.1,1.6,0c0.4,0,0.2,0,0.7,0
	C123,76.9,122.9,77.2,122.7,77.2z M126.5,76.1c0,0-0.3,0.1-0.5,0.2c-0.2,0-0.1-0.2-0.1-0.2s0.2-0.2,0.4-0.4c0.2-0.1,0.4,0,0.4,0
	C126.7,75.9,126.5,76.1,126.5,76.1z M129.4,68.5c-0.3,0.6-0.4,0.8-0.4,1.4c-0.1,0.6,0.3,2.3-0.3,1.6c-0.2-0.3-0.4-1.6-0.2-2.2
	C128.8,67.8,130,67.4,129.4,68.5z M121.4,92.8c-0.2,0.2,0.2,0.6-0.5,0.6c-0.4,0-0.2-0.4-0.2-0.5l0.3-0.4c0.2-0.3,0.3-0.3,0.5-0.4
	c0.2-0.1,0.4,0.2,0.4,0.2s0.1,0.1,0.1,0.3C122,92.7,121.6,92.6,121.4,92.8z M125.6,88.8l-0.4,0.3c0,0-0.3,0.2-0.4,0.1
	c-0.1-0.1,0-0.3,0-0.3c0,0,0.2-0.3,0.4-0.4c0.2-0.1,0.3,0,0.3,0C125.8,88.7,125.6,88.8,125.6,88.8L125.6,88.8z M127.4,19.1
	c0,0-0.2,0.5-0.5,0.6c-0.4,0.1-1.9,0.2-1.9,0c0-0.1,1.7-0.3,2.4-1C127.6,18.6,127.4,19.1,127.4,19.1z M126.9,17.8
	c0.1-0.2,0,0.3,0,0.3s-0.1,0.5-0.4,0.7c-0.4,0.2-1.2,0.4-1.3,0.3C125.2,19,126.4,18.6,126.9,17.8z M124.4,11.8c0,0,0.2,0,0.4,0.1
	c0.2,0.2,0.4,0.6,0.4,0.6s0,0.1-0.2,0.1c-0.1,0-0.1-0.2-0.2-0.3c-0.2-0.1-0.3-0.2-0.5-0.2c-0.2-0.1-0.5,0-0.5-0.2
	C123.8,11.7,124.4,11.8,124.4,11.8z M122.6,13.1c0,0,0.1-0.2,0.4-0.4c0.3-0.2,0.8-0.2,0.8-0.2s0.2,0,0.5,0.2
	c0.3,0.2,0.5,0.9,0.5,0.9s0.1,0.4-0.1,0.6c-0.2,0.2-0.5-0.1-0.7-0.4c-0.2-0.2-0.3-0.3-0.6-0.4c-0.3-0.1-0.8,0.2-0.9,0
	C122.6,13.3,122.6,13.1,122.6,13.1z M122.5,18.6c-0.2,0-0.1-0.2-0.1-0.2s0.7-0.3,1.1-0.5c0.7-0.4,2.1-1.8,1.7-1.1
	c-0.2,0.3-0.6,0.7-0.6,0.7s-0.6,0.8-0.7,0.9C123.4,18.8,122.8,18.6,122.5,18.6L122.5,18.6z M116.9,34L116.9,34
	c0-0.1,1.2-0.9,3.1-0.6c1.1,0.2,2.2,1.2,2,1.3s-0.4,0-0.5,0l-0.4-0.2l-0.6-0.2c0,0-1.1-0.2-1.9-0.2s-1.5,0.3-1.5,0.3s-0.3,0.2-0.4,0
	C116.7,34.2,116.9,34,116.9,34z M119.8,56.4c-2.7-2.1-6.1-6.4-5.7-6.8c0.4-0.3,1.7,1.7,3.7,3.9c2.1,2.3,4.7,4.5,4.7,4.8
	C122.8,58.7,120.8,57.2,119.8,56.4L119.8,56.4z M126.1,26.7c-1.2,2-2.7,3.5-2.7,3.5c-0.6,0.4-0.2-0.3-0.2-0.3s1.6-2.1,2.3-3.7
	c0.5-1.1,0.8-2.5,1.1-2.8C127,22.8,126.7,25.5,126.1,26.7z M129.2,48.5c-1.2-1.4-2.1-3-2.3-4.9c-0.1-0.4-0.1-1.1,0.3-1
	c0.4,0,0.3,0.7,0.3,0.9c0.1,1.2,0.6,2.3,1.5,3.7c1.2,1.9,3.2,3.5,3.1,3.6C131.9,50.9,130,49.4,129.2,48.5z M129.6,85.7
	c-0.7,0.6-1.8,1.5-1.8,1.5h-0.2V87l0-0.1l0.1-0.1l0.1-0.1l0.1-0.1l0.2-0.3l0.6-0.5l0.6-0.5l0.9-0.9c0,0,0.3-0.4,0.4-0.4
	c0.1-0.1,0.2-0.2,0.3-0.2c0.2-0.1,0.4-0.2,0.4-0.1v0.2C131.3,83.9,130.3,85,129.6,85.7L129.6,85.7z M132.1,56.3
	c-0.5,0.4-0.7,0.3-1,0.7c-0.4,0.4-0.5,1.9-0.8,1.3c-0.4-0.6-0.1-1.4,0.5-2.1C131.4,55.4,132.9,55.6,132.1,56.3z M133.9,82.4
	c0.2-0.1,0.4,0,0.4,0l0.1,0.2c0,0-0.3,0.5-0.5,0.5c-0.2,0-0.1-0.3-0.1-0.3S133.7,82.5,133.9,82.4L133.9,82.4z M140.7,66.3
	c-0.4-0.2,0.2-1,0.2-1.6c0-0.5-0.1-0.8-0.1-1.2c0-0.4,0.4-0.5,0.4-0.5c0.1,0,0.2,0.1,0.4,0.5C141.9,63.8,141.4,66.6,140.7,66.3z
	 M152.9,54.9c-0.1,1.7-0.2,2.9-1.2,4.1c-1.2,1.6-3.3,3.1-2.8,1.9c0.3-0.8,2.1-1.7,2.8-3.8c0.4-1.3,0.5-2.5,0.5-2.5l-0.1-2.4
	c0,0,0-0.2,0-0.5c0.1-0.3,0.3-0.1,0.3-0.1l0.1,0.1C152.5,51.8,152.9,53.7,152.9,54.9z"/>
</svg>
