<?xml version="1.0" encoding="UTF-8"?>
<svg id="Capa_1" xmlns="http://www.w3.org/2000/svg" version="1.1" viewBox="0 0 250 100">
  <!-- Generator: Adobe Illustrator 29.6.1, SVG Export Plug-In . SVG Version: 2.1.1 Build 9)  -->
  <defs>
    <style>
      .st0 {
        fill: #777;
      }
    </style>
  </defs>
  <polygon class="st0" points="93.62 18.86 93.62 13.71 117.28 13.71 117.65 14.08 117.65 18.49 117.28 18.86 93.62 18.86"/>
  <g>
    <path class="st0" d="M77.81,13.71c11.25,1.34,12.56,18.88-.48,20.59-.35.05-.72-.23-.62.35l10.05,11.15h-6.25l-10.3-11.52h-6.25v11.52h-5.15V13.71h19ZM63.96,30.13h12.87c.34,0,2.03-.77,2.41-1.02,3.04-2.01,3.35-6.46.75-9-.38-.37-2.26-1.5-2.67-1.5h-13.36v11.52Z"/>
    <path class="st0" d="M147.55,36.25V13.71h5.15v32.1h-4.17c-.01-.22-.09-.44-.24-.61-5.95-6.44-11.01-14.41-16.93-20.83-.28-.3-.49-.7-.97-.62v22.05h-5.15V14.08l.41-.33,3.33.02,18.57,22.49Z"/>
    <path class="st0" d="M218.15,27.68v-13.97h5.15v32.1h-5.15v-13.23h-15.57c-.23.16-.37.61-.37.86v12.01c0,.07.31.19.25.37h-5.39V14.08l.37-.37h4.66c.54,0,.12,2.53.11,3.05-.02,2.99-.34,7.26,0,10.07.04.36.03.63.38.85h15.57Z"/>
    <path class="st0" d="M165.69,54.14v18.5c0,6.37,4.93,9.45,10.89,8.68,2.78-.36,6.27-3.89,6.27-6.72v-20.46h5.39c-.48,6.75.76,14.55-.28,21.16-2.56,16.35-27.42,13.3-27.42-1.69v-19.48h5.15Z"/>
    <path class="st0" d="M152.7,86.24h-5.15v-20.21c0-1.48-1.66-4.29-2.83-5.26-5.17-4.3-14.33-1.16-14.33,6v19.48h-5.15v-20.46c0-.57.69-3.06.93-3.72,4.17-11.36,23.05-10.42,26.1,1.44.08.32.42,1.62.42,1.79v20.95Z"/>
    <path class="st0" d="M49.75,28.66v4.66h-17.53c-.1,0-.4.36-.31.56,0,3.43.59,7.73.2,11.09-.04.36-.03.63-.38.85h-5.03V13.71h22.67l.37.37v4.41l-.37.37h-17.16c-.25.18-.27.21-.27.5,0,2.92.43,5.88,0,8.8l.27.5h17.53Z"/>
    <polygon class="st0" points="26.7 86.24 40.29 54.12 45.8 54.17 59.06 86.24 53.3 86.24 43.12 60.51 32.46 86.24 26.7 86.24"/>
    <path class="st0" d="M62.37,54.14l10.54,25.48,10.3-25.48h5.52l-13.01,31.71c-.12.27-.32.34-.59.39-.56.1-4.74.06-5.03-.12l-13.48-31.98h5.76Z"/>
    <path class="st0" d="M188.24,15.67v5.88c-8.77-6.9-24.62-1.76-21.7,11.03,1.76,7.7,10.34,9.96,17.18,7.84l4.53-2.21v5.88c-4.83,1.86-10.13,2.31-15.2,1.1-16.62-3.95-16.49-26.41-.3-30.68,5.33-1.41,10.44-.95,15.5,1.16Z"/>
    <rect class="st0" x="197.07" y="81.09" width="26.23" height="5.15"/>
    <rect class="st0" x="197.07" y="54.14" width="26.23" height="4.9"/>
    <polygon class="st0" points="117.65 45.81 93.62 45.81 93.62 40.66 117.28 40.66 117.65 41.03 117.65 45.81"/>
    <polygon class="st0" points="117.65 86.24 93.62 86.24 93.62 81.09 117.28 81.09 117.65 81.46 117.65 86.24"/>
    <polygon class="st0" points="223.3 67.62 223.3 72.52 197.07 72.52 197.07 67.86 223.3 67.62"/>
    <rect class="st0" x="93.62" y="54.14" width="24.02" height="4.9"/>
    <rect class="st0" x="93.62" y="67.86" width="24.02" height="4.66"/>
    <rect class="st0" x="93.62" y="27.43" width="24.02" height="4.66"/>
  </g>
</svg>