<?xml version="1.0" encoding="utf-8"?>
<!-- Generator: $$$/GeneralStr/196=Adobe Illustrator 27.6.0, SVG Export Plug-In . SVG Version: 6.00 Build 0)  -->
<svg version="1.1" id="Capa_1" xmlns="http://www.w3.org/2000/svg" xmlns:xlink="http://www.w3.org/1999/xlink" x="0px" y="0px"
	 viewBox="0 0 250 100" style="enable-background:new 0 0 250 100;" xml:space="preserve">
<style type="text/css">
	.st0{fill:#777777;}
</style>
<g>
	<path class="st0" d="M164.4,41.7c0.2-0.3,0.3-0.6,0.5-0.9c0.1-0.2,0.1-0.4,0-0.6c-0.2-0.3-0.1-0.6,0-0.9c0.1-0.4,0-0.7,0.1-1.1
		c0.2-0.6,0.1-1.2,0.3-1.7c0.1-0.3,0.4-0.5,0.8-0.5c0.5,0,0.5,0,0.5-0.5c0-0.5,0.3-0.7,0.6-0.9c0.2-0.1,0.4,0,0.5,0.1
		c0.3,0.3,0.4,0.2,0.6-0.1c0.2-0.3,0.5-0.5,0.9-0.6c0.1,0,0.2,0,0.2,0c0.7,0,0.7,0,0.7,0.7c0,0.2,0,0.2,0.2,0.2
		c0.6-0.1,1.2,0,1.7,0.4c0.2,0.1,0.3,0.4,0.3,0.6c0,0.1,0,0.2-0.1,0.2c-0.3,0.2-0.5,0.4-0.9,0.5c-0.1,0-0.2,0.1-0.2,0.2
		c-0.1,0.5-0.2,0.6-0.7,0.6c-0.2,0-0.4,0-0.6,0.2c-0.1,0.1-0.3,0.1-0.5,0.1c-0.1,0-0.3,0-0.3,0.1c-0.1,0.5-0.5,0.6-0.9,0.6
		c-0.4,0-0.8,0.2-1.1,0.4c-0.3,0.2-0.6,0.4-0.8,0.7c-0.3,0.3-0.5,0.7-0.6,1.1c-0.1,0.4-0.2,0.7-0.5,1.1c-0.3,0.3-0.4,0.7-0.6,1.1
		c-0.2,0.6-0.4,1.3-0.5,1.9c-0.1,0.4-0.3,0.8-0.4,1.2c-0.1,0.4-0.4,0.8-0.5,1.2c0.3-0.1,0.3-0.4,0.4-0.5c0.2-0.2,0.3-0.5,0.6-0.7
		c0.6-0.5,0.7-1.2,0.8-2c0.1-0.6,0.2-1.2,0.7-1.6c0.2-0.1,0.5-0.2,0.7-0.1c0.1,0.1,0.2,0.1,0.3-0.1c0.2-0.3,0.4-0.6,0.8-0.6
		c0.3,0,0.5,0.1,0.5,0.4c0,0.2,0.1,0.2,0.2,0.1c0.4-0.5,1-0.8,1.6-1.1c0.4-0.2,1.4-0.1,1.6,0.2c0.2,0.2,0.2,0.3,0,0.5
		c-0.2,0.3-0.5,0.5-0.8,0.6c-0.2,0.1-0.4,0.2-0.3,0.5c0.1,0.6-0.3,1-1,1.2c-0.3,0.1-0.5,0.2-0.5,0.6c0,0.3-0.1,0.5-0.4,0.5
		c-0.3,0.1-0.7,0.1-1,0.1c-0.2,0-0.4,0.1-0.5,0.2c-0.8,0.2-1.5,0.6-2.2,1c-0.6,0.3-1.1,0.8-1.6,1.3c-0.2,0.2-0.5,0.3-0.7,0.5
		c-0.4,0.4-0.7,0.9-1,1.3c-0.1,0.1-0.2,0.2-0.2,0.4c0.5-0.2,1-0.5,1.5-0.8c0.3-0.2,0.5-0.6,0.7-0.9c0.3-0.6,0.8-1,1.4-1.3
		c0.3-0.2,0.6,0,0.7,0.4c0,0.1,0,0.3,0,0.5c0.5-0.3,1-0.1,1.5,0.1c0.3,0.2,0.7,0.4,0.6,0.9c-0.1,0.4,0,0.4,0.4,0.4
		c0.4,0,0.7,0.1,1,0.3c0.3,0.2,0.3,0.5,0.3,0.8c0,0.2,0,0.3,0.2,0.4c0.5,0.4,0.6,0.9,0.5,1.5c0,0.2-0.2,0.3-0.4,0.2
		c-0.2-0.1-0.4-0.2-0.6-0.4c-0.3-0.3-0.7-0.4-1-0.3c-0.5,0.2-1,0.1-1.4-0.1c-0.2-0.1-0.4-0.1-0.6,0c-0.8,0.3-1.1,0.1-1.8-0.4
		c-0.4-0.3-0.8-0.7-1.3-0.9c-0.6-0.3-1-0.1-1.4,0.3c-0.4,0.3-0.8,0.5-1.1,0.9c-0.4,0.5-0.8,1-1,1.6c-0.2,0.4-0.3,0.8-0.4,1.3
		c-0.1,0.3-0.1,0.7-0.3,1c-0.1,0.2-0.1,0.5-0.1,0.7c-0.2,0.9-0.3,1.8-0.2,2.7c0,0.1,0,0.2,0.1,0.2c0.1,0,0.1-0.1,0.2-0.2
		c0.2-0.3,0.3-0.7,0.5-1c0.2-0.4,0.4-0.7,0.6-1.1c0.2-0.4,0.3-0.9,0.4-1.4c0.2-0.7,0.3-1.5,0.9-2c0.3-0.2,0.4-0.2,0.7,0
		c0.1,0.1,0.2,0.1,0.3,0c0.3-0.3,0.6-0.5,1-0.7c0.6-0.2,0.7-0.2,0.8,0.4c0.2-0.1,0.3-0.2,0.4-0.3c0.4-0.4,0.9-0.4,1.4-0.4
		c0.1,0,0.1,0,0.1,0.1c0.1,0.3,0.3,0.2,0.6,0.2c0.2,0,0.5,0,0.7,0c0.6,0,1,0.3,1.4,0.8c0.1,0.1,0,0.4-0.2,0.3
		c-0.4,0-0.8,0.1-1.1,0.3c-0.1,0.1-0.3,0-0.4,0c-0.1,0-0.2,0-0.3,0.2c-0.1,0.6-0.6,0.8-1.2,0.5c-0.3-0.1-0.4-0.1-0.4,0.2
		c0,0.2,0.1,0.4-0.1,0.5c-0.3,0.2-0.6,0.3-0.9,0.2c-0.5-0.2-0.9-0.1-1.4,0c-0.4,0.1-0.9,0.2-1.2,0.5c-0.8,0.6-1.5,1.2-1.8,2.2
		c0,0.2-0.2,0.4-0.3,0.5c-0.3,0.4-0.4,0.8-0.5,1.3c0,0.2,0.2,0.6-0.3,0.6c0,0,0,0.1,0,0.1c0,0.1,0.1,0.1,0.1,0.1
		c0.2-0.1,0.2,0.1,0.3,0.2c0.3,0.5,0.1,1.1,0.3,1.6c0.2,0.3,0.2,0.7,0.2,1c0.2,0,0.3-0.1,0.3-0.2c0.3-0.3,0.7-0.6,0.9-1
		c0.1-0.1,0.1-0.3,0.1-0.4c-0.1-1,0.2-1.8,0.7-2.6c0.2-0.4,0.5-0.6,0.9-0.7c0.3-0.1,0.3,0,0.5,0.3c0.2-0.2,0.2-0.4,0.4-0.5
		c0.2-0.2,0.4-0.3,0.6-0.4c0.1-0.1,0.2,0,0.3,0.1c0.4,0.2,0.4,0.2,0.8-0.1c0.4-0.3,0.8-0.5,1.3-0.7c0.4-0.1,0.8-0.2,1.2-0.2
		c0.1,0,0.3,0,0.3,0.2c0.1,0.2,0,0.3-0.1,0.4c-0.1,0.1-0.2,0.2-0.3,0.3c0,0.1-0.1,0.1-0.1,0.2c0,0.1,0.1,0,0.2,0
		c0.6-0.3,1.2-0.3,1.8-0.2c0.3,0.1,0.7,0.1,1,0.3c0.2,0.2,0.2,0.3,0,0.5c-0.2,0.2-0.4,0.3-0.6,0.4c-0.5,0.3-0.9,0.8-1.6,0.9
		c-0.2,0.1-0.3,0.3-0.4,0.5c-0.3,0.4-0.6,0.7-1.2,0.7c-0.1,0-0.2,0-0.3,0c-0.4,0-0.7,0.1-0.9,0.4c-0.1,0.3-0.3,0.4-0.6,0.3
		c0,0-0.1,0-0.1,0c-0.6-0.1-1.2,0.1-1.8,0.4c-0.4,0.1-0.7,0.3-1.2,0.3c-0.3,0-0.5,0.1-0.7,0.3c-0.5,0.5-0.9,0.9-1.4,1.4
		c-0.2,0.2-0.3,0.4-0.3,0.6c-0.1,0.3-0.2,0.4-0.4,0.6c-0.4,0.6-0.8,1.2-0.9,2c0,0.3-0.2,0.7-0.3,1c0.1,0,0.1,0,0.1-0.1
		c0.1-0.4,0.3-0.7,0.3-1.1c0-0.1,0.1-0.3,0.2-0.4c0.2-0.4,0.4-0.9,0.8-1.3c0.2-0.2,0.4-0.3,0.6-0.4c0.2-0.1,0.3,0,0.3,0.1
		c0.1,0.2,0.2,0.3,0.4,0.1c0.1-0.2,0.4-0.2,0.6-0.3c0.4-0.2,0.9-0.2,1.3-0.4c0.3-0.1,0.5,0,0.7,0.2c0.1,0.1,0.1,0.2,0,0.3
		c-0.2,0.2-0.3,0.5-0.5,0.7c-0.2,0.2-0.3,0.5-0.5,0.7c-0.1,0,0,0.1,0,0.2c0,0.6-0.3,1-0.9,1.1c-0.8,0.2-1.6,0.4-2.3,1
		c-0.5,0.4-0.9,0.8-1.2,1.3c-0.1,0.2-0.3,0.3-0.4,0.5c-0.2,0.4-0.2,0.9-0.4,1.3c-0.3,0.8-0.6,1.6-0.9,2.3c-0.2,0.4-0.4,0.7-0.5,1.1
		c-0.1,0.2-0.2,0.5-0.4,0.7c0.3,0,0.5-0.1,0.7-0.1c0.3,0,0.5,0.1,0.5,0.4c0.1,0.3,0.3,0.5,0.7,0.4c0.3,0,0.7-0.1,0.9,0.2
		c0.4,0.4,0.8,0.2,1.2,0.3c0.7,0.1,1.3,0.3,1.9,0.5c0.1,0.1,0.3,0.1,0.4,0.2c0.1,0.1,0.3,0.3,0.2,0.5c-0.1,0.2-0.3,0.3-0.4,0.3
		c-0.3,0-0.6,0.2-0.8,0.3c-0.6,0.3-1.3,0.5-2,0.4c-0.1,0-0.1,0-0.2,0c-0.4-0.1-0.5-0.1-0.4,0.3c0,0.4-0.3,0.6-0.8,0.7
		c-0.3,0.1-0.6,0.1-0.8,0c-0.1,0-0.2,0-0.2,0.1c-0.1,0.3-0.4,0.3-0.6,0.4c-0.1,0.1-0.3,0.1-0.5,0c-0.3-0.1-0.6-0.2-0.9-0.2
		c-0.3,0-0.5,0.1-0.8,0.2c-0.4,0.2-0.9,0.3-1.3,0.6c-0.4,0.2-0.7,0.6-0.9,0.9c-0.4,0.5-0.6,1-1.2,1.3c-0.4,0.2-0.7,0.6-0.9,1
		c-0.2,0.5-0.7,0.8-1.1,1.1c-0.2,0.1-0.3,0.2-0.3,0.4c0,0.4-0.2,0.6-0.5,0.8c-0.3,0.2-0.6,0.4-1,0.6c0.2,0.1,0.4,0,0.5,0
		c0.3-0.1,0.6-0.2,0.9-0.2c0.4-0.1,0.7,0,1,0.2c0.2,0.1,0.3,0,0.3-0.2c0.1-0.6,0.4-0.9,0.9-1.2c0.4-0.2,0.8-0.2,1.2-0.2
		c0.1,0,0.2,0,0.3,0.1c0.2,0.3,0.5,0.2,0.8,0.1c0.2-0.1,0.3-0.1,0.4,0c0,0,0.1,0,0.1,0c0.5-0.1,0.9,0.2,1.4,0.2
		c0.2,0,0.4,0.1,0.3,0.3c0,0.2,0.1,0.3,0.3,0.3c0.3,0,0.6,0,0.9,0c0.3,0,0.4,0.1,0.4,0.4c0,0.4,0,0.7-0.4,0.9
		c-0.1,0.1-0.2,0.2-0.2,0.4c0,0.3-0.5,0.7-0.8,0.7c-0.5,0-0.9,0-1.4,0c-0.1,0-0.2,0-0.3,0.1c-0.4,0.2-0.8,0.1-1.1,0.1
		c-0.3,0-0.6-0.2-0.8-0.4c-0.4-0.3-0.9-0.6-1.3-0.9c-0.1,0-0.1-0.1-0.2-0.1c-0.3,0.1-0.6,0-0.9-0.2c-0.4-0.2-0.7-0.4-1.2-0.2
		c-0.4,0.2-0.9,0.4-1.4,0.4c-0.1,0-0.2,0-0.3-0.1c-0.2-0.2-0.4-0.2-0.7-0.1c-0.4,0.1-0.8,0.3-1.1,0.6c-0.2,0.2-0.4,0.5-0.6,0.8
		c-0.4,0.4-0.9,0.7-1.4,1.1c-0.3,0.2-0.7,0.3-1,0.6c0,0-0.1,0.1-0.1,0.2c0.5-0.2,1-0.1,1.4,0.3c0.3,0.2,0.6,0.5,1.1,0.4
		c0.4,0,0.5,0.2,0.4,0.6c-0.1,0.3-0.1,0.3,0.2,0.3c0.8-0.1,1.4,0.3,1.9,0.9c0.1,0.1,0.2,0.3,0.3,0.5c0.1,0.1,0,0.2,0,0.3
		c-0.1,0.1-0.3,0.1-0.4,0c-0.3-0.2-0.6-0.1-0.9,0c-0.3,0.1-0.6,0-0.9,0c-0.2,0-0.4,0-0.5,0.3c0,0.3-0.3,0.3-0.5,0.3
		c-0.6,0-1.1-0.1-1.7,0.1c-0.1,0-0.2,0-0.4,0c-0.1,0-0.1-0.1-0.2-0.1c-0.7,0-1.1-0.6-1.5-1.1c-0.2-0.2-0.5-0.4-0.7-0.5
		c-0.8-0.3-1.5-0.2-2.3,0.2c-0.5,0.3-1,0.6-1.6,0.9c-0.5,0.2-1,0.4-1.5,0.6c-0.8,0.3-1.6,0.6-2.4,0.8c-0.3,0.1-0.6,0-0.9,0.1
		c0.6-0.1,1.1,0.3,1.7,0.2c0.3,0,0.5,0.2,0.8,0.3c0.2,0.1,0.4,0.2,0.6,0.1c0.6-0.1,1,0.3,1.4,0.5c0.2,0.1,0.2,0.5-0.1,0.6
		c-0.6,0.3-1.1,0.7-1.8,0.9c-0.4,0.1-0.9,0.3-1.3,0.3c-0.5,0-1,0-1.4-0.4c-0.3-0.2-0.6-0.3-0.9-0.2c-0.5,0.1-0.8-0.1-1.1-0.5
		c-0.2-0.3-0.5-0.4-0.9-0.2c-0.6,0.3-1.2,0.2-1.9,0.2c-0.3,0-0.5-0.3-0.8-0.4c-0.1,0-0.1-0.1-0.2,0c-0.4,0.2-0.8,0.1-1.3,0
		c-0.5-0.1-0.9-0.2-1.4,0.2c-0.5,0.3-1.1,0.7-1.6,0.9c-0.1,0.1-0.3,0.1-0.4,0.1c-0.4,0-0.8,0-1.2,0c-0.3,0-0.6,0.2-1,0.2
		c-0.2,0-0.3,0-0.5-0.1c-0.2-0.1-0.4-0.1-0.5,0c-0.3,0.2-0.7,0-0.9-0.2c-0.2-0.2-0.2-0.5,0-0.7c0.4-0.6,0.8-1.1,1.6-1.1
		c0.4,0,0.8-0.1,1.2,0c0.2,0.1,0.4,0,0.6-0.1c0.1,0,0.1-0.1,0.2,0c0.5,0,0.9-0.2,1.4-0.3c0.5-0.1,0.8-0.4,1.2-0.5
		c-0.6-0.1-1.2-0.3-1.8-0.2c-0.3,0-0.7-0.1-1-0.2c-0.3-0.1-0.7-0.2-1-0.3c-0.4-0.1-0.8-0.4-1.1-0.6c-0.4-0.3-0.9-0.4-1.3-0.5
		c-0.2-0.1-0.4-0.2-0.6-0.3c-0.3-0.2-0.5-0.3-0.8-0.4c-0.9-0.2-1.9-0.3-2.8-0.8c-0.5-0.3-1.1-0.6-1.7-0.8c-0.2-0.1-0.4-0.1-0.7-0.1
		c-0.5,0-1-0.1-1.5,0.1c-0.3,0.1-0.6,0.2-0.9,0.2c-0.2,0-0.4,0-0.5-0.2c-0.1-0.2-0.2-0.1-0.4,0c-0.3,0.4-0.7,0.5-1.2,0.5
		c-0.2,0-0.3,0-0.4-0.2c0-0.1-0.1-0.1-0.1-0.1c-0.6,0.2-1.1,0.1-1.7,0.1c-0.2,0-0.4,0-0.6,0.1c-0.3,0.1-0.5,0-0.5-0.3
		c-0.1-0.7,0.3-1.2,1.1-1.7c0.3-0.1,0.5-0.3,0.9-0.3c0-0.2-0.1-0.2-0.2-0.2c-0.2-0.1-0.3-0.3-0.3-0.5c0-0.2,0.1-0.4,0.3-0.5
		c0.7-0.4,1.3-0.1,1.9,0.2c0.4,0.2,0.7,0.3,1.1,0.1c0.3-0.1,0.6-0.1,0.8,0c0.3,0.2,0.6,0,0.8-0.1c0.1,0,0.1-0.1,0-0.2
		c-0.1-0.1-0.2-0.2-0.4-0.2c-0.3,0-0.5-0.1-0.7-0.3c-1.1-0.8-1.9-1.8-2.8-2.7c-0.1-0.1-0.3-0.2-0.5-0.3c-0.5-0.2-1.1-0.4-1.6-0.5
		c-0.3-0.1-0.6-0.3-1-0.1c-0.1,0.1-0.3,0-0.5-0.1c-0.3-0.2-0.7-0.4-1-0.5c-0.4-0.1-0.9-0.2-1.3,0c-0.2,0.1-0.4,0-0.6,0.1
		c-0.5,0.2-1,0.6-1.5,0.8c-0.3,0.1-0.7,0.2-1,0.2c-0.4-0.1-0.4-0.3-0.4-0.7c0-0.1,0.1-0.2,0.1-0.3c0-0.1,0.1-0.2,0-0.2
		c-0.1-0.1-0.2-0.1-0.3,0c-0.2,0.2-0.5,0.1-0.7,0c-0.2-0.1-0.2-0.2-0.2-0.4c0-0.2-0.1-0.3-0.3-0.5c-0.5-0.3-1-0.6-1.3-1.1
		c-0.1-0.1-0.1-0.3,0.1-0.4c0.2-0.1,0.4-0.1,0.6-0.2c0.5-0.2,1-0.2,1.6-0.2c0.1,0,0.2,0,0.2-0.1c0.1-0.3,0.4-0.4,0.7-0.3
		c0.5,0,0.5,0,0.5-0.5c0-0.2,0-0.4,0-0.6c0-0.2,0.1-0.3,0.3-0.4c0.2-0.1,0.3,0,0.4,0.1c0.2,0.2,0.5,0.5,0.8,0.7
		c0.2,0.2,0.4,0.3,0.7,0.3c0.5,0.1,0.9,0.4,1.1,0.8c0.3,0.6,0.6,1.1,0.8,1.7c0.1,0.3,0.4,0.4,0.7,0.5c0.6,0.2,1.3,0.4,2,0.6
		c0.1,0,0.1,0,0.2,0c0,0,0.1,0,0.1-0.1c0-0.1,0-0.1,0-0.1c-0.5-0.4-0.8-0.9-1.1-1.3c-0.4-0.5-0.9-1-1.3-1.5
		c-0.5-0.6-0.8-1.3-1.3-1.8c-0.3-0.3-0.5-0.7-0.7-1.1c-0.2-0.4-0.8-0.6-1.2-0.5c-0.4,0.1-0.8,0.3-1.1,0.5c-0.2,0.1-0.5,0.1-0.6,0
		c-0.2-0.2-0.4-0.2-0.6-0.2c-0.4,0-0.5-0.1-0.7-0.5C92.4,78,92.2,78,92,78c-0.4-0.1-0.6-0.3-0.9-0.6c-0.2-0.1-0.1-0.4,0.1-0.5
		c0.2-0.1,0.4-0.2,0.7-0.3c0,0,0.1,0,0.1-0.1c0-0.1-0.1-0.1-0.1-0.1c-0.8-0.4-1.5-0.1-2.2,0.2C89.1,77,88.4,77,87.6,77
		c-0.2,0-0.3-0.2-0.4-0.4c0-0.2-0.1-0.2-0.2-0.1c-0.5,0.2-0.9,0.3-1.4,0.2c-0.4,0-0.6-0.2-0.5-0.6c0-0.2-0.1-0.2-0.2-0.2
		c-0.7-0.2-1.5-0.3-2-1c-0.2-0.3-0.4-0.6-0.4-1c0-0.1,0-0.2,0.1-0.3c0.1,0,0.2,0,0.3,0.1c0.3,0.4,0.8,0.4,1.2,0.4
		c0.6,0,1.1,0,1.7,0.3c-0.1-0.2-0.2-0.4-0.3-0.6c-0.1-0.2,0-0.4,0.2-0.4c0.4,0,0.8-0.1,1.1,0.1c0.1,0.1,0.2,0,0.3,0
		c0.4-0.2,0.8-0.2,1.2,0c0.2,0.1,0.5,0,0.7,0.1c0.6,0.2,1,0.7,1.4,1.1c0.1,0.1,0.1,0.1,0.2,0.2c0.4,0.5,1,0.6,1.6,0.7
		c0.2,0,0.4,0.2,0.6,0.1c0.2-0.1,0.1-0.4,0.2-0.6c0-0.1,0.1-0.2,0.1-0.2c0-0.2,0.1-0.2,0.3-0.2c0.1,0,0.3,0,0.3,0.2
		c0.1,0.4,0.5,0.5,0.8,0.7c0.1,0.1,0.2,0,0.2-0.1c0-0.1,0-0.2,0-0.3c-0.3-0.7-0.6-1.4-0.9-2.1c-0.1-0.2-0.2-0.4-0.2-0.6
		c0-0.3-0.2-0.6-0.2-1c0-0.2-0.1-0.3-0.2-0.5c-0.1-0.5-0.2-1.1-0.5-1.5c-0.4-0.5-0.8-0.9-1.3-1.3c-0.7-0.5-1.5-0.6-2.3-0.3
		c-0.4,0.2-0.8,0-1.1-0.3c-0.1-0.1-0.2-0.1-0.3-0.1c-0.5,0-0.7-0.2-0.8-0.7c0-0.1-0.1-0.2-0.2-0.2c-0.4-0.1-0.8-0.2-1.1-0.4
		c-0.2-0.1-0.5-0.3-0.7-0.4c-0.2-0.2-0.1-0.5,0.2-0.7c0.5-0.3,1-0.5,1.5-0.5c0.3,0,0.5,0,0.6-0.4c0.1-0.4,0.9-0.5,1.2-0.2
		c0.2,0.2,0.4,0.5,0.7,0.7c0-0.2,0.1-0.4,0.3-0.5c0.2-0.1,0.5-0.1,0.5,0.2c0.1,0.3,0.2,0.4,0.4,0.5c0.1,0,0.2,0.1,0.2,0.2
		c0,0.1,0.1,0.1,0.2,0.1c0.1,0,0.1-0.1,0-0.2c-0.2-0.3,0-0.6-0.2-0.9c-0.2-0.5-0.1-1-0.3-1.5c-0.1-0.2,0-0.4,0-0.6
		c0-0.4,0-0.8,0-1.2c0-0.5-0.2-0.9-0.2-1.4c0-0.4,0.1-0.7,0.2-1.1c0-0.2,0.3-0.4,0.5-0.5c0.1,0,0.1,0,0.2,0.1
		c0.2,0.1,0.3,0.1,0.4-0.1c0.2-0.5,0.5-0.8,0.8-1.2c0.2-0.3,0.5-0.3,0.8-0.2c0.3,0.1,0.3,0.4,0.2,0.8c-0.1,0.3-0.2,0.6-0.3,0.9
		c0,0.1,0,0.2,0,0.3c0.4,0.4,0.2,0.7-0.1,1.1c-0.1,0.1-0.2,0.3-0.2,0.5c0,0.4-0.2,0.7-0.4,0.9c-0.3,0.3-0.7,0.7-0.8,1.1
		c-0.1,0.4-0.3,0.8-0.2,1.3c0,0.4,0,0.7,0,1.1c-0.1,0.6,0.2,1,0.4,1.5c0.1,0.4,0.3,0.8,0.5,1.2c0,0.1,0,0.2,0,0.3
		c0,0.1,0,0.3-0.2,0.3c-0.2,0-0.2-0.1-0.2-0.3c-0.1-0.4-0.4-0.8-0.6-1.2c0,0.3,0.1,0.6,0.3,0.9c0.1,0.2,0.3,0.4,0.3,0.7
		c0,0.1,0.1,0.2,0.2,0.3c0.4,0.2,0.7,0.5,1,0.9c-0.1-0.3-0.2-0.6-0.3-0.9c-0.1-0.4-0.3-0.9-0.3-1.3c0-0.2,0.1-0.3,0.3-0.3
		c0.1,0,0.2-0.1,0.1-0.2c-0.1-0.3-0.1-0.6,0-0.8c0-0.2,0.1-0.5,0.4-0.6c0.4-0.1,0.5-0.5,0.7-0.8c0.1-0.3,0.2-0.6,0.3-1
		c0.1-0.2,0.2-0.3,0.3-0.4c0.2-0.1,0.4,0,0.4,0.2c0,0.3,0.2,0.6,0.2,0.9c0.1,0.3,0.1,0.6,0,0.9c0,0.1-0.1,0.1,0,0.2
		c0.5,0.3,0.2,0.8,0.2,1.2c0,0.1,0,0.3,0,0.4c0.1,0.5,0.2,1-0.3,1.3c-0.1,0.1-0.2,0.3-0.4,0.4c-0.6,0.4-0.7,1.1-0.7,1.7
		c0,0.2,0,0.4,0,0.6c0,0.5,0.2,1,0.3,1.5c0.1,0.5,0.4,0.9,0.5,1.4c0.1,0.5,0.4,0.9,0.6,1.3c0.1,0.3,0.3,0.5,0.5,0.7
		c0.1,0.2,0.2,0.4,0.1,0.6c-0.1,0.2,0,0.4,0.1,0.6c0.3,0.4,0.5,0.8,0.7,1.2c0.2,0.3,0.4,0.5,0.6,0.7c0.6,0.4,1.3,0.8,1.9,1.2
		c0.6,0.4,1,0.9,1.4,1.4c0.3,0.3,0.6,0.8,0.8,1.3c0.2,0.4,0.5,0.8,0.7,1.2c0.2,0.4,0.4,0.8,0.4,1.3c0,0.1,0,0.1,0,0.2
		c0,0.1-0.2,0.1-0.1,0.3c0.1,0.2,0.3,0.3,0.5,0.4c0.7,0.2,1.2,0.6,1.6,1.1c0.1,0.1,0.1,0.2,0.1,0.3c-0.1,0.5,0.3,0.8,0.6,1
		c0.3,0.2,0.6,0.6,1,0.7c0-0.2-0.2-0.3-0.3-0.4c-0.3-0.3-0.5-0.7-0.5-1.2c0-0.1,0-0.2-0.1-0.3c-0.3-0.6-0.4-1.2-0.4-1.8
		c0-0.3,0-0.6,0-0.8c0-0.1,0-0.2,0.1-0.2c0.1,0,0.2,0,0.2,0.1c0.4,0.7,1,1.1,1.4,1.8c0,0,0.1,0.1,0.1,0.1c0.5-0.2,0.6,0.3,0.7,0.5
		c0.3,0.4,0.6,0.9,1,1.2c0.3,0.3,0.5,0.6,0.5,1c0.1,0.4,0.4,0.8,0.5,1.2c0.1,0.3,0.3,0.7,0.6,0.8c0.4,0.2,0.6,0.5,0.9,0.8
		c0.2,0.1,0.3,0.3,0.4,0.5c0.3,0.4,0.7,0.5,1.2,0.8c-0.1-0.2-0.2-0.4-0.4-0.5c-0.3-0.2-0.4-0.6-0.5-0.9c-0.1-0.3,0.1-0.5,0.4-0.5
		c0.3,0,0.4-0.1,0.4-0.4c0-0.3,0-0.5,0.2-0.7c0.2-0.2,0.4-0.2,0.5,0c0.2,0.4,0.7,0.6,0.8,1.1c0.1,0.2,0.3,0.2,0.5,0.3
		c0.3,0.1,0.4,0.3,0.4,0.6c0,0.2,0.1,0.3,0.3,0.4c0.4,0.1,0.4,0.4,0.5,0.8c0.2,0.7,0.4,1.3,1.1,1.3c0.1,0,0.2,0.1,0.3,0.1
		c0.6,0.3,1.2,0.5,1.9,0.7c0.6,0.1,1.2,0.2,1.7,0.3c0.7,0.2,1.4,0.3,2.1,0.4c0.4,0.1,0.7,0,1.1,0c0.1,0,0.2-0.1,0.2-0.2
		c0.2-0.3,0.5-0.4,0.8-0.5c0.3-0.1,0.5-0.2,0.8-0.2c0.8,0,1.5,0.2,2,0.8c0.2,0.2,0.7,0.3,1,0.1c0.1-0.1,0.2-0.1,0.3-0.1
		c0.5,0,1.1-0.2,1.6-0.4c0.6-0.2,1.1-0.3,1.7-0.5c0.6-0.2,1.2-0.4,1.6-0.9c0.3-0.3,0.6-0.7,0.5-1.1c-0.1-0.4,0.1-0.8,0.2-1.2
		c0.1-0.2,0.3-0.5,0.6-0.4c0.4,0,0.8,0,1.2-0.3c0.2-0.1,0.4,0,0.6-0.1c0.3-0.1,0.5-0.3,0.7-0.5c0.3-0.4,0.7-0.6,1.2-0.5
		c0.2,0,0.3,0,0.5,0c0.1,0,0.2,0,0.2,0.1c0,0.1,0,0.2-0.1,0.3c-0.5,0.2-0.5,0.9-0.9,1.2c-0.1,0.1,0.1,0.3,0.2,0.4
		c0.1,0.1,0.2,0,0.2-0.1c0.5-0.6,1.2-0.9,1.8-1.4c0.3-0.2,0.6-0.5,0.9-0.7c0.3-0.2,0.6-0.5,0.9-0.7c0.3-0.2,0.4-0.5,0.4-0.9
		c0-0.4,0-0.7-0.1-1.1c-0.1-0.4,0-1.5,0.6-1.7c0.1,0,0.2-0.1,0.3-0.1c0.2,0.1,0.3,0,0.3-0.2c0-0.4,0.2-0.7,0.5-1
		c0.1-0.1,0.3-0.2,0.4-0.1c0.1,0.1,0.2,0.1,0.2,0c0.1-0.2,0.2-0.3,0.2-0.5c0-0.4,0.3-0.7,0.5-1.1c0.1-0.2,0.4-0.3,0.6-0.3
		c0.3,0,0.4,0.1,0.4,0.4c0,0.2,0,0.3-0.1,0.5c-0.1,0.2,0,0.3,0.1,0.3c0.2,0,0.1-0.1,0.2-0.3c0.2-0.5,0.4-0.8,0.9-1
		c0.4-0.2,0.7-0.3,1.1-0.3c0.1,0,0.3,0,0.3,0.1c0,0.1,0,0.2-0.1,0.3c-0.2,0.1-0.2,0.3-0.2,0.5c0,0.4,0,0.7-0.1,1.1
		c0,0.1-0.1,0.1,0,0.2c0.1,0,0.1,0,0.2-0.1c0.2-0.2,0.5-0.4,0.7-0.7c0.4-0.5,0.9-0.9,1.3-1.4c0.2-0.2,0.3-0.5,0.4-0.8
		c0.3-0.8,0.7-1.6,1.2-2.3c0.3-0.4,0.2-0.8,0.4-1.2c0.1-0.4,0.2-0.8,0.3-1.1c0.1-0.5,0.2-1-0.1-1.5c-0.1-0.2,0-0.5-0.2-0.7
		c-0.2-0.4-0.5-0.8-0.7-1.2c-0.1-0.2-0.2-0.5-0.3-0.8c-0.2,0.2-0.3,0.6-0.5,0.8c-0.4,0.7-0.7,1.5-1.1,2.2c-0.4,0.7-0.8,1.3-1.2,2
		c-0.3,0.5-0.6,1-1,1.5c-0.4,0.6-0.8,1.1-1.2,1.7c-0.5,0.7-1.1,1.2-1.6,1.9c-0.7,0.9-1.5,1.5-2.2,2.3c-0.4,0.4-0.8,0.8-1.2,1.2
		c-0.5,0.5-1.1,0.8-1.5,1.3c-0.4,0.3-0.8,0.6-1.1,0.9c-0.2,0.2-0.5,0.3-0.7,0.5c-0.4,0.3-0.8,0.6-1.2,0.8c-0.5,0.3-0.9,0.6-1.4,0.9
		c-0.7,0.4-1.5,0.7-2.3,1.1c-0.5,0.2-1,0.4-1.5,0.5c-0.4,0.1-0.7,0.3-1.1,0.4c-0.4,0.1-0.8,0.2-1.2,0.3c-0.4,0.1-0.9,0-1.3,0.2
		c-0.3,0.1-0.6,0-0.9,0c-0.2,0-0.4,0-0.6,0.1c0,0,0,0-0.1,0c-0.8,0-1.6,0.1-2.5-0.1c-0.2,0-0.3-0.1-0.5,0c-0.8,0-1.6-0.2-2.4-0.3
		c-0.4,0-0.8-0.2-1.3-0.2c-0.4,0-0.9-0.2-1.3-0.4c-0.3-0.1-0.6-0.1-0.8-0.2c-0.6-0.3-1.3-0.4-2-0.7c-1.1-0.4-2.1-0.9-3.1-1.4
		c-0.6-0.3-1.1-0.6-1.7-1c-0.5-0.3-1-0.6-1.5-0.9c-0.3-0.2-0.5-0.3-0.8-0.5c-0.3-0.3-0.6-0.5-1-0.7c-0.1,0-0.1-0.1-0.2-0.1
		c-1-0.8-1.9-1.7-2.8-2.6c-0.4-0.4-0.8-0.7-1.1-1.1c-0.3-0.4-0.7-0.8-1-1.3c-0.2-0.3-0.5-0.6-0.7-0.9c-0.3-0.4-0.6-0.8-0.9-1.2
		c-0.3-0.5-0.7-1-1-1.6c-0.4-0.6-0.7-1.3-1-1.9c-0.1-0.2-0.3-0.3-0.4-0.5c-0.2-0.7-0.6-1.2-0.8-1.9c-0.2-0.7-0.6-1.3-0.8-1.9
		c-0.3-0.9-0.5-1.7-0.9-2.6c-0.3-0.8-0.4-1.7-0.7-2.5c-0.2-0.5-0.3-1.1-0.4-1.7c-0.1-0.7-0.3-1.3-0.4-2c0,0,0,0,0,0
		c0.1-0.5-0.2-1-0.2-1.6c-0.1-0.5,0-1.1-0.2-1.6c-0.1-0.1,0-0.3,0-0.5c-0.2-1-0.1-1.9-0.3-2.9c0-0.1,0-0.2,0-0.3c0-0.6,0-1.3,0-1.9
		c0-0.3,0-0.6-0.1-0.9c-0.1-0.1,0-0.2,0-0.3c0-1.3-0.1-2.5,0-3.8c0.1-1.1,0-2.1,0.2-3.2c0.1-0.5,0-1.1,0.1-1.6
		c0.2-0.6,0-1.2,0.3-1.7c0,0,0-0.1,0-0.1c-0.1-0.5,0.1-1.1,0.2-1.6c0-0.4,0.2-0.7,0.2-1.1c0-0.5,0.2-0.9,0.3-1.4
		c0.1-0.3,0.2-0.6,0.2-0.9c0.1-0.5,0.3-1.1,0.4-1.6c0-0.2,0.1-0.3,0.2-0.4c0.2-0.8,0.5-1.6,0.7-2.4c0.2-0.5,0.4-1,0.6-1.5
		c0.4-1.1,0.9-2.1,1.5-3.1c0.2-0.3,0.4-0.6,0.5-0.9c0.2-0.5,0.5-0.9,0.7-1.3c0.4-0.6,0.7-1.2,1.1-1.7c0.4-0.4,0.6-0.9,1-1.4
		c0.2-0.3,0.5-0.6,0.7-0.9c0.7-0.7,1.2-1.5,1.9-2.2c0.5-0.5,1-0.8,1.5-1.3c0.4-0.4,1-0.8,1.4-1.2c0.4-0.3,0.8-0.6,1.3-0.9
		c0.5-0.3,1-0.6,1.5-0.9c0.7-0.4,1.5-0.8,2.2-1.2c0.6-0.3,1.2-0.6,1.9-0.9c0.6-0.2,1.1-0.5,1.7-0.6c0.2-0.1,0.5-0.1,0.7-0.3
		c0.2-0.1,0.5-0.1,0.8-0.2c0.5-0.2,1-0.2,1.5-0.4c0.6-0.2,1.3-0.3,1.9-0.4c0.6-0.1,1.1-0.2,1.7-0.2c1.7-0.1,3.4-0.1,5.1-0.1
		c0.6,0,1.2,0.1,1.8,0.2c0.5,0.1,1.1,0.2,1.6,0.4c0.4,0.1,0.8,0.2,1.2,0.4c0.4,0.1,0.7,0.3,1.1,0.4c0.2,0,0.4,0.1,0.5,0.2
		c1.1,0.4,2.1,0.9,3.1,1.5c0.6,0.3,1.2,0.7,1.8,1.1c0.7,0.5,1.4,1,2.1,1.5c1.5,1,2.6,2.4,3.9,3.6c0.5,0.5,0.9,1,1.3,1.5
		c0.6,0.7,1.2,1.4,1.6,2.2c0.2,0.4,0.5,0.7,0.8,1.1c0.7,1.1,1.4,2.3,2,3.5c0.3,0.6,0.6,1.3,0.9,1.9c0.3,0.5,0.4,1.1,0.6,1.6
		c0.2,0.6,0.6,1.3,0.7,1.9c0.1,0.5,0.3,0.9,0.4,1.4c0.1,0.5,0.2,0.9,0.4,1.4c0.1,0.2,0.1,0.4,0.1,0.6c0,0.4,0.3,0.7,0.3,1.1
		c0,0.3,0.2,0.5,0.2,0.8c0,0.2,0.1,0.4,0.1,0.6c0.1,0.5,0.2,1,0.3,1.4c0,0.1,0.1,0.3,0.1,0.4c0,0.5,0.1,1.1,0.2,1.6
		c0.1,0.7,0,1.4,0.2,2c0.1,0.7,0.1,1.4,0.1,2c0,2.2,0.1,4.4,0,6.7c0,0.8,0,1.6-0.1,2.4c-0.1,0.5-0.1,1.1-0.2,1.6
		c-0.1,0.5-0.1,1-0.2,1.5c-0.1,0.5,0,1-0.2,1.4c-0.2,0.5-0.1,1-0.2,1.5c-0.1,0.4-0.2,0.9-0.2,1.3c0,0.3-0.1,0.7-0.2,1
		c-0.1,0.5-0.3,1-0.4,1.6c-0.1,0.3-0.2,0.6-0.2,0.9c0.1,0,0.2-0.1,0.2-0.1c0.1-0.1,0.2-0.2,0.4-0.1c0.1,0.1,0.3,0.2,0.2,0.4
		c0,0.3,0.2,0.5,0.2,0.8c0,0.1,0.1,0.1,0.1,0.1c0,0,0.1,0,0.1,0c0.7-0.2,1.2,0.2,1.2,0.9c0,0.2,0,0.3,0.1,0.5c0.1,0.2,0.1,0.4,0,0.5
		c-0.2,0.4,0,0.8-0.3,1.2c0.2,0,0.2-0.1,0.2-0.3c0-0.4,0.2-0.8,0.3-1.2c0.1-0.7,0.4-1.4,0.6-2.1c0.1-0.7-0.2-1.1-0.6-1.6
		c-0.3-0.4-0.6-0.6-1-0.8c0,0,0,0-0.1,0c-0.2-0.2-0.5-1.2-0.4-1.5c0.1-0.2,0.4-0.2,0.7-0.1c0.1,0,0.1,0.1,0.2,0.1
		c0.1-0.1,0-0.1,0-0.2c-0.2-0.5-0.1-1-0.1-1.5c0.4-0.2,0.2-0.6,0.2-0.9c0-0.3,0-0.6,0.4-0.7c0.1-0.1,0.1-0.2,0.1-0.3
		c-0.1-0.5,0.1-1,0.3-1.4c0.1-0.2,0.3-0.3,0.5-0.3c0.2,0,0.3,0.1,0.2,0.3c0.1-0.1,0.1-0.2,0.1-0.3c-0.1-0.7,0.3-1.4,0.2-2.1
		c0-0.3-0.1-0.7,0-1c0.2-0.4,0.1-0.9,0.3-1.3c0.1-0.3,0.1-0.6,0.1-0.9c0.1-0.5,0.2-1.1,0.3-1.6c0.1-0.8,0.1-1.5,0.1-2.3
		c0-0.2,0-0.4-0.2-0.7c-0.2-0.4-0.4-0.8-0.3-1.3c0-0.4-0.2-0.6-0.4-0.9c-0.1-0.1-0.2-0.2-0.3-0.2c-0.3,0-0.7-0.1-1-0.2
		c-0.2-0.1-0.4-0.2-0.4-0.5c0-0.1,0-0.2,0-0.3c0-0.3,0.1-0.5,0.4-0.5c0.3-0.1,0.3-0.1,0.2-0.4c-0.3-0.5-0.7-0.9-1-1.5
		c-0.1-0.3-0.2-0.6,0-0.8c0.2-0.3,0.4-0.5,0.8-0.3c0.2,0.1,0.2,0,0.2-0.2c0.1-0.6,0.2-1.1,0.5-1.7c0.1-0.2,0.3-0.4,0.5-0.5
		c0.2-0.1,0.3-0.1,0.4,0.1c0.1,0.5,0.4,0.9,0.6,1.4c0.1,0.3,0.2,0.5,0.5,0.5c0.3,0,0.3,0.3,0.4,0.5c0.1,0.3,0.2,0.5,0.2,0.8
		c0,0.2,0.1,0.1,0.2,0c0.1-0.1,0.3-0.3,0.5-0.2c0.2,0.1,0.3,0.3,0.3,0.6c0,0.6,0,1.1,0,1.7c0,0.2-0.1,0.4-0.3,0.6
		c-0.3,0.4-0.5,0.8-0.6,1.3c-0.1,0.3-0.2,0.6-0.2,1c0.1,0.7-0.2,1.3-0.4,1.9c0,0-0.1,0.1-0.1,0.1c0.1,0.5-0.2,1-0.2,1.5
		c0,0.3,0,0.6-0.1,0.8c-0.1,0.1,0,0.3,0,0.5c0.2-0.2,0.3-0.4,0.4-0.6c0.4-0.6,0.8-1,1.4-1.4c0.1-0.1,0.1-0.2,0.1-0.3
		c-0.1-0.4,0.1-0.6,0.3-0.9c0.2-0.3,0.4-0.6,0.6-0.9c0-0.1,0.1-0.1,0.1-0.2c0.4-0.2,0.4-0.6,0.3-1c-0.1-0.6,0.1-1.2,0.2-1.8
		c0.1-0.8,0-1.6,0.1-2.4c0-0.1,0-0.1,0-0.2c0.1-1-0.1-1.9-0.6-2.7c-0.3-0.5-0.6-1.1-1.2-1.3c-0.2-0.1-0.4-0.2-0.6-0.2
		c-0.5-0.2-0.7-0.6-0.6-1.1c0-0.3,0-0.4-0.3-0.6c-0.4-0.2-0.7-0.4-0.8-0.9c0-0.2,0-0.4,0.2-0.5c0.2-0.1,0.3-0.1,0.5,0
		c0.1,0.1,0.2,0.1,0.3,0c0.1-0.1-0.1-0.2-0.1-0.2c-0.2-0.2-0.5-1.2-0.3-1.5c0.2-0.4,0.6-0.5,1-0.2c0.3,0.3,0.7,0.6,0.8,1
		c0.1,0.2,0.2,0.3,0.4,0.3c0.5,0.1,0.9,0.5,0.9,1c0,0.1,0,0.3,0,0.4c0.1,0,0.1-0.1,0.1-0.1c-0.1-0.2,0-0.3,0-0.5
		c0.1-0.2,0.2-0.5-0.1-0.7c-0.1-0.1-0.2-0.2-0.3-0.3c-0.1-0.1-0.2-0.3-0.4,0c-0.1,0.2-0.5,0-0.6-0.3c0-0.1-0.1-0.2-0.1-0.3
		c-0.1-0.5-0.6-0.5-0.8-0.8c-0.2-0.2-0.5-0.4-0.8-0.5c-0.4-0.2-0.8-0.1-1.1,0c-0.2,0.1-0.4,0.1-0.7,0.1c-0.4,0-0.8,0-1.2,0
		c-0.3,0-0.5-0.1-0.6-0.4c0-0.2-0.1-0.2-0.3-0.1c-0.3,0.1-0.7,0.2-1,0c-0.2-0.1-0.3-0.2-0.3-0.4c0-0.1,0-0.2-0.1-0.3
		c-0.3-0.1-0.5-0.4-0.7-0.5c-0.3-0.2-0.3-0.4,0-0.6c0.2-0.1,0.4-0.2,0.5-0.3c0.2-0.1,0.2-0.2,0-0.3c-0.3-0.2-0.4-0.6-0.4-0.9
		c0-0.3,0.1-0.4,0.4-0.3c0.1,0,0.2,0,0.3,0c0.3,0,0.7,0,1,0.2c0.2,0.1,0.3,0.1,0.3-0.2c0-0.2,0.1-0.4,0.2-0.5
		c0.1-0.2,0.3-0.1,0.4,0.1c0.1,0.2,0.1,0.4,0.3,0.5c0,0,0.1,0.1,0.1,0.1c0,0,0-0.1,0.1-0.1c0,0,0-0.1,0-0.1c0-0.2,0.1-0.4,0.3-0.5
		c0.2-0.1,0.3,0.1,0.4,0.3c0.3,0.4,0.7,0.9,0.9,1.4c0.3,0.6,0.6,1.2,0.9,1.8c0.2,0.4,0.5,0.7,0.9,0.9c0.2,0.1,0.4,0.3,0.5,0.4
		c0.1,0,0.1,0.1,0.2,0c0.1-0.1,0-0.1,0-0.2c-0.1-0.6-0.2-1.1,0-1.7c0.1-0.2,0.1-0.4,0-0.5c0-0.1-0.1-0.2-0.2-0.1
		c-0.1,0.1-0.3,0.1-0.4,0.2c-0.1,0.1,0.2,0.2,0.2,0.3c0.2,0.3,0.1,0.6,0.1,0.9c0,0.2-0.3,0.2-0.5,0c-0.2-0.3-0.5-0.6-0.5-0.9
		c0-0.4-0.2-0.8-0.2-1.2c0-0.5-0.3-1.1-0.6-1.5c-0.4-0.7-0.8-1.5-1.2-2.2c-0.2-0.3-0.5-0.5-0.9-0.5c-0.7-0.1-1.4-0.1-2.1-0.2
		c-0.4,0-0.8-0.2-1-0.7c-0.1-0.1-0.2-0.2-0.3-0.2c-0.5-0.1-0.6-0.6-0.3-0.9c0.1-0.1,0.2-0.2,0-0.4c-0.4-0.2-0.5-0.5-0.6-0.9
		c0-0.2-0.1-0.3-0.3-0.3c-0.3,0-0.5-0.1-0.8,0c-0.3,0.1-0.6-0.2-0.6-0.5c0-0.2,0-0.3,0-0.5c0-0.2,0-0.4-0.2-0.5
		c-0.3-0.3-0.2-0.6-0.1-0.9c0.1-0.4,0.4-0.8,0.9-1c0.1,0,0.1-0.1,0.1-0.2c-0.3,0.1-0.6,0.1-0.8,0.2c-0.4,0.2-0.9,0.2-1.3,0.4
		c-0.3,0.1-0.7,0.1-1-0.1c-0.1,0-0.1,0-0.2-0.1c-0.2,0-0.4-0.2-0.4-0.4c0-0.2-0.1-0.4-0.4-0.3c-0.5,0-1.1,0-1.6-0.1
		c-0.4-0.1-0.5-0.6-0.3-0.9c0.1-0.1,0.2-0.2,0.4-0.3c0.5-0.3,1-0.3,1.5-0.3c0.1,0,0.2,0,0.4,0c0.2,0,0.4,0,0.3-0.3
		c-0.1-0.3,0.1-0.5,0.4-0.5c0.5,0,0.9,0.2,1.2,0.5c0.5,0.5,0.9,1,1.6,1.3c0.1,0,0.1,0.1,0.2,0.1c0.3,0,0.5,0.1,0.7,0.4
		c0,0,0-0.1,0.1-0.1c-0.3-0.3-0.5-0.6-0.8-0.8c-0.6-0.4-1.2-0.9-1.7-1.4c-0.2-0.2-0.4-0.3-0.6-0.4c-0.5-0.3-0.7-0.7-0.9-1.1
		c-0.3-0.5-0.7-0.9-1.1-1.3c-0.1-0.1-0.2-0.1-0.3,0c-0.2,0.1-0.4,0.1-0.6,0c-0.4-0.2-0.7,0-0.9,0.4c-0.1,0.2-0.2,0.5-0.4,0.7
		c-0.2,0.2-0.4,0.3-0.7,0.3c-0.4,0-0.7,0.1-1,0.4c-0.2,0.2-0.5,0.1-0.6-0.3c-0.1-0.2,0.1-0.4-0.1-0.6c-0.2-0.1-0.4,0-0.6,0
		c-0.5,0-0.6-0.2-0.6-0.6c0-0.2,0.2-0.3,0.3-0.4c0.2-0.1,0.4-0.2,0.7-0.3c0.1,0,0.1-0.1,0.1-0.2c0-0.6,0.5-1,1.1-0.7
		c0.4,0.2,0.7,0.3,1.1,0.6c0.4,0.2,0.8,0.2,1.2,0.2c0.1,0,0.2,0,0.2-0.1c0-0.1-0.1-0.1-0.1-0.1c-0.5-0.3-1-0.7-1.6-1
		c-0.6-0.4-1.2-0.7-1.9-1c-0.3-0.1-0.6-0.3-0.8-0.4c-0.1-0.1-0.2-0.1-0.4-0.1c-0.5,0-1,0-1.4,0c-0.4,0-0.7,0.1-1,0.3
		c-0.5,0.2-1,0.5-1.6,0.5c-0.4,0-0.6-0.1-0.8-0.4c-0.1-0.2-0.1-0.2-0.3-0.1c-0.3,0.1-0.6,0.2-0.8,0.3c-0.4,0.2-0.7,0.6-1.1,0.8
		c-0.4,0.2-0.8,0.2-1.1,0.1c-0.2,0-0.2-0.2-0.2-0.4c0-0.3-0.1-0.4-0.4-0.4c-0.5,0-0.7-0.2-0.4-0.7c0.2-0.4,0.6-0.6,0.9-0.8
		c0.4-0.3,0.8-0.5,1.2-0.7c0.1-0.1,0.2-0.1,0.1-0.3c-0.2-0.3-0.1-0.6,0.3-0.6c0.6,0,1.2-0.2,1.8-0.1c0.3,0,0.5,0,0.8,0
		c-0.3-0.2-0.6-0.4-0.9-0.5c-0.9-0.3-1.9-0.2-2.8-0.2c-0.1,0-0.3,0-0.4,0.1c-0.4,0.2-0.8,0.1-1.2-0.1c-0.1-0.1-0.1-0.2-0.1-0.3
		c0-0.2-0.1-0.3-0.3-0.3c-0.2,0-0.4,0-0.7,0c-0.4,0-0.8-0.2-1.2-0.4c-0.4-0.3-0.4-0.5,0-0.8c0.3-0.2,0.2-0.3,0-0.4
		c-0.2-0.1-0.3-0.3-0.5-0.4c-0.2-0.2-0.2-0.4,0.1-0.5c0.2-0.1,0.3-0.3,0.2-0.5c-0.3-0.4-0.3-0.8-0.3-1.2c0-0.3,0.1-0.3,0.4-0.2
		c0.7,0.3,1.4,0.6,2,1c0.1,0.1,0.1,0,0.2-0.1c0.3-0.3,0.5-0.3,0.8,0c0.4,0.4,0.8,0.9,1.2,1.2c0.3,0.2,0.4,0.5,0.4,0.8
		c0,0.2,0.1,0.5,0.3,0.6c0.3,0.3,0.6,0.6,1,0.8c0.3,0.1,0.6,0.1,0.8,0.2c0.3,0.1,0.7,0.3,1.1,0.3c-0.2-0.3-0.5-0.5-0.9-0.6
		c-0.6-0.2-1.2-0.5-1.6-1c-0.3-0.4-0.4-0.8-0.6-1.1c-0.1-0.2-0.1-0.4,0.1-0.5c0.2-0.2,0.5-0.1,0.7,0c0.2,0.1,0.4,0.1,0.6,0.2
		c0.1,0.1,0.2,0,0.2-0.2c0.1-0.3,0.2-0.6,0.4-0.9c0.3-0.7,0.7-1.1,1.4-1.4c0.2-0.1,0.4-0.3,0.7-0.3c0.3,0,0.4,0.1,0.3,0.4
		c0,0.1-0.1,0.2,0,0.3c0.1,0.2,0.1,0.5,0.1,0.8c0,0.1,0,0.2,0.1,0.2c0.1,0,0.2,0,0.2-0.1c0.3-0.2,0.5-0.4,0.9-0.3
		c0.1,0,0.2,0,0.3-0.1c0.2-0.1,0.3-0.1,0.5-0.1c0.6,0.2,1.2,0.3,1.8,0.6c0.2,0.1,0.3,0.2,0.3,0.4c0,0.2-0.1,0.3-0.2,0.3
		c-0.3,0.1-0.3,0.5-0.5,0.7c0,0,0,0.1-0.1,0.1c-0.4,0.2-0.1,0.4,0,0.6c0.2,0.2,0.3,0.5,0.4,0.8c0.1,0.2-0.1,0.3-0.2,0.4
		c-0.3,0.2-0.6,0.3-0.9,0.4c-0.2,0.1-0.2,0.1-0.1,0.2c0.4,0.3,0.5,0.7,0.4,1.1c0,0.2,0,0.3-0.2,0.4c-0.2,0-0.4,0.1-0.6-0.1
		c-0.1-0.1-0.1-0.2-0.2-0.2c-0.3-0.1-0.5-0.3-0.9-0.3c-0.2,0-0.3,0.1-0.2,0.3c0.3,0.5,0.6,1,1.2,1.3c0.1,0,0.2,0.1,0.3,0.1
		c0.4,0,0.8,0.2,1.1,0.4c0.4,0.3,0.9,0.6,1.4,0.8c0.4,0.2,0.7,0.4,1.1,0.7c0.1,0.1,0.3,0.1,0.4,0.2c0.1-0.1,0-0.2,0-0.2
		c-0.1-0.4-0.1-0.7,0.3-0.8c0.2-0.1,0.2-0.1,0.1-0.3c-0.2-0.2-0.2-0.4-0.1-0.7c0.1-0.1,0-0.2-0.1-0.3c-0.1-0.1-0.2-0.3-0.4-0.4
		c-0.3-0.3-0.3-0.8-0.3-1.2c0-0.1,0.1-0.2,0.2-0.2c0.3,0,0.4-0.1,0.4-0.4c0-0.2,0-0.5,0-0.7c-0.1-0.5,0.2-0.7,0.5-1
		c0.1-0.1,0.3-0.1,0.5-0.1c0.2,0.1,0.1,0.2,0,0.4c-0.1,0.2,0.1,0.4,0.2,0.6c0.2,0.3,0.5,0.5,0.8,0.8c0.1,0.1,0.2,0.1,0.3,0
		c0.2-0.3,0.5-0.3,0.8-0.3c0.3,0,0.3,0.3,0.4,0.5c0.1,0.5,0.2,1-0.1,1.4C148,8,148,8.2,148.2,8.3c0.2,0.1,0.4,0.3,0.4,0.5
		c0.1,0.4,0.1,0.8-0.1,1.2c-0.2,0.3-0.4,0.6-0.5,0.9c-0.2,0.4-0.2,0.6,0.1,0.9c0.2,0.2,0.3,0.5,0.2,0.7c0,0.6,0.3,0.9,0.5,1.3
		c0.2,0.3,0.5,0.6,0.8,0.8c0.5,0.3,0.8,0.8,1.4,1c-0.2-0.3-0.1-0.6-0.1-0.8c-0.2-0.5-0.3-1-0.4-1.6c-0.2-0.7-0.2-1.5,0-2.2
		c0.1-0.5,0.4-0.5,0.8-0.2c0.1,0.1,0.1,0.1,0.2,0.2c0.1,0.1,0.3,0.2,0.4-0.1c0.2-0.4,0.5-0.6,0.8-0.8c0.4-0.3,0.9-0.4,1.3-0.6
		c0.3-0.1,0.6,0,0.8-0.1c0.1,0,0.2,0.1,0.3,0.2c0,0.1,0,0.2-0.1,0.2c-0.3,0.2-0.4,0.5-0.5,0.8c-0.1,0.3-0.3,0.6-0.5,0.8
		c-0.1,0.2-0.1,0.3,0,0.4c0.3,0.3,0.4,0.7,0.1,1.1c-0.1,0.1-0.2,0.2-0.3,0.2c-0.8,0.3-1.4,0.9-1.9,1.7c-0.2,0.4-0.3,0.9-0.3,1.4
		c0.1,0.5,0.4,0.7,0.8,0.9c0.2,0.1,0.5,0.2,0.8,0.3c0.4,0.2,0.8,0.5,1.1,0.8c0.1,0.2,0.1,0.4,0,0.6c-0.1,0.2,0,0.3,0.1,0.4
		c0.2,0.2,0.4,0.4,0.6,0.6c0.4,0.5,0.8,0.9,1,1.5c0.1,0.3,0.3,0.7,0.5,1c0.1,0.2,0.1,0.3,0,0.5c0,0.1-0.1,0.2-0.3,0.1
		c-0.2-0.1-0.4-0.1-0.5-0.5c-0.1-0.4-0.3-0.7-0.5-1.1c-0.4-0.6-0.8-1.2-1.3-1.6c-0.3-0.3-0.7-0.5-1.1-0.7c-0.2-0.1-0.3-0.4-0.2-0.6
		c0.2-0.2,0.4-0.1,0.5,0c0,0,0.1,0,0.2,0.1c-0.1-0.2-0.3-0.3-0.4-0.4c0,0-0.1-0.1-0.1,0c-0.3,0.2-0.7,0.2-0.8,0.6
		c-0.1,0.3,0.1,0.6,0.3,0.8c0.2,0.2,0.3,0.3,0.5,0.5c0.2,0.3,0.3,0.6,0.3,1c0,0.2-0.2,0.4-0.4,0.4c-0.2,0-0.3,0-0.5,0
		c-0.1,0-0.2,0-0.2,0.1c0,0.1,0,0.2,0.2,0.2c0.2,0,0.5,0,0.7,0c0.1,0,0.1-0.1,0.1-0.1c0.3-0.3,0.6-0.3,0.9-0.1
		c0.1,0.1,0.2,0.2,0.3,0.3c0.2,0.2,0.3,0.3,0.6,0.2c0.1,0,0.2,0,0.3,0c0.3,0.3,0.6,0.5,0.7,0.9c0.2,0.4,0.3,0.8,0.5,1.1
		c0.1,0.2,0.3,0.5,0.5,0.6c0.3,0.3,0.7,0.6,0.9,1c0,0.1,0.1,0.1,0.1,0.1c0.1,0,0.1-0.1,0.1-0.2c-0.1-0.2-0.1-0.5-0.2-0.7
		c-0.2-0.4-0.4-0.9-0.7-1.3c-0.1-0.2-0.1-0.4-0.2-0.6c-0.4-1.2-0.6-2.4-0.5-3.7c0-0.3,0-0.7-0.2-1c-0.1-0.2-0.3-0.4-0.5-0.5
		c-0.5-0.4-0.5-0.9-0.4-1.4c0-0.2,0.2-0.3,0.4-0.5c0.2-0.1,0.2-0.2,0.1-0.4c-0.2-0.4-0.1-0.8,0-1.1c0.1-0.3,0.2-0.6,0.5-0.8
		c0.2-0.2,0.4-0.2,0.5-0.1c0.2,0.1,0.4,0,0.5-0.1c0.2-0.3,0.5-0.4,0.9-0.6c0.3-0.1,0.4,0,0.6,0.1c0.1,0.1,0.1,0.4-0.1,0.5
		c-0.2,0.2-0.2,0.4-0.2,0.6c0,0.4,0,0.8,0,1.2c0,0.1,0,0.2,0.1,0.3c0.4,0.2,0.4,0.7,0.3,1c-0.3,0.8-0.9,1.4-1.1,2.2
		c-0.3,1-0.7,1.9-0.5,3c0,0.3,0.1,0.5,0.2,0.7c0.2,0.5,0.3,1.1,0.8,1.6c0-0.1,0-0.3,0-0.4c-0.2-0.6-0.3-1.1-0.2-1.7
		c0-0.3,0.2-0.4,0.4-0.4c0.2,0,0.3-0.1,0.4-0.4c0.1-0.5,0.3-0.9,0.5-1.3c0.2-0.3,0.4-0.6,0.7-0.8c0.2-0.2,0.3-0.2,0.4,0
		c0.1,0.2,0.2,0.2,0.3,0c0.2-0.2,0.4-0.4,0.6-0.6c0.2-0.2,0.5-0.3,0.8-0.3c0.2,0,0.3,0.1,0.3,0.3c0,0.2,0,0.4-0.1,0.6
		c-0.1,0.2-0.1,0.5-0.2,0.8c-0.1,0.1,0.1,0.1,0.2,0.1c0.2,0,0.3,0.1,0.3,0.3c0,0.6,0,1.2,0,1.8c0,0.3-0.2,0.5-0.5,0.6
		c-0.1,0-0.2,0-0.2,0.2c0.1,0.4-0.1,0.6-0.6,0.6c-0.8,0.1-1.4,0.5-1.7,1.2c-0.2,0.5-0.4,1.1-0.3,1.6c0.1,0.3,0.2,0.6,0.2,1
		c0-0.2,0-0.4,0-0.6c0-0.4,0.3-0.7,0.6-0.8c0.2,0,0.3,0,0.4,0.1c0.2,0.2,0.3,0.1,0.5,0c0.6-0.3,1.1-0.8,1.9-0.8
		c0.2,0,0.4-0.1,0.4,0.1c0.1,0.2,0.1,0.5-0.1,0.7c-0.1,0.1-0.2,0.3-0.3,0.5c-0.1,0.2-0.2,0.4,0,0.7c0.3,0.5,0.3,0.9-0.1,1.3
		c-0.3,0.3-0.6,0.6-0.9,0.9c-0.1,0.1-0.2,0.1-0.3,0.2c-0.1,0-0.2,0.1-0.2,0.1c-0.5,0.7-0.9,1.4-0.9,2.3c0,0.4,0.2,0.8,0.4,1.1
		c0,0.1,0.1,0.1,0.1,0c0.1-0.2,0.3-0.4,0.4-0.7c0-0.3,0.2-0.7,0.4-1c0.4-0.5,0.8-0.2,1.1,0.2c0.2,0.3,0.1,0.6,0.1,0.9
		c0,0.2,0,0.3,0.2,0.4c0.2,0.1,0.4,0.6,0.2,0.9c-0.3,0.6-0.4,1.2-0.8,1.7c-0.1,0.1-0.1,0.3-0.2,0.4c-0.1,0.3-0.1,0.6-0.2,0.9
		c-0.1,0.3,0.2,0.5,0.2,0.8c0.1,0.5,0.2,0.9,0.3,1.4c0.2,1.3,0.1,2.7,0.1,4c0,0.5,0,0.9,0,1.4c0,0.2,0,0.4-0.1,0.6
		c-0.1,0.2-0.1,0.4,0,0.5c0.3-0.6,0.3-1.2,0.5-1.7c0.1-0.4,0.2-0.8,0.2-1.2c-0.1-0.6,0.2-1,0.2-1.6c-0.1-0.8-0.1-1.6,0-2.4
		c0.1-0.7,0.1-1.3,0.2-2c0.1-0.6,0.4-1.2,0.4-1.9c0-0.3,0.3-0.7,0.1-1.1c-0.3-0.7,0-1.6-0.5-2.2c-0.2-0.3-0.1-0.6-0.1-0.9
		c0-0.2,0.2-0.3,0.4-0.3c0.2,0,0.2,0,0.2-0.2c0-0.2,0-0.4-0.2-0.6c-0.1-0.2,0.1-0.7,0.5-0.7c0.2,0,0.3-0.2,0.3-0.4
		c-0.1-0.6,0.1-1.1,0.2-1.7c0-0.2,0.2-0.3,0.4-0.3c0.2,0,0.5,0,0.6,0.2c0,0.1,0,0.2,0.2,0.2c0.1,0,0.1-0.2,0.1-0.3
		c0-0.6,0.6-1.2,1.2-1.1c0.3,0,0.5,0.2,0.5,0.5c0,0.3,0,0.5,0,0.8c0,0.2,0.1,0.4,0.3,0.5c0.3,0.1,0.5,0.8,0.3,1
		c-0.1,0.2-0.2,0.4-0.3,0.6c-0.1,0.2,0,0.3,0.2,0.3c0.5,0.1,0.6,0.6,0.3,1c-0.2,0.3-0.4,0.5-0.7,0.5c-0.1,0-0.1,0.1-0.1,0.2
		c0.2,0.4,0.1,0.6-0.1,0.9c-0.6,0.6-1.1,1.1-1.6,1.7c-0.7,0.8-1.4,1.5-1.7,2.5c-0.1,0.3-0.1,0.6-0.2,0.8c-0.2,0.5-0.1,1-0.3,1.4
		c-0.1,0.1,0,0.2,0,0.4c0,0.7,0.1,1.4,0,2.1C164.4,41.1,164.2,41.3,164.4,41.7z M126,91.7c0.8-0.1,1.7,0.1,2.5-0.1
		c0.6-0.1,1.3-0.2,2-0.4c0.5-0.1,1-0.3,1.4-0.4c0.9-0.3,1.7-0.7,2.6-1c0.7-0.2,1.2-0.7,1.8-1c0.8-0.4,1.4-0.9,2.1-1.4
		c0.7-0.5,1.4-1,2-1.6c0.7-0.6,1.4-1.1,2-1.8c0.5-0.5,1.1-1,1.5-1.5c0.4-0.6,1-1.1,1.4-1.6c0.5-0.6,1-1.3,1.4-1.9
		c0.2-0.2,0.4-0.4,0.5-0.6c0.3-0.6,0.7-1.1,1.1-1.7c0.5-0.8,1-1.6,1.5-2.4c0.6-1.2,1.3-2.4,1.8-3.7c0.2-0.6,0.5-1.1,0.7-1.6
		c0.1-0.2,0.1-0.4,0.2-0.5c0.2-0.5,0.4-0.9,0.5-1.4c0.1-0.5,0.3-1,0.4-1.5c0.1-0.5,0.3-1,0.4-1.5c0.2-0.6,0.2-1.2,0.3-1.8
		c0.2-0.7,0.1-1.4,0.3-2c0.1-0.5,0.1-1,0.2-1.4c0.1-0.8,0.2-1.6,0.2-2.4c0-0.9,0.3-1.8,0.2-2.7c0-0.4,0-0.8,0-1.2c0-0.1,0-0.2,0-0.4
		c0.1-0.3,0.1-0.5,0.1-0.8c-0.1-1.4,0.1-2.8-0.2-4.3c-0.1-0.7,0.1-1.5-0.2-2.3c-0.2-0.6-0.1-1.2-0.1-1.8c0-0.5-0.3-1.1-0.2-1.6
		c0,0,0,0,0-0.1c-0.3-0.4-0.2-0.9-0.3-1.4c-0.1-0.4-0.2-0.8-0.3-1.2c0-0.2,0-0.4-0.1-0.6c-0.2-0.3-0.2-0.7-0.3-1
		c-0.1-0.7-0.4-1.3-0.5-2c-0.2-0.7-0.5-1.3-0.7-2c-0.3-0.9-0.7-1.7-1-2.6c-0.4-1.1-1-2.1-1.6-3.1c-0.1-0.1-0.1-0.2-0.2-0.3
		c-0.3-0.5-0.7-1-1-1.5c-0.5-0.9-1.2-1.7-1.8-2.5c-0.3-0.5-0.8-1-1.2-1.5c-0.4-0.6-1-1-1.4-1.6c-0.6-0.7-1.4-1.3-2.1-2
		c-0.4-0.4-0.8-0.6-1.2-1c-0.2-0.2-0.5-0.4-0.8-0.6c-0.4-0.2-0.8-0.5-1.1-0.8c-0.5-0.4-1.1-0.7-1.6-1c-0.4-0.3-0.8-0.4-1.2-0.6
		c-0.4-0.2-0.8-0.4-1.2-0.6c-0.5-0.2-1-0.4-1.6-0.6c-0.4-0.1-0.8-0.3-1.2-0.4c-0.5-0.1-0.9-0.2-1.4-0.4c-0.5-0.1-1.1-0.3-1.7-0.4
		c-0.5-0.1-1-0.2-1.6-0.2c-0.8,0-1.6-0.1-2.4,0.1c-0.7,0.1-1.4,0-2.1,0.2c-0.4,0.1-0.8,0.1-1.2,0.1c-0.4,0.1-0.9,0.2-1.3,0.2
		c-0.6,0.1-1.3,0.2-1.9,0.5c-0.2,0.1-0.5,0.1-0.7,0.2c-0.4,0.1-0.8,0.3-1.2,0.4c-0.9,0.2-1.6,0.6-2.5,0.9c-0.5,0.2-0.9,0.4-1.4,0.7
		c-0.7,0.3-1.3,0.7-1.9,1.1c-0.6,0.4-1.1,0.7-1.7,1.1c-0.6,0.4-1.2,0.9-1.7,1.4c-0.8,0.7-1.6,1.6-2.4,2.3c-0.3,0.3-0.6,0.6-0.9,0.9
		c-0.3,0.4-0.7,0.8-0.9,1.2c-0.2,0.3-0.5,0.6-0.7,0.9c-0.3,0.4-0.6,0.8-0.8,1.2c-0.3,0.5-0.7,1.1-1,1.6c-0.2,0.4-0.5,0.9-0.7,1.3
		c-0.2,0.5-0.5,0.9-0.7,1.4c-0.3,0.7-0.7,1.5-0.9,2.2c-0.1,0.3-0.2,0.6-0.3,0.9c-0.2,0.5-0.3,1-0.5,1.5c-0.2,0.6-0.4,1.3-0.6,2
		c-0.1,0.3-0.1,0.6-0.2,0.9c-0.1,0.3-0.2,0.6-0.2,1c-0.1,0.4-0.2,0.8-0.2,1.2c0,0.2,0,0.5-0.1,0.7c-0.2,0.4-0.2,0.9-0.3,1.3
		c-0.2,0.7-0.2,1.5-0.3,2.2c-0.1,0.5-0.1,1.1-0.2,1.6c-0.1,0.9-0.2,1.8-0.2,2.7c0,2.4-0.1,4.9,0.1,7.3c0,0.6,0,1.1,0.2,1.7
		c0.1,0.5,0,1,0.2,1.6c0.1,0.5,0.1,1,0.2,1.5c0,0.5,0.3,0.9,0.2,1.5c0,0,0,0,0,0c0.3,0.4,0.2,0.9,0.3,1.3c0.1,0.4,0.2,0.8,0.3,1.2
		c0.1,0.4,0.1,0.8,0.2,1.1c0.1,0.5,0.2,1,0.4,1.5c0.2,0.5,0.2,1,0.4,1.5c0.3,0.7,0.5,1.3,0.7,2c0.2,0.7,0.5,1.3,0.8,2
		c0.2,0.6,0.5,1.1,0.7,1.6c0.3,0.9,0.9,1.7,1.4,2.6c0.2,0.4,0.5,0.7,0.7,1.1c0.2,0.4,0.5,0.7,0.7,1.1c0.1,0.3,0.4,0.5,0.6,0.7
		c0.3,0.4,0.5,0.9,1,1.3c0,0,0.1,0.1,0.1,0.1c0.2,0.5,0.7,0.8,1,1.3c0.3,0.5,0.9,0.9,1.3,1.4c0.5,0.6,1.2,1,1.7,1.6
		c0.3,0.3,0.8,0.6,1.1,0.9c0.2,0.2,0.4,0.4,0.7,0.6c0.4,0.2,0.7,0.5,1.1,0.7c0.5,0.4,1.1,0.7,1.6,1c0.3,0.2,0.7,0.4,1,0.5
		c0.8,0.4,1.5,0.8,2.3,1.1c0.8,0.3,1.5,0.6,2.3,0.8c0.6,0.2,1.2,0.4,1.9,0.6c0.8,0.2,1.5,0.4,2.3,0.5c0.9,0.1,1.7,0.3,2.6,0.3
		C125.4,91.7,125.7,91.7,126,91.7z M97.9,79.6c0.1,0.2,0.2,0.5,0.4,0.7c0.2,0.2,0.4,0.4,0.5,0.7c0.4,0.7,0.8,1.2,1.3,1.7
		c0.5,0.5,0.9,1.2,1.5,1.7c0,0,0,0.1,0.1,0.1c0,0.1,0.1,0.2,0.2,0.2c0.1,0,0.1-0.2,0-0.2c0-0.1,0-0.1-0.1-0.2
		c-0.3-0.5-0.5-1-0.9-1.4c-0.2-0.2-0.3-0.4-0.4-0.6c-0.2-0.4-0.5-0.8-0.8-1.1c-0.3-0.3-0.7-0.7-1-1C98.5,79.9,98.2,79.8,97.9,79.6z
		 M155.7,73.5c-0.1,0.1-0.1,0.1-0.1,0.1c-0.3,0.6-0.8,1-1.1,1.6c-0.2,0.3-0.3,0.5-0.5,0.7c-0.3,0.5-0.3,1-0.3,1.5
		C154.2,76.1,155.1,74.9,155.7,73.5z M147.4,12.8c-0.1-0.4-0.2-0.6-0.5-0.7c-0.1-0.1-0.2-0.2-0.3-0.3c-0.3-0.5-1-1-1.7-1
		C145.8,11.4,146.7,12,147.4,12.8z M159.3,29c0.1-0.1,0-0.2,0-0.4c-0.1-0.2-0.2-0.5-0.3-0.7c-0.1-0.4-0.1-0.8-0.1-1.2
		c0-0.1,0-0.2-0.1-0.2c-0.1,0-0.3,0-0.4,0.2c-0.1,0.1,0,0.2,0,0.3c0.2,0.4,0.4,0.8,0.6,1.3C159.1,28.5,159,28.8,159.3,29z"/>
	<path class="st0" d="M99.3,14.9c0.5-0.2,0.9-0.4,1.4-0.3c0.2,0,0.4-0.1,0.6-0.1c0.6,0,1.2,0.1,1.8,0.3c0.4,0.1,0.8,0.2,1.1,0.3
		c0.3,0.1,0.3,0.4,0.1,0.6c-0.2,0.3-0.4,0.6-0.7,0.7c-0.5,0.2-0.7,0.4-1,0.8c-0.1,0.2-0.5,0.2-0.8,0.2c-0.2,0-0.4,0-0.4,0.3
		c0,0.3-0.6,0.7-0.9,0.6c-0.4,0-0.9,0-1.3-0.1c-0.4-0.1-0.9-0.2-1.3-0.2c-0.2,0-0.5,0.1-0.7,0.2c-0.7,0.5-1.4,1-1.9,1.7
		c-0.1,0.2-0.3,0.4-0.5,0.6c-0.4,0.5-0.5,1.1-0.5,1.7c0,0.4-0.2,0.6-0.5,0.9c-0.2,0.2-0.4,0.1-0.4-0.2c0-0.4,0.1-0.8,0.2-1.2
		c0-0.1,0.1-0.3,0-0.4c-0.2-0.7-0.4-1.3-0.8-1.9c-0.3-0.4-0.7-0.7-0.9-1.2c-0.2-0.4-0.1-0.7-0.1-1.1c0-0.1,0.1-0.1,0.3-0.1
		c0.2,0,0.2,0,0.2-0.2c0-0.6-0.1-1.1,0-1.7c0-0.6,0.4-0.8,0.9-0.4c0,0,0,0,0.1,0c0-0.7,0.6-1.2,0.9-1.7c0.1-0.1,0.2-0.3,0.4-0.2
		c0.2,0.1,0.1,0.2,0.1,0.4c0,0.3-0.1,0.5-0.1,0.8c0,0.4,0.3,0.7,0.4,1.1c0,0.1,0.2,0.1,0.3,0.1c0.4,0,0.5,0.1,0.6,0.5
		c0.2,0.7,0.1,1.4,0.1,2c0,0.2,0,0.4-0.1,0.6c0.1,0,0.2,0,0.2-0.1c0.3-0.3,0.7-0.7,1-1c0.1-0.1,0.2-0.2,0.2-0.3
		c0.1-0.2,0.1-0.3-0.1-0.4c-0.2,0-0.3-0.4-0.1-0.6c0.2-0.2,0.2-0.4,0.2-0.6c0-0.6,0.1-1.2,0.4-1.6c0.2-0.4,0.3-0.9,0.5-1.3
		c0.1-0.2,0-0.5-0.1-0.8c-0.2-0.3-0.2-0.7-0.4-1c-0.2-0.5,0-0.8,0.5-0.9c0.2,0,0.2-0.1,0.2-0.3c0-0.6,0.1-0.7,0.8-0.8
		c0.2,0,0.3-0.2,0.5-0.3c0.3-0.3,0.6-0.4,0.9-0.2c0.2,0.1,0.4-0.1,0.6-0.2c0.2-0.2,0.5-0.2,0.8-0.3c0.3-0.1,0.5,0.1,0.5,0.4
		c0,0.4,0,0.8-0.2,1.1c-0.1,0.2-0.1,0.4,0,0.6c0.1,0.2,0.1,0.4,0,0.6c-0.2,0.5-0.6,0.7-1,1c-0.1,0-0.2,0.1-0.2,0.2
		c-0.1,0.5-0.4,0.8-0.9,0.9c-1,0.2-1.6,0.8-2,1.7c-0.2,0.4-0.3,0.9-0.3,1.3c0,0.1,0,0.2,0.1,0.2c0.1,0,0.1-0.1,0.2-0.1
		c0.1-0.1,0.2-0.1,0.1-0.2c-0.2-0.3,0-0.5,0.2-0.7c0.1-0.2,0.3-0.3,0.5-0.5c0.5-0.3,0.7-0.9,1.1-1.3c0.7-0.5,1.3-1,2.1-1.4
		c0.8-0.4,1.6-0.9,2.3-1.3c0.7-0.4,1.2-1,1.5-1.7c0.2-0.3-0.1-0.6-0.2-0.8c-0.3-0.5-0.3-1.2,0.1-1.6c0.2-0.2,0.3-0.2,0.5-0.1
		c0.2,0.1,0.3,0,0.3-0.2c0-0.5,0.3-0.8,0.6-1c0.2-0.2,0.5-0.1,0.8-0.1c0.2,0,0.1,0.2,0.2,0.3c0.6-0.4,1.2-0.6,1.9-0.6
		c0.1,0,0.2,0,0.3,0.1c0.1,0.1,0,0.2-0.1,0.3c-0.2,0.2-0.3,0.5-0.4,0.8c-0.2,0.5-0.3,1-0.3,1.5c0,0.2-0.3,0.4-0.5,0.5
		c-0.1,0-0.2,0.1-0.2,0.2c0,0.1-0.1,0.2,0,0.3c0.1,0.1,0.1,0,0.2,0c0.4-0.3,0.9-0.5,1.4-0.7c0.3-0.1,0.6-0.3,0.8-0.5
		c0.3-0.3,0.6-0.6,0.9-0.9c0.2-0.2,0.6-0.3,0.8-0.5c0.3-0.1,0.6,0.1,0.8,0.4c0,0.1,0,0.2,0.1,0.2c0.1,0,0.1-0.1,0.1-0.2
		c0.1-0.2,0.3-0.4,0.5-0.6c0.5-0.3,0.9-0.6,1.1-1.1c0.1-0.3,0.1-0.5,0.2-0.8c0.1-0.2,0.1-0.3,0.2-0.5c0.2-0.4,0.5-0.4,0.8-0.2
		c0.1,0.1,0.2,0.2,0.3,0c0.2-0.3,0.4-0.5,0.8-0.4c0.2,0,0.3-0.1,0.4-0.2c0.2-0.2,0.3-0.4,0.6-0.5c0.3-0.1,0.6-0.1,0.8,0.2
		c0.1,0.1,0.2,0.2,0.3,0.2c0.4,0,0.7,0,1.1,0c0.3,0,0.5,0.1,0.7,0.2c0.2,0.1,0.1,0.2,0,0.3c-0.3,0.2-0.7,0.3-0.8,0.8
		c0,0.1-0.1,0.2,0,0.3c0.2,0.5-0.1,1.1-0.6,1.2c-0.2,0-0.2,0.1-0.3,0.3c-0.1,0.4-0.5,0.6-0.8,0.6c-0.5,0-0.8,0.3-1.2,0.4
		c-0.1,0-0.2,0.1-0.3,0.1c-0.5-0.1-1-0.1-1.4-0.3c-0.1-0.1-0.3,0-0.4,0c-0.4,0-0.7,0-1.1,0c-0.1,0-0.2,0-0.2,0.1
		c0,0.1,0.1,0.1,0.2,0.1c0.2,0,0.4,0,0.6,0.3c0.1,0.1,0.3,0.2,0.5,0.2c0.4,0,0.7,0.2,1,0.5c0.1,0.1,0.1,0.2,0.1,0.3
		c0,0.1-0.1,0.1-0.2,0.2c-0.3,0.1-0.7,0.3-1,0.4c-0.3,0.1-0.7,0-0.9,0.3c-0.2,0.2-0.5,0.3-0.8,0.5c-0.1,0.1-0.3,0.1-0.4,0.1
		c-0.5,0-0.9,0-1.4-0.1c-0.6-0.1-1.2-0.1-1.8,0c-0.5,0.1-1.1,0.2-1.6,0.5c-0.1,0-0.2,0-0.1,0.2c0,0.1,0.1,0.1,0.2,0.1
		c0.5-0.1,0.9,0.2,1.3,0.3c0.2,0.1,0.4-0.1,0.6-0.3c0.2-0.3,0.5-0.5,0.9-0.5c0.3,0,0.5,0.1,0.5,0.4c0.1,0.2,0.1,0.4,0.4,0.2
		c0.3-0.2,0.5-0.2,0.9-0.2c0.6,0.1,0.8,0.3,0.8,0.9c0.5-0.1,1.1-0.1,1.6-0.1c0.4,0,0.7,0.2,0.9,0.5c0.2,0.3,0,0.5-0.3,0.5
		c-0.2,0-0.4,0-0.6,0c-0.1,0-0.3,0-0.4,0.1c-0.3,0.2-0.7,0.2-1,0.4c-0.4,0.2-0.9,0.1-1.3,0.3c0,0-0.1,0-0.1,0
		c-0.3-0.2-0.7-0.1-1-0.2c-0.7-0.2-1.2-0.6-1.8-1c-0.3-0.2-0.7-0.3-1.1-0.4c-0.7-0.2-1.4-0.2-2.1-0.2c-0.6,0-1.1,0.2-1.5,0.4
		c-0.6,0.3-1.2,0.6-1.8,0.9c-0.8,0.4-1.7,0.8-2.5,1.3c-0.3,0.2-0.6,0.5-0.9,0.8c-0.3,0.3-0.6,0.7-1,0.9
		C99.4,14.7,99.3,14.8,99.3,14.9z M106.1,9.8c0.5-0.1,0.8-0.3,1.3-0.2c-0.1-0.2-0.1-0.4-0.3-0.4C106.8,9.4,106.4,9.5,106.1,9.8z"/>
	<path class="st0" d="M87.9,39.2c-0.1-0.3,0.2-0.6,0.1-1c0-0.1,0-0.2-0.1-0.3c-0.2-0.2-0.3-0.6-0.1-0.8c0.1-0.2,0.1-0.3,0.1-0.5
		c0.2-1,0-1.9,0.2-2.9c0.2-0.8,0-1.7,0.2-2.5c0.1-0.5,0.1-1,0.2-1.5c0.1-0.6,0.1-1.2-0.1-1.8c-0.2-0.6-0.5-1-0.9-1.4
		c-0.3-0.3-0.6-0.6-0.9-0.8c-0.1-0.1-0.2-0.6-0.1-0.8c0.1-0.1,0.2-0.1,0.3-0.1c0.3,0,0.3-0.1,0.2-0.4C86.9,24,87,23.6,87,23.1
		c0.4-0.3,0.2-0.7,0.3-1c0-0.1,0.1-0.2,0.1-0.2c0.5-0.3,0.5-0.8,0.6-1.2c0.1-0.3,0.3-0.5,0.4-0.8c0-0.1,0.1-0.1,0.2-0.1
		c0.2,0,0.3,0.2,0.3,0.3c0,0.4,0.2,0.7,0.4,1c0.3,0.4,0.4,0.8,0.5,1.2c0,0,0,0.1,0,0.1c0,0.5,0.2,0.9,0.4,1.3
		c0.1,0.1,0.1,0.2,0.1,0.4c0,0.2,0,0.4,0.2,0.6c0.1,0.1,0.1,0.2,0.1,0.3c0,0.5-0.2,1-0.6,1.4c-0.4,0.5-0.8,1.1-1,1.7c0,0,0,0,0,0
		c0.1,0.9-0.2,1.8-0.1,2.7c0.2-0.1,0.2-0.2,0.2-0.3c0.1-0.3,0.3-0.5,0.5-0.8c0.2-0.4,0.6-0.5,0.9-0.7c0.1-0.1,0.2-0.2,0.2-0.3
		c0-0.4,0.2-0.7,0.3-1.1c0.2-0.5,0.6-0.9,1.1-1.2c0.3-0.1,0.6-0.1,0.8,0c0.1,0.1,0.3,0.1,0.4,0c0.4-0.2,0.7-0.4,1.1-0.5
		c0.4-0.2,0.9-0.1,1.3,0.2c0.2,0.2,0.1,0.5,0,0.8c0.3-0.1,0.6-0.2,0.9-0.3c0.3-0.1,0.7-0.1,1,0.2c0.3,0.3,0.2,0.7,0.1,1
		c0,0.2-0.3,0.4-0.5,0.5c-0.3,0.1-0.5,0.2-0.5,0.5c0,0.3-0.4,0.6-0.8,0.6c-0.3,0-0.4,0-0.5,0.3c-0.1,0.2-0.3,0.4-0.6,0.5
		c-0.7,0.1-1.1-0.3-1.7-0.6c-0.4-0.1-0.8-0.4-1.2-0.1c-0.1,0-0.2,0-0.2,0c-1,0-1.6,0.6-2,1.4c-0.3,0.6-0.6,1.3-0.8,2
		c-0.1,0.4-0.3,0.9-0.2,1.3c0,0.4,0,0.8-0.1,1.1c-0.1,0.2-0.1,0.4,0,0.6c0,0.2,0,0.4-0.1,0.6c-0.1,0.2-0.1,0.4-0.1,0.6
		c0,0.1,0,0.1,0.1,0.1c0.1,0,0.1,0,0.1-0.1c0.2-0.4,0.4-0.8,0.3-1.3c0-0.1,0-0.1,0-0.2c-0.1-0.6,0.3-0.9,0.6-1.2
		c0.1-0.1,0.2-0.1,0.3,0c0.2,0.2,0.4,0.1,0.6-0.1c0.3-0.4,0.8-0.7,1.3-0.8c0.1,0,0.2-0.2,0.4-0.2c0.1,0,0.3,0,0.4,0.1
		c0.1,0.1,0.1,0.3,0,0.4c-0.2,0.4-0.3,0.9-0.6,1.2c-0.1,0.1-0.1,0.2,0,0.3c0.1,0.3,0.1,0.5-0.1,0.8c-0.4,0.7-1.1,0.8-1.7,1
		c-0.7,0.2-1.2,0.6-1.4,1.3c-0.2,0.5-0.2,1-0.3,1.4c-0.2,0.5-0.1,1-0.2,1.5c0,0.1,0,0.2,0,0.4c0,0.7,0,1.4,0,2c0,0.6,0,1.2,0.3,1.7
		c0,0.1,0,0.2,0,0.3c0,0.1-0.1,0.2-0.2,0.2c-0.1,0-0.2-0.1-0.3-0.2c-0.1-0.1-0.2-0.3-0.2-0.4c0-0.7-0.3-1.4-0.2-2.1
		c0.1-0.5,0-1.1,0-1.6c0-0.3,0-0.6,0.1-0.9c0.1-0.2,0-0.4,0-0.6c0-0.1,0-0.1-0.1-0.1c-0.5,0-0.4-0.4-0.5-0.7
		C87.1,39.2,87,39,87,38.9c-0.3-0.6-0.5-1.2-0.8-1.7c-0.3-0.5-0.6-1.1-1.3-1.3c-0.3-0.1-0.6-0.3-0.9-0.5c-0.1-0.1-0.2-0.1-0.3-0.1
		c-0.3,0-0.5-0.1-0.8-0.3c-0.2-0.2-0.4-0.2-0.5-0.5c-0.1-0.2,0.1-0.6,0.4-0.7c0.2,0,0.4,0,0.7,0c0.1,0,0.2,0,0.2-0.1
		c0-0.1-0.1-0.1-0.1-0.1c-0.2-0.1-0.4-0.1-0.6-0.2c-0.4-0.2-0.8-0.4-1.1-0.8c-0.2-0.2-0.3-0.5-0.2-0.8c0.1-0.4,0.6-0.6,1-0.4
		c0.1,0,0.1,0.1,0.2,0c0.1-0.1,0-0.1,0-0.2c-0.3-0.4-0.4-1-0.4-1.5c0-0.5-0.1-0.9,0.1-1.4c0.1-0.2,0.2-0.2,0.4-0.2
		c0.2,0,0.2,0.1,0.2,0.3c0,0.4,0.2,0.6,0.4,0.9c0.2,0.2,0.5,0.5,0.7,0.7c0.1,0.1,0.2,0.2,0.3,0.1c0.4-0.2,0.5,0.1,0.7,0.3
		c0.2,0.3,0.4,0.7,0.5,1c0,0.1,0.1,0.3,0,0.4c-0.1,0.4,0.1,0.7,0.4,0.9c0.2,0.1,0.3,0.3,0.2,0.6c0,0.3,0,0.6,0,0.9
		c0,0.8,0.1,1.6,0.3,2.3c0.1,0.4,0.2,0.7,0.4,1.1c0.2,0.4,0.4,0.9,0.5,1.3C87.7,38.9,87.8,39.1,87.9,39.2
		C87.9,39.2,87.9,39.2,87.9,39.2z"/>
	<path class="st0" d="M83.6,41.5c0-0.4-0.3-0.8-0.3-1.2c0-0.3,0.2-0.5,0.2-0.8c0-0.2,0.2-0.2,0.4-0.2c0.2,0,0.2,0.1,0.3,0.3
		c0,0.1,0.1,0.1,0.1,0.2c0,0.7,0.6,1,1.1,1.3c0.1,0.1,0.2,0,0.2-0.1c0.2-0.2,0.3-0.2,0.4,0c0.2,0.4,0.6,0.8,0.8,1.3
		c0.1,0.4,0.2,0.7,0.3,1.1c0.1,0.4,0,0.8,0.1,1.2c0.1,0.4,0.2,0.8,0.5,1.2c0.3,0.4,0.5,0.8,0.8,1.3c0,0.1,0,0.1,0.1,0.1
		c0.1-0.3,0.3-0.5,0.2-0.8c-0.1-0.4,0.2-0.8,0.2-1.2c0.1-0.7,0.5-1.3,0.7-2c0.1-0.3,0-0.7,0-1c0-0.7,0.2-1.3,0.5-1.9
		c0.2-0.3,0.4-0.6,0.7-0.7c0.2-0.1,0.3-0.1,0.4,0c0.1,0.1,0.2,0.1,0.4,0c0.2-0.2,0.4-0.4,0.7-0.6c0.5-0.3,1-0.3,1.5-0.3
		c0.2,0,0.3,0.1,0.2,0.3c-0.1,0.3-0.3,0.5-0.5,0.7c-0.2,0.2-0.3,0.4-0.2,0.7c0.1,0.6-0.4,1.4-1,1.7c-0.1,0-0.1,0-0.2,0.1
		c-0.5,0.5-1.1,0.9-1.6,1.4c-0.4,0.4-0.5,0.9-0.7,1.3c-0.4,0.9-0.5,1.8-0.7,2.7c-0.1,0.7-0.1,1.3-0.1,1.9c0,0.5,0.1,0.9,0.3,1.3
		c0.1,0.2,0.1,0.4-0.1,0.5c-0.2,0.1-0.5,0-0.6-0.2c-0.1-0.2-0.1-0.3-0.1-0.5c0-0.5,0-1,0-1.5c0-0.2-0.1-0.4-0.3-0.5
		c-0.2-0.1-0.3-0.4-0.4-0.7c-0.1-0.4-0.2-0.7-0.4-1.1c-0.2-0.4-0.5-0.8-0.8-1.1c-0.4-0.4-0.7-0.9-1.3-1.1c-0.1-0.1-0.3-0.1-0.4-0.1
		c-0.4-0.1-0.8-0.3-1.2-0.4c-0.2-0.1-0.5-0.3-0.7-0.4c-0.2-0.2-0.2-0.4-0.1-0.6c0-0.5,0-0.6-0.4-0.8c-0.6-0.3-1.2-0.5-1.8-0.6
		c-0.2,0-0.4-0.1-0.4-0.3c0-0.4-0.4-0.5-0.6-0.6c-0.4-0.1-0.8-0.5-0.8-1c0-0.5-0.3-0.7-0.6-0.9c-0.4-0.2-0.6-0.6-0.6-1
		c0-0.2,0.2-0.4,0.4-0.3c0.2,0,0.5,0.1,0.7,0.2c0.4,0.2,0.9,0.5,1.3,0.8c0.2,0.1,0.2,0.1,0.4,0c0.3-0.3,0.5-0.3,0.8,0
		c0.2,0.2,0.3,0.3,0.4,0.6c0,0.2,0.2,0.4,0.4,0.6c0.3,0.4,0.6,0.8,0.9,1.1c0.1,0.1,0.2,0.2,0.3,0.4C83.3,41.3,83.4,41.4,83.6,41.5z"
		/>
	<path class="st0" d="M81.6,50.7c0.2,0.1,0.5,0.2,0.8,0.2c0.6,0.1,1.2,0.3,1.7,0.6c0.1,0,0.1,0.1,0.2,0.1c0.4,0.3,0.4,0.3,0.6-0.1
		c0-0.1,0.1-0.2,0.1-0.3c0.2-0.2,0.4-0.2,0.4,0.1c0.1,0.5,0.5,0.7,0.8,0.9c0.4,0.3,0.7,0.5,1.1,0.7c0.3,0.2,0.4,0.6,0.5,0.9
		c0.1,0.5,0.4,1,0.6,1.5c0.1,0.2,0.1,0.3,0.1,0.5c0,0.4,0.2,0.8,0.5,1.1c0.3,0.3,0.5,0.7,0.7,1.1c0.1,0.2,0,0.5-0.2,0.6
		c-0.3,0.1-0.5,0-0.6-0.3c-0.1-0.3-0.3-0.6-0.5-0.9c-0.4-0.5-0.8-1-1.4-1.3C87.2,56,87.1,56,86.9,56c-0.4,0-0.8,0-1.2,0
		c-0.4,0-0.7-0.1-1-0.2c-0.2-0.1-0.3-0.3-0.3-0.5c0-0.5,0-0.5-0.6-0.7c-0.2-0.1-0.4-0.2-0.6-0.3c-0.4-0.3-0.3-0.6,0-0.9
		c0,0,0.1,0,0.1-0.1c0-0.1-0.1-0.1-0.1-0.1c-0.7-0.2-1.2-0.8-1.6-1.4c-0.1-0.2-0.3-0.4-0.4-0.6c-0.1-0.1-0.2-0.2-0.1-0.3
		C81.3,50.7,81.4,50.8,81.6,50.7z"/>
	<path class="st0" d="M100.3,22.3c0.3,0.6,0.2,0.9-0.5,0.9c-0.1,0-0.3,0-0.4,0c-0.2,0-0.3,0.1-0.3,0.3c0,0.2-0.2,0.2-0.3,0.2
		c-0.7,0.1-1.5-0.1-2.1-0.5c-0.5-0.3-1-0.3-1.5,0c-0.5,0.2-1,0.6-1.5,0.8c-0.2,0.1-0.4,0.3-0.6,0.5c-0.4,0.3-0.9,0.6-1.3,1.1
		c-0.3,0.4-0.5,0.8-0.8,1.2c-0.2,0.3-0.4,0.6-0.6,0.9c-0.1,0.1-0.2,0.2-0.3,0.1c-0.1-0.1-0.2-0.2-0.1-0.4c0.2-0.6,0.6-1.1,0.9-1.6
		c0.3-0.4,0.7-0.8,1-1.1c0.3-0.3,0.7-0.5,1.1-0.8c0.4-0.3,1-0.6,1.4-0.9c0.5-0.4,0.7-1,1-1.5c0.1-0.2,0.2-0.3,0.3-0.4
		c0.5-0.4,1-0.8,1.8-0.5c0.1,0,0.1,0,0.2,0c0.4-0.2,0.7-0.4,1.2-0.4c0.2,0,0.4-0.2,0.7-0.1c0.3,0,0.5,0.2,0.8,0.2
		c0.1,0,0.2,0.1,0.2,0.2c0.1,0.5,0.4,0.4,0.7,0.4c0.6,0,1.1,0.2,1.6,0.6c0.1,0.1,0.2,0.2,0.1,0.4c-0.1,0.1-0.2,0.3-0.4,0.2
		c-0.1-0.1-0.2,0-0.3,0c-0.4,0.2-0.7,0.4-1.1,0.5C100.7,22.5,100.5,22.4,100.3,22.3z"/>
	<path class="st0" d="M87.7,49.5c0,0.8,0.2,1.6,0.7,2.2c0.4,0.5,0.6,1.1,0.8,1.6c0.1,0.4,0.3,0.7,0.3,1.1c0,0.2,0.2,0.4,0.2,0.7
		c0,0.2-0.1,0.3-0.3,0.4c-0.2,0-0.4-0.1-0.4-0.3c0-0.7-0.4-1.3-0.5-1.9c-0.1-0.5-0.5-1-0.8-1.4c-0.2-0.2-0.4-0.4-0.5-0.6
		c-0.2-0.2-0.5-0.3-0.7-0.5c-0.1-0.1-0.2-0.1-0.2-0.2c-0.3-0.3-0.7-0.5-1.2-0.5c-0.6,0-1-0.4-1-1c0-0.2-0.1-0.3-0.3-0.4
		c-0.4-0.1-0.6-0.4-0.8-0.8c-0.1-0.3-0.1-0.5,0.3-0.5c0.1,0,0.2,0,0.3,0c0.1,0,0.2,0,0.2-0.1c0-0.1-0.1-0.1-0.2-0.2
		c-0.4-0.3-0.8-0.6-1.1-1c-0.2-0.3-0.3-0.7-0.2-1.1c0-0.2,0.1-0.3,0.3-0.3c0.2,0,0.2,0.1,0.3,0.2c0.1,0.1,0.2,0.2,0.3,0.2
		c0.7,0.1,1.2,0.4,1.7,0.9c0.3,0.3,0.6,0.6,1,0.7c0.1,0,0.2,0.2,0.3,0.3c0.1,0.2,0.2,0.3,0.5,0.3c0.4,0,0.6,0.4,0.7,0.7
		C87.6,48.7,87.8,49.1,87.7,49.5z"/>
	<path class="st0" d="M90,55.6c-0.2-1.2,0-2.5-0.2-3.7c-0.2-1.1-0.1-2.2-0.1-3.4c0-0.4,0.2-0.7,0.6-0.8c0.2,0,0.2-0.2,0.3-0.3
		c0.2-0.4,0.4-0.8,0.9-0.5c0.1,0,0.2-0.1,0.3-0.2c0.4-0.4,1-0.8,1.4-1.2c0.2-0.2,0.5,0,0.6,0.3c0,0.6,0.1,1.2-0.4,1.7
		c-0.1,0.1-0.1,0.1,0,0.2c0.3,0.3,0,0.6-0.1,0.9c-0.1,0.4-0.4,0.7-0.4,1.2c0,0.2-0.2,0.4-0.5,0.5c-0.8,0.2-1.4,0.7-1.6,1.5
		c0,0,0,0.1,0,0.1c0.1,0.8-0.4,1.6-0.2,2.4c0.1,0.4,0.1,0.9,0.3,1.3c0.2,0.4,0.1,0.9-0.1,1.3c-0.1,0.2-0.2,0.1-0.3,0.1
		c-0.2,0-0.2-0.1-0.2-0.2C89.9,56.2,90,55.9,90,55.6z"/>
	<path class="st0" d="M89.3,60.5c-0.1,0.8,0.3,1.5,0.8,2.2c0.3,0.4,0.3,0.9,0.2,1.4c0,0.1-0.1,0.1-0.1,0.1c-0.1,0-0.2,0-0.2-0.1
		c-0.2-0.2-0.2-0.5-0.3-0.8c-0.3-0.5-0.6-1-1-1.5c-0.1-0.2-0.3-0.3-0.6-0.3c-0.3,0-0.5,0-0.8,0c-0.4,0-0.7-0.1-1-0.3
		c-0.4-0.2-0.7-0.9-0.6-1.3c0-0.1,0-0.2,0-0.3c-0.1-0.2-0.1-0.4-0.1-0.6c0.1-0.3-0.2-0.4-0.3-0.6c-0.3-0.3-0.5-0.7-0.4-1.1
		c0-0.1,0-0.3,0.2-0.4c0.2-0.1,0.3,0,0.4,0.1c0.2,0.2,0.4,0.3,0.6,0.4c0.1,0.1,0.2,0.1,0.3,0.2c0.3,0.2,0.6,0.4,1,0.2
		c0.4-0.2,0.6,0.1,0.7,0.5c0,0.2,0.2,0.4,0.3,0.4c0.6,0.3,0.8,0.7,0.7,1.3C89.3,60.3,89.3,60.4,89.3,60.5z"/>
	<path class="st0" d="M125.9,90.7c-0.3,0-0.5,0-0.8,0c-0.7,0-1.4-0.1-2.1-0.2c-0.8-0.1-1.5-0.2-2.3-0.4c-0.5-0.1-1-0.2-1.5-0.4
		c-0.4-0.1-0.8-0.2-1.2-0.4c-0.3-0.1-0.7-0.2-1-0.4c-0.7-0.2-1.4-0.6-2.1-0.9c-0.2-0.1-0.4-0.3-0.7-0.3c-0.2,0-0.3-0.2-0.4-0.3
		c-0.3-0.1-0.6-0.3-1-0.5c-0.3-0.1-0.6-0.3-0.8-0.5c-0.4-0.3-0.8-0.4-1.1-0.7c-0.3-0.3-0.7-0.6-1.1-0.8c-0.4-0.3-0.7-0.6-1.1-0.8
		c-0.3-0.1-0.4-0.4-0.6-0.6c-0.8-0.6-1.5-1.2-2.1-1.9c-0.5-0.6-1-1.1-1.5-1.7c-0.3-0.4-0.5-0.7-0.8-1.1c-0.3-0.4-0.6-0.8-0.8-1.2
		c-0.1-0.2-0.2-0.3-0.3-0.5c-0.3-0.4-0.5-0.9-0.8-1.3c-0.5-0.7-0.8-1.4-1.1-2.1c-0.3-0.6-0.7-1.3-1-1.9c-0.2-0.6-0.5-1.2-0.7-1.8
		c-0.1-0.5-0.4-1-0.6-1.5c-0.1-0.2-0.2-0.4-0.2-0.6c-0.1-0.5-0.3-1-0.5-1.5c-0.1-0.5-0.2-1-0.4-1.5c-0.1-0.4-0.2-0.7-0.3-1.1
		c-0.1-0.3-0.2-0.7-0.2-1c0-0.4-0.2-0.8-0.2-1.2c0-0.2-0.1-0.4-0.1-0.6c0-0.5-0.2-1-0.2-1.6c0-0.3-0.1-0.7-0.1-1.1
		c-0.1-0.6,0-1.2-0.1-1.7c-0.2-0.7,0-1.3-0.2-2c-0.1-0.6-0.1-1.1-0.1-1.7c0-0.3,0-0.5,0-0.8c0-1.9,0-3.8,0-5.7c0-0.7,0-1.5,0.1-2.2
		c0.2-0.8,0.1-1.6,0.3-2.4c0.1-0.5,0.1-1.1,0.3-1.6c0.1-0.3,0.1-0.7,0.2-1.1c0.1-0.4,0.1-0.8,0.2-1.1c0.1-0.6,0.3-1.1,0.4-1.6
		c0.1-0.5,0.2-1,0.4-1.4c0.1-0.2,0.2-0.5,0.2-0.7c0-0.2,0.1-0.4,0.2-0.7c0.3-0.8,0.6-1.5,0.9-2.2c0.5-1.2,1.1-2.4,1.7-3.6
		c0.4-0.7,0.8-1.4,1.2-2.1c0.4-0.6,0.8-1.2,1.2-1.8c0.3-0.4,0.7-0.8,1-1.3c0.8-1.1,1.9-2,2.8-2.9c0.4-0.4,0.9-0.8,1.4-1.2
		c0.5-0.4,1-0.7,1.5-1.1c0.2-0.2,0.5-0.3,0.8-0.5c0.6-0.4,1.2-0.8,1.9-1.1c0.5-0.2,0.9-0.5,1.5-0.7c0.8-0.3,1.5-0.6,2.3-0.9
		c0.5-0.2,1.1-0.3,1.6-0.5c0.4-0.1,0.9-0.3,1.3-0.4c0.4-0.1,0.8-0.1,1.1-0.2c0.5-0.1,1-0.1,1.4-0.3c0.1,0,0.1,0,0.2,0
		c0.8,0,1.7-0.1,2.5-0.2c1-0.1,2-0.1,2.9-0.1c0.6,0,1.1,0.2,1.7,0.3c0.1,0,0.1,0,0.2,0c0.5,0,1,0.2,1.4,0.3c0.2,0.1,0.4,0.1,0.6,0.1
		c0.7,0.1,1.3,0.4,2,0.6c0.7,0.2,1.3,0.5,1.9,0.8c0.8,0.3,1.4,0.7,2.1,1.1c0.7,0.3,1.4,0.8,2,1.2c0.2,0.1,0.4,0.3,0.6,0.5
		c0.4,0.3,0.7,0.6,1.1,0.8c0.7,0.5,1.1,1.1,1.8,1.6c0.5,0.4,1,0.8,1.4,1.4c0.1,0.2,0.4,0.4,0.6,0.6c0.6,0.6,1.1,1.2,1.5,1.8
		c0.3,0.4,0.7,0.8,1,1.3c0.5,0.9,1.2,1.7,1.7,2.6c0.4,0.7,0.8,1.5,1.2,2.2c0.3,0.5,0.4,1.1,0.7,1.6c0.3,0.4,0.4,0.9,0.6,1.4
		c0.3,0.6,0.4,1.3,0.7,1.9c0.2,0.4,0.3,0.8,0.4,1.2c0.1,0.5,0.3,1,0.4,1.4c0.2,0.6,0.1,1.2,0.4,1.7c0,0,0,0.1,0,0.1
		c-0.1,0.5,0.2,0.9,0.2,1.4c0.1,0.4,0,0.9,0.2,1.3c0,0,0,0.1,0,0.1c-0.1,0.5,0.2,1.1,0.1,1.6c-0.1,0.4,0.2,0.8,0.2,1.2
		c0,0.7,0,1.5,0.1,2.2c0.1,0.5,0,1,0,1.5c0,0.8,0,1.5,0,2.3c0.1,0.9,0.1,1.7,0,2.6c-0.1,0.7,0,1.4-0.1,2.1c-0.2,0.7,0,1.5-0.3,2.2
		c0,0,0,0,0,0.1c0.1,0.7-0.2,1.4-0.2,2.2c0,0.5,0,0.9-0.2,1.4c0,0,0,0.1,0,0.1c0,0.7-0.2,1.4-0.4,2.1c-0.1,0.6-0.2,1.2-0.4,1.8
		c-0.2,0.4-0.2,0.9-0.3,1.3c-0.2,0.7-0.4,1.4-0.6,2.1c-0.3,0.8-0.6,1.6-0.9,2.4c-0.4,1-0.9,2-1.4,3c-0.3,0.5-0.6,1.1-0.9,1.6
		c-0.3,0.5-0.6,1-0.9,1.5c-0.3,0.4-0.6,0.9-0.9,1.4c0,0-0.1,0.1-0.1,0.1c-0.5,0.5-0.9,1.2-1.4,1.7c-0.3,0.3-0.5,0.6-0.8,0.9
		c-0.8,1.1-1.9,2-2.9,3c-0.4,0.4-0.9,0.8-1.5,1.2c-0.3,0.2-0.5,0.5-0.8,0.7c-0.6,0.4-1.2,0.9-1.8,1.2c-0.5,0.3-1,0.7-1.6,0.9
		c-0.7,0.4-1.4,0.7-2.2,1c-0.7,0.3-1.4,0.5-2.1,0.7c-0.6,0.2-1.2,0.3-1.7,0.4c-0.5,0.1-1,0.3-1.6,0.2
		C127.5,90.5,126.7,90.8,125.9,90.7z M128.1,90c0.2,0,0.4,0.1,0.6,0c0.4-0.2,0.9-0.2,1.3-0.2c0.8-0.1,1.5-0.4,2.3-0.6
		c0.5-0.1,1-0.4,1.5-0.6c0.9-0.3,1.8-0.8,2.7-1.3c0.5-0.3,0.9-0.6,1.4-0.9c0.4-0.2,0.7-0.5,1.1-0.8c0.3-0.3,0.6-0.5,0.9-0.7
		c0.5-0.4,1-0.8,1.4-1.2c0.6-0.5,1.1-1.1,1.6-1.6c0.4-0.4,0.8-0.8,1.2-1.2c0.4-0.5,0.9-1,1.2-1.5c0.1-0.1,0.2-0.3,0.3-0.4
		c0.3-0.4,0.6-0.9,0.9-1.3c0.4-0.5,0.7-1,1-1.5c0.4-0.7,0.9-1.4,1.3-2.1c0.6-1.1,1.1-2.2,1.6-3.4c0.1-0.1,0.1-0.3,0.2-0.4
		c0.2-0.6,0.5-1.2,0.7-1.9c0.1-0.4,0.3-0.7,0.4-1.1c0.1-0.4,0.2-0.9,0.4-1.3c0-0.1,0.1-0.3,0.1-0.4c0.1-0.5,0.2-1,0.4-1.5
		c0.1-0.3,0.2-0.6,0.2-0.9c0-0.4,0.2-0.8,0.3-1.2c0-0.3,0-0.6,0.1-0.9c0.2-0.4,0.2-0.9,0.3-1.3c0.2-0.8,0.1-1.7,0.3-2.5
		c0.1-0.6,0.1-1.2,0.2-1.8c0.1-1.2,0-2.4,0.1-3.6c0.1-1.1,0-2.3-0.1-3.4c-0.1-0.9,0.1-1.8-0.1-2.8c-0.1-0.7-0.1-1.4-0.2-2.1
		c0-0.5-0.2-1.1-0.2-1.6c0,0,0-0.1,0-0.1c-0.2-0.4-0.2-0.9-0.3-1.3c0-0.2,0-0.4-0.1-0.6c-0.1-0.3-0.2-0.5-0.2-0.8
		c0-0.6-0.2-1.1-0.4-1.7c-0.1-0.4-0.3-0.9-0.4-1.3c-0.3-1-0.6-1.9-1-2.9c-0.3-0.8-0.7-1.6-1.1-2.4c-0.3-0.6-0.6-1.3-1-1.9
		c-0.4-0.7-0.7-1.4-1.2-2c-0.3-0.4-0.6-0.9-0.9-1.4c-0.2-0.2-0.4-0.5-0.6-0.7c-0.3-0.4-0.6-0.9-1-1.3c0-0.1-0.1-0.1-0.1-0.2
		c-0.4-0.6-1-1.1-1.4-1.7c-0.7-0.9-1.6-1.6-2.5-2.3c-0.6-0.5-1.2-1-1.9-1.4c-0.6-0.5-1.3-0.9-2-1.3c-0.8-0.5-1.5-0.9-2.4-1.2
		c-0.5-0.2-1-0.4-1.5-0.6c-0.6-0.2-1.2-0.4-1.8-0.6c-0.4-0.1-0.9-0.2-1.4-0.4c-0.6-0.2-1.2-0.2-1.9-0.4c-0.6-0.1-1.2,0-1.9-0.2
		c-0.4-0.1-0.9,0.1-1.3,0.1c-0.6,0-1.1-0.1-1.7,0.1c-0.5,0.1-1,0.1-1.5,0.1c-0.5,0-0.9,0.3-1.4,0.2c0,0,0,0-0.1,0
		c-0.4,0.2-0.8,0.2-1.1,0.3c-0.5,0.1-0.9,0.2-1.4,0.4c-0.5,0.2-1.1,0.4-1.6,0.5c-0.7,0.2-1.2,0.5-1.8,0.7c-1,0.4-2,1-3,1.6
		c-0.8,0.5-1.5,1-2.3,1.5c-0.5,0.4-1,0.7-1.4,1.2c-0.2,0.2-0.5,0.3-0.7,0.5c-0.5,0.6-1.1,1.1-1.6,1.7c-0.5,0.6-1.1,1.2-1.6,1.9
		c-0.6,0.8-1.2,1.7-1.7,2.6c-0.3,0.4-0.6,0.9-0.8,1.3c-0.5,1-1,1.9-1.4,2.9c-0.2,0.6-0.5,1.2-0.8,1.8c-0.1,0.2,0,0.3-0.1,0.5
		c-0.3,0.5-0.4,1.1-0.6,1.7c-0.2,0.6-0.3,1.1-0.5,1.7c-0.2,0.6-0.3,1.2-0.4,1.8c-0.1,0.5-0.2,0.9-0.3,1.4c0,0.4-0.2,0.7-0.2,1
		c0,0.6-0.2,1.1-0.2,1.7c-0.1,0.5,0.1,1.1-0.3,1.6c0.1,0.8-0.1,1.6-0.1,2.4c0,0.8-0.1,1.6-0.1,2.4c-0.1,1.2-0.2,2.4,0.1,3.6
		c0.1,0.4,0,0.9,0,1.4c0,0.3-0.1,0.7,0,1c0.2,0.7,0.1,1.5,0.2,2.2c0.1,0.6,0.2,1.2,0.2,1.8c0,0,0,0.1,0,0.1c0.2,0.5,0.2,1.1,0.3,1.7
		c0,0.2,0.1,0.3,0.1,0.5c0.1,0.3,0.2,0.7,0.2,1c0.1,0.6,0.2,1.2,0.4,1.8c0.2,0.6,0.2,1.1,0.4,1.7c0.2,0.4,0.2,0.8,0.4,1.2
		c0.1,0.4,0.3,0.8,0.4,1.2c0.1,0.4,0.2,0.8,0.4,1.2c0.4,1,0.8,1.9,1.2,2.9c0.3,0.7,0.6,1.4,1,2c0.4,0.7,0.7,1.3,1.2,2
		c0.4,0.5,0.7,1,1.1,1.5c0.3,0.4,0.6,0.7,0.9,1.1c0.4,0.6,1,1.1,1.5,1.7c0.7,0.9,1.7,1.5,2.5,2.4c0,0,0.1,0.1,0.1,0.1
		c0.6,0.4,1.1,0.9,1.7,1.3c0.7,0.5,1.4,0.9,2.1,1.4c0.5,0.3,1.1,0.7,1.7,0.9c0.5,0.2,0.9,0.5,1.4,0.7c0.4,0.1,0.8,0.3,1.1,0.4
		c0.6,0.3,1.3,0.4,1.9,0.7c0.5,0.2,1,0.4,1.5,0.4c0.4,0.1,0.7,0.3,1.1,0.2c0.1,0,0.2,0,0.3,0.1c0.4,0.1,0.8,0.2,1.2,0.2
		c0.7,0,1.4,0.2,2.1,0.1c0,0,0.1,0,0.1,0c0.2,0.2,0.4,0.1,0.7,0.2C126.6,90.2,127.3,90,128.1,90z"/>
	<path class="st0" d="M144,33c-0.3,0.4-0.5,0.4-0.8,0.3c-0.3-0.1-0.4-0.5-0.4-0.8c-0.1-0.6,0.1-1.2,0.5-1.7c0.2-0.3,0.4-0.5,0.7-0.7
		c0.2-0.1,0.3-0.4,0.4-0.6c0.1-0.3-0.1-0.6-0.4-0.8c-0.5-0.3-1-0.4-1.6-0.3c-0.1,0-0.2,0-0.3,0.1c-0.1,0.1,0,0.2,0.1,0.3
		c0.2,0.3,0,0.5-0.1,0.6c-0.1,0.2-0.1,0.3,0,0.4c0.1,0.2,0.1,0.5,0.2,0.7c0.1,0.2-0.1,0.3-0.3,0.4c-0.4,0.1-0.8,0.3-1.3,0.1
		c-0.1,0-0.1,0-0.2,0c-0.5,0.5-1.2,0.4-1.8,0.4c-0.6,0-1-0.2-1.4-0.5c-0.3-0.2-0.6-0.5-0.8-0.8c-0.3-0.4-0.9-0.6-1.2-1
		c-0.1-0.1-0.2,0-0.3,0.1c-0.2,0.4-0.5,0.5-0.9,0.7c-0.4,0.2-0.8,0.3-1.3,0.4c-0.3,0.1-0.7,0.1-1,0.2c-0.5,0.1-1.1,0.2-1.6,0.2
		c-0.5,0.1-1.1,0-1.6,0.1c-0.9,0.3-1.9,0-2.8,0.2c-1.4,0.2-2.7,0.1-4.1,0.1c-0.5,0-1,0-1.5-0.1c-0.7-0.2-1.5-0.2-2.2-0.3
		c-0.3,0-0.6-0.2-0.9-0.2c-0.2,0-0.3,0-0.4,0.2c-0.2,0.4-0.3,0.8-0.3,1.2c0,0.4,0,0.7,0,1.1c0,0.3-0.1,0.6-0.2,0.8
		c-0.2,0.3-0.4,0.4-0.8,0.4c-0.3,0-0.5,0-0.4,0.4c0,0.2-0.1,0.4-0.3,0.6c-0.4,0.5-0.9,0.7-1.3,1.1c-0.2,0.2-0.4,0.1-0.5-0.1
		c-0.1-0.3-0.2-0.6-0.3-1c0-0.4,0.1-0.8,0.2-1.1c0.1-0.2,0.1-0.5,0.1-0.7c0-0.2,0-0.5,0.1-0.7c0.1-0.1,0-0.2,0-0.3
		c-0.2-0.5,0-0.9,0.6-1.1c0.5-0.2,1.1-0.2,1.6-0.5c0.2-0.1,0.5-0.2,0.7-0.3c0.1,0,0.2-0.1,0.1-0.2c-0.1-0.1-0.1,0-0.2,0
		c-0.4,0.3-0.9,0.4-1.4,0.5c-0.4,0.1-0.8,0.2-1.2,0.4c-0.5,0.2-0.9,0.3-1.4,0.7c-0.4,0.3-0.6,0.7-0.8,1.1c-0.3,0.5-0.5,0.9-0.9,1.3
		c-0.2,0.2-0.5,0.3-0.7,0.5c-0.2,0.2-0.4,0-0.5-0.4c-0.3,0.2-0.5,0.5-0.8,0.7c-0.2,0.1-0.5,0-0.7,0.2c-0.1,0.1-0.2,0.2-0.3,0.3
		c-0.1,0.1-0.2,0.2-0.3,0.2c-0.5,0-0.5,0.4-0.8,0.6c-0.3,0.3-0.7,0.6-1.1,0.8c-0.1,0-0.2,0-0.3-0.1c-0.1-0.1-0.3-0.1-0.3,0.1
		c0,0.2-0.1,0.5-0.2,0.7c-0.1,1-1,2.1-2.2,1.9c-0.2,0-0.3-0.2-0.2-0.4c0-0.1,0.1-0.2,0.1-0.3c0.4-0.5,0.4-1,0.2-1.5
		c-0.1-0.2-0.1-0.5,0-0.7c0.1-0.2,0-0.2-0.1-0.3c-0.3-0.2-0.7-0.2-0.9-0.5c-0.1-0.1-0.2-0.3-0.1-0.5c0.1-0.2,0.2-0.1,0.4-0.2
		c0.3-0.1,0.6-0.2,0.7-0.5c0.2-0.4,0.5-0.6,0.9-0.8c0.1-0.1,0.3,0,0.5,0.1c-0.2-0.3-0.5-0.4-0.8-0.3c-0.1,0-0.2,0.1-0.3-0.1
		c-0.1-0.2-0.1-0.3,0.1-0.4c0.3-0.3,0.7-0.5,1.1-0.5c0.1,0,0.2,0,0.3,0c0.1-0.1-0.1-0.2-0.1-0.2c-0.2-0.3,0.1-0.8,0.5-0.8
		c0.3,0,0.4-0.1,0.4-0.4c0-0.2,0.1-0.2,0.3-0.2c0.2,0,0.4,0,0.5,0c0.1,0,0.2,0,0.3-0.1c0.5-0.4,1-0.4,1.5,0c0,0,0.1,0.1,0.1,0.1
		c0.8,0,1.6,0.3,2.5,0.1c0.4-0.1,0.8-0.1,1.2-0.3c0.2-0.1,0.5,0,0.7,0c0.5,0,0.9-0.1,1.3-0.3c0.3-0.2,0.7-0.3,1-0.4
		c0.1,0,0.2-0.1,0.3-0.2c-0.5-0.3-1.2-0.3-1.6,0c-0.5,0.3-1,0.4-1.5,0.7c-0.1,0.1-0.2,0-0.2-0.1c-0.1-0.2-0.3-0.2-0.4-0.1
		c-0.4,0.2-0.7,0.1-1.1,0c-0.2-0.1-0.3,0-0.5,0.1c-0.1,0.1-0.2,0.2-0.3,0.1c-0.1-0.1-0.1-0.2-0.1-0.3c0-0.1,0.1-0.3-0.1-0.3
		c-0.2,0-0.4,0-0.5,0.2c-0.2,0.3-0.4,0.4-0.6,0.1c-0.1-0.1-0.1-0.1-0.2-0.1c-0.3,0.2-0.6,0.1-0.9-0.1c-0.2-0.1-0.4-0.1-0.6-0.1
		c-0.2,0-0.4,0-0.6,0c-0.2,0-0.4,0.1-0.5-0.1c-0.1-0.2-0.1-0.5,0.1-0.7c0.5-0.6,1-1,1.8-1.2c0.2,0,0.4-0.2,0.6-0.2
		c0.1,0,0.1-0.1,0.1-0.2c0-0.6,0.1-0.7,0.7-0.7c0.5,0,1,0.1,1.4,0.4c0-0.2,0-0.3,0-0.5c0-0.6,0.8-0.8,1.2-0.6
		c0.2,0.1,0.4,0.3,0.6,0.5c0.1,0.1,0.2,0.2,0.4,0.1c0.5-0.1,0.9,0.1,1,0.6c0.1,0.4,0.3,0.7,0.3,1.1c0.1,0.3,0.4,0.3,0.6,0.4
		c0.4,0.2,0.9,0.1,1.2,0.3c0.1,0.1,0.3,0.1,0.4-0.1c0.1-0.1,0-0.3-0.1-0.4c-0.2-0.2-0.3-0.4-0.3-0.7c0-0.3-0.2-0.6-0.2-0.8
		c0-0.2-0.2-0.3-0.3-0.4c-0.3-0.7-0.9-1.2-1.4-1.7c-0.4-0.4-0.9-0.7-1.4-0.9c-0.4-0.2-0.8-0.6-1.2-0.8c-0.3-0.2-0.6-0.2-0.9-0.4
		c-0.2-0.1-0.3-0.3-0.3-0.5c0-0.3,0.1-0.5,0.3-0.6c0.6-0.2,1.3-0.3,1.9,0.1c0.2,0.2,0.5,0.3,0.8,0.2c0.4-0.1,0.7,0.1,0.9,0.3
		c0.1,0.1,0.1,0.1,0.2,0.2c0.1,0.1,0.2,0.2,0.3,0.1c0.1,0,0.1-0.2,0.1-0.3c0-0.1,0-0.3-0.2-0.3c-0.3-0.1-0.5-0.3-0.6-0.6
		c-0.1-0.3-0.1-0.6,0-0.9c0.2-0.6,1-0.8,1.5-0.2c0.2,0.2,0.3,0.4,0.3,0.7c0,0.5,0.3,0.7,0.8,0.6c-0.2-0.1-0.3-0.2-0.4-0.3
		c-0.3-0.3-0.2-0.9,0.2-1.1c0.3-0.1,0.3-0.3,0.3-0.6c0-0.3,0-0.7,0.2-1c0.2-0.3,0.6-0.5,0.9-0.2c0,0,0.1,0.1,0.1,0.1
		c0.3,0.2,0.4,0.6,0.9,0.6c0.5,0.1,0.7,0.6,0.5,1.1c0,0.1-0.1,0.1,0,0.2c0.1,0.1,0.1,0,0.2,0c0.1,0,0.2-0.1,0.3-0.1
		c0.2-0.1,0.2-0.4,0-0.6c-0.2-0.2-0.3-0.8-0.2-1.1c0.2-0.6,1.1-0.7,1.5-0.2c0.2,0.2,0.1,0.5,0.1,0.7c-0.1,0.3,0.1,0.3,0.3,0.4
		c0.2,0.1,0.3,0,0.4-0.2c0.1-0.1,0.1-0.3-0.1-0.4c-0.3-0.3-0.4-0.6-0.3-1c0-0.1,0-0.2,0.1-0.3c0.4-0.5,1.2-0.4,1.4,0.2
		c0.1,0.3,0.1,0.6,0.3,0.9c0.1,0.2,0.2,0.2,0.3,0.2c0.3,0,0.6,0,0.9-0.1c0.2-0.1,0.3-0.2,0.2-0.5c-0.1-0.2-0.3-0.4-0.5-0.6
		c-0.6-0.3-0.8-0.7-0.5-1.3c0.1-0.2,0.3-0.3,0.5-0.3c0.4-0.1,0.8-0.1,1.1,0.2c0.2,0.1,0.4,0.1,0.4-0.2c0-0.1,0-0.2,0-0.3
		c-0.2-0.4-0.1-0.8,0.1-1.1c0.2-0.3,0.8-0.5,1.2-0.3c0.6,0.3,0.8,0.9,0.5,1.5c0,0,0,0.1,0,0.1c0,0.1-0.1,0.3,0,0.4
		c0.1,0.1,0.2-0.1,0.3-0.2c0.1-0.1,0.3-0.2,0.4-0.2c0.2,0,0.4,0,0.6,0c0.3,0,0.6,0.2,0.7,0.5c0.1,0.3,0,0.8-0.2,1
		c-0.3,0.3-0.6,0.6-1,0.7c-0.1,0-0.3,0.1-0.2,0.3c0.1,0.2,0.3,0.2,0.4,0.1c0.5-0.1,0.8-0.5,1.2-0.8c0.2-0.2,0.5-0.2,0.8-0.3
		c0.2-0.1,0.4,0.2,0.4,0.4c0,0.4,0.1,0.8-0.1,1.2c-0.1,0.2,0.1,0.4,0.3,0.5c0.2,0.2,0.8,0.1,1-0.1c0.1-0.1,0.2-0.3,0-0.5
		c-0.2-0.2-0.3-0.5-0.1-0.8c0.1-0.3,0.4-0.4,0.8-0.4c0.6,0,0.9,0.3,0.9,0.9c0,0.3,0,0.6-0.2,0.8c-0.1,0.1,0.2,0.6,0.4,0.7
		c0.1,0,0.2,0,0.3,0c-0.1-0.2-0.1-0.3-0.1-0.5c-0.1-0.6,0.3-0.7,0.8-0.7c0.2,0,0.3,0,0.4-0.3c0.2-0.5,0.4-0.9,0.9-1.1
		c0.5-0.2,0.9,0.1,1,0.6c0,0.3,0,0.5-0.2,0.7c-0.1,0.2-0.1,0.3,0.1,0.3c0.1,0,0.1,0.1,0.2,0.1c0.1,0.1,0.4,0,0.4,0.2
		c0,0.3,0.1,0.6,0,1c0,0.1-0.2,0.2-0.3,0.2c-0.1,0-0.2,0-0.3,0.1c-0.1,0.1-0.2,0.1-0.2,0.2c0,0.1,0.1,0.2,0.3,0.2
		c0.4,0,0.9,0.1,1.3-0.3c0.1-0.1,0.1-0.2,0.1-0.3c-0.1-0.4,0.1-0.8,0.5-0.8c0.8-0.1,1.2,0.2,1.3,0.8c0,0.5-0.3,0.8-0.7,0.8
		c-0.3,0-0.6,0.5-0.5,0.8c0.1,0.3,0.5,0.3,0.7,0.1c0.3-0.3,0.6-0.5,0.9-0.8c0.2-0.2,0.4-0.2,0.6-0.1c0.2,0.2,0.3,0.1,0.5,0
		c0.1,0,0.2-0.1,0.3-0.1c0.5-0.1,0.8,0.1,0.8,0.6c0,0.4,0.1,0.7-0.3,1c-0.2,0.1-0.5,0.2-0.7,0.2c-0.7,0.1-1.2,0.5-1.7,0.8
		c-0.5,0.3-0.8,0.8-1.1,1.2c-0.2,0.2-0.4,0.5-0.5,0.8c-0.2,0.5-0.5,0.9-0.8,1.4c-0.1,0.1-0.1,0.2-0.1,0.4c0.4-0.4,0.9-0.7,1.2-1.2
		c0.3-0.5,0.6-1.1,1.1-1.6c0.4-0.5,1.1-0.6,1.7-0.5c0.2,0,0.5,0.2,0.5,0.5c0,0.2,0.1,0.2,0.3,0.2c0.3,0,0.6,0,0.9,0
		c0.4,0,0.4,0,0.4,0.4c0.4,0,0.6-0.2,1-0.2c0.4,0,0.8,0.2,1.2,0.3c0.3,0.2,0.7,0.2,1.1,0.3c0.1,0,0.2,0,0.2,0.1c0,0.1,0,0.2-0.1,0.2
		c-0.4,0.2-0.7,0.4-1.1,0.7c-0.2,0.2-0.2,0.3,0,0.4c0.4,0.2,0.8,0.5,1.3,0.7c0.2,0.1,0.5,0.1,0.7,0.2c0.8,0.2,1.5,0.6,2.1,1.3
		c0.3,0.3,0.2,0.7,0.1,1c0,0.3,0.1,0.4,0.2,0.6c0.4,0.4,0.6,0.9,0.6,1.4c0,0.5-0.2,0.8-0.7,0.9c-0.2,0-0.2,0.1-0.1,0.3
		c0.1,0.3,0.3,0.5,0.2,0.9c0,0.4-0.1,0.7-0.5,0.8c-0.2,0-0.1,0.2-0.1,0.3c0,0.3,0,0.5-0.1,0.8c-0.1,0.5-0.5,0.7-0.8,1
		c-0.1,0.1-0.2,0.3-0.2,0.5c0,0.3-0.3,0.4-0.5,0.3c-0.4-0.3-0.7-0.6-0.7-1.1c0-0.1,0-0.2-0.2-0.3c-0.2-0.1-0.3-0.3-0.3-0.5
		c0-0.4-0.1-0.8,0.1-1.2c0.1-0.3,0.1-0.4-0.2-0.4c-0.3-0.1-0.4-0.3-0.3-0.5c0.1-0.2,0.2-0.3,0.3-0.4c0.1-0.1,0.2-0.4,0-0.4
		C144.2,33.7,144.1,33.3,144,33z M118.8,26.6c0.1,0.1,0.2,0.2,0.3,0.2c0.6,0.3,1.2,0.5,1.9,0.6c0.6,0.2,1.2,0.2,1.8,0.2
		c1.3,0.1,2.7,0,4,0c0.9,0,1.9-0.1,2.8-0.3c0.5-0.1,1.1-0.2,1.6-0.3c0.3-0.1,0.6-0.1,0.8-0.4c0.1-0.1,0.1-0.1,0-0.2
		c-0.4-0.2-0.9-0.4-1.3-0.5c-0.7-0.1-1.3-0.4-2-0.3c0,0-0.1,0-0.1,0c-0.6-0.2-1.2-0.2-1.7-0.2c-1.3-0.1-2.6-0.1-3.9,0.1
		c-0.2,0-0.5,0-0.7,0.1c-0.4,0.1-0.7,0.2-1.1,0.2c-0.6,0.1-1.1,0.2-1.7,0.4C119.2,26.4,118.9,26.4,118.8,26.6z M125.4,30.3
		c0.2,0,0.3,0,0.4-0.2c0-0.1,0.1-0.1,0.1-0.1c0.3-0.1,0.6-0.2,1-0.2c0.2,0,0.3-0.1,0.4-0.1c0.1,0,0.1-0.1,0.1-0.1
		c0-0.1-0.1-0.1-0.1-0.1c-0.2,0-0.4,0-0.6,0c-0.1,0-0.2,0-0.2-0.1c0-0.4-0.3-0.3-0.5-0.4c-0.5-0.1-0.8,0.2-1.3,0.2
		c-0.4,0-0.9,0-1.4,0c-0.1,0-0.3,0-0.3,0.1c0,0.3-0.3,0.3-0.5,0.3c-0.1,0-0.2,0-0.2,0.1c0,0.1,0.1,0.1,0.2,0.1
		c0.3,0,0.7-0.1,0.9,0.3c0,0,0.1,0,0.1,0C124.1,30.1,124.8,30,125.4,30.3z M123.6,23.6c-0.1-0.3-0.4-0.3-0.6-0.3
		c-0.3-0.1-0.6-0.2-0.9,0c-0.1,0.1-0.2,0.1-0.3,0.1c-0.3,0.1-0.5,0.2-0.8,0.2c-0.1,0-0.1,0.1-0.2,0.2c0,0.1,0,0.1,0,0.1
		c0.1,0,0.1,0,0.2,0c0.3-0.1,0.6-0.2,0.9-0.2c0.2,0,0.4,0,0.6-0.1c0.1-0.1,0.3-0.1,0.4,0C123.1,23.7,123.4,23.6,123.6,23.6z
		 M127.2,23.2c-0.1-0.1-0.3-0.1-0.2-0.3c0-0.1,0.1-0.2,0.2-0.2c0.3,0,0.6-0.1,0.9,0.1c0.1,0.1,0.2,0,0.2-0.1c0-0.2,0.2-0.4-0.1-0.5
		c-0.1-0.1-0.1,0.1-0.1,0.2c0,0.2-0.1,0.3-0.3,0.3c-0.5,0-1,0.1-1.5-0.1c0.1,0.1,0.2,0.2,0.2,0.4c-0.1,0.2,0.1,0.3,0.3,0.3
		C126.9,23.1,127,23.2,127.2,23.2z M122,22.4c0.3,0,0.2,0.3,0.1,0.5c0.1,0,0.2,0,0.2,0c0.2-0.3,0.5-0.3,0.8-0.4
		c0.1,0,0.1-0.1,0.1-0.1c0-0.1-0.1-0.1-0.2-0.1C122.8,22.2,122.4,22,122,22.4z"/>
	<path class="st0" d="M121.2,46.4c0-0.6,0-1.3,0-1.9c0-0.3-0.1-0.4-0.4-0.5c-0.1,0-0.1,0-0.2-0.1c-0.1-0.1-0.2-0.2-0.2-0.3
		c0-0.1,0.2-0.1,0.3-0.1c0.7,0,1.3,0,2,0c0.4,0,0.8,0,1.3,0c0.5,0,0.9,0.2,1.2,0.5c0.4,0.5,0.5,1.1,0,1.6c-0.2,0.2-0.4,0.5-0.7,0.6
		c-0.1,0,0,0.1,0,0.2c0.6,0.3,0.6,0.9,0.8,1.4c0.1,0.2,0.1,0.5,0.3,0.7c0.1,0.1,0.3,0.2,0.5,0.2c0.2,0,0.3,0,0.5,0
		c0.4,0,0.5-0.2,0.6-0.5c0,0,0-0.1,0-0.1c-0.1-0.9,0.2-1.9,0.2-2.8c0-0.4-0.2-0.7-0.2-1.1c0-0.1-0.2-0.1-0.4-0.2
		c-0.1-0.1-0.2-0.1-0.2-0.3c0-0.1,0.1-0.1,0.2-0.1c1.1-0.1,2.2-0.1,3.3,0c0.8,0.1,1.6,0.4,2.1,1.1c0.2,0.3,0.4,0.6,0.4,1
		c0,0.3,0.2,0.5,0.2,0.8c-0.2,0.8-0.3,1.7-1.1,2.2c-0.5,0.4-1.1,0.6-1.7,0.6c-1.2,0-2.4,0-3.6,0c-0.7,0-1.3-0.2-2-0.2
		c-0.2,0-0.3-0.2-0.3-0.4c-0.1-0.5-0.2-1.1-0.3-1.6c-0.1-0.3-0.6-0.5-0.9-0.4c-0.1,0-0.1,0.1-0.1,0.2c0,0.3-0.1,0.5,0,0.8
		c0.1,0.2,0.1,0.5,0.1,0.7c0,0.3,0.1,0.5,0.4,0.5c0.1,0,0.2,0.1,0.3,0.2c0,0.1,0,0.2-0.1,0.2c-0.1,0.1-0.2,0-0.4,0
		c-0.1-0.1-0.2-0.1-0.4-0.1c-0.3,0-0.7,0-1,0c-0.2,0-0.3,0-0.4,0.1c-0.1,0.1-0.2,0.1-0.3,0.1c-0.6,0-1.3-0.1-1.9-0.1
		c-0.3,0-0.6,0.2-0.9,0.1c-0.2,0-0.4,0-0.4-0.3c0-0.2,0.1-0.3,0.3-0.3c0.2,0,0.3-0.1,0.2-0.3c-0.1-0.3-0.2-0.7-0.3-1
		c0-0.2-0.2-0.2-0.4-0.2c-0.3,0-0.5,0-0.8,0c-0.3,0-0.5,0.1-0.5,0.4c0,0.2-0.2,0.5-0.2,0.7c0,0.2,0.1,0.4,0.3,0.4
		c0.2,0,0.3,0.1,0.3,0.3c0,0.2-0.2,0.2-0.3,0.2c-0.1,0-0.2,0-0.2,0c-0.3-0.2-0.6-0.2-0.9,0c-0.1,0-0.2,0.1-0.3,0
		c-0.4-0.1-0.8,0-1.2,0c-0.2,0-0.4,0-0.6-0.1c-0.1-0.1-0.2,0-0.3,0c-0.3,0.1-0.6,0.1-0.9,0.1c-0.1,0-0.3,0.1-0.4-0.2
		c0-0.2,0.1-0.3,0.3-0.3c0.3,0,0.3-0.2,0.4-0.5c0-0.1,0-0.1,0-0.2c0-1.2,0-2.4,0-3.5c0-0.3-0.1-0.5-0.4-0.5c-0.2,0-0.3-0.1-0.3-0.3
		c0-0.2,0.2-0.2,0.4-0.2c0.7,0,1.5,0,2.2,0c0.2,0,0.3,0.1,0.3,0.2c0,0.2-0.2,0.3-0.3,0.3c-0.2,0-0.3,0.1-0.3,0.3
		c0.1,0.6-0.3,1.2-0.2,1.7c0.2,0.8,0.1,1.5,0.2,2.3c0,0.2,0.1,0.3,0.2,0.3c0.6,0.2,1,0.1,1.3-0.5c0.4-0.7,0.6-1.5,0.9-2.3
		c0-0.1,0.1-0.2,0.1-0.3c0.2-0.4,0.4-0.9,0.5-1.4c0.1-0.2,0.2-0.5,0.4-0.7c0.1-0.2,0.5-0.1,0.6,0.2c0.2,0.4,0.3,0.8,0.5,1.2
		c0.2,0.5,0.4,1,0.6,1.4c0.1,0.4,0.3,0.7,0.4,1.1c0.1,0.4,0.3,0.7,0.5,1.1c0.2,0.3,1,0.4,1.3,0.2c0.1-0.1,0.2-0.2,0.2-0.4
		C121.2,47.6,121.2,47,121.2,46.4z M128.5,46.3c0,0.6,0,1.2,0,1.8c0,0.3,0.1,0.5,0.3,0.6c0.4,0.1,0.9,0.1,1.2-0.2
		c0.7-0.5,0.8-1.2,0.9-2c0-0.2-0.1-0.4-0.2-0.6c0-0.4-0.1-0.8-0.4-1.1c-0.4-0.4-0.8-0.7-1.4-0.7c-0.4,0-0.5,0.1-0.5,0.5
		C128.5,45.1,128.5,45.7,128.5,46.3z M122.5,45c0,0.2,0,0.5,0,0.7c0,0.1,0,0.2,0.2,0.3c0.4,0.1,1.1-0.4,1.2-0.8
		c0.1-0.8-0.4-1.3-1.1-1.2c-0.2,0-0.3,0.1-0.3,0.3C122.5,44.5,122.5,44.8,122.5,45z M117,46.7C117,46.7,117,46.7,117,46.7
		c0.1,0,0.2,0,0.3,0c0.1,0,0.2,0,0.1-0.2c-0.1-0.3-0.2-0.6-0.3-0.9c-0.1-0.2-0.2-0.2-0.3,0c-0.1,0.2-0.1,0.4-0.2,0.6
		c-0.2,0.3-0.1,0.4,0.2,0.4C116.9,46.7,116.9,46.7,117,46.7z"/>
	<path class="st0" d="M114.1,59.4c0.7-0.2,1.3,0.2,1.9,0.5c0.4,0.2,0.5,0.6,0.7,0.9c0.4,0.6,0.4,1.2,0.3,1.9
		c-0.1,0.4-0.2,0.8-0.5,1.1c-0.2,0.2-0.2,0.4-0.4,0.6c-0.7,0.7-1.6,1-2.6,0.9c-0.6-0.1-1.1-0.2-1.6-0.7c-0.2-0.2-0.5-0.3-0.6-0.6
		c-0.2-0.3-0.3-0.6-0.3-1c0-0.3,0-0.7,0-1c0-0.6,0.2-1.2,0.7-1.6c0.3-0.3,0.6-0.7,1-0.8C113.1,59.5,113.6,59.3,114.1,59.4z
		 M115.3,62.3c0-0.5,0-1.1-0.3-1.6c-0.2-0.3-0.4-0.6-0.8-0.7c-0.7-0.2-1.3,0.3-1.5,1c-0.2,0.5-0.1,1.1-0.2,1.6
		c-0.1,0.5,0.1,1,0.4,1.5c0.2,0.4,0.5,0.6,0.9,0.7c0.2,0.1,0.9-0.4,1.1-0.6C115.2,63.6,115.4,63,115.3,62.3z"/>
	<path class="st0" d="M135.3,63.1c0,0.3,0,0.5,0,0.8c0,0.6,0,0.7,0.6,0.9c0.1,0,0.3,0,0.2,0.2c0,0.2-0.2,0.2-0.3,0.2
		c-0.6,0-1.2,0-1.8,0c-0.1,0-0.2,0-0.2,0c-0.1,0-0.1-0.1-0.1-0.2c0-0.1,0.1-0.1,0.1-0.1c0.1,0,0.2,0,0.2-0.1
		c0.4-0.1,0.6-0.4,0.6-0.9c0-0.9,0-1.8,0-2.7c0-0.6-0.4-1.1-0.9-1.3c-0.1,0-0.2-0.1-0.2-0.3c0-0.1,0.1-0.2,0.2-0.2c0.5,0,1,0,1.5,0
		c0.1,0,0.2,0.1,0.2,0.1c0.3,0.5,0.8,0.8,1.2,1.3c0.5,0.6,1,1.2,1.5,1.7c0.1,0.1,0.1,0.1,0.2,0.2c0.1,0.1,0.2,0.1,0.2-0.1
		c-0.1-0.6,0.2-1.3-0.1-1.9c0-0.1,0-0.2,0-0.3c0-0.3-0.2-0.4-0.5-0.5c-0.1,0-0.1,0-0.2,0c-0.1-0.1-0.3-0.1-0.2-0.3
		c0-0.2,0.2-0.2,0.3-0.2c0.6,0,1.2,0,1.8,0c0.1,0,0.3,0,0.4,0.2c0,0.2-0.2,0.3-0.3,0.3c-0.4,0.1-0.6,0.3-0.6,0.7c0,1.3,0,2.6,0,4
		c0,0.1,0,0.2,0,0.3c-0.1,0.2-0.1,0.3-0.4,0.2c-0.3-0.1-0.6-0.4-0.8-0.7c-0.3-0.5-0.8-0.9-1.2-1.3c-0.4-0.4-0.7-0.9-1.1-1.3
		c-0.1-0.1-0.1-0.2-0.2-0.1c-0.1,0-0.1,0.2-0.1,0.2C135.3,62.4,135.3,62.8,135.3,63.1z"/>
	<path class="st0" d="M137.8,47c0,0.3,0,0.6,0,0.8c0,0.5,0.1,0.6,0.6,0.8c0.2,0.1,0.4,0.1,0.3,0.4c-0.1,0.3-0.4,0.2-0.5,0.1
		c-0.3-0.2-0.6-0.1-0.9-0.1c-0.1,0-0.2,0-0.3,0.1c-0.1,0.1-0.2,0.1-0.3,0.1c-0.2,0-0.4-0.1-0.4-0.3c0-0.2,0.2-0.2,0.3-0.3
		c0.5-0.2,0.5-0.2,0.5-0.7c0-1,0-2,0-2.9c0-0.3-0.1-0.6-0.3-0.8c-0.1-0.1-0.2-0.2-0.3-0.2c-0.1,0-0.2-0.1-0.3-0.2
		c-0.1-0.1-0.1-0.3,0.1-0.3c0.5,0,1.1-0.1,1.6,0c0.2,0,0.4,0.2,0.5,0.4c0.3,0.5,0.6,0.8,1,1.1c0.5,0.4,0.7,1,1.2,1.4
		c0.1,0.1,0.1,0.2,0.3,0.2c0.1-0.1,0.1-0.2,0.1-0.3c0-0.6,0-1.1,0-1.7c0-0.3-0.2-0.6-0.6-0.7c-0.1,0-0.2-0.1-0.3-0.2
		c0-0.1-0.1-0.1,0-0.2c0-0.1,0.1-0.1,0.2-0.1c0.6,0.1,1.2,0,1.8,0c0.1,0,0.3,0,0.3,0.2c0,0.2-0.1,0.3-0.2,0.3
		c-0.5,0.2-0.5,0.2-0.5,0.7c0,1.2,0,2.4,0,3.5c0,0.3-0.2,0.5-0.2,0.8c0,0.2-0.2,0.1-0.3,0c-0.4-0.3-0.8-0.8-1.2-1.2
		c-0.4-0.4-0.7-1-1.2-1.4c-0.2-0.2-0.4-0.3-0.5-0.6c0-0.1-0.1-0.1-0.1-0.2c-0.1,0-0.1-0.1-0.2-0.1c-0.1,0-0.1,0.1-0.1,0.2
		C137.8,46.3,137.8,46.7,137.8,47C137.8,47,137.8,47,137.8,47z"/>
	<path class="st0" d="M109.8,46.3c0.3,0,0.7,0,1,0c0.1,0,0.3,0,0.3,0.2c0,0.2-0.1,0.3-0.3,0.3c-0.3,0-0.3,0.2-0.3,0.4
		c0.1,0.4-0.1,0.8-0.2,1.2c0,0,0,0.1-0.1,0.1c-0.3,0.2-0.6,0.4-1,0.5c-0.6,0.2-1.2,0.2-1.8,0.2c-1,0-1.7-0.5-2.3-1.2
		c-0.5-0.7-0.5-1.5-0.4-2.2c0.1-0.4,0.3-0.9,0.6-1.3c0.3-0.3,0.5-0.5,0.8-0.7c0.4-0.3,0.9-0.3,1.4-0.3c0.5,0,1-0.1,1.6,0.1
		c0.1,0.1,0.3,0.1,0.4,0.2c0.2,0.1,0.3,0.1,0.5-0.1c0.1-0.1,0.3-0.1,0.3,0.1c0.1,0.5,0.3,0.9,0.2,1.4c0,0.1,0,0.3-0.1,0.3
		c-0.2,0.1-0.3-0.1-0.3-0.2c-0.2-0.4-0.6-0.6-0.8-1c-0.5-0.6-1.5-0.6-2.1-0.2c-0.3,0.2-0.4,0.5-0.6,0.8c-0.3,0.6-0.2,1.3-0.2,1.9
		c0.1,0.6,0.5,1.1,1.1,1.5c0.3,0.2,0.6,0.2,1,0.1c0.4-0.1,0.5-0.3,0.5-0.7c0-0.2,0-0.4,0-0.7c0-0.3-0.1-0.4-0.4-0.4
		c-0.1,0-0.3,0-0.3-0.2c0-0.2,0.1-0.3,0.2-0.3c0.2,0,0.4,0,0.6,0C109.3,46.3,109.5,46.3,109.8,46.3z"/>
	<path class="st0" d="M126.3,53.8c0.1,0.7-0.2,1.2-0.6,1.7c-0.2,0.3-0.6,0.6-1,0.6c-0.6,0.1-1.3,0.4-1.9,0.1c-0.2-0.1-0.4,0-0.7,0
		c-0.4,0-0.8,0-1.2-0.1c-0.1,0-0.2,0-0.2-0.2c0-0.1,0.1-0.2,0.2-0.2c0.5-0.1,0.6-0.1,0.5-0.7c-0.1-0.8,0.2-1.6,0.1-2.4
		c0-0.3-0.2-0.6-0.2-0.9c0-0.2-0.2-0.2-0.3-0.3c-0.1-0.1-0.3-0.1-0.2-0.3c0.1-0.2,0.2-0.1,0.3-0.1c0.4-0.1,0.8,0.2,1.2,0.2
		c0.3,0,0.7,0.1,1-0.1c0,0,0.1,0,0.1,0c0.4,0.3,0.8,0.1,1.2,0.3c0.7,0.4,1.2,0.9,1.4,1.6C126.4,53.3,126.3,53.6,126.3,53.8z
		 M122.8,53.7C122.8,53.7,122.8,53.7,122.8,53.7c0,0.3,0,0.5,0,0.8c0,0.3,0,0.5,0,0.8c0,0.1,0,0.3,0.2,0.4c0.4,0.3,1.1,0.1,1.4-0.4
		c0.2-0.4,0.4-0.7,0.4-1.2c0-0.3,0-0.5,0-0.8c0-0.7-0.7-1.7-1.6-1.5c-0.2,0-0.3,0.1-0.3,0.3C122.9,52.6,122.8,53.1,122.8,53.7z"/>
	<path class="st0" d="M119.4,59.4c0.3,0,0.7-0.1,1,0.1c0.1,0.1,0.2,0,0.3-0.1c0.3-0.2,0.3-0.2,0.5,0.1c0.2,0.4,0.1,0.8,0.1,1.2
		c0,0.1,0,0.3-0.2,0.3c-0.2,0-0.2,0-0.3-0.2c-0.2-0.5-0.6-0.8-1.2-0.9c-0.3,0-0.5,0-0.8,0.2c-0.3,0.3-0.2,0.6,0.1,0.9
		c0.4,0.3,0.8,0.4,1.2,0.5c0.6,0.2,1.1,0.5,1.4,1c0.5,0.7,0.1,2.1-0.7,2.5c-0.6,0.3-1.1,0.5-1.8,0.2c-0.2-0.1-0.4-0.1-0.6-0.2
		c-0.2-0.1-0.3,0-0.5,0.2c-0.2,0.2-0.3,0.1-0.4-0.1c-0.2-0.5-0.2-1.1-0.2-1.6c0-0.1-0.1-0.3,0.1-0.4c0.2,0,0.3,0.1,0.4,0.3
		c0.1,0.4,0.4,0.7,0.7,0.9c0.2,0.2,0.4,0.4,0.7,0.5c0.3,0.2,0.6-0.1,0.8-0.2c0.2-0.2,0.3-0.4,0.3-0.7c0-0.6-0.6-0.7-1-0.8
		c-0.5-0.2-0.9-0.3-1.4-0.6c-0.3-0.2-0.5-0.4-0.5-0.7c-0.1-0.2-0.2-0.5-0.2-0.7c0-0.9,0.7-1.6,1.6-1.6
		C119.1,59.4,119.2,59.4,119.4,59.4z"/>
	<path class="st0" d="M116.8,83.7c-0.2,0.5-0.4,1-0.6,1.5c0,0.1,0.1,0.2,0.1,0.3c0.1,0.1,0.3,0.2,0.2,0.4c-0.2,0.2-0.3,0-0.5,0
		c-0.2-0.1-0.5-0.1-0.7-0.3c-0.3-0.1-0.2-0.3,0-0.3c0.4-0.2,0.5-0.6,0.6-0.9c0.2-0.4,0.3-0.9,0.5-1.3c0.1-0.2,0-0.2-0.1-0.3
		c-0.1-0.1-0.2-0.2-0.1-0.4c0.1-0.1,0.3-0.1,0.4,0c0.1,0.1,0.3,0.1,0.5,0.1c0.1,0,0.3,0.1,0.3,0.3c0.1,0.7,0.5,1.3,0.7,2
		c0,0.1,0.1,0.3,0.2,0.3c0.1,0,0.1-0.2,0.2-0.2c0.2-0.2,0.2-0.5,0.2-0.7c0.1-0.2,0-0.4-0.1-0.6c-0.1-0.1-0.2-0.2-0.1-0.3
		c0.1-0.1,0.2-0.1,0.4,0c0.2,0.1,0.4,0.2,0.6,0.2c0.2,0,0.4,0.2,0.7,0.2c0.2,0.1,0.5,0.1,0.7,0.1c0.8,0.1,1.5,0.3,2,1
		c0,0,0.1,0.1,0.1,0.1c0,0.6,0.2,1.2-0.1,1.7c-0.3,0.5-0.8,1-1.5,1c-0.7,0-1.3-0.2-1.9-0.4c-0.2-0.1-0.2-0.2,0-0.3
		c0.3-0.2,0.3-0.4,0.4-0.7c0.1-0.4,0.1-0.8,0.2-1.2c0-0.2,0.1-0.4,0.1-0.5c0-0.3-0.3-0.3-0.5-0.4c-0.2-0.1-0.2,0.2-0.2,0.3
		c-0.3,0.7-0.6,1.4-0.9,2.1c0,0.1,0,0.2-0.1,0.3c-0.1,0.1-0.2,0.2-0.3,0.2c-0.2,0-0.2-0.1-0.2-0.3c-0.2-0.6-0.4-1.2-0.6-1.7
		C117.1,84.4,117,84.1,116.8,83.7z M121.1,87c0.5,0,1-0.4,1.1-0.9c0-0.2,0.3-0.4,0.2-0.6c-0.1-0.3-0.1-0.6-0.3-0.8
		c-0.1-0.2-0.6-0.4-0.8-0.4c-0.3,0.1-0.4,0.4-0.3,0.6c0,0.4-0.2,0.8-0.2,1.2c0,0.1,0,0.1-0.1,0.2C120.3,86.7,120.7,87,121.1,87z"/>
	<path class="st0" d="M108.2,62.2c0,0.5,0,1,0,1.5c0,0.7,0.1,0.9,0.8,1.1c0.1,0,0.2,0,0.2,0.2c0,0.2-0.2,0.1-0.3,0.1
		c-0.9,0.1-1.8,0-2.7,0c-0.1,0-0.1,0-0.2,0c-0.1,0-0.2,0-0.2-0.2c0-0.1,0.1-0.1,0.2-0.2c0.5-0.1,0.7-0.3,0.7-0.8c0-1.2,0-2.4,0-3.7
		c0-0.3-0.1-0.4-0.4-0.4c-0.7,0-1.1,0.4-1.4,0.9c-0.1,0.1-0.2,0.3-0.4,0.3c-0.2,0-0.2-0.2-0.2-0.4c0-0.4-0.1-0.7,0.1-1.1
		c0.1-0.2,0.2-0.3,0.4-0.3c0.8,0,1.7,0,2.5,0c0.9,0,1.8,0,2.7,0c0.4,0,0.4,0.1,0.4,0.4c0,0.3,0,0.7,0,1c0,0.1,0,0.2-0.1,0.3
		c-0.1,0-0.2,0-0.3-0.1c-0.1-0.2-0.3-0.3-0.4-0.5c-0.1-0.4-1.1-0.7-1.4-0.5c-0.2,0.1-0.1,0.2-0.1,0.3
		C108.2,60.9,108.2,61.5,108.2,62.2C108.2,62.2,108.2,62.2,108.2,62.2z"/>
	<path class="st0" d="M127.2,60.5c0,0.3,0,0.5,0,0.8c0,0.1,0,0.2-0.1,0.2c-0.1,0-0.2,0-0.2-0.1c-0.1-0.1-0.1-0.1-0.2-0.2
		c-0.3-0.5-0.6-0.9-1.1-1.1c-0.6-0.2-1.1,0-1.4,0.4c-0.6,0.7-0.5,1.6-0.4,2.4c0.1,0.6,0.4,1.1,0.9,1.5c0.3,0.3,0.9,0.3,1.3,0.1
		c0.4-0.2,0.8-0.4,1-0.9c0.1-0.1,0.2-0.1,0.3-0.1c0.2,0.1,0.2,0.2,0.1,0.3c-0.2,0.4-0.4,0.7-0.8,0.9c-0.6,0.3-1.3,0.5-2,0.4
		c-1.1-0.2-1.9-0.7-2.3-1.9c-0.2-0.6-0.2-1.1-0.1-1.7c0-0.4,0.2-0.7,0.4-1c0.3-0.5,0.8-0.9,1.3-1.2c0.1-0.1,0.3-0.1,0.5-0.1
		c0.3,0,0.6,0,0.9,0c0.3,0,0.7,0,1,0.2c0.2,0.1,0.3,0.1,0.5-0.1c0.1-0.1,0.3-0.2,0.4-0.1c0.2,0.1,0.1,0.2,0.1,0.4
		C127.2,60.1,127.2,60.3,127.2,60.5C127.2,60.5,127.2,60.5,127.2,60.5z"/>
	<path class="st0" d="M144.5,65.2c-0.4,0-0.7,0-1.1,0c-0.1,0-0.2,0-0.2-0.1c0-0.1,0-0.2,0.2-0.3c0.1,0,0.2-0.1,0.3-0.2
		c0.1,0,0.1-0.1,0.1-0.2c-0.1-0.3-0.2-0.7-0.3-1c-0.1-0.2-0.2-0.3-0.5-0.3c-0.3,0-0.6,0-0.9,0c-0.2,0-0.3,0-0.3,0.2
		c-0.1,0.3-0.2,0.5-0.2,0.8c0,0.3,0.1,0.6,0.4,0.7c0.1,0,0.2,0.1,0.2,0.2c0,0.1-0.1,0.1-0.2,0.1c-0.5,0-0.9,0-1.4,0
		c-0.1,0-0.3,0-0.3-0.2c0-0.2,0.1-0.3,0.2-0.3c0.4-0.1,0.5-0.5,0.7-0.8c0.3-0.8,0.6-1.6,0.9-2.3c0.2-0.7,0.6-1.3,0.8-2
		c0-0.2,0.2-0.2,0.3-0.3c0.2,0,0.3,0,0.3,0.2c0.2,0.4,0.4,0.9,0.6,1.3c0.3,0.6,0.5,1.2,0.8,1.9c0.2,0.6,0.5,1,0.7,1.6
		c0.1,0.3,0.3,0.4,0.6,0.5c0.1,0.1,0.3,0,0.2,0.2c0,0.2-0.2,0.2-0.3,0.2C145.3,65.2,144.9,65.2,144.5,65.2
		C144.5,65.2,144.5,65.2,144.5,65.2z M142.4,61.3c-0.1,0.4-0.4,0.7-0.4,1.1c0,0.1,0,0.1,0,0.2c0.1,0.1,0.8,0,0.8,0
		c0.1-0.1,0.1-0.2,0-0.3C142.8,61.9,142.6,61.6,142.4,61.3z"/>
	<path class="st0" d="M132.1,65.2c-0.4,0-0.7,0-1.1,0c-0.1,0-0.3,0-0.3-0.2c0-0.2,0.1-0.2,0.3-0.2c0.3-0.1,0.3-0.2,0.2-0.5
		c-0.1-0.2-0.1-0.5-0.2-0.7c-0.1-0.4-0.2-0.5-0.7-0.5c-0.3,0-0.5,0-0.8,0c-0.1,0-0.3,0-0.3,0.2c-0.1,0.4-0.3,0.7-0.2,1.1
		c0,0.3,0.3,0.3,0.4,0.4c0.1,0.1,0.2,0.1,0.2,0.2c0,0.1-0.1,0.2-0.2,0.2c-0.5,0-1,0-1.5,0c-0.1,0-0.3,0-0.3-0.1
		c0-0.2,0.1-0.3,0.2-0.3c0.4-0.2,0.6-0.5,0.7-0.9c0.2-0.6,0.5-1.2,0.7-1.8c0.2-0.5,0.4-1.1,0.6-1.6c0.1-0.3,0.3-0.7,0.5-1
		c0.1-0.2,0.4-0.2,0.5,0.1c0.4,0.7,0.7,1.5,1,2.2c0.1,0.3,0.2,0.6,0.3,0.8c0.2,0.4,0.3,0.8,0.5,1.2c0,0,0.1,0.1,0.1,0.1
		c0,0.5,0.3,0.7,0.7,0.9c0.1,0,0.2,0.1,0.2,0.2c0,0.1-0.1,0.2-0.3,0.2C132.9,65.2,132.5,65.2,132.1,65.2
		C132.1,65.2,132.1,65.2,132.1,65.2z M130,61.4c-0.1,0.2-0.3,0.4-0.4,0.7c-0.1,0.2-0.1,0.3,0,0.5c0,0.1,0.7,0.1,0.8,0
		c0.1-0.1,0.1-0.1,0.1-0.2C130.3,62,130.2,61.7,130,61.4z"/>
	<path class="st0" d="M117,40c-0.4,0-0.9,0-1.3,0c-0.1,0-0.3,0-0.3-0.2c0-0.2,0.1-0.2,0.3-0.2c0.3,0,0.3-0.2,0.3-0.4
		c0-0.8-0.1-1.7,0-2.5c0-0.1,0-0.3-0.2-0.3c-0.1,0-0.3,0-0.3-0.2c0-0.2,0.2-0.2,0.3-0.2c0.4,0,0.8,0,1.3,0c0.3,0,0.6,0,0.9,0
		c0.8,0,1.4,0.4,1.7,1.1c0.4,0.8,0.2,1.6-0.3,2.3c-0.3,0.3-0.7,0.6-1.2,0.6C117.8,39.9,117.4,40,117,40z M118.7,38.2
		c0-0.8-0.2-1.4-0.9-1.8c-0.3-0.1-0.6-0.1-0.5,0.1c0,0.4-0.2,0.8-0.1,1.2c0,0.4,0,0.8,0,1.1c0,0.7,0.3,0.8,0.9,0.6
		C118.5,39.2,118.7,38.7,118.7,38.2z"/>
	<path class="st0" d="M144.1,43.5c0.4,0,0.7,0,1.1,0c0.1,0,0.3,0,0.3,0.2c0,0.2-0.1,0.3-0.2,0.3c-0.4,0.1-0.5,0.3-0.5,0.7
		c0,1,0,2,0,3c0,0.3,0.1,0.5,0.2,0.8c0,0.1,0.2,0.2,0.3,0.2c0.2,0,0.3,0.1,0.3,0.3c0,0.2-0.1,0.3-0.3,0.2c-0.4,0-0.7,0.1-1.1-0.1
		c-0.2-0.1-0.3-0.1-0.5,0c-0.3,0.1-0.5,0.1-0.8,0.1c-0.1,0-0.2-0.1-0.2-0.2c0-0.1,0.1-0.2,0.2-0.2c0.6,0,0.6-0.5,0.6-0.9
		c0.1-1,0-2,0-2.9c0-0.2-0.1-0.5-0.1-0.7c0-0.1-0.1-0.1-0.2-0.2c-0.1,0-0.2,0-0.3-0.1c-0.1-0.1-0.2-0.1-0.2-0.3
		c0-0.1,0.2-0.1,0.3-0.1C143.3,43.5,143.7,43.5,144.1,43.5z"/>
	<path class="st0" d="M134.5,43.5c0.4,0,0.7,0,1.1,0c0.1,0,0.3,0,0.3,0.1c0,0.2-0.1,0.3-0.2,0.3c-0.5,0.1-0.5,0.5-0.5,0.9
		c0,0.9,0,1.9,0,2.8c0,0.3,0.2,0.6,0.2,0.9c0,0.1,0.1,0.2,0.3,0.2c0.2,0,0.3,0.1,0.3,0.3c0,0.2-0.2,0.2-0.4,0.2
		c-0.4,0-0.7,0.1-1.1-0.1c-0.1-0.1-0.2,0-0.3,0c-0.2,0.2-0.5,0.1-0.8,0.1c-0.2,0-0.2-0.1-0.2-0.2c0-0.2,0.1-0.2,0.2-0.3
		c0.3-0.1,0.6-0.4,0.6-0.8c0-1,0-2.1,0-3.1c0-0.3-0.2-0.5-0.2-0.7c0-0.1-0.2-0.1-0.3-0.1c-0.2,0-0.3-0.1-0.3-0.3
		c0-0.2,0.2-0.2,0.3-0.2C133.8,43.5,134.1,43.5,134.5,43.5C134.5,43.5,134.5,43.5,134.5,43.5z"/>
	<path class="st0" d="M123.5,37.6c0-0.3,0-0.5,0-0.8c0-0.3-0.1-0.4-0.3-0.4c-0.1,0-0.3,0-0.2-0.2c0-0.2,0.2-0.2,0.3-0.2
		c0.4,0,0.7,0,1.1,0c0.1,0,0.2,0,0.2,0.2c0,0.1-0.1,0.2-0.2,0.2c-0.2,0.1-0.3,0.3-0.3,0.5c0,0.6,0,1.2,0,1.8c0,0.4-0.1,0.8-0.4,1
		c-0.2,0.2-0.5,0.3-0.8,0.3c-0.4,0-0.7,0-1.1,0c-0.5,0-0.9-0.3-1.1-0.9c-0.1-0.4-0.2-0.8,0-1.3c0.1-0.4,0-0.9-0.1-1.3
		c0-0.1-0.1-0.1-0.2-0.2c-0.1,0-0.2-0.1-0.2-0.2c0-0.1,0.1-0.2,0.2-0.2c0.6,0.1,1.1-0.1,1.7,0c0.1,0,0.2,0,0.2,0.1
		c0,0.1,0,0.2-0.1,0.2c-0.3,0.1-0.3,0.4-0.3,0.6c0,0.6,0,1.1,0,1.7c0,0.3,0.3,0.7,0.6,0.8c0.5,0.1,0.9-0.1,1-0.5
		c0.1-0.2,0.1-0.4,0.1-0.6C123.5,38,123.5,37.8,123.5,37.6C123.5,37.6,123.5,37.6,123.5,37.6z"/>
	<path class="st0" d="M124.8,37.9c0-0.3-0.1-0.7,0.2-1c0.4-0.5,0.8-1,1.5-1c0.5,0,0.9-0.1,1.4,0.1c0.1,0,0.1,0,0.2,0
		c0.3-0.1,0.4,0,0.4,0.3c0,0.3,0,0.6,0,0.9c0,0.1,0,0.2-0.2,0.2c-0.1,0-0.2-0.1-0.3-0.2c-0.2-0.3-0.4-0.7-0.7-0.8
		c-0.2-0.1-0.5-0.1-0.7,0.1c-0.5,0.5-0.7,1.4-0.4,2.1c0.1,0.2,0.2,0.5,0.4,0.6c0.3,0.3,0.6,0.3,1,0.1c0.2-0.1,0.4-0.2,0.5-0.5
		c0-0.2,0.2-0.3,0.4-0.2c0.2,0.1,0.1,0.3,0.1,0.4c-0.2,0.5-0.6,0.8-1.2,0.9c-0.1,0-0.2,0-0.3,0.1c-0.1,0.1-0.2,0.1-0.3,0.1
		c-0.5-0.2-1-0.1-1.4-0.5c-0.1-0.1-0.2-0.2-0.2-0.3C124.8,38.7,124.8,38.7,124.8,37.9z"/>
	<path class="st0" d="M130.8,36c0.3,0,0.7-0.1,1,0.1c0,0,0.1,0,0.1,0c0.4-0.1,0.4-0.1,0.4,0.3c0,0.3,0,0.5,0,0.8
		c0,0.1,0,0.2-0.1,0.2c-0.1,0-0.2,0-0.3-0.1c-0.2-0.3-0.4-0.7-0.8-0.9c-0.2,0-0.3-0.1-0.4,0c-0.3,0.2-0.7,0.5-0.7,1
		c0,0.5,0,1,0.2,1.5c0.2,0.4,0.8,0.8,1.3,0.5c0.2-0.1,0.4-0.2,0.5-0.5c0-0.2,0.2-0.3,0.4-0.2c0.2,0.1,0.1,0.3,0.1,0.4
		c-0.2,0.6-0.6,0.8-1.2,0.9c-0.1,0-0.2,0-0.3,0.1c0,0-0.1,0.1-0.1,0c-0.4-0.1-0.9-0.1-1.3-0.3c-0.4-0.2-0.6-0.5-0.8-0.9
		c-0.1-0.2-0.1-0.3-0.1-0.5c0-0.3,0-0.6,0-0.8c0-0.4,0.1-0.6,0.4-0.9C129.5,36.1,130.1,35.8,130.8,36z"/>
	<path class="st0" d="M137,84.3c-0.3-0.1-0.7-0.3-1-0.4c-0.5-0.2-1-0.4-1.5-0.5c0,0-0.1,0-0.1,0c0,0,0,0.1,0,0.1
		c0.2,0.4,0.4,0.8,0.7,1.2c0.1,0.2,0.3,0.1,0.5,0.1c0.1,0,0.3,0,0.3,0.2c0,0.2-0.1,0.2-0.2,0.2c-0.2,0.1-0.4,0.2-0.6,0.4
		c-0.1,0.1-0.3,0.1-0.4,0.1c-0.2-0.1-0.1-0.2,0-0.4c0-0.1,0-0.2,0-0.3c-0.3-0.6-0.7-1.1-0.9-1.6c-0.1-0.2-0.3-0.4-0.6-0.4
		c-0.1,0-0.3,0-0.3-0.2c0-0.1,0-0.3,0.2-0.3c0.4-0.3,0.9-0.4,1.4-0.1c0.5,0.3,1.1,0.4,1.7,0.6c0.1,0,0.2,0,0.1-0.2
		c-0.2-0.3-0.4-0.6-0.6-1c-0.1-0.2-0.3-0.2-0.5-0.2c-0.1,0-0.2,0-0.3-0.2c0-0.1,0.1-0.2,0.2-0.3c0.2-0.1,0.5-0.2,0.7-0.4
		c0.1-0.1,0.3-0.1,0.3,0.2c0,0.7,0.4,1.2,0.7,1.7c0.1,0.2,0.2,0.3,0.3,0.5c0.1,0.2,0.1,0.3,0.3,0.4c0.1,0.1,0.2,0.2,0.2,0.4
		C137.4,84.3,137.2,84.2,137,84.3z"/>
	<path class="st0" d="M128,56.2c-0.4,0-0.7,0-1,0c-0.1,0-0.2,0-0.3-0.2c0-0.2,0.1-0.2,0.2-0.2c0.3-0.1,0.4-0.3,0.4-0.6c0-1,0-2,0-3
		c0-0.2-0.1-0.5-0.4-0.5c-0.2,0-0.2-0.2-0.2-0.3c0-0.2,0.2-0.2,0.3-0.2c0.6,0.3,1.3,0.2,1.9,0.1c0.2,0,0.3,0.1,0.3,0.2
		c0,0.2-0.1,0.2-0.2,0.2c-0.3,0-0.3,0.1-0.4,0.4c-0.3,0.8-0.1,1.6-0.1,2.4c0,0.3,0.2,0.7,0.2,1c0,0.2,0.2,0.2,0.4,0.3
		c0.1,0,0.2,0.1,0.2,0.2c0,0.1-0.1,0.1-0.2,0.2C128.7,56.2,128.3,56.2,128,56.2z"/>
	<path class="st0" d="M113.9,81c1.2,0,2,0.9,2,1.8c0,1-0.7,1.9-1.9,2c-1.2,0.1-2-0.9-2-1.7C112,82,113,81,113.9,81z M112.9,83.2
		c0,0.2,0,0.3,0,0.4c0,0.5,0.6,0.8,1,0.6c0.3-0.1,0.6-0.3,0.8-0.6c0.2-0.3,0.4-0.7,0.4-1.1c0-0.4-0.2-0.8-0.6-0.9
		c-0.4-0.2-0.7,0.1-0.9,0.3C113.2,82.2,112.8,82.6,112.9,83.2z"/>
	<path class="st0" d="M140.4,81.8c-0.1,0.2-0.1,0.5-0.3,0.6c-0.2,0.1-0.4,0.4-0.7,0.5c-0.2,0.1-0.3,0.3-0.5,0.5
		c-0.3,0.2-0.4,0.2-0.5-0.1c0-0.1-0.1-0.3-0.2-0.4c-0.3-0.3-0.5-0.7-0.8-1c-0.1-0.1-0.2-0.2-0.3-0.4c-0.1-0.3-0.3-0.5-0.7-0.5
		c-0.1,0-0.2,0-0.2-0.1c0-0.1,0-0.2,0.1-0.3c0.4-0.3,0.9-0.6,1.3-1c0.1-0.1,0.3-0.2,0.5-0.3c0.1-0.1,0.3,0,0.4,0.1
		c0.1,0.1,0.2,0.3,0.3,0.5c0,0.1,0,0.2-0.1,0.2c-0.1,0-0.2,0-0.2,0c-0.3-0.3-0.5-0.1-0.7,0.1c-0.1,0.1-0.3,0.1-0.2,0.2
		c0.1,0.2,0.2,0.6,0.5,0.6c0.2,0,0.3-0.2,0.4-0.4c0-0.1,0-0.2,0-0.2c0-0.2,0.2-0.3,0.4-0.1c0.3,0.2,0.4,0.5,0.6,0.8
		c0.1,0.1,0,0.2,0,0.2c-0.1,0.1-0.2,0.1-0.2,0c-0.1,0-0.1-0.1-0.2-0.1c-0.2-0.1-0.4,0-0.5,0.2c-0.1,0.2,0,0.3,0.1,0.3
		c0.1,0.1,0.2,0.2,0.2,0.2c0.3,0.3,0.3,0.3,0.7,0c0.2-0.2,0.3-0.4,0.3-0.7c0-0.1,0-0.2,0.1-0.2c0.1,0,0.2,0.1,0.2,0.2
		C140.2,81.4,140.3,81.6,140.4,81.8z"/>
	<path class="st0" d="M123.6,87.7c-0.1,0-0.1,0-0.2,0c-0.2,0-0.4,0.1-0.5-0.1c-0.1-0.2,0.1-0.3,0.2-0.4c0.4-0.4,0.5-0.9,0.7-1.4
		c0.2-0.5,0.4-0.9,0.7-1.3c0.1-0.1,0.2-0.2,0.3-0.2c0.2,0,0.2,0.1,0.2,0.3c0.2,0.6,0.5,1.1,0.7,1.7c0.1,0.3,0.3,0.6,0.4,0.9
		c0.1,0.2,0.2,0.3,0.4,0.4c0.1,0,0.2,0.1,0.1,0.3c0,0.1-0.1,0.1-0.2,0.1c-0.1,0-0.3,0-0.4,0c-0.2-0.1-0.4-0.1-0.6,0
		c-0.1,0.1-0.2,0.1-0.3,0c-0.1-0.1,0-0.2,0.1-0.3c0.1-0.1,0.2-0.2,0.1-0.4c-0.1-0.2-0.2-0.5-0.5-0.5c-0.1,0-0.3,0-0.4,0
		c-0.2,0-0.3,0.1-0.4,0.3c-0.1,0.2,0,0.3,0.2,0.4c0.1,0.1,0.2,0.1,0.2,0.3c0,0.1-0.2,0.1-0.3,0.1C123.8,87.7,123.7,87.7,123.6,87.7
		C123.6,87.7,123.6,87.7,123.6,87.7z"/>
	<path class="st0" d="M130.9,86.2c0,0.2,0.1,0.4,0.3,0.4c0.1,0,0.3,0,0.3,0.2c0,0.2-0.1,0.2-0.2,0.2c-0.3,0-0.5,0.1-0.7,0.2
		c-0.1,0.1-0.2,0.1-0.3,0c-0.1-0.1-0.1-0.2,0-0.3c0.1-0.2,0-0.4,0.1-0.6c0.2-0.7,0.1-1.5,0.2-2.2c0-0.2,0.1-0.5,0.1-0.7
		c0-0.2,0.2-0.3,0.4-0.2c0.2,0.1,0.3,0.3,0.4,0.4c0.5,0.6,1,1.2,1.5,1.8c0.2,0.2,0.3,0.4,0.6,0.4c0.1,0,0.1,0,0.1,0.1
		c0,0.1-0.1,0.2-0.2,0.2c-0.2,0-0.5,0.1-0.7,0.2c-0.1,0-0.3,0-0.4,0.1c-0.1,0.1-0.2,0.1-0.3,0c-0.1-0.1-0.1-0.2,0-0.2
		c0.2-0.3,0-0.4-0.1-0.6c-0.1-0.1-0.2-0.2-0.3-0.1c-0.2,0.1-0.4,0.1-0.6,0.1C130.9,85.8,130.9,86,130.9,86.2z"/>
	<path class="st0" d="M103.7,73.9c0.2,0.1,0.3-0.1,0.5-0.2c0.2-0.2,0.1-0.3,0-0.4c-0.2-0.6-0.3-0.7-0.7-0.7c-0.2,0-0.4,0.1-0.3,0.4
		c0.1,0.2,0,0.3-0.1,0.3c-0.2,0.1-0.3-0.1-0.3-0.2c0-0.2-0.2-0.4-0.3-0.6c-0.1-0.1-0.1-0.3,0-0.4c0.1-0.1,0.2,0,0.4,0
		c0.1,0.1,0.3,0.1,0.4,0.1c0.8,0,1.6-0.2,2.5-0.2c0.1,0,0.3,0,0.4,0c0.1,0,0.2,0,0.2,0.1c0,0.1,0,0.2-0.1,0.3
		c-0.5,0.4-0.8,1-1.2,1.4c-0.3,0.3-0.5,0.7-0.8,0.9c-0.1,0.1-0.1,0.3-0.1,0.4c0,0.1,0,0.2-0.2,0.2c-0.1,0-0.2,0-0.2-0.2
		c0-0.4-0.3-0.6-0.4-0.9C103.3,74,103.4,73.9,103.7,73.9z"/>
	<path class="st0" d="M106.8,78.6c0,0.1,0.1,0.2-0.1,0.2c-0.1,0-0.3,0-0.3-0.1c-0.1-0.2-0.3-0.3-0.4-0.5c-0.1-0.1-0.1-0.2-0.1-0.3
		c0.1-0.1,0.2-0.1,0.3-0.1c0.5,0,1-0.2,1.4-0.4c0.5-0.2,1.1-0.4,1.6-0.5c0.1,0,0.2,0,0.3,0c0.2,0,0.3,0.1,0.2,0.3
		c-0.2,0.4-0.4,0.8-0.6,1.2c-0.2,0.4-0.4,0.9-0.7,1.4c-0.1,0.2,0,0.3-0.1,0.5c0,0.3-0.2,0.3-0.4,0.2c-0.3-0.2-0.5-0.5-0.8-0.8
		c-0.1-0.1,0-0.3,0.1-0.3c0.1,0,0.2,0,0.3-0.1c0.1-0.1,0.4-0.2,0.3-0.4c-0.1-0.3-0.2-0.6-0.5-0.8C107.1,78,106.8,78.3,106.8,78.6z"
		/>
	<path class="st0" d="M111.2,79.3c0-0.1,0-0.1,0-0.2c0-0.1-0.1-0.2,0-0.3c0.1-0.1,0.3-0.1,0.4,0c0.3,0.4,0.8,0.6,1.1,0.9
		c0.1,0.1,0.1,0.2,0.2,0.2c0.2,0.1,0.3,0.2,0.2,0.4c-0.1,0.3-0.2,0.5-0.4,0.6c-0.1,0-0.2,0-0.2-0.1c-0.1-0.1-0.1-0.2,0-0.2
		c0-0.1,0.1-0.2,0-0.3c-0.2-0.2-0.3-0.4-0.5-0.5c-0.1-0.1-0.5,0.3-0.5,0.6c0,0.2,0.1,0.3,0.3,0.3c0.1,0,0.2,0,0.3,0.1
		c0.1,0,0.2,0.1,0.1,0.3c-0.1,0.2-0.2,0.5-0.5,0.6c-0.2,0.1-0.3,0.1-0.4-0.2c0-0.1,0-0.2,0-0.2c0-0.2-0.2-0.3-0.3-0.3
		c-0.1,0-0.2,0.1-0.3,0.2c-0.1,0.2-0.2,0.3-0.3,0.5c-0.1,0.1-0.1,0.3,0,0.4c0.1,0.1,0.1,0.3,0,0.4c-0.1,0.1-0.3,0-0.4-0.1
		c-0.2-0.3-0.5-0.4-0.8-0.6c-0.2-0.2-0.2-0.4,0.1-0.5c0.3-0.1,0.5-0.3,0.6-0.5c0.2-0.4,0.6-0.7,0.9-1
		C111.1,79.7,111.2,79.5,111.2,79.3z"/>
	<path class="st0" d="M101.6,69.8c-0.1-0.8,0.4-1.2,1-1.5c0.8-0.4,2-0.1,2.5,0.6c0.2,0.2,0.2,0.6,0.2,0.9c0,0.2,0,0.4,0.1,0.6
		c0.1,0.1,0,0.3-0.1,0.3c-0.2,0.1-0.5,0.2-0.8,0.3c-0.1,0-0.3,0.1-0.3-0.1c-0.1-0.1,0.1-0.2,0.1-0.3c0.3-0.3,0.4-0.6,0.4-1
		c0-0.5-0.6-0.9-1-0.8c-0.3,0.1-0.6,0.2-0.9,0.3c-0.4,0.2-0.5,0.6-0.6,1c-0.1,0.2,0.1,0.4,0.3,0.6c0.2,0.1,0.3,0.3,0.5,0.4
		c0.1,0,0.2,0.1,0.2,0.2c0,0.1-0.2,0.1-0.3,0.1c-0.5,0-0.7-0.2-1-0.6C101.6,70.6,101.6,70.2,101.6,69.8z"/>
	<path class="st0" d="M105.8,77.3c-0.5,0-0.9-0.3-1-0.8c0-0.1-0.1-0.1-0.1-0.2c-0.1-0.3-0.1-0.5,0.1-0.7c0.1-0.2,0.3-0.3,0.5-0.5
		c0.1-0.1,0.2-0.2,0.3-0.1c0.1,0.1,0.1,0.2,0,0.3c-0.2,0.1-0.2,0.3-0.3,0.5c-0.1,0.3-0.1,0.5,0.2,0.7c0.2,0.1,0.3,0.2,0.5,0.1
		c0.2-0.1,0.3-0.2,0.2-0.5c-0.1-0.4-0.1-0.9,0-1.3c0-0.2,0.2-0.3,0.4-0.5c0.4-0.4,1.3-0.1,1.5,0.4c0.1,0.2,0.1,0.5,0.3,0.7
		c0,0,0,0.1,0,0.1c0,0.2-0.6,0.6-0.9,0.6c-0.2,0-0.1-0.1-0.1-0.3c0.1-0.3,0.3-0.5,0.2-0.8c0-0.2-0.2-0.3-0.4-0.4
		c-0.2,0-0.3,0.1-0.3,0.3c0,0.2,0,0.3,0,0.4c0.3,0.6,0,1.6-0.7,1.8C106.1,77.3,106,77.3,105.8,77.3z"/>
	<path class="st0" d="M133.6,40c-0.3,0-0.5,0-0.8,0c-0.1,0-0.3,0-0.3-0.2c0-0.1,0.1-0.2,0.2-0.2c0.2,0,0.2-0.1,0.2-0.3
		c0-0.2,0-0.4,0.1-0.5c0.1-0.2,0-0.5,0.1-0.7c0.1-0.5-0.2-1-0.2-1.5c0-0.1-0.1-0.2-0.2-0.2c-0.1,0-0.2-0.1-0.2-0.2
		c0-0.1,0.1-0.2,0.2-0.2c0.3,0,0.5,0,0.8,0c0.3,0,0.6,0,0.9,0c0.1,0,0.2,0,0.2,0.1c0,0.1,0,0.2-0.1,0.3c-0.3,0.1-0.3,0.3-0.3,0.6
		c0,0.7,0,1.4,0,2.1c0,0.2,0.1,0.4,0.3,0.5c0.1,0,0.2,0.1,0.2,0.2c0,0.1-0.1,0.2-0.2,0.2C134.1,40,133.9,39.9,133.6,40
		C133.6,40,133.6,40,133.6,40z"/>
	<path class="st0" d="M127.8,86.5c0-0.5-0.2-1-0.2-1.5c0-0.3-0.3-0.5-0.5-0.4c-0.2,0-0.3,0.1-0.3,0.3c0,0.1-0.1,0.3-0.2,0.3
		c-0.1,0-0.2,0.1-0.2,0c-0.1-0.3-0.3-0.5-0.2-0.8c0-0.1,0.1-0.2,0.2-0.2c0.2,0,0.3-0.1,0.5-0.1c0.6,0.1,1.1-0.2,1.7-0.2
		c0.1,0,0.2,0,0.4-0.1c0.3-0.1,0.5-0.1,0.5,0.2c0,0.2,0.2,0.2,0.2,0.4c0,0.1,0,0.2-0.1,0.3c-0.1,0.1-0.2,0-0.3-0.1
		c-0.1-0.1-0.2-0.1-0.2-0.2c-0.1-0.1-0.2-0.1-0.4,0c-0.1,0.1-0.2,0.1-0.2,0.3c0,0.2,0,0.5,0.1,0.7c0.1,0.1,0.1,0.3,0.1,0.4
		c0,0.3,0.1,0.6,0.2,0.9c0,0.2,0.2,0.3,0.4,0.3c0.1,0,0.2,0,0.2,0.2c0,0.1-0.1,0.2-0.2,0.2c-0.4,0-0.9,0.2-1.3,0.1
		c-0.1,0-0.3,0-0.3-0.1c0-0.1,0.1-0.2,0.2-0.3C127.9,87,127.7,86.7,127.8,86.5z"/>
	<path class="st0" d="M145.8,75.1c0,0.2,0,0.4,0,0.5c0,0.1,0,0.2-0.1,0.3c-0.1,0.1-0.2,0.1-0.3,0c-0.1-0.1-0.1-0.2,0-0.2
		c0.2-0.3-0.1-0.6-0.1-0.9c0-0.1-0.2-0.1-0.3,0c0,0.1-0.1,0.1-0.1,0.2c-0.3,0.5-0.9,0.5-1.4,0.2c-0.4-0.2-0.5-0.5-0.6-0.9
		c-0.2-0.4,0.1-1,0.6-1.2c0.7-0.3,1.8,0.1,2.1,0.8C145.7,74.3,145.9,74.7,145.8,75.1z M144.1,74.7c0.2,0,0.4-0.2,0.5-0.3
		c0.1-0.1,0-0.1,0-0.2c-0.2-0.3-0.5-0.4-0.9-0.5c-0.2,0-0.5,0.3-0.4,0.4C143.5,74.4,143.8,74.6,144.1,74.7z"/>
	<path class="st0" d="M147.4,72.7c-0.1,0-0.2,0-0.4-0.1c-0.3-0.2-0.4-0.1-0.5,0.1c-0.1,0.2-0.2,0.4-0.3,0.6c-0.1,0.2-0.3,0.3-0.4,0
		c-0.2-0.3-0.4-0.6-0.6-1c-0.2-0.4-0.5-0.8-0.7-1.3c0-0.1-0.1-0.1-0.1-0.2c0-0.1,0-0.2,0.1-0.3c0.1-0.1,0.2,0,0.3,0
		c0.3,0.2,0.6,0.3,0.9,0.4c0.2,0.1,0.5,0.3,0.7-0.1c0,0,0.1-0.1,0.1,0c0.2,0.1,0.5,0.1,0.5,0.4c0.1,0.4,0.4,0.5,0.6,0.7
		c0.2,0.1,0.3,0.4,0.1,0.6C147.6,72.8,147.5,72.7,147.4,72.7z"/>
	<path class="st0" d="M142.7,79.5c0,0.2-0.1,0.3-0.2,0.4c-0.2,0.2-0.5,0.5-0.7,0.7c-0.1,0.1-0.3,0.3-0.3,0.5c0,0.1-0.2,0.1-0.3,0.1
		c-0.1,0-0.2,0-0.2-0.1c0-0.4-0.3-0.6-0.6-0.8c-0.3-0.3-0.6-0.6-0.9-0.9c-0.2-0.2-0.4-0.3-0.7-0.2c-0.1,0-0.3,0.1-0.3-0.1
		c-0.1-0.1,0.1-0.2,0.2-0.3c0.2-0.2,0.3-0.3,0.4-0.5c0.1-0.2,0.2-0.2,0.4-0.2c0.2,0,0.3,0,0.2,0.2c-0.1,0.2,0,0.3,0.2,0.4
		c0.5,0.3,0.9,0.8,1.3,1.2c0.1,0.1,0.2,0.3,0.4,0.2c0.2-0.1,0.4-0.2,0.5-0.5c0-0.2,0.1-0.4,0-0.6c0-0.1,0-0.2,0.1-0.3
		c0.1-0.1,0.2,0,0.3,0.1C142.6,79,142.7,79.2,142.7,79.5z"/>
	<path class="st0" d="M147.8,69.3c0-0.1,0-0.3-0.1-0.4c-0.1-0.1-0.1-0.2,0-0.3c0.1-0.1,0.2,0,0.3,0c0.5,0.4,0.6,0.7,0.4,1.3
		c-0.1,0.2-0.1,0.5-0.2,0.7c0,0.1,0,0.3-0.2,0.3c-0.2,0-0.3-0.1-0.3-0.2c-0.2-0.4-0.6-0.7-0.8-1.1c-0.2-0.2-0.4-0.4-0.7-0.5
		c-0.2-0.1-0.4,0-0.5,0.3c0,0.1,0,0.3,0.1,0.4c0.1,0.1,0,0.2-0.1,0.3c-0.1,0.1-0.1,0.1-0.2,0c-0.2-0.2-0.4-0.3-0.4-0.6
		c0-0.2,0-0.4,0-0.6c0-0.4,0.5-0.7,0.8-0.6c0.2,0.1,0.4,0.1,0.6,0.3c0.3,0.3,0.7,0.6,0.9,1c0.1,0.2,0.2,0.1,0.3,0
		C147.8,69.5,147.8,69.4,147.8,69.3z"/>
	<path class="st0" d="M141.5,76.3c0.1-0.2,0.1-0.5,0.2-0.8c0-0.2,0.3-0.3,0.5-0.1c0.4,0.4,1,0.6,1.4,1.1c0.2,0.2,0.4,0.2,0.6,0.4
		c0.1,0.1,0.2,0.1,0.4,0c0.1-0.1,0.2-0.1,0.3,0c0.1,0.1,0,0.2,0,0.3c-0.2,0.3-0.4,0.5-0.5,0.8c-0.1,0.1-0.1,0.2-0.2,0.1
		c-0.1,0-0.1-0.1-0.1-0.2c0-0.3-0.2-0.4-0.4-0.5c-0.4-0.2-0.6-0.5-0.9-0.7c-0.1-0.1-0.2-0.2-0.4-0.2c-0.1-0.1-0.2-0.1-0.3,0.1
		c-0.1,0.1-0.1,0.1-0.3,0.1C141.5,76.6,141.5,76.5,141.5,76.3z"/>
</g>
</svg>
