<?xml version="1.0" encoding="utf-8"?>
<!-- Generator: $$$/GeneralStr/196=Adobe Illustrator 27.6.0, SVG Export Plug-In . SVG Version: 6.00 Build 0)  -->
<svg version="1.1" id="Capa_1" xmlns="http://www.w3.org/2000/svg" xmlns:xlink="http://www.w3.org/1999/xlink" x="0px" y="0px"
	 viewBox="0 0 250 100" style="enable-background:new 0 0 250 100;" xml:space="preserve">
<style type="text/css">
	.st0{fill:none;}
	.st1{fill:#777777;}
</style>
<g>
	<path class="st0" d="M132.5,59.7h81.3V40.2h-81.3V59.7L132.5,59.7z"/>
	<path class="st1" d="M182.5,52.8l2.7-7.9l2.7,7.9H182.5z M153.1,49.3h-1.5v-7.6h1.2c2.2,0,3.6,1.4,3.6,4
		C156.5,47.1,155.4,49.3,153.1,49.3z M136.5,52.8l2.7-7.9l2.7,7.9H136.5z M213.8,41.7V41h-9.2v0.7h1.4v12.5L197.5,41h-4v0.7h1.4
		v16.8h-2.5l-6.2-18.3l-6.4,18.3h-2.4V41.7h1.4V41h-3.8l-4.8,13.8l-5-13.8h-3.7v0.7h1.4v16.8h-2.8c-0.8,0-1.5-0.7-1.5-1.9v-2.7
		c0-2-0.7-3.7-2.7-4.3c1.8-0.5,3-2.2,3-4c0-2.6-1.9-4.5-5.6-4.5h-5.6v0.7h1.4v16.8h-2.9l-6.2-18.3l-6.4,18.3h-1.3v0.7h3.6v-0.7h-1.6
		l1.8-5.1h5.8l1.7,5.1h-2.2v0.7h12.2v-0.7h-2.2v-8.6h1.5c2.2,0,3.2,0.9,3.2,3v1.6c0,3.7,2.4,4.7,3.8,4.7h5.2v-0.7h-1.6V43.6
		l5.8,15.7l5.5-16.2v15.4h-1.4v0.7h8.4v-0.7h-1.6l1.8-5.1h5.8l1.7,5.1h-2.2v0.7h9.3v-0.7h-1.4V42.6l11.1,17.1V41.7h3.4v16.8h-1.4
		v0.7h5.2v-0.7h-1.4V41.7H213.8L213.8,41.7L213.8,41.7z M116.3,59.1c-4.6,0-4.8-6-4.8-8.9c0-2.8,0.3-8.9,4.8-8.9
		c4.5,0,4.9,6,4.9,8.9C121.1,53.1,120.8,59.1,116.3,59.1z M116.3,40.7c-4.8,0-7.9,5.3-7.9,9.5c0,4.6,3.4,9.5,7.9,9.5
		c4.5,0,7.9-4.6,7.9-9.5C124.1,46,120.8,40.7,116.3,40.7z M102.5,41.7h1.4v16.7h-1.4v0.6h5.2v-0.6h-1.4V41.7l1.4,0v-0.6h-5.2V41.7
		 M79.1,49.3h-1.5v-7.6h1.2c2.2,0,3.6,1.4,3.6,4C82.5,47.1,81.4,49.3,79.1,49.3z M86.3,58.8c-0.8,0-1.5-0.7-1.5-2V54
		c0-2.1-0.7-3.7-2.7-4.3c1.8-0.5,3-2.2,3-4.1c0-2.6-1.9-4.6-5.6-4.6h-5.5v0.7h1.4v16.9h-1.4v0.7h5.9v-0.7h-2.2V50h1.5
		c2.1,0,3.2,0.9,3.2,3v1.7c0,3.7,2.4,4.7,3.7,4.7c0.8,0,1.2-0.3,1.6-0.6l-0.4-0.5C86.8,58.7,86.5,58.8,86.3,58.8L86.3,58.8
		L86.3,58.8z M65.4,59.1c-4.6,0-4.8-6-4.8-8.9c0-2.8,0.3-8.9,4.8-8.9c4.5,0,4.9,6,4.9,8.9C70.3,53.1,70,59.1,65.4,59.1z M65.4,40.7
		c-4.8,0-7.9,5.3-7.9,9.5c0,4.6,3.4,9.5,7.9,9.5c4.5,0,7.9-4.6,7.9-9.5C73.3,46,69.9,40.7,65.4,40.7z M51.6,41.7h1.4v16.7h-1.4v0.6
		h5.2v-0.6h-1.4l0-16.7l1.4,0v-0.6h-5.2V41.7 M45.9,52.2h1.7v3.3c0,1.7-1.3,3.6-3.6,3.6c-4.3,0-4.7-5.5-4.7-8.9
		c0-3.1,0.3-8.9,5.1-8.9c1.8,0,3.8,1.6,4.2,5.2h0.6v-5.8h-0.6c-0.1,0.6-0.4,0.9-1.1,0.9c-0.6,0-1.4-1-3.2-1c-5.4,0-8.1,5.7-8.1,9.5
		c0,4,3,9.5,7.8,9.5c2.6,0,2.8-1.5,4.4-1.5c0.5,0,0.8,0.5,0.9,1.1h0.7v-7.1h1.4v-0.7h-5.4V52.2 M96.7,52.2h1.7v3.3
		c0,1.7-1.3,3.6-3.6,3.6c-4.3,0-4.7-5.5-4.7-8.9c0-3.1,0.3-8.9,5.1-8.9c1.8,0,3.8,1.6,4.2,5.2h0.6v-5.8h-0.6
		c-0.1,0.6-0.4,0.9-1.1,0.9c-0.6,0-1.4-1-3.2-1c-5.4,0-8.1,5.7-8.1,9.5c0,4,3,9.5,7.8,9.5c2.6,0,2.8-1.5,4.4-1.5
		c0.5,0,0.8,0.5,0.9,1.1h0.7l0-7.1h1.4v-0.7h-5.4V52.2"/>
</g>
</svg>
