<?xml version="1.0" encoding="utf-8"?>
<!-- Generator: $$$/GeneralStr/196=Adobe Illustrator 27.6.0, SVG Export Plug-In . SVG Version: 6.00 Build 0)  -->
<svg version="1.1" id="Capa_1" xmlns="http://www.w3.org/2000/svg" xmlns:xlink="http://www.w3.org/1999/xlink" x="0px" y="0px"
	 viewBox="0 0 250 100" style="enable-background:new 0 0 250 100;" xml:space="preserve">
<style type="text/css">
	.st0{fill:#777777;}
</style>
<g>
	<path class="st0" d="M46.5,48.9c1.3,0,2.6,0,3.9,0c0.7,0,0.9,0.2,0.9,0.9c0,2.3,0,4.6,0,6.9c0,0.5-0.2,0.7-0.6,1
		c-1.3,0.6-2.6,0.9-4,1.3c-1.1,0.3-2.2,0.1-3.4,0.4c-0.8,0.2-1.6-0.1-2.5-0.2c-1.6-0.2-3.2-0.7-4.6-1.6c-1.8-1.2-3-2.8-3.3-5
		c-0.4-2.1-0.4-4.2,0.3-6.3c0.9-2.6,2.7-4.3,5.3-5c3.5-1,7-0.8,10.5,0.2c0.1,0,0.2,0.1,0.3,0.1c1.3,0.4,1.9,1.1,1.7,2.5
		c-0.1,0.5,0,1.1,0,1.6c0,0.5-0.2,0.6-0.6,0.3c-2.3-1.6-4.9-2-7.7-1.9c-1.7,0.1-3.3,0.5-4.6,1.9c-0.6,0.7-1,1.4-1.1,2.3
		c-0.3,1.8-0.3,3.5,0.7,5.1c0.8,1.3,2,1.9,3.5,2.2c2,0.4,3.9,0.2,5.9-0.2c0.4-0.1,0.6-0.3,0.6-0.7c0-0.5,0-1,0-1.5
		c0-0.6-0.2-0.8-0.7-0.8c-1.4,0-2.8,0-4.2,0c-0.9,0-0.9-0.1-0.9-1c0-0.6,0-1.2,0-1.7c0-0.5,0.2-0.8,0.8-0.8
		C43.8,48.9,45.1,48.9,46.5,48.9C46.5,48.9,46.5,48.9,46.5,48.9z"/>
	<path class="st0" d="M136.8,52.7c0-0.4,0-0.6,0-0.9c0-3.3,0-6.6,0-9.9c0-0.8,0.1-0.9,0.9-0.9c0.6,0,1.2,0,1.9,0
		c0.5,0,0.7,0.2,0.7,0.7c0,0.9,0,1.9,0,2.8c0,4.5,0,9,0,13.5c0,0.9-0.1,0.9-1,1c-1.4,0.2-2.5-0.3-3.5-1.4c-2.8-3.2-5.8-6.3-8.7-9.5
		c-0.3-0.3-0.6-0.6-0.9-0.9c-0.3,0.3-0.2,0.5-0.2,0.7c0,3.4,0,6.8,0,10.2c0,0.9-0.1,0.9-0.9,0.9c-0.5,0-1,0-1.5,0
		c-0.9,0-0.9-0.1-0.9-0.9c0-1.8,0-3.6,0-5.4c0-3.5,0-7.1,0-10.6c0-0.9,0-1,1-1c0.2,0,0.3,0,0.5,0c1.3-0.3,2.2,0.4,3,1.4
		c2.9,3.2,5.8,6.3,8.7,9.5C136.1,52,136.3,52.4,136.8,52.7z"/>
	<path class="st0" d="M98.6,49.9c0-2.6,0-5.3,0-7.9c0-0.9,0.1-1,1-1c4.4,0,8.8,0,13.3,0c0.8,0,0.9,0.1,0.9,0.9c0,0.6,0,1.1,0,1.7
		c0,0.6-0.2,0.8-0.8,0.8c-2.4,0-4.7,0-7.1,0c-0.9,0-1.8,0-2.8,0c-0.5,0-0.7,0.2-0.6,0.6c0,0.8,0,1.6,0,2.4c0,0.6,0.2,0.8,0.8,0.8
		c2.1,0,4.2,0,6.3,0c1,0,1.1,0.1,1.1,1.1c0,0.5,0,0.9,0,1.4c0,0.7-0.2,0.9-0.9,0.9c-2.1,0-4.3,0-6.4,0c-0.9,0-0.9,0-0.9,0.9
		c0,0.8,0,1.6,0,2.4c0,0.6,0.2,0.8,0.8,0.8c3.1,0,6.3,0,9.4,0c1.1,0,1.1,0,1.1,1.1c0,0.5,0,1,0,1.5c0,0.5-0.2,0.7-0.7,0.7
		c-1.5,0-2.9,0-4.4,0c-3,0-6,0-9,0c-0.9,0-1-0.1-1-1C98.6,55.2,98.6,52.6,98.6,49.9z"/>
	<path class="st0" d="M191.8,49.9c0,2.7,0,5.3,0,8c0,0.9-0.1,1-0.9,1c-0.7,0-1.4,0-2.1,0c-0.6,0-0.8-0.2-0.8-0.8c0-1.9,0-3.9,0-5.8
		c0-0.7-0.2-0.8-0.9-0.8c-2.6,0-5.3,0-7.9,0c-0.8,0-0.9,0.1-0.9,0.9c0,1.9,0,3.8,0,5.7c0,0.6-0.2,0.9-0.8,0.8c-0.7,0-1.5,0-2.2,0
		c-0.5,0-0.7-0.2-0.7-0.7c0-5.5,0-11.1,0-16.6c0-0.5,0.2-0.7,0.7-0.7c0.7,0,1.5,0,2.2,0c0.6,0,0.8,0.2,0.8,0.8c0,1.9,0,3.7,0,5.6
		c0,0.8,0,0.8,0.8,0.8c2.6,0,5.3,0,7.9,0c0.8,0,0.8,0,0.8-0.8c0-1.8,0-3.6,0-5.4c0-0.8,0.1-0.9,0.9-0.9c0.7,0,1.5,0,2.2,0
		c0.5,0,0.7,0.2,0.7,0.7C191.8,44.4,191.8,47.2,191.8,49.9C191.8,49.9,191.8,49.9,191.8,49.9z"/>
	<path class="st0" d="M158.8,40.7c2.2-0.2,4.3,0.2,6.3,1c1.2,0.5,1.3,0.7,1.3,1.9c0,0.6,0,1.2,0,1.9c0,0.6-0.3,0.7-0.7,0.4
		c-1.1-0.7-2.3-1.2-3.5-1.5c-2.3-0.5-4.6-0.7-6.8,0.2c-1.4,0.6-2.4,1.6-2.8,3.1c-0.5,1.9-0.5,3.8,0.5,5.5c0.7,1.3,2,2.1,3.4,2.3
		c3,0.5,5.9,0.2,8.6-1.2c0.3-0.1,0.5-0.3,0.8-0.5c0.3-0.2,0.6-0.2,0.6,0.3c0,1,0,1.9,0,2.9c0,0.4-0.3,0.7-0.7,0.8
		c-1,0.5-2.2,0.8-3.3,1.1c-1.2,0.3-2.5,0.4-3.7,0.4c-2.9-0.1-5.8-0.5-8.1-2.7c-1.1-1-1.7-2.3-2.1-3.7c-0.6-2.2-0.5-4.5,0.2-6.7
		c0.9-2.6,2.8-4.1,5.3-5C155.6,40.7,157.2,40.6,158.8,40.7z"/>
	<path class="st0" d="M74.2,40.9c2.5,0,1.9-0.4,2.8,1.8c1.5,3.5,2.9,6.9,4.3,10.4c0.1,0.2,0.1,0.5,0.4,0.5c0.2,0,0.2-0.3,0.3-0.5
		c1.6-3.9,3.2-7.9,4.8-11.8c0.1-0.3,0.3-0.5,0.6-0.5c1.1,0,2.1,0,3.2,0c0.5,0,0.6,0.2,0.4,0.7c-1.2,2.6-2.3,5.2-3.5,7.8
		c-1.3,2.9-2.7,5.8-4,8.7c-0.3,0.6-0.6,0.9-1.2,0.8c-0.1,0-0.2,0-0.3,0c-2.3,0-1.7,0.4-2.7-1.7c-2.4-5.1-4.7-10.2-7-15.3
		c-0.4-0.9-0.3-0.9,0.6-0.9C73.3,40.9,73.7,40.9,74.2,40.9z"/>
	<path class="st0" d="M205.5,55c0-1,0-2,0-3c0-0.4-0.1-0.7-0.3-0.9c-1.7-2.1-3.4-4.2-5.1-6.3c-0.8-1-1.7-2.1-2.5-3.1
		c-0.1-0.1-0.3-0.3-0.2-0.5c0.1-0.2,0.3-0.2,0.5-0.2c1.1,0,2.3,0,3.4,0c0.4,0,0.7,0.2,0.9,0.5c1.6,2,3.1,4.1,4.7,6.1
		c0.4,0.5,0.5,0.5,0.9,0c1.6-2,3.1-4.1,4.7-6.1c0.2-0.3,0.5-0.5,0.9-0.5c1.2,0,2.3,0,3.5,0c0.2,0,0.4,0,0.5,0.2
		c0.1,0.2-0.1,0.3-0.2,0.5c-2.5,3.1-5,6.1-7.5,9.2c-0.3,0.3-0.3,0.7-0.3,1.1c0,2,0,3.9,0,5.9c0,1-0.1,1.1-1.1,1.1
		c-0.6,0-1.2,0-1.7,0c-0.8,0-0.9-0.1-0.9-0.8C205.5,57,205.5,56,205.5,55z"/>
	<path class="st0" d="M64.5,50c0,2.7,0,5.4,0,8.1c0,0.8-0.1,0.9-0.9,0.9c-0.6,0-1.3,0-1.9,0c-0.9,0-0.9-0.1-0.9-0.9
		c0-1.6,0-3.2,0-4.8c0-3.8,0-7.5,0-11.3c0-0.9,0.1-1,1-1c0.6,0,1.2,0,1.9,0c0.8,0,0.9,0.1,0.9,0.9C64.5,44.5,64.5,47.2,64.5,50z"/>
</g>
</svg>
