<?xml version="1.0" encoding="utf-8"?>
<!-- Generator: $$$/GeneralStr/196=Adobe Illustrator 27.6.0, SVG Export Plug-In . SVG Version: 6.00 Build 0)  -->
<svg version="1.1" id="Capa_1" xmlns="http://www.w3.org/2000/svg" xmlns:xlink="http://www.w3.org/1999/xlink" x="0px" y="0px"
	 viewBox="0 0 250 100" style="enable-background:new 0 0 250 100;" xml:space="preserve">
<style type="text/css">
	.st0{fill:#777777;}
</style>
<g id="Layer_2">
</g>
<g>
	<path class="st0" d="M7,50c0-10.7,8.6-18.8,20-18.8c4.7,0,8.7,1.3,12.4,3.9c2,1.4,3,2.5,3,3.8v6.3h0C39.2,37.6,33.5,33,27,33
		c-7.7,0-13.4,7.2-13.4,17C13.6,60,19.3,67,27.3,67c4.9,0,9.3-3.4,9.3-6.9v-4.3c0-1.8-0.7-3.3-2.1-4.1v0h9.9v0
		c-1.3,0.8-2.1,2.2-2.1,4.1v5.1c0,1.4-1,3-4.2,4.9c-3.4,2-7.4,3.1-11.4,3.1C15.5,68.8,7,60.7,7,50z M71.8,65.3
		c-2.5-2.1-3.9-5-3.9-8.5V36.5c0-1.8-0.7-3.3-2.1-4.1v0h9.9v0c-1.3,0.8-2.1,2.2-2.1,4.1v19.4c0,3.1,1,5.6,2.7,7.4
		c2,2,5.1,3.2,8.9,3.3C92.4,66.6,97,62.4,97,56.4V36.5c0-1.8-0.7-3.3-2.1-4.1v0h5.9v0c-1.3,0.8-2.1,2.2-2.1,4.1v20
		c0,7.4-6,12.4-15.1,12.4C78.5,68.8,74.5,67.5,71.8,65.3z M120.8,50c0-10.8,8.6-18.8,20-18.8c4.6,0,8.7,1.3,12.4,3.9
		c2,1.4,3,2.5,3,3.8v6.3h0C153,37.6,147.3,33,140.7,33c-7.6,0-13.3,7.2-13.3,17c0,9.8,5.7,17,13.5,17c6.3,0,12.3-4.6,16.2-12.3h0
		l-0.9,6.5c-0.2,1.2-1.1,2.4-3.1,3.8c-3.7,2.6-7.8,3.8-12.4,3.8C129.2,68.8,120.8,60.7,120.8,50z M177,50c0-10.8,8.6-18.8,20-18.8
		c4.6,0,8.7,1.3,12.4,3.9c2,1.4,3,2.5,3,3.8v6.3h0c-3.2-7.5-8.9-12.1-15.5-12.1c-7.6,0-13.3,7.2-13.3,17c0,9.8,5.7,17,13.5,17
		c6.3,0,12.3-4.6,16.2-12.3h0l-0.9,6.5c-0.2,1.2-1.1,2.4-3.1,3.8c-3.7,2.6-7.8,3.8-12.4,3.8C185.4,68.8,177,60.7,177,50z
		 M235.2,63.5V36.5c0-1.8-0.7-3.3-2.1-4.1v0h9.9v0c-1.3,0.8-2.1,2.2-2.1,4.1v27.1c0,1.8,0.7,3.3,2.1,4.1v0h-9.9v0
		C234.4,66.8,235.2,65.4,235.2,63.5z"/>
</g>
</svg>
