<?xml version="1.0" encoding="UTF-8"?>
<svg xmlns="http://www.w3.org/2000/svg" version="1.1" viewBox="0 0 250 100">
  <defs>
    <style>
      .cls-1 {
        fill: #777;
      }
    </style>
  </defs>
  <!-- Generator: Adobe Illustrator 28.6.0, SVG Export Plug-In . SVG Version: 1.2.0 Build 709)  -->
  <g>
    <g id="Capa_1">
      <g>
        <path class="cls-1" d="M64.4,74.4c-1.4-1-1.9-2.1-1.4-3.4.3-1,1.2-1.5,2.2-1.4,1,.1,1.6.9,1.6,2,0,.3,0,.7,0,1,.1,0,.2.1.4.2.3-.4.8-.7.9-1.1.8-2.8,1.6-5.6,2.3-8.5,0-.4-.1-.8-.3-1.2-2.4-6.1-4.8-12.2-7.1-18.3-.4-1.1-.8-1.7-2.1-1.5-.3,0-.6-.2-.9-.3.3-.2.6-.4.9-.4,2.6,0,5.3,0,7.9,0,.3,0,.6.3.9.4-.3.1-.6.3-.9.4-.7,0-1.3,0-2.2,0,1.9,5.1,3.8,10,5.8,15.2,1.6-4.6,3.1-8.8,4.5-13.1.5-1.4,0-2-1.6-2.1-.8,0-1.6,0-2.6-.3.2-.2.4-.5.6-.5,2.5,0,5,0,7.4,0,.2,0,.4.3.6.4-.2.1-.4.4-.6.4-1.7,0-2.5,1-3,2.5-2.1,5.9-4.3,11.7-6.3,17.6-.9,2.7-1.5,5.6-2.2,8.4-.5,1.6-1.2,3.1-2.8,3.9h-1.9Z"/>
        <path class="cls-1" d="M243.1,55.1c-.2.6-.4,1.2-.7,1.7-1.2,2.9-3.3,4.8-6.5,5-3,.2-5.4-1-7.2-3.5-3.4-4.8-2.5-12.5,1.9-16.4,2.5-2.2,5.8-2.3,8.4-.2,1.9,1.6,3.1,3.7,3.7,6.1.2.9,0,1.3-1,1.3-3.1,0-6.2,0-9.3,0-.4,0-.8,0-1.6,0,.2,2.9.1,5.7.6,8.4.5,2.9,2.7,4,5.6,3.3,3-.7,4.6-2.8,5.4-5.6.1-.4,0-1.1.9-.9v.7ZM238.6,48.3c-.3-1.8-.4-3.5-.8-5.1-.3-1.3-1.4-2.1-2.8-2.2-1.5,0-2.6.5-3.3,1.8-.9,1.7-1,3.6-.8,5.5h7.8Z"/>
        <path class="cls-1" d="M28.1,51.1c-1.3,0-2.4,0-3.4,0-.2,0-.5-.3-.7-.4.2-.1.5-.4.7-.4,3.6,0,7.2,0,10.9,0,.2,0,.4.3.7.4-.2.1-.4.3-.6.3-.9,0-1.8,0-2.8,0,0,1.7,0,3.4,0,5,0,.4,0,.8-.3,1.1-3.9,3.8-8.6,5.7-14.1,4.7-5.1-.9-8.3-4.3-9.9-9.1-2.4-7.3-2.1-14.5,2.5-21,2.5-3.5,5.8-5.6,10.2-5.5,2.1,0,4,.8,5.7,2,.4.3.8.6,1.3.9,1.5.9,2.3.5,2.7-1.2,0-.3.2-.5.3-.8.1,0,.2,0,.3,0v10.2c0,0-.2,0-.3.1-.1-.3-.3-.6-.4-.9-.5-3-1.8-5.6-4.2-7.5-1.8-1.5-3.9-2.3-6.3-2.1-2.3.2-4.1,1.3-5.3,3.2-1.8,2.7-2.4,5.8-2.7,8.9-.5,4.6-.4,9.1.6,13.7.5,2.2,1.2,4.2,2.7,5.9,2.4,2.9,7.8,3.4,10.6,1,.8-.7,1.4-1.8,1.6-2.9.3-1.8.2-3.7.3-5.8Z"/>
        <path class="cls-1" d="M205,27.6c-1.2-.1-2.3-.2-3.4-.3,0,0,0-.2,0-.4,2.3-.6,5,.6,7.2-1.3v19.4c.7-.9,1.3-1.7,1.9-2.5,2.3-2.6,5.3-2.8,8.1-1.7,2,.8,2.7,2.6,2.7,4.7,0,3.8,0,7.7,0,11.5,0,1.1,0,2.2,0,3.2,1.2.6,2.5-.3,3.5.6,0,.1,0,.3,0,.4-.7,0-1.3,0-2,0-2.6,0-5.2,0-7.8,0-.3,0-.5-.3-.8-.4.3-.1.5-.3.8-.3.9,0,1.7,0,2.7,0,0-.5,0-.9,0-1.3,0-4.7,0-9.5,0-14.2,0-.4,0-.8,0-1.2-.4-2.6-2-3.5-4.4-2.4-2.4,1-4.5,4.2-4.5,6.8,0,3.6,0,7.3,0,10.9s0,.8,0,1.4h3.2c0,.1,0,.2.1.3-.2.1-.4.4-.6.4-3.3,0-6.5,0-9.8,0,0,0-.1,0-.3-.3,1.1-.9,2.4,0,3.5-.6V27.6Z"/>
        <path class="cls-1" d="M92.1,60.5h4.5V27.8c-1.2,0-2.4,0-3.6,0-.2,0-.5-.2-.7-.4.2-.1.5-.4.7-.4,3.9,0,7.9,0,11.8,0,.2,0,.4.3.7.4-.2.1-.5.3-.8.3-1.1,0-2.3,0-3.5,0v32.7c3.9,0,7.9.3,11.7-.6,3-.7,4.1-3,4.5-5.8.1-1,.2-2.1.3-3.2,0-.3.1-.5.2-.8.1,0,.2,0,.3,0v10.9c-1.9.5-25.5.2-26.2-.6Z"/>
        <path class="cls-1" d="M40.2,42.1c-1,0-1.8,0-2.6,0-.3,0-.6-.2-.9-.4.3-.1.6-.4.9-.4,1.1,0,2.3,0,3.4,0,.9,0,1.8-.4,2.8-.6v1.2c0,5.1,0,10.2,0,15.3,0,1.5,0,3.1,1.8,3.8,1.7.7,3.1-.2,4.3-1.3,1.3-1.3,2.3-2.9,2.4-4.7.1-4.2,0-8.4,0-12.7-.8,0-1.6,0-2.5,0-.3,0-.6-.2-.8-.4.3-.1.5-.4.8-.4.8,0,1.7,0,2.5,0,1.3-.1,2.5-.4,3.8-.6v19.8c1,0,1.9,0,2.9,0,.2,0,.4.3.7.4-.2.1-.4.3-.7.3-2.1,0-4.2,0-6.5,0v-3.8c0,0-.2,0-.2,0-.3.5-.6,1-1,1.5-1.8,2.6-4.3,3.5-7.3,2.7-2.4-.6-3.7-2.4-3.7-4.9,0-4.3,0-8.6,0-12.9,0-.5,0-.9,0-1.6Z"/>
        <path class="cls-1" d="M134,49.7c0-2.2,0-4.2,0-6.3,0-1-.7-1.8-1.7-2.1-1.8-.6-3.5-.4-5.1.5-1.2.7-1.3,1.5-.3,2.5.8.7.9,1.6.6,2.5-.3.6-1,1.1-1.6,1.3-1,.3-1.7-.3-2-1.3-.6-1.8.2-3.8,1.8-5.1,2.8-2.1,7.9-1.8,10.5.6,1.1,1,1.6,2.3,1.6,3.8,0,4,0,8.1,0,12.1,0,.4,0,.7,0,1,.2.5.5,1.3.9,1.4.5.1,1.2-.2,1.7-.5.4-.3.7-.8,1.1-1.2.4.8-.4,2-1.7,2.6-2.2,1.1-4.6,0-5.7-2.4-.1,0-.3.1-.4.3-2.2,2.6-5,3-8,2.3-3.6-.8-4.8-5.7-2.2-8.6,1.9-2.1,4.5-2.7,7.2-3,1.1-.1,2.1-.2,3.3-.2ZM134,50.6c-1.5.1-2.9.2-4.2.4-1.5.2-2.7,1-3.2,2.5-.7,1.9-.6,3.8,0,5.6.2.5.6,1,1,1.2,2.2,1.4,6.3-.6,6.4-3.1.1-2.1,0-4.2,0-6.6Z"/>
        <path class="cls-1" d="M179.4,50.9c0,2.2-.5,4.2-1.5,6.1-3.4,6.1-11.4,6.4-15.2.5-2.6-4.1-2.5-9.8.4-13.7,3.6-5,10.7-4.9,14.2,0,1.4,2,2.1,4.4,2.1,7.1ZM175.3,50.9c-.1-2.1-.2-4.2-.4-6.2-.2-1.4-.8-2.6-2.2-3.3-3.5-1.8-7.2,0-7.5,3.9-.2,3.2-.2,6.5-.2,9.7,0,.7.1,1.4.3,2.1.6,2.6,2.1,3.8,4.8,3.7,2.7,0,4.4-1.3,4.7-3.9.3-2,.3-4.1.4-6.1Z"/>
        <path class="cls-1" d="M151.1,40.8v4.4c0,0,.1,0,.2,0,.2-.5.5-1.1.7-1.6,1-2,2.4-3.4,4.8-3.4,1.9,0,3.1,1.3,2.9,3.2-.1,1.3-1,2.1-2.2,2-1.2,0-1.9-.8-1.8-2.2,0-.7.4-1.4.6-2.2-.9-.2-1.6.3-2.3,1-2.2,2.1-2.9,4.7-3,7.6-.1,3.4,0,6.9,0,10.3,0,.1,0,.3.1.5,1.3,0,2.6.1,3.9.2,0,.2,0,.4,0,.6-3.7,0-7.4,0-11.2,0,0,0-.1-.3-.2-.6h3.7v-18.4c-1.1,0-2,0-3,0-.2,0-.4-.2-.6-.4.2-.1.4-.4.6-.4.7,0,1.5,0,2.2,0,1.5-.1,3-.3,4.6-.5Z"/>
        <path class="cls-1" d="M199.7,54.4c.7,3.1-2.1,6.7-5.4,7.3-4,.8-8.1-1.3-9.8-5-2.1-4.5-.9-10.6,2.7-14,2.7-2.6,6.7-3.2,9.8-1.5,1.4.8,2.4,1.9,2.4,3.6,0,1.1-.4,1.9-1.5,2.3-.8.3-1.7.1-2.2-.6-.7-.9-.7-1.9-.1-2.9.9-1.5.7-2-1.1-2.4-3.6-.9-6.2.8-6.5,4.6-.3,3.6-.2,7.2,0,10.8,0,1.9.9,3.6,3,4.2,2.5.7,4.8.3,6.5-1.7.9-1.1,1.3-2.5,2-3.8.1-.3.2-.6.4-.9Z"/>
      </g>
    </g>
  </g>
</svg>