<?xml version="1.0" encoding="utf-8"?>
<!-- Generator: $$$/GeneralStr/196=Adobe Illustrator 27.6.0, SVG Export Plug-In . SVG Version: 6.00 Build 0)  -->
<svg version="1.1" id="Capa_1" xmlns="http://www.w3.org/2000/svg" xmlns:xlink="http://www.w3.org/1999/xlink" x="0px" y="0px"
	 viewBox="0 0 250 100" style="enable-background:new 0 0 250 100;" xml:space="preserve">
<style type="text/css">
	.st0{fill:#777777;}
</style>
<g id="Layer_2">
</g>
<g id="_x35_2ba705f-4dd5-4728-aca3-821b91c8dd56">
</g>
<g id="_x36_1c33561-8b71-47b0-a2e5-88bfbbe1079e">
	<g>
		<g>
			<path class="st0" d="M184,50c0,4-2.8,7.3-6.7,7.3c-3.9,0-6.7-3.3-6.7-7.3s2.8-7.3,6.7-7.3C181.2,42.7,184,46,184,50z M191.1,50
				c0-8-6.2-14-13.8-14s-13.8,6-13.8,14c0,8,6.2,14,13.8,14S191.1,58,191.1,50z M194.7,44.3c0-4.7,4.3-8.3,9.2-8.3
				c5.2,0,8.5,2.7,8.5,2.7l-3.8,5.2c0,0-1.5-1.3-4.1-1.3c-2,0-3.3,0.8-3.3,1.8c0,2.7,12.5,3.3,12.5,11.3c0,5-4.6,8.3-9.8,8.3
				c-6.6,0-9.8-3.7-9.8-3.7L198,55c0,0,2.3,2.5,5.9,2.5c1.6,0,2.6-0.8,2.6-1.8C206.5,52.7,194.7,52.3,194.7,44.3z M159.9,55.2
				c0,4.5-3.6,8.2-8,8.2h-13.6V36.7h12.5c4,0,7.2,3.3,7.2,7.3c0,1.7-0.5,3.2-1.6,4.7C158.6,50,159.9,52.4,159.9,55.2z M145,47.2h4.1
				c1.3,0,2.3-1,2.3-2.3c0-1.3-1-2.3-2.3-2.3H145C145,42.5,145,47.2,145,47.2z M152.9,54.8c0-1.4-1.1-2.5-2.5-2.5H145v5h5.4
				C151.8,57.3,152.9,56.2,152.9,54.8z M217.6,44.3c0-4.7,4.3-8.3,9.2-8.3c5.2,0,8.5,2.7,8.5,2.7l-3.8,5.2c0,0-1.5-1.3-4.1-1.3
				c-2,0-3.3,0.8-3.3,1.8c0,2.7,12.5,3.3,12.5,11.3c0,5-4.6,8.3-9.8,8.3c-6.6,0-9.8-3.7-9.8-3.7l3.9-5.3c0,0,2.3,2.5,5.9,2.5
				c1.6,0,2.6-0.8,2.6-1.8C229.4,52.7,217.6,52.3,217.6,44.3z"/>
		</g>
		<g>
			<path class="st0" d="M37,36.7v26.7h-7.2V52.7h-9.2v10.7h-7.2V36.7h7.2v10h9.2v-10H37z M55,64c5.9,0,11.8-4,11.8-12V36.7h-7.2
				l0,16c0,3.3-2.6,4.7-4.6,4.7s-4.6-1.3-4.6-4.7l0-16h-7.2V52C43.2,60,49.1,64,55,64L55,64z M85.1,64c7.5,0,11.1-4.7,11.1-4.7V46.8
				H84.5v5.8h5.6V56c0,0-1.6,1.3-4.9,1.3c-3.9,0-6.7-3.3-6.7-7.3s2.8-7.5,6.7-7.5c2.9,0,4.4,1.3,4.4,1.3l4.1-5.2
				c0,0-3.3-2.7-8.5-2.7c-7.5,0-13.8,6-13.8,14C71.4,58,77.6,64,85.1,64L85.1,64z M121,50c0,4-2.8,7.3-6.7,7.3
				c-3.9,0-6.7-3.3-6.7-7.3s2.8-7.3,6.7-7.3C118.2,42.7,121,46,121,50z M128.1,50c0-8-6.2-14-13.8-14s-13.8,6-13.8,14
				c0,8,6.2,14,13.8,14S128.1,58,128.1,50z"/>
		</g>
	</g>
</g>
</svg>
