<?xml version="1.0" encoding="UTF-8"?>
<svg id="Capa_1" xmlns="http://www.w3.org/2000/svg" version="1.1" viewBox="0 0 250 100">
  <!-- Generator: Adobe Illustrator 29.4.0, SVG Export Plug-In . SVG Version: 2.1.0 Build 152)  -->
  <defs>
    <style>
      .st0 {
        fill: #777;
      }
    </style>
  </defs>
  <path class="st0" d="M186.7,52.1c-7.1,7.3-22.2,3.7-23.2-7.4-1.6-18.2,25.2-18.4,26.4-3.4.3,4-.4,7.8-3.3,10.7ZM183.2,52.5c4.8-4.9,4-19.3-4.4-20.9-10.1-1.9-12.6,9.1-10.4,16.8,1.9,6.6,10.1,9,14.9,4.1Z"/>
  <path class="st0" d="M96.9,49.6v-16c0-1.5-2.8-2.1-4-2.2v-.7h8.7v.8c-1.1,0-3.8.8-3.8,2.1v21.9l-1.1-.2-17-22.4c.3,5.9-.4,12.1,0,18,0,.5.1,1.7.2,2.1.3,1.4,2.9,1.9,4.1,1.7v.8h-9.1v-.8c1,0,2.9-.3,3.5-1.2s.5-2,.5-2.7c.3-4.1.5-13.6-.2-17.4s-1.7-1.8-3.4-1.9v-.8h7l14.4,18.8Z"/>
  <path class="st0" d="M145.3,30.8v5.9h-.8c-.2-1.5-.8-4-2.3-4.7s-5.6-.6-6.7-.4-.4.1-.5.3v20.8c0,0,.3,1,.4,1.2.8,1.3,2.7.8,3.9.9v.8h-12.5v-.6c0,0,.3-.2.3-.2,1.5-.1,3.2.4,3.9-1.3s.4-1.2.4-1.2v-20.4l-.3-.3h-5c0,0-1.4.2-1.5.2-1.7.4-2.7,3.3-2.7,4.9h-.8c-.4-.3,0-.6,0-.7v-5.3h24.2Z"/>
  <path class="st0" d="M71.2,30.8v.8c-1.5,0-3.5-.2-3.8,1.7s0,3.3,0,4.7c0,3.9-.2,7.8-.1,11.7s0,2.9.2,3.6c.4,1.6,2.4,1.7,3.7,1.5v.8h-11.3v-.8c1.6,0,3.3.1,3.7-1.7-.3-6.2.5-12.9,0-19s-1.4-2.4-3.8-2.5v-.8h11.3Z"/>
  <path class="st0" d="M160.8,30.8v.8c-1.5,0-3.5-.2-3.8,1.7-.7,4.2-.5,12.8-.2,17.2s.2,3.1.7,3.6,2.3.6,3.3.6v.8h-11.3v-.8c2.4.1,3.6,0,3.8-2.7.5-6-.3-12.7,0-18.8-.3-1.8-2.2-1.7-3.7-1.7v-.8h11.3Z"/>
  <path class="st0" d="M105.6,55.5v-.8c3.3.2,3.8-.6,4-3.7.3-4.6.3-11.5,0-16.1s-.2-2.3-.6-2.8c-.7-.7-2.4-.7-3.4-.7v-.8h11.2v.7c-2.5.3-3.5,0-3.7,3-.4,5.9.3,12.3,0,18.2.2,1.1.7,1.9,1.9,2.1s2.7-.3,1.8.8h-11.2Z"/>
  <path class="st0" d="M114.7,67.8c.5.1.3,0,.4-.3,1-1.6,1.5-3.5,2.4-5.1.3.2.2.4.3.7.3,1.6.2,3.9.6,5.3s.8.5.8.6h-1.5c0,.1-.5-4.7-.5-4.7l-2.4,4.8c-.5,0-.3,0-.4-.3-.8-1.2-1.2-2.6-1.9-3.8s-.2-.4-.4-.5l-.4,3.9.4.7h-1.4c.8-.7.8-6.5,1.2-6.7l2.8,5.4Z"/>
  <path class="st0" d="M151.8,62.7c.2,0,.7.4.8.6,1,1.5-.7,2.7-.7,3,.8.9,1.7,2.5,3,2.7-.3.5-1.4.1-1.8-.1-.9-.6-1.9-3.3-3.2-2.4s-.2,1.8,0,2.2.5.1.4.5h-1.8c.4-.6.6-1.9.6-2.7s-.1-3.2-.2-3.5-.5,0-.4-.3c1,.1,2.4-.2,3.3,0ZM149.7,63.1v2.8c3.3,1.3,3.1-3.9,0-2.8Z"/>
  <path class="st0" d="M82.7,62.7c.2,0,.7.5.9.7,1.1,1.4-.9,2.6-.8,3,1,.9,1.6,2.4,3,2.7-.2.4-1.2.2-1.5,0s-1-1-1.3-1.3c-.8-.9-.6-1.6-2.2-1.3.1.6-.2,1.7,0,2.3s.6.2.6.5h-1.8c.2-.4.4-.6.4-1.1,0-.9.1-4.1,0-4.9s-.3-.3-.4-.5c.9.1,2.2-.2,3.1,0ZM80.8,66.1c1.5,0,2.3.2,2.2-1.5s-2.2-1.9-2.2-1.4v2.9Z"/>
  <path class="st0" d="M101.6,62.7c-.2.3-.4.4-.4.9-.1.8,0,3.1.1,3.9.5,2.3,3.4,2.1,3.8-.4s.2-3.4-.3-4.4h1.4c-.9,1.4-.1,3.3-.5,4.9s-2.9,2.4-4.3,1.2-.7-4.3-1.3-6.2h1.6Z"/>
  <path class="st0" d="M71.2,62.7c.7,1.7,1.4,4.3,2.3,5.8s.6.6.9,1h-1.6c-.3-1.8-.7-3.1-2.9-2.5-.5.2-1,2-.7,2.5h-1.4c1.6-1.7,1.8-4.6,2.9-6.5s0-.3.4-.3ZM71.8,66.4l-.9-2.4c-.3.3-1.1,2.2-.9,2.4h1.8Z"/>
  <path class="st0" d="M167.9,62.7c-.1.3-.2.5-.1.8.3,1.4,1.5,3.1,1.8,4.6.7-1.8,1.8-3.4,1.9-5.4h1.2c-1.4,2-2.1,4.5-3.2,6.7-.3,0-.3-.3-.4-.5-.8-1.7-1.4-4.1-2.3-5.6s-.3-.4-.6-.4c.3-.5,1.3,0,1.8-.2Z"/>
  <path class="st0" d="M63.4,62.7c1.8.3,1.5,3-.4,3.5s-.9.2-.8-.2c1.6,0,2.4-1.7,1.1-2.8s-1.7-.6-1.7,0v5.6c0,.2.7.2.6.5h-1.8c0,0,.4-.6.4-.7v-5.4c0,0-.4-.3-.4-.5.9.1,2.2-.2,3.1,0Z"/>
  <path class="st0" d="M142.2,62.7c1.9.3,1.6,3-.4,3.5s-.9.2-.8-.2c.8,0,1.7-.4,1.8-1.3.2-1.8-2.4-2.3-2.4-1.6v5.6c0,.2.7.2.6.5h-1.8c0,0,.4-.6.4-.7v-5.4c0,0-.4-.3-.4-.5.9.1,2.2-.2,3.1,0Z"/>
  <path class="st0" d="M181.1,62.7c0,0,.2-.4.5,0l-.2.7c-.6-.6-1.4-.4-2.2-.4v2.4s2.2.1,2.2.1l-.2.7c-.6-.4-1.2-.4-2-.4.1.6-.3,2.7.3,2.9.9.1,1.6.1,2.3-.6l-.2,1h-3.8c0-.3.3-.1.4-.3.3-.7.3-4.2.2-5.1s-.2-.7-.4-1.1c1,0,2.1,0,3.1,0Z"/>
  <path class="st0" d="M127.2,62.7c.1.2,0,.7.2.9-.6.2-.4-.5-.8-.7-.7-.3-2-.1-2.2.8,0,1.1,2.4,1.9,2.9,2.9,1,2.2-1.8,3.4-3.5,2.5l-.2-1.3c.7.8,1.4,1.7,2.6.9,1.9-1.3-1.6-2.8-2.2-3.8-1.2-2.3,2.6-3,3.1-2.2Z"/>
  <path class="st0" d="M189.8,63.7c-.3,0-.2-.5-.6-.7-.7-.3-2-.1-2,.8,0,1.6,3.8,2.1,2.7,4.7s-2.5,1.2-3.4.8v-1.4c.3,0,.2.5.5.8.7.7,2.4.5,2.5-.7s-2.2-1.9-2.6-2.9c-.9-2.2,1.2-3,2.9-2.3v1Z"/>
  <path class="st0" d="M95.1,62.7l-.2,1c-.3,0-.2-.4-.5-.6s-1.3,0-1.9,0v2.4c.5.6,2.1-.2,2.4,0l-.2,1c-.3,0,0-.4-.6-.5s-1.1,0-1.6,0v2.9c0,.2.7.2.6.5h-1.8c.5-1.4.5-3.7.4-5.3s-.1-.8-.4-1.3h3.8Z"/>
  <path class="st0" d="M161.2,62.7c-.5.5-.1,1-.2,1.5-.1,1.7-.2,3.1,0,4.9l.6.2h-2c.2-.3.4-.4.4-.9.2-1.6-.2-3.6,0-5.2l-.4-.5h1.6Z"/>
</svg>