<?xml version="1.0" encoding="UTF-8"?>
<svg id="Capa_1" xmlns="http://www.w3.org/2000/svg" version="1.1" viewBox="0 0 250 100">
  <!-- Generator: Adobe Illustrator 29.5.1, SVG Export Plug-In . SVG Version: 2.1.0 Build 141)  -->
  <defs>
    <style>
      .st0 {
        fill: #777;
      }
    </style>
  </defs>
  <path class="st0" d="M90.34,61.03h2.11c1.56.01,1.84.01,2.25.19.19.08.35.21.47.38.11.17.17.36.17.56,0,.54-.38,1-1.28,1.1-.48.04-.96.06-1.44.04h-2.26v-2.28ZM90.34,63.82h1.94c.73.03,1.46,0,2.19-.09,1.51-.23,1.67-1.2,1.67-1.55,0-.33-.12-.65-.33-.92-.21-.26-.51-.45-.84-.54-.79-.17-1.61-.22-2.42-.16h-2.98v5.93h.78v-2.67Z"/>
  <path class="st0" d="M100.53,64.23l1.7-3.02,1.67,3.02h-3.37ZM102.59,60.56h-.69l-3.55,5.93h.92l.99-1.79h3.89l1,1.79h.9l-3.46-5.93Z"/>
  <path class="st0" d="M111.1,61.06h2.04c.48-.02.97,0,1.45.04.85.12,1.27.55,1.27,1.13,0,.48-.33.96-1.26,1.09-.49.05-.98.07-1.46.06h-2.04v-2.32ZM114.1,63.86c.67.01,1.33-.15,1.92-.46.2-.13.36-.3.47-.49.11-.2.17-.42.17-.65,0-.3-.1-1.23-1.52-1.58-.8-.14-1.62-.18-2.44-.13h-2.44v5.93h.82v-2.62h2.04l2.74,2.62h1.02l-2.79-2.62Z"/>
  <path class="st0" d="M121.89,66.48h-.8v-5.93h5.7v.5h-4.89v1.99h4.39v.49h-4.39v2.95Z"/>
  <path class="st0" d="M132.37,60.56v3.52c0,.65,0,1.1.42,1.47.58.42,1.3.62,2.02.56.38,0,.76-.03,1.13-.12.27-.04.53-.16.74-.33.21-.17.37-.4.45-.65.07-.25.1-.51.09-.77v-3.68h.82v2.7c0,1.65,0,2.21-.74,2.75-.73.45-1.6.68-2.47.63-.59.08-1.18,0-1.73-.23-.54-.23-1.01-.59-1.35-1.06-.22-.66-.28-1.36-.19-2.05v-2.75h.8Z"/>
  <path class="st0" d="M151.14,66.48h-.81l.06-5.03-2.85,5.03h-.56l-2.9-5.03.1,5.03h-.8v-5.93h.97l2.94,5.03,2.81-5.03h1.03v5.93Z"/>
  <path class="st0" d="M161.61,61.99c-.09-.2-.21-.38-.37-.53-.52-.42-1.19-.64-1.87-.6-.93,0-2.03.27-2.03,1.06,0,.73.97.93,1.46,1.04.24.05,1.48.27,1.75.34.47.1,2,.45,2,1.58,0,.83-1.03,1.77-3.24,1.77-.7.02-1.39-.11-2.03-.36-.29-.11-.54-.29-.75-.51-.21-.22-.35-.49-.43-.78l.82-.29c0,.24.07.48.21.69.28.28.62.49,1,.63.38.13.78.18,1.18.14,1.67,0,2.4-.64,2.4-1.26,0-.17-.05-.33-.15-.47-.09-.14-.23-.26-.38-.33-.64-.28-1.33-.45-2.03-.51-1.23-.22-2.62-.53-2.62-1.63,0-1.17,1.51-1.54,2.86-1.54,2.22,0,2.79.97,2.98,1.3l-.77.29Z"/>
  <path class="st0" d="M101.85,33.83l.02.79h.52c1.52,0,1.52.24,1.54.54.01.23-.21.53-.58,1.18l-3.82,5.46-4.47-7.21h1.83v-.76s-8.15.01-8.15.01v.73h1.79l5.65,9.16v4.43h-1.75v.76h7.56v-.76h-1.76l.02-5.23,4.45-6.57c.98-1.69,1.66-1.74,2.62-1.74h.34l-.02-.79h-5.79Z"/>
  <path class="st0" d="M215.27,48.17l-8.3-8.86,4.63-3.28c1.11-.97,2.57-1.48,4.08-1.45h.85v-.76h-7.14v.76h.68c1.37,0,1.04.28.93.38-.33.29-.68.56-1.05.81,0,0-5.45,3.85-6.55,4.62v-5.81h2.2v-.76h-8.13v.76h1.9v13.58s-1.9-.01-1.9-.01v.76h7.94v-.75h-2v-6.33l.7-.51,6.16,6.84h-1.64v.75h8.94v-.75h-2.29ZM181.4,43.32l2.75-5.54,2.69,5.49-5.44.04ZM193.36,48.17l-7.63-14.63-.96.04-6.87,13.5c-.3.58-.37,1.02-1.27,1.07h-.76v.78h4.97v-.75h-.35c-.86,0-1.33,0-1.33-.49.02-.17.08-.33.16-.49l.25-.58,1.11-2.26,6.27-.04,1.93,3.84h-1.49v.76h7.54v-.75h-1.57ZM84.67,43.78v.64c.01.68-.03,3.72-4.5,3.72h-3.57v-6.68h1.66c1.67,0,2.24,1.27,2.24,2.63v.65h.85v-7.25h-.85v.37c0,1.9-.57,2.64-2.25,2.64h-1.66v-5.92h2.91c2.78,0,4.48,1.03,4.48,3.12v.45l.83-.02v-4.31h-14.14v.76s1.73,0,1.73,0l.03,13.56h-1.76v.78l14.87-.02v-5.13h-.86ZM14.92,33.74v.77h1.67s0,13.74,0,13.74h-1.66v.77h7.47l.02-.76h-1.63s-.02-13.76-.02-13.76h1.63s0-.76,0-.76h-7.47ZM136.07,33.84l-5.28,10.53-5.12-10.55-6.61.02v.76h1.66v12c-.04.45-.23,1.56-2.2,1.56v.76h5.67v-.76h.05c-1.63,0-2.18-.1-2.18-1.78v-11.38l7.1,13.86h.86l5.81-11.59v10.9s-.99,0-.99,0v.75h6.75v-.75h-1.55v-13.58s1.55,0,1.55,0v-.76s-5.51,0-5.51,0Z"/>
  <path class="st0" d="M146.95,33.82v.78h1.93s-.02,13.58-.02,13.58h-1.92s.01.73.01.73h7.65v-.75s-1.61.02-1.61.02v-13.59h1.61s0-.77,0-.77h-7.65Z"/>
  <path class="st0" d="M234.21,43.8v.64c0,.68-.02,3.72-4.5,3.72h-3.57v-6.69s1.65,0,1.65,0c1.67,0,2.24,1.27,2.24,2.64v.65h.85v-7.25h-.85v.37c0,1.9-.57,2.64-2.25,2.64h-1.66v-5.92h2.91c2.78,0,4.48,1.03,4.48,3.12v.45l.83-.02v-4.31h-14.14v.75s1.73,0,1.73,0l.03,13.56h-1.76v.78l14.87-.02v-5.13h-.86Z"/>
  <path class="st0" d="M36.87,39.47c-2.89-.41-5.42-1.16-5.42-2.91,0-1.54,1.66-2.34,4.11-2.34,1.46-.1,2.92.28,4.12,1.08,1.21.8,2.09,1.97,2.51,3.31l.03.08h.81v-5.06h-.85v.12c0,.33-.11.71-.91.71-.57-.03-1.14-.17-1.66-.4-1.3-.5-2.69-.76-4.1-.74-4.4,0-7.24,1.86-7.24,4.74,0,3.59,3.97,3.96,7.41,4.52,2.86.46,5.49,1.17,5.49,3.22,0,1.76-1.74,2.6-4.49,2.6-1.67.01-3.31-.49-4.66-1.44-1.35-.95-2.35-2.28-2.84-3.81l-.03-.09-.83-.03.03,6.05h.85l-.02-.18c0-.16.08-.67,1.07-.67.71.06,1.41.19,2.1.39,1.51.42,3.08.66,4.65.72,4.65,0,7.54-2.11,7.54-5.51,0-3.64-4.06-3.84-7.68-4.36"/>
  <path class="st0" d="M58.65,39.47c-2.89-.41-5.42-1.16-5.42-2.91,0-1.54,1.66-2.34,4.11-2.34,1.46-.1,2.92.28,4.12,1.08,1.21.8,2.09,1.97,2.51,3.31l.03.08h.81v-5.06h-.85v.12c0,.33-.11.71-.91.71-.57-.03-1.14-.17-1.66-.4-1.3-.5-2.69-.75-4.1-.74-4.4,0-7.24,1.86-7.24,4.74,0,3.59,3.97,3.96,7.41,4.52,2.86.46,5.49,1.17,5.49,3.22,0,1.76-1.74,2.6-4.49,2.6-1.67.01-3.31-.49-4.66-1.44-1.35-.95-2.35-2.28-2.84-3.81l-.03-.09-.82-.03.03,6.05h.85l-.02-.18c0-.16.08-.67,1.07-.67.71.06,1.41.19,2.1.39,1.51.42,3.08.66,4.65.72,4.65,0,7.54-2.11,7.54-5.51,0-3.64-4.06-3.84-7.68-4.36"/>
  <path class="st0" d="M171.11,33.83v.79h.53c1.52,0,1.52.24,1.54.54.01.23-.21.53-.59,1.18l-3.81,5.46-4.47-7.21h1.83v-.76s-8.15.01-8.15.01v.73h1.79l5.65,9.16v4.43h-1.75v.76h7.55v-.76h-1.76l.02-5.23,4.45-6.57c.98-1.69,1.66-1.74,2.62-1.74h.34l-.02-.79h-5.79Z"/>
</svg>