<?xml version="1.0" encoding="utf-8"?>
<!-- Generator: $$$/GeneralStr/196=Adobe Illustrator 27.6.0, SVG Export Plug-In . SVG Version: 6.00 Build 0)  -->
<svg version="1.1" id="Capa_1" xmlns="http://www.w3.org/2000/svg" xmlns:xlink="http://www.w3.org/1999/xlink" x="0px" y="0px"
	 viewBox="0 0 250 100" style="enable-background:new 0 0 250 100;" xml:space="preserve">
<style type="text/css">
	.st0{fill:#777777;}
</style>
<g>
	<path class="st0" d="M183.3,34.2c0-2.2,0-4.4,0-6.6c0-1-0.4-1.5-1.4-1.4c-1,0-2,0-3-0.1c-1.1-0.2-1.8,0.3-1.8,1.2
		c0,1.1,0.6,1.5,1.6,1.4c1.2-0.1,1.5,0.5,1.5,1.6c0,2.1,0,4.2,0,6.3c0,3.3,0,3.3-3.2,3.9c-0.4,0.1-0.9,0.1-0.9,0.7
		c0,0.6,0.2,1,0.8,1.1c0.5,0.1,1.1,0.2,1.6,0.4c0.9,0.2,0.9,0.8,0.5,1.4c-0.6,1-1.6,1.5-2.7,1.6c-1.1,0.1-1.5-0.3-1.6-1.3
		c0-0.7-0.2-1.3-0.2-2c0-1.1-0.5-1.6-1.6-1.4c-0.7,0.1-1-0.2-1-0.9c0-0.6,0-1.3,0-1.9c0-3.5,0-6.9,0-10.4c0-0.6,0.1-1.4-0.7-1.4
		c-1.2,0-2.3-0.2-3.4-0.3c-0.8-0.1-1.4,0.3-1.4,1.2c0,0.8,0.3,1.4,1.2,1.4c1.1,0,1.4,0.6,1.4,1.6c0,3.1,0,6.2,0,9.4
		c0,1.8,0,1.8-1.8,2.1c-0.4,0.1-0.9,0.1-1.3,0.2c-0.5,0.1-0.9,0.3-0.9,0.8c-0.1,0.5,0.3,0.8,0.8,0.9c0.9,0.2,1.2,0.8,1.3,1.6
		c0.8,5.9,1.5,11.8,2.3,17.7c0.1,0.6,0,1.1-0.6,1.4c-0.5,0.3-1.1,0.5-0.8,1.2c0.3,0.6,0.9,0.6,1.5,0.5c2-0.3,3.9-0.5,5.9-0.8
		c1.9-0.2,2.2,0,1.8-2.4c-0.1-0.4-0.1-0.9-0.2-1.3c-0.5-3.9-1-7.7-1.5-11.6c-0.1-0.8,0-1.4,1-1.5c0.7-0.1,1.4-0.4,2-0.7
		c0.2-0.1,0.5-0.3,0.8-0.2c0.3,0.2,0.2,0.6,0.1,0.9c-0.1,1-0.5,1.9-1.2,2.6c-0.6,0.6-0.8,1.6-0.1,2c1.3,0.8,2.1,2,2.8,3.3
		c0.1,0.2,0.4,0.4,0.7,0.3c0.3-0.1,0.5-0.3,0.5-0.6c0-0.3,0-0.7,0-1.1c-0.2-1.8-0.5-3.6-0.8-5.4c-0.1-0.9,0.1-1.5,1.2-1.6
		c0.8-0.1,1.6-0.1,2.4,0c0.9,0.1,1.5-0.3,1.6-1.3c0.1-0.9-0.4-1.4-1.3-1.4c-1,0-1.2-0.5-1.4-1.4C183.1,40.7,183.3,37.4,183.3,34.2z"
		/>
	<path class="st0" d="M193.7,28.6C193.7,28.6,193.7,28.6,193.7,28.6c0-2.7,0-5.4,0-8.1c0-0.6,0-1.2-0.8-1.1
		c-1.2,0.1-2.4-0.1-3.7-0.1c-0.9-0.1-1.6,0.3-1.6,1.3c0,1,0.6,1.4,1.5,1.4c1.4,0.1,1.8,0.5,1.7,1.9c-0.3,4.4-0.1,8.8-0.1,13.1
		c0,0.9,0,1.6-1.2,1.7c-0.3,0-0.7,0.3-0.7,0.7c-0.1,0.4,0.1,0.7,0.5,0.7c1.8,0.4,1.5,1.9,1.5,3.1c0,1.6-0.3,1.9-1.8,1.9
		c-0.8,0-1.4,0.2-1.5,1.1c-0.1,0.8,0.6,1.6,1.5,1.6c0.4,0,0.9,0,1.3-0.1c0.8-0.1,1.3,0.2,1.4,1c0.4,3.5,0.9,7,1.4,10.6
		c0.1,0.8,0,1.5-0.8,1.9c-0.4,0.2-0.6,0.5-0.5,1c0.2,0.5,0.6,0.6,1.1,0.6c0.6,0,1.2-0.1,1.8-0.2c2.4-0.3,4.8-0.6,7.2-1
		c0.5-0.1,1-0.2,1.1-0.8c0.1-0.4-0.2-0.7-0.6-0.8c-1.3-0.3-1.4-1.3-1.5-2.3c-0.7-5.8-1.4-11.5-2.2-17.3c-0.4-2.8-0.4-2.8-3.2-2.6
		c-1.3,0.1-1.5-0.1-1.5-1.4C193.7,33.9,193.7,31.3,193.7,28.6z"/>
	<path class="st0" d="M69,72.9c0.8-0.2,1.1,0.1,1.3,0.7c0.2,0.6,0.5,1.2,0.7,1.9c0.2,0.7,0.1,1.2-0.4,1.7c-0.3,0.3-0.7,0.6-0.4,1.1
		c0.3,0.6,0.8,0.5,1.4,0.4c1.9-0.3,3.7-0.5,5.6-0.8c1-0.1,2-0.2,3-0.4c0.4-0.1,0.9-0.3,1-0.8c0.1-0.5-0.3-0.7-0.7-0.8
		c-0.9-0.3-1.2-1-1.5-1.7c-2.4-6.3-4.7-12.5-7.1-18.8c-0.4-1-0.8-1.4-1.9-1.2c-1.4,0.3-2.9,0.4-4.3,0.6c-1.3,0.2-1.7,0.8-1.4,2
		c0.3,0.9,0.7,1.9,1,2.8c1.2,3.3,2.4,6.7,3.7,10c0.4,0.9,0.2,1.4-0.9,1.5c-0.7,0-1.3,0.2-2,0.3c-0.7,0.1-0.8,0.7-0.8,1.3
		c0.1,0.6,0.5,0.6,1,0.5C67.3,73.1,68.2,73,69,72.9z"/>
	<path class="st0" d="M109.8,73.8c2.4-0.3,4.9-0.6,7.3-0.9c0.6-0.1,0.9-0.4,0.8-1.1c-0.3-2-0.5-4.1-0.8-6.1
		c-0.6-4.5-1.2-8.9-1.7-13.4c-0.1-1-0.2-1.9,0.9-2.4c0.3-0.1,0.5-0.4,0.4-0.8c-0.1-0.4-0.4-0.6-0.8-0.6c-0.7,0-1.4,0.1-2.1,0.2
		c-2.4,0.3-4.8,0.6-7.2,0.9c-0.5,0.1-0.9,0.3-1,0.8c-0.1,0.6,0.4,0.8,0.8,0.9c0.9,0.2,1.2,0.9,1.2,1.7c0.1,1.3,0.3,2.5,0.4,3.8
		c0.6,4.4,1.2,8.8,1.7,13.1c0.1,0.9,0.3,1.8-0.7,2.4c-0.4,0.2-0.7,0.5-0.5,1.1C108.9,73.7,109.3,73.8,109.8,73.8z"/>
	<path class="st0" d="M92.1,76.3c0.6,0,1.2-0.1,1.8-0.1c0.4,0,0.9-0.1,1-0.7c0.1-0.5,0-1-0.5-1.2c-1.5-0.6-2-1.9-2.2-3.4
		c-0.7-5.4-1.4-10.8-2.1-16.2c-0.1-0.7,0.1-1.2,0.7-1.6c0.4-0.2,0.9-0.5,0.6-1.1c-0.2-0.6-0.7-0.6-1.3-0.5c-1.8,0.3-3.6,0.5-5.4,0.8
		c-1.2,0.2-2.3,0.3-3.5,0.5c-0.4,0.1-0.8,0.3-0.8,0.7c-0.1,0.5,0.2,0.7,0.7,0.8c1,0.3,1.3,1,1.4,2c0.6,5.1,1.3,10.2,1.9,15.2
		c0.2,1.5,0.9,2.6,2.2,3.3C88.3,75.9,90.1,76.5,92.1,76.3z"/>
	<path class="st0" d="M117.4,37.2C117.4,37.2,117.4,37.2,117.4,37.2c0-2.1,0-4.1,0-6.2c-0.1-2.1-1-3.9-2.9-5c-2.5-1.3-5-1.3-7.4,0.4
		c-0.6,0.4-1.1,0.7-1.4-0.3c-0.2-0.6-0.7-0.7-1.3-0.6c-0.9,0.2-1.9,0.2-2.8,0.1c-1.1-0.1-1.7,0.4-1.7,1.3c0,1,0.5,1.5,1.5,1.4
		c1.2-0.1,1.6,0.5,1.6,1.6c-0.2,4.4-0.3,8.7,0,13.1c0.1,1.5-0.2,1.7-1.6,1.8c-1,0-1.5,0.6-1.5,1.5c0,0.9,0.7,1.4,1.5,1.2
		c2-0.3,4.1-0.3,6.1,0c0.8,0.1,1.4-0.3,1.5-1.2c0-0.9-0.5-1.2-1.3-1.4c-1.7-0.2-1.9-0.4-1.9-2.1c0-2.8,0-5.5,0-8.3
		c0-1.6,0.4-3.2,1.3-4.6c1-1.6,2.4-2.3,4.2-1.9c2,0.4,2.9,1.3,3,3.4c0.3,4,0.1,8,0.1,12.1c0,0.9-0.5,1.6-1.5,1.5
		c-1,0-1.7,0.3-1.6,1.4c0.1,1.1,1,1.3,1.9,1.1c1.9-0.3,3.8-0.3,5.6,0c0.8,0.1,1.6,0,1.6-1c0.1-1-0.5-1.7-1.4-1.6
		c-1.3,0-1.5-0.7-1.5-1.7C117.4,41.2,117.4,39.2,117.4,37.2z"/>
	<path class="st0" d="M205.6,49.2c0.4-0.6,1-0.7,1.4-0.9c2.4-1.2,3.5-3.2,3.2-6c-0.2-2.5-1.9-4.3-4.4-5c-1.5-0.4-3.1-0.3-4.6-0.1
		c-0.5,0.1-1.1,0-1.2,0.7c-0.1,0.6,0.2,1,0.8,1.3c0.8,0.4,1.4,1,1.5,2c0.2,1.9,0.4,3.8,0.6,5.6c0.1,0.8-0.2,1.5-0.9,2.1
		c-0.8,0.7-0.8,1.5,0.2,1.9c1.1,0.5,1.5,1.4,1.7,2.5c0.2,1.4,0.3,2.9,0.7,4.3c0.5,2.3,2.2,3.6,4.4,3.6c3.1,0,4.8-1.5,5.6-3.6
		c0.2-0.4,0.2-1-0.3-1.3c-0.5-0.3-0.8,0-1.1,0.3c-0.7,0.6-1,0.4-1.2-0.4c-0.1-0.9-0.3-1.9-0.4-2.8c-0.4-2.4-1.7-3.6-4.1-3.9
		C207,49.5,206.3,49.5,205.6,49.2z"/>
	<path class="st0" d="M35.2,69.8c-0.1,2.4,0.8,5.2,2.5,7.8c1.9,2.8,4.3,4.6,7.8,4.8c0.4,0,0.9,0,1.1-0.5c0.1-0.5,0-0.9-0.4-1.1
		c-1.2-0.7-1.4-1.8-1.6-3c-0.7-5-1.3-10-1.9-15c-0.2-1.3-0.3-2.7,0.8-3.8c0.4-0.4,0.2-0.8,0-1.2c-0.2-0.4-0.6-0.3-0.9-0.2
		c-1.1,0.3-2.1,0.8-3,1.6C36.3,61.7,35.2,65.2,35.2,69.8z"/>
	<path class="st0" d="M60.3,29.8c0.1,0,0.1,0,0.2,0c0-3.6,0-7.3,0-10.9c0-0.5,0.1-1.3-0.7-1.3c-1.5,0.2-2.9-0.2-4.4-0.1
		c-0.8,0.1-1.2,0.6-1.2,1.4c0,0.8,0.4,1.3,1.2,1.3c0.1,0,0.2,0,0.4,0c1.2-0.1,1.5,0.5,1.5,1.6c0,0.9,0,1.8,0,2.7
		c0,5.3,0,10.5,0,15.8c0,1.2-0.1,2.5-0.7,3.6c-0.5,1.1-1.9,1.6-3,1.2c-1.3-0.4-0.5-1.2-0.5-1.9c0.1-0.9-0.2-1.7-1.1-2
		c-1-0.4-1.6,0.2-2,1c-1,1.8-0.1,4.3,1.9,5.3c3,1.4,6.4,0.1,7.6-3.1c0.5-1.3,0.8-2.7,0.8-4.1C60.3,36.9,60.3,33.4,60.3,29.8z"/>
	<path class="st0" d="M54.9,68.6c-2.4,0.3-4.9,0.6-7.4,1c-0.5,0.1-1,0.2-1,0.8c0,0.6,0.5,0.8,1,0.8c0.9,0.1,1.2,0.6,1.3,1.5
		c0.2,1.6,0.4,3.1,0.6,4.7c0.1,1.1,0.2,2.2-0.8,3.1c-0.4,0.4-0.3,0.9-0.1,1.3c0.2,0.5,0.7,0.3,1.1,0.2c2.3-0.6,4.3-1.9,6-3.6
		c0.4-0.4,0.5-0.9,0.4-1.4c-0.2-1.7-0.4-3.4-0.6-5c-0.1-0.7-0.1-1.2,0.4-1.8c0.3-0.3,0.5-0.7,0.3-1.1C55.9,68.6,55.4,68.6,54.9,68.6
		z"/>
	<path class="st0" d="M100.6,50.3c-1.3,0.2-2.7,0.4-4.1,0.6c-0.4,0.1-0.8,0.2-0.9,0.7c-0.1,0.4,0.2,0.6,0.5,0.7
		c2,0.8,2.4,2.6,2.7,4.5c0.2,1.6,0.5,3.1,0.6,4.7c0.2,2.6,0.9,5.1,0.8,7.8c0,1.4-0.5,2.6-1.5,3.6c-0.4,0.4-0.9,0.7-1.3,0.9
		c-0.7,0.4-0.9,1-0.5,1.6c0.4,0.7,0.9,0.2,1.3,0c2-1.1,3.2-2.9,3.6-5.1c0.5-2.6-0.4-5.2-0.6-7.7c-0.2-2.6-0.8-5.1-0.8-7.6
		c0-1.1,0.2-2.2,1.2-3c0.4-0.3,0.9-0.6,0.6-1.1C101.9,50.1,101.3,50.3,100.6,50.3z"/>
	<path class="st0" d="M63.7,60.6c-0.3,2-0.6,3.9-0.8,5.7c-0.4,2.9-0.8,5.8-1.2,8.7c-0.2,1.6-0.8,3-2.3,3.8c-0.3,0.2-0.6,0.4-0.4,0.9
		c0.2,0.4,0.6,0.7,1.1,0.6c1.6-0.2,3.2-0.4,4.8-0.6c0.4-0.1,0.8-0.2,0.9-0.7c0.1-0.5-0.3-0.7-0.7-0.9c-1.8-1-2-1.4-1.7-3.5
		c0.4-2.8,0.8-5.7,1.2-8.5C64.8,64.2,65,62.4,63.7,60.6z"/>
	<path class="st0" d="M47.3,57c-0.5,0-0.8,0-1,0c-0.4,0-0.9,0-0.9,0.5c0,0.5,0.2,0.9,0.6,1c0.2,0.1,0.5,0.1,0.7,0.2
		c1.9,0.3,3.3,1.4,4.4,2.9c0.6,0.8,1,1.6,1.3,2.5c0.2,0.5,0.5,1.2,1.2,1c0.8-0.2,0.7-0.9,0.7-1.6c-0.1-0.7-0.2-1.5-0.3-2.2
		c-0.2-1.4-0.3-2.7-0.5-4.1c-0.2-1.1-0.9-1.5-1.4-0.8c-0.8,1-1.7,1.1-2.8,0.8C48.5,57.1,47.8,57,47.3,57z"/>
	<path class="st0" d="M120.7,72.4c1.5-0.2,3-0.4,4.6-0.6c1.1-0.1,1.2-0.6,1.1-1.5c-0.3-1.7-0.4-3.5-0.7-5.3c-0.1-0.6-0.1-1.4-1-1.4
		c-0.8,0-0.9,0.7-1,1.3c-0.4,2.4-1.1,4.6-3.5,5.8c-0.5,0.2-0.4,0.7-0.4,1.2C120,72.3,120.4,72.4,120.7,72.4z"/>
	<path class="st0" d="M186.3,62.7c-0.2-1.6-0.4-3.2-0.6-4.8c-0.1-0.5-0.1-1.1-0.8-1.2c-0.8-0.1-0.9,0.5-1,1.1
		c-0.6,2.3-1.8,4.1-4.1,5.1c-0.5,0.2-0.8,0.5-0.6,1.1c0.2,0.6,0.6,0.7,1.1,0.6c1.7-0.2,3.4-0.5,5-0.7
		C186,63.8,186.4,63.4,186.3,62.7z"/>
	<path class="st0" d="M147.2,51c-0.1-1-0.3-2.3-0.5-3.5c-0.5-3.3,0.3-3.2-3.6-2.7c-0.4,0.1-0.8,0-1,0.5c-0.1,0.5-0.1,1.1,0.3,1.4
		c1.6,1.3,2.3,3,2.9,4.9c0.2,0.5,0.4,1.1,1.1,1C147.3,52.5,147.3,51.9,147.2,51z"/>
	<path class="st0" d="M144.3,67.8c-1.2-0.2-1.4-1.1-1.5-2.1c-0.8-6.3-1.6-12.6-2.4-18.9c-0.2-1.4-0.4-1.6-1.8-1.4
		c-1.6,0.2-3.1,0.4-4.7,0.3c-1.1,0-1.5-0.5-1.6-1.5c0-1.1,0-2.2,0-3.3c0-0.3-0.1-0.7,0.3-0.8c0.3-0.1,0.5,0.2,0.7,0.3
		c0.8,0.7,1.8,1,2.8,1c2.9,0,5.1-1.2,6.4-3.8c1.3-2.5,1.6-5.2,1.6-8.2c0.1-2.1-0.2-4.2-1.2-6.3c-1-2.1-2.6-3.4-4.8-3.7
		c-1.8-0.3-3.5,0-5,1.2c-0.5,0.4-1,0.8-1.3-0.2c-0.1-0.5-0.6-0.6-1-0.6c-0.9,0-1.9,0-2.8-0.1c-0.8-0.1-1.4,0.3-1.5,1.2
		c-0.1,0.8,0.3,1.4,1.2,1.4c1.1,0.1,1.5,0.7,1.5,1.7c0,0.9,0,1.8,0,2.7c0,5.6,0,11.2,0,16.8c0,1.5-0.4,2.4-2.1,2.3
		c-1.1,0-1.7,0.9-1.1,2c0.6,1.1,0.7,2.3,0.8,3.5c0.1,1,0.3,2,0.4,2.9c0.1,0.5,0.4,0.9,1,0.8c0.5-0.1,0.7-0.4,0.8-0.9
		c0-0.4,0.1-0.7,0.1-1.1c0.1-1.4,0.3-2.7,1-4c0.4-0.6,0.9-0.8,1.6-0.7c0.7,0.1,1.1,0.5,1.2,1.2c0.8,5.9,1.5,11.7,2.3,17.6
		c0.1,0.6,0,1.2-0.6,1.6c-0.4,0.3-1.1,0.5-0.7,1.3c0.3,0.6,0.9,0.5,1.5,0.4c2.7-0.3,5.3-0.7,8-1.1c0.3,0,0.7-0.2,1-0.3
		c0.3-0.1,0.5-0.4,0.5-0.7C144.9,68.1,144.6,67.8,144.3,67.8z M132.7,25c0.6-1.9,1.9-2.8,3.9-2.9c1.7,0,3.1,0.8,3.7,2.6
		c1.5,3.9,1.3,7.8-0.3,11.7c-0.6,1.4-1.7,2.1-3.2,2.2c-1.6,0.1-2.8-0.6-3.6-2c-0.8-1.5-1.1-3.1-1.1-6.4
		C132,28.5,132.1,26.7,132.7,25z"/>
	<path class="st0" d="M160.4,47.5c1.2,0.1,2.5,0,3.2-1.1c1.2-2.2,1.1-4.5,0.6-6.9c-0.1-0.6-0.6-0.8-1.2-0.8c-0.5,0-0.9,0.4-1,0.8
		c-0.3,0.7-0.2,1.5-0.1,2.2c0.1,0.8,0,1.6-0.2,2.3c-0.1,0.3-0.3,0.6-0.7,0.6c-0.3,0-0.6-0.1-0.6-0.4c0.1-1-0.5-1.9-0.5-2.9
		c0.1-1.7,0-3.4,0-5.1c0,0,0,0,0,0c0-1.8,0.1-3.6,0-5.3c-0.2-4.4-2.8-6.6-7.1-6.2c-3.3,0.3-5.8,3.5-5.3,6.6c0.2,0.8,0.6,1.5,1.4,1.8
		c0.7,0.3,1.4,0.1,2-0.4c0.8-0.8,0.7-1.8,0.2-2.6c-0.5-0.8-0.2-1.4,0.4-2c0.9-0.8,2.6-1,3.8-0.3c1.6,0.8,1.7,2.4,1.6,3.9
		c-0.1,1.4-0.7,2.3-2,2.6c-1,0.3-2,0.4-3,0.5c-3.7,0.6-5.7,3.1-5.6,6.9c0.1,2.7,1.6,5.1,3.7,5.7c1.1,0.3,1.4,0.9,1.5,1.8
		c0.2,1.7,0.4,3.4,0.6,5c0.4,3.3,0.9,6.6,1.3,9.9c0.1,1,0.2,2-0.9,2.6c-0.3,0.2-0.5,0.5-0.3,0.9c0.2,0.5,0.6,0.6,1.1,0.5
		c3.1-0.4,6.1-0.8,9.1-1.2c0.4-0.1,0.8-0.3,0.8-0.7c0.1-0.5-0.2-0.8-0.6-0.9c-1-0.2-1.3-0.9-1.4-1.8c-0.6-4.9-1.3-9.9-1.9-14.8
		C159.2,47.8,159.4,47.4,160.4,47.5z M157.1,38.2c0,0.3,0,0.6,0,0.8c0,0,0,0,0,0c0,0.4,0,0.9,0,1.3c-0.2,2.2-0.7,2.8-2.9,3.1
		c-1,0.1-2,0.2-3.1,0.4c-0.6,0.1-1-0.2-1.3-0.7c-1.2-2-0.1-4.7,2.1-5.3c1.2-0.3,2.5-0.5,3.7-0.8C157.1,36.8,157.1,36.8,157.1,38.2z"
		/>
	<path class="st0" d="M98.8,39.9c-0.1-0.7-0.5-1.3-1.3-1.2c-0.9,0.1-1.1,0.7-1.1,1.4c0,1.1,0,2.1-0.1,3.2c0,0.6-0.1,1.3-0.9,1.4
		c-0.8,0-0.8-0.7-0.9-1.3c-0.3-2.1-0.1-4.3,0-6.4c0-2.2,0.2-4.3-0.1-6.5c-0.5-4.2-3-6.2-7.2-5.8c-2.8,0.3-5.3,3-5.3,5.8
		c0,0.3,0,0.6,0.1,0.8c0.2,0.9,0.6,1.6,1.5,1.8c0.7,0.2,1.4,0.2,2-0.5c0.6-0.8,0.6-1.7,0.2-2.4c-0.7-1.2-0.1-1.8,0.8-2.3
		c1.2-0.7,2.5-0.6,3.6,0.1c1.5,0.9,1.4,2.5,1.3,4c-0.1,1.2-0.7,2-1.9,2.3c-1.2,0.4-2.4,0.3-3.6,0.6c-4.8,1-6.8,7.3-3.5,11
		c2.1,2.4,5.7,2.5,8.4,0.3c0.8-0.6,1.2-0.8,1.8,0.2c0.8,1.2,2.1,1.2,3.4,1c1.2-0.2,2.1-0.7,2.4-1.9C99.1,43.7,99,41.8,98.8,39.9z
		 M91.6,38.8c-0.1,1.2-0.1,2.6-0.8,3.9c-1.2,2.3-4.1,2.9-5.9,1.2c-1.2-1.2-1.2-2.6-0.8-4.1c0.3-1.2,1.3-1.8,2.5-2.1
		c1.1-0.2,2.2-0.4,3.2-0.6C91.5,36.7,91.7,36.8,91.6,38.8z"/>
	<path class="st0" d="M67.5,37c1.5,0,3,0,4.5,0c0,0,0,0,0,0c1.5,0,3.1,0,4.6,0c0.7,0,1.4-0.2,1.4-1.1c0.2-3-0.1-5.9-2-8.3
		c-2.6-3.5-7.5-3.5-10.2-0.1c-2,2.4-2.6,5.3-2.7,8.3c-0.2,3.3,0.2,6.6,2.2,9.4c1.8,2.5,4.8,3.5,7.7,2.5c2.5-0.8,4.8-4,4.8-6.6
		c0-0.8-0.2-1.5-1.1-1.7c-0.9-0.2-1.3,0.4-1.5,1.2c-0.2,0.8-0.6,1.6-1,2.4c-1.7,3.4-5.9,2.1-7.1-0.2c-0.7-1.4-0.7-2.9-0.9-4.4
		C66.2,37.4,66.6,37,67.5,37z M66.5,33.1c0.2-1.4,0.6-2.7,1.5-3.8c1.7-2.1,4.7-1.8,6.1,0.5c0.6,1,0.8,2.1,1,3.3
		c0.1,0.8-0.3,1.1-1,1.1c-1.1,0-2.2,0-3.3,0c0,0,0,0,0,0c-1.1,0-2.1,0-3.2,0C66.7,34.2,66.4,33.9,66.5,33.1z"/>
</g>
</svg>
