<?xml version="1.0" encoding="UTF-8"?>
<svg id="Capa_1" xmlns="http://www.w3.org/2000/svg" version="1.1" viewBox="0 0 250 100">
  <!-- Generator: Adobe Illustrator 29.6.1, SVG Export Plug-In . SVG Version: 2.1.1 Build 9)  -->
  <defs>
    <style>
      .st0 {
        fill: #777;
      }
    </style>
  </defs>
  <path class="st0" d="M12.54,60.75c-1.58,0-2.89-.41-3.94-1.23-1.04-.82-1.77-1.93-2.19-3.32l3.41-.82c.11.58.41,1.08.92,1.5.51.42,1.07.63,1.68.63.4,0,.83-.11,1.28-.32.45-.22.78-.57,1-1.05.13-.31.21-.67.23-1.09.03-.43.04-.93.04-1.49v-13.88h3.5v13.88c0,.64,0,1.2-.01,1.69,0,.48-.05.93-.14,1.36-.09.42-.26.85-.53,1.3-.56.97-1.3,1.69-2.21,2.15-.91.45-1.92.67-3.02.67Z"/>
  <path class="st0" d="M31.5,60.75c-2.06,0-3.83-.45-5.3-1.35-1.47-.91-2.6-2.17-3.4-3.78-.78-1.61-1.17-3.49-1.17-5.62s.39-4,1.17-5.62c.79-1.61,1.92-2.87,3.4-3.77,1.47-.91,3.24-1.36,5.3-1.36s3.83.45,5.3,1.36c1.48.9,2.61,2.15,3.4,3.77.79,1.61,1.19,3.49,1.19,5.62s-.4,4-1.19,5.62c-.78,1.61-1.92,2.88-3.4,3.78-1.47.9-3.24,1.35-5.3,1.35ZM31.5,57.49c1.39,0,2.54-.3,3.45-.92.93-.62,1.62-1.49,2.08-2.62.47-1.13.7-2.45.7-3.95s-.23-2.82-.7-3.93c-.46-1.12-1.15-1.99-2.08-2.61-.92-.62-2.07-.94-3.45-.96-1.39,0-2.54.3-3.45.92-.92.62-1.61,1.49-2.08,2.62-.46,1.13-.69,2.45-.69,3.95s.23,2.82.69,3.94c.46,1.11,1.15,1.97,2.06,2.59.93.62,2.08.94,3.47.96Z"/>
  <path class="st0" d="M49.98,60.32v-20.63h3.11l7.14,14.62,7.14-14.62h3.11v20.63h-3.22v-13.23l-6.33,13.23h-1.38l-6.32-13.23v13.23h-3.24Z"/>
  <path class="st0" d="M74.78,60.32v-20.63h3.45v20.63h-3.45Z"/>
  <path class="st0" d="M82.81,60.32v-20.63h3.45v17.4h9.11v3.24h-12.57Z"/>
  <path class="st0" d="M96.37,60.32l6.51-20.63h5.06l6.51,20.63h-3.55l-5.9-18.51h.77l-5.83,18.51h-3.55ZM100,55.85v-3.22h10.83v3.22h-10.83Z"/>
  <path class="st0" d="M117.03,60.32v-20.63h3.5l9.57,14.54v-14.54h3.5v20.63h-3.5l-9.57-14.54v14.54h-3.5Z"/>
  <path class="st0" d="M146.33,60.75c-2.06,0-3.83-.45-5.3-1.35-1.47-.91-2.6-2.17-3.4-3.78-.78-1.61-1.17-3.49-1.17-5.62s.39-4,1.17-5.62c.79-1.61,1.92-2.87,3.4-3.77,1.47-.91,3.24-1.36,5.3-1.36s3.83.45,5.3,1.36c1.48.9,2.61,2.15,3.4,3.77.79,1.61,1.19,3.49,1.19,5.62s-.4,4-1.19,5.62c-.78,1.61-1.92,2.88-3.4,3.78-1.47.9-3.24,1.35-5.3,1.35ZM146.33,57.49c1.39,0,2.54-.3,3.45-.92.93-.62,1.62-1.49,2.08-2.62.47-1.13.7-2.45.7-3.95s-.23-2.82-.7-3.93c-.46-1.12-1.15-1.99-2.08-2.61-.92-.62-2.07-.94-3.45-.96-1.39,0-2.54.3-3.45.92-.92.62-1.61,1.49-2.08,2.62-.46,1.13-.69,2.45-.69,3.95s.23,2.82.69,3.94c.46,1.11,1.15,1.97,2.06,2.59.93.62,2.08.94,3.47.96Z"/>
  <path class="st0" d="M164.8,60.32v-20.63h8.53c.2,0,.46,0,.77.03.32,0,.61.04.87.09,1.2.18,2.18.58,2.95,1.19.78.61,1.36,1.39,1.73,2.32.38.93.57,1.96.57,3.1s-.19,2.16-.57,3.1c-.38.93-.96,1.7-1.75,2.31-.77.61-1.75,1.01-2.94,1.19-.27.04-.56.07-.89.09-.32.02-.57.03-.76.03h-5.07v7.21h-3.45ZM168.26,49.89h4.93c.19,0,.41,0,.64-.03.24-.02.46-.06.66-.11.57-.14,1.02-.4,1.35-.76.34-.36.57-.77.7-1.23.14-.46.21-.91.21-1.35s-.07-.89-.21-1.35c-.13-.47-.37-.88-.7-1.25-.32-.36-.77-.62-1.35-.76-.2-.06-.42-.09-.66-.1-.24-.02-.45-.03-.64-.03h-4.93v6.96Z"/>
  <path class="st0" d="M180.25,60.32l6.51-20.63h5.06l6.51,20.63h-3.55l-5.9-18.51h.77l-5.83,18.51h-3.55ZM183.87,55.85v-3.22h10.83v3.22h-10.83Z"/>
  <path class="st0" d="M200.91,60.32v-20.63h8.53c.2,0,.46,0,.77.03.32,0,.61.04.87.09,1.19.18,2.18.58,2.95,1.19.78.61,1.36,1.39,1.73,2.32.38.93.57,1.96.57,3.1,0,1.68-.43,3.13-1.28,4.34-.85,1.2-2.16,1.95-3.91,2.24l-1.48.13h-5.32v7.21h-3.45ZM212.76,60.32l-4.07-8.4,3.51-.77,4.47,9.17h-3.91ZM204.36,49.89h4.93c.19,0,.41,0,.64-.03.24-.02.46-.06.66-.11.57-.14,1.02-.4,1.35-.76.33-.36.57-.77.7-1.23.14-.46.21-.91.21-1.35s-.07-.89-.21-1.35c-.13-.47-.37-.88-.7-1.25-.33-.36-.77-.62-1.35-.76-.2-.06-.42-.09-.66-.1-.24-.02-.45-.03-.64-.03h-4.93v6.96Z"/>
  <path class="st0" d="M220.11,60.32v-20.63h3.45v20.63h-3.45Z"/>
  <path class="st0" d="M235.49,60.75c-1.51,0-2.87-.26-4.08-.79-1.2-.53-2.2-1.28-2.98-2.25-.77-.98-1.27-2.15-1.48-3.5l3.58-.54c.31,1.22.93,2.17,1.88,2.84.96.67,2.05,1,3.3,1,.74,0,1.43-.11,2.08-.34.65-.23,1.17-.56,1.58-1,.41-.44.62-.98.62-1.62,0-.29-.05-.55-.14-.79-.09-.25-.24-.47-.43-.66-.18-.19-.42-.36-.72-.52-.29-.16-.62-.3-1-.42l-5.33-1.58c-.46-.13-.95-.31-1.49-.53-.52-.23-1.03-.54-1.5-.93-.47-.4-.85-.91-1.16-1.52-.3-.62-.44-1.39-.44-2.29,0-1.33.34-2.44,1-3.34.68-.91,1.59-1.59,2.72-2.03,1.15-.45,2.42-.67,3.81-.66,1.41,0,2.68.25,3.78.73,1.11.47,2.03,1.15,2.78,2.05.75.9,1.27,1.98,1.58,3.25l-3.71.64c-.15-.73-.45-1.34-.89-1.85-.43-.52-.96-.91-1.59-1.17-.62-.27-1.28-.41-1.99-.43-.69,0-1.33.1-1.92.32-.58.21-1.05.52-1.42.92-.35.4-.53.87-.53,1.4,0,.51.15.92.46,1.25.31.32.68.57,1.13.76.46.18.92.33,1.39.46l3.7,1.03c.51.13,1.07.32,1.71.54.63.23,1.24.55,1.82.96.58.41,1.06.95,1.43,1.62.38.67.57,1.52.57,2.55s-.22,2.01-.67,2.82c-.44.8-1.04,1.47-1.79,2.01-.75.53-1.62.94-2.59,1.2-.96.27-1.98.4-3.04.4Z"/>
</svg>