<?xml version="1.0" encoding="utf-8"?>
<!-- Generator: $$$/GeneralStr/196=Adobe Illustrator 27.6.0, SVG Export Plug-In . SVG Version: 6.00 Build 0)  -->
<svg version="1.1" id="Capa_1" xmlns="http://www.w3.org/2000/svg" xmlns:xlink="http://www.w3.org/1999/xlink" x="0px" y="0px"
	 viewBox="0 0 250 100" style="enable-background:new 0 0 250 100;" xml:space="preserve">
<style type="text/css">
	.st0{fill:#777777;}
</style>
<g id="Groupe_14888" transform="translate(-9.986 -4.069)">
	<path id="Tracé_14961" class="st0" d="M86.4,82.8h-2.5v7.9h1v-3.8h1.5c1.3,0,2.4-0.7,2.4-2.1C88.8,83.4,87.7,82.8,86.4,82.8z
		 M86.1,86.6h-1.2v-3.4h1.2c0.9,0,1.6,0.7,1.6,1.6c0,0,0,0.1,0,0.1C87.7,85.8,87,86.6,86.1,86.6L86.1,86.6z"/>
	<path id="Tracé_14962" class="st0" d="M93,82.7l-3,7.9h0.6l1-2.7h3.1l1.1,2.7h1.1l-3.4-7.9H93z M91.7,87.6l1.3-3.7l1.4,3.7H91.7z"
		/>
	<path id="Tracé_14963" class="st0" d="M104.6,84.9c0-1.4-1.1-2-2.4-2h-2.5v7.9h1v-3.8h0.5c0.3,0,0.5,0.1,0.6,0.3l2.1,3.4h1.3
		l-2.5-3.8C103.8,86.8,104.6,85.9,104.6,84.9z M100.8,86.6v-3.4h1.2c0.9,0,1.6,0.8,1.6,1.7c0,0,0,0,0,0c0,0.9-0.7,1.7-1.6,1.7
		L100.8,86.6z"/>
	<path id="Tracé_14964" class="st0" d="M108,90.7h1v-4.2h2.4v-0.4H109v-2.8h3.3v-0.5H108V90.7z"/>
	<path id="Tracé_14965" class="st0" d="M120.3,87.9c0,1.8-0.7,2.5-2.1,2.5c-1.4,0-2.1-0.6-2.1-2.6v-5h-1v5.3c0,1.8,1.2,2.6,3.1,2.6
		c2,0,3.1-1,3.1-2.8v-5.2h-1L120.3,87.9z"/>
	<path id="Tracé_14966" class="st0" d="M128.7,89.5l-2.9-6.6h-1v7.9h0.5v-6.6l2.9,6.6h0.5l2.9-6.9v6.8h1v-7.9h-1.2L128.7,89.5z"/>
	<path id="Tracé_14967" class="st0" d="M139.2,86.2l-1.1-0.5c-0.9-0.4-1.1-0.8-1.1-1.5c0-0.8,0.5-1.1,1.3-1.1c0.7,0,1.3,0.4,1.6,1
		c0.1,0.1,0.2,0.1,0.2,0.1l0.4-0.4c0.1-0.1,0.1-0.2,0-0.3c-0.6-0.5-1.3-0.8-2.1-0.8c-1.4,0-2.4,0.6-2.4,1.9c0,0.8,0.5,1.6,1.3,1.9
		l1.3,0.6c0.8,0.2,1.3,1,1.2,1.7c0,0.8-0.6,1.4-1.4,1.4c0,0-0.1,0-0.1,0c-0.8,0-1.6-0.3-2.2-0.8l-0.3,0.4c0.7,0.5,1.5,0.8,2.3,0.8
		c1.7,0,2.6-0.9,2.6-2.2C140.8,87.5,140.2,86.6,139.2,86.2z"/>
	<path id="Tracé_14968" class="st0" d="M153.6,84.9c0-1.4-1.1-2-2.4-2h-2.5v7.9h1v-3.8h0.5c0.2,0,0.5,0.1,0.6,0.3l2.1,3.4h1.3
		l-2.5-3.8C152.8,86.8,153.6,85.9,153.6,84.9z M149.7,86.6v-3.4h1.2c0.9,0,1.6,0.8,1.6,1.7c0,0,0,0,0,0c0,0.9-0.7,1.7-1.6,1.7
		L149.7,86.6z"/>
	<path id="Tracé_14969" class="st0" d="M159.3,82.7l-3,7.9h0.6l1-2.7h3.1l1.1,2.7h1.1l-3.4-7.9H159.3z M158,87.6l1.3-3.7l1.4,3.7
		H158z"/>
	<path id="Tracé_14970" class="st0" d="M170.9,84.9c0-1.4-1.1-2-2.4-2h-2.5v7.9h1v-3.8h0.5c0.2,0,0.5,0.1,0.6,0.3l2.1,3.4h1.3
		l-2.5-3.8C170.1,86.8,170.9,85.9,170.9,84.9z M167.1,86.6v-3.4h1.2c0.9,0,1.6,0.8,1.6,1.7c0,0,0,0,0,0c0,0.9-0.7,1.7-1.6,1.7
		L167.1,86.6z"/>
	<path id="Tracé_14971" class="st0" d="M175.3,86.5h2.7v-0.4h-2.7v-2.8h3.6v-0.4h-4.6v7.9h4.9v-0.4l-3.9,0L175.3,86.5z"/>
	<path id="Tracé_14972" class="st0" d="M185.4,86.2l-1.1-0.5c-0.9-0.4-1.1-0.8-1.1-1.5c0-0.8,0.5-1.1,1.3-1.1c0.7,0,1.3,0.4,1.6,1
		c0.1,0.1,0.2,0.1,0.2,0.1l0.4-0.4c0.1-0.1,0.1-0.2,0-0.3c-0.6-0.5-1.3-0.8-2.1-0.8c-1.4,0-2.4,0.6-2.4,1.9c0,0.8,0.5,1.6,1.3,1.9
		l1.3,0.6c0.8,0.2,1.3,1,1.2,1.7c0,0.8-0.6,1.4-1.4,1.4c0,0-0.1,0-0.1,0c-0.8,0-1.6-0.3-2.2-0.8L182,90c0.7,0.5,1.5,0.8,2.3,0.8
		c1.7,0,2.6-0.9,2.6-2.2C187,87.5,186.4,86.6,185.4,86.2z"/>
	<path id="Tracé_14973" class="st0" d="M48.8,77l-1.3,0.3l0.5,2l2.4-0.6c4.1-1,8.6-2.4,8.6-13.3V31.2h-4.9v37.8
		C54.2,75,52.6,76.2,48.8,77z"/>
	<path id="Tracé_14974" class="st0" d="M88.6,30.6c-10.2,0-18.8,8.1-18.8,19.8c0,11.2,8.4,19.8,18.8,19.8c10.3,0,18.8-8.1,18.8-20
		C107.4,38.6,98.8,30.6,88.6,30.6z M88.5,68.3c-8.5,0-13.2-7.9-13.2-18s4.8-17.9,13.2-17.9c8.6,0,13.3,7.9,13.3,18
		S97.2,68.3,88.5,68.3z"/>
	<path id="Tracé_14975" class="st0" d="M128.6,64.6l-14.1-33.5h-5.5l16.7,39.1h3.3l17.5-39.1h-3L128.6,64.6z"/>
	<path id="Tracé_14976" class="st0" d="M167.1,30.6c-10.2,0-18.8,8.1-18.8,19.8c0,11.2,8.4,19.8,18.8,19.8c10.3,0,18.8-8.1,18.8-20
		C185.9,38.6,177.4,30.6,167.1,30.6z M167,68.3c-8.5,0-13.2-7.9-13.2-18s4.8-17.9,13.2-17.9c8.6,0,13.3,7.9,13.3,18
		S175.8,68.3,167,68.3z"/>
	<path id="Tracé_14977" class="st0" d="M206.5,69.6V49.1l15.5-18h-3.6l-13,15.2l-12.6-15.2h-6.6l15.3,18.4v20.1H206.5z"/>
	<path id="Tracé_14978" class="st0" d="M34.7,17.3v70.4H79c0.4,0,0.7-0.3,0.7-0.7s-0.3-0.7-0.7-0.7c0,0,0,0,0,0H36.1V18.7h197.8
		v67.7h-42.5c-0.4,0-0.7,0.3-0.7,0.7c0,0.4,0.3,0.7,0.7,0.7h43.9V17.3H34.7z"/>
</g>
</svg>
