<?xml version="1.0" encoding="utf-8"?>
<!-- Generator: $$$/GeneralStr/196=Adobe Illustrator 27.6.0, SVG Export Plug-In . SVG Version: 6.00 Build 0)  -->
<svg version="1.1" id="Capa_1" xmlns="http://www.w3.org/2000/svg" xmlns:xlink="http://www.w3.org/1999/xlink" x="0px" y="0px"
	 viewBox="0 0 250 100" style="enable-background:new 0 0 250 100;" xml:space="preserve">
<style type="text/css">
	.st0{fill:#777777;}
</style>
<g id="Layer_2">
</g>
<g>
	<path class="st0" d="M70.7,51.9c2.6,0,5.2,0,7.8,0c0.6,0,0.5,0.5,0.5,0.8c0,0.4-0.2,0.6-0.6,0.6c-0.5,0-1,0-1.5,0
		c-0.4,0-0.5,0.1-0.5,0.5c0,3.4,0,6.7,0,10.1c0,2.8,0,5.6,0,8.4c0,0.9,0,0.9,1,0.9c0.4,0,0.7-0.1,1.1-0.1c0.6,0,0.6,0.4,0.6,0.8
		c0,0.4-0.1,0.7-0.6,0.7c-2.6,0-5.1,0-7.7,0c0-0.4,0-0.9,0-1.3c0.7,0,1.3-0.1,2-0.1c0.4,0,0.6-0.2,0.6-0.6c0-6.2,0-12.4,0-18.7
		c0-0.4-0.2-0.6-0.6-0.6c-0.7,0-1.3,0-2,0C70.7,52.7,70.7,52.3,70.7,51.9z"/>
	<path class="st0" d="M121.2,95.7c-0.1-1.5,0-3.1,0-4.6c0-0.2,0-0.5,0.3-0.6c0.3-0.1,0.4,0.1,0.6,0.3c0.4,0.6,0.8,1.2,1.2,1.7
		c0.4,0.6,0.5,0.6,0.8,0c0.4-0.6,0.7-1.1,1.1-1.7c0.2-0.2,0.3-0.5,0.6-0.4c0.3,0.1,0.3,0.5,0.3,0.7c0,1.5,0,3,0,4.5
		c-0.2,0-0.5,0-0.7,0c0-1.2,0-2.4,0-3.6c-0.1,0-0.2,0-0.2,0c-0.4,0.6-0.8,1.2-1.2,1.8c-0.3,0.5-0.5,0.4-0.8,0
		c-0.3-0.5-0.7-1.1-1.1-1.6c-0.1-0.1-0.1-0.2-0.3-0.1c-0.1,0-0.1,0.2-0.1,0.3c0.1,1.1,0,2.2,0,3.3C121.6,95.7,121.4,95.7,121.2,95.7
		z"/>
	<path class="st0" d="M156.6,95.7c0-1.5,0-3,0-4.5c0-0.5,0.2-0.7,0.7-0.7c0.6,0,1.2,0,1.8,0c1.3,0.1,2,1.2,1.5,2.3
		c-0.2,0.3-0.4,0.5-0.7,0.7c-0.3,0.1-0.4,0.4-0.1,0.6c0.5,0.5,0.8,1.1,1.2,1.6c-0.2,0-0.5,0-0.7,0c-0.4-0.4-0.7-0.9-1-1.3
		c-0.4-0.6-0.9-0.6-1.4-0.5c-0.2,0-0.3,0.1-0.3,0.4c0,0.5,0,1,0,1.5C157,95.7,156.8,95.7,156.6,95.7z M158.4,93.1c0.2,0,0.4,0,0.6,0
		c0.5-0.1,0.9-0.5,0.9-1c0-0.6-0.4-0.8-0.9-0.8c-0.3,0-0.7,0-1.1,0c-0.6-0.1-0.7,0.2-0.7,0.7C157.3,93.3,157.2,93.1,158.4,93.1z"/>
	<path class="st0" d="M102.6,95.7c0-1.5,0-3.1,0-4.6c0-0.3,0.1-0.6,0.4-0.6c0.8,0,1.6-0.1,2.4,0.1c0.6,0.2,1.1,0.5,1.2,1.3
		c0.1,0.7-0.2,1.3-0.8,1.6c-0.4,0.2-0.4,0.4-0.1,0.7c0.4,0.5,0.8,0.9,1,1.6c-0.2,0-0.5,0-0.7,0c-0.3-0.6-0.8-1.2-1.2-1.7
		c-0.4-0.4-0.9-0.3-1.3-0.2c-0.4,0.1-0.2,0.5-0.2,0.8c0,0.3-0.1,0.7-0.1,1C103,95.7,102.8,95.7,102.6,95.7z M104.3,93.1
		C104.3,93.1,104.3,93.1,104.3,93.1c0.3,0,0.5,0,0.8,0c0.5-0.1,0.9-0.5,0.9-1c0-0.4-0.4-0.8-1-0.8c-0.3,0-0.6,0-0.9,0
		c-0.8,0-0.8,0-0.8,0.8c0,0.1,0,0.2,0,0.3c-0.1,0.5,0.1,0.7,0.5,0.6C103.9,93.1,104.1,93.1,104.3,93.1z"/>
	<path class="st0" d="M128.3,95.7c0.1-0.1,0.2-0.3,0.2-0.5c-0.2-1.3,0-2.7-0.1-4c0-0.4,0.2-0.7,0.6-0.7c0.9,0,1.7,0,2.6,0
		c0.3,0,0.6,0.1,0.6,0.4c0,0.3-0.3,0.3-0.6,0.3c-0.6,0-1.3,0-1.9,0c-0.5,0-0.5,0.3-0.5,0.7c0,0.3-0.1,0.8,0.5,0.8c0.6,0,1.1,0,1.7,0
		c0.2,0,0.5,0,0.5,0.4c0,0.3-0.2,0.4-0.5,0.4c-0.5,0-1,0-1.5,0c-0.7,0-0.7,0.1-0.7,1c0,0.5,0.3,0.6,0.8,0.6c0.5,0,0.9,0,1.4,0
		c0.5-0.1,0.9,0.1,1.1,0.6C131,95.7,129.7,95.7,128.3,95.7z"/>
	<path class="st0" d="M96.6,95.7c0.1-0.2,0.1-0.5,0.1-0.7c0-1.3,0-2.5,0-3.8c0-0.5,0.2-0.7,0.7-0.7c0.8,0,1.6,0,2.5,0
		c0.3,0,0.6,0,0.6,0.4c0,0.4-0.3,0.3-0.6,0.3c-0.6,0-1.2,0-1.8,0c-0.6,0-0.8,0.2-0.8,0.7c0,0.5,0.2,0.8,0.8,0.8c0.5,0,1,0,1.5,0
		c0.2,0,0.5,0.1,0.5,0.4c0,0.3-0.3,0.4-0.5,0.4c-0.5,0-1.1,0-1.6,0c-0.4,0-0.6,0.1-0.6,0.5c0,0.2,0,0.3,0,0.5c0,0.5,0.2,0.8,0.8,0.7
		c0.6-0.1,1.1,0,1.7,0c0.4,0,0.6,0.2,0.5,0.6C99.1,95.7,97.8,95.7,96.6,95.7z"/>
	<path class="st0" d="M144.4,95.7c0-1.5,0-3,0-4.5c0-0.5,0.2-0.8,0.7-0.7c0.5,0,0.9,0,1.4,0c1,0.1,1.8,0.8,1.8,1.7
		c0,0.9-0.7,1.6-1.7,1.7c-0.3,0-0.7,0-1.1,0c-0.4,0-0.5,0.2-0.4,0.5c0.1,0.4,0,0.8-0.1,1.2C144.8,95.7,144.6,95.7,144.4,95.7z
		 M146.1,91.2C146.1,91.3,146.1,91.3,146.1,91.2c-0.2,0-0.4,0-0.6,0c-0.2,0-0.3,0.1-0.3,0.3c-0.3,1.5,0.2,2,1.7,1.6
		c0.1,0,0.2,0,0.2-0.1c0.4-0.2,0.7-0.5,0.6-1c0-0.5-0.3-0.7-0.8-0.8C146.6,91.3,146.3,91.3,146.1,91.2z"/>
	<path class="st0" d="M115.4,95.7c0.1-0.1,0.2-0.2,0-0.3c-0.7-0.5-0.9-1.2-0.9-1.9c0-0.7,0-1.5,0-2.2c0-0.3,0-0.7,0.4-0.6
		c0.4,0,0.4,0.4,0.4,0.7c0,0.9,0,1.8,0,2.6c0.1,1.1,1.3,1.7,2.2,1.1c0.4-0.3,0.6-0.6,0.6-1.1c0-0.9,0.1-1.8,0.1-2.7
		c0-0.2-0.1-0.6,0.3-0.6c0.4,0,0.4,0.3,0.4,0.6c0,0.8,0,1.7,0,2.5c0,0.7-0.3,1.2-0.8,1.7c-0.1,0.1-0.3,0.2-0.3,0.4
		C117,95.7,116.2,95.7,115.4,95.7z"/>
	<path class="st0" d="M90.8,95.7c0-1.5,0-3,0-4.5c0-0.5,0.2-0.7,0.7-0.7c0.5,0,0.9,0,1.4,0c1.1,0.1,1.8,0.8,1.8,1.7
		c0,0.9-0.7,1.6-1.8,1.7c-0.1,0-0.1,0-0.2,0c-1.3,0.1-1.3,0.1-1.3,1.3c0,0.1,0,0.3,0,0.4C91.2,95.7,91,95.7,90.8,95.7z M92.4,91.3
		C92.4,91.3,92.4,91.3,92.4,91.3c-0.2,0-0.4,0-0.6,0c-0.2,0-0.4,0.1-0.3,0.3c0,0.5-0.2,1.2,0.2,1.6c0.4,0.4,1.1,0.1,1.6,0
		c0.4-0.1,0.7-0.5,0.7-1c0-0.5-0.4-0.8-0.8-0.9C92.9,91.3,92.7,91.3,92.4,91.3z"/>
	<path class="st0" d="M149.4,95.7c0.7-1.5,1.3-3,2-4.5c0.1-0.2,0.1-0.3,0.2-0.5c0.3-0.3,0.5-0.4,0.7,0c0.7,1.4,1.4,2.9,2,4.4
		c0.1,0.2,0.1,0.3,0.2,0.5c-0.2,0-0.5,0-0.7,0c-0.2-1.1-0.5-1.3-1.6-1.3c-0.3,0-0.6,0-0.9,0c-0.8,0-1.2,0.5-1.1,1.3
		C149.9,95.7,149.7,95.7,149.4,95.7z M151.9,93.7c0.1,0,0.2,0,0.3,0c0.7,0,0.7-0.1,0.5-0.7c-0.2-0.4-0.3-0.8-0.5-1.1
		c0-0.1-0.1-0.3-0.2-0.3c-0.2,0-0.2,0.1-0.3,0.3c-0.1,0.3-0.3,0.6-0.4,0.9C151,93.7,151,93.7,151.9,93.7z"/>
	<path class="st0" d="M134.7,95.7c0.1-0.2,0-0.3-0.2-0.5c-0.2-0.1-0.5-0.3-0.3-0.6c0.2-0.3,0.4,0,0.6,0.1c0.2,0.1,0.4,0.2,0.6,0.3
		c0.3,0.1,0.6,0.2,0.9,0.1c0.4-0.1,0.9-0.3,0.9-0.8c0-0.5-0.3-0.7-0.7-0.8c-0.4-0.1-0.8-0.2-1.2-0.3c-0.7-0.2-1.1-0.7-1.1-1.3
		c0-0.6,0.4-1.2,1.1-1.4c0.7-0.2,1.4-0.1,2,0.3c0.2,0.1,0.3,0.3,0.2,0.5c-0.1,0.2-0.3,0.1-0.5,0c-0.4-0.2-0.8-0.3-1.2-0.3
		c-0.5,0-0.8,0.3-0.9,0.7c-0.1,0.4,0.3,0.6,0.6,0.7c0.2,0.1,0.4,0.2,0.7,0.2c0.4,0.1,0.7,0.2,1,0.4c0.8,0.5,1,1.3,0.4,2
		c-0.1,0.2-0.3,0.3-0.4,0.5C136.3,95.7,135.5,95.7,134.7,95.7z"/>
	<path class="st0" d="M166.2,95.7c0.1-0.1,0.4-0.2,0.1-0.4c-0.2-0.1-0.3-0.2-0.4-0.3c-0.1-0.1-0.1-0.3,0-0.4
		c0.1-0.1,0.2-0.1,0.3-0.1c0.3,0.1,0.6,0.3,0.8,0.4c0.5,0.3,1.2,0.2,1.6-0.1c0.4-0.4,0.4-0.8-0.1-1.1c-0.2-0.1-0.4-0.2-0.7-0.3
		c-0.3-0.1-0.7-0.2-1-0.3c-0.6-0.2-1-0.8-1-1.3c0-0.6,0.4-1.1,1.1-1.3c0.7-0.2,1.4-0.1,2,0.2c0.2,0.1,0.5,0.3,0.4,0.6
		c-0.2,0.3-0.4,0.1-0.7,0c-0.4-0.2-0.8-0.3-1.2-0.3c-0.4,0.1-0.7,0.2-0.8,0.6c-0.1,0.4,0.2,0.7,0.5,0.8c0.5,0.2,0.9,0.3,1.4,0.5
		c1.2,0.5,1.3,1.4,0.4,2.3c-0.1,0.1-0.2,0.2-0.1,0.3C167.9,95.7,167.1,95.7,166.2,95.7z"/>
	<path class="st0" d="M108.8,95.7c0-1.5,0-3,0-4.5c0-0.5,0.2-0.7,0.7-0.7c0.9,0,1.7,0,2.6,0c0.3,0,0.5,0.1,0.5,0.4
		c0,0.3-0.3,0.3-0.5,0.4c-0.6,0-1.3,0-1.9,0c-0.4,0-0.6,0.2-0.6,0.6c0,1,0,1,1,1c0.4,0,0.7,0,1.1,0c0.3,0,0.5,0,0.5,0.4
		c0,0.4-0.3,0.4-0.6,0.4c-0.5,0-1,0-1.5-0.1c-0.5,0-0.7,0.2-0.7,0.7c0,0.5,0,1,0,1.5C109.3,95.7,109,95.7,108.8,95.7z"/>
	<path class="st0" d="M162.9,95.7c-0.1-1.5-0.2-3-0.1-4.5c0-0.3-0.1-0.6,0.3-0.6c0.5,0,0.4,0.4,0.4,0.7c0,1.4,0,2.7-0.1,4.1
		c0,0.1,0,0.2,0,0.3C163.4,95.7,163.2,95.7,162.9,95.7z"/>
	<path class="st0" d="M138.3,12.8c0.8,0.9,1.7,1.8,2.5,2.6c0.4,0.4,0.4,0.6,0,0.9c-0.8,0.8-1.5,1.6-2.3,2.3c-0.4,0.4-0.5,0.6,0,1.1
		c0.8,0.8,1.6,1.6,2.4,2.4c0.4,0.3,0.3,0.6,0,0.9c-0.9,0.8-1.7,1.7-2.6,2.6c0.2,0.1,0.4,0,0.6,0c1.3-0.3,2.7-0.6,4-1
		c0.3-0.1,0.5,0.1,0.7,0.3c0.9,0.9,1.7,1.7,2.6,2.6c0.1,0.1,0.4,0.3,0.3,0.5c-0.1,0.2-0.3,0.2-0.5,0.2c-2,0.4-3.9,0.8-5.9,1.2
		c-0.5,0.1-0.7,0.3-0.8,0.8c-0.4,2-0.8,4.1-1.2,6.1c0,0.1,0,0.3-0.2,0.4c-0.2,0.1-0.2-0.1-0.3-0.2c-0.9-0.9-1.8-1.8-2.8-2.7
		c-0.3-0.3-0.3-0.6-0.2-1c0.3-1.3,0.7-2.6,1-3.9c0-0.1,0.2-0.3,0-0.4c-0.2-0.1-0.3,0.1-0.4,0.2c-0.8,0.7-1.5,1.5-2.2,2.3
		c-0.4,0.4-0.6,0.4-1,0c-0.8-0.8-1.6-1.6-2.4-2.4c-0.3-0.3-0.6-0.3-0.9,0c-0.8,0.8-1.7,1.7-2.5,2.5c-0.3,0.3-0.5,0.3-0.7,0
		c-0.7-0.8-1.5-1.5-2.2-2.3c-0.1-0.1-0.3-0.4-0.5-0.2c-0.2,0.1,0,0.3,0,0.5c0.3,1.3,0.6,2.6,1,3.9c0.1,0.4,0.1,0.7-0.2,1
		c-0.9,0.9-1.8,1.8-2.7,2.7c-0.3,0.3-0.5,0.3-0.6-0.2c-0.4-2.1-0.9-4.2-1.3-6.3c-0.1-0.4-0.2-0.6-0.6-0.6c-2.1-0.4-4.2-0.8-6.3-1.3
		c-0.4-0.1-0.3-0.2-0.1-0.4c1-1,1.9-1.9,2.9-2.9c0.2-0.2,0.5-0.2,0.8-0.1c1.5,0.4,3,0.7,4.4,1.1c0.1-0.2-0.1-0.3-0.1-0.3
		c-0.8-0.8-1.6-1.6-2.4-2.4c-0.3-0.3-0.3-0.5,0-0.9c0.8-0.8,1.6-1.6,2.5-2.4c0.3-0.3,0.3-0.5,0-0.8c-0.9-0.9-1.7-1.7-2.6-2.6
		c-0.3-0.3-0.3-0.4,0-0.7c0.8-0.8,1.6-1.5,2.3-2.3c0.1-0.1,0.3-0.2,0.4-0.5c-1.1,0.3-2.2,0.5-3.3,0.8c-0.3,0.1-0.6,0.1-0.8,0.2
		c-0.7,0.3-1.2,0.1-1.7-0.5c-0.7-0.8-1.5-1.5-2.3-2.3c-0.1-0.1-0.3-0.2-0.2-0.4c0.1-0.2,0.3-0.2,0.4-0.2c2.1-0.4,4.1-0.9,6.2-1.3
		c0.4-0.1,0.5-0.3,0.6-0.7c0.4-2,0.8-4,1.3-6c0-0.2,0-0.4,0.2-0.5c0.2-0.1,0.3,0.2,0.5,0.3c0.9,0.8,1.7,1.7,2.6,2.5
		c0.3,0.3,0.4,0.6,0.3,0.9c-0.4,1.4-0.7,2.8-1,4.2c0,0.1-0.1,0.2,0,0.4c0.9-0.9,1.8-1.7,2.6-2.6c0.4-0.4,0.6-0.4,1,0
		c0.7,0.8,1.5,1.5,2.2,2.2c0.6,0.6,0.7,0.6,1.3,0c0.8-0.7,1.5-1.5,2.3-2.2c0.3-0.3,0.5-0.3,0.9,0c0.8,0.8,1.6,1.5,2.4,2.3
		c0.1,0.1,0.2,0.3,0.4,0.3c-0.3-1.4-0.6-2.8-1-4.2c-0.2-0.6-0.1-1,0.4-1.4c0.8-0.7,1.6-1.6,2.4-2.4c0.1-0.1,0.2-0.3,0.4-0.3
		c0.2,0.1,0.2,0.3,0.2,0.5c0.4,2.1,0.9,4.2,1.3,6.3c0.1,0.3,0.3,0.4,0.6,0.4c2,0.4,4,0.8,6,1.3c0.2,0,0.5,0,0.5,0.3
		c0.1,0.2-0.2,0.3-0.3,0.4c-0.8,0.8-1.7,1.7-2.5,2.5c-0.3,0.3-0.5,0.4-0.9,0.3c-1.5-0.4-2.9-0.7-4.4-1.1
		C138.4,12.7,138.4,12.7,138.3,12.8z M135.3,14.9c0-0.5,0-0.9,0-1.4c0-0.3-0.1-0.5-0.4-0.5c-0.8,0-1.6,0-2.4,0
		c-0.5,0-0.8-0.1-1.2-0.4c-0.6-0.6-1.1-1.1-1.7-1.7c-0.3-0.3-0.5-0.3-0.8,0c-0.6,0.6-1.2,1.2-1.8,1.8c-0.2,0.2-0.5,0.3-0.8,0.3
		c-0.9,0-1.7,0-2.6,0c-0.4,0-0.5,0.2-0.5,0.5c0,0.8,0,1.6,0,2.5c0,0.5-0.1,0.8-0.4,1.1c-0.5,0.5-1,1-1.5,1.5c-0.5,0.6-0.5,0.7,0,1.2
		c0.5,0.5,1,1,1.5,1.5c0.3,0.3,0.5,0.6,0.5,1.1c0,0.8,0,1.6,0,2.3c0,0.4,0.1,0.6,0.6,0.6c0.8,0,1.6,0,2.5,0c0.4,0,0.7,0.1,0.9,0.4
		c0.6,0.6,1.2,1.2,1.8,1.8c0.3,0.3,0.5,0.3,0.8,0c0.5-0.6,1.1-1.1,1.7-1.7c0.3-0.3,0.6-0.4,1-0.4c0.8,0,1.5,0,2.3,0
		c0.7,0,0.8-0.1,0.7-0.8c0-0.7,0-1.4-0.1-2.1c0-0.4,0.1-0.8,0.5-1.1c0.6-0.5,1.1-1.1,1.6-1.6c0.4-0.4,0.4-0.6,0-1
		c-0.6-0.5-1.1-1.1-1.7-1.7c-0.2-0.2-0.4-0.4-0.3-0.7C135.4,15.8,135.3,15.3,135.3,14.9z"/>
	<path class="st0" d="M106.6,67c-1.2,0-2.5,0-3.7,0c-0.4,0-0.7,0.1-0.8,0.5c-0.6,1.6-1.3,3.2-1.9,4.8c-0.2,0.4-0.1,0.7,0.4,0.6
		c0.5,0,1.1,0,1.6,0c0.6,0,0.6,0.4,0.6,0.8c0,0.4-0.1,0.7-0.6,0.6c-1.8,0-3.7,0-5.5,0c-0.3,0-0.6-0.1-0.5-0.5c0-0.4-0.2-0.9,0.5-0.9
		c0.1,0,0.1,0,0.2,0c0.9,0.2,1.3-0.3,1.6-1.1c2.7-6.7,5.4-13.5,8.1-20.2c0.2-0.4,0.4-0.6,0.8-0.6c0.6,0,0.9,0.3,1,0.8
		c1.1,2.9,2.2,5.8,3.3,8.7c1.6,4,3.1,8,4.7,12c0.2,0.4,0.4,0.6,0.8,0.6c0.2,0,0.4,0,0.6,0c0.7,0,1.1,0.5,0.7,1.2
		c-0.1,0.2-0.3,0.3-0.5,0.3c-2.3,0-4.6,0-6.9,0c-0.5,0-0.5-0.3-0.5-0.7c0-0.4,0-0.7,0.5-0.7c0.5,0,1.1,0,1.6,0
		c0.3,0,0.5-0.1,0.3-0.5c-0.7-1.7-1.3-3.5-2-5.2c-0.1-0.4-0.4-0.4-0.8-0.4C109.1,67,107.9,67,106.6,67C106.6,67,106.6,67,106.6,67z
		 M106.7,65.3c1,0,2,0,3,0c0.5,0,0.6-0.1,0.4-0.6c-1-2.6-2-5.3-3-7.9c-0.1-0.2,0-0.5-0.3-0.5c-0.2,0-0.2,0.3-0.3,0.4
		c-1.1,2.6-2.1,5.3-3.2,7.9c-0.2,0.4-0.1,0.6,0.4,0.6C104.6,65.3,105.7,65.3,106.7,65.3z"/>
	<path class="st0" d="M150,67c-1.3,0-2.5,0-3.8,0c-0.4,0-0.6,0.1-0.8,0.5c-0.7,1.6-1.3,3.3-2,4.9c-0.2,0.4-0.1,0.6,0.4,0.6
		c0.5,0,1.1,0,1.6,0c0.6,0,0.6,0.4,0.6,0.8c0,0.4-0.1,0.7-0.6,0.7c-1.8,0-3.7,0-5.5,0c-0.4,0-0.6-0.1-0.6-0.5c0-0.4-0.1-1,0.6-0.9
		c1.2,0.2,1.5-0.5,1.9-1.4c2.6-6.6,5.3-13.2,8-19.8c0.2-0.4,0.3-0.8,0.9-0.7c0.6,0,0.8,0.2,1,0.8c2.6,6.8,5.3,13.6,7.9,20.5
		c0.2,0.5,0.4,0.8,1,0.7c0.2,0,0.3,0,0.5,0c0.7,0,1,0.5,0.8,1.2c-0.1,0.4-0.4,0.3-0.7,0.3c-1.8,0-3.7,0-5.5,0c-0.3,0-0.6,0-0.9,0
		c-0.7,0-0.8-0.1-0.8-0.9c0-0.4,0.2-0.5,0.6-0.5c0.5,0,1.1,0,1.6,0c0.4,0,0.5-0.1,0.4-0.5c-0.7-1.7-1.4-3.5-2-5.2
		c-0.1-0.4-0.4-0.4-0.7-0.4C152.6,67,151.3,67,150,67C150,67,150,67,150,67z M150.1,65.3C150.1,65.3,150.1,65.3,150.1,65.3
		c1,0,2,0,2.9,0c0.7,0,0.7,0,0.4-0.7c-1-2.6-2-5.2-3-7.8c-0.1-0.2,0-0.5-0.3-0.5c-0.2,0-0.2,0.3-0.3,0.5c-1.1,2.7-2.1,5.3-3.2,8
		c-0.2,0.5,0,0.5,0.4,0.5C148,65.2,149.1,65.3,150.1,65.3z"/>
	<path class="st0" d="M172,63.1c0-3.1,0-6.1,0-9.2c0-0.7,0-0.8-0.8-0.8c-0.4,0-0.7,0-1.1,0c-0.5,0-0.6-0.2-0.6-0.7
		c0-0.5,0.1-0.7,0.7-0.7c0.4,0,0.9,0,1.4,0c1.8,0,3.7,0,5.5,0c0.2,0,0.5-0.1,0.7,0.2c0.1,0.3,0.1,0.7,0,1c-0.1,0.2-0.3,0.2-0.5,0.2
		c-0.5,0-1,0-1.5,0c-0.4,0-0.5,0.2-0.5,0.6c0,1.3,0,2.5,0,3.8c0,4.8,0,9.7,0,14.5c0,0.5,0.1,0.8,0.7,0.8c2.7,0,5.5,0,8.2,0
		c0.5,0,0.7-0.2,0.7-0.7c0-0.6,0-1.1,0-1.7c0-0.4,0.1-0.6,0.6-0.6c1.2,0,1.2,0,1.2,1.1c0,0.9,0,1.8,0,2.8c0,0.6-0.2,0.8-0.8,0.8
		c-2.4,0-4.8,0-7.2,0c-2.8,0-5.6,0-8.4,0c-0.7,0-1-0.5-0.7-1.2c0.1-0.2,0.2-0.2,0.4-0.2c0.5,0,0.9,0,1.4,0c0.6,0.1,0.7-0.2,0.7-0.7
		c0-2.8,0-5.6,0-8.4C172,63.7,172,63.4,172,63.1C172,63.1,172,63.1,172,63.1z"/>
	<path class="st0" d="M130.7,64.3c0,3.4,0,6.8,0,10.2c0,0.5-0.1,0.9-0.3,1.3c-1.1,2.3-2.5,4.4-4.4,6.2c-0.3,0.3-0.5,0.3-0.8,0
		c-0.8-0.8-0.9-0.8-0.1-1.6c1.5-1.6,2.1-3.6,2.4-5.8c0.2-1.1,0.1-2.3,0.1-3.5c0-5.7,0-11.4,0-17.1c0-0.9,0-0.9-0.9-0.9
		c-0.4,0-0.7,0-1.1,0c-0.5,0-0.6-0.3-0.6-0.7c0-0.4,0.1-0.7,0.6-0.7c2.4,0,4.8,0,7.2,0c0.6,0,0.5,0.4,0.5,0.8c0,0.4-0.1,0.6-0.6,0.6
		c-0.4,0-0.9,0-1.4,0c-0.5,0-0.7,0.2-0.7,0.7c0,2.8,0,5.6,0,8.4C130.7,62.9,130.7,63.6,130.7,64.3z"/>
	<path class="st0" d="M86.1,51.8c1,0,2,0,3,0c0.5,0,0.6,0.3,0.6,0.7c0,0.4,0,0.8-0.6,0.7c-1.2-0.2-2,0.3-2.8,1.3
		c-1.9,2.4-4,4.8-6,7.2c-0.3,0.4-0.3,0.6,0,1c2.8,3.3,5.6,6.6,8.4,10c0.4,0.5,1,0.4,1.6,0.4c0.5,0,0.7,0.2,0.7,0.7
		c0,0.5-0.1,0.7-0.7,0.7c-1.1,0-2.3,0-3.4,0c-0.4,0-0.7-0.1-0.9-0.4c-3-3.6-6.1-7.1-9.1-10.7c-0.2-0.3-0.2-0.5,0-0.7
		c2.5-3,5.1-5.9,7.6-8.9c0.1-0.1,0.3-0.2,0.2-0.4c-0.1-0.2-0.3-0.1-0.5-0.1c-0.4,0-0.8,0-1.2,0c-0.5,0-0.6-0.2-0.6-0.6
		c0-0.4,0.1-0.7,0.6-0.7C84,51.8,85,51.8,86.1,51.8C86.1,51.8,86.1,51.8,86.1,51.8z"/>
</g>
</svg>
