<?xml version="1.0" encoding="UTF-8"?>
<svg id="Capa_1" xmlns="http://www.w3.org/2000/svg" version="1.1" viewBox="0 0 250 100">
  <!-- Generator: Adobe Illustrator 29.6.1, SVG Export Plug-In . SVG Version: 2.1.1 Build 9)  -->
  <defs>
    <style>
      .st0 {
        fill: #777;
      }
    </style>
  </defs>
  <path class="st0" d="M116.77,44.9c1.84-1.12,3.63-2.34,5.47-3.46.38-.23,1.52-1,1.86-1.07.59-.11.69.88.72,1.29.24,3.43-1.01,8.46-3.43,10.98-2.26,2.36-4.87,4.22-6.98,6.82-.21.26-1.04,1.29-1.12,1.53-.01.04-.02.08-.01.13,4.32-.06,8.54-1.76,11.32-5.1,2.12-2.54,3-5.8,4.26-8.81.41-.98.98-2.53,1.61-3.34.32-.41.71-.7,1.03-.09.73,2.86.61,8.53,5.16,6.06,1.61-.87,2.93-2.37,4.05-3.78-.52-1.93-1.08-3.89-1.02-5.92.11-3.77,1.17-5.45,5.1-5.55,2.68-.06,4.7.61,7.32-.57.26-.12,1.19-.7,1.36-.67.11.02.14.08.17.17.16.46.12,2.38.08,2.96-.04.7-.02.79-.6,1.14-.52.32-1.15.55-1.69.85-2.35,1.31-4.05,3.85-5.71,5.95-1.09,1.39-2.17,2.79-3.24,4.2-.05.08-.03.15-.02.24.03.25.34.96.44,1.26.5,1.46,1.3,3.03,1.73,4.46.07.22.26,1.11.07,1.23-.13.08-.24-.05-.29-.16-.86-2.05-1.8-4.07-2.52-6.18-.09-.02-.09.01-.14.06-.22.22-.44.54-.65.76-1.93,1.98-6.9,5.98-9.04,2.28-.47-.82-.86-1.94-1.08-2.87-.07-.31-.12-1.11-.26-1.32-.03-.05-.06-.11-.13-.09-.45.1-1.25,3.32-1.42,3.87-.81,2.55-2.06,6.54-4.24,8.2-3.27,2.49-8.12,2-11.91,1.21-.19.02-.54.87-.62,1.07-2.17,5.64,5.36,8.32,9.63,8.67,3.47.29,7.67.21,11.15-.06.76-.06,1.52-.2,2.28-.22.2.2-.57.57-.69.63-2.13.98-4.95,1.3-7.27,1.4-5.54.24-14.37-.38-16.88-6.33-1.92-4.54,1.33-9.82,4.35-13.08,1.82-1.97,4.04-3.57,5.83-5.55.64-.71,1.77-2.12,1.88-3.07,0-.07,0-.11-.08-.08-.26.1-.85.56-1.12.74-2.19,1.47-4.31,3.07-6.49,4.55-.3.03-.53-.8-.53-1.04-.02-2.62.61-5.9,1.75-8.27,2.65-5.48,7.53-5.83,12.01-9,3.67-2.6,5.96-6.53,4.97-11.14-.79-3.68-3.06-7.08-5.16-10.14-.1.02-.06.29-.06.37.22,3.14.55,6.27.79,9.41.04.42-.72-.03-.78-.18-.67-3.58-.92-7.22-1.2-10.86.08-1.24-.27-2.74-.17-3.94.03-.33.21-.66.29-.98.03-.02.13-.01.18,0,.13.05.7.61.83.75,4.63,4.76,7.03,13.4,6.82,19.94-.11,3.25-2.2,7.13-4.59,9.26-4.2,3.75-11.86,4.2-13.38,10.47ZM146.96,38.31c-1.85.39-4.99-.24-5.72,2.08-.34,1.08-.23,2.3-.07,3.4.02.15.22,1.33.3,1.33,1.82-2.28,3.33-4.83,5.49-6.81Z"/>
  <path class="st0" d="M124.94,92.49v-.17c.7.03.79-.32.84-.93.2-2.36-.15-4.99,0-7.38,0-.29-.16-.55-.45-.62-.2-.05-.5.02-.62-.19.32-.14.62,0,.93,0,2.09.04,4.57-.39,6.45.7,2.81,1.63,2.62,6.11.03,7.86-2.18,1.47-4.76.49-7.18.73ZM126.92,83.72c-.06.06-.06.21-.07.29.11,2.22-.13,4.56,0,6.76.05.85.12,1.13,1,1.3,1.93.39,4.23-.26,4.9-2.28.92-2.8-.52-5.68-3.52-6.14-.39-.06-2.08-.17-2.31.05Z"/>
  <path class="st0" d="M95.62,87.54c-.08.05-.08.11-.09.19-.1.88-.06,3.06.07,3.93.03.22.11.42.3.54l.81.2c-.07.1-.15.08-.25.09-.54.04-1.09-.07-1.64-.06-.37,0-.87.18-1.21-.03l.65-.25c.26-.45.17-.95.2-1.43.11-1.89.16-4.19.06-6.09-.01-.25-.05-.83-.17-1.01-.19-.28-.46-.22-.73-.28-.33-.07-.16-.18.08-.2.54-.04,1.32.07,1.92.06.28,0,.53-.13.81,0-.17.26-.44.09-.68.31-.12.11-.22.42-.22.57v2.93l.08.08h5.27v-3.24c0-.1-.19-.34-.29-.39-.26-.15-.6,0-.78-.26h3.04c-.09.21-.34.14-.51.19-.26.09-.35.39-.39.63.1,2.32-.15,4.79,0,7.09.06,1,.14,1.16,1.19,1.24,0,.13-.1.13-.19.14-.43.05-.89-.06-1.3-.06-.54,0-1.07.09-1.61.06v-.17c.4-.02.65-.02.76-.45.01-.05.08-.4.08-.43v-3.83l-.08-.08h-5.18Z"/>
  <path class="st0" d="M86.21,92.49c-.73-.07-1.18-.43-1.72-.87l-3.69-3.92c-.02.89-.07,1.79-.03,2.68.01.38.03,1.16.14,1.49.14.44.41.37.8.44.09.02.22-.04.19.09-.4.21-.96.03-1.38.03-.45,0-.93.1-1.36.06-.1,0-.19.01-.25-.09l.64-.26c.13-.19.17-.42.2-.65s.05-.56.06-.79c.09-1.88.12-4.45,0-6.31-.06-.92-.09-.9-.91-1.07-.06-.01-.22-.01-.17-.11.1-.2.64-.03.81-.03.61.02,1.23-.07,1.8-.06.05,0,.43.05.31.17-.38.06-.77.07-.84.54-.03.2-.05.57-.06.78-.05.92.02,1.87.03,2.79.57-.48,1.09-1.02,1.61-1.55.47-.48,1.57-1.51,1.88-2s-.25-.6-.19-.67c.22-.11.38,0,.59,0,.39,0,.79,0,1.19,0,.16,0,.58-.13.7,0,.14.15-.45.18-.51.19-.86.27-1.68,1.2-2.34,1.83s-1.37,1.35-1.99,2.05l2.25,2.37c1.15,1.02,2.18,2.56,3.83,2.7.09.04,0,.14-.03.14-.5,0-1.1.04-1.58,0Z"/>
  <path class="st0" d="M162.11,92.32c.02.15-.08.16-.19.17-.73.09-1.6-.06-2.34-.06.02-.19.25-.24.16-.46l-1.19-3.09s-.11-.05-.17-.05c-.48-.06-1.87-.05-2.37,0-.22.02-.24.03-.33.23-.18.38-.83,2.3-.87,2.68-.05.52.23.6.7.59.05,0,.04.07,0,.11-.15.16-.78,0-1.01,0-.51,0-1.02.1-1.53.06-.1,0-.18.02-.25-.09,0-.09.56-.13.67-.17.36-.13.57-.47.72-.8,1.14-2.42,1.86-5.4,2.9-7.92.08-.19.13-.41.3-.55l.2.25c.92,2.29,1.72,4.63,2.66,6.92.38.93.71,2.25,1.96,2.18ZM155.92,88.38h2.42l-1.27-3.49-1.16,3.49Z"/>
  <path class="st0" d="M118.63,92.32c.02.15-.08.16-.19.17-.73.09-1.6-.06-2.34-.06-.03-.13.13-.16.16-.27.08-.29-1.08-2.79-1.2-3.28-.04-.06-.11-.05-.17-.06-.27-.03-2.51-.04-2.62.03-.05.03-.06.09-.08.14-.17.32-.85,2.4-.87,2.73-.04.51.21.6.68.59v.17c-.47.02-.92-.06-1.38-.06-.42,0-.98.19-1.38-.03l.86-.26.26-.25c1.25-2.65,2-5.55,3.11-8.26.09-.23.16-.49.35-.66l.21.3c1.07,2.49,1.84,5.23,2.97,7.68.35.77.66,1.42,1.64,1.37ZM112.43,88.38h2.42l-1.21-3.49-.14.14-1.07,3.35Z"/>
  <path class="st0" d="M144.48,83.2c-.11.23-.39.14-.58.18-.27.06-.43.38-.43.64.11,2.19-.15,4.53,0,6.7.01.22.1.86.23,1.01.31.39,2.04.37,2.49.24.64-.18.69-.69.92-1.22.1.07.08.15.09.25.02.24-.13,1.26-.28,1.41-.09.1-.55.11-.72.12-.87.02-1.77-.04-2.64-.09-.54-.11-1.49.18-1.97.05-.37-.1.43-.23.47-.25.14-.07.24-.31.27-.46-.03-2.44.28-5.23.07-7.65-.03-.35-.11-.66-.49-.75-.19-.04-.47.05-.58-.18h3.15Z"/>
  <path class="st0" d="M171.24,83.2c.14.15-.45.17-.51.19-.33.12-.37.59-.39.9-.18,2.36.14,4.94,0,7.32-.09,1.56-.54,2.38-1.75,3.32-.14.11-.94.71-1.07.6.08-.28.45-.42.65-.62,1.04-1.02,1.03-2.23,1.1-3.58.11-2.12.17-4.65.06-6.76-.01-.2-.05-.75-.12-.89-.17-.33-.49-.28-.78-.35-.33-.07-.16-.18.08-.2.54-.04,1.32.07,1.92.06.18,0,.69-.13.81,0Z"/>
  <path class="st0" d="M128.32,66.64c-.49.4-1.04.73-1.49,1.18-.41.41-.73.9-1.1,1.35-.55-1.08-1.54-1.81-2.48-2.53,1.03-.55,1.85-1.48,2.51-2.42.69.94,1.49,1.9,2.56,2.42Z"/>
  <path class="st0" d="M146.12,28.28c-1.08.53-1.87,1.48-2.59,2.42-.57-1-1.46-1.88-2.48-2.42-.03-.05.78-.6.87-.68.64-.53,1.18-1.15,1.63-1.86.43.61.9,1.2,1.46,1.69.35.31.77.53,1.1.84Z"/>
  <path class="st0" d="M147.92,14.09h1.01l-.11.34h-.9v1.83c0,.22.43.36.64.3.12-.04.17-.23.32-.21-.14.54-.89.75-1.31.4-.03-.02-.16-.19-.16-.2v-2.11l-.39-.03c.27-.17.66-.37.76-.7.4-1.34-1.88-1.51-1.66.02.07.47.39.3.48.42l.08.73c-.15.03-.1-.05-.14-.11-.27-.4-.37-.88-.99-.59-.25.12-.33.34-.28.62.1.52,1.44.23,1.57,1.02.2,1.17-1.15,1.27-1.94.93l-.03-.79.36.62c.42.53,1.25.22,1.15-.48-.09-.61-1.17-.25-1.45-.92-.32-.79.45-1.27,1.17-1.14-.69-1.96,2.38-2.01,1.8.06Z"/>
  <path class="st0" d="M157.47,16.68c-.4-.08-.81-.59-.87-.99-.3-2.15,2.95-2.34,2.7.17-.12,1.19-1.48,2.31-2.59,2.56-.02-.12.06-.13.13-.18.18-.12.38-.18.57-.33.37-.29.78-.79.93-1.24-.26-.04-.63.05-.87,0ZM158.43,14.34c-.21-.21-.58-.24-.86-.14-.84.33-.52,2.55.62,2.37.69-.11.68-1.78.24-2.23Z"/>
  <path class="st0" d="M154.43,16.68c-.4-.08-.81-.59-.87-.99-.3-2.15,2.95-2.33,2.7.17-.12,1.18-1.48,2.31-2.59,2.56-.02-.12.06-.13.13-.18.18-.12.38-.18.57-.33.37-.29.78-.79.93-1.24-.26-.04-.63.05-.87,0ZM154.66,14.16c-1.03.19-.69,2.68.54,2.4.69-.16.84-2.65-.54-2.4Z"/>
  <path class="st0" d="M144.65,14.99h-1.92c-.21.92.72,1.96,1.61,1.35.13-.09.19-.25.31-.34-.05.52-.59.9-1.1.91-1.17,0-1.68-1.44-1.09-2.33s2.07-.72,2.19.41ZM143.34,14.16c-.28.07-.48.46-.6.69,0,.15,1.18.05,1.24,0,.23-.16-.07-.83-.64-.7Z"/>
  <path class="st0" d="M162.17,14.09l-1.66,4.22c-.06.07-.47.12-.42-.03l1.8-3.69h-1.83c-.25,0-.37.38-.53.51l.34-1.01h2.31Z"/>
  <path class="st0" d="M153.16,14.09c-.06.12-.3.06-.4.19-.16.21.01,1.93-.05,2.31.03.24.36.12.45.31h-1.41c.23-.21.42-.07.45-.48.06-.64-.05-1.38,0-2.03,0-.06-.03-.1-.08-.15-.11-.1-.32-.05-.37-.17h1.41Z"/>
  <path class="st0" d="M149.48,16.19c.48-.07.56.65.15.72-.51.09-.57-.66-.15-.72Z"/>
</svg>