<?xml version="1.0" encoding="utf-8"?>
<!-- Generator: $$$/GeneralStr/196=Adobe Illustrator 27.6.0, SVG Export Plug-In . SVG Version: 6.00 Build 0)  -->
<svg version="1.1" id="Capa_1" xmlns="http://www.w3.org/2000/svg" xmlns:xlink="http://www.w3.org/1999/xlink" x="0px" y="0px"
	 viewBox="0 0 250 100" style="enable-background:new 0 0 250 100;" xml:space="preserve">
<style type="text/css">
	.st0{fill:#777777;}
</style>
<g>
	<path class="st0" d="M99.8,58.6c4.4,0,8.4-3,8.4-8.1c0-5.1-3.9-8.1-8.4-8.1c-4.4,0-8.4,3-8.4,8.1C91.4,55.6,95.4,58.6,99.8,58.6
		 M71.2,58.3h3.2L67,42.8h-3.1L57,58.3h2.9l1.5-3.5h8.2L71.2,58.3z M151.5,42.8h-11.8v15.5h12v-2.5h-9.2v-4h7.9v-2.5h-7.9v-4h9V42.8
		z M110.3,56.8c0.6,0.5,2.5,1.8,5.8,1.8c3.3,0,6.1-1.8,6.1-4.6c0-5.9-8.5-4-8.5-7.2c0-0.9,0.7-1.7,2.7-1.7c2.4,0,3.9,1.1,4.5,1.5
		l1.1-2.3c-0.7-0.7-2.9-1.8-5.6-1.8c-4.1,0-5.8,2.3-5.8,4.6c0,5.4,8.5,3.8,8.5,7c0,1.3-1.3,1.9-2.9,1.9c-2.3,0-4.2-1-5-1.6
		L110.3,56.8z M83.3,45.2c2.3,0,3.6,1.3,4.4,1.9l1.9-1.9c-0.6-0.7-2.5-2.8-6.3-2.8c-4.4,0-8.4,3-8.4,8.1c0,5.1,3.9,8.1,8.3,8.1
		c3.4,0,5.7-1.8,6.5-2.5l-1.5-2.2c-1.2,1-3.1,1.9-4.9,1.9c-3.1,0-5.4-2.3-5.4-5.3C77.9,47.6,80.2,45.2,83.3,45.2 M99.8,55.9
		c-3.1,0-5.4-2.3-5.4-5.3c0-3,2.3-5.3,5.4-5.3c3.1,0,5.4,2.3,5.4,5.3C105.2,53.5,102.9,55.9,99.8,55.9 M129.2,45.3v13h2.8v-13h5.4
		v-2.5h-13.5v2.5H129.2z M46.8,42.8h-2.8v15.5h11v-2.5h-8.2V42.8z M65.3,45.5l3.1,6.9h-6.1L65.3,45.5z"/>
	<path class="st0" d="M205.6,55c-0.3-0.2-0.6-0.2-0.9-0.3c-0.4-0.1-0.6-0.6-0.7-0.7c-0.3-0.1-0.6,0.4-0.8,0.3
		c-0.2-0.1-0.3-0.7-0.4-0.7c-0.3-0.1-0.6,0.4-0.8,0.3c-0.2-0.1-0.3-0.7-0.4-0.7c-0.3-0.1-0.6,0.4-0.8,0.3c-0.2-0.1-0.2-0.7-0.4-0.8
		c-0.3-0.1-0.6,0.4-0.9,0.3c-0.2,0-0.6-0.1-1.1-0.5c-0.2-0.1-0.5-0.4-0.5-0.4c-0.1,0-0.2-0.1-0.2,0.2c0.1,0.6,1.2,1.1,2.5,1.5
		c1.3,0.4,2.6,0.7,3.4,1.1c0.5,0.2,0.7,0.5,0.5,0.7c-0.1,0.2-0.5,0.2-0.8,0c-0.4-0.2-0.4-0.5-0.7-0.5c-0.3-0.1-0.7,0.5-0.9,0.4
		c-0.3-0.1-0.3-0.7-0.6-0.8c-0.4-0.1-0.7,0.5-1,0.4c-0.2,0-0.3-0.7-0.5-0.8c-0.4-0.1-0.8,0.5-1,0.4c-0.2,0-0.4-0.7-0.6-0.8
		c-0.4-0.1-0.9,0.4-1.4,0.1c-1.7-1.1-1.3-1.7-2.6-2.1c-0.7-0.2-1.5,0-1.9,0.1c-1.1,0.1-1.1-0.8-1.1-0.8c0.3,0.1,0.8,0.3,1.6,0
		c0.9-0.3,1.4-0.4,2.6,0c1,0.3,1.6,0,1.9-0.1c0.2,0,0.3-0.1,0.6,0.1c0.3,0.2,0.6,0.4,0.8,0.4c0.2-0.1,0.2-0.8,0.6-0.9
		c0.2-0.1,0.7,0.5,0.9,0.4c0.2-0.1,0.2-0.8,0.6-0.9c0.2-0.1,0.7,0.5,0.9,0.4c0.2-0.1,0.2-0.8,0.6-0.9c0.2-0.1,0.7,0.5,0.9,0.4
		c0.2-0.1,0.2-0.8,0.6-0.9c0.2-0.1,0.7,0.5,1,0.4v0c0.2-0.1,0.2-0.3,0.4-0.7c0-0.1,0.1-0.2,0.2-0.3c0.3-0.2,0.6-0.7,0.4-1.2
		c-0.2-0.5-0.6-0.4-1.6-0.2c-0.8,0.2-5.7,1.2-5.7,1.2c-0.8-1.4-1.3-0.5-2.4-0.6c-0.7-0.1-1.9-0.8-3.7,0.9c-1-0.3-1.9,0-2.5,0.3
		c-1.1-0.5-3.2-1.5-7.2-1.5c-1.1,0-3.8,0.2-8.1,1.4c-1.1,0.3-2.1,0.2-2.4-0.4c-0.3-0.7,0.6-1.4,2.3-2.2c4.1-2,6.9-1.5,12.4-4.4
		c3-1.6,3.2-3.4,3.2-3.9c0-0.3-0.3-0.4-0.5-0.2c-1,1.4-1.3,1.3-1.6,1c-0.4-0.4-0.7,0.2-1.1,0.6c-0.3,0.3-0.4-0.1-0.7-0.2
		c-0.5-0.3-0.9,0.6-1.3,0.8c-0.5,0.2-0.6,0-0.7-0.2c-0.1-0.1-0.3-0.1-0.5,0c-0.9,0.9-1.1,0.8-1.4,0.5c-0.2-0.2-0.3-0.4-0.9,0.2
		c-0.4,0.4-0.9,0.8-1.1,0.3c-0.2-0.4-0.3-0.7-1.2,0.1c-0.5,0.5-0.9,0.5-1,0.3c-0.2-0.2-0.1-0.8-0.9-0.2c-0.7,0.6-1.1,0.9-1.3,0.4
		c-0.2-0.5-0.8-0.1-1.2,0.3c-0.2,0.2-0.6,0.7-0.9,0.2c-0.3-0.5-0.7,0-1.3,0.6c-0.3,0.3-0.6,0.2-0.9,0c-0.4-0.3-0.8,0.7-1.3,1.3
		c-0.1,0.1-0.2,0.2-0.6-0.1c-0.4-0.3-1.1,1.2-1.3,1.6c-0.3,0.6-0.7-0.2-1,0.4c-0.8,1.2-1.8,2.6-2,5.1c-0.3,2.9,0.8,5.3,1.9,6.2
		c0,0-0.1,0.3-0.3,0.7c-0.3,0.8-0.4,1.9,0,2.6c0.4,0.7,1.3,1.9,1.6,0.8c0.2-0.6,0.3-0.5,0.8-0.1c0.8,0.6,0.6-0.5,0.8-0.8
		c0.1-0.2,0.3-0.3,0.9,0.1c0.4,0.2,0.5-0.1,0.6-0.6c0.4-1.5-0.3-1.8-1-1.9c-0.5-0.1-1,0-1,0c1.1-1.7,1.2-2.6,0-3.4
		c0.2-0.1,0.3,0,0.5,0c0.3,0.1,0.6,0.4,0.7,0.6c0.2,0.3,0.4,1-0.1,2.1c0.2,0,1.1,0.1,1.5,1c0.5,0.2,4,0.4,5.5,0.2
		c0.5-0.1,0.8-0.6,1.3-1.1c0.6-0.6,1.3-1.2,1.9-0.7c-1,0.4-1.8,1.2-1.8,2.3c0,0.8,0.3,1.1,0.9,1.5c0.5,0.4,0.7,1.1,0.8,1.6
		c0.2,0.7,0.7,0.7,0.8,0.1c0.1-0.9,0.4-0.7,0.7-0.3c0.4,0.4,0.7,0.4,0.7-0.3c0-0.6,0.2-0.9,0.9-0.2c0.3,0.3,0.6,0.3,0.6-0.3
		c0-0.8,0.3-0.7,0.8-0.4c0.1,0.1,0.2,0.2,0.3,0.2c0.3,0,0.6-0.7,0.3-1.2c-0.1-0.3-0.3-0.6-2-1c-0.6-0.1-0.5-0.5-0.5-0.5
		c4.2,0.2,7.8-0.3,10.2-1.8c2.9,0.7,7.1,0.8,8.5,0.8c1.4,0,2.5-0.1,3.3-0.5C206.1,56,206,55.3,205.6,55 M196.8,48.4
		c0.1-0.2,0.3-0.4,0.4-0.4c0.3,0,0.5,0.4,0.5,0.5l-0.8,0.2C196.7,48.8,196.7,48.6,196.8,48.4 M194.8,48.4c0.5,0,0.9,0.4,0.9,0.6
		c0,0-0.8,0.2-1.2,0.3c-0.2,0-0.4-0.1-0.4-0.2C194.2,48.8,194.4,48.4,194.8,48.4 M172.4,43.4c0.4-0.2,0.8-0.3,1.2-0.4
		c0.1,0,0.1,0,0.1,0.1c-0.1,0.3-0.1,0.5-0.2,0.8c0,0.1-0.1,0.1-0.1,0.1c-0.3-0.1-0.6-0.3-1-0.5C172.3,43.5,172.3,43.5,172.4,43.4
		 M170.6,44.3c0.4-0.2,0.8-0.3,1.2-0.4c0.1,0,0.1,0,0.1,0.1c-0.1,0.3-0.1,0.5-0.2,0.8c0,0.1-0.1,0.1-0.1,0.1c-0.3-0.1-0.6-0.3-1-0.5
		C170.5,44.3,170.5,44.3,170.6,44.3 M171.4,46.1c0.1,0,0.1,0,0.1,0.1c-0.1,0.3-0.1,0.5-0.2,0.8c0,0.1-0.1,0.1-0.1,0.1
		c-0.3-0.1-0.6-0.3-1-0.5c-0.1,0-0.1-0.1,0-0.1C170.6,46.3,171,46.2,171.4,46.1 M170.6,47.6c-0.1,0.3-0.1,0.5-0.2,0.8
		c0,0.1-0.1,0.1-0.1,0.1c-0.3-0.1-0.6-0.3-1-0.5c-0.1,0-0.1-0.1,0-0.1c0.4-0.2,0.8-0.3,1.2-0.4C170.6,47.5,170.6,47.6,170.6,47.6
		 M169,45.3c0.4-0.2,0.8-0.3,1.2-0.4c0.1,0,0.1,0,0.1,0.1c-0.1,0.3-0.1,0.5-0.2,0.8c0,0.1-0.1,0.1-0.1,0.1c-0.3-0.1-0.6-0.3-1-0.5
		C168.9,45.4,168.9,45.4,169,45.3 M167.8,46.7c0.4-0.2,0.8-0.3,1.2-0.4c0.1,0,0.1,0,0.1,0.1c-0.1,0.3-0.1,0.5-0.2,0.8
		c0,0.1-0.1,0.1-0.1,0.1c-0.3-0.1-0.6-0.3-1-0.5C167.7,46.8,167.7,46.8,167.8,46.7 M167.3,48.3c0.4-0.2,0.8-0.3,1.2-0.4
		c0.1,0,0.1,0,0.1,0.1c-0.1,0.3-0.1,0.5-0.2,0.8c0,0.1-0.1,0.1-0.1,0.1c-0.3-0.1-0.6-0.3-1-0.5C167.3,48.4,167.3,48.4,167.3,48.3
		 M167.6,50.1c-0.1,0-0.1-0.1,0-0.1c0.4-0.2,0.8-0.3,1.2-0.4c0.1,0,0.1,0,0.1,0.1c-0.1,0.3-0.1,0.5-0.2,0.8c0,0.1-0.1,0.1-0.1,0.1
		C168.2,50.4,167.9,50.2,167.6,50.1 M169.6,52c0,0.1-0.1,0.1-0.1,0.1c-0.3-0.1-0.6-0.3-1-0.5c-0.1,0-0.1-0.1,0-0.1
		c0.4-0.2,0.8-0.3,1.2-0.4c0.1,0,0.1,0,0.1,0.1C169.8,51.5,169.7,51.8,169.6,52 M169.5,49.6c-0.1,0-0.1-0.1,0-0.1
		c0.4-0.2,0.8-0.3,1.2-0.4c0.1,0,0.1,0,0.1,0.1c-0.1,0.3-0.1,0.5-0.2,0.8c0,0.1-0.1,0.1-0.1,0.1C170.2,50,169.9,49.8,169.5,49.6
		 M171.4,52.9c0,0.1-0.1,0.1-0.1,0.1c-0.3-0.1-0.6-0.3-1-0.5c-0.1,0-0.1-0.1,0-0.1c0.4-0.2,0.8-0.3,1.2-0.4c0.1,0,0.1,0,0.1,0.1
		C171.5,52.4,171.4,52.7,171.4,52.9 M171.8,51.2c0,0.1-0.1,0.1-0.1,0.1c-0.3-0.1-0.6-0.3-1-0.5c-0.1,0-0.1-0.1,0-0.1
		c0.4-0.2,0.8-0.3,1.2-0.4c0.1,0,0.1,0,0.1,0.1C171.9,50.7,171.8,51,171.8,51.2 M173.5,52.1c-0.1,0.3-0.1,0.5-0.2,0.8
		c0,0.1-0.1,0.1-0.1,0.1c-0.3-0.1-0.6-0.3-1-0.5c-0.1,0-0.1-0.1,0-0.1c0.4-0.2,0.8-0.3,1.2-0.4C173.5,52,173.5,52,173.5,52.1
		 M173.6,51.2c-0.3-0.1-0.6-0.3-1-0.5c-0.1,0-0.1-0.1,0-0.1c0.4-0.2,0.8-0.3,1.2-0.4c0.1,0,0.1,0,0.1,0.1c-0.1,0.3-0.1,0.5-0.2,0.8
		C173.7,51.2,173.6,51.2,173.6,51.2 M175.1,53.3c-0.1,0.3-0.1,0.5-0.2,0.8c0,0.1-0.1,0.1-0.1,0.1c-0.3-0.1-0.6-0.3-1-0.5
		c-0.1,0-0.1-0.1,0-0.1c0.4-0.2,0.8-0.3,1.2-0.4C175,53.2,175.1,53.3,175.1,53.3 M175.5,51.6c-0.1,0.3-0.1,0.5-0.2,0.8
		c0,0.1-0.1,0.1-0.1,0.1c-0.3-0.1-0.6-0.3-1-0.5c-0.1,0-0.1-0.1,0-0.1c0.4-0.2,0.8-0.3,1.2-0.4C175.4,51.5,175.5,51.5,175.5,51.6
		 M175.7,50.5c0,0.1-0.1,0.1-0.1,0.1c-0.3-0.1-0.6-0.3-1-0.5c-0.1,0-0.1-0.1,0-0.1c0.4-0.2,0.8-0.3,1.2-0.4c0.1,0,0.1,0,0.1,0.1
		C175.8,50,175.8,50.3,175.7,50.5 M176.9,53.6c0,0.1-0.1,0.1-0.1,0.1c-0.3-0.1-0.6-0.3-1-0.5c-0.1,0-0.1-0.1,0-0.1
		c0.4-0.2,0.8-0.3,1.2-0.4c0.1,0,0.1,0,0.1,0.1C177,53,177,53.3,176.9,53.6 M177.3,51.9c0,0.1-0.1,0.1-0.1,0.1
		c-0.3-0.1-0.6-0.3-1-0.5c-0.1,0-0.1-0.1,0-0.1c0.4-0.2,0.8-0.3,1.2-0.4c0.1,0,0.1,0,0.1,0.1C177.4,51.3,177.3,51.6,177.3,51.9
		 M177.5,50.1c-0.3-0.1-0.6-0.3-1-0.5c-0.1,0-0.1-0.1,0-0.1c0.4-0.2,0.8-0.3,1.2-0.4c0.1,0,0.1,0,0.1,0.1c-0.1,0.3-0.1,0.5-0.2,0.8
		C177.7,50.2,177.6,50.2,177.5,50.1 M179.1,52.3c-0.1,0.3-0.1,0.5-0.2,0.8c0,0.1-0.1,0.1-0.1,0.1c-0.3-0.1-0.6-0.3-1-0.5
		c-0.1,0-0.1-0.1,0-0.1c0.4-0.2,0.8-0.3,1.2-0.4C179.1,52.2,179.2,52.3,179.1,52.3 M179.5,50.6c-0.1,0.3-0.1,0.5-0.2,0.8
		c0,0.1-0.1,0.1-0.1,0.1c-0.3-0.1-0.6-0.3-1-0.5c-0.1,0-0.1-0.1,0-0.1c0.4-0.2,0.8-0.3,1.2-0.4C179.5,50.5,179.5,50.6,179.5,50.6
		 M179.6,49.8c-0.3-0.1-0.6-0.3-1-0.5c-0.1,0-0.1-0.1,0-0.1c0.4-0.2,0.8-0.3,1.2-0.4c0.1,0,0.1,0,0.1,0.1c-0.1,0.3-0.1,0.5-0.2,0.8
		C179.7,49.8,179.6,49.8,179.6,49.8 M181.1,52.1c-0.1,0.3-0.1,0.5-0.2,0.8c0,0.1-0.1,0.1-0.1,0.1c-0.3-0.1-0.6-0.3-1-0.5
		c-0.1,0-0.1-0.1,0-0.1c0.4-0.2,0.8-0.3,1.2-0.4C181.1,52,181.1,52.1,181.1,52.1 M181.5,50.4c-0.1,0.3-0.1,0.5-0.2,0.8
		c0,0.1-0.1,0.1-0.1,0.1c-0.3-0.1-0.6-0.3-1-0.5c-0.1,0-0.1-0.1,0-0.1c0.4-0.2,0.8-0.3,1.2-0.4C181.5,50.3,181.5,50.4,181.5,50.4
		 M181.7,49.6c0,0.1-0.1,0.1-0.1,0.1c-0.3-0.1-0.6-0.3-1-0.5c-0.1,0-0.1-0.1,0-0.1c0.4-0.2,0.8-0.3,1.2-0.4c0.1,0,0.1,0,0.1,0.1
		C181.8,49,181.7,49.3,181.7,49.6 M183.1,52.2c-0.1,0.3-0.1,0.5-0.2,0.8c0,0.1-0.1,0.1-0.1,0.1c-0.3-0.1-0.6-0.3-1-0.5
		c-0.1,0-0.1-0.1,0-0.1c0.4-0.2,0.8-0.3,1.2-0.4C183,52.1,183.1,52.1,183.1,52.2 M183.5,50.5c-0.1,0.3-0.1,0.5-0.2,0.8
		c0,0.1-0.1,0.1-0.1,0.1c-0.3-0.1-0.6-0.3-1-0.5c-0.1,0-0.1-0.1,0-0.1c0.4-0.2,0.8-0.3,1.2-0.4C183.4,50.4,183.5,50.4,183.5,50.5
		 M183.8,48.8c-0.1,0.3-0.1,0.5-0.2,0.8c0,0.1-0.1,0.1-0.1,0.1c-0.3-0.1-0.6-0.3-1-0.5c-0.1,0-0.1-0.1,0-0.1
		c0.4-0.2,0.8-0.3,1.2-0.4C183.8,48.7,183.9,48.7,183.8,48.8 M185.2,51.7c0,0.1-0.1,0.1-0.1,0.1c-0.3-0.1-0.6-0.3-1-0.5
		c-0.1,0-0.1-0.1,0-0.1c0.4-0.2,0.8-0.3,1.2-0.4c0.1,0,0.1,0,0.1,0.1C185.3,51.1,185.2,51.4,185.2,51.7 M185.7,49.1
		c-0.1,0.3-0.1,0.5-0.2,0.8c0,0.1-0.1,0.1-0.1,0.1c-0.3-0.1-0.6-0.3-1-0.5c-0.1,0-0.1-0.1,0-0.1c0.4-0.2,0.8-0.3,1.2-0.4
		C185.7,49,185.8,49.1,185.7,49.1 M187.6,49.8c-0.1,0.3-0.1,0.5-0.2,0.8c0,0.1-0.1,0.1-0.1,0.1c-0.3-0.1-0.6-0.3-1-0.5
		c-0.1,0-0.1-0.1,0-0.1c0.4-0.2,0.8-0.3,1.2-0.4C187.5,49.6,187.6,49.7,187.6,49.8"/>
	<path class="st0" d="M195.1,51.4c-1.2-0.4-1.7-0.3-2.6,0c-0.8,0.3-1.3,0.1-1.6,0c0,0,0,1,1.1,0.9c0.5,0,1.3-0.3,1.9-0.1
		c1.3,0.4,0.9,1,2.6,2.1c0.5,0.3,1-0.3,1.4-0.1c0.2,0.1,0.3,0.8,0.6,0.8c0.2,0,0.6-0.5,1-0.4c0.2,0.1,0.3,0.7,0.5,0.8
		c0.2,0,0.6-0.5,1-0.4c0.3,0.1,0.3,0.7,0.6,0.8c0.2,0.1,0.6-0.5,0.9-0.4c0.2,0.1,0.3,0.4,0.7,0.5c0.4,0.2,0.7,0.2,0.8,0
		c0.2-0.3,0-0.5-0.5-0.7c-0.8-0.4-2.1-0.7-3.4-1.1c-1.3-0.4-2.4-0.8-2.5-1.5c0-0.3,0.1-0.2,0.2-0.2c-0.5-0.4-0.6-0.7-0.6-0.9v0v0
		l0,0c0,0-0.1,0-0.1,0C196.7,51.4,196.1,51.7,195.1,51.4"/>
</g>
</svg>
