<?xml version="1.0" encoding="utf-8"?>
<!-- Generator: $$$/GeneralStr/196=Adobe Illustrator 27.6.0, SVG Export Plug-In . SVG Version: 6.00 Build 0)  -->
<svg version="1.1" id="Capa_1" xmlns="http://www.w3.org/2000/svg" xmlns:xlink="http://www.w3.org/1999/xlink" x="0px" y="0px"
	 viewBox="0 0 250 100" style="enable-background:new 0 0 250 100;" xml:space="preserve">
<style type="text/css">
	.st0{fill:#777777;}
</style>
<g>
	<path class="st0" d="M38.3,62.9h14.6l-1.1,2.3H36V31.7h2.3V62.9z M95.8,62.9V31.7h-2.3v33.5h19.9v-2.3H95.8 M65.5,48.4h14.2
		l-7.1-13.5L65.5,48.4z M80.9,50.6H64.4l-7.7,14.7h-2.6L72.6,30l18.5,35.3h-2.6L80.9,50.6z M166.7,58.6c-0.3-0.9-0.5-1.8-0.5-2.7
		V31.7h-2.3v24c0.1,1.3,0.3,2.6,0.8,3.8c1.2,2.6,4.1,6.5,10.9,6.5c6.7,0,9.7-3.9,10.9-6.5c0.5-1.2,0.7-2.5,0.8-3.8v-24H185v24.2
		c0,0.9-0.2,1.9-0.5,2.7c-0.8,1.9-3.8,5.2-8.9,5.2C170.2,63.9,167.6,60.9,166.7,58.6 M194.7,62.9V48.1h15.9v-2.3h-15.9V34h18.4v-2.3
		h-20.7v33.5H214v-2.3H194.7 M141.8,33.1c3,0,5.9,0.9,8.4,2.6c2.5,1.7,4.4,4.1,5.6,6.9c1.2,2.8,1.5,5.9,0.9,8.8
		c-0.6,3-2,5.7-4.1,7.8c-2.1,2.1-4.8,3.6-7.7,4.2c-2.9,0.6-6,0.3-8.7-0.9c-2.8-1.2-5.1-3.1-6.8-5.6c-1.7-2.5-2.6-5.5-2.6-8.5v0
		c0-4.1,1.6-7.9,4.4-10.8C133.9,34.7,137.8,33.1,141.8,33.1 M141.8,30.8c-4.6,0-9,1.9-12.3,5.2c-3.3,3.3-5.1,7.8-5.1,12.4
		c0,4.7,1.8,9.1,5.1,12.4c3.3,3.3,7.7,5.2,12.3,5.2c4.6,0,9-1.9,12.3-5.2c3.3-3.3,5.1-7.8,5.1-12.4c0-4.7-1.8-9.1-5.1-12.4
		C150.8,32.6,146.4,30.8,141.8,30.8L141.8,30.8z M119.8,31.7h-2.3v33.5h2.3L119.8,31.7z M158.6,70v-2.3h-21.1V70H158.6z"/>
</g>
</svg>
