<?xml version="1.0" encoding="utf-8"?>
<!-- Generator: $$$/GeneralStr/196=Adobe Illustrator 27.6.0, SVG Export Plug-In . SVG Version: 6.00 Build 0)  -->
<svg version="1.1" id="Capa_1" xmlns="http://www.w3.org/2000/svg" xmlns:xlink="http://www.w3.org/1999/xlink" x="0px" y="0px"
	 viewBox="0 0 250 100" style="enable-background:new 0 0 250 100;" xml:space="preserve">
<style type="text/css">
	.st0{fill:#777777;}
</style>
<g>
	<path class="st0" d="M99,78.6h1.6v-3.1h3c1.4,0,3.7,0,3.7-2.5c0-2.5-2.3-2.5-3.7-2.5H99L99,78.6z M100.6,74v-2.2h3.3
		c0.9,0,1.7,0.1,1.7,1.1s-0.8,1.1-1.7,1.1H100.6z M109.2,78.6h1.7l0.9-1.8h4.7l0.9,1.8h1.7l-4-8.1h-1.8L109.2,78.6z M112.4,75.4
		l1.7-3.7l1.7,3.7H112.4z M123.1,78.6h1.6v-3.2h2.6l2.4,3.2h2l-2.5-3.3c0.6,0,1.2-0.3,1.7-0.7c0.4-0.5,0.7-1.1,0.6-1.7
		c0-2-1.4-2.4-3.3-2.4h-4.9L123.1,78.6z M124.7,74.1v-2.3h3.1c1.3,0,2,0.2,2,1.2s-0.7,1.2-2,1.2L124.7,74.1z M136.4,70.5h1.6v8.1
		h-1.6V70.5z M149.3,72.9c-0.3-0.7-0.9-1.3-2.9-1.3c-1.1,0-2.2,0.3-2.2,1c0,0.3,0.2,0.7,1.8,0.9l1.9,0.3c1.8,0.3,2.9,1,2.9,2.3
		c0,1.9-1.8,2.6-4,2.6c-3.5,0-4.4-1.7-4.6-2.4l1.5-0.5c0.3,0.6,0.9,1.5,3.1,1.5c1.3,0,2.4-0.4,2.4-1.1c0-0.5-0.6-0.9-1.8-1l-2-0.3
		c-1.9-0.2-2.9-1.1-2.9-2.3c0-2.4,3.2-2.4,3.8-2.4c3.5,0,4.1,1.6,4.4,2.2L149.3,72.9z M211,57.6c0.7,5.7,3.6,4.8,3.8,5.3
		c0,0-11.5,0-11.5,0c-0.1-0.2,3.3-0.1,2.6-5l-3-22c-0.1-0.6-0.1-1.2-0.5-1.1c-0.2,0.1-10.1,23.8-10.1,23.8c-0.1,0.4-0.4,0.6-0.7,0.1
		c-0.2-0.4-9.2-20.1-9.2-20.1c-0.4-1-1.2-2.6-1.4-2.8c-0.2-0.5-0.6-0.6-0.6,1.1l-2.3,22.3c-0.6,3.9,3.1,3.6,3.1,3.8h-8.1
		c-0.1-0.2,2.7,0.2,3.3-3.9l2.7-24.7c-0.2-4.8-3.6-4.5-3.6-4.9h8.5l0.1,0.3l9.1,19.6c0.1,0.2,0.2,0.4,0.3,0.5c0.3,0.6,0.2,1,0.6,0.2
		l8.9-20.6h8.2c0.1,0.3-3.3,0.1-3.3,4.2L211,57.6z M23.9,61.8c7.9-0.1,7.5-6.1,8.1-6L30.6,63H6.2c0-0.2,4.7-0.3,4.8-3.6v-25
		c0-4.1-4.4-4.2-4.2-4.5h13.8c-0.3,0.3-4.8,0.3-4.8,4.3v26c0,1.9,1.9,1.6,3.5,1.7H23.9 M76,59.5c0.5,4.1,3.6,3.1,3.6,3.5h-8.8
		c0-0.4,3.5,0,3.5-3.7V34.1c0.1-4.3-3.8-4.3-3.8-4.7h8.9l18.4,22.6l0-18.4c-0.1-4.4-3.5-4.1-3.6-4.4h9.3c0,0.2-3.7,0.3-3.9,4.4
		l0,28.4c0,0,0.3,2.2-1,0.5c-0.6-0.7-22.1-27.8-22.1-27.8c-0.2-0.2-0.3,0-0.3,0.7v23.7L76,59.5z M46.2,46.7c-0.9,0-0.8-0.5-0.4-1.4
		c0,0,3-7.5,3.4-8.4c0.5-1.2,1-0.9,1.3,0.1l3,8.4c0.3,0.9,0.7,1.2-0.4,1.2L46.2,46.7 M64.1,58.8L51.7,29.6c-0.9-1-1.2,0.1-1.2,0.1
		C49.2,32.6,38,59.6,38,59.6c-1.5,3.6-3.5,3.2-3.5,3.4h8c0-0.4-4.3,0.3-2.8-3.5l4.3-10.4c0.4-0.7,0.5-0.8,1.5-0.8h8c1,0,1,0,1.4,1
		l4,9.8c1.2,3.9-2.4,3.7-2.4,4h11.4C68,62.7,66.2,63.9,64.1,58.8 M155,23.7l-13.5,4.1l13.5-6.6l13.6,6.6L155,23.7z M155,61.7h-0.1
		c-6.5,0-10.8-6.1-10.8-15.5c0-10.8,4.4-16.1,10.9-16.1c6.5,0,10.9,5.2,10.9,16.1C165.9,55.6,161.5,61.7,155,61.7 M155.1,28.9
		c-4.6-0.1-9.1,1.7-12.3,5c-3.3,3.3-5.1,7.7-5.1,12.3c0,8.9,6.8,16.8,17.3,16.8s17.5-7.9,17.5-16.8c0-4.6-1.8-9.1-5.1-12.3
		C164.2,30.6,159.7,28.8,155.1,28.9 M122.8,61.7c7.6-0.1,11.1-5.4,11.8-5.6c0.3-0.1-3.7,6.9-11.9,6.9c-18.2,0-17.9-16.4-17.9-16.4
		c0.6-11.5,10-18.4,18.9-17.5c1.8,0.2,3.5,0.6,5.2,1.2c0.8,0.3,3.1,1.5,4,1.1c0.6-0.2,1.1-1.5,1.2-1.6l0.1,9
		c-0.6,0-2.6-8.6-11.3-8.6c-7.1,0-12.5,8.1-12.4,16C110.8,59.3,120.1,61.7,122.8,61.7 M226.8,46.4V59c0,2.5-0.2,2.8,1.4,2.8h9
		c2.2-0.1,3.6-0.7,4.5-1.4c2.1-1.6,1.6-4.1,2-4.2l-0.2,6.7h-25.3c-0.1-0.2,3.8,0.4,3.8-5.1V34.7c0-5.5-3.6-4.7-3.5-5.1h25.1l0.2,6.6
		c-0.5,0,0.8-5.2-6.6-5.6h-8.3c-1.4,0-2,0-2,2.7v7.1l0,1.6c0,1.2,0,1.3,1.7,1.3h8.1c4.1,0,3.5-3.6,3.9-3.6v8.6c-0.4,0,0.2-4-3.7-3.9
		h-8.2C226.9,44.5,226.8,45.1,226.8,46.4L226.8,46.4z"/>
</g>
</svg>
