<?xml version="1.0" encoding="utf-8"?>
<!-- Generator: $$$/GeneralStr/196=Adobe Illustrator 27.6.0, SVG Export Plug-In . SVG Version: 6.00 Build 0)  -->
<svg version="1.1" id="Capa_1" xmlns="http://www.w3.org/2000/svg" xmlns:xlink="http://www.w3.org/1999/xlink" x="0px" y="0px"
	 viewBox="0 0 250 100" style="enable-background:new 0 0 250 100;" xml:space="preserve">
<style type="text/css">
	.st0{fill:#777777;}
</style>
<g>
	<path class="st0" d="M148.6,80.7c0.3-0.5,0.5-0.9,0.8-1.4c0.2-0.4,0.4-0.7,0.6-1.1c0.2-0.4,0.4-0.8,0.5-1.2
		c0.2-0.5,0.4-1.1,0.6-1.6c0.1-0.3,0.1-0.5,0.2-0.8c0.1-0.4,0.2-0.8,0.3-1.3c0.1-0.5,0.1-0.9,0.3-1.4c0.1-0.1,0.1-0.3,0.1-0.5
		c0-0.3,0-0.6,0.1-0.9c0.1-0.4,0.1-0.7,0.1-1.1c0.2-1.3,0.2-2.6,0.2-3.9c0-0.7-0.2-1.3-0.2-2c0-0.6-0.2-1.3-0.3-1.9
		c-0.1-0.5-0.2-1-0.3-1.5c-0.1-0.4-0.2-0.7-0.3-1.1c-0.1-0.4-0.3-0.8-0.5-1.2c-0.2-0.4-0.4-0.8-0.6-1.2c-0.2-0.4-0.4-0.7-0.6-1.1
		c-0.3-0.6-0.7-1.2-1-1.7c-0.3-0.5-0.6-0.9-0.9-1.4c-0.8-1.2-1.7-2.3-2.6-3.3c-0.9-1.1-1.9-2.2-2.9-3.3c-0.9-0.9-1.7-1.9-2.5-2.8
		c-0.9-1-1.8-2-2.6-3c-0.8-0.9-1.5-1.9-2.2-2.8c-0.3-0.5-0.7-1-1-1.5c-0.3-0.5-0.6-1-0.8-1.5c-0.3-0.6-0.5-1.2-0.8-1.8
		c-0.1-0.2-0.1-0.4-0.2-0.6c-0.1-0.3-0.2-0.7-0.3-1c-0.2-0.8-0.3-1.7-0.4-2.5c-0.1-1.2-0.2-2.4-0.1-3.7c0-0.5,0-0.9,0.1-1.4
		c0.2-0.7,0.2-1.3,0.3-2c0.1-0.4,0.2-0.9,0.3-1.3c0.1-0.4,0.2-0.9,0.4-1.3c0.2-0.5,0.3-0.9,0.5-1.4c0.2-0.6,0.5-1.1,0.8-1.7
		c0.2-0.4,0.4-0.7,0.6-1.1c0.3-0.6,0.7-1.2,1-1.7c0.6-0.9,1.2-1.7,1.9-2.5c0.6-0.6,1.2-1.2,1.8-1.8c0.6-0.5,1.2-1.1,1.9-1.5
		c0.1-0.1,0.3-0.2,0.4-0.1c0.1,0.1-0.1,0.2-0.2,0.3c-0.7,0.6-1.3,1.2-1.8,1.9c-0.5,0.6-1,1.3-1.5,2c-0.4,0.6-0.7,1.2-1,1.9
		c-0.1,0.3-0.2,0.5-0.3,0.8c-0.2,0.3-0.3,0.7-0.3,1c-0.1,0.5-0.3,1-0.4,1.5c-0.2,0.9-0.2,1.8-0.2,2.7c0,0.7,0.1,1.5,0.2,2.2
		c0.1,0.5,0.2,0.9,0.3,1.4c0.2,0.6,0.3,1.2,0.6,1.8c0.2,0.4,0.4,0.9,0.5,1.3c0.1,0.3,0.3,0.6,0.5,1c0.3,0.5,0.6,1,0.9,1.5
		c0.5,0.8,1,1.6,1.6,2.3c0.6,0.7,1.2,1.5,1.8,2.2c0.5,0.6,1.1,1.2,1.6,1.8c0.9,1,1.9,2,2.8,3.1c1.1,1.2,2.2,2.5,3.3,3.8
		c0.6,0.7,1.1,1.4,1.7,2.1c0.6,0.8,1.1,1.5,1.7,2.3c0.4,0.7,0.9,1.4,1.3,2.1c0.4,0.6,0.7,1.3,1,1.9c0.2,0.4,0.4,0.8,0.6,1.3
		c0.2,0.5,0.4,0.9,0.6,1.4c0.1,0.2,0.2,0.5,0.2,0.7c0.2,0.6,0.4,1.3,0.6,1.9c0.1,0.6,0.3,1.2,0.4,1.7c0.2,0.9,0.3,1.7,0.4,2.6
		c0.1,0.3,0,0.7,0.1,1c0.1,1.4,0.2,2.8,0,4.2c-0.1,0.5-0.1,0.9-0.1,1.4c0,0.3,0,0.7-0.1,1c-0.1,0.3,0,0.6-0.1,1
		c-0.1,0.7-0.3,1.4-0.4,2c-0.1,0.5-0.2,1-0.4,1.4c-0.1,0.3-0.2,0.5-0.2,0.8c-0.2,0.5-0.3,1.1-0.5,1.6c-0.2,0.6-0.5,1.2-0.8,1.9
		c-0.3,0.6-0.6,1.3-0.9,1.9c-0.3,0.6-0.7,1.2-1.1,1.8c-0.4,0.7-0.9,1.3-1.4,2c-0.4,0.6-0.9,1.2-1.4,1.8c-0.7,0.8-1.4,1.5-2.1,2.2
		c-0.9,0.8-1.8,1.6-2.7,2.3c-0.9,0.6-1.7,1.2-2.6,1.8c-0.6,0.4-1.3,0.8-2,1.1c-0.8,0.4-1.5,0.7-2.3,1c-0.5,0.2-1,0.4-1.5,0.6
		c-0.3,0.1-0.7,0.2-1,0.3c-0.3,0.1-0.7,0.2-1,0.3c-0.5,0.1-1,0.3-1.5,0.3c-0.2,0-0.4,0.1-0.6,0.1c-0.1,0-0.2,0-0.2-0.1
		c0-0.1,0.1-0.1,0.1-0.1c0.3-0.3,0.7-0.3,1-0.4c0.7-0.3,1.4-0.6,2.1-0.9c0.7-0.3,1.3-0.7,2-1c0.6-0.3,1.2-0.7,1.8-1.1
		c1-0.7,1.9-1.5,2.7-2.4c0.6-0.6,1.1-1.3,1.4-2c0.3-0.7,0.5-1.5,0.6-2.2c0.1-0.7,0-1.5-0.2-2.2c-0.3-1.1-0.9-2-2.1-2.5
		c-0.4-0.2-0.9-0.2-1.3-0.2c-8.9,0-17.8,0-26.8,0c-0.2,0-0.4,0-0.6-0.1c-0.3-0.1-0.4-0.2-0.2-0.4c0.3-0.7,0.6-1.3,0.9-2
		c0.1-0.3,0.2-0.6,0.3-0.9c0.1-0.3,0.2-0.7,0.4-1c0.1-0.3,0.2-0.6,0.3-0.9c0.1-0.4,0.2-0.8,0.3-1.2c0.1-0.7,0.3-1.4,0.4-2.1
		c0.1-1.1,0.3-2.1,0.3-3.2c0-0.6,0.1-1.2,0.1-1.8c0-0.2,0-0.3,0-0.5c0-0.6-0.1-1.2-0.1-1.8c0-0.9-0.1-1.7-0.2-2.6
		c-0.1-0.7-0.2-1.4-0.3-2c-0.1-0.5-0.2-1-0.3-1.5c-0.1-0.5-0.2-0.9-0.3-1.4c-0.1-0.4-0.2-0.8-0.4-1.2c-0.1-0.4-0.2-0.7-0.3-1.1
		c-0.2-0.4-0.2-0.9-0.4-1.3c-0.1-0.3-0.2-0.7-0.2-1c-0.1-0.7-0.3-1.4-0.3-2.1c-0.1-0.7-0.2-1.3-0.2-2c0-0.7,0-1.3,0-2
		c0-0.4,0-0.8,0.1-1.2c0.1-0.4,0.1-0.9,0.2-1.3c0.1-0.5,0.2-1,0.3-1.5c0.1-0.3,0.2-0.7,0.3-1c0.2-0.8,0.5-1.5,0.8-2.3
		c0.2-0.6,0.5-1.1,0.8-1.6c0.3-0.5,0.6-1,0.9-1.5c0.6-0.8,1.2-1.6,1.9-2.3c0.3-0.3,0.5-0.6,0.9-0.8c0.1,0,0.1-0.1,0.2,0
		c0.1,0.1,0,0.1,0,0.2c-0.2,0.5-0.6,0.9-0.8,1.3c-0.2,0.4-0.4,0.9-0.6,1.4c-0.1,0.4-0.3,0.7-0.4,1.1c-0.1,0.5-0.3,0.9-0.3,1.4
		c0,0.5-0.2,1-0.2,1.6c0,0.6,0,1.3,0,1.9c0,0.8,0.2,1.5,0.3,2.2c0.1,0.5,0.1,1,0.3,1.4c0.1,0.3,0.2,0.7,0.2,1
		c0.2,0.6,0.4,1.3,0.6,1.9c0.2,0.6,0.4,1.2,0.6,1.8c0.1,0.4,0.2,0.7,0.3,1.1c0.1,0.4,0.3,0.8,0.4,1.3c0.1,0.4,0.2,0.9,0.3,1.3
		c0.1,0.6,0.2,1.2,0.4,1.8c0,0.1,0,0.3,0.1,0.4c0.1,1,0.3,2,0.3,3c0,0.7,0.1,1.4,0.1,2.1c0,1-0.1,2.1-0.2,3.1
		c-0.1,0.5-0.1,1-0.2,1.5c-0.1,0.5-0.2,1.1-0.3,1.6c-0.2,0.5-0.3,1.1-0.4,1.6c-0.1,0.3-0.2,0.7-0.3,1c-0.1,0.6-0.3,1.2-0.5,1.7
		c-0.2,0.7-0.5,1.5-0.8,2.2c0,0.1-0.1,0.2,0,0.3c0.3-0.4,0.7-0.8,1-1.3c0.6-0.7,1.2-1.5,1.8-2.2c0.2-0.2,0.4-0.5,0.5-0.8
		c0.3-0.6,0.6-1.2,0.9-1.8c0.2-0.5,0.4-0.9,0.6-1.4c0.2-0.5,0.4-1,0.5-1.6c0.1-0.4,0.2-0.8,0.3-1.2c0.2-0.6,0.3-1.2,0.4-1.8
		c0.1-0.9,0.3-1.7,0.3-2.6c0-0.8,0-1.7,0-2.5c0-0.7,0-1.5-0.1-2.2c-0.1-0.6-0.1-1.3-0.2-1.9c-0.1-0.7-0.2-1.3-0.4-2
		c-0.2-0.6-0.2-1.2-0.4-1.8c0-0.1,0-0.3-0.1-0.4c-0.1-0.5-0.2-1-0.4-1.5c-0.1-0.3-0.1-0.6-0.2-0.9c-0.1-0.2-0.2-0.5-0.2-0.7
		c-0.1-0.7-0.4-1.3-0.6-2c-0.1-0.6-0.3-1.2-0.4-1.8c-0.3-1.3-0.4-2.6-0.4-4c0-1,0-2,0.1-2.9c0.1-0.6,0.1-1.2,0.3-1.8
		c0.1-0.4,0.2-0.8,0.3-1.2c0.1-0.4,0.2-0.8,0.4-1.2c0.2-0.4,0.3-0.8,0.5-1.3c0.1-0.4,0.4-0.8,0.5-1.1c0.3-0.6,0.7-1.2,1-1.7
		c0.6-0.8,1.2-1.6,1.8-2.4c0.5-0.5,1-1,1.5-1.5c0.7-0.6,1.4-1.3,2.2-1.7c0.1,0,0.2-0.1,0.2,0c0.1,0.1,0,0.2-0.1,0.2
		c-0.5,0.5-1,1-1.4,1.5c-0.5,0.7-1,1.4-1.3,2.1c-0.2,0.5-0.4,0.9-0.6,1.4c-0.1,0.4-0.2,0.7-0.3,1.1c-0.2,0.7-0.2,1.4-0.3,2
		c-0.1,0.7-0.1,1.4-0.1,2.2c0,0.8,0.2,1.6,0.3,2.4c0.1,0.5,0.2,1.1,0.3,1.6c0.1,0.4,0.2,0.9,0.3,1.3c0.1,0.4,0.2,0.8,0.4,1.2
		c0.1,0.2,0.1,0.5,0.2,0.8c0.1,0.4,0.3,0.8,0.3,1.2c0,0.3,0.1,0.5,0.2,0.8c0.1,0.4,0.2,0.8,0.3,1.1c0.1,0.4,0.2,0.8,0.3,1.2
		c0.1,0.5,0.2,1,0.4,1.5c0,0.1,0,0.3,0.1,0.5c0.1,0.7,0.3,1.3,0.4,2c0.1,1,0.3,2,0.3,3.1c0,0.5,0.1,1,0.1,1.5
		c-0.1,1-0.1,1.9-0.2,2.9c-0.1,0.7-0.2,1.5-0.4,2.2c-0.2,0.6-0.3,1.3-0.5,1.9c-0.2,0.5-0.3,1.1-0.5,1.6c-0.2,0.4-0.3,0.9-0.6,1.3
		c-0.2,0.4-0.4,0.8-0.5,1.2c-0.2,0.4-0.4,0.8-0.6,1.2c-0.3,0.6-0.6,1.2-0.9,1.8c0,0.1,0,0.1,0,0.2c0.5-0.4,0.9-0.8,1.4-1.3
		c0.6-0.6,1.3-1.1,2-1.6c0.5-0.3,1-0.7,1.5-1c0.4-0.2,0.7-0.4,1.1-0.6c0.4-0.2,0.8-0.3,1.1-0.5c0.5-0.2,1-0.3,1.6-0.4
		c0.6-0.1,1.3-0.2,1.9-0.2c0.6,0,1.2,0.2,1.9,0.3c0.3,0.1,0.7,0.2,1,0.3c0.3,0.1,0.6,0.2,0.9,0.4c0.3,0.2,0.7,0.3,1,0.5
		c0.7,0.4,1.4,0.9,2.1,1.5c0.7,0.6,1.2,1.3,1.7,2c0.4,0.6,0.7,1.1,1.1,1.8c0.3,0.5,0.6,1.1,0.8,1.7c0.1,0.3,0.3,0.7,0.3,1
		c0.1,0.3,0.2,0.6,0.3,0.9c0.2,0.8,0.4,1.6,0.5,2.4c0.1,0.8,0.3,1.5,0.3,2.3c0,0.6,0.2,1.2,0.2,1.8c0,0.7,0,1.3,0,2
		c0,0.9,0,1.8-0.1,2.7c0,0.4-0.2,0.8-0.2,1.2C148.5,80.4,148.5,80.5,148.6,80.7z M120.9,71.4c0.2,0.1,0.3,0,0.4,0
		c5.5,0,10.9,0,16.4,0c1,0,2.1,0.1,3.1,0.2c0.1,0,0.3,0,0.4,0.1c0.4,0.2,0.8,0.1,1.2,0.3c0.1,0.1,0.3,0,0.3-0.2
		c0-0.8-0.1-1.6-0.4-2.4c-0.3-0.9-0.6-1.7-1-2.5c-0.5-0.8-1-1.4-1.7-2c-0.7-0.5-1.4-1-2.3-1.2c-0.8-0.2-1.5-0.4-2.4-0.4
		c-0.6,0-1.2,0.1-1.8,0.2c-0.2,0-0.4,0-0.6,0.1c-0.3,0.2-0.7,0.2-1.1,0.3c-0.5,0.2-1,0.4-1.5,0.6c-0.7,0.3-1.4,0.7-2,1.1
		c-0.9,0.5-1.7,1.1-2.6,1.7c-0.7,0.5-1.3,1.1-2,1.6C122.5,69.8,121.7,70.5,120.9,71.4z"/>
	<path class="st0" d="M114.5,65c0,0.9,0.1,1.8-0.1,2.7c-0.1,0.7-0.1,1.4-0.3,2.1c-0.1,0.5-0.2,1-0.3,1.5c-0.1,0.4-0.2,0.9-0.4,1.3
		c-0.1,0.3-0.2,0.7-0.3,1c-0.1,0.4-0.3,0.8-0.5,1.2c-0.2,0.4-0.4,0.8-0.6,1.2c-0.3,0.6-0.6,1.1-1,1.7c-0.7,1.1-1.6,2.2-2.5,3.1
		c-0.8,0.8-1.7,1.6-2.7,2.2c-0.8,0.5-1.6,1-2.4,1.5c-0.6,0.3-1.1,0.5-1.7,0.8c-0.7,0.3-1.4,0.5-2.1,0.8c-0.5,0.2-1,0.3-1.6,0.5
		c0,0,0,0-0.1,0c-0.2,0-0.4,0.1-0.5-0.1c-0.1-0.2,0.1-0.3,0.2-0.4c0.4-0.4,0.7-0.9,0.8-1.5c0.2-0.5,0.3-1.1,0.3-1.7
		c0-0.5,0-1.1-0.1-1.6c0,0,0-0.1,0-0.1c-0.1-0.5-0.2-0.6-0.7-0.3c-0.7,0.3-1.4,0.6-2.1,0.8c-0.4,0.1-0.8,0.1-1.2,0.3
		c-0.2,0.1-0.4,0.1-0.7,0.1c-0.6,0.1-1.1,0.2-1.7,0.2c-0.4,0-0.5-0.2-0.6-0.5c-0.1-0.8,0.1-1.4,0.6-1.9c0.2-0.2,0.2-0.4,0.1-0.7
		c-0.1-0.3-0.2-0.6-0.3-0.9C92.1,77,92,75.7,92,74.4c0-0.7,0.1-1.4,0.2-2.1c0.1-0.7,0.3-1.3,0.5-2c0.3-0.7,0.6-1.4,0.9-2
		c0.5-0.9,1.2-1.6,1.9-2.3c0.5-0.5,1-0.9,1.6-1.3c0.6-0.4,1.2-0.7,1.8-1c0.2-0.1,0.4-0.2,0.6-0.3c0.1,0,0.2-0.1,0.2,0
		c0.1,0.1,0.1,0.2,0.1,0.3c-0.2,0.4-0.4,0.9-0.5,1.4c-0.1,0.2-0.1,0.5-0.2,0.7c-0.3,0.9-0.3,1.9-0.3,2.9c0,0.5,0,1.1,0.1,1.6
		c0.2,0.6,0.3,1.3,0.5,1.9c0.2,0.4,0.4,0.9,0.6,1.3c0.2,0.4,0.4,0.8,0.6,1.1c0.2,0.5,0.4,0.9,0.5,1.4c0.1,0.3,0.2,0.3,0.4,0.1
		c0.3-0.3,0.6-0.6,0.9-0.9c0,0,0-0.1,0.1-0.1c0.1-0.1,0.2-0.2,0.3-0.1c0.1,0.1,0.1,0.2,0,0.3c-0.2,0.8-0.6,1.5-1.1,2.3
		c-0.1,0.2-0.1,0.3,0,0.5c0.1,0.2,0.1,0.4,0.1,0.6c0.1,1,0.1,2-0.1,3c-0.1,0.4-0.1,0.8-0.3,1.1c0,0.1,0,0.1-0.1,0.2
		c0,0.1,0,0.1,0,0.2c0.1,0.1,0.1,0,0.2,0c0.4-0.2,0.8-0.4,1.2-0.7c0.7-0.5,1.4-0.9,2.1-1.5c0.9-0.7,1.6-1.5,2.3-2.4
		c0.4-0.5,0.7-1.1,1-1.7c0.2-0.4,0.4-0.9,0.5-1.3c0.2-0.4,0.2-0.9,0.4-1.3c0-0.1,0-0.3,0.1-0.4c0.3-1.4,0.2-2.8,0.2-4.2
		c0-0.2-0.1-0.3-0.3-0.3c-0.7,0.1-1.5-0.1-2.2-0.3c-0.6-0.1-1.2-0.3-1.8-0.6c-0.6-0.3-1.2-0.6-1.8-0.9c-0.6-0.4-1.2-0.8-1.7-1.3
		c-0.2-0.2-0.3-0.5-0.3-0.8c0-0.5,0-1.1,0-1.6c0-0.7,0.1-1.4,0.2-2.1c0-0.3,0-0.5,0.1-0.8c0.1-0.7,0.2-1.5,0.4-2.2
		c0.1-0.7,0.3-1.4,0.5-2.1c0.3-1,0.7-1.9,1.1-2.8c0.7-1.2,1.4-2.4,2.4-3.4c0.1-0.1,0.2-0.2,0.3-0.3c0.3-0.3,0.5-0.5,0.6-1
		c0.2-0.6,0.5-1.2,0.8-1.8c0.4-0.7,0.8-1.4,1.2-2c0.5-0.6,1.1-1.2,1.7-1.7c0.1-0.1,0.3-0.2,0.4-0.3c0.2-0.1,0.4,0,0.3,0.3
		c-0.3,1.3-0.1,2.6-0.1,3.9c0,0.7,0.2,1.4,0.3,2.1c0.1,0.5,0.2,1.1,0.3,1.6c0.1,0.5,0.2,1,0.3,1.5c0.1,0.4,0.2,0.8,0.3,1.2
		c0,0.1,0.1,0.1,0.1,0.2c0.1,0.5,0.3,0.9,0.4,1.4c0.1,0.3,0.2,0.7,0.3,1c0.2,0.5,0.3,1,0.4,1.5c0.1,0.6,0.2,1.2,0.3,1.7
		c0.1,0.7,0.2,1.4,0.3,2.2C114.6,63,114.5,64,114.5,65z M106.3,53.6c-0.2,0.2-0.3,0.5-0.4,0.8c-0.2,0.4-0.4,0.8-0.5,1.3
		c-0.1,0.4-0.2,0.9-0.3,1.3c-0.1,0.5-0.2,1-0.2,1.5c0,1,0,1.9,0.2,2.9c0.1,0.4,0.3,0.7,0.5,0.9c0.4,0.3,0.8,0.5,1.2,0.7
		c0.4,0.2,0.9,0.3,1.3,0.4c0.2,0,0.2,0,0.2-0.2c0-0.4-0.2-0.8-0.3-1.2c-0.1-0.4-0.2-0.8-0.3-1.2c-0.1-0.3-0.2-0.5-0.2-0.8
		c-0.1-0.4-0.2-0.8-0.3-1.1c-0.1-0.4-0.3-0.9-0.3-1.3c-0.1-0.6-0.3-1.1-0.3-1.7c0-0.7-0.2-1.3-0.2-2
		C106.3,53.7,106.3,53.7,106.3,53.6z M96.8,66.7c-0.1,0.1-0.2,0.1-0.3,0.3c-0.4,0.6-0.8,1.2-1.2,1.9c-0.3,0.5-0.4,1.1-0.6,1.6
		c-0.2,0.7-0.1,1.4-0.1,2.1c0,0.4,0,0.8,0.1,1.2c0.2,0.5,0.2,1,0.3,1.5c0.1,0.4,0.2,0.9,0.3,1.3c0.1,0.6,0.3,1.2,0.4,1.8
		c0,0.2,0.1,0.3,0.4,0.3c0.2-0.1,0.4-0.1,0.6-0.1c0.2,0,0.4,0,0.6-0.1c0.4,0,0.5-0.2,0.3-0.5c-0.2-0.6-0.5-1.1-0.8-1.6
		c-0.2-0.4-0.5-0.9-0.7-1.3c-0.3-0.7-0.5-1.4-0.6-2.1c0-0.5-0.1-0.9-0.1-1.4c0-0.6,0.2-1.1,0.2-1.7c0-0.1,0-0.2,0.1-0.3
		c0.2-0.4,0.2-0.7,0.3-1.1c0.2-0.5,0.4-0.9,0.6-1.3C96.8,66.9,96.8,66.8,96.8,66.7z"/>
	<path class="st0" d="M115.7,86.7c0-0.1,0-0.2,0-0.3c-0.2-0.2-0.1-0.5-0.1-0.8c0.1-0.4,0.3-0.8,0.7-1.1c0.3-0.2,0.6-0.3,1-0.3
		c0.8,0,1.6,0,2.4,0c0.1,0,0.3,0.1,0.3-0.1c0-0.2-0.2-0.3-0.3-0.3c-0.1,0-0.2,0-0.3,0c-1,0-2,0-3,0c-0.4,0-0.6-0.1-0.7-0.5
		c-0.1-0.3,0.1-0.7,0.4-0.8c0.1,0,0.3,0,0.4,0c1,0,2.1,0,3.1,0c0.9,0,1.4,0.5,1.7,1.2c0,0.1,0,0.2,0,0.3c0,0.7,0,1.4,0,2.1
		c0,0.6-0.7,1.4-1.3,1.5c-1.1,0.1-2.2,0.2-3.3,0c-0.3-0.1-0.5-0.3-0.7-0.5c-0.1-0.2-0.3-0.2-0.3,0c-0.1,0.5-0.5,0.6-0.8,0.6
		c-1.2,0-2.4,0-3.5,0c-0.7,0-1.2-0.3-1.6-0.9c-0.1-0.3-0.3-0.5-0.3-0.8c0-1.7,0-3.4,0-5.1c0-0.4,0.2-0.6,0.6-0.7
		c0.2-0.1,0.5,0.1,0.6,0.3c0.1,0.2,0.2,0.4,0.2,0.7c0,1.5,0,3,0,4.4c0,0.1,0,0.2,0,0.3c0,0.4,0.1,0.5,0.5,0.5c1.2,0,2.4,0,3.6,0
		C115.3,86.3,115.5,86.4,115.7,86.7z M118.5,85.5c-0.4,0-0.8,0-1.2,0c-0.3,0-0.4,0.1-0.4,0.4c0,0.3,0.1,0.4,0.4,0.4
		c0.7,0,1.5,0,2.2,0c0.3,0,0.5-0.2,0.5-0.5c0-0.2-0.1-0.3-0.3-0.3C119.3,85.5,118.9,85.5,118.5,85.5z"/>
	<path class="st0" d="M134,84.2c0-0.8,0-1.7,0-2.5c0-0.7,0.5-1.3,1.2-1.6c0.6-0.2,1.2-0.1,1.8-0.1c0.5,0,0.8,0.5,0.7,0.9
		c-0.1,0.3-0.4,0.5-0.7,0.5c-0.4,0-0.8,0-1.2,0c-0.3,0-0.4,0.1-0.4,0.4c0,0.1,0,0.2,0,0.3c0,0.2,0.1,0.3,0.3,0.3c0.3,0,0.6,0,0.9,0
		c0.2,0,0.3,0.1,0.4,0.2c0.1,0.1,0.2,0.1,0.3,0c0.1-0.2,0.3-0.2,0.6-0.2c1.1,0,2.1,0,3.2,0c0.8,0,1.3,0.4,1.6,1.1
		c0.1,0.1,0.1,0.3,0.1,0.4c0,0.8,0.1,1.6,0,2.4c0,0.4-0.7,1.1-1.2,1.2c-0.9,0.2-1.9,0.1-2.8,0.1c-1-0.1-1.5-0.6-1.7-1.6
		c-0.1-0.6,0.2-1.1,0.7-1.5c0.3-0.2,0.6-0.3,1-0.3c0.8,0,1.6,0,2.4,0c0.1,0,0.3,0,0.3-0.1c0-0.2-0.1-0.3-0.3-0.3c-0.1,0-0.2,0-0.3,0
		c-1,0-1.9,0-2.9,0c-0.3,0-0.5,0-0.7-0.2c-0.1-0.1-0.2-0.1-0.2,0c-0.1,0.2-0.3,0.2-0.5,0.2c-0.2,0-0.5,0-0.7,0
		c-0.4,0-0.5,0.1-0.5,0.5c0,0.8,0,1.6,0,2.3c0,0.2,0,0.3,0,0.5c-0.1,0.4-0.3,0.6-0.7,0.6c-0.3,0-0.6-0.4-0.6-0.7
		C134,86,134,85.1,134,84.2z M139.9,85.5c-0.4,0-0.7,0-1.1,0c-0.3,0-0.4,0.1-0.4,0.4c0,0.3,0.1,0.4,0.4,0.4c0.7,0,1.4,0,2.1,0
		c0.1,0,0.2,0,0.2,0c0.2-0.1,0.3-0.3,0.3-0.5c0-0.2-0.2-0.2-0.3-0.2C140.7,85.5,140.3,85.5,139.9,85.5z"/>
	<path class="st0" d="M144.9,23.7c-2.7,0.1-4.8-2.2-4.8-4.8c0-2.7,2.2-4.8,4.8-4.8c2.6,0,4.8,2.1,4.8,4.8
		C149.7,21.5,147.6,23.8,144.9,23.7z M148.6,18.9c0-2.3-1.7-3.7-3.7-3.7c-2.2,0-3.7,1.6-3.7,3.7c0,2.2,1.5,3.7,3.7,3.7
		C146.9,22.7,148.6,21,148.6,18.9z"/>
	<path class="st0" d="M130.6,82.4c0.6,0,1.3-0.1,1.9,0c0.5,0.1,1,0.6,1.2,1.1c0.2,0.8,0.1,1.5,0.1,2.3c0,0.6-0.3,1.2-0.9,1.6
		c-0.3,0.2-0.6,0.2-0.9,0.2c-0.7,0-1.4,0-2.1,0c-0.8,0-1.4-0.4-1.7-1.1c-0.3-0.8,0.2-1.9,0.9-2.2c0.2-0.1,0.5-0.1,0.7-0.1
		c0.7,0,1.5,0,2.2,0c0.1,0,0.3,0.1,0.3-0.2c0-0.2-0.1-0.3-0.3-0.3c-0.4,0-0.7,0-1.1,0c-0.7,0-1.4,0-2.1,0c-0.5,0-0.8-0.4-0.7-0.8
		c0.1-0.2,0.2-0.4,0.5-0.4c0.5-0.1,1.1,0,1.6,0C130.4,82.4,130.5,82.4,130.6,82.4z M131,85.5C131,85.5,131,85.5,131,85.5
		c-0.4,0-0.8,0-1.2,0c-0.3,0-0.5,0.3-0.4,0.6c0.1,0.2,0.3,0.2,0.4,0.2c0.7,0,1.4,0,2.1,0c0.1,0,0.2,0,0.3,0c0.2,0,0.3-0.3,0.2-0.6
		c0-0.2-0.2-0.2-0.3-0.2C131.8,85.5,131.4,85.5,131,85.5z"/>
	<path class="st0" d="M107,38.6c1.3,0,2.4,1.1,2.4,2.4c0,1.2-1,2.4-2.4,2.4c-1.5,0-2.4-1.1-2.4-2.3C104.6,39.7,105.6,38.5,107,38.6z
		"/>
	<path class="st0" d="M99.7,59.8c0.1,1.3-1.1,2.2-2.2,2.2c-1.1,0-2.2-1-2.2-2.3c0-1.2,1-2.1,2.2-2.2C98.7,57.6,99.8,58.6,99.7,59.8z
		"/>
	<path class="st0" d="M124.8,83.3c0-0.8,0-1.6,0-2.4c0-0.2,0-0.5,0.2-0.7c0.1-0.2,0.3-0.3,0.5-0.2c0.2,0.1,0.4,0.1,0.5,0.4
		c0.1,0.5,0.1,0.9,0.1,1.4c0,0.5,0,0.5,0.5,0.5c0.1,0,0.3,0,0.4,0c0.6,0,0.9,0.2,0.9,0.6c0,0.4-0.3,0.7-0.9,0.7c-0.2,0-0.4,0-0.6,0
		c-0.2,0-0.3,0.1-0.3,0.3c0,0.6,0,1.3,0,1.9c0,0.3,0.2,0.4,0.4,0.4c0.2,0,0.5,0,0.7,0c0.3,0,0.7,0.3,0.7,0.6c0,0.2-0.2,0.6-0.5,0.7
		c-0.9,0.2-1.9,0.1-2.4-0.8c-0.2-0.3-0.3-0.6-0.3-1C124.8,84.9,124.8,84.1,124.8,83.3z"/>
	<path class="st0" d="M121.6,83.4c0-0.9,0-1.8,0-2.6c0-0.2,0-0.4,0.3-0.6c0.5-0.3,1,0,1,0.5c0,0.4,0,0.9,0,1.3c0,0.4,0,0.4,0.4,0.4
		c0.3,0,0.6,0,0.9,0c0.3,0,0.5,0.2,0.5,0.4c0.1,0.3,0,0.5-0.2,0.7c-0.1,0.1-0.3,0.1-0.5,0.1c-0.3,0-0.5,0-0.8,0
		c-0.2,0-0.3,0.1-0.3,0.3c0,0.6,0,1.3,0,1.9c0,0.2,0.2,0.4,0.4,0.4c0.2,0,0.5,0,0.7,0c0.5,0,0.8,0.4,0.7,0.9
		c-0.1,0.4-0.4,0.4-0.7,0.4c-0.6,0.1-1.1,0-1.6-0.3c-0.4-0.3-0.7-0.7-0.7-1.2C121.6,85.1,121.6,84.3,121.6,83.4
		C121.6,83.4,121.6,83.4,121.6,83.4z"/>
	<path class="st0" d="M96.1,63.5c0.1,0.9-0.8,1.8-1.7,1.7c-1,0-1.7-0.7-1.7-1.7c0-0.9,0.6-1.7,1.7-1.7
		C95.2,61.7,96.1,62.5,96.1,63.5z"/>
	<path class="st0" d="M142.7,18.9c0-0.6,0-1.3,0-1.9c0-0.1,0-0.2,0-0.3c0-0.3,0.1-0.4,0.4-0.4c0.7,0,1.5,0,2.2,0
		c0.9,0,1.6,0.8,1.5,1.6c-0.1,0.6-0.3,1-0.8,1.3c-0.2,0.1-0.2,0.2-0.1,0.4c0.4,0.4,0.7,0.9,1,1.5c0.3,0.6,0.3,0.6-0.4,0.6
		c-0.5,0-0.7-0.2-0.9-0.6c-0.2-0.5-0.5-0.9-0.9-1.3c-0.2-0.2-0.5-0.2-0.9-0.2c-0.2,0-0.2,0.2-0.2,0.3c0,0.5,0,0.9,0,1.4
		c0,0.3-0.1,0.4-0.4,0.4c-0.7,0-0.7,0-0.7-0.7C142.7,20.3,142.7,19.6,142.7,18.9z M144.6,18.4C144.6,18.4,144.6,18.4,144.6,18.4
		c0.2,0,0.4,0,0.6,0c0.4,0,0.6-0.2,0.6-0.6c0-0.3-0.2-0.5-0.6-0.5c-0.2,0-0.3,0-0.5,0c-0.9,0-0.8-0.1-0.8,0.8c0,0.2,0.1,0.3,0.3,0.3
		C144.2,18.4,144.4,18.4,144.6,18.4z"/>
</g>
</svg>
