<?xml version="1.0" encoding="utf-8"?>
<!-- Generator: $$$/GeneralStr/196=Adobe Illustrator 27.6.0, SVG Export Plug-In . SVG Version: 6.00 Build 0)  -->
<svg version="1.1" id="Capa_1" xmlns="http://www.w3.org/2000/svg" xmlns:xlink="http://www.w3.org/1999/xlink" x="0px" y="0px"
	 viewBox="0 0 250 100" style="enable-background:new 0 0 250 100;" xml:space="preserve">
<style type="text/css">
	.st0{fill:#777777;}
</style>
<g id="Layer_2">
</g>
<g>
	<path class="st0" d="M48.1,45.9c0.3-0.1,0.5-0.3,0.8-0.4c1.7-0.9,2.6-2.2,2.4-4.3c-0.2-2.8,0.1-5.6,0.5-8.4c0.1-0.6,0-1.1,0-1.7
		c-0.2-2-0.3-4.1,0.1-6.1c0.3-1.4,0-2.6-0.2-3.9c-0.1-1.2-1.1-1.8-2.1-2.1c-0.5-0.2-1.3-0.2-1.1-0.9c0.2-0.6,0.9-0.5,1.4-0.4
		c1.1,0.2,2.1,0.3,3.2,0.1c2.2-0.4,4.4-0.2,6.6,0c0.4,0,0.8,0,0.8,0.5c0,0.5-0.3,0.7-0.8,0.8c-0.1,0-0.3,0-0.4,0
		c-2.2,0-2.7,0.5-2.8,2.7c-0.1,1.7-0.2,3.4,0.1,5.1c0.5,2.4-0.1,4.7,0,7.1c0.1,2,0,3.9-0.3,5.9c-0.2,1.2,0,2.4,0.2,3.6
		c0.1,0.7,0.5,1,1.3,1c2,0,4,0,6.1,0c1.8,0,3.1-0.8,3.9-2.4c0.1-0.2,0.2-0.4,0.3-0.5c0.3-0.5,0.3-1.3,1.1-1.1c0.7,0.2,0.5,1,0.5,1.6
		c-0.1,1.2-0.3,2.4-0.5,3.7c-0.1,0.5-0.3,0.8-0.8,0.7c-2.4-0.8-4.9,0.1-7.3,0c-3-0.1-6-0.1-9.1-0.2c-1.3,0-2.4,0.5-3.7,0.3
		C48.1,46.3,48.1,46.1,48.1,45.9z"/>
	<path class="st0" d="M188.4,85.5c0.7-0.4,0.7-1.1,0.7-1.8c0-2,0.3-4.1-0.2-6.1c-0.1-0.3,0-0.5,0.3-0.5c1.1,0.1,2.3-0.2,3.4,0.2
		c1.4,0.6,1.9,2,0.9,3.2c-0.9,1-0.7,1.7,0,2.6c0.4,0.6,1,1.1,1.2,1.8c0.1,0.4,0.7,0.2,1.1,0.2c0.6-0.1,0.1-0.4,0.1-0.7
		c0.3-1.7,0-3.3,0-5c0-0.6,0-1.3-0.4-1.8c-0.3-0.4-0.1-0.6,0.4-0.6c0,0,0.1,0,0.1,0c0.6,0.2,1.4-0.3,1.8,0.1
		c0.4,0.4-0.2,1.1-0.2,1.7c0,1.5,0,2.9,0,4.4c0,0.8,0,1.6,0.8,2.2c-1.7,0-3.4,0-5,0c0.2-0.1,0.4-0.2,0.6-0.3c-1-0.1-1.3-0.9-1.7-1.5
		c-0.3-0.5-0.3-1-0.8-1.4c-0.2-0.2-0.4-0.3-0.7-0.2c-0.3,0.1-0.2,0.4-0.2,0.6c0,1,0.1,1.9,0.4,2.8C190.1,85.5,189.2,85.5,188.4,85.5
		z M190.5,79.5c0,0.1,0,0.3,0,0.4c0.1,0.5-0.2,1.1,0.6,1.2c0.7,0.1,1.1-0.4,1.3-1c0.1-0.4,0.1-0.9,0-1.3c-0.1-0.6-0.6-1-1.2-1
		c-0.7,0-0.6,0.7-0.6,1.1C190.5,79.1,190.5,79.3,190.5,79.5z"/>
	<path class="st0" d="M180.8,85.5c0.7-1.3,1.3-2.7,1.7-4.2c0.3-1.2,1.1-2.2,1.2-3.5c0-0.4,0.4-0.7,0.9-0.7c0.5,0,0.6,0.4,0.7,0.8
		c0.6,2.3,1.3,4.6,2.1,6.8c0.2,0.5,0.7,0.5,0.9,0.8c-1.1,0-2.2,0-3.2,0c0.2-0.2,0.6-0.2,0.6-0.6c-0.1-0.8-0.2-1.7-0.6-2.4
		c-0.3-0.4-1.7-0.5-2-0.1c-0.6,0.6-0.7,2.3-0.2,3.1C182.1,85.5,181.4,85.5,180.8,85.5z"/>
	<path class="st0" d="M175.9,85.5c0.5-0.7,0.5-1.5,0.5-2.3c0-1.4,0-2.9,0-4.3c0-0.4-0.1-0.9-0.4-1.2c-0.2-0.2-0.3-0.6,0.1-0.6
		c1,0.2,2.1-0.2,3.1,0.1c1.4,0.4,2.1,1.2,2,2.5c0,1.1-0.7,2-2.1,2.2c-1.2,0.1-1.3,0.8-1.2,1.7c0.1,0.7-0.4,1.6,0.8,1.9
		C177.8,85.5,176.9,85.5,175.9,85.5z M178,79.3C178,79.3,178,79.3,178,79.3c0,0.4,0,0.7,0,1.1c0,0.8,0.4,0.9,1,0.6
		c0.9-0.5,1.1-1.6,0.4-2.5c-0.3-0.4-0.6-0.9-1.2-0.8c-0.5,0.1-0.3,0.7-0.3,1.1C177.9,79,178,79.2,178,79.3z"/>
	<path class="st0" d="M200,85.5c0.3-0.2,0.5-0.4,0-0.6c-0.6-0.2-0.9-0.7-0.8-1.4c0-0.2,0-0.3,0.2-0.4c0.2-0.1,0.4,0.1,0.5,0.3
		c0.3,0.5,0.6,0.9,1,1.4c0.4,0.5,0.8,0.4,1.1-0.1c0.9-1.2,0.8-2-0.6-2.7c-0.3-0.2-0.6-0.3-0.9-0.5c-1.1-0.6-1.6-2.1-0.9-3.3
		c0.6-1,2.2-1.5,3.3-0.9c0.7,0.4,0.5,1,0.4,1.5c-0.1,0.3-0.3,0.2-0.5,0c-0.2-0.2-0.4-0.5-0.6-0.7c-0.4-0.4-0.9-0.5-1.3-0.1
		c-0.4,0.5-0.6,1-0.2,1.5c0.4,0.4,0.9,0.6,1.3,0.9c1.9,1,2.3,2.6,0.9,4.3c-0.2,0.2-0.4,0.4-0.3,0.8C201.7,85.5,200.8,85.5,200,85.5z
		"/>
	<path class="st0" d="M131.4,66.9c-0.3,0.3-0.5,0.2-0.7,0.2c-1.5-0.6-3-0.3-4.5,0.1c-0.4,0.1-0.8,0.3-1-0.1
		c-0.3-0.4,0.1-0.7,0.4-0.9c1-1.2,0.9-2.6,1-4c0.1-2.2,0.1-4.5,0-6.7c-0.1-2.2-1.7-3.4-4-3c-2.2,0.4-3.2,1.5-3.2,3.7
		c0,2.6,0,5.2,0,7.7c0,1,0.2,1.8,0.9,2.5c0.2,0.2,0.4,0.3,0.3,0.6c-0.1,0.3-0.4,0.2-0.6,0.1c-1.4-0.3-2.7-0.4-4.1-0.2
		c-0.7,0.1-0.9-0.3-0.5-0.9c0.7-1.3,0.8-2.8,0.8-4.3c0-2.1,0-4.1,0-6.2c0-2.3-1.7-3.6-4-3c-2.1,0.5-2.7,1.3-2.8,3.5
		c-0.1,2.4,0,4.8,0,7.2c0,1.1,0.2,2.1,1.1,2.9c0.2,0.1,0.4,0.3,0.2,0.6c-0.1,0.2-0.4,0.2-0.6,0.2c-0.6-0.1-1.2-0.1-1.8-0.2
		c-0.8-0.2-1.6-0.3-2.4,0c-0.2,0.1-0.5,0.2-0.8-0.1c-0.2-0.2-0.1-0.5,0-0.8c1.1-2.1,1.1-4.4,1.1-6.7c0-1.1-0.1-2.2,0.2-3.3
		c0.2-0.8-0.2-1.5-0.7-2c-0.7-0.6-0.5-1,0.2-1.3c1-0.5,1.9-1.1,2.8-1.6c0.5-0.3,1-0.4,1.3,0.3c0.3,0.6,0.7,0.5,1.3,0.3
		c1.5-0.7,3.2-0.8,4.8-0.8c0.8,0,1.4,0.4,1.9,1c0.6,0.8,1.4,1,2.3,0.5c0.3-0.2,0.7-0.3,1-0.5c4.2-2.4,9.1,1.8,8.8,5.6
		c-0.1,1.4-0.2,2.8-0.1,4.2C130,63.4,129.5,65.5,131.4,66.9z"/>
	<path class="st0" d="M79.4,48c0,1.5,0.1,2.9,0.1,4.4c0,3.2-0.2,6.3-0.2,9.5c0,1.7-0.1,3.5-0.1,5.2c0,0.7,0.4,1.3,1.1,1.3
		c2.2,0,4.5,0.2,6.7,0c1.8-0.2,2.8-1.3,3.7-2.8c0.3-0.5,0.4-1.5,1.1-1.3c0.6,0.2,0.2,1.1,0.3,1.6c0,1.1,0,2.3-0.2,3.4
		c-0.1,0.5-0.3,0.8-0.9,0.7c-3.3-0.4-6.5,0.2-9.8,0c-1.4-0.1-2.9-0.1-4.3-0.2c-1.4,0-2.8,0-4.2,0.4c-0.3,0.1-0.6,0.1-0.9,0.1
		c-0.2,0-0.4-0.1-0.4-0.2c-0.1-0.2,0.1-0.3,0.2-0.4c0,0,0.1,0,0.1-0.1c2.6-1.2,2.9-3.4,2.7-5.9c-0.1-1.9-0.1-3.9,0.3-5.8
		c0.2-0.7,0.1-1.4,0-2.1c-0.4-2.8-0.2-5.5,0-8.3c0.1-1.1-0.1-2.2-0.6-3.2c-0.5-0.8-1-1.5-2-1.7c-0.3-0.1-0.8-0.2-0.8-0.7
		c0.1-0.4,0.6-0.4,0.9-0.5c1-0.2,2-0.1,3,0.1c2.2,0.4,4.5-0.1,6.7-0.1c0.5,0,1.1-0.2,1.1,0.6c0,0.6-0.5,0.8-1.1,0.8
		c-2.8,0.1-2.8,0.1-2.8,3C79.4,46.6,79.4,47.3,79.4,48z"/>
	<path class="st0" d="M137.4,74.3c0.1,1.3-0.1,3,0.2,4.7c0.2,1.1,0.7,1.9,1.8,2.3c0.1,0,0.2,0.1,0.3,0.1c0.4,0.2,1,0.3,0.8,0.8
		c-0.2,0.5-0.7,0.2-1.1,0.1c-1.9-0.7-3.7,0-5.6-0.2c-0.4,0-1,0.2-1.2-0.2c-0.3-0.5,0.3-0.7,0.6-1c0.4-0.4,0.7-0.9,0.7-1.4
		c-0.2-2.9,0.9-5.7,0.6-8.7c-0.2-2.1-0.2-4.3-0.2-6.4c0-0.7,0.1-1.5,0.4-2.1c0.1-0.3,0.2-0.6,0.1-0.9c-0.2-1.1-0.5-2.3-0.8-3.4
		c-0.1-0.3-0.2-0.5-0.3-0.7c-0.7-1.2-0.7-1.2,0.5-1.8c0.9-0.4,1.4-1.2,2.1-1.8c1.1-1,1.3-1,2.4,0c0.4,0.4,0.7,0.3,1,0
		c1.5-1.1,3-1.2,4.6-0.2c0.5,0.3,1,0.5,1.6,0.7c1.4,0.5,2.4,1.5,2.9,2.9c0.7,2.2,1.2,4.4,0.7,6.8c-0.5,2.4-2,3.9-3.8,5.1
		c-1.1,0.7-2.2,1.2-3.6,1.2c-1.2,0.1-2.3,0-3.2-0.9c-0.3-0.3-0.6-0.6-1.1-0.4c-0.5,0.2-0.5,0.7-0.5,1.1
		C137.4,71.3,137.4,72.6,137.4,74.3z M146.6,64.3c0-0.5,0-0.9,0-1.2c-0.1-3.1-1.1-5.7-4.2-7.2c-2.2-1.1-4.4,0.2-4.6,2.6
		c-0.2,2.3-0.1,4.6,0,6.9c0.1,1.9,0.6,2.5,2.4,3c0.7,0.2,1.4,0.1,2.1,0.1c1.7,0,2.7-1.2,3.8-2.2C146.9,65.8,146.5,64.9,146.6,64.3z"
		/>
	<path class="st0" d="M187,65.3c-0.8,0-1.5,0-2.3,0c-0.6,0-0.8-0.2-0.5-0.7c0.6-1.3,0-2.4-0.6-3.4c-1.1-1.6-2.3-3.2-3.5-4.8
		c-0.2-0.3-0.4-0.7-0.8-0.6c-0.4,0.1-0.6,0.6-0.6,1c-0.1,1.7,0,3.4-0.2,5.1c-0.1,0.8,0.5,1.4,1.1,1.8c0.2,0.1,0.4,0.3,0.6,0.4
		c0.3,0.3,0.9,0.5,0.7,1c-0.2,0.6-0.7,0.1-1.1,0.1c-1.4,0-2.9,0-4.3,0c-1.7,0-1.8-0.3-1.1-1.7c0.8-1.8,1-3.6,0.8-5.5
		c-0.2-1.4,0-2.7,0-4.1c0-3-0.1-5.9-0.1-8.9c0-0.5,0-1,0.1-1.5c0.2-1.3,0-2.4-1.1-3.2c-0.6-0.5-0.4-0.9,0.2-1.2
		c1.7-0.6,3.1-1.5,4.3-2.7c0.2-0.2,0.5-0.5,0.9-0.2c0.4,0.3,0.5,0.7,0.3,1.1c-1.7,2.5-0.7,5.5-1.4,8.2c0,0.1-0.1,0.3,0,0.4
		c0.9,2.1,0.1,4.2,0.3,6.3c0.1,0.7-0.3,1.8,0.4,2.2c0.7,0.3,1.3-0.6,1.9-1.1c0.7-0.5,1.3-1,2-1.5c0.6-0.4,1-1,1.1-1.7
		c0.1-0.9,0.7-1.3,1.6-1.2c0.7,0.1,1.4,0,2.1,0c0.3,0,0.7,0.1,0.8,0.4c0.1,0.4-0.3,0.6-0.6,0.7c-2.3,0.6-3.6,2.5-5.1,3.9
		c-0.3,0.3-0.4,0.6-0.1,1c2,2.6,3.9,5.3,5.8,7.9c0.5,0.6,1,1.2,1.5,1.8c0.4,0.5,0.3,0.8-0.4,0.8C188.8,65.3,187.9,65.3,187,65.3
		C187,65.3,187,65.3,187,65.3z"/>
	<path class="st0" d="M75.4,23c2.2,0.3,4.6,0.4,6.4,2c2.4,2.2,3.9,5,3.2,8.4c-0.5,2.6-2.3,4.5-4.8,5.6c-0.5,0.2-1.1,0.3-1.5,0.6
		c-2.1,1.4-4.1,1-6-0.2c-2.4-1.5-4.5-3.4-5.3-6.2c-0.5-1.7-0.1-3.3,0.9-4.7c0.5-0.7,0.9-1.5,1.4-2.2C71.1,24.3,72.9,23.1,75.4,23z
		 M75.7,38.4c3.4,0.1,5.8-2.1,6-5.3c0.1-2-0.2-4-1.3-5.7c-0.9-1.5-2.1-2.6-3.9-2.8c-2.2-0.2-4,0.9-5,3.1c-1.4,3-0.8,5.9,0.8,8.6
		C73.1,37.7,74.3,38.6,75.7,38.4z"/>
	<path class="st0" d="M91.9,42.7c-1.8-0.1-3.7-0.2-5.5,0c-0.3,0-0.7,0-0.9-0.3c-0.2-0.3,0.1-0.5,0.3-0.6c2.1-0.8,1.9-2.6,2.1-4.3
		c0.2-1.8,0.2-3.6,0.1-5.4c-0.2-2.8,0.1-5.6,0.3-8.4c0.1-1.3,0.1-2.7-0.2-4c-0.2-0.7-0.5-1.3-1.2-1.6c-0.8-0.3-0.6-0.6-0.1-1
		c1.5-1.1,3-2.1,4.4-3.4c0.2-0.2,0.4-0.4,0.7-0.2C92,13.7,92,14,92,14.3c0,0.3-0.1,0.5-0.2,0.8c-0.8,1.8-0.8,3.7-0.6,5.6
		c0.2,2.5,0.2,4.9-0.7,7.3c-0.2,0.6-0.3,1.1,0.5,1.4c0.5,0.2,0.5,0.8,0.5,1.3c0,3,0,6,0,8.9c0,0.9,0.3,1.6,1,2.1
		c0.2,0.2,0.8,0.2,0.5,0.7c-0.2,0.3-0.6,0.3-0.9,0.2C92.1,42.7,92,42.7,91.9,42.7z"/>
	<path class="st0" d="M126.8,34.8c0,1.2,0,2.5,0,3.7c0,0.9,0.2,1.5,1,2c1.1,0.6,1,0.9-0.1,1.5c-1.2,0.6-2.4,0.9-3.5-0.1
		c-0.5-0.4-1-0.2-1.4,0.1c-1,0.7-2.1,0.8-3.3,0.7c-1.3,0-2.3-0.5-3-1.7c-0.6-1.2-0.7-2.4,0.1-3.6c0.6-1,1.5-1.7,2.5-2.2
		c1-0.5,1.9-1.1,2.9-1.6c0.8-0.4,1.2-1,1.1-1.9c-0.1-0.8,0-1.6,0-2.4c0-0.9-0.7-1.7-1.5-1.8c-1-0.1-1.5,0.2-1.9,1.3
		c-0.1,0.4-0.2,0.8-0.4,1.1c-0.2,0.4-0.5,0.8-1.1,0.7c-0.6-0.1-1-0.4-1.1-1c-0.1-0.8,0.2-1.5,0.8-2.1c1.5-1.5,3.3-1.8,5.2-1.2
		c2,0.7,3.4,2.6,3.5,4.5C126.9,32.1,126.8,33.5,126.8,34.8C126.8,34.8,126.8,34.8,126.8,34.8z M123.3,37.5
		C123.3,37.5,123.4,37.5,123.3,37.5c0-0.8,0-1.6,0-2.4c0-0.4-0.1-0.6-0.6-0.5c-2.3,0.5-3.7,2.6-3.3,4.9c0.2,1,1.2,1.8,2.1,1.8
		c1.2-0.1,1.8-0.7,1.8-2C123.3,38.7,123.3,38.1,123.3,37.5z"/>
	<path class="st0" d="M202.7,58.3c0,1.8-0.3,3.2-0.2,4.7c0,0.5,0.1,1.1,0.2,1.6c0.1,0.7,0.4,1.3,1.3,1.4c0.2,0,0.5,0.1,0.6,0.3
		c0.1,0.3-0.1,0.5-0.3,0.6c-1.1,0.7-2.1,1.4-3.4,0.5c-0.8-0.5-1.5-0.4-2.3,0c-0.7,0.3-1.4,0.6-2.1,0.7c-2.2,0.3-4.6-1.8-4.3-4
		c0.2-1.3,1.1-2.3,2.3-2.9c1.1-0.7,2.4-1.3,3.5-1.9c1-0.5,1.5-1.3,1.4-2.4c0-0.9,0.1-1.8-0.2-2.7c-0.3-0.9-0.9-1.4-1.9-1.4
		c-1,0.1-1.3,0.7-1.5,1.6c0,0.4-0.2,0.7-0.3,1.1c-0.2,0.5-0.5,0.9-1.1,0.8c-0.6-0.1-1-0.4-1.1-1.1c-0.1-1.1,0.1-2.1,1-2.8
		c1.4-1.1,2.9-1.5,4.6-0.9c1.9,0.7,3.2,2,3.5,4.1C202.5,56.6,202.7,57.6,202.7,58.3z M199.3,61.4c0-0.5,0.1-0.9-0.3-1.2
		c-0.4-0.3-0.8,0.1-1.1,0.3c-0.7,0.4-1.3,0.9-1.9,1.4c-1.4,1.2-1,3.8,0.7,4.5c1.1,0.4,2.3-0.3,2.4-1.4
		C199.1,63.8,199.1,62.6,199.3,61.4z"/>
	<path class="st0" d="M98.4,61.8c1.4,0,2.6,0,3.6-0.9c0.3-0.3,0.6-0.1,0.7,0.2c0.2,0.6,0,1.1-0.5,1.4c-1.5,0.9-3.1,1.7-4.9,1.3
		c-0.9-0.2-1.8,0-2.7-0.4c-2.8-1.1-3.9-3.2-4.2-5.9c-0.4-3,0.3-5.8,2.3-8.2c2.3-2.7,6.5-2.9,9,0c0.6,0.7,1,1.5,1.4,2.3
		c0.5,1.2,0,1.8-1.2,1.8c-2.6,0.1-5.1,0.1-7.7,0.2c-1.3,0-1.5,0.2-1.5,1.5c0,1.4,0.5,2.8,0.7,4.1c0.1,0.5,0.4,0.8,0.8,1
		C95.5,61.4,96.9,62,98.4,61.8z M94.7,52.5c1.1-0.2,2.4-0.1,3.6-0.1c0.4,0,0.8-0.1,0.9-0.6c0.3-1.2-1.1-3-2.4-2.9
		c-1.4,0.1-2.6,0.7-3.2,2.1C93.1,52.1,93.3,52.5,94.7,52.5z"/>
	<path class="st0" d="M159.1,58.8c-0.3-4.5,3-8.3,7.5-8.6c1.2-0.1,2.4,0,3.6,0.1c0.7,0.1,1.3,0.5,1.8,1c0.6,0.6,0.7,1.2,0.1,1.9
		c-0.6,0.6-1.6,0.6-2.2,0c0,0-0.1-0.1-0.1-0.2c-1.8-2.1-4.7-2-6.3,0.4c-0.8,1.1-1,2.3-1,3.6c0,0.7,0,1.4-0.2,2.1
		c-0.4,1-0.1,1.9,0.4,2.8c1.7,2.7,4.4,4.1,7.9,2.3c0.2-0.1,0.5-0.2,0.8-0.3c0.6-0.1,0.8,0.3,0.6,0.8c-0.3,0.5-0.7,1-1.2,1.3
		c-2.4,1.4-4.9,1.6-7.3,0.4c-2.5-1.2-4-3.4-4.2-6.3C159.1,59.7,159.1,59.2,159.1,58.8z"/>
	<path class="st0" d="M112.3,27.1c-1.8-0.1-2,0.1-2.1,1.8c-0.2,2.6-0.2,5.3-0.4,7.9c-0.1,1.4,1.1,2.8,2.6,3c0.3,0,0.7,0,0.7,0.4
		c0,0.4-0.3,0.5-0.6,0.6c-0.7,0.3-1.4,0.6-2.2,0.8c-1.2,0.3-2.4-0.4-3-1.5c-0.7-1.3-0.7-2.6-0.4-3.9c0.6-2.7-0.2-5.3-0.1-8
		c0-0.8-0.4-1.1-1.2-1c-0.3,0-0.7,0.1-1,0.1c-0.4,0-0.9,0.1-1-0.4c-0.1-0.5,0.2-0.9,0.6-1.2c0.5-0.3,1-0.3,1.6-0.3
		c0.7,0,1-0.2,1.1-1c0.1-1.3,1.3-2.2,2.5-2.1c0.8,0.1,1,0.7,1.1,1.4c0.3,1.7,0.5,1.9,2.3,1.6c0.2,0,0.5-0.1,0.7-0.1
		c0.4,0,0.9-0.1,1,0.5c0.1,0.5-0.2,0.9-0.7,1C113.2,27.1,112.7,27.1,112.3,27.1z"/>
	<path class="st0" d="M101,31.8c-0.1,3.3-0.4,6.5,0,9.8c0.1,1,0.4,2,1.2,2.7c0.1,0.1,0.4,0.2,0.3,0.5c-0.1,0.2-0.3,0.2-0.5,0.2
		c-1.7-0.2-3.4,0-5.1,0.2c-0.3,0-0.6,0.1-0.7-0.2c-0.1-0.3,0-0.5,0.2-0.7c1.2-1,1.2-2.4,1.2-3.8c0-2.3,0-4.5,0-6.8
		c0-1-0.2-1.8-1.3-2.1c-0.3-0.1-0.7-0.2-0.8-0.6c0-0.5,0.5-0.5,0.8-0.7c0.7-0.5,1.5-0.9,2.2-1.4c0.4-0.3,0.8-0.6,1.3-0.7
		c0.7-0.2,1.2,0.1,1.2,0.9C101,30,101,30.9,101,31.8z"/>
	<path class="st0" d="M153.2,58.2c-0.1-1.6-0.3-3.1-0.2-4.7c0-0.7-0.5-0.8-0.9-1c-1-0.6-1-0.9-0.1-1.5c1.1-0.7,2.3-1.1,3.2-2
		c0.3-0.3,0.7-0.3,1.1,0c0.4,0.2,0.5,0.6,0.4,1c-0.4,4-0.4,8-0.4,12c0,1.2,0.3,2.2,1.3,2.9c0.2,0.2,0.6,0.3,0.4,0.7
		c-0.1,0.3-0.5,0.1-0.7,0.1c-1.6-0.2-3.1,0-4.7,0c-0.2,0-0.5,0-0.7,0.1c-0.2,0-0.5,0-0.6-0.3c-0.1-0.2,0.1-0.4,0.2-0.5
		c1.4-0.9,1.4-2.3,1.4-3.6C153,60.2,153.3,59.2,153.2,58.2z"/>
	<path class="st0" d="M156.8,44.4c0,0.9-0.9,2-1.7,2c-0.8,0-2-1.2-2-2c0-0.6,1.6-2,2.2-2C155.9,42.5,156.9,43.7,156.8,44.4z"/>
	<path class="st0" d="M97.1,24c0-0.8,1.1-2,1.9-2c0.7,0,1.6,1,1.6,1.9c0,0.8-0.9,1.9-1.6,1.9C98.2,25.8,97.1,24.7,97.1,24z"/>
</g>
</svg>
