<?xml version="1.0" encoding="utf-8"?>
<!-- Generator: $$$/GeneralStr/196=Adobe Illustrator 27.6.0, SVG Export Plug-In . SVG Version: 6.00 Build 0)  -->
<svg version="1.1" id="Capa_1" xmlns="http://www.w3.org/2000/svg" xmlns:xlink="http://www.w3.org/1999/xlink" x="0px" y="0px"
	 viewBox="0 0 250 100" style="enable-background:new 0 0 250 100;" xml:space="preserve">
<style type="text/css">
	.st0{fill:#777777;}
</style>
<g>
	<path class="st0" d="M145.3,82.7c-0.2,0.9-0.4,1.8-0.6,2.7c-0.7,2.2-1.8,2.5-3.7,1.2c-0.8-0.6-1.6-1.2-2.1-2
		c-0.4,0.3-0.3,0.6-0.3,0.8c-0.2,0.8-0.2,1.7-0.4,2.5c-0.6,2.4-1.4,2.7-3.5,1.4c-0.8-0.5-1.6-1.2-2.3-1.9c-0.4-0.5-0.7-0.4-0.9,0.2
		c-0.6,1.7-1.3,3.3-2,5c-0.7,1.7-1.6,3.2-3.1,4.3c-0.7,0.6-1.4,0.5-2.1-0.1c-1.1-0.9-2-1.9-2.6-3.2c-0.8-1.9-1.9-3.8-2.5-5.8
		c-0.2-0.8-0.5-0.8-1.1-0.2c-0.9,1-2,1.8-3.3,2.4c-1,0.5-1.6,0.3-2.1-0.7c-0.6-1.1-0.7-2.4-0.8-3.6c0-0.3,0.1-0.6-0.2-1
		c-0.9,0.7-1.6,1.6-2.6,2.2c-1.7,1-2.5,0.8-3.3-1c-0.5-1.1-0.5-2.3-0.8-3.4c-0.5,0.2-0.6,0.7-0.8,1c-1.3,2.5-4.4,3-6.4,1
		c-0.5-0.5-0.9-0.7-1.7-0.7c-1.4,0.1-2.6-0.5-3.4-1.7c-0.3-0.4-0.6-0.7-1.2-0.7c-1.6,0-2.7-0.9-3.5-2.3c-0.3-0.5-0.6-0.9-1.2-1
		c-1.2-0.3-2.2-1.1-2.7-2.3c-0.2-0.5-0.6-0.8-1.1-1c-1.7-0.5-2.9-1.7-3.1-3.6c-0.1-0.6-0.3-0.9-0.8-1.2c-1.5-0.9-2.3-2.3-2.1-4.1
		c0-0.5-0.1-0.8-0.5-1.1c-1.3-1.3-1.7-2.8-1.2-4.5c0.1-0.5,0.1-0.8-0.2-1.2c-1.1-1.4-1.3-2.9-0.5-4.5c0.2-0.5,0.2-0.8-0.1-1.3
		c-0.6-1.3-0.7-2.6-0.1-3.9c0.2-0.5,0.2-0.9,0-1.3c-0.8-1.6-0.6-3.1,0.4-4.5c0.3-0.5,0.4-0.9,0.2-1.4c-0.4-1.6,0-3,1.2-4.2
		c0.3-0.3,0.5-0.6,0.4-1c-0.3-1.6,0.2-2.9,1.4-4c0.7-0.7,0.4-0.9-0.3-1.1c-0.2-0.1-0.5-0.2-0.7-0.3c-1.1-0.3-1.4-1-1.6-2
		c-0.5-4-1.1-8-2.1-12c-1.2-4.5-2.8-8.8-5.5-12.6c-0.4-0.5-0.5-1-0.2-1.6c0.3-0.5,0.9-0.5,1.5-0.4c8,1.5,15.5,4.3,21.6,10
		c1.3,1.2,1.3,1.2,2.8,0.3c7-4,14.5-6.8,22.6-8c13.2-1.9,25.8,0.3,37.6,6.6c1.2,0.6,2.3,1.2,3.5,1.9c0.5,0.3,0.9,0.3,1.4-0.2
		c4.7-4.6,10.3-7.5,16.6-9.3c1.7-0.5,3.5-0.9,5.3-1.3c0.7-0.2,1.4-0.3,1.8,0.4c0.4,0.7-0.1,1.2-0.5,1.7c-2.6,3.6-4.1,7.7-5.2,12
		c-1,3.9-1.7,7.9-2.1,12c-0.1,1.3-0.6,2.1-2,2.5c-1.2,0.4-1.2,0.4-0.4,1.4c0.9,1,1.4,2.2,1.2,3.6c-0.1,0.5,0,0.9,0.4,1.2
		c1.2,1.2,1.5,2.7,1.1,4.3c-0.1,0.4-0.1,0.7,0.2,1.1c1.1,1.5,1.2,3.1,0.4,4.7c-0.2,0.5-0.1,0.9,0,1.3c0.6,1.3,0.6,2.6-0.1,3.8
		c-0.3,0.4-0.3,0.8,0,1.3c0.7,1.6,0.5,3.1-0.4,4.4c-0.3,0.4-0.4,0.8-0.3,1.4c0.5,1.6,0.1,3-1.1,4.1c-0.5,0.5-0.7,1-0.6,1.6
		c0.1,1.7-0.6,3-2,3.9c-0.5,0.3-0.7,0.6-0.8,1.2c-0.3,1.8-1.3,3.1-3.1,3.6c-0.6,0.2-0.9,0.5-1.2,1c-0.6,1.2-1.5,2.1-2.9,2.3
		c-0.5,0.1-0.7,0.3-0.9,0.8c-0.7,1.5-2,2.4-3.7,2.5c-0.6,0-0.8,0.4-1.1,0.7c-1,1.2-2.2,1.9-3.8,1.7c-0.4,0-0.6,0-0.8,0.3
		c-2.1,2.8-5.8,1.8-7-1.1C145.5,82.8,145.5,82.8,145.3,82.7z M158.7,55.3c0,2.2-0.5,3.8-1.3,5.4c-3,6-8.7,8.1-14.2,7.4
		c-1.8-0.2-3.3-1.2-4.7-2.4c-0.2-0.2-0.4-0.7-0.9-0.3c-0.5,0.4-0.8,1.9-0.4,2.4c3.5,5,7.1,9.8,10.4,14.9c0.8,1.2,2.2,1.2,3.2,0.1
		c0.2-0.3,0.4-0.7,0.6-1c0.3-0.6,0.6-0.7,1.2-0.5c1.9,0.7,2.7,0.3,3.4-1.6c0.3-0.8,0.6-0.9,1.4-0.7c1.7,0.4,2.7-0.2,3-2
		c0.1-0.8,0.5-1.1,1.3-1.1c1.8,0,2.3-0.4,2.6-2.4c0.1-0.5,0.3-0.9,0.9-0.9c2.4,0,3-0.7,2.8-3.1c-0.1-0.6,0.2-0.9,0.7-1.1
		c2-0.6,2.5-1.5,1.9-3.4c-0.2-0.8-0.1-1.2,0.6-1.5c1.5-0.8,1.9-2.1,1-3.6c-0.4-0.7-0.4-1.2,0.3-1.7c1.4-1.2,1.5-2.4,0.4-3.8
		c-0.5-0.6-0.5-1,0.1-1.5c1.2-1.2,1.2-2.4,0.1-3.6c-0.5-0.6-0.5-1.1,0.1-1.6c1.1-1.3,1-2.7-0.3-3.7c-0.7-0.5-0.7-1-0.3-1.7
		c0.8-1.4,0.6-2.6-0.7-3.4c-1-0.6-1.2-1.1-0.7-2.1c0.5-1,0-1.9-0.7-2.6c-0.6-0.7-1.4-1-2.2-0.6c-2.2,0.9-4.5,1.9-6.2,3.5
		c-3.2,3-6,6.5-7.8,10.7c-0.2,0.4-0.6,0.8-0.4,1.1c0.3,0.4,0.8-0.1,1.2-0.2c1.4-0.4,1.5-0.4,2.1,1C158.1,51.6,158.7,53.6,158.7,55.3
		z M91.2,55.7c-0.1-2.2,0.7-4.2,1.4-6.2c0.4-1,1-1.3,2-0.9c0.2,0.1,0.3,0.1,0.5,0.2c0.2,0,0.5,0.3,0.7,0c0.2-0.2,0-0.5-0.1-0.7
		C92.8,42,89,36.7,82.5,33.9c-1.4-0.6-2.2-0.6-3.1,0.2c-1,0.9-1.2,1.8-0.6,3.2c0.3,0.7,0.2,1-0.4,1.4c-1.6,1-1.9,2.1-1,3.7
		c0.4,0.7,0.3,1.1-0.3,1.6c-1.4,1.2-1.5,2.4-0.3,3.8c0.5,0.6,0.5,1,0,1.6c-1,1.1-0.9,2.4,0.1,3.5c0.6,0.6,0.7,1,0.1,1.7
		c-1.1,1.4-1,2.6,0.4,3.7c0.7,0.6,0.8,1,0.3,1.8c-0.9,1.5-0.5,2.8,1,3.5c0.8,0.4,0.9,0.8,0.6,1.7c-0.5,1.4-0.1,2.8,1.1,3
		c1.5,0.3,1.6,1.1,1.5,2.4c-0.1,1.3,0.9,2.3,2.2,2.1c1.2-0.1,1.5,0.4,1.6,1.4c0.2,1.2,0.9,1.9,2.1,1.9c1.1,0,1.7,0.3,1.9,1.5
		c0.2,1.4,1.3,2,2.6,1.6c1-0.3,1.4,0,1.7,1c0.5,1.4,1.5,2,2.8,1.4c1-0.4,1.5-0.2,1.9,0.8c0.3,0.8,1,1.3,1.9,1.4
		c0.9,0,1.4-0.5,1.9-1.2c0.5-0.7,0.9-1.4,1.4-2.1c2.9-4.1,5.7-8.1,8.6-12.1c0.6-0.9,0.6-1.6,0-2.4c-0.3-0.5-0.5-0.6-1-0.2
		c-0.6,0.6-1.3,1.1-2,1.5c-3.2,1.8-6.5,1.3-9.7,0.2C95,65.7,91.2,60.6,91.2,55.7z M125,18.9c-0.2,0-0.4,0-0.6,0
		c-4.1,0.3-7.7,3.6-8.4,7.7c-0.2,1-0.6,1.5-1.6,1.3c-0.2,0-0.4,0-0.6,0c-3.9,0.1-6.5,2.2-8.2,5.6c-0.4,0.8-0.3,1.5,0.4,2.2
		c2,1.8,3.8,3.8,5.4,5.9c5,6.6,7.8,14.1,9.7,22.1c1.2,4.8,1.7,9.7,2.3,14.7c0.1,0.8,0.3,1.1,1,0.7c0.7-0.4,1.4-0.2,2,0.2
		c0.8,0.5,1,0.2,1.1-0.6c0.3-3.6,0.6-7.2,1.1-10.7c2-12.3,6.2-23.6,15.5-32.5c0.5-0.4,0.5-0.8,0.3-1.4c-1.4-3.7-4.6-6-8.6-6.1
		c-1.7,0-1.7,0-2-1.7C133.1,22.1,129.1,18.9,125,18.9z M152.6,26.6c-0.6-4.5-4-8.2-8.9-8.4c-1.1,0-1.5-0.4-1.8-1.4
		c-1-4-3.6-6.7-7.5-7.8c-5.6-1.7-11.3-1.9-17-0.7c-4.9,1-8.3,3.8-9.6,8.8c-0.2,0.9-0.6,1.1-1.5,1.1c-4.5,0.1-8.2,3.3-9,7.7
		c-0.1,0.6,0,1.1,0.3,1.6c0.9,1.7,2.3,2.9,3.8,4c0.7,0.6,1,0.4,1.4-0.3c1.8-3.6,4.8-5.9,8.8-6.6c0.9-0.2,1.4-0.6,1.7-1.4
		c2.1-4.6,5.8-7.3,10.9-7.7c5.1-0.5,10.3,3,12.3,7.9c0.3,0.7,0.7,1.1,1.4,1.2c1.5,0.3,2.9,0.7,4.2,1.5c2.1,1.3,3.8,3,4.9,5.3
		c0.2,0.4,0.3,1,1,0.5c1.1-0.9,2.3-1.6,3.1-2.7C151.8,28.3,152.4,27.5,152.6,26.6z M101.8,45.9c0-3.5-0.1-6.7,0-9.9
		c0-1.1-0.3-1.7-1.1-2.3c-1.6-1.2-3.2-2.3-4.3-4.1c-1.8-2.8-3-5.9-3.9-9.1c-0.7-2.6-1.9-5-4-6.8c-3.8-3.2-8.2-5.5-12.9-7
		c-1.5-0.5-3-1-4.7-1.2C71,5.8,71.1,6,71.2,6.2C72.8,9,74,12,74.9,15.1c1.2,4.3,2,8.6,2.5,13c0.1,0.9,0.5,1.4,1.4,1.8
		c1.5,0.6,2.9,1.3,4.3,2c6.5,3.2,12.6,7,17.4,12.5C100.8,44.8,101.2,45.2,101.8,45.9z M148.7,45.2c0.4,0,0.5-0.3,0.6-0.5
		c2-2.3,4.1-4.5,6.6-6.2c4.6-3.3,9.5-6.1,14.7-8.3c1.3-0.5,2-1.2,2.1-2.7c0-1,0.2-2,0.4-3c0.8-5.2,2-10.4,4.1-15.2
		c0.5-1.2,1.2-2.4,1.8-3.6c-0.3-0.2-0.5-0.1-0.7-0.1c-6.3,1.5-12,4-16.9,8.2c-1.5,1.3-2.7,2.9-3.3,4.8c-0.5,1.5-0.9,3-1.4,4.5
		c-1,2.8-2.2,5.5-4.1,7.8c-0.9,1.1-2.1,2.1-3.1,3.1c-0.6,0.5-0.8,1.1-0.8,1.9c0,2.8,0,5.6,0,8.5C148.5,44.6,148.4,44.9,148.7,45.2z
		 M107.2,80.7c0,1.2,0,2.3,0.3,3.4c0.2,0.8,0.5,0.9,1.1,0.4c1.1-1,2-2.2,2.9-3.4c0.4-0.5,0.8-1.1,1.6-0.8c0.7,0.3,0.8,0.9,0.8,1.6
		c0.1,1.6,0.2,3.2,0.3,4.8c0.1,1,0.4,1.1,1.2,0.4c0.8-0.6,1.4-1.3,2.1-2c0.7-0.7,1.1-2,2.5-1.5c0,0,0.1,0,0.2-0.1
		c0.8-0.6,0.8-2.2-0.1-2.6c-1.6-0.8-2.4-2-2.8-3.7c-0.5-2.4-1.4-4.6-2.5-6.8c-0.7-1.3-0.7-1.3-1.5-0.2c-1.6,2.3-3.2,4.7-5,7
		C107.5,78.3,107,79.5,107.2,80.7z M143.1,81.2c-0.1-0.7,0.2-1.6-0.4-2.5c-2-2.8-4-5.6-6-8.5c-0.1-0.2-0.3-0.5-0.5-0.4
		c-0.3,0-0.3,0.4-0.4,0.6c-0.6,1.9-1.3,3.8-1.7,5.7c-0.5,2.3-1.4,4.2-3.8,5.1c-0.1,0-0.1,0.1-0.2,0.1c-0.4,0.2-0.6,0.6-0.3,1
		c0.3,0.4,0.1,1.3,1,1.2c0.7-0.1,1.1,0.2,1.5,0.7c0.9,1.1,1.7,2.1,2.8,2.9c0.7,0.5,1,0.4,1.1-0.5c0.1-1.2,0.2-2.5,0.3-3.7
		c0-0.6,0-1.2,0.1-1.8c0.2-1,1.1-1.3,1.8-0.5c0.4,0.4,0.8,0.9,1.1,1.4c0.7,0.9,1.4,1.8,2.3,2.6c0.5,0.4,0.9,0.4,1-0.3
		C143,83.3,143.1,82.4,143.1,81.2z M103.5,36.2c0,0.3-0.1,0.4-0.1,0.6c0,3.5,0,7,0,10.5c0,0.5,0.2,0.8,0.4,1.2
		c1.2,1.6,2.3,3.2,3.5,4.7c0.9,1.3,1.8,2.6,2.8,4c0.1-0.2,0.1-0.3,0.1-0.4c0-4.2,0-8.4,0-12.6c0-0.4-0.1-0.8-0.3-1.1
		C108.1,40.6,106,38.4,103.5,36.2z M92.6,55.4c0,3.7,1.7,6.3,3.9,8.5c2.3,2.2,5.3,2.9,8.4,3c2.5,0.1,4.5-1,6.1-2.8
		c0.7-0.9,0-1.5-0.5-2.1c-0.5-0.6-0.7,0.3-1,0.5c-3.1,3-8,2.9-11-0.1c-2.7-2.7-2.9-7-0.5-10.3c0.5-0.7,0.4-0.9-0.4-1.2
		c-1-0.3-1.9-0.6-2.8-0.9c-0.6-0.2-0.9,0-1.1,0.6C93.1,52.3,92.6,54,92.6,55.4z M157.3,55.4c-0.1-1.5-0.5-3.1-1.1-4.7
		c-0.2-0.6-0.6-0.8-1.2-0.6c-0.9,0.3-1.8,0.6-2.7,0.9c-0.9,0.2-1,0.5-0.4,1.2c2.5,3.2,2.1,7.9-0.8,10.5c-3,2.7-7.8,2.7-10.6-0.1
		c-1-1-1.1-0.9-1.7,0.4c-0.3,0.6,0,1,0.4,1.4c2.1,2.1,4.6,2.7,7.5,2.4C152.5,66.2,157.3,61.2,157.3,55.4z M95.9,24.1
		c0.2-0.3,0.3-0.4,0.4-0.5c1.7-4.1,4.8-6.5,9.2-7.1c0.7-0.1,0.9-0.5,1.1-1c0.7-1.9,1.7-3.7,3.2-5.1c0.2-0.2,0.5-0.4,0.6-0.7
		c0,0-0.1-0.1-0.1-0.1c-5.8,1.3-11.1,4-16.3,6.9c-0.3,0.2-0.4,0.4-0.3,0.7C94.3,19.4,95.1,21.7,95.9,24.1z M139.7,9.7
		c1.8,1.8,3.1,3.8,3.9,6.1c0.2,0.5,0.5,0.6,1,0.7c4.1,0.6,7,2.8,8.9,6.5c0.1,0.3,0.2,0.7,0.6,0.9c0.4-0.4,0.4-0.9,0.6-1.3
		c0.5-1.6,1-3.3,1.6-4.9c0.3-0.7,0.2-1-0.5-1.3c-2-1-3.9-2.1-5.9-3C146.6,11.6,143.2,10.4,139.7,9.7z M140.9,55.5
		c2-2.9,3.9-5.5,5.9-8.1c0.2-0.3,0.2-0.7,0.2-1c0-3.2,0-6.5,0-9.7c0-0.2,0.1-0.6-0.2-0.7c-0.3-0.2-0.5,0.1-0.7,0.3
		c-1.5,1.3-2.6,2.8-4,4.2c-1,1-1.4,2.1-1.3,3.6C141,47.8,140.9,51.5,140.9,55.5z M128.3,86.4c0-1.8-0.3-3.4-1.8-4.6
		c-0.8-0.6-1.5-0.7-2.3-0.1c-1,0.7-1.6,1.7-1.7,2.8c-0.4,3.3,0.1,6.4,2,9.2c0.7,1.1,1,1.1,1.8,0C127.7,91.5,128.1,89,128.3,86.4z
		 M103.6,51.9c-3.2-4.5-6.7-8.9-11.4-12c2.4,2.8,4,6,5.4,9.4c0.1,0.4,0.4,0.5,0.8,0.7C100.1,50.5,101.9,51.2,103.6,51.9z
		 M157.6,39.9c-3.5,2-9.6,8.9-11.4,11.9c1.8-0.7,3.6-1.4,5.4-2.1c0.3-0.1,0.5-0.4,0.6-0.7C153.7,45.8,155.3,42.6,157.6,39.9z
		 M139.2,44.7c-1.2,1.5-1.8,2.9-1.7,4.7c0.1,3.3,0,6.6,0,9.8c0,0.4-0.1,0.8,0.2,1.1c1.3-1.8,1.5-2.1,1.5-3
		C139.2,53.1,139.2,49,139.2,44.7z M111.8,45.9c0,4.5,0,8.6,0,12.8c0,1.3,0.7,2.3,1.5,3.3c0-0.3,0-0.6,0-0.8c0-3.8,0-7.6,0-11.4
		C113.3,48.2,112.6,47.2,111.8,45.9z M132.7,72.6c0.6-1.7,1.4-3.4,1-5.3c-0.2-1-0.3-2-0.4-3.1c-0.2-1.7-0.4-3.3-0.5-5.2
		C130.9,63.7,131.5,68.1,132.7,72.6z M135.1,65.4c0.6-0.7,0.9-1.5,0.9-2.5c0-3.7,0-7.4,0-11.1c0-0.3,0.1-0.6-0.2-1
		C133.2,55.6,134.8,60.6,135.1,65.4z M115.6,66.7c0.6-3.7,0.9-7.1,0.8-10.6c0-1.4-0.9-2.6-1.6-3.8c0,4.2,0,8.4,0,12.6
		C114.8,65.5,115.1,66,115.6,66.7z M118.2,72.8c1.3-4.3,1.5-8.3-0.2-12.3c-0.3,2.6-0.5,5.1-1,7.5C116.6,69.8,117.6,71,118.2,72.8z
		 M130.6,70.8c-0.1,0-0.2,0-0.2,0c-0.2,2.5-0.4,4.9-0.7,7.4c0,0.2-0.1,0.5,0.1,0.6c0.3,0.2,0.5,0,0.7-0.2c1.1-0.7,1.4-2,1.3-3.1
		C131.6,73.9,131,72.4,130.6,70.8z M120.5,71.3c-0.1,0-0.2,0-0.2,0c-0.3,1.4-0.8,2.7-1,4.1c-0.2,1.2,0.7,3,1.5,3.4
		c0.5,0.3,0.8,0.2,0.7-0.4C121.1,76,120.8,73.6,120.5,71.3z"/>
	<path class="st0" d="M160.3,53.4c2.2,3.6,1.7,9.3-1.8,13.1c-3.8,4.1-9.6,5.1-13.5,3.1c4.5,0.2,8.4-1.3,11.5-4.4
		C159.7,61.9,160.9,57.9,160.3,53.4z"/>
	<path class="st0" d="M167.8,35.4c0.7,0.1,1.2,0.5,1.4,1.1c0.3,0.6,0,1.1-0.4,1.5c-0.9,0.8-2,1.2-3,1.8c-2,1.1-4,2.2-6,3.3
		c-0.3,0.1-0.6,0.5-0.8,0.1c-0.3-0.3,0.2-0.6,0.4-0.8c2.2-2.1,4.4-4.1,6.7-6.2C166.5,35.9,167,35.4,167.8,35.4z"/>
	<path class="st0" d="M169,48.6c-1.5-0.1-3.1-0.1-4.6-0.2c-0.3,0-0.7,0.1-0.8-0.4c0-0.4,0.4-0.3,0.7-0.4c1.9-0.4,3.8-0.7,5.7-1
		c0.3-0.1,0.7-0.1,1.1,0c0.5,0.1,0.9,0.5,0.9,1c0,0.6-0.4,0.9-0.9,1C170.4,48.7,169.7,48.6,169,48.6z"/>
	<path class="st0" d="M164,45.1c-0.2,0-0.4,0.1-0.4-0.2c-0.1-0.2,0.1-0.3,0.2-0.4c2-1.1,4-2.2,6-3.3c0.7-0.3,1.2,0,1.4,0.7
		c0.3,0.7-0.2,1.1-0.8,1.3c-1.3,0.4-2.6,0.8-3.9,1.1C165.7,44.6,164.8,44.9,164,45.1z"/>
	<path class="st0" d="M164.9,52.4c1.9,0.2,3.7,0.5,5.6,0.7c0.3,0,0.6,0.1,0.9,0.3c0.5,0.3,0.7,0.7,0.5,1.3c-0.2,0.5-0.6,0.9-1.2,0.7
		c-2.2-0.8-4.4-1.6-6.5-2.4c-0.2-0.1-0.4-0.2-0.3-0.4C164.1,52.1,164.6,52.5,164.9,52.4z"/>
	<path class="st0" d="M171.6,60.9c0,0.7-0.8,1.2-1.5,0.8c-0.8-0.5-1.6-1-2.4-1.6c-0.8-0.6-1.7-1.1-2.5-1.7c-0.2-0.1-0.5-0.3-0.4-0.6
		c0.1-0.3,0.4-0.1,0.6,0c1.7,0.6,3.4,1.3,5.1,2C171,60,171.5,60.3,171.6,60.9z"/>
	<path class="st0" d="M168.7,67.1c0,0.4-0.2,0.7-0.5,0.8c-0.4,0.2-0.7,0.1-1-0.2c-0.9-0.9-1.7-1.8-2.6-2.7c-0.3-0.4-0.7-0.7-1-1.1
		c-0.1-0.1-0.1-0.3,0-0.4c0.1-0.2,0.3-0.1,0.4,0c1.5,1,3.1,1.8,4.5,3.1C168.6,66.7,168.7,66.9,168.7,67.1z"/>
	<path class="st0" d="M161.6,67.7c1,1.2,2.2,2.1,3.1,3.5c0.2,0.3,0,0.6-0.3,0.8c-0.3,0.2-0.7,0.1-0.8-0.2c-0.8-1.3-1.5-2.6-2.3-3.9
		C161.3,67.9,161.5,67.8,161.6,67.7z"/>
	<path class="st0" d="M89.7,53.3c-0.6,4.5,0.5,8.5,3.8,11.8c3.1,3.2,7,4.6,11.5,4.4c-2.9,2-9.2,1.3-13.1-2.6
		C87.6,62.8,87.5,56.4,89.7,53.3z"/>
	<path class="st0" d="M82.1,35.4c0.5,0.1,1,0.2,1.4,0.6c2.4,2.2,4.8,4.4,7.2,6.6c0.2,0.2,0.4,0.4,0.2,0.6c-0.2,0.3-0.5,0.1-0.7,0
		c-2.9-1.6-5.8-3.2-8.6-4.8c-0.6-0.4-1.3-0.9-1-1.8C80.9,35.9,81.4,35.4,82.1,35.4z"/>
	<path class="st0" d="M79,55.4c-0.6-0.1-0.9-0.3-1-0.9c-0.1-0.7,0.3-1.1,0.9-1.2c1.3-0.2,2.6-0.4,3.9-0.6c0.9-0.1,1.8-0.2,2.8-0.3
		c0.2,0,0.5,0,0.5,0.2c0,0.2-0.1,0.3-0.3,0.4c-2.1,0.8-4.3,1.6-6.4,2.3C79.2,55.4,79.1,55.4,79,55.4z"/>
	<path class="st0" d="M86.5,44.7c-0.1,0.5-0.4,0.5-0.6,0.4c-2.2-0.6-4.3-1.2-6.4-1.8c-0.6-0.2-1-0.7-0.7-1.4
		c0.3-0.7,0.8-0.9,1.5-0.6c2,1,3.9,2.1,5.9,3.2C86.3,44.6,86.4,44.6,86.5,44.7z"/>
	<path class="st0" d="M80.7,48.7c-0.5,0-1.1,0-1.6,0c-0.7,0-1.2-0.3-1.1-1.1c0.1-0.7,0.6-1.1,1.3-1c1.2,0.1,2.4,0.4,3.6,0.6
		c0.9,0.2,1.8,0.4,2.7,0.6c0.3,0.1,0.7,0,0.6,0.4c0,0.4-0.4,0.3-0.7,0.3C83.9,48.5,82.3,48.6,80.7,48.7
		C80.7,48.6,80.7,48.6,80.7,48.7z"/>
	<path class="st0" d="M79.4,61.9c-0.5,0-0.8-0.2-1-0.5c-0.2-0.4-0.1-0.7,0.2-1c0.2-0.2,0.5-0.4,0.8-0.5c1.7-0.7,3.5-1.3,5.2-2
		c0.2-0.1,0.4-0.2,0.6,0c0.1,0.2-0.1,0.4-0.3,0.5c-1.7,1.1-3.3,2.2-5,3.3C79.7,61.9,79.5,61.9,79.4,61.9z"/>
	<path class="st0" d="M86.5,63.7c-0.1,0.2-0.2,0.3-0.4,0.5c-1.1,1.1-2.2,2.2-3.3,3.3c-0.4,0.4-0.9,0.7-1.4,0.2
		c-0.5-0.6-0.2-1.1,0.3-1.4c1.4-0.9,2.7-1.8,4.1-2.7C86.1,63.4,86.3,63.3,86.5,63.7z"/>
	<path class="st0" d="M88.7,68c-0.7,1.3-1.5,2.6-2.2,3.8c-0.2,0.3-0.6,0.5-0.9,0.2c-0.3-0.2-0.4-0.6-0.2-0.9c0.9-1.2,2-2.3,3-3.3
		C88.5,67.8,88.6,67.9,88.7,68z"/>
	<path class="st0" d="M125.2,22.7c0.2,0,0.4,0,0.6,0c3,0.1,4.5,1.6,4.6,4.6c0.1,1.3-0.2,2.5-0.5,3.7c-1.4,5.2-2.8,10.3-4.3,15.4
		c-0.1,0.3-0.1,0.7-0.5,0.8c-0.4,0-0.4-0.5-0.4-0.7c-1.5-5.3-2.9-10.6-4.4-15.9c-0.2-0.6-0.3-1.2-0.4-1.8
		C119.6,24.6,121.3,22.5,125.2,22.7z"/>
	<path class="st0" d="M127.1,51.2c-0.3-0.7,0-1.4,0.2-2c0.8-4.7,2.3-9.1,5-13.1c0.9-1.3,2-2.5,3.3-3.4c1-0.7,2.1-1,3.3-1
		c2,0.1,3.1,1.9,2.4,3.7c-0.4,1.1-1,2-1.8,2.8c-1.7,1.8-3.6,3.4-5.4,5c-2.6,2.2-5,4.6-6.6,7.7C127.5,51,127.4,51.1,127.1,51.2z"/>
	<path class="st0" d="M122.9,51.4c-1-1-1.3-2-2-2.9c-2-2.8-4.7-4.9-7.2-7.1c-1.3-1.1-2.6-2.4-3.8-3.6c-0.4-0.4-0.7-0.9-1-1.4
		c-0.8-1.4-0.8-2.7,0-3.7c1-1.1,2.3-1.2,3.6-0.8c1.7,0.5,2.9,1.6,4,2.9c2.8,3.4,4.4,7.4,5.5,11.6C122.5,47.9,122.9,49.5,122.9,51.4z
		"/>
	<path class="st0" d="M125.2,58.9c-1.6-0.1-2.7-1.1-3.5-2.4c-0.4-0.5-1.1-1.4-0.7-1.8c0.5-0.5,1,0.5,1.5,0.8c2.1,1.4,4,1.3,6.1-0.5
		c0.2-0.2,0.5-0.7,0.9-0.4c0.3,0.3,0,0.7-0.2,1C128.5,57.3,127.3,58.7,125.2,58.9z"/>
	<path class="st0" d="M125.2,64.9c-1.3,0-3-1.5-3.3-2.8c0-0.2-0.1-0.4,0.1-0.5c0.2-0.1,0.4,0.1,0.6,0.2c0.8,0.7,1.6,1.1,2.7,1.1
		c1,0,1.8-0.5,2.6-1.1c0.2-0.2,0.4-0.4,0.6-0.2c0.2,0.2,0,0.5-0.1,0.7C127.8,63.8,126.5,64.9,125.2,64.9z"/>
	<path class="st0" d="M127.7,67.4c-0.1,1.5-1.2,2.6-2.4,2.7c-1,0.1-2.3-1-2.5-2c-0.1-0.3,0-0.6,0.3-0.4
		C124.7,68.9,126.2,68.8,127.7,67.4z"/>
	<path class="st0" d="M93.6,26.7c0,0.8-0.3,1.7-1.1,2.4c-0.7,0.7-1.3,1.5-1.8,2.4c-0.3,0.6-0.8,0.8-1.4,0.7
		c-1.8-0.2-3.7-0.4-5.5-0.7c-2.1-0.3-3.6-2-3.6-3.7c0-0.6,0.1-1.1,0.5-1.5c0.7-0.7,0.3-1.1-0.2-1.5c-1.5-1.2-2.8-2.7-3.6-4.5
		c-0.5-1.1-0.8-2.3-0.7-3.5c0.1-3.3,3.1-5,6-3.4c2.7,1.5,4.6,3.9,6.1,6.6c0.4,0.8,0.8,1.2,1.9,1.1c1.3-0.1,2.2,1,2.7,2.1
		C93.4,24.2,93.7,25.3,93.6,26.7z M88.7,29.3c-0.1-1.6-0.3-2.9-0.2-4.3c0.1-1.8-0.5-3.3-1.4-4.8c-1.3-2.2-2.9-4.2-5.2-5.6
		c-1.1-0.6-2.3-0.8-3.4-0.2c-1.1,0.6-1.2,1.6-1.2,2.8c0,2.8,1.4,4.9,3.5,6.6C83.4,25.6,86,27.3,88.7,29.3z M88.2,30.7
		c-1.5-1.7-3.2-3.2-5.2-4.3c-0.7-0.4-1.2,0.1-1.5,0.6C81,28.1,81.5,29.4,83,30C84.7,30.7,86.4,30.7,88.2,30.7z M90.2,30.2
		c0.5-0.5,0.8-1,1.2-1.4c1.3-1.5,1.5-3.8,0.3-5.5c-0.3-0.4-0.6-0.7-1-1c-0.7-0.4-1.2-0.2-1.2,0.7c0,0.9,0,1.9,0.1,2.8
		C89.8,27.2,89.6,28.7,90.2,30.2z"/>
	<path class="st0" d="M94.9,35.3c-1.1,0-2.1-1.1-2.1-2.2c0-1.1,1.1-2.1,2.2-2.1c1,0,2,1.1,2,2.1C97.1,34.2,96,35.3,94.9,35.3z"/>
	<path class="st0" d="M97.4,37.2c0.1-0.8,0.6-1.3,1.3-1.2c0.8,0.1,1.2,0.6,1.2,1.4c-0.1,0.7-0.6,1.2-1.3,1.1
		C97.8,38.4,97.4,37.9,97.4,37.2z"/>
	<path class="st0" d="M173.9,17c-0.1,2.7-1.8,5.1-4.2,7.1c-0.7,0.6-0.9,1-0.3,1.8c1.1,1.5,0.1,3.7-1.9,4.6c-1,0.5-2.1,0.5-3.2,0.7
		c-1.2,0.2-2.4,0.2-3.6,0.4c-0.6,0.1-1-0.1-1.3-0.6c-0.5-1-1.2-1.8-1.9-2.5c-0.7-0.6-0.9-1.3-0.9-2.2c0-1.4,0.2-2.7,0.9-3.9
		c0.7-1.2,1.7-2.1,3.2-1.7c0.7,0.1,0.8-0.4,1-0.8c1.3-2.5,3-4.7,5.4-6.4c0.8-0.6,1.6-1,2.6-1.1C172.4,12.3,173.9,13.7,173.9,17z
		 M161.4,28.9c0.9-0.8,1.8-1.4,2.7-2.1c2.1-1.6,4.6-2.8,6.4-4.9c1.5-1.8,2.5-3.7,2.3-6.1c-0.1-1.5-1-2.3-2.5-2.4
		c-0.9,0-1.8,0.2-2.5,0.7c-1.1,0.7-2,1.6-2.8,2.6c-1.3,1.6-2.7,3.4-3.1,5.4C161.4,24.3,161.6,26.5,161.4,28.9z M160,29.5
		c0,0,0.1-0.1,0.1-0.1c0.5-2.3,0.4-4.7,0.5-7.1c0.1-0.8-0.7-0.7-1.2-0.4c-0.8,0.4-1.4,1.2-1.6,2.1C157.1,26.4,158.2,28.1,160,29.5z
		 M161.8,30.4c1.5-0.2,2.8-0.3,4.1-0.4c0.8-0.1,1.5-0.4,2.1-1c0.7-0.6,0.9-1.3,0.7-2.1c-0.3-1-0.9-1.3-1.8-0.7
		c-1,0.7-2.1,1.4-3.1,2.1C163.1,28.8,162.4,29.3,161.8,30.4z"/>
	<path class="st0" d="M155,35.3c-1,0-2.1-1-2.1-2c0-1.1,1-2.2,2.1-2.2c1.1,0,2.1,1,2.1,2.1C157,34.3,156.1,35.3,155,35.3z"/>
	<path class="st0" d="M152.5,37.3c-0.1,0.7-0.5,1.2-1.3,1.2c-0.7,0-1.3-0.5-1.3-1.3c0-0.7,0.5-1.2,1.3-1.2
		C152.1,36,152.5,36.5,152.5,37.3z"/>
</g>
</svg>
