<?xml version="1.0" encoding="utf-8"?>
<!-- Generator: $$$/GeneralStr/196=Adobe Illustrator 27.6.0, SVG Export Plug-In . SVG Version: 6.00 Build 0)  -->
<svg version="1.1" id="Capa_1" xmlns="http://www.w3.org/2000/svg" xmlns:xlink="http://www.w3.org/1999/xlink" x="0px" y="0px"
	 viewBox="0 0 250 100" style="enable-background:new 0 0 250 100;" xml:space="preserve">
<style type="text/css">
	.st0{fill-rule:evenodd;clip-rule:evenodd;fill:#777777;}
</style>
<g id="Layer_2">
</g>
<path class="st0" d="M116.6,36.2l5.8,13.9l5.8-13.9h4.1L122.8,59l-0.4,0.4l-0.4-0.4l-9.4-22.8H116.6z M96,36.2
	c2.2,0,4.3,1.2,5.5,2.8l-2.2,2.2h-0.7c-0.5-1-1.5-1.6-2.6-1.6c-1.3,0-2.5,1.1-2.6,2.4c-0.1,1,0.4,1.7,1.3,2.2
	c0.9,0.6,1.3,0.8,2.5,1.5c1.4,0.7,4.8,2.2,4.8,6c0,3.8-3.2,7.3-7.2,7.3c-0.5,0-1.5-0.1-2.2-0.2c-2-0.5-3.2-1.2-4.5-2.8l2.8-2.9
	l1,0.8c0.4,0.3,1.4,1,2.3,1.2c1.9,0.3,3.1-1,3.4-2.2c0.2-1-0.1-2.4-1.6-3.2c0,0-2.8-1.6-4-2.3c-1.3-0.7-2.6-2.7-2.6-5.1
	c0-1.8,0.8-3.5,2.1-4.7C92.4,36.9,93.8,36.2,96,36.2L96,36.2z M223.7,35.8l14.7,14.7V36.7l0.4-0.4h2.9l0.4,0.4V59h-0.7L227,44.5v14
	l-0.4,0.4h-2.9l-0.4-0.4V36.2L223.7,35.8z M180.3,36.2v3.4l-0.4,0.4h-3.3v19h-3.8V40h-3.8v-3.3l0.4-0.4H180.3z M194.2,36.2v3.4
	l-0.4,0.4h-3.3v19h-3.8V40h-3.8v-3.3l0.4-0.4H194.2z M18.5,36.2v19h7.6V59H14.7V36.7l0.4-0.4H18.5z M40,36.2
	c6.3,0,11.4,5.1,11.4,11.4S46.3,59,40,59s-11.4-5.1-11.4-11.4S33.7,36.2,40,36.2z M208.1,36.2c6.3,0,11.4,5.1,11.4,11.4
	S214.4,59,208.1,59c-6.3,0-11.4-5.1-11.4-11.4S201.8,36.2,208.1,36.2z M59.8,36.2l0.4,0.4v14.7c0,2.1,1.7,3.8,3.8,3.8
	s3.8-1.7,3.8-3.8V36.7l0.4-0.4h2.9l0.4,0.4v14.7c0,4.2-3.4,7.6-7.6,7.6c-4.2,0-7.6-3.4-7.6-7.6V36.7l0.4-0.4
	C56.9,36.2,59.8,36.2,59.8,36.2z M83,36.2v22.3L82.5,59h-3.3V36.7l0.4-0.4H83z M139.4,36.2l0.4,0.4v14.7c0,2.1,1.7,3.8,3.8,3.8
	c2.1,0,3.8-1.7,3.8-3.8V36.7l0.4-0.4h2.9l0.4,0.4v14.7c0,4.2-3.4,7.6-7.6,7.6c-4.2,0-7.6-3.4-7.6-7.6V36.7l0.4-0.4
	C136.5,36.2,139.4,36.2,139.4,36.2z M162.6,36.2v22.3l-0.4,0.4h-3.3V36.7l0.4-0.4H162.6z M40,40c-4.2,0.4-7.2,4.1-6.8,8.3
	s4.1,7.2,8.3,6.8l0,0c4.2,0,7.6-3.4,7.6-7.6S45.7,40,41.5,40H40z M208.1,40c-4.2,0-7.6,3.4-7.6,7.6s3.4,7.6,7.6,7.6
	c4.2,0,7.6-3.4,7.6-7.6S212.3,40,208.1,40z"/>
</svg>
