<?xml version="1.0" encoding="utf-8"?>
<!-- Generator: $$$/GeneralStr/196=Adobe Illustrator 27.6.0, SVG Export Plug-In . SVG Version: 6.00 Build 0)  -->
<svg version="1.1" id="Capa_1" xmlns="http://www.w3.org/2000/svg" xmlns:xlink="http://www.w3.org/1999/xlink" x="0px" y="0px"
	 viewBox="0 0 250 100" style="enable-background:new 0 0 250 100;" xml:space="preserve">
<style type="text/css">
	.st0{fill:#777777;}
</style>
<g>
	<path class="st0" d="M137.4,18.8c0.5-0.3,1-0.6,1.5-0.9c0.1-0.1,0.2-0.1,0.4-0.2c0.1-0.1,0.3-0.1,0.4,0c0.1,0.2,0,0.3-0.1,0.4
		c-0.4,0.3-0.9,0.6-1.3,0.9c0.3,0.2,0.5,0.2,0.8,0.1c0.1,0,0.3-0.1,0.4,0.1c0.1,0.2-0.1,0.2-0.3,0.3c-0.1,0.1-0.3,0.2-0.4,0.3
		c-0.4,0.2,0.2,0.5-0.1,0.6c-0.2,0.1-0.5,0.2-0.5,0.5c0,0.3,0.1,0.3,0.4,0.2c0.6-0.2,1.1-0.6,1.5-1.2c0.2-0.3,0.3-0.5,0.4-0.8
		c0.1-0.1,0.1-0.2,0.2-0.2c0.2,0,0.1,0.2,0.1,0.3c-0.1,1.1-0.8,2.1-1.9,2.4c-0.4,0.1-0.8,0.2-1.3,0.4c-0.1,0-0.3,0.1-0.4,0.2
		c0,0.2,0.2,0.2,0.3,0.3c0.8,0.6,1.3,1.4,1.8,2.3c1.6,2.7,2.4,5.6,2.8,8.7c0.1,1,0.5,2,0.5,3c0.1,0.9,0.3,1.9,0.1,2.8
		c0,0.3,0.1,0.4,0.3,0.5c1.4,0.4,2.8,0.8,4.2,1.3c0.5,0.2,1.1,0.5,1.6,0.8c0.6,0.4,0.5,1.4-0.1,2c-0.8,0.8-1.6,1.7-2.2,2.7
		c-1.2,1.7-2.3,3.5-3.1,5.5c-0.2,0.5-0.4,1-1,1.1c-0.2,0-0.1,0.2-0.1,0.3c0,1-0.8,1.3-1.4,1.8c-0.1,0.1-0.3,0-0.4-0.2
		c0-0.1-0.1-0.3-0.1-0.5c-0.2,0.1-0.1,0.4-0.4,0.4c-0.2-0.1-0.2-0.3-0.2-0.5c0.1-0.7-0.2-1.3-0.2-2c0-0.7,0.2-1,0.9-1.2
		c0.3-0.1,0.5-0.2,0.4-0.6c-0.1-0.4,0.2-0.7,0.6-0.9c2.1-1.4,3-3.6,3.7-5.8c0.1-0.4-0.1-0.4-0.4-0.4c-1,0.2-2,0.3-3,0.5
		c-0.1,0-0.2,0-0.4,0c-0.1,0-0.3,0-0.3-0.2c0-0.2,0.1-0.2,0.2-0.3c0.3-0.1,0.5-0.2,0.8-0.3c-0.2-0.1-0.5,0-0.5-0.3
		c0-0.2,0.2-0.3,0.4-0.3c0.4-0.2,0.9-0.1,1.4-0.5c-0.6-0.3-1.1-0.4-1.7-0.4c-0.3,0-0.4,0.2-0.6,0.3c-0.3,0.4-0.6,0.8-1,1.2
		c-0.1,0.1-0.3,0.3-0.4,0.1c-0.2-0.1,0-0.3,0.1-0.4c0.8-1.4,1.5-2.9,1.8-4.6c0.1-0.6,0.1-1.1-0.1-1.7c-0.1,0.3-0.1,0.6-0.2,0.9
		c-0.1,0.1-0.1,0.3-0.2,0.3c-0.2,0-0.2-0.2-0.2-0.3c0-0.9-0.1-1.8-0.2-2.7c-0.2-1.8-0.3-3.6-1.1-5.3c0-0.1-0.1-0.1-0.1-0.2
		c0.2,1,0.2,1.9,0.4,2.9c0.1,0.3,0.3,0.7-0.1,0.8c-0.3,0.1-0.3-0.4-0.3-0.6c-0.5-1.7-1.1-3.3-1.7-5c-0.3-0.6-0.5-1.2-0.8-1.9
		c-0.1-0.3-0.3-0.3-0.5,0c-0.3,0.4-0.6,0.8-0.9,1.3c-0.1,0.1-0.2,0.2,0.1,0.3c0.8,0.2,1.1,0.9,1.5,1.5c1,1.8,1.6,3.7,1.8,5.7
		c0.1,1.2,0.3,2.4,0.4,3.7c0,0.2,0.1,0.5-0.2,0.5c-0.2,0.1-0.3-0.2-0.4-0.3c-0.3-0.3-0.5-0.7-0.8-0.9c-0.1,0.2,0.1,0.3,0.1,0.5
		c0.8,2,0.7,4,0.1,6c-0.4,1.3-1,2.6-1.6,3.8c0,0.1-0.1,0.1-0.1,0.2c-0.1,0.1-0.2,0.2-0.3,0.2c-0.2,0-0.1-0.2-0.2-0.3
		c0-0.1,0-0.3-0.1-0.5c-0.1,0.3-0.2,0.7-0.3,1c-0.5,2-1.7,3.7-2.6,5.5c-0.5,1.1-0.8,2.2-1.1,3.4c-0.6,2.4-0.9,4.8-0.8,7.3
		c0,0.2,0,0.4,0,0.6c0,0.1,0,0.3-0.1,0.4c-0.2,0.1-0.2-0.2-0.4-0.2c0,0.7,0.1,0.9,0.7,1c0.6,0.2,1.1,0.5,1.3,1.1
		c0.2,0.4,0.5,0.7,0.8,1.1c0.3,0.4,0.2,0.4-0.2,0.6c-0.4,0.1-0.7-0.1-1-0.3c-0.2-0.1-0.3-0.3-0.4,0c-0.1,0.2-0.2,0.2-0.4,0.2
		c-0.5,0-1.1-0.1-1.6-0.1c-0.4,0-0.6-0.2-0.6-0.5c-0.1-0.3-0.2-0.6-0.2-0.9c0-0.2-0.1-0.4-0.3-0.5c-0.6-0.5-0.8-1.2-0.5-1.8
		c0.8-1.5,1-3.1,1-4.8c0-1.1,0-2.3,0-3.4c0-0.6,0.1-1.2,0.5-1.8c0.2-0.3,0.3-0.7,0.3-1.1c0-2.4,0.2-4.7,0.2-7.1c0-1,0-2,0.2-2.9
		c-0.1,0.3-0.2,0.6-0.3,0.9c-0.1,0.3-0.1,0.5-0.2,0.8c-0.1,0.2,0,0.5-0.3,0.5c-0.3,0-0.3-0.3-0.3-0.5c-0.1-0.3-0.2-0.3-0.4-0.2
		c-2.8,1.8-5.9,2.4-9.1,2.7c-0.3,0-0.5,0.1-0.8,0.1c-0.6,0-0.7-0.1-0.7-0.6c0-0.2,0.1-0.4-0.1-0.5c-0.1,0-0.1,0.1-0.2,0.2
		c-1.1,3.5-3.4,6-6.2,8.3c-1.3,1.1-2.8,2.1-4,3.3c-1.7,1.7-3,3.6-3.5,6c0,0.1,0,0.1,0,0.2c-0.5,1.3-0.1,2.6,0.2,3.9
		c0.1,0.4,0.3,0.8-0.2,1c-0.8,0.3-1.2,0.2-1.5-0.4c-0.3,0.6-0.9,0.8-1.5,0.9c-0.6,0.1-0.9-0.2-0.8-0.8c0.1-0.5,0.1-1.2,0.4-1.6
		c0.4-0.5,0.9-0.8,0.6-1.6c-0.1-0.3,0.2-0.7,0-1.2c-0.2-0.5,0.3-1,0.6-1.5c0.6-1.1,1.3-2.1,1.8-3.2c0.5-1.1,0.7-2.2,0.9-3.3
		c0.2-0.8,0.6-1.4,1.4-1.7c0.2-0.1,0.4-0.2,0.5,0c0.1,0.2-0.1,0.3-0.2,0.4c-0.7,0.5-1,1.3-1.1,2.2c0.3-0.4,0.6-0.7,0.8-1.1
		c0.7-0.9,1.4-1.9,2.1-2.8c0.8-1,1.2-2.1,1.5-3.3c0.3-1.2,0.6-2.5,0.7-3.7c0.1-0.9,0.3-1.8,0.5-2.7c0-0.2,0.1-0.5,0-0.8
		c-0.8,0.7-1,1.6-1.1,2.5c0,0.3,0.1,0.8-0.1,1c-0.6,0.7-0.4,1.5-0.7,2.2c-0.2,0.6-0.5,1.1-1,1.5c-0.3,0.2-0.5,0.1-0.5-0.2
		c0-0.2,0-0.4,0-0.6c0-0.3,0.1-0.6-0.3-0.8c-0.2-0.1-0.2-0.5-0.2-0.7c0-1.6,0.4-3.2,1.3-4.5c1.6-2.4,3.7-4,6.2-5.2
		c1.6-0.8,3.3-1.1,5-1.5c1.6-0.4,3.3-0.9,4.9-1.3c0.2-0.1,0.4-0.1,0.6-0.2c0.1,0,0.3,0,0.3,0.2c0,0.1,0,0.3-0.2,0.3
		c-0.1,0.1-0.2,0.1-0.3,0.1c-1.8,0.5-3.7,1-5.5,1.6c-1.5,0.5-3.1,0.8-4.6,1.4c0.7-0.1,1.4,0,2.1,0.1c0.1,0,0.2,0,0.2-0.1
		c0-0.4,0.3-0.5,0.5-0.5c2.5-0.8,5-1.5,7.4-2.4c0.5-0.2,1.1-0.1,1.6-0.5c0.5-0.4,1-0.8,1.4-1.2c1.3-1.4,2.3-3,2.9-4.8
		c0.2-0.5,0.2-1.1,0.2-1.7c0-0.3-0.2-0.4-0.5-0.3c-0.8,0.3-1.6,0.6-2.1,1.3c-0.3,0.4-1.2,0.6-1.7,0.3c-0.3-0.1-0.6-0.3-0.8-0.5
		c-0.1-0.1-0.3-0.3-0.2-0.5c0.1-0.2,0-0.2-0.1-0.2c-0.4-0.2-0.8-1.1-0.7-1.5c0.1-0.2,0.2-0.3,0.4-0.3c0.5,0.1,0.8-0.2,1.1-0.6
		c0.4-0.5,1-1,1.5-1.5c0.3-0.3,0.5-0.5,0.8-0.8c0-0.1-0.1-0.1-0.1-0.2c-0.2,0.2-0.5,0.3-0.7,0.5c-0.2,0.1-0.3,0.4-0.7,0.3
		c-0.2,0-0.3,0.2-0.4,0.3c-0.1,0.1-0.1,0.2-0.3,0.1c-0.1-0.1-0.1-0.2,0-0.3c0.2-0.6,0.6-1.1,0.8-1.6c0,0,0-0.1,0-0.1
		c0.5-1,0.1-1.5-1-1.5c-0.1,0-0.2,0-0.3-0.1c-0.4-0.5-0.9-1.1-1.3-1.6c-0.3-0.3-0.2-0.5,0.2-0.6c1.2-0.2,2.5-0.2,3.6,0.3
		c-0.2-0.3-0.5-0.5-1.4-0.8c-1.5-0.6-3-1.2-4.5-1.9c-0.2-0.1-0.4-0.3-0.5,0.1c-0.1,0.2-0.4,0-0.6-0.1c-1.4-0.7-2.3-1.8-3-3.2
		c-0.4-0.9-0.7-1.9-0.7-2.9c0-1.5,0.4-2.8,1.4-4c0.1-0.1,0.2-0.2,0.3-0.1c0.1,0.1,0.1,0.2,0.1,0.3c0,0.1-0.1,0.3-0.1,0.4
		c-0.6,1.8-0.6,3.5,0.4,5.1c0.3,0.4,0.6,0.8,1,1.1c0.1,0.1,0.2,0.2,0.4,0.1c0.1-0.1,0.1-0.2,0.1-0.3c-0.1-1.3,0.3-2.5,1.2-3.5
		c0.1-0.1,0.2-0.3,0.4-0.2c0.2,0.1,0,0.3,0,0.4c-0.8,2.1-0.5,4.1,1.2,5.7c0.3,0.3,0.5,0.8,0.9,0.7c0.4-0.1,0.4-0.7,0.5-1.1
		c0.2-0.5,0.3-0.9,0.5-1.4c0-0.1,0.1-0.3,0.3-0.2c0.2,0,0.2,0.2,0.2,0.3c0.1,0.6,0.1,1.2,0.2,1.9c0.1,0.8,0.5,1.3,1.2,1.7
		c0.3,0.1,0.5,0.1,0.6-0.2c0.2-0.4,0.3-0.7,0.5-1.1c0.1-0.2,0.1-0.5,0.4-0.4c0.2,0,0.2,0.3,0.2,0.5c0,0.6,0,1.3,0.2,1.9
		c0.2,0.8,0.4,1,1.2,1c0.1,0,0.1,0,0.2,0c0.2,0,0.4,0,0.5,0.1c0.1,0.2-0.1,0.3-0.2,0.4c-0.4,0.3-0.7,0.7-1.1,1
		c-0.1,0.1-0.3,0.3-0.5,0.1c-0.1-0.1-0.2,0-0.3,0.1c-0.4,0.5-0.8,1-1.2,1.5c-0.1,0.1-0.2,0.2-0.1,0.3c0.1,0.1,0.2,0.1,0.3,0.1
		c0.4,0,0.7-0.2,1-0.5c0.7-0.7,1.2-1.5,1.8-2.2c0.3-0.3,0.5-0.5,0.8-0.1c0.2,0.2,0.3,0.1,0.3-0.1c0-0.4,0.2-0.7,0.5-1
		c0.1-0.1,0.2-0.2,0.3-0.3c1.1-1.1,1.2-1.7,0.5-3.1c-0.1-0.2-0.3-0.4-0.1-0.5c0.2-0.2,0.4,0.1,0.6,0.2c0.3,0.4,0.7,0.7,1.1,0.9
		c0.4,0.3,0.8,0.2,1.1-0.2c0.5-0.6,0.6-1.3,0.8-2c0.4-1.3,0.1-2.4-0.5-3.6c-0.1-0.2-0.3-0.3-0.1-0.5c0.2-0.2,0.4,0,0.5,0.1
		c1,0.8,1.7,1.9,1.9,3.3c0,0.1,0,0.3,0.1,0.4c0.2,0.1,0.3-0.1,0.4-0.2c0.8-0.9,1.3-1.8,1.3-3c0-2.7-1.1-4.8-3-6.5
		c-0.2-0.2-0.4-0.4-0.6-0.5c-0.1-0.1-0.3-0.2-0.2-0.4c0.1-0.2,0.3-0.1,0.5,0c0.5,0.3,0.9,0.5,1.4,0.8c1,0.7,1.6,1.6,2.3,2.5
		c0.6,0.7,1,1.5,1.5,2.4c0.3,0.6,1.1,0.8,1.7,0.5c0.3-0.1,0.4-0.3,0.4-0.6c0-0.2,0-0.5,0.1-0.7c0.4-1.8,0.1-3.5-0.6-5.1
		c0-0.1-0.1-0.2-0.2-0.3c-0.1-0.1-0.2-0.3,0-0.5c0.2-0.1,0.3,0,0.4,0.1c0.9,0.8,1.5,1.9,1.8,3.1c0.6,2.8-0.2,5.3-2.1,7.4
		c-1,1.1-2.2,2.1-3.4,3c-0.2,0.2-0.5,0.3-0.8,0.2c-0.1-0.1-0.2,0-0.3,0c-1,0.8-2,1.7-3,2.5C137.3,18.8,137.4,18.8,137.4,18.8z
		 M129.9,58.4c0.5-1.6,1.2-3.1,0.6-4.8c0,0.2,0,0.4,0,0.5c0,0.6,0,1.3-0.3,1.8C129.8,56.8,130,57.5,129.9,58.4z"/>
	<path class="st0" d="M85.9,73.9c0.4-0.1,0.7-0.3,1-0.3c1.7-0.4,3.5-0.8,5.2-1.2c1.5-0.3,3-0.4,4.4-0.7c1.5-0.3,3-0.4,4.5-0.6
		c2.1-0.3,4.3-0.5,6.4-0.7c2.8-0.2,5.6-0.4,8.3-0.5c3.8-0.1,7.7-0.3,11.5-0.2c3.3,0.1,6.5,0.1,9.8,0.3c1.6,0.1,3.1,0.1,4.7,0.2
		c2.1,0.2,4.2,0.4,6.2,0.6c1.6,0.2,3.2,0.3,4.7,0.6c1.9,0.3,3.8,0.6,5.6,1c1.5,0.3,3.1,0.7,4.6,1c0.2,0,0.4,0.1,0.6,0.2
		c0.1,0,0.4,0,0.3,0.2c0,0.2-0.3,0.1-0.4,0.1c-1-0.1-2-0.2-3-0.3c-2.1-0.2-4.2-0.4-6.3-0.6c-2.6-0.3-5.3-0.4-7.9-0.6
		c-2.2-0.2-4.4-0.3-6.7-0.4c-7.5-0.4-14.9-0.3-22.4-0.3c-3.5,0-6.9,0.2-10.4,0.4c-2.6,0.1-5.3,0.3-7.9,0.5c-2.1,0.1-4.1,0.3-6.2,0.5
		c-2,0.2-3.9,0.3-5.9,0.6C86.6,74.1,86.3,74.1,85.9,73.9z"/>
	<path class="st0" d="M115.7,57.1c0.4-1.4,1.5-2,2.4-2.8c0.7-0.6,1.4-1.2,2.1-1.8c0.3-0.2,0.5-0.4,0.5,0.3c0.8-0.7,1.5-1.2,2.3-1.9
		c-0.9-0.1-1.7,0-2.4,0.1c-0.7,0.1-1.4,0-2.1,0.2c-0.3,0.1-0.5,0.2-0.7,0.5c-0.9,1.3-2,2.4-3.3,3.3c-0.2,0.1-0.4,0.2-0.7,0.4
		c0.1-0.6,0.5-0.9,0.7-1.2c1.1-1.4,2.3-2.8,3.4-4.2c0.2-0.2,0.4-0.6,0.6,0c0.1,0.2,0.3,0.2,0.4,0.1c2.1-0.3,4.1-0.3,6.2-0.6
		c0.8-0.1,1.6-0.1,2.4-0.2c0.2,0,0.4,0,0.4,0.1c0.1,0.2-0.2,0.2-0.3,0.3c0,0,0,0,0,0c-1.2,0.1-1.8,0.8-2.3,1.8
		c-0.4,0.9-1.4,1.4-2.1,2c-1,0.7-2.1,1.4-3.1,2.1c-0.9,0.7-1.5,1.5-1.6,2.7c0,2,0.1,4,0.7,5.9c0.2,0.6,0.5,1.2,0.5,1.9
		c0,0.3,0.2,0.7,0.7,0.8c0.8,0.2,1.3,0.7,1.7,1.4c0.1,0.2,0.3,0.4,0.4,0.6c0.1,0.1,0.2,0.2,0.1,0.4c-0.1,0.2-0.3,0.2-0.4,0.2
		c-0.8-0.3-1.6,0.3-2.5,0.2c-0.1,0-0.2,0-0.3,0c-0.8,0.1-1,0-1-0.8c0-0.5-0.2-0.9-0.6-1.2c-0.4-0.2-0.5-0.6-0.5-1c0-0.4,0-0.7,0-1.1
		c0.1-2.4-0.7-4.5-1.6-6.6c-0.2-0.4-0.5-0.8-0.7-1.2c-0.5-0.8-0.4-1.6,0.3-2.3c0.6-0.6,1-1.2,1.6-1.8c0.1-0.1,0.2-0.3,0.4-0.2
		c0.2,0.1,0,0.3-0.1,0.4c-0.5,0.8-1,1.6-1.5,2.4C115.4,56.5,115.4,56.7,115.7,57.1z"/>
	<path class="st0" d="M151.1,86.8c0.8,0,1.6,0,2.4,0.1c1.2,0.2,2.2,0.9,2.4,2c0.2,1.1-0.1,2.1-0.8,3c-0.7,0.9-0.7,0.9,0,1.8
		c0.7,0.9,1.4,1.9,2.3,2.7c0.1,0.1,0.2,0.2,0.3,0.3c0.7,0.6,1.2,0.5,1.5-0.3c0.7-1.7,1.3-3.5,1.9-5.2c0.5-1.3,1-2.7,1.5-4
		c0.1-0.2,0.2-0.4,0.4-0.4c0.2,0,0.3,0.2,0.4,0.4c0.8,2.1,1.6,4.2,2.4,6.2c0.4,1,0.8,1.9,1.2,2.9c0.2,0.5,0.6,0.9,1.2,1
		c0.1,0,0.3,0,0.3,0.2c0,0.2-0.2,0.2-0.3,0.2c-0.8,0-1.6,0.1-2.4-0.1c-0.2,0-0.3-0.1-0.2-0.3c0.1-0.2,0-0.4,0-0.6
		c-0.3-0.9-0.7-1.7-1-2.6c-0.1-0.3-0.3-0.4-0.6-0.4c-0.7,0-1.5,0-2.2,0c-0.3,0-0.5,0.1-0.5,0.3c-0.3,0.9-0.7,1.7-0.8,2.6
		c-0.1,0.3-0.1,0.6,0.3,0.7c0.1,0,0.4,0,0.3,0.2c0,0.2-0.2,0.2-0.4,0.2c-0.6-0.1-1.1,0-1.7,0c-0.3,0-0.6,0-0.9,0
		c-1.2,0-2-0.6-2.7-1.5c-0.6-0.8-1.2-1.5-1.7-2.3c-0.4-0.6-1.3-0.8-2-0.6c-0.2,0.1-0.2,0.2-0.2,0.4c0,1-0.1,2,0.1,2.9
		c0,0.3,0.2,0.5,0.6,0.6c0.1,0,0.2,0,0.4,0.1c0.1,0,0.3,0,0.3,0.2c0,0.2-0.2,0.2-0.3,0.2c-0.2,0-0.5,0.1-0.7,0
		c-0.6-0.1-1.2-0.1-1.9,0c-0.1,0-0.3,0-0.5,0c-0.1,0-0.2-0.1-0.2-0.2c0-0.1,0.1-0.2,0.2-0.2c0.5-0.1,0.6-0.4,0.6-0.8
		c0-2.8,0-5.6,0-8.4c0-0.4-0.2-0.6-0.6-0.7c-0.2,0-0.4,0-0.4-0.3c0-0.3,0.3-0.3,0.5-0.3C149.9,86.8,150.5,86.8,151.1,86.8z
		 M154.5,90.1c0-0.3,0-0.7-0.1-1.1c-0.5-1.2-1.4-1.7-2.7-1.4c-0.3,0.1-0.3,0.2-0.3,0.5c0,1.2,0,2.5,0,3.7c0,0.2,0.1,0.4,0.3,0.5
		c1,0.5,2.4,0,2.7-1.1C154.5,90.9,154.5,90.5,154.5,90.1z M162.9,89.2c0,0-0.1,0-0.1,0c-0.3,1-0.7,2.1-1,3.1
		c-0.1,0.3,0.1,0.4,0.3,0.4c0.5,0,1.1,0,1.6,0c0.3,0,0.3-0.1,0.2-0.4C163.5,91.3,163.2,90.3,162.9,89.2z"/>
	<path class="st0" d="M107.7,77.7c-0.4,0.9-0.9,1.9-1.3,2.8c-0.4,0.9-0.8,1.7-1.2,2.6c-0.1,0.2-0.1,0.4-0.4,0.4
		c-0.2,0-0.3-0.3-0.4-0.4c-0.8-1.6-1.6-3.2-2.4-4.8c-0.1-0.1-0.1-0.3-0.3-0.3c-0.1,0.8-0.2,1.7-0.2,2.5c0,0.6-0.1,1.2-0.2,1.8
		c-0.1,0.4-0.1,0.8,0.5,0.9c0.1,0,0.2,0.1,0.2,0.3c0,0.1-0.2,0.1-0.3,0.2c-0.6,0-1.2,0-1.8,0c-0.1,0-0.3,0-0.3-0.2
		c0-0.2,0.1-0.3,0.2-0.3c0.4-0.1,0.5-0.4,0.5-0.8c0.2-2,0.4-4,0.7-5.9c0-0.4,0.1-0.8,0.1-1.2c0-0.2,0.1-0.4,0.3-0.4
		c0.2,0,0.3,0.2,0.3,0.3c0.9,2,2,3.9,2.9,6c0.1,0.2,0.1,0.4,0.3,0.4c0.2,0,0.2-0.2,0.3-0.4c0.9-2,1.9-3.9,2.8-5.9
		c0.1-0.2,0.2-0.4,0.4-0.4c0.3,0,0.2,0.3,0.3,0.5c0.2,1.8,0.3,3.5,0.6,5.3c0.1,0.6,0.1,1.2,0.2,1.8c0.2,0.6,0.6,0.7,1.1,0.7
		c0.5,0,1-0.2,1.2-0.7c0.2-0.5,0.3-0.9,0.5-1.4c0.7-1.9,1.4-3.9,2.1-5.8c0.1-0.2,0.1-0.4,0.4-0.4c0.3,0,0.4,0.2,0.4,0.4
		c0.6,1.7,1.2,3.3,1.9,5c0.3,0.8,0.6,1.5,1,2.3c0.1,0.3,0.4,0.5,0.7,0.6c0.2,0,0.4,0.1,0.4,0.3c0,0.2-0.2,0.2-0.4,0.2
		c-0.5,0-0.9,0-1.4,0c-0.3,0-0.5-0.1-0.5-0.5c-0.1-0.9-0.5-1.7-0.8-2.5c-0.1-0.2-0.2-0.3-0.4-0.3c-0.1,0-0.2,0-0.3,0
		c-0.6,0.1-1.3-0.3-1.7,0.2c-0.5,0.6-0.6,1.4-0.8,2.2c0,0.2,0,0.4,0.3,0.5c0.1,0.1,0.2,0.1,0.2,0.3c0,0.1-0.2,0.1-0.3,0.1
		c-1.4,0-2.8,0.1-4.3-0.1c-0.3,0-0.4-0.1-0.4-0.4c0.1-1-0.2-2-0.2-3.1c0-0.6-0.1-1.2-0.1-1.8C107.9,78,107.9,77.8,107.7,77.7z
		 M114.7,77c0,0-0.1,0-0.1,0c-0.2,0.4-0.3,0.8-0.5,1.3c-0.4,1.3-0.7,1.2,1,1.2c0,0,0,0,0.1,0c0.3,0,0.4-0.1,0.3-0.4
		C115.2,78.4,115,77.7,114.7,77z"/>
	<path class="st0" d="M134.3,90.1c-0.6,1.2-1.2,2.4-1.7,3.7c-0.5,1.1-1,2.2-1.6,3.3c-0.1,0.2-0.2,0.4-0.5,0.4
		c-0.2,0-0.3-0.3-0.4-0.4c-1.1-2-2-4-3-6c-0.1-0.2-0.2-0.4-0.4-0.7c-0.2,0.7-0.2,1.3-0.3,1.9c-0.1,1.3-0.2,2.7-0.4,4
		c0,0.5,0,1,0.7,1c0.1,0,0.2,0.1,0.2,0.2c0,0.1-0.1,0.2-0.2,0.2c-0.1,0-0.2,0-0.3,0c-0.7,0-1.3-0.1-2,0c-0.2,0-0.5,0-0.5-0.2
		c0-0.3,0.3-0.2,0.4-0.2c0.3-0.1,0.4-0.2,0.5-0.5c0.2-0.6,0.2-1.1,0.3-1.7c0.2-2.1,0.4-4.3,0.7-6.4c0.1-0.4,0.1-0.8,0.1-1.3
		c0-0.2,0-0.5,0.3-0.6c0.3,0,0.4,0.3,0.5,0.5c0.5,1,0.9,2,1.4,3c0.7,1.5,1.5,3,2.2,4.6c0,0.1,0.1,0.2,0.2,0.3c0.2,0.3,0.3,0.3,0.4,0
		c1.1-2.4,2.2-4.7,3.3-7.1c0.2-0.3,0.3-0.7,0.5-1c0.1-0.1,0.1-0.2,0.3-0.2c0.2,0,0.2,0.1,0.3,0.3c0.1,0.4,0.1,0.7,0.2,1.1
		c0.2,2.3,0.5,4.7,0.8,7c0,0.4,0.1,0.8,0.1,1.2c0.1,0.5,0.4,0.8,0.9,0.9c0.1,0,0.1,0,0.2,0c0.2,0,0.4,0,0.4,0.2
		c0,0.2-0.2,0.3-0.4,0.3c-0.8,0-1.6-0.1-2.3-0.1c-0.3,0-0.3-0.2-0.3-0.5c0-2.1-0.4-4.3-0.5-6.4C134.5,90.5,134.5,90.3,134.3,90.1z"
		/>
	<path class="st0" d="M102.2,92.2c0-1.3,0-2.7,0-4c0-0.5-0.1-0.8-0.7-0.9c-0.2,0-0.4-0.1-0.4-0.3c0-0.2,0.3-0.2,0.5-0.2
		c0.8,0,1.7,0.1,2.5,0c0.2,0,0.4,0,0.4,0.3c0,0.2-0.2,0.3-0.4,0.3c-0.3,0-0.4,0.2-0.5,0.5c-0.1,1-0.1,2-0.1,2.9
		c0,0.2,0.2,0.3,0.4,0.3c1.7,0,3.3,0,5,0c0.3,0,0.4-0.1,0.4-0.4c0-0.9,0-1.9,0-2.8c0-0.4-0.3-0.5-0.6-0.6c-0.2,0-0.5,0-0.4-0.3
		c0-0.3,0.3-0.2,0.5-0.2c0.6,0,1.3,0.1,1.9,0c0.2,0,0.4,0,0.7,0c0.1,0,0.3,0.1,0.3,0.3c0,0.1-0.1,0.2-0.2,0.2
		c-0.6,0.1-0.6,0.5-0.6,1c0,2.5,0,5,0,7.5c0,0.2,0.1,0.4,0.1,0.6c0.1,0.5,0.3,0.7,0.8,0.7c0.1,0,0.4,0,0.4,0.2
		c0,0.2-0.2,0.3-0.4,0.3c-0.3,0-0.6,0-0.9,0c-0.5-0.1-0.9-0.1-1.4,0c-0.2,0-0.5,0.1-0.7,0c-0.1,0-0.2-0.1-0.2-0.2
		c0-0.1,0.1-0.2,0.2-0.2c0.5-0.1,0.6-0.4,0.6-0.9c0-1.2,0-2.5,0-3.7c0-0.4-0.1-0.5-0.5-0.5c-1.6,0-3.1,0-4.7,0
		c-0.3,0-0.5,0.1-0.5,0.4c0,1.3-0.1,2.5,0.1,3.8c0.1,0.7,0.1,0.8,0.9,0.9c0.1,0,0.3,0,0.3,0.1c0,0.2-0.1,0.2-0.3,0.2
		c-0.1,0-0.3,0-0.4,0c-0.8,0-1.6-0.1-2.4,0c-0.1,0-0.2,0-0.3,0c-0.1,0-0.2-0.1-0.2-0.2c0-0.1,0.1-0.2,0.2-0.2c0.7,0,0.7-0.5,0.7-1
		C102.2,94.9,102.2,93.5,102.2,92.2C102.2,92.2,102.2,92.2,102.2,92.2z"/>
	<path class="st0" d="M142.5,97.6c-0.8,0-1.7-0.2-2.5,0c-0.2,0-0.5,0.1-0.5-0.2c-0.1-0.3,0.2-0.3,0.4-0.3c0.2-0.1,0.3-0.2,0.4-0.4
		c0-0.4,0.1-0.8,0.1-1.2c0-2.3,0-4.7,0-7c0-0.2,0-0.3,0-0.5c0-0.4-0.2-0.6-0.6-0.6c-0.2,0-0.5-0.1-0.4-0.3c0-0.3,0.3-0.3,0.5-0.2
		c1.2,0.1,2.3-0.1,3.5,0.1c2.1,0.3,3.1,2.2,1.5,4.2c-0.3,0.4-0.2,0.5,0.1,0.7c1.5,0.9,2.1,2.3,1.6,3.7c-0.5,1.4-1.7,2.2-3.3,2.2
		C143,97.6,142.8,97.6,142.5,97.6z M141.8,94.3c0,0.4,0,0.9,0,1.3c0,1.1,0.1,1.2,1.2,1.4c0.9,0.1,1.8-0.3,2.1-1.2
		c0.6-1.9-0.8-3.9-2.8-3.8c-0.3,0-0.5,0.1-0.4,0.5C141.8,93.1,141.8,93.7,141.8,94.3z M141.8,89.4c0,0.4,0,0.9,0,1.3
		c0,0,0,0.1,0,0.1c0,0.2,0,0.3,0.2,0.4c0.3,0.2,1.5,0,1.7-0.2c0.6-0.6,0.7-2,0.1-2.8c-0.4-0.6-0.9-0.8-1.6-0.7
		c-0.3,0-0.5,0.2-0.5,0.6C141.8,88.5,141.8,89,141.8,89.4z"/>
	<path class="st0" d="M117.9,93.5c-2,0-1.4-0.3-2,1.5c-0.2,0.5-0.3,1-0.4,1.5c-0.1,0.3,0,0.6,0.4,0.7c0.1,0,0.2,0.1,0.2,0.2
		c0,0.2-0.2,0.2-0.3,0.2c-0.8-0.1-1.6,0-2.5,0c-0.2,0-0.4,0-0.4-0.2c0-0.2,0.2-0.2,0.4-0.2c0.5,0,0.8-0.3,1-0.7
		c0.3-0.9,0.7-1.8,1-2.6c0.5-1.4,1.1-2.9,1.6-4.3c0.3-0.8,0.6-1.6,0.8-2.3c0.1-0.2,0.1-0.5,0.4-0.5c0.3,0,0.4,0.3,0.4,0.5
		c0.8,2.2,1.7,4.3,2.5,6.4c0.3,0.8,0.7,1.7,1.1,2.5c0.3,0.6,0.6,1,1.3,1.1c0.1,0,0.2,0.1,0.2,0.2c0,0.1-0.1,0.2-0.2,0.2
		c-0.8,0-1.6,0.1-2.4-0.1c-0.1,0-0.3-0.1-0.2-0.2c0.2-0.8-0.3-1.4-0.5-2.1c-0.1-0.4-0.3-0.8-0.5-1.2c-0.1-0.3-0.3-0.5-0.7-0.5
		C118.6,93.6,118.2,93.5,117.9,93.5z M117.9,92.7c0.3,0,0.6,0,0.9,0c0.2,0,0.4-0.1,0.3-0.4c-0.3-0.9-0.7-1.8-1-2.8
		c0-0.1-0.1-0.2-0.2-0.2c-0.1,0-0.1,0.1-0.1,0.2c-0.2,0.7-0.5,1.4-0.7,2.1C116.7,92.7,116.8,92.7,117.9,92.7z"/>
	<path class="st0" d="M86.5,93.5c-0.4,0-0.7,0-1.1,0c-0.3,0-0.5,0.1-0.6,0.4c-0.3,0.7-0.5,1.5-0.8,2.2c-0.2,0.7-0.2,0.8,0.5,1.1
		c0.2,0.1,0.2,0.2,0,0.3c-0.1,0.1-0.2,0.1-0.3,0.1c-0.7-0.1-1.5,0-2.2,0c-0.1,0-0.2,0-0.3,0c-0.1,0-0.2-0.1-0.3-0.2
		c0-0.2,0.1-0.2,0.2-0.2c0.8,0,1.1-0.7,1.3-1.3c0.7-1.6,1.2-3.3,1.8-4.9c0.5-1.3,1-2.5,1.4-3.8c0.1-0.2,0.1-0.4,0.4-0.4
		c0.2,0,0.3,0.2,0.4,0.4c0.5,1.2,0.9,2.4,1.4,3.6c0.7,1.8,1.4,3.7,2.1,5.5c0.2,0.5,0.6,0.9,1.2,1c0.1,0,0.3,0,0.3,0.2
		c0,0.2-0.1,0.2-0.3,0.2c-0.8,0-1.6,0.1-2.4-0.1c-0.1,0-0.2-0.1-0.2-0.2c0.1-0.9-0.4-1.6-0.7-2.4C88.1,93.5,88,93.5,86.5,93.5z
		 M86.5,89.3c0,0-0.1,0-0.1,0c-0.3,1.1-0.7,2.1-1,3.2c-0.1,0.2,0.1,0.3,0.3,0.3c0.6,0.1,1.2,0,1.8,0c0.2,0,0.2-0.1,0.2-0.3
		C87.2,91.4,86.9,90.4,86.5,89.3z"/>
	<path class="st0" d="M142.5,78.5c0.1,1.3,0.1,2.5,0.2,3.8c0,0.4,0.1,0.7,0.6,0.8c0.1,0,0.3,0.1,0.3,0.3c0,0.2-0.2,0.2-0.3,0.2
		c-0.6,0-1.3,0-1.9,0c-0.1,0-0.3,0-0.4-0.2c0-0.2,0.1-0.2,0.3-0.3c0.5-0.1,0.4-0.6,0.5-0.9c0-1.4,0.1-2.8,0.1-4.2c0-0.9,0-1.9,0-2.8
		c0-0.2,0-0.4,0.2-0.4c0.2-0.1,0.3,0.1,0.4,0.2c1.5,1.6,3,3.2,4.5,4.8c0.4,0.4,0.8,0.9,1.2,1.3c0.1,0.1,0.1,0.2,0.2,0.1
		c0.1,0,0.1-0.2,0.1-0.3c0-0.6,0-1.2,0-1.8c-0.1-1-0.1-2.1-0.1-3.1c0-0.4-0.1-0.7-0.6-0.8c-0.2,0-0.3-0.1-0.3-0.2
		c0-0.2,0.2-0.2,0.4-0.2c0.6-0.1,1.1,0.1,1.7,0c0.1,0,0.3,0,0.4,0.2c0.1,0.2-0.1,0.3-0.3,0.3c-0.4,0.1-0.4,0.4-0.4,0.7
		c0,2.2,0,4.3,0,6.5c0,0.2,0,0.3,0,0.5c0,0.2,0,0.4-0.2,0.5c-0.2,0.1-0.4-0.1-0.5-0.2c-1.4-1.4-2.8-2.8-4.2-4.3
		c-0.5-0.6-1-1.1-1.5-1.7c-0.1-0.1-0.1-0.1-0.2-0.1c-0.1,0-0.1,0.1-0.1,0.2C142.5,77.8,142.5,78.1,142.5,78.5
		C142.5,78.5,142.5,78.5,142.5,78.5z"/>
	<path class="st0" d="M139.6,78.8c0,2.3-0.9,3.8-2.9,4.5c-2.5,1-5.6-0.4-5.9-3.4c-0.3-2.3,0.8-4.1,2.5-4.9c1.6-0.8,4.1-0.4,5.3,1
		C139.3,76.8,139.7,77.8,139.6,78.8z M132,78.8c0,1.5,0.4,2.8,1.7,3.7c1.4,1,3.5,0.6,4.3-1.4c0.5-1.4,0.5-2.9-0.3-4.3
		c-0.7-1.2-1.9-1.6-3.2-1.4c-1.1,0.1-1.9,0.8-2.3,1.8C132,77.8,131.9,78.3,132,78.8z"/>
	<path class="st0" d="M97.9,97.7c-0.8-0.1-1.6-0.1-2.4-0.2c-0.6-0.1-1.2,0-1.9,0.1c-0.2,0-0.5,0-0.5-0.2c-0.1-0.3,0.2-0.2,0.4-0.3
		c0.2-0.1,0.3-0.3,0.4-0.5c0-0.4,0.1-0.8,0.1-1.3c0-2.3,0-4.5,0-6.8c0-0.6,0-1.2-0.8-1.3c-0.1,0-0.3-0.1-0.3-0.3
		c0-0.2,0.2-0.2,0.3-0.2c0.1,0,0.2,0,0.4,0c0.8,0.1,1.5,0,2.3,0c0.1,0,0.3,0,0.5,0c0.1,0,0.2,0.1,0.2,0.2c0,0.1-0.1,0.2-0.2,0.2
		c-0.1,0-0.2,0.1-0.3,0.1c-0.4,0-0.5,0.3-0.5,0.7c0,0.5,0,1,0,1.6c0,2.1-0.1,4.1,0,6.2c0,0.8,0.3,1,1.1,1c0.5,0,1,0,1.5,0
		c0.5,0,0.8-0.3,1-0.7c0.1-0.1,0.1-0.3,0.2-0.4c0-0.1,0.1-0.2,0.2-0.1c0.1,0,0.2,0.1,0.2,0.3c0,0.5-0.1,1-0.2,1.5
		c-0.1,0.3-0.4,0.4-0.6,0.4C98.5,97.7,98.3,97.7,97.9,97.7z"/>
	<path class="st0" d="M124.6,82.4c0-0.2,0.1-0.5,0.1-0.7c0-0.1,0.1-0.2,0.2-0.2c0.1,0,0.2,0.1,0.2,0.2c0,0,0,0.1,0,0.1
		c0.3,0.9,1,1.4,1.9,1.1c1-0.2,1.4-1.5,0.8-2.3c-0.3-0.4-0.7-0.7-1.1-1c-0.6-0.5-1.2-0.9-1.5-1.6c-0.9-1.6,0-3.2,1.9-3.4
		c0.5,0,1,0.1,1.5,0.1c0.2,0,0.4,0.1,0.4,0.4c0,0.4,0,0.7,0,1.1c0,0.1-0.1,0.2-0.2,0.2c-0.1,0-0.2-0.1-0.2-0.2
		c-0.3-0.8-1.2-1.1-1.9-0.8c-0.7,0.3-0.9,1.3-0.3,1.9c0.5,0.5,1,1,1.6,1.4c0.6,0.5,1.1,1,1.3,1.9c0.3,1.1-0.4,2.7-1.9,2.9
		c-0.5,0.1-1.1,0.2-1.6,0C124.8,83.3,124.7,83.2,124.6,82.4z"/>
	<path class="st0" d="M121.4,83.5c-0.4,0-0.7,0-1.1,0c-0.1,0-0.3,0-0.3-0.1c-0.1-0.2,0.1-0.3,0.2-0.3c0.4-0.1,0.4-0.4,0.4-0.8
		c0.2-2,0.1-3.9,0.1-5.9c0-0.5,0-1-0.6-1.2c-0.2-0.1-0.2-0.3,0-0.4c0.1-0.1,0.3-0.1,0.4-0.1c0.5,0,1,0.1,1.6,0c0.1,0,0.3,0,0.4,0.2
		c0,0.2-0.1,0.2-0.2,0.3c-0.3,0.2-0.4,0.5-0.4,0.8c0,2,0,3.9,0,5.9c0,0.5,0,1.1,0.8,1.2c0.1,0,0.2,0.1,0.2,0.2
		c0,0.1-0.2,0.2-0.3,0.2C122.1,83.5,121.7,83.5,121.4,83.5C121.4,83.5,121.4,83.5,121.4,83.5z"/>
</g>
</svg>
