<?xml version="1.0" encoding="utf-8"?>
<!-- Generator: $$$/GeneralStr/196=Adobe Illustrator 27.6.0, SVG Export Plug-In . SVG Version: 6.00 Build 0)  -->
<svg version="1.1" id="Capa_1" xmlns="http://www.w3.org/2000/svg" xmlns:xlink="http://www.w3.org/1999/xlink" x="0px" y="0px"
	 viewBox="0 0 250 100" style="enable-background:new 0 0 250 100;" xml:space="preserve">
<style type="text/css">
	.st0{fill:#777777;}
</style>
<g>
	<path class="st0" d="M98.4,27.7c-2.4,0-4.7,0-7.1,0c-0.9,0-2.5-0.3-3.3,0c-0.8,0.4-0.7,1-0.7,1.8c0,2.2,0,4.4,0,6.6
		c0,2.2-0.3,4.7,0,6.9c0.2,1.8,1.7,1.2,3.3,1.2c1.9,0,3.9,0,5.8,0c1.1,0,3.4,0.5,4.1-0.5c0.3-0.5,0-1.9,0-2.4c0-0.9,0-1.8,0-2.7
		c0-1.1-0.5-3.6,0.1-4.5c0.5-0.7,1.7-0.6,2.4-0.4c1.7,0.4,3.3,2.6,4.6,3.7c1.3,1.2,2.6,2.5,4,3.7c1.3,1.3,2.6,2.9,4.5,3.1
		c1.5,0.1,3.8,0.4,5.2,0c1.4-0.4,1.3-3.1,1-4.4c-0.4-1.6-2.4-2.8-3.6-3.8c-2.8-2.5-5.6-5.4-8.6-7.7c-1.6-1.2-3.8-0.8-5.6-0.8
		C102.4,27.7,100.4,27.7,98.4,27.7z"/>
	<path class="st0" d="M153.9,27.7C153.9,27.7,153.9,27.7,153.9,27.7c-3,0-6,0-9.1,0c-1.2,0-2.1,0.2-2.9,1.1
		c-0.1,0.2-0.3,0.3-0.5,0.5c-3.6,3.2-7.2,6.4-10.8,9.6c-0.3,0.3-0.6,0.7-0.6,1c-0.1,1.3,0,2.5,0,3.8c0,0.5,0.3,0.8,0.9,0.7
		c1.9,0,3.8,0,5.7,0c0.4,0,0.9-0.2,1.2-0.4c1-0.8,1.8-1.7,2.8-2.5c2.2-2,4.5-4.1,6.6-6.1c1-0.9,1.9-1.7,3.4-1.5c0.9,0.1,1,0.1,1,1.1
		c0,2.8,0,5.6,0,8.3c0,1,0.2,1.2,1.3,1.2c3.5,0,7.1,0,10.6,0c1.3,0,1.3,0,1.3-1.3c0-4.7,0-9.5,0-14.2c0-0.9-0.2-1.1-1.1-1.1
		C160.5,27.7,157.2,27.7,153.9,27.7z"/>
	<path class="st0" d="M110.3,58.3C110.3,58.3,110.4,58.3,110.3,58.3c0-1,0.5-3.9-0.1-4.8c-0.6-0.7-2.7-0.4-3.6-0.3
		c-1.2,0-1.8,0-1.9,1.3c-0.1,0.9,0.6,4.1-0.1,4.7c-0.6,0.5-2.5-1-3.1-1.3c-1.3-0.7-2.6-1.4-3.9-2.2c-1.3-0.7-2.6-1.6-4-2.1
		c-1.3-0.5-2.8-0.4-4.2-0.4c-1.5,0-2,0.1-2.1,1.7c0,1.6,0,3.2,0,4.7c0,1-0.4,2.8,0.6,3.4c0.8,0.4,3.1,0.1,4,0c1.2-0.1,1-0.6,1-1.8
		c0-0.7-0.4-3.6,0.1-4c0.6-0.6,5.9,2.8,6.8,3.3c1.3,0.7,2.6,1.6,3.9,2.1c1.2,0.5,2.5,0.4,3.8,0.4c1.1,0,2.5,0.4,2.9-0.8
		C110.6,61.2,110.3,59.5,110.3,58.3z"/>
	<path class="st0" d="M154.7,63.1C154.7,63.1,154.7,63.1,154.7,63.1c3.3,0,6.7,0,10,0c0.7,0,0.9-0.3,0.9-0.9c0-0.5-0.2-1-0.9-1
		c-4.5,0-9.1,0-13.6,0c-1.4,0-1.4,0-1.3-1.3c0-1,0.1-1,1-1c3.9,0,7.9,0,11.8,0c0.3,0,0.6,0.1,0.9-0.1c0.3-0.1,0.6-0.4,0.6-0.7
		c0.1-0.7-0.3-1.1-1.3-1.1c-4,0-8,0-11.9,0c-1,0-1.1-0.2-1.1-1.1c0-0.7,0.3-0.9,0.9-0.9c4.4,0,8.9,0,13.3,0c0.5,0,1.2,0.1,1.2-0.7
		c0-0.7-0.4-1.1-1.2-1.1c-6.4,0-12.8,0-19.2,0c-0.7,0-1.2,0.4-1.2,1.1c0,2.6,0,5.2,0,7.7c0,0.8,0.2,1,1.1,1
		C148,63.1,151.4,63.1,154.7,63.1z"/>
	<path class="st0" d="M128,52.9c-3.7,0.4-8.1,0.3-11.3,2.4c-2.9,1.9-2.1,5.1,0.8,6.4c3.5,1.6,7.8,1.8,11.7,1.7
		c2.7-0.1,8.4-0.3,9.8-3.2c-1.1-0.4-2.3-0.5-3.4-0.6c-1.4-0.2-1.7,0.2-2.9,0.9c-1.8,1-4.4,1.2-6.4,1.1c-1.9-0.1-4.9-0.5-5.3-2.8
		c-0.4-2.3,1.6-3.1,3.5-3.5c2.3-0.5,4.8-0.6,7,0.1c1,0.3,1.8,0.9,2.8,1c1,0.1,2.2-0.1,3.2-0.2c0.9-0.1,2-0.3,0.9-1.2
		c-0.7-0.6-2-1-2.9-1.2C133,53.2,130.4,53.2,128,52.9z"/>
	<path class="st0" d="M19.7,58.2C19.7,58.2,19.7,58.2,19.7,58.2c0,1.1-0.4,3.1,0,4.1c0.4,1,0.9,0.8,1.9,0.8c0.7,0,2.8,0.3,3.3-0.1
		c0.7-0.5,0.3-2.2,0.3-3c0-0.5-0.3-2.6,0.3-3c0.9-0.6,1.8,1.1,2.2,1.6c1.1,1.4,2.4,4.3,4.3,4.5c1.5,0.2,2.3,0.1,2.4-1.4
		c0.1-1.4-0.4-2-1.2-3.1c-1.2-1.5-2.8-4.6-4.7-5.3c-1-0.4-2.4-0.1-3.5-0.1c-1.3,0-2.9-0.2-4.2,0C18.9,53.6,19.7,56.6,19.7,58.2z"/>
	<path class="st0" d="M52.4,58.2C52.4,58.2,52.4,58.2,52.4,58.2c0-1.2,0.2-2.6,0-3.8c-0.2-1.2-0.7-1.2-1.8-1.2c-1.4,0-2.9,0-4.3,0
		c-1.2,0-2.4-0.2-3.4,0.6c-0.9,0.7-1.6,1.8-2.2,2.6c-0.8,0.9-1.7,1.8-2.3,2.8c-0.5,0.8-1,2-0.7,3c0.3,1.1,1,1,2.1,0.9
		c2.2-0.1,3.4-2.9,4.7-4.6c0.5-0.6,1.3-2,2.1-1.4c0.7,0.4,0.3,3,0.3,3.7c0,0.9-0.3,1.9,0.7,2.3c0.8,0.3,3,0.2,3.8,0
		c0.9-0.2,0.9-0.1,1-1C52.5,60.8,52.4,59.5,52.4,58.2z"/>
	<path class="st0" d="M157.4,72.4c1.9-0.2,3.9-0.2,5.7-0.6c1.4-0.3,2.3-1.2,0.4-1.7c-1.8-0.5-4.1-0.4-6-0.5
		c-1.3-0.1-3.5,0.2-4.6-0.5c1.2-0.9,4.5-0.3,6-0.3c1,0,1.8,0.1,2.7,0.3c0.8,0.2,1.5,0.4,2.3,0c-1.1-2-14.3-1.9-14.1-0.1
		c0.1,1.1,5.2,1.1,6,1.2c1.9,0.1,4.3-0.1,6.1,0.7c-1.6,0.8-3.8,0.6-5.6,0.5c-1,0-2.1,0-3-0.2c-0.7-0.1-1.2-0.5-1.9-0.6
		c-1.8-0.4-2.6,0.6-0.4,1.2C152.9,72.3,155.3,72.2,157.4,72.4z"/>
	<path class="st0" d="M146,70C146,70,146,70,146,70c0-1.4,0-2.3-1.7-2.1c-1.5,0.1-1.3,1.4-1.3,2.6c0,1.1,0.1,1.5,1.2,1.6
		C146,72.3,146,71.4,146,70z"/>
	<path class="st0" d="M191.4,59c1.2-0.8,3.6-0.8,4.3-2.2c0.9-1.5-1.3-2.3-2.4-2.7c-2-0.7-4.4-0.6-6.5-0.7c-2.2-0.1-4.3-0.2-6.5-0.3
		c0,0.1,0,0.1,0,0.2c-2.6,0-5.5-0.4-8,0c-2,0.3-1.2,3.1-1.2,4.7c0,1.4-0.7,4.7,0.8,5.2c0.9,0.3,2.5,0,3.4,0c1,0,1.7,0.3,2-0.7
		c0.3-0.8-0.4-2.1,0.1-2.8c0.4-0.6,1.9-0.3,2.5-0.3c2.3,0,3.9-0.1,5.9,1.1c1.7,1,3.8,2.5,5.7,2.7c1,0.1,2.2,0,3.2,0
		c0.9,0,2.2,0.2,3-0.3C196.1,61.1,193.4,60.4,191.4,59z M182.6,57.4C182.6,57.4,182.6,57.4,182.6,57.4c-1.5,0.1-5.2,1-5.2-1.1
		c0-2,3.4-1.2,4.8-1.2c1,0,7-0.5,7.1,1.2C189.4,57.8,183.4,57.4,182.6,57.4z"/>
	<path class="st0" d="M80.4,59.8c-1.2-1-2.5-2.1-3.7-3.1c-1.1-1-2.3-2.2-3.5-2.9c-1.1-0.7-2.2-0.5-3.5-0.5c-1.2,0-2.4-0.2-3.5,0.5
		c-1.3,0.8-2.4,2-3.6,3c-1.3,1.1-2.5,2.1-3.8,3.2c-1.1,0.9-2.4,1.7-3.1,2.9c1.5,0.5,4.9,0.7,6.3-0.1c0.8-0.5,1.3-1.3,2.2-1.7
		c1.1-0.4,2.3-0.2,3.4-0.1c1.4,0,2.7,0,4.1,0c1.1,0,2.7-0.3,3.7,0.3c0.9,0.5,1.4,1.4,2.5,1.7c0.9,0.3,1.8,0.2,2.7,0.2c0,0,0,0,0,0
		c1,0,2.2,0.2,3.1-0.2C83,61.7,81.5,60.7,80.4,59.8z M70,59.2C70,59.2,70,59.2,70,59.2c-1.1,0-2.3,0.2-3.3-0.1
		c0.3-0.9,2.1-2.8,3.1-2.8c1.1,0,2.6,1.8,2.9,2.7C71.8,59.2,70.9,59.2,70,59.2z"/>
	<path class="st0" d="M227.2,60c-1.2-1-2.4-2.1-3.6-3.1c-1.2-1-2.4-2.4-3.7-3.1c-1.1-0.6-2.2-0.5-3.4-0.5c-1.2,0-2.4-0.2-3.5,0.5
		c-1.3,0.8-2.4,2-3.6,3c-1.2,1-2.4,2-3.6,3c-1.1,0.9-2.6,1.8-3.3,3.1c0.9,0.4,2,0.2,3,0.2c0,0,0,0,0,0c0.9,0,1.9,0.2,2.8-0.1
		c1-0.4,1.4-1.2,2.3-1.7c0.9-0.5,2.2-0.3,3.2-0.3c1.3,0,2.6,0,3.9,0c1.2,0,2.7-0.2,3.9,0c0.9,0.2,1.4,0.8,2.1,1.4
		c0.9,0.8,1.9,0.7,3.1,0.7c1.1,0,2.8,0.2,3.7-0.2C229.7,61.7,228.3,60.9,227.2,60z M219,59.2c-1.8,0-3.8,0.2-5.6-0.1
		c0.3-0.9,1.8-2.7,2.9-2.8c1.2-0.1,2.8,1.9,3.2,2.8C219.2,59.1,219,59.2,219,59.2z"/>
	<path class="st0" d="M135.3,70.3c0.6-0.2,2.5-0.3,2.9-0.8c0.7-0.9-0.8-1.2-1.6-1.3c-2.8-0.5-5.8-0.2-8.6-0.3c0,0,0,0.1,0,0.1
		c-1.2,0-3.2-0.3-4.4,0c-1.1,0.3-0.9,1.1-0.9,2.2c0,1.3-0.2,1.9,1.1,2.1c0.3,0,0.9,0.2,1.2-0.1c0.9-0.7-0.2-0.3,0.4-1
		c0.6-0.8,1.4-0.5,2.4-0.5c1.4,0,2.9,0,4.3,0.2c2.2,0.4,4.4,2,6.7,1.3C138,70.9,136.6,70.8,135.3,70.3z M130.2,69.6
		c-1.5,0-3.5,0.4-4.7-0.6c1.4-0.7,3.4-0.3,5-0.3c0,0,0,0,0,0.1c1.6,0,3.6-0.4,5,0.3C134,69.8,131.8,69.6,130.2,69.6z"/>
	<path class="st0" d="M99.5,68c-1.8-0.1-3.5-0.2-5.3-0.3c0,0,0,0,0,0.1c-1.8,0-3.9-0.3-5.7,0c-1.5,0.2-1.2,1.2-1.2,2.6
		c0,1.2,0.8,2.4,2.3,1.6c1.1-0.6,0.4-1.4,1.9-1.5c1.8-0.1,3.6,0,5.4,0c1.3,0,4.4,0.2,5.4-0.9C103.5,68.3,100.3,68.1,99.5,68z
		 M96,69.9c-1.4,0-3.5,0.4-4.9,0c-0.8-0.2-1.3-0.8-0.3-1.2c1-0.4,3,0,4.1,0c0,0,0,0,0,0.1c1.4,0,3.3-0.3,4.7,0.2
		C98.7,69.8,97.2,69.8,96,69.9z"/>
	<path class="st0" d="M115.9,69.6c-1.3-0.7-3.1-2.1-4.7-1.8c-2.3,0-4.2,1.4-6.2,2.4c-0.4,0.2-2.6,1-2.2,1.7c0.4,0.7,2.3-0.1,2.8-0.2
		c1.4-0.6,2.1-0.8,3.6-0.9c1.4,0,2.9,0,4.3,0c2,0.1,4.1,2,6.1,1.1C118.9,70.7,117.1,70.2,115.9,69.6z M110.9,70
		C110.9,70,110.9,70,110.9,70c-0.7,0-1.4,0.1-2-0.3c0.9-1,2-1.3,3.2-0.7C113.9,69.9,111.8,70,110.9,70z"/>
</g>
</svg>
