<?xml version="1.0" encoding="utf-8"?>
<!-- Generator: $$$/GeneralStr/196=Adobe Illustrator 27.6.0, SVG Export Plug-In . SVG Version: 6.00 Build 0)  -->
<svg version="1.1" id="Capa_1" xmlns="http://www.w3.org/2000/svg" xmlns:xlink="http://www.w3.org/1999/xlink" x="0px" y="0px"
	 viewBox="0 0 250 100" style="enable-background:new 0 0 250 100;" xml:space="preserve">
<style type="text/css">
	.st0{fill:#777777;}
</style>
<g>
	<path class="st0" d="M204.7,49.9c0-2.6,0-5.1,0-7.7c0-0.9,0.2-1.2,1.2-1.2c4.1,0,8.3,0,12.4,0c3,0,4.9,1.5,5.4,4
		c0.2,1.2,0,2.3-0.6,3.3c-0.3,0.6-0.4,0.9,0.1,1.5c2.5,2.6,1.6,6.9-1.8,8.4c-1.1,0.5-2.4,0.8-3.6,0.8c-3.9,0-7.8,0-11.7,0
		c-1.1,0-1.4-0.4-1.4-1.5C204.7,55,204.7,52.5,204.7,49.9z M214,51.8C214,51.8,214,51.8,214,51.8c-1,0-2,0-3,0c-2.1,0-2.1,0-2,2.1
		c0,0.7,0.3,1,0.9,1c2.7,0,5.4,0,8-0.1c0.9,0,1.9-0.3,1.8-1.6c0-1.2-1-1.4-1.9-1.5C216.6,51.8,215.3,51.8,214,51.8z M213.7,47.7
		C213.7,47.7,213.7,47.7,213.7,47.7c1.2,0,2.5,0,3.7,0c0.8,0,1.6-0.3,1.6-1.3c0-1-0.7-1.3-1.6-1.3c-2.5,0-5,0-7.5,0
		c-1,0-1,0.6-1,1.3c0,0.8,0,1.4,1.1,1.4C211.3,47.7,212.5,47.7,213.7,47.7z"/>
	<path class="st0" d="M17.1,49.7c-1.5,2.3-3.1,4.6-4.6,6.9c-0.8,1.3-0.9,1.3-1.7,0C9.3,54.3,7.8,52,6,49.8c0,2.5,0,5,0,7.5
		c0,1.8,0,1.8-1.8,1.8c-3,0-2.6,0.3-2.6-2.6c0-4.6,0-9.3,0-13.9c0-1.2,0.3-1.5,1.5-1.6c1.7-0.1,2.8,0.4,3.7,2
		c1.3,2.2,2.8,4.3,4.2,6.5c0.7,1.1,0.7,1.1,1.5,0c1.6-2.4,3.2-4.9,4.9-7.4c0.5-0.8,3.2-1.4,4-0.9c0.3,0.2,0.3,0.6,0.3,0.9
		c0,5.3,0,10.7,0,16c0,0.2,0,0.4-0.1,0.5c-1,1.1-2.3,0.4-3.5,0.5c-0.7,0.1-0.8-0.5-0.8-1.1c0-2.5,0-5,0-7.5
		C17.3,50.2,17.4,50,17.1,49.7z"/>
	<path class="st0" d="M238.2,40.5c3.1-0.1,5.8,0.7,8.4,2.3c0.7,0.4,0.9,0.8,0.3,1.5c-0.6,0.7-0.9,1.7-1.6,2.2
		c-0.9,0.6-1.6-0.6-2.4-0.9c-2.3-1-4.7-1.1-7.2-0.8c-0.2,0-0.5,0.1-0.7,0.2c-0.5,0.2-1.1,0.5-1.1,1.1c0,0.7,0.6,0.8,1.1,1
		c2.3,0.7,4.8,0.6,7.1,1c1.3,0.2,2.6,0.6,3.8,1.2c2.6,1.6,3.2,5.1,1.1,7.4c-1,1.1-2.2,1.8-3.7,2.2c-4.8,1.2-9.4,1-13.8-1.6
		c-0.3-0.2-0.6-0.4-0.9-0.6c-0.7-0.5-0.8-0.9-0.3-1.7c1.7-2.3,1.7-2.3,4-0.9c3,1.8,6.2,1.9,9.5,1.2c0.3-0.1,0.6-0.2,0.9-0.4
		c0.5-0.2,0.8-0.6,0.8-1.2c0-0.6-0.5-0.8-1-1c-1.5-0.5-3.1-0.6-4.6-0.7c-1.8-0.2-3.5-0.3-5.2-1c-2.3-0.9-3.5-2.4-3.5-4.6
		c0-2,1.4-3.9,3.4-4.8C234.6,40.7,236.4,40.4,238.2,40.5z"/>
	<path class="st0" d="M52.6,50c0-2.7,0-5.3,0-8c0-0.8,0.2-1.1,1.1-1.1c3.8,0,7.6,0,11.4,0.1c4.1,0.1,6.3,2.5,6.1,6.4
		c-0.1,2.1-1.2,3.5-3,4.4c-1.3,0.7-1.3,0.7-0.4,1.9c1,1.3,1.9,2.7,2.9,4c0.2,0.3,0.6,0.7,0.4,1.1c-0.2,0.4-0.7,0.2-1,0.2
		c-2.7,0.5-4.9-0.3-5.9-3.1c-0.1-0.2-0.3-0.3-0.3-0.5c-1.1-2.8-3.3-2.9-5.8-2.7c-0.7,0.1-1,0.4-1,1.1c0,1.3,0,2.7,0,4
		c0,0.9-0.3,1.3-1.3,1.2c-3.7-0.1-3,0.4-3.1-3C52.6,54.1,52.6,52,52.6,50z M61.3,45.1C61.3,45.1,61.3,45.1,61.3,45.1
		c-0.7,0-1.3,0-2,0c-2.5,0-2.7,0.1-2.4,2.7c0,0.1,0,0.2,0,0.2c0.1,0.4,0.3,0.7,0.7,0.7c2.4,0,4.8,0.2,7.2-0.2
		c1.1-0.2,1.7-0.7,1.7-1.9c-0.1-1.1-0.9-1.4-1.8-1.5C63.7,45.1,62.5,45.1,61.3,45.1z"/>
	<path class="st0" d="M199.6,51.6c0,3.8-3.6,7.6-8.8,8c-2.9,0.2-5.6-0.3-8-2c-5.4-3.9-4.9-12.5,1-15.6c4.2-2.2,8.6-2.1,12.5,0.8
		C198.7,44.6,199.7,47.2,199.6,51.6z M189.5,44.8c-3.7,0.1-5.9,2.2-5.9,5.4c0.1,3.1,2.5,5.2,5.9,5.2c3.3-0.1,5.7-2.3,5.7-5.3
		C195.2,47,192.7,44.8,189.5,44.8z"/>
	<path class="st0" d="M165.6,40.5c2.9,0,5.6,0.9,8.1,2.4c0.8,0.5,0.9,1,0.3,1.7c-0.7,0.7-1.1,1.7-1.9,2.1c-0.9,0.4-1.6-0.7-2.4-1
		c-2.2-0.9-4.4-1.1-6.7-0.5c-2.6,0.7-4.2,3-3.9,5.3c0.3,2.5,2.4,4.5,5,4.7c3,0.3,5.9-0.1,8.2-2.4c0.1-0.1,0.2-0.2,0.3-0.2
		c1.3,0.1,1.8,1.4,2.6,2.1c0.6,0.5,0.1,1-0.3,1.3c-2.1,1.9-4.5,3.1-7.3,3.4c-3.2,0.3-6.4,0.1-9.2-1.8c-2.2-1.4-3.4-3.6-3.6-6.2
		c-0.8-7.4,4.7-10.8,10.1-11C165.1,40.5,165.3,40.5,165.6,40.5z"/>
	<path class="st0" d="M85.7,59.5c-1.9-0.1-4.5-0.4-6.8-2.1c-4.5-3.3-4.7-10.9-0.3-14.5c4.3-3.4,12.2-3.3,16.4,0.2
		c0.4,0.3,0.5,0.6,0.2,1c-0.1,0.1-0.2,0.3-0.3,0.4c-0.7,0.6-1.1,1.8-1.9,2c-0.9,0.3-1.6-0.7-2.4-1.1c-2.1-0.9-4.2-1-6.3-0.6
		c-2.7,0.6-4.4,2.7-4.2,5.2c0.1,2.6,2,4.6,4.8,4.9c3,0.4,5.8-0.1,8.2-2.1c0.7-0.6,1.2-0.5,1.8,0.1c2.1,2,2.1,2.2-0.3,3.9
		C92.1,58.7,89.5,59.5,85.7,59.5z"/>
	<path class="st0" d="M46,59.1c-1.8,0.3-3-0.4-3.5-2.1c-0.5-1.5-1.4-2-3-1.9c-1.9,0.1-3.7,0.1-5.6,0c-0.9,0-1.4,0.3-1.8,1
		c-1.6,3.3-1.6,3.2-5.2,3c-0.8-0.1-0.9-0.3-0.5-1c2.7-5.2,5.3-10.3,7.9-15.5c0.3-0.6,0.5-1.4,1.2-1.5c1.2-0.2,2.4-0.2,3.6,0
		c0.5,0.1,0.6,0.7,0.8,1.1c2.6,5.1,5.3,10.2,7.9,15.4c0.8,1.6,0.8,1.6-0.9,1.5C46.5,59.1,46.3,59.1,46,59.1z M37.1,51
		c2.7,0,2.6,0.1,1.4-2c-0.4-0.8-0.6-2.2-1.4-2.2c-0.6,0-0.9,1.4-1.3,2.2C34.7,51,34.7,51,37.1,51z"/>
	<path class="st0" d="M149.9,59.1c-1.7,0.6-2.7-0.5-3.2-2.2c-0.5-1.5-1.4-1.9-2.9-1.8c-1.9,0.1-3.7,0.1-5.6,0
		c-0.9,0-1.6,0.1-1.9,1.2c0,0.1-0.1,0.1-0.1,0.2c-1.6,3-1.6,2.9-5,2.7c-0.8-0.1-0.9-0.3-0.6-1c2.8-5.5,5.6-10.9,8.4-16.4
		c0.3-0.5,0.6-0.7,1.2-0.7c3.8,0.1,2.9-0.7,4.7,2.7c2.4,4.6,4.7,9.2,7.1,13.8c0.8,1.5,0.8,1.5-0.9,1.5
		C150.8,59.1,150.5,59.1,149.9,59.1z M141.3,51c0.5,0,0.9,0,1.4,0c0.8,0,1.1-0.2,0.6-1c-0.3-0.6-0.6-1.2-0.9-1.8
		c-0.3-0.6-0.4-1.6-1-1.6c-0.7,0-0.7,1.1-1.1,1.6c-0.1,0.2-0.2,0.4-0.4,0.6C138.9,51,138.9,51,141.3,51z"/>
	<path class="st0" d="M123.1,47c0-1.6,0-3.2,0-4.8c0-0.9,0.3-1.2,1.3-1.2c3.7,0.1,3.2-0.5,3.2,3.2c0,3,0.2,6-0.2,8.9
		c-0.3,3-2,4.9-4.8,5.7c-2.7,0.9-5.5,1-8.2,0.1c-3-0.9-4.8-3.3-4.9-6.4c0-1,0-2,0-3c0-0.6,0.3-0.8,0.9-0.9c3.3-0.2,3.3-0.2,3.5,3
		c0.1,2.1,1.2,3.3,3.3,3.5c0.2,0,0.3,0,0.5,0c4.3,0.2,5.3-0.8,5.3-5.1C123.1,49.1,123.1,48.1,123.1,47C123.1,47,123.1,47,123.1,47z"
		/>
</g>
</svg>
