<?xml version="1.0" encoding="utf-8"?>
<!-- Generator: $$$/GeneralStr/196=Adobe Illustrator 27.6.0, SVG Export Plug-In . SVG Version: 6.00 Build 0)  -->
<svg version="1.1" id="Capa_1" xmlns="http://www.w3.org/2000/svg" xmlns:xlink="http://www.w3.org/1999/xlink" x="0px" y="0px"
	 viewBox="0 0 250 100" style="enable-background:new 0 0 250 100;" xml:space="preserve">
<style type="text/css">
	.st0{fill:#777777;}
</style>
<g id="Layer_2">
</g>
<g>
	<path class="st0" d="M46.1,76c0.1-0.4-0.2-0.2-0.4-0.4c0.8-0.3,0.6-1,0.6-1.6c0-1.4,0-2.8,0-4.3c0-0.2,0-0.3,0-0.5
		c0-0.5-0.1-1-0.5-1.3c-0.1-0.1-0.2-0.1-0.3-0.3c0-0.1,0.1-0.1,0.1-0.1c0.7,0,1.3,0,2,0c0.3,0,0.5,0.1,0.6,0.4
		c0.5,1.5,1.1,3,1.7,4.5c0,0.1,0,0.3,0.2,0.3c0.1,0,0.2-0.2,0.2-0.3c0.5-1.4,0.9-2.7,1.4-4.1c0,0,0-0.1,0-0.1
		c0.3-0.7,0.3-0.7,1.1-0.7c0.6,0,1.2,0,1.8,0c0.1,0,0.2,0,0.2,0.1c0,0.1-0.1,0.1-0.2,0.2c-0.5,0.2-0.6,0.5-0.6,1
		c-0.1,1.8,0,3.5,0,5.3c0,0.6,0,1.2,0.6,1.6c-0.3,0.1-0.4,0.1-0.6,0.2c0.1,0.1,0.2,0.1,0.3,0.2c-1,0-1.9,0-2.9,0
		c0.5-0.1,1.1-0.1,1.6-0.2c-0.5,0-1.1-0.1-1.6-0.1c0,0,0-0.1-0.1-0.1c0.8-0.4,0.7-1.1,0.7-1.8c0-1.7,0-3.5,0-5.2
		c0-0.1,0-0.2-0.1-0.2c-0.1,0.4-0.3,0.7-0.4,1.1c-0.7,2-1.4,3.9-2.1,5.9c0,0.1,0,0.3-0.2,0.3c-0.2,0-0.2-0.2-0.2-0.3
		c-0.7-1.8-1.4-3.6-2.1-5.4c-0.1-0.2-0.1-0.4-0.3-0.5c-0.1,0-0.1,0.1-0.1,0.1c0,1.7,0,3.4,0,5c0,0.3,0.2,0.6,0.5,0.7
		c0.1,0,0.2,0.1,0.3,0.2c-0.2,0.1-0.4,0-0.6,0c-0.1,0-0.1,0-0.1,0.1c0,0.1,0.1,0.1,0.1,0.1c0.1,0,0.1,0,0.2,0.1
		C46.6,76,46.3,76,46.1,76z"/>
	<path class="st0" d="M151.1,76c0.3-0.2,0.6,0,0.9-0.2c-0.2-0.2-0.5-0.1-0.7-0.1c-0.1,0-0.2,0-0.3-0.1c0-0.2,0.1-0.1,0.2-0.1
		c0.5-0.1,0.6-0.3,0.6-0.8c0-0.8,0-1.6,0-2.5c0-1,0-2.1,0-3.1c0-0.2,0-0.4-0.1-0.6c0-0.3-0.2-0.6-0.6-0.7c-0.1,0-0.2,0-0.3-0.2
		c0.2-0.1,0.4,0,0.6,0c1.1,0,2.2,0,3.3,0c0.7,0,1.4,0.1,2,0.6c1.1,0.9,1.1,2.8,0,3.8c-0.2,0.2-0.2,0.4-0.1,0.6
		c0.3,0.4,0.4,0.8,0.7,1.2c0.4,0.6,0.7,1.4,1.4,1.9c-0.7,0-1.4,0.2-2,0c-0.3-0.1-0.4-0.2-0.6-0.4c-0.5-0.6-0.8-1.4-1.3-2
		c-0.2-0.3-0.7-0.5-1-0.3c-0.1,0.1-0.1,0.2-0.1,0.3c0,0.5,0,1,0,1.5c0,0.3,0.2,0.6,0.5,0.7c0.1,0,0.2,0.1,0.2,0.2
		c-0.2,0.2-0.5,0-0.7,0.2c0.2,0.1,0.3,0.1,0.4,0.1C153.2,76,152.1,76,151.1,76z M153.8,70.2C153.8,70.2,153.8,70.2,153.8,70.2
		c0,0.7,0,1.4,0,2.1c0,0.1,0,0.3,0.2,0.2c0.5-0.1,1-0.3,1.2-0.8c0.5-0.7,0.6-1.6,0.5-2.4c-0.1-0.8-0.7-1.5-1.5-1.6
		c-0.3-0.1-0.5,0-0.4,0.4C153.8,68.8,153.8,69.5,153.8,70.2z"/>
	<path class="st0" d="M126.6,76c0.3-0.2,0.6,0,1-0.2c-0.3-0.2-0.7,0-1-0.2c0.8-0.2,0.7-0.9,0.7-1.4c0-1.8,0-3.6,0-5.4
		c0-0.1,0-0.2-0.1-0.2c-0.3,0.4-0.4,0.9-0.5,1.3c-0.4,1.1-0.8,2.3-1.2,3.4c-0.3,0.7-0.5,1.4-0.7,2.1c0,0.1-0.1,0.3-0.3,0.3
		c-0.2,0-0.2-0.2-0.3-0.3c-0.5-1.4-1.1-2.8-1.6-4.1c-0.2-0.5-0.4-1-0.6-1.4c-0.2-0.5-0.5-0.9-0.6-1.4c-0.1-0.4-0.4-0.5-0.7-0.7
		c0.2-0.1,0.5,0,0.7,0c0.5,0,1.1,0,1.6,0c0.2,0,0.4,0.1,0.4,0.3c0.6,1.5,1.2,3,1.7,4.5c0,0.1,0.1,0.1,0.1,0.2c0,0.1,0.1,0.2,0.2,0.2
		c0.1,0,0.2-0.1,0.2-0.2c0.2-0.9,0.6-1.6,0.8-2.5c0.2-0.7,0.5-1.3,0.7-2c0.2-0.5,0.5-0.6,0.9-0.6c0.6,0,1.2,0,1.8,0
		c0.1,0,0.2,0,0.2,0.1c0,0,0,0.1,0,0.1c-0.7,0.2-0.8,0.8-0.8,1.4c0,0.7,0.1,1.4,0,2.1c-0.1,1,0,2,0,3c0,0.1,0,0.3,0,0.4
		c0,0.3,0.1,0.7,0.4,0.9c0.1,0,0.1,0.1,0.1,0.2c0,0.1-0.1,0.1-0.2,0.1c-0.2,0-0.3,0-0.5,0.1c0.2,0.1,0.4,0,0.6,0.2
		C128.6,76,127.6,76,126.6,76z"/>
	<path class="st0" d="M98.6,76c0.1-0.5-0.4-0.2-0.5-0.3c0,0,0-0.1,0-0.1c0.6-0.1,0.8-0.6,0.7-1.2c0-1.7,0-3.5,0-5.2
		c0-0.7,0-1.3-0.8-1.5c0.1-0.1,0.2-0.1,0.2-0.1c0.7,0,1.4,0,2.1,0c0.3,0,0.4,0.1,0.6,0.3c0.9,1.3,1.9,2.6,2.8,4
		c0.1,0.1,0.1,0.2,0.2,0.2c0.2,0,0.1-0.2,0.1-0.3c0-0.9,0-1.8,0-2.8c0-0.7-0.3-1.1-0.9-1.3c-0.1,0-0.1,0-0.2-0.1
		c0-0.1,0.1-0.1,0.2-0.1c0.6,0,1.1,0,1.7,0c0.1,0,0.3-0.1,0.3,0.1c0,0.1-0.1,0.1-0.2,0.2c-0.5,0.2-0.8,0.5-0.8,1.1
		c-0.1,1.4-0.1,2.8,0,4.3c0,0.8,0,1.6-0.1,2.5c0,0.1,0,0.2,0.1,0.3c-0.6,0-1.2,0-1.8,0c0.3-0.1,0.6-0.1,0.8-0.1
		c0.2,0,0.5,0.1,0.6-0.1c0.1-0.2-0.2-0.4-0.3-0.6c-0.8-1.1-1.6-2.2-2.4-3.4c-0.7-0.9-1.3-1.9-1.9-2.8c-0.1-0.1-0.1-0.2-0.2-0.2
		c-0.1,0,0,0.2,0,0.2c0,1.6,0,3.3,0,4.9c0,0.6-0.1,1.2,0.6,1.5c0.1,0,0.1,0.1,0.1,0.1c0,0.1-0.1,0.1-0.2,0.1c-0.1,0-0.2,0-0.3,0
		c-0.2,0-0.3,0.1-0.1,0.3C99,76,98.8,76,98.6,76z"/>
	<path class="st0" d="M195.2,67.9c-0.4,0.1-0.6,0.4-0.7,0.9c0,1-0.1,2,0,3c0,0.5-0.1,1.1,0,1.6c0,0.7,0,1.3,0,2c0,0.1,0,0.3-0.1,0.4
		c-0.2,0-0.2-0.1-0.3-0.2c-1-1.5-2-2.9-3-4.4c-0.5-0.7-0.9-1.3-1.4-2c-0.1-0.1-0.1-0.2-0.2-0.2c-0.1,0-0.1,0.2-0.1,0.3
		c0,1.8,0,3.5,0,5.3c0,0.5,0.1,0.8,0.6,1c0.1,0,0.2,0.1,0.2,0.2c-0.2,0.1-0.4,0-0.6,0c-0.1,0-0.2,0-0.3,0.1c0,0.2,0.2,0.1,0.3,0.1
		c0.1,0,0.1,0,0.2,0.1c-0.3,0-0.7,0-1,0c0.4-0.6-0.3-0.1-0.3-0.3c0,0,0,0,0,0c0.7-0.3,0.8-0.9,0.8-1.5c0-1.4,0-2.8,0-4.2
		c0-0.4-0.1-0.8,0-1.3c0-0.3-0.2-0.6-0.5-0.7c-0.1-0.1-0.3-0.1-0.3-0.2c0-0.1,0.1-0.1,0.2-0.1c0.7,0,1.4,0,2.1,0
		c0.3,0,0.5,0.1,0.7,0.4c0.9,1.3,1.8,2.6,2.7,3.8c0.1,0.1,0.2,0.4,0.4,0.3c0.2-0.1,0.1-0.3,0-0.5c0-0.3,0-0.6,0-0.9
		c0-0.6,0-1.2-0.1-1.9c0-0.5-0.3-0.8-0.7-1c-0.1-0.1-0.3-0.1-0.4-0.2c0.7,0,1.3,0,2,0C195.2,67.7,195.2,67.8,195.2,67.9z"/>
	<path class="st0" d="M76.5,76c0.1-0.1,0.3,0,0.5-0.2c-0.2-0.2-0.4,0-0.6-0.1c0,0,0-0.1,0-0.1c0.5-0.3,0.6-0.8,0.6-1.3
		c0-2,0-4,0-6.1c0-0.4-0.1-0.5-0.5-0.5c-1.2,0-1.7,0.4-1.9,1.5c0,0.2,0,0.4-0.2,0.6c-0.2-0.2-0.2-0.4-0.1-0.6
		c0.2-0.4,0.2-0.8,0.2-1.2c0-0.4,0.1-0.5,0.5-0.5c1-0.1,2,0,3,0c0.9,0,1.8,0,2.7,0c0.4,0,0.5,0.1,0.6,0.5c0,0.6,0.1,1.2,0.2,1.8
		c-0.3-0.1-0.3-0.3-0.3-0.5c-0.2-1.2-0.8-1.7-2-1.7c-0.3,0-0.4,0.1-0.4,0.4c0,2.1,0,4.3,0,6.4c0,0.4,0.2,0.8,0.6,1
		c-0.2,0.2-0.5,0-0.6,0.2c0,0.1,0.2,0.1,0.3,0.2C78.2,76,77.3,76,76.5,76z"/>
	<path class="st0" d="M166.5,76c0.3-0.2,0.7,0,1.1-0.2c-0.3-0.2-0.7,0-1.1-0.2c0.3-0.2,0.6-0.4,0.6-0.8c0-0.4,0.1-0.8,0.1-1.3
		c0-1.6,0-3.1-0.1-4.7c0-0.1,0-0.2,0-0.4c0-0.8,0-0.8-0.8-0.8c-0.8,0-1.2,0.3-1.4,1.1c-0.1,0.3-0.2,0.7-0.3,1
		c-0.1-0.1-0.1-0.2-0.1-0.3c0-0.5,0.1-1.1,0.2-1.6c0-0.3,0.2-0.4,0.5-0.4c1-0.1,2,0,3,0c0.9,0,1.8,0,2.7,0c0.3,0,0.5,0.1,0.6,0.5
		c0.1,0.6,0.1,1.1,0.2,1.7c0,0.1,0,0.2-0.1,0.2c-0.1-0.1-0.1-0.2-0.1-0.3c-0.1-0.2-0.1-0.4-0.2-0.7c-0.3-1-1-1.2-2-1.2
		c-0.3,0-0.3,0.2-0.3,0.5c0,1.5,0,3,0,4.5c0,0.6,0,1.2,0,1.8c0.1,0.5,0.1,0.9,0.7,1.1c-0.3,0.1-0.5,0.1-0.7,0.2
		c0.1,0.1,0.2,0.1,0.3,0.2C168.5,76,167.5,76,166.5,76z"/>
	<path class="st0" d="M141,76c0.1-0.2,0.3-0.4,0.5-0.6c0.2-0.2,0.2-0.5,0.1-0.8c-0.3-0.7-0.3-0.7-1-0.6c-0.4,0-0.8,0-1.2,0
		c-0.1,0-0.2,0-0.2-0.1c0.1-0.1,0.3-0.1,0.5-0.1c0.4,0,0.7,0,1.1,0c0.4,0,0.4-0.1,0.3-0.4c-0.3-0.7-0.6-1.4-0.9-2.1
		c-0.1-0.3-0.2-0.6-0.4-0.9c0-0.1-0.1-0.2-0.2-0.2c-0.1,0-0.1,0.1-0.1,0.2c-0.4,1.1-0.8,2.1-1.2,3.2c-0.1,0.3-0.3,0.7-0.4,1
		c-0.2,0.5-0.2,0.6,0.3,0.8c0.1,0,0.2,0.1,0.3,0.3c-0.6,0-1.3,0-1.9,0c0,0,0-0.1,0-0.1c0,0,0.1-0.1,0.1-0.1c0.7-0.2,0.9-0.7,1.1-1.3
		c0.2-0.7,0.4-1.3,0.7-1.9c0.1-0.3,0.2-0.6,0.3-0.9c0.3-1.1,0.9-2.1,1.2-3.1c0-0.1,0.1-0.2,0.1-0.3c0.1-0.1,0.1-0.3,0.3-0.3
		c0.2,0,0.2,0.2,0.3,0.3c1,2.1,1.7,4.3,2.7,6.4c0.2,0.5,0.3,1,0.8,1.3c-0.4,0.1-0.8,0-1.2,0.2c0.2,0.1,0.4,0,0.5,0.2
		C142.7,76,141.8,76,141,76z"/>
	<path class="st0" d="M178.3,76c0.2-0.2,0.6,0,0.9-0.2c-0.3-0.2-0.5-0.1-0.7-0.1c0-0.1,0.1-0.2,0.1-0.2c0.3-0.2,0.4-0.4,0.4-0.8
		c0-2,0-4,0-6c0-0.6-0.2-1-0.9-1.1c1.3,0,2.5,0,3.7-0.1c0,0.1,0,0.1-0.1,0.1c-0.7,0.2-0.8,0.7-0.8,1.4c0,1.9,0,3.7,0,5.6
		c0,0.3,0,0.6,0.3,0.7c0.3,0.2,0.2,0.3-0.1,0.4c-0.1,0-0.1,0-0.2,0.1c0.1,0.1,0.2,0.1,0.3,0.2C180.2,76,179.3,76,178.3,76z"/>
	<path class="st0" d="M62.6,76c0.1-0.2,0-0.3-0.2-0.3c-0.3,0-0.6,0-0.9,0c0-0.1,0-0.1,0-0.1c1-0.3,1.1-1.3,1.4-2.1
		c0.7-1.7,1.3-3.4,2-5.2c0.1-0.2,0.1-0.3,0.2-0.5c0.1-0.1,0.1-0.3,0.2-0.3c0.2,0,0.2,0.1,0.3,0.3c0.2,0.4,0.4,0.8,0.6,1.3
		c0.8,1.9,1.5,3.7,2.3,5.6c0.1,0.4,0.4,0.6,0.7,0.9c-0.7,0.2-1.3,0-2,0.2c0.5,0.1,1,0,1.4,0.2c-1,0-1.9,0-2.9,0
		c0.2-0.1,0.2-0.3,0.4-0.4c0.4-0.2,0.4-0.4,0.3-0.8c-0.6-1.4-1.1-2.8-1.7-4.2c0-0.1-0.1-0.3-0.2-0.3c-0.2,0-0.2,0.2-0.3,0.3
		c0,0.1,0,0.1-0.1,0.2c-0.5,1.2-0.9,2.5-1.4,3.7c-0.2,0.5-0.1,0.7,0.3,1c0.1,0.1,0.3,0.1,0.2,0.2c-0.3,0.3,0.1,0.2,0.2,0.3
		C63.1,76,62.9,76,62.6,76z"/>
	<path class="st0" d="M88,76c0.5-0.1,1-0.1,1.5-0.2c-0.5,0-0.9-0.1-1.4-0.1c0.6-0.4,0.6-1,0.6-1.6c0-1.6,0-3.2,0-4.8c0,0,0,0,0,0
		c0-0.7,0-1.3-0.9-1.6c1.2,0,2.4,0,3.6,0c0,0.1,0,0.1-0.1,0.1c-0.6,0.2-0.8,0.7-0.8,1.2c-0.1,1.8-0.1,3.6,0,5.5c0,0.4,0,0.8,0.4,1.1
		c0.1,0.1,0.1,0.2-0.1,0.2c-0.1,0-0.3,0-0.4,0.1c0,0.1,0.2,0.1,0.3,0.2C89.9,76,88.9,76,88,76z"/>
	<path class="st0" d="M121,42.1c-4.5,0-9,0-13.5,0c-0.4,0-0.7,0-1.1-0.1c-0.8-0.2-1.4-0.8-1.4-1.6c0-0.8,0-1.6,0-2.4
		c0-3.7,0-7.3,0-11c0-1.1,0.9-1.8,1.8-1.5c0.4,0.1,0.6,0.4,0.8,0.6c1.4,1.3,2.8,2.6,4.2,4c0.5,0.4,0.9,0.9,1.3,1.3
		c0.3,0.3,0.4,0.3,0.7,0c0.5-0.7,0.9-1.3,1.4-2c1.3-1.7,2.6-3.4,3.8-5.1c0.1-0.2,0.2-0.3,0-0.5c-0.9-1.3-1.9-2.5-2.9-3.7
		c-0.4-0.5-0.5-1.2-0.1-1.7c1.2-1.6,2.4-3.2,3.6-4.8c0.6-0.8,1.5-0.9,2.2-0.1c0.8,1,1.6,2.1,2.4,3.2c0.4,0.6,0.8,1.1,1.3,1.7
		c0.4,0.6,0.4,1.1,0,1.7c-0.9,1.3-1.9,2.5-2.8,3.8c-0.1,0.2-0.2,0.3,0,0.5c1.5,2,2.9,4,4.4,6c0.3,0.4,0.7,0.8,1,1.2
		c0.1,0.2,0.3,0.1,0.4,0c0.3-0.3,0.7-0.6,1-0.9c1.6-1.5,3.2-3.1,4.8-4.6c0.5-0.4,1-0.7,1.6-0.4c0.6,0.3,0.9,0.8,0.9,1.5
		c0,4.4,0,8.8,0,13.2c0,1.2-0.6,1.8-1.8,1.8c-2,0-4,0-6.1,0C126.4,42.1,123.7,42.1,121,42.1C121,42.1,121,42.1,121,42.1z M121,26.4
		c-0.2,0.1-0.3,0.3-0.5,0.4c-1.5,2-3,4-4.4,6c-0.2,0.2-0.5,0.4-0.5,0.7c0,0.3,0.4,0.4,0.6,0.7c1.5,1.4,3,2.8,4.4,4.2
		c0.3,0.3,0.4,0.3,0.7,0c1.6-1.5,3.2-3,4.8-4.5c0.2-0.2,0.3-0.4,0-0.7c-0.4-0.5-0.8-1.1-1.2-1.6c-1.2-1.7-2.5-3.3-3.7-5
		C121.2,26.6,121.2,26.4,121,26.4z M107.8,33.4c-0.1,1.2,0.1,2.7,0.1,4.3c0,0.4,0,0.8-0.1,1.2c0,0.1,0,0.3,0.1,0.3
		c0.1,0,0.2-0.1,0.2-0.2c1.2-1.6,2.4-3.3,3.6-4.9c0.1-0.2,0.1-0.3-0.1-0.5c-0.3-0.3-0.7-0.6-1-0.9c-0.8-0.8-1.7-1.7-2.5-2.5
		c-0.1-0.1-0.2-0.2-0.3-0.2c-0.1,0.1-0.1,0.2-0.1,0.3C107.8,31.3,107.8,32.2,107.8,33.4z M134.1,34c0-1.1,0-2.1,0-3.2
		c0-0.2,0.1-0.5-0.1-0.5c-0.2-0.1-0.3,0.2-0.5,0.3c-1.1,1-2.1,2.1-3.3,3.1c-0.2,0.2-0.1,0.3,0,0.5c1.2,1.6,2.3,3.2,3.5,4.7
		c0.1,0.1,0.2,0.3,0.3,0.2c0.2-0.1,0.1-0.3,0.1-0.4C134.1,37.2,134.1,35.6,134.1,34z M130.2,39.3c0.1,0,0.2,0,0.3-0.1
		c0.1-0.1,0-0.2-0.1-0.3c-0.7-0.9-1.4-1.8-2-2.7c-0.3-0.4-0.3-0.4-0.6,0c-0.7,0.7-1.5,1.4-2.2,2.2c-0.2,0.2-0.5,0.4-0.7,0.6
		c-0.1,0.1-0.3,0.2-0.2,0.3c0.1,0.1,0.2,0.1,0.3,0.1c0.2,0,0.4,0,0.5,0C127.1,39.2,128.6,39.3,130.2,39.3z M115,39.3
		c0.7,0,1.4,0,2.1,0c0.1,0,0.1,0,0.2,0c0-0.1,0-0.1,0-0.2c-0.1-0.1-0.1-0.1-0.2-0.2c-0.9-0.9-1.9-1.8-2.8-2.7
		c-0.3-0.3-0.4-0.3-0.6,0.1c-0.7,0.9-1.3,1.8-2,2.7c-0.1,0.1-0.2,0.2-0.2,0.3c0.1,0.2,0.2,0.1,0.4,0.1C112.9,39.3,114,39.2,115,39.3
		z M121,21.6c0.1,0,0.2-0.2,0.3-0.3c0.5-0.7,1-1.4,1.6-2c0.2-0.2,0.1-0.3,0-0.4c-0.5-0.7-1-1.4-1.6-2.1c-0.2-0.3-0.3-0.3-0.5,0
		c-0.5,0.7-1.1,1.4-1.6,2.1c-0.1,0.1-0.1,0.2,0,0.4c0.5,0.7,1.1,1.4,1.6,2.1C120.8,21.4,120.9,21.6,121,21.6z"/>
	<path class="st0" d="M121,50.2c4.8,0,9.6,0,14.4,0c0.6,0,1,0.2,1.3,0.7c0.5,0.8,0.1,1.8-0.8,2c-0.3,0.1-0.5,0.1-0.8,0.1
		c-9.4,0-18.8,0-28.2,0c-0.5,0-0.9-0.1-1.3-0.4c-0.4-0.3-0.6-0.7-0.5-1.2c0.2-0.7,0.7-1.1,1.3-1.1c0.2,0,0.4,0,0.7,0
		C111.7,50.2,116.4,50.2,121,50.2C121,50.2,121,50.2,121,50.2z"/>
	<path class="st0" d="M121,47.5c-4.7,0-9.5,0-14.2,0c-0.5,0-0.9-0.1-1.2-0.4c-0.5-0.4-0.6-0.8-0.4-1.4c0.2-0.6,0.7-0.9,1.3-0.9
		c8,0,16,0,24.1,0c1.4,0,2.8,0,4.2,0c0.3,0,0.7-0.1,1,0c0.7,0.1,1.3,0.7,1.2,1.4c0,0.6-0.6,1.2-1.3,1.3c-0.2,0-0.4,0-0.6,0
		C130.4,47.5,125.7,47.5,121,47.5C121,47.5,121,47.5,121,47.5z"/>
	<path class="st0" d="M122.4,75.7c-0.5,0-1.1,0-1.6,0c0,0,0-0.1,0-0.1c0.8-0.4,0.8-1.1,0.7-1.8c-0.1-1.2,0-2.4,0-3.6
		c0,0.2,0.1,0.4,0.1,0.6c0,1.1,0,2.2,0.1,3.3C121.7,74.8,121.7,75.3,122.4,75.7C122.4,75.6,122.4,75.6,122.4,75.7z"/>
</g>
</svg>
