<?xml version="1.0" encoding="utf-8"?>
<!-- Generator: $$$/GeneralStr/196=Adobe Illustrator 27.6.0, SVG Export Plug-In . SVG Version: 6.00 Build 0)  -->
<svg version="1.1" id="Capa_1" xmlns="http://www.w3.org/2000/svg" xmlns:xlink="http://www.w3.org/1999/xlink" x="0px" y="0px"
	 viewBox="0 0 250 100" style="enable-background:new 0 0 250 100;" xml:space="preserve">
<style type="text/css">
	.st0{fill:url(#SVGID_1_);}
	.st1{fill:url(#SVGID_00000082366131794557004200000016356653023168925071_);}
	.st2{opacity:0.4;fill:url(#SVGID_00000071520035330434883850000016829814467722335127_);enable-background:new    ;}
	.st3{fill:#FFFFFF;}
	.st4{opacity:0.4;fill:url(#SVGID_00000134971269994702077550000006656470277931149488_);enable-background:new    ;}
	.st5{fill:#565F64;}
	.st6{fill:url(#SVGID_00000051383225761723632160000014782955497061863088_);}
	.st7{fill:#A4AAAE;fill-opacity:0.6;}
	.st8{fill:#333E46;}
	.st9{fill:url(#SVGID_00000081633067259127445770000004434221271690364069_);}
	.st10{fill:url(#SVGID_00000022557827914300907290000007366129696515934850_);fill-opacity:0.8;}
	.st11{opacity:0.8;fill:url(#SVGID_00000018232256621321607990000016317224352617007031_);enable-background:new    ;}
	.st12{fill:url(#SVGID_00000118365737819632581340000015550369739739855280_);}
	.st13{fill:url(#SVGID_00000000920972169224218590000015094613798662279590_);}
	.st14{fill:url(#SVGID_00000182492538313004987770000002031976478955289216_);}
	.st15{fill:url(#SVGID_00000142889129419500254660000006979302890399798450_);}
	.st16{fill:url(#SVGID_00000154426230416739822140000012625788135910340754_);}
	.st17{fill:url(#SVGID_00000049940486599555791700000001432340173948573324_);}
	.st18{fill:url(#SVGID_00000145762774621546021780000003885041497578760092_);}
	.st19{fill:#FBFBFB;}
	.st20{fill:#333F47;}
</style>
<g>
	
		<linearGradient id="SVGID_1_" gradientUnits="userSpaceOnUse" x1="196.9399" y1="4152.4746" x2="265.0601" y2="4209.5254" gradientTransform="matrix(1 0 0 1 -106 -4131)">
		<stop  offset="0" style="stop-color:#FFFFFF"/>
		<stop  offset="0.1" style="stop-color:#E7E8E6"/>
		<stop  offset="0.1" style="stop-color:#CDD0D0"/>
		<stop  offset="0.2" style="stop-color:#B5BBBD"/>
		<stop  offset="0.2" style="stop-color:#A5ACAF"/>
		<stop  offset="0.3" style="stop-color:#9BA3A7"/>
		<stop  offset="0.3" style="stop-color:#98A0A4"/>
		<stop  offset="0.4" style="stop-color:#828A8F"/>
		<stop  offset="0.5" style="stop-color:#667075"/>
		<stop  offset="0.6" style="stop-color:#535C63"/>
		<stop  offset="0.7" style="stop-color:#475158"/>
		<stop  offset="0.8" style="stop-color:#434D54"/>
		<stop  offset="1" style="stop-color:#475157"/>
	</linearGradient>
	<path class="st0" d="M169.4,50c0,24.5-19.9,44.4-44.4,44.4S80.6,74.5,80.6,50S100.5,5.6,125,5.6S169.4,25.5,169.4,50z M125,8.3
		c-23.1,0-41.7,18.6-41.7,41.7S102,91.7,125,91.7c23.1,0,41.7-18.7,41.7-41.7C166.7,26.9,148.1,8.3,125,8.3z"/>
	
		<linearGradient id="SVGID_00000034795439119041065780000009389010182153160064_" gradientUnits="userSpaceOnUse" x1="199.0308" y1="4154.1211" x2="262.8882" y2="4207.7617" gradientTransform="matrix(1 0 0 1 -106 -4131)">
		<stop  offset="0" style="stop-color:#0B1F2A"/>
		<stop  offset="0.2" style="stop-color:#333F47"/>
		<stop  offset="0.5" style="stop-color:#777F84"/>
		<stop  offset="0.5" style="stop-color:#81898D"/>
		<stop  offset="0.7" style="stop-color:#B3B8B8"/>
		<stop  offset="0.8" style="stop-color:#D2D5D3"/>
		<stop  offset="0.8" style="stop-color:#DEE0DD"/>
		<stop  offset="1" style="stop-color:#FBFBFB"/>
	</linearGradient>
	<path style="fill:url(#SVGID_00000034795439119041065780000009389010182153160064_);" d="M125,8.3c-23.1,0-41.7,18.6-41.7,41.7
		S102,91.7,125,91.7c23.1,0,41.7-18.7,41.7-41.7C166.7,26.9,148.1,8.3,125,8.3z M125,89c-21.6,0-39-17.5-39-39s17.5-39,39-39
		s39,17.5,39,39S146.6,89,125,89z"/>
	
		<linearGradient id="SVGID_00000172409647690689487420000013294344660583551411_" gradientUnits="userSpaceOnUse" x1="1088.1521" y1="248.3452" x2="1119.2294" y2="333.7721" gradientTransform="matrix(-1 0 0 -1 1228.672 341.007)">
		<stop  offset="0" style="stop-color:#E1E3E1"/>
		<stop  offset="0.1" style="stop-color:#C1C5C4"/>
		<stop  offset="0.3" style="stop-color:#9BA1A2"/>
		<stop  offset="0.5" style="stop-color:#7D8487"/>
		<stop  offset="0.7" style="stop-color:#687074;stop-opacity:0"/>
		<stop  offset="0.8" style="stop-color:#5B6469;stop-opacity:0"/>
		<stop  offset="1" style="stop-color:#576065;stop-opacity:0"/>
	</linearGradient>
	<path style="opacity:0.4;fill:url(#SVGID_00000172409647690689487420000013294344660583551411_);enable-background:new    ;" d="
		M125,94.4c24.5,0,44.4-19.9,44.4-44.4S149.5,5.6,125,5.6S80.6,25.5,80.6,50S100.5,94.4,125,94.4z M125,4.6
		c25,0,45.4,20.4,45.4,45.4S150,95.4,125,95.4S79.6,75,79.6,50S100,4.6,125,4.6z"/>
	<path class="st3" d="M82.7,50.1c0-23.3,18.9-42.4,42.3-42.4s42.3,19,42.3,42.4c0,23.3-18.9,42.1-42.3,42.1S82.7,73.4,82.7,50.1z
		 M95.9,20.9c-7.5,7.5-12.2,17.9-12.2,29.2s4.7,21.7,12.1,29.1c7.5,7.4,17.9,12.1,29.2,12.1s21.7-4.5,29.1-12.1
		c7.5-7.4,12.1-17.7,12.1-29.1s-4.7-21.7-12.1-29.2S136.4,8.7,125,8.7S103.3,13.4,95.9,20.9z"/>
	
		<linearGradient id="SVGID_00000023282646537379303440000000214623206875017617_" gradientUnits="userSpaceOnUse" x1="211.4181" y1="4147.0864" x2="250.5819" y2="4214.9136" gradientTransform="matrix(1 0 0 1 -106 -4131)">
		<stop  offset="0" style="stop-color:#E1E3E1"/>
		<stop  offset="0.1" style="stop-color:#C1C5C4"/>
		<stop  offset="0.3" style="stop-color:#9BA1A2"/>
		<stop  offset="0.5" style="stop-color:#7D8487"/>
		<stop  offset="0.7" style="stop-color:#687074;stop-opacity:0"/>
		<stop  offset="0.8" style="stop-color:#5B6469;stop-opacity:0"/>
		<stop  offset="1" style="stop-color:#576065;stop-opacity:0"/>
	</linearGradient>
	<path style="opacity:0.4;fill:url(#SVGID_00000023282646537379303440000000214623206875017617_);enable-background:new    ;" d="
		M125,89.2c-10.5,0-20.3-4.1-27.7-11.5S85.8,60.5,85.8,50s4.1-20.3,11.5-27.7s17.2-11.5,27.7-11.5s20.3,4.1,27.7,11.5
		s11.5,17.2,11.5,27.7s-4.1,20.3-11.5,27.7S135.5,89.2,125,89.2z M125,88c10.1,0,19.7-4,26.8-11.1c7.2-7.2,11.1-16.7,11.1-26.8
		s-4-19.7-11.1-26.8c-7.2-7.2-16.7-11.1-26.8-11.1s-19.7,4-26.8,11.1C90.9,30.3,87,39.9,87,50s4,19.7,11.1,26.8
		C105.3,84.1,114.9,88,125,88z"/>
	<path class="st3" d="M159.5,68.4c-0.7-0.6-28.1-22.3-28.1-22.3L125,9.7c-0.4,0.1-1,0.6-1.3,1.1l-4.5,35.5L90.9,68
		c0,0-0.6,0.7-0.9,1.1c-0.1,0.3-0.1,0.7-0.1,1.1L124.9,56l34.9,14.3C160.1,69.6,159.8,68.9,159.5,68.4z"/>
	<path class="st5" d="M125.3,51.1l-0.3,6.5l32.1,12.9c1.1,0.6,2,0.3,2.8-0.3L125.7,51C125.6,50.9,125.3,51,125.3,51.1z"/>
	
		<linearGradient id="SVGID_00000029013501303686498840000009795875320137008058_" gradientUnits="userSpaceOnUse" x1="248.7238" y1="4191.4868" x2="246.3114" y2="4195.46" gradientTransform="matrix(1 0 0 1 -106 -4131)">
		<stop  offset="0" style="stop-color:#27343C"/>
		<stop  offset="1" style="stop-color:#00111E;stop-opacity:0"/>
	</linearGradient>
	<path style="fill:url(#SVGID_00000029013501303686498840000009795875320137008058_);" d="M125.3,51.1c0,0,1.8,3.3,4,5.5
		c3,3.3,7,5.5,7,5.5l20.9,8.4c1.1,0.6,2,0.3,2.8-0.3L125.7,51C125.6,50.9,125.3,51,125.3,51.1z"/>
	<path class="st7" d="M159.8,69c0-0.1-0.1-0.3-0.3-0.6L130.3,47l-4,2.6c0,0,0.3,0.1,0.4,0c0.4-0.1,1.3-0.3,2.1,0
		c0.7,0.3,30.9,19.6,30.9,19.6V69z"/>
	<path class="st8" d="M158.8,67.7l-27.2-21.6l-1.3,0.9l29.2,21.6C159.3,68.3,159.1,68,158.8,67.7z"/>
	<path class="st5" d="M125.7,49l-0.1,0.1c0,0,0,0.3,0.3,0.1c0.1-0.1,4.3-2.3,5.7-3.1l-5-34.1c-0.1-1.3-0.7-1.8-1.7-2.3l0.6,39.4
		C125.4,49.3,125.7,49,125.7,49z"/>
	<path class="st7" d="M123.3,12.1V14l-3.1,31.4c0,0.4,0.1,0.9,0.6,1.1l1.8,1.4l1.3-34.6l0.1-2.7C123.6,10.8,123.4,11.4,123.3,12.1z
		 M121.6,48.4l-1.7-1.4L91.1,67.9c0,0-0.9,0.6-1,1.1l1-0.6l30.2-19C121.9,49.1,122,48.9,121.6,48.4z"/>
	<path class="st5" d="M124.6,51.1c0-0.1-0.1-0.3-0.3-0.1L89.9,70.4c0.9,0.6,1.7,0.7,2.8,0.3l32.1-12.9L124.6,51.1z"/>
	
		<linearGradient id="SVGID_00000073694704498502019430000003991522751920884373_" gradientUnits="userSpaceOnUse" x1="241.7551" y1="4176.8999" x2="237.7818" y2="4170.5142" gradientTransform="matrix(1 0 0 1 -106 -4131)">
		<stop  offset="0.1" style="stop-color:#02131F"/>
		<stop  offset="0.9" style="stop-color:#02131F;stop-opacity:0"/>
	</linearGradient>
	<path style="fill:url(#SVGID_00000073694704498502019430000003991522751920884373_);" d="M125.6,49.1l0.1-0.1L125.6,49.1
		c0,0,0,0.1,0.1,0.1h0.1c0.1-0.1,4.3-2.3,5.7-3.1l-0.6-4.1l-4.4-29.9c0-0.6-0.1-1-0.4-1.3c0,0,2.1,28.7,2.1,31.8
		C128.3,46.7,125.6,49.1,125.6,49.1z"/>
	
		<linearGradient id="SVGID_00000095306586224760371830000011719893441761895864_" gradientUnits="userSpaceOnUse" x1="230.9704" y1="4187.1543" x2="225.0104" y2="4188.8574" gradientTransform="matrix(1 0 0 1 -106 -4131)">
		<stop  offset="0.2" style="stop-color:#02131F"/>
		<stop  offset="0.9" style="stop-color:#02131F;stop-opacity:0"/>
	</linearGradient>
	<path style="fill:url(#SVGID_00000095306586224760371830000011719893441761895864_);fill-opacity:0.8;" d="M124.6,51.1
		c0-0.1-0.1-0.3-0.3-0.1L89.9,70.4c0.9,0.6,1.7,0.7,2.8,0.3l32.1-12.9L124.6,51.1z"/>
	
		<linearGradient id="SVGID_00000011726795922154087620000013242776860746409638_" gradientUnits="userSpaceOnUse" x1="215.0924" y1="4195.0488" x2="214.241" y2="4192.9199" gradientTransform="matrix(1 0 0 1 -106 -4131)">
		<stop  offset="0" style="stop-color:#02131F"/>
		<stop  offset="0.1" style="stop-color:#02131F"/>
		<stop  offset="1" style="stop-color:#02131F;stop-opacity:0"/>
	</linearGradient>
	<path style="opacity:0.8;fill:url(#SVGID_00000011726795922154087620000013242776860746409638_);enable-background:new    ;" d="
		M92.8,70.6l32.1-12.9l-0.3-6.2c-0.6,1.7-1.6,3.5-4.3,5c-2,1.1-21,10.5-27.8,13.8c-0.4,0.3-1,0.4-1.3,0.6
		C91.8,71,92.2,70.9,92.8,70.6z"/>
	
		<linearGradient id="SVGID_00000083788206416434704970000014427531047987002014_" gradientUnits="userSpaceOnUse" x1="236.1094" y1="4160.0186" x2="231.2846" y2="4160.5864" gradientTransform="matrix(1 0 0 1 -106 -4131)">
		<stop  offset="0.3" style="stop-color:#02131F"/>
		<stop  offset="0.3" style="stop-color:#02131F"/>
		<stop  offset="0.8" style="stop-color:#02131F;stop-opacity:0"/>
	</linearGradient>
	<path style="fill:url(#SVGID_00000083788206416434704970000014427531047987002014_);" d="M125.7,49l-0.1,0.1c0,0,0,0.3,0.3,0.1
		c0.1-0.1,4.3-2.3,5.7-3.1l-5-34.1c-0.1-1.3-0.7-1.8-1.7-2.3l0.6,39.4C125.4,49.3,125.7,49,125.7,49z"/>
	
		<linearGradient id="SVGID_00000021121214347055440400000010291920457517375627_" gradientUnits="userSpaceOnUse" x1="236.2641" y1="4159.937" x2="233.0003" y2="4160.3628" gradientTransform="matrix(1 0 0 1 -106 -4131)">
		<stop  offset="0.4" style="stop-color:#27343C"/>
		<stop  offset="1" style="stop-color:#3B474E;stop-opacity:0"/>
	</linearGradient>
	<path style="fill:url(#SVGID_00000021121214347055440400000010291920457517375627_);" d="M125.7,49l-0.1,0.1c0,0,0,0.3,0.3,0.1
		c0.1-0.1,4.3-2.3,5.7-3.1l-5-34.1c-0.1-1.3-0.7-1.8-1.7-2.3l0.6,39.4C125.4,49.3,125.7,49,125.7,49z"/>
	
		<linearGradient id="SVGID_00000023280263077010057590000015376397722647017136_" gradientUnits="userSpaceOnUse" x1="185.0784" y1="4182.1797" x2="224.67" y2="4205.0264" gradientTransform="matrix(1 0 0 1 -106 -4131)">
		<stop  offset="0" style="stop-color:#24303A;stop-opacity:0"/>
		<stop  offset="0" style="stop-color:#25323B;stop-opacity:0"/>
		<stop  offset="0.1" style="stop-color:#27343C"/>
	</linearGradient>
	<path style="fill:url(#SVGID_00000023280263077010057590000015376397722647017136_);" d="M86.8,67.6c-1-2.3-6.7-13.3-0.4-34.6H84
		c-1.3,4.3-2.3,6.8-2.8,10.6c0,0-0.3,1.4-0.4,3c-0.1,1.6-0.1,2.4-0.1,3.4c0,8.5,2.1,13.5,2.1,13.5C85,70.6,89,77,94.3,81.8
		c4.7,4.1,11.9,7.2,17.9,8.4C111.2,90,94.2,82.8,86.8,67.6z"/>
	
		<linearGradient id="SVGID_00000057865563329850411810000016670636255889691563_" gradientUnits="userSpaceOnUse" x1="230.929" y1="4188.6631" x2="230.929" y2="4181.8516" gradientTransform="matrix(1 0 0 1 -106 -4131)">
		<stop  offset="0.3" style="stop-color:#A5ABAF"/>
		<stop  offset="1" style="stop-color:#A5ABAF;stop-opacity:0"/>
	</linearGradient>
	<path style="fill:url(#SVGID_00000057865563329850411810000016670636255889691563_);" d="M125.6,50.9h-1.3c0.1,0,0.3,0,0.3,0.1
		l0.3,6.5h0.1l0.3-6.5C125.3,50.9,125.4,50.7,125.6,50.9z"/>
	
		<linearGradient id="SVGID_00000075873494409773097580000007376689638812782483_" gradientUnits="userSpaceOnUse" x1="253.2082" y1="4138.854" x2="253.2082" y2="4225.4165" gradientTransform="matrix(1 0 0 1 -106 -4131)">
		<stop  offset="0" style="stop-color:#DEE0DD"/>
		<stop  offset="0" style="stop-color:#C5C9C7"/>
		<stop  offset="0" style="stop-color:#9EA4A5"/>
		<stop  offset="0" style="stop-color:#82898C"/>
		<stop  offset="0" style="stop-color:#71797D"/>
		<stop  offset="0" style="stop-color:#6B7378"/>
		<stop  offset="0.2" style="stop-color:#333F47"/>
		<stop  offset="0.5" style="stop-color:#27343C"/>
		<stop  offset="0.8" style="stop-color:#333F47"/>
		<stop  offset="1" style="stop-color:#434D54"/>
	</linearGradient>
	<path style="fill:url(#SVGID_00000075873494409773097580000007376689638812782483_);" d="M139.2,7.9c14.9,5.7,28.9,21.3,28.9,41
		c0,23.8-19,43.3-43.1,43.3v2.3c24.1,0,44.4-19.9,44.4-44.4C169.4,30.4,156.9,14,139.2,7.9z"/>
	
		<linearGradient id="SVGID_00000018942652895562193910000006273988188300478388_" gradientUnits="userSpaceOnUse" x1="231" y1="4136.5835" x2="231.4257" y2="4136.5835" gradientTransform="matrix(1 0 0 1 -106 -4131)">
		<stop  offset="0" style="stop-color:#DEE0DD"/>
		<stop  offset="0" style="stop-color:#C5C9C7"/>
		<stop  offset="0" style="stop-color:#9EA4A5"/>
		<stop  offset="0" style="stop-color:#82898C"/>
		<stop  offset="0" style="stop-color:#71797D"/>
		<stop  offset="0" style="stop-color:#6B7378"/>
		<stop  offset="0.2" style="stop-color:#333F47"/>
		<stop  offset="0.5" style="stop-color:#27343C"/>
		<stop  offset="0.8" style="stop-color:#333F47"/>
		<stop  offset="1" style="stop-color:#434D54"/>
	</linearGradient>
	<path style="fill:url(#SVGID_00000018942652895562193910000006273988188300478388_);" d="M125.4,5.6H125H125.4z"/>
	
		<linearGradient id="SVGID_00000047051345082806404740000016673971749170252442_" gradientUnits="userSpaceOnUse" x1="266.8887" y1="4147.0713" x2="247.7315" y2="4175.1685" gradientTransform="matrix(1 0 0 1 -106 -4131)">
		<stop  offset="0.7" style="stop-color:#27343C"/>
		<stop  offset="0.7" style="stop-color:#2B373F"/>
		<stop  offset="0.7" style="stop-color:#36424A"/>
		<stop  offset="0.7" style="stop-color:#49545B"/>
		<stop  offset="0.8" style="stop-color:#646D73;stop-opacity:0"/>
		<stop  offset="0.8" style="stop-color:#868D92;stop-opacity:0"/>
		<stop  offset="0.8" style="stop-color:#B0B5B8;stop-opacity:0"/>
		<stop  offset="0.8" style="stop-color:#E1E3E4;stop-opacity:0"/>
		<stop  offset="0.8" style="stop-color:#FFFFFF;stop-opacity:0"/>
	</linearGradient>
	<path style="fill:url(#SVGID_00000047051345082806404740000016673971749170252442_);" d="M163,33.3C153.1,10.4,130.7,9.1,129.4,9
		h-0.1c17.2,3.1,28.1,14.3,31.9,26.1v0.1c1.7,4.5,2.6,9.4,2.7,14.6c0.1,5-1,10.5-3.1,15.6c-0.1,0.7-0.3,1.6-0.4,1.6h2.3
		C169.4,54.3,166.4,41.3,163,33.3z"/>
	<path class="st19" d="M82.7,50.1c0-23.3,18.9-42.4,42.3-42.4s42.3,19,42.3,42.4c0,23.3-18.9,42.1-42.3,42.1S82.7,73.4,82.7,50.1z
		 M95.9,20.9c-7.5,7.5-12.2,17.9-12.2,29.2s4.7,21.7,12.1,29.1c7.5,7.4,17.9,12.1,29.2,12.1s21.7-4.5,29.1-12.1
		c7.5-7.4,12.1-17.7,12.1-29.1s-4.7-21.7-12.1-29.2S136.4,8.7,125,8.7S103.3,13.4,95.9,20.9z"/>
	<path class="st20" d="M90.8,68.2l28.9-20.9c1.6,0.9,4.1,2,4.4,2c0.3,0.1,0.3-0.1,0.3-0.1l-3.5-3c-0.4-0.3-0.6-0.7-0.6-1.1l3.4-34.2
		c-0.1,0.1-0.1,0.4-0.3,0.6c-0.1,0.3-0.1,0.4-0.1,0.7l-5,34.2L91.1,67.7C90.9,67.9,90.8,68,90.8,68.2z"/>
</g>
</svg>
