<?xml version="1.0" encoding="utf-8"?>
<!-- Generator: $$$/GeneralStr/196=Adobe Illustrator 27.6.0, SVG Export Plug-In . SVG Version: 6.00 Build 0)  -->
<svg version="1.1" id="Capa_1" xmlns="http://www.w3.org/2000/svg" xmlns:xlink="http://www.w3.org/1999/xlink" x="0px" y="0px"
	 viewBox="0 0 250 100" style="enable-background:new 0 0 250 100;" xml:space="preserve">
<style type="text/css">
	.st0{fill-rule:evenodd;clip-rule:evenodd;fill:#777777;}
</style>
<g id="Logo-_x2F_-Wordmark">
	<path id="Woodmark" class="st0" d="M189,50c0-2.4,2-4.3,4.6-4.3c0.9,0,1.7,0.2,2.4,0.5c0.5,0.2,0.9,0.4,1.2,0.7v-4.7
		c-1.2-0.5-2.5-0.8-3.9-0.8c-4.8,0-8.8,3.9-8.8,8.7s3.9,8.7,8.8,8.7c1.4,0,2.7-0.3,3.9-0.8v-4.7c-0.3,0.3-0.8,0.5-1.2,0.7
		c-0.7,0.3-1.5,0.5-2.4,0.5C191,54.3,189,52.4,189,50z M158.6,41.7c-0.1,0.1-7.8,16.6-7.8,16.6h4.9l3.2-6.9l3.2,6.9h4.9
		c0,0-7.8-16.5-7.8-16.6C158.9,41.6,158.7,41.6,158.6,41.7z M145.4,54.1V41.6h-4.5v16.7h9.1V54L145.4,54.1L145.4,54.1z M134.3,52.9
		c0-0.9-0.8-1.7-1.7-1.7h-2.5v3.3h2.5C133.6,54.6,134.3,53.8,134.3,52.9z M130.2,45v3.3h2.5c0.9,0,1.6-0.7,1.6-1.6
		c0-0.9-0.7-1.6-1.6-1.6h-2.5V45z M138.6,53.5c0,1.3-0.5,2.5-1.4,3.4c-1,0.9-2.1,1.4-4.1,1.4c-1,0-7,0-7,0V41.6c0,0,5.4,0,6.1,0
		c1.4,0,3-0.1,4.5,1c1.1,0.8,1.8,2.2,1.8,3.7c0,1.9-1.1,3.1-1.6,3.5C137.4,50.2,138.6,51.3,138.6,53.5z M124.2,41.6h-13.8v4.3h4.7
		v12.5h4.5V45.9h4.7L124.2,41.6L124.2,41.6z M87.3,50c0-2.4-2-4.3-4.4-4.3s-4.4,1.9-4.4,4.3c0,2.4,2,4.3,4.4,4.3S87.3,52.4,87.3,50z
		 M91.7,50c0,4.8-3.9,8.7-8.8,8.7c-4.8,0-8.8-3.9-8.8-8.7s3.9-8.7,8.8-8.7C87.8,41.3,91.7,45.2,91.7,50z M177.7,41.6v7.9
		c0,0-9.7-7.8-9.8-7.8c-0.1-0.1-0.3,0-0.3,0.2s0,16.5,0,16.5h4.5v-7.9c0,0,9.7,7.8,9.8,7.8c0.1,0.1,0.3,0,0.3-0.2s0-16.5,0-16.5
		H177.7z M104,41.6v7.9c0,0-9.7-7.8-9.8-7.8c-0.1-0.1-0.3,0-0.3,0.2s0,16.5,0,16.5h4.5v-7.9c0,0,9.7,7.8,9.8,7.8
		c0.1,0.1,0.3,0,0.3-0.2s0-16.5,0-16.5H104z M71.9,41.8c0,0.2,0,16.6,0,16.6h-4.5v-6.5c0,0-4.9,4.8-4.9,4.9c-0.1,0.1-0.2,0.1-0.3,0
		s-4.9-4.9-4.9-4.9v6.5h-4.5c0,0,0-16.4,0-16.6c0-0.2,0.2-0.2,0.3-0.1c0.1,0.1,9.3,9.2,9.3,9.2s9.2-9.1,9.3-9.2
		C71.7,41.6,71.9,41.6,71.9,41.8L71.9,41.8z"/>
</g>
</svg>
