<?xml version="1.0" encoding="utf-8"?>
<!-- Generator: $$$/GeneralStr/196=Adobe Illustrator 27.6.0, SVG Export Plug-In . SVG Version: 6.00 Build 0)  -->
<svg version="1.1" id="Capa_1" xmlns="http://www.w3.org/2000/svg" xmlns:xlink="http://www.w3.org/1999/xlink" x="0px" y="0px"
	 viewBox="0 0 250 100" style="enable-background:new 0 0 250 100;" xml:space="preserve">
<style type="text/css">
	.st0{fill:#777777;}
</style>
<g id="Layer_2">
</g>
<g>
	<path class="st0" d="M19.6,29.4c1.6,0,3.1,0,4.7,0c0.5,0,0.8-0.1,1.2-0.5c2.9-2.9,5.7-5.8,8.6-8.6c0.5-0.5,0.5-0.5,1.1,0
		c2.8,2.8,5.6,5.6,8.4,8.5c0.5,0.5,0.9,0.7,1.6,0.6c3.1,0,6.2,0,9.3,0c0.6,0,0.8,0.2,0.8,0.8c0,3.1,0,6.3,0,9.4
		c0,0.5,0.2,0.9,0.5,1.2c2.9,2.9,5.9,5.8,8.8,8.8c0.3,0.3,0.3,0.5,0,0.8c-3,2.9-5.9,5.9-8.9,8.8c-0.3,0.3-0.4,0.6-0.4,1.1
		c0,3.1,0,6.3,0,9.4c0,0.8,0,0.9-0.9,0.9c-3.1,0-6.2,0-9.3,0c-0.6,0-1,0.2-1.4,0.6c-2.8,2.8-5.7,5.7-8.5,8.5c-0.6,0.6-0.6,0.6-1.2,0
		c-2.9-2.9-5.8-5.8-8.6-8.7c-0.3-0.3-0.6-0.4-0.9-0.4c-3.2,0-6.4,0-9.6,0c-0.8,0-0.8,0-0.8-0.8c0-3.1,0-6.3,0-9.4
		c0-0.5-0.1-0.9-0.5-1.2c-2.9-2.9-5.8-5.8-8.7-8.6c-0.4-0.4-0.4-0.6,0-1c2.9-2.8,5.7-5.7,8.6-8.6c0.4-0.4,0.6-0.8,0.6-1.4
		c0-3.1,0-6.2,0-9.3c0-0.8,0-0.8,0.8-0.8C16.5,29.4,18.1,29.4,19.6,29.4C19.6,29.4,19.6,29.4,19.6,29.4z M53.2,50.1
		C53.2,50.1,53.2,50.1,53.2,50.1c0-5.9,0-11.9,0-17.8c0-0.8,0-0.8-0.8-0.8c-11.9,0-23.7,0-35.6,0c-0.5,0-0.7,0.2-0.7,0.7
		c0,11.9,0,23.7,0,35.6c0,0.5,0.2,0.7,0.7,0.7c11.9,0,23.7,0,35.6,0c0.5,0,0.7-0.2,0.7-0.7C53.2,61.9,53.2,56,53.2,50.1z M55.5,43.5
		c-0.3,0.1-0.2,0.3-0.2,0.4c0,4,0,8,0,12.1c0,0.2-0.1,0.4,0.1,0.5c0.2,0.1,0.3-0.1,0.4-0.3c1.9-2,3.8-3.9,5.8-5.9
		c0.3-0.3,0.3-0.4,0-0.7c-0.7-0.7-1.3-1.4-2-2.1c-1.3-1.2-2.6-2.5-3.9-3.8C55.7,43.7,55.6,43.6,55.5,43.5z M41.2,29.3
		c-0.1-0.1-0.2-0.3-0.3-0.4C38.9,26.9,37,25,35,23.1c-0.2-0.2-0.4-0.3-0.7,0c-1.9,2-3.9,3.9-5.9,5.9c-0.1,0.1-0.3,0.2-0.2,0.4
		c0.1,0.2,0.3,0.1,0.4,0.1c4.1,0,8.1,0,12.2,0C41,29.4,41.1,29.5,41.2,29.3z M14.1,50C14.1,50,14.1,50,14.1,50c0-2,0-4,0-6
		c0-0.2,0.1-0.3-0.1-0.4c-0.2-0.1-0.2,0.1-0.3,0.2c-2,2-3.9,3.9-5.9,5.9c-0.3,0.3-0.2,0.5,0,0.7c1.9,1.9,3.9,3.9,5.8,5.8
		c0.1,0.1,0.2,0.3,0.4,0.3c0.2-0.1,0.1-0.3,0.1-0.5C14.1,54,14.1,52,14.1,50z M28.1,70.6c0,0.1,0,0.1,0.1,0.2c2,2,4,4,6,6
		c0.3,0.3,0.6,0.3,0.9,0c1.9-2,3.9-3.9,5.8-5.8c0.1-0.1,0.2-0.2,0.2-0.4C36.9,70.6,32.5,70.6,28.1,70.6z"/>
	<path class="st0" d="M99.1,47.3c0,1.8,0,3.7,0,5.5c0,0.5-0.1,0.7-0.6,0.7c-1.4,0.1-2.9,0-4.3,0.1c-0.6,0-0.7-0.3-0.7-0.8
		c0-2.2,0-4.3,0-6.5c0-0.3,0.1-0.6-0.3-0.7c-0.4-0.1-0.8,0-1,0.5c-1.2,2.2-2.3,4.5-3.5,6.7c-0.3,0.6-0.7,0.9-1.4,0.9
		c-1.4,0-2.8,0-4.2,0c-0.5,0-0.8-0.2-1-0.6c-1-1.9-2-3.9-3-5.8c-0.2-0.5-0.5-0.9-0.7-1.4c-0.2-0.3-0.5-0.4-0.8-0.3
		c-0.3,0.1-0.3,0.3-0.3,0.5c-0.1,1.8-0.1,3.7,0,5.6c0,0.2,0,0.4,0,0.6c0,1.4,0,1.4-1.3,1.4c-1.2,0-2.4,0-3.6,0
		c-0.5,0-0.6-0.2-0.6-0.6c0-3.8,0-7.5,0-11.3c0-0.5,0.2-0.6,0.7-0.6c2.5,0,5,0,7.5,0c0.4,0,0.7,0.2,0.9,0.6c1.4,2.6,2.8,5.2,4.2,7.8
		c0.1,0.1,0.2,0.3,0.3,0.4c0.3,0.3,0.6,0.4,0.8,0c0.3-0.5,0.6-1,0.9-1.5c1.2-2.2,2.3-4.4,3.5-6.7c0.2-0.4,0.5-0.6,1-0.6
		c2.4,0,4.8,0,7.2,0c0.6,0,0.8,0.2,0.8,0.8C99.1,43.7,99.1,45.5,99.1,47.3z"/>
	<path class="st0" d="M127.5,47.2c0-1.8,0-3.6,0-5.4c0-0.6,0.2-0.8,0.8-0.8c1.5,0,2.9,0,4.4,0c0.5,0,1,0.2,1.4,0.5
		c3,2.5,6.1,4.9,9.1,7.4c0.2,0.2,0.5,0.6,0.8,0.4c0.3-0.1,0.1-0.5,0.1-0.8c0-2.3,0-4.5,0-6.8c0-0.4,0.2-0.6,0.6-0.6
		c1.4,0,2.8,0,4.2,0c0.5,0,0.5,0.3,0.5,0.7c0,1.8,0,3.5,0,5.3c0,1.9,0,3.9,0,5.8c0,0.5-0.1,0.7-0.7,0.7c-1.5,0-3.1,0-4.6,0.1
		c-0.3,0-0.5-0.1-0.7-0.3c-3.3-2.7-6.7-5.3-10-8c-0.1-0.1-0.3-0.3-0.5-0.2c-0.2,0.1-0.1,0.3-0.1,0.5c0,2.4,0,4.8,0,7.2
		c0,0.8-0.1,0.8-0.8,0.8c-1.2,0-2.5,0-3.7,0c-0.7,0-0.8-0.1-0.8-0.8C127.5,50.9,127.5,49.1,127.5,47.2z"/>
	<path class="st0" d="M235,41c3.1,0,6.3,0,9.4,0c0.8,0,0.9,0,0.9,0.9c0,1.5,0,1.5-1.5,1.5c-4.2,0-8.4,0-12.5,0c-0.8,0-0.8,0-0.8,0.8
		c0,0.1,0,0.2,0,0.2c0,1.7-0.2,1.5,1.4,1.5c3.8,0.1,7.7,0.1,11.5,0c0.8,0,0.9,0.1,0.9,0.9c0,1.7,0,1.4-1.4,1.4c-3.9,0-7.8,0-11.7,0
		c-0.6,0-0.8,0.1-0.8,0.7c0,0.5,0,1.1,0,1.6c0,0.6,0.2,0.7,0.7,0.7c3.3,0,6.7,0,10,0c1.2,0,2.4,0,3.5,0c0.5,0,0.7,0.1,0.6,0.7
		c0,0.3,0,0.6,0,0.8c0.1,0.8-0.1,0.9-0.8,0.9c-6,0-11.9,0-17.9,0c-0.4,0-0.9-0.1-1.3-0.1c-0.3,0-0.5-0.1-0.5-0.5c0-3.8,0-7.7,0-11.5
		c0-0.3,0.2-0.5,0.5-0.5c0.6,0,1.1,0,1.7,0C229.6,41,232.3,41,235,41C235,41,235,41,235,41z"/>
	<path class="st0" d="M113.6,53.5c-2.7-0.1-5.3-0.2-7.8-1.3c-0.8-0.4-1.6-0.8-2.2-1.5c-2.1-2.1-2-5.3,0.3-7.1
		c1.6-1.3,3.4-1.9,5.4-2.2c3.4-0.5,6.7-0.5,10,0.3c1.7,0.4,3.3,1,4.5,2.3c2,2.1,1.8,5.4-0.5,7.1c-1.6,1.3-3.5,1.9-5.6,2.2
		C116.3,53.4,114.9,53.6,113.6,53.5z M113.9,43.5c-1.4,0-2.7,0.1-4,0.6c-1,0.4-1.9,1.1-2.2,2.2c-0.5,1.7,0.3,3.3,2,4.1
		c1.2,0.5,2.4,0.7,3.7,0.7c1.4,0,2.8-0.1,4.1-0.7c1.3-0.6,2.1-1.5,2.2-2.9c0.1-1.4-0.6-2.4-1.7-3.1
		C116.7,43.6,115.3,43.4,113.9,43.5z"/>
	<path class="st0" d="M195.9,53.6c-0.8,0-1.6,0-2.3,0c-0.5,0-0.8-0.2-1.1-0.6c-0.3-0.5-0.7-1.1-1.1-1.6c-0.2-0.3-0.4-0.4-0.8-0.4
		c-2.8,0-5.7,0-8.5,0c-0.4,0-0.6,0.1-0.8,0.4c-0.4,0.5-0.7,1-1.1,1.6c-0.3,0.4-0.7,0.6-1.2,0.6c-1.5,0-3-0.1-4.5-0.1
		c-0.2,0-0.3,0.1-0.4-0.1c-0.1-0.1,0.1-0.3,0.2-0.4c2.9-3.9,5.8-7.7,8.8-11.6c0.2-0.3,0.5-0.4,0.9-0.4c1.7,0,3.3,0,5,0
		c0.5,0,0.8,0.2,1.1,0.5c2.7,3.6,5.4,7.2,8.1,10.9c0.2,0.3,0.8,0.7,0.6,1c-0.2,0.4-0.8,0.1-1.2,0.1C197,53.6,196.5,53.6,195.9,53.6
		C195.9,53.6,195.9,53.6,195.9,53.6z M186.4,48.8C186.4,48.8,186.4,48.8,186.4,48.8c0.9,0,1.8,0,2.7,0c0.2,0,0.4,0.1,0.5-0.1
		c0.1-0.2-0.1-0.3-0.2-0.5c-0.9-1.2-1.7-2.4-2.6-3.6c-0.3-0.4-0.4-0.5-0.7,0c-0.9,1.3-1.8,2.5-2.8,3.7c-0.1,0.1-0.3,0.2-0.2,0.4
		c0.1,0.2,0.3,0.1,0.4,0.1C184.6,48.8,185.5,48.8,186.4,48.8z"/>
	<path class="st0" d="M164.3,41c3.9,0,7.8,0,11.6,0c0.9,0,1,0.1,0.9,0.9c0,0.5,0,0.9,0,1.4c0,0.4-0.2,0.6-0.7,0.6
		c-2.7-0.1-5.4,0-8.1-0.1c-0.4,0-0.5,0.2-0.5,0.5c0,2.8-0.1,5.6,0.1,8.4c0,0.7-0.1,0.8-0.8,0.8c-1.7,0-3.4,0-5.1,0
		c-0.7,0-0.8-0.1-0.8-0.8c0-2.7,0-5.5,0-8.2c0-0.6-0.2-0.8-0.7-0.8c-2.6,0.1-5.2-0.1-7.8,0.1c-0.5,0-0.7-0.1-0.7-0.7
		c0-0.5,0-1,0-1.5c0-0.4,0.1-0.6,0.5-0.6c0.3,0,0.6,0,0.8,0C156.8,41,160.6,41,164.3,41C164.3,41,164.3,41,164.3,41z"/>
	<path class="st0" d="M211.8,53.6c-3.4,0-6.7,0-10.1,0c-0.3,0-0.5-0.1-0.5-0.5c0-0.2,0-0.3,0-0.5c0-3.6,0-7.1,0-10.7
		c0-0.9,0-0.9,0.9-0.9c1.6,0,3.1,0,4.7,0c0.7,0,0.8,0.1,0.8,0.8c0,2.9,0,5.8,0,8.7c0,0.6,0.2,0.7,0.7,0.7c4.5,0,8.9,0,13.4,0
		c0.9,0,0.9,0,0.9,0.9c0,1.7,0.2,1.5-1.5,1.5C217.9,53.6,214.8,53.6,211.8,53.6C211.8,53.6,211.8,53.6,211.8,53.6z"/>
	<path class="st0" d="M171.2,61.1c1.8,0.3,3.3,1.5,4.9,2.2c0.1,0.1,0.4,0.1,0.3,0.3c0,0.2-0.2,0.2-0.4,0.2c-1.3,0-2.6,0-3.8-0.8
		c-1.1-0.8-2.4-1.4-3.7-1.7c-1.6-0.4-3.2-0.2-4.8-0.2c-0.3,0-0.4,0.2-0.4,0.5c0,0.5,0,1.1,0,1.6c0,0.5-0.2,0.7-0.7,0.7
		c-0.4,0-0.9,0-1.3,0c-0.4,0-0.6-0.2-0.6-0.6c0-1.7,0-3.5,0-5.2c0-0.4,0.2-0.5,0.6-0.5c1.6,0,3.3-0.1,4.9-0.1c1.6,0,3.1,0,4.7,0.1
		c1,0,2.1,0.1,3.1,0.5c0.3,0.1,0.7,0.3,0.9,0.5c0.6,0.6,0.6,1.1-0.2,1.6c-0.8,0.5-1.6,0.6-2.5,0.7c-0.3,0-0.7,0.1-1,0.1
		C171.2,61,171.2,61,171.2,61.1z M167.1,60.1C167.1,60.1,167.1,60.1,167.1,60.1c1,0,2.1,0,3.1,0c0.6,0,1.3-0.1,1.9-0.4
		c0.3-0.1,0.6-0.2,0.5-0.6c0-0.3-0.3-0.4-0.5-0.5c-0.4-0.2-0.9-0.3-1.4-0.3c-2-0.2-4.1-0.1-6.1-0.1c-1.4,0-1.2-0.2-1.2,1.2
		c0,0.5,0.2,0.6,0.6,0.6C165,60.1,166,60.1,167.1,60.1z"/>
	<path class="st0" d="M191.5,57.5c1.5-0.1,3,0,4.5,0.4c0.7,0.2,1.4,0.4,1.9,0.9c0.1,0.1,0.3,0.3,0.3,0.5c-0.1,0.2-0.3,0.2-0.5,0.2
		c-0.4,0-0.8,0-1.3,0c-0.2,0-0.5,0-0.6-0.2c-0.6-0.7-1.4-0.8-2.2-0.9c-1.6-0.1-3.3-0.2-4.9,0.1c-0.3,0-0.6,0.1-0.9,0.2
		c-0.2,0.1-0.4,0.1-0.3,0.4c0,0.2,0.2,0.3,0.4,0.4c0.8,0.3,1.6,0.3,2.3,0.4c1.8,0.2,3.7,0.3,5.5,0.5c0.7,0.1,1.5,0.3,2.2,0.6
		c0.4,0.2,0.9,0.4,0.9,1c0,0.5-0.4,0.7-0.8,0.9c-1,0.5-2.1,0.7-3.2,0.8c-2.7,0.3-5.3,0.3-8-0.3c-0.8-0.2-1.6-0.5-2.2-1
		c-0.2-0.1-0.4-0.2-0.3-0.5c0.1-0.3,0.3-0.2,0.6-0.2c0.3,0,0.6,0,1,0c0.5,0,0.8,0.1,1.2,0.4c0.7,0.6,1.6,0.6,2.5,0.7
		c1.8,0.2,3.6,0.2,5.4-0.1c0.3-0.1,0.7-0.1,1-0.3c0.2-0.1,0.4-0.2,0.4-0.4c0-0.2-0.2-0.3-0.4-0.4c-0.7-0.3-1.5-0.3-2.2-0.4
		c-2.2-0.3-4.4-0.3-6.6-0.7c-0.6-0.1-1.1-0.3-1.6-0.6c-0.5-0.3-0.5-0.8-0.1-1.2c0.5-0.5,1.1-0.6,1.7-0.8
		C188.5,57.5,190,57.4,191.5,57.5z"/>
	<path class="st0" d="M133.1,57.5c1.7,0.1,3.8-0.2,5.9,0.2c0.6,0.1,1.3,0.3,1.8,0.7c0.8,0.6,0.8,1.3-0.1,1.8c-1,0.7-2.1,0.8-3.2,0.9
		c-2.2,0.2-4.5,0.1-6.7,0.1c-0.8,0-0.8,0-0.8,0.8c0,0.4,0,0.7,0,1.1c0,0.4-0.1,0.6-0.5,0.6c-0.5,0-1,0-1.5,0c-0.4,0-0.5-0.2-0.5-0.5
		c0-1.7,0-3.5,0-5.2c0-0.5,0.3-0.5,0.7-0.5C129.7,57.5,131.2,57.5,133.1,57.5z M134,58.4c-1,0-1.8,0-2.6,0c-1.5,0-1.3-0.3-1.3,1.4
		c0,0.4,0.2,0.6,0.6,0.6c1.7,0,3.5,0,5.2,0c0.8,0,1.6-0.1,2.3-0.4c0.3-0.1,0.5-0.3,0.5-0.6c0-0.3-0.2-0.5-0.5-0.6
		c-0.2-0.1-0.5-0.2-0.8-0.3C136.3,58.3,135,58.4,134,58.4z"/>
	<path class="st0" d="M150.4,61.9c-1.1,0-2.1,0-3.2,0c-0.4,0-0.7,0.1-1,0.4c-0.1,0.1-0.2,0.2-0.3,0.3c-0.8,1-1.8,1.4-3.1,1.2
		c-0.2,0-0.4,0-0.5-0.2c-0.1-0.2,0.1-0.4,0.3-0.5c1.5-1.3,3-2.7,4.5-4c0.5-0.4,1-0.9,1.5-1.4c0.3-0.2,0.5-0.3,0.9-0.3
		c0,0,0.1,0,0.1,0c1.7-0.3,2.8,0.6,3.9,1.6c1.6,1.4,3.3,2.8,5,4.2c0.1,0.1,0.2,0.1,0.2,0.3c0,0.2-0.2,0.2-0.3,0.2
		c-1.1,0-2.2,0.3-3.1-0.7c-0.8-1-1.9-1.3-3.2-1.2C151.6,61.9,151,61.9,150.4,61.9C150.4,61.9,150.4,61.9,150.4,61.9z M147.7,61
		c0.1,0,0.1,0.1,0.2,0.1c1.6,0,3.2,0,4.8,0c0.1,0,0.2,0,0.2-0.1c0-0.1-0.1-0.2-0.2-0.3c-0.8-0.7-1.5-1.3-2.2-2.1
		c-0.2-0.2-0.4-0.2-0.5,0c-0.4,0.6-0.9,1-1.3,1.4C148.3,60.3,147.9,60.6,147.7,61z"/>
	<path class="st0" d="M181.7,60.6c0,0.8,0,1.7,0,2.5c0,0.4-0.2,0.6-0.6,0.6c-0.5,0-1,0-1.4,0c-0.3,0-0.5-0.2-0.5-0.5
		c0-1.7,0-3.5,0-5.2c0-0.3,0.2-0.5,0.5-0.5c0.5,0,1,0,1.5,0c0.4,0,0.6,0.2,0.6,0.6C181.7,58.9,181.7,59.8,181.7,60.6
		C181.7,60.6,181.7,60.6,181.7,60.6z"/>
	<path class="st0" d="M25.4,44.3c0-0.9,0-1.8,0-2.7c0-0.4,0.2-0.6,0.6-0.6c1.6,0,3.3,0,4.9,0c0.4,0,0.7,0.2,1,0.6
		c0.8,1.2,1.6,2.4,2.4,3.6c0.3,0.4,0.5,0.4,0.8,0c0.8-1.2,1.6-2.4,2.4-3.6c0.3-0.4,0.6-0.6,1.1-0.6c1.5,0,3,0,4.5,0
		c0.7,0,0.8,0.1,0.8,0.8c0,1.6,0,3.3,0,4.9c0,0.8-0.1,0.9-0.9,0.9c-0.7,0-1.3,0-2,0c-0.5,0-0.6-0.2-0.6-0.6c0-1.1,0-2.3,0-3.4
		c0-0.3,0-0.6-0.3-0.7c-0.3-0.1-0.4,0.2-0.6,0.4c-0.9,1.2-1.7,2.5-2.6,3.7c-0.3,0.4-0.6,0.6-1.1,0.6c-0.9,0-1.8,0-2.7,0
		c-0.5,0-0.8-0.2-1.1-0.6c-0.8-1.3-1.7-2.5-2.5-3.8c-0.1-0.2-0.3-0.5-0.6-0.4c-0.3,0.1-0.2,0.4-0.2,0.7c0,1.1-0.1,2.2,0,3.3
		c0,0.4-0.1,0.7-0.7,0.7c-0.7,0-1.5,0-2.2,0c-0.5,0-0.6-0.1-0.6-0.6C25.4,46.1,25.4,45.2,25.4,44.3z"/>
	<path class="st0" d="M29.3,51c-1.1,0-2.2,0-3.2,0c-0.5,0-0.7-0.2-0.7-0.7c0-1.1,0-1.1,1-1.1c5.6,0,11.1,0,16.7,0
		c0.3,0,0.7-0.1,0.8,0.3c0.1,0.4,0.1,0.9-0.1,1.3C43.7,51,43.5,51,43.3,51c-2,0-4,0-6,0c-0.6,0-0.8,0.2-0.7,0.7c0,1.1,0,2.1,0,3.2
		c0,0.5-0.2,0.7-0.7,0.7c-0.7,0-1.4,0-2.2,0c-0.4,0-0.5-0.2-0.5-0.5c0-1.1,0-2.2,0-3.3c0-0.5-0.1-0.7-0.7-0.7
		C31.5,51,30.4,51,29.3,51C29.3,51,29.3,51,29.3,51z"/>
	<path class="st0" d="M34.6,59c-2.8,0-5.5,0-8.3,0c-0.9,0-0.9,0-0.9-0.9c0-1.6,0-3.2,0-4.8c0-0.5,0.2-0.7,0.7-0.7c0.7,0,1.4,0,2.2,0
		c0.4,0,0.6,0.1,0.5,0.6c0,1.1,0,2.2,0,3.3c0,0.6,0.2,0.8,0.7,0.8c4.6,0,9.1,0,13.7,0c0.7,0,0.8,0,0.8,0.8c0,0.8-0.1,0.9-0.8,0.9
		C40.3,58.9,37.5,58.9,34.6,59z"/>
</g>
</svg>
