<?xml version="1.0" encoding="utf-8"?>
<!-- Generator: $$$/GeneralStr/196=Adobe Illustrator 27.6.0, SVG Export Plug-In . SVG Version: 6.00 Build 0)  -->
<svg version="1.1" id="Capa_1" xmlns="http://www.w3.org/2000/svg" xmlns:xlink="http://www.w3.org/1999/xlink" x="0px" y="0px"
	 viewBox="0 0 250 100" style="enable-background:new 0 0 250 100;" xml:space="preserve">
<style type="text/css">
	.st0{fill:#777777;}
</style>
<g id="Layer_2">
</g>
<g>
	<path class="st0" d="M40.8,52.7c0.6-0.4,0.6-1,0.7-1.5c2-7.8,4-15.7,5.9-23.6c0.2-1,0.7-1.4,1.7-1.4c1.9,0,3.7,0.1,5.6,0
		c1.3-0.1,1.7,0.4,1.7,1.7c-0.1,5.3,0,10.6,0,15.9c0,10.8,0,21.6,0,32.4c0,2.1-0.2,2.3-2.4,2.1c-1.1-0.1-2.2-0.2-3.3-0.1
		c-1.5,0.1-2.1-0.4-2.1-2c0.1-7.5,0-15.1,0-22.6c0-0.8,0.1-1.6-0.4-2.5c-0.8,4.4-1.5,8.6-2.2,12.8c-0.7,4.3-1.5,8.7-2.2,13
		c0,0.3,0,0.6-0.2,0.7c-1.4,0.9-2.9,0.4-4.4,0.4c-1,0-1.2-0.9-1.3-1.6c-0.6-3.4-1.1-6.8-1.7-10.1c-0.7-4.2-1.5-8.4-2.2-12.6
		c-0.1-0.4-0.1-0.8-0.6-1.2c0,3.4,0,6.8,0,10.1c0.1,4.8,0.2,9.5-0.1,14.3c-0.1,0.8-0.3,1.2-1.2,1.2c-1.8-0.1-3.5-0.1-5.3-0.1
		c-0.9,0-1.2-0.4-1.2-1.3c0-15,0-29.9,0-44.9c0-1.4,0.1-2.8,0-4.2c-0.1-1.2,0.4-1.6,1.5-1.5c1.9,0.1,3.7,0.1,5.6,0
		c1.1,0,1.6,0.4,1.8,1.5c1.9,8,3.9,16,5.9,24C40.4,52,40.4,52.4,40.8,52.7z"/>
	<path class="st0" d="M190.6,49.3c0.6-7.2,0.4-14.4,0.4-21.5c0-1.3,0.3-1.7,1.5-1.6c1.5,0.1,2.9,0.1,4.4,0c1.4-0.1,1.9,0.4,1.9,1.9
		c0,9.5,0,19,0,28.5c0,6.7,0,13.4,0,20.1c0,1-0.4,1.4-1.3,1.5c-1.5,0.3-3-0.1-4.5-0.1c-0.8,0-0.9-0.7-1-1.3
		c-2.6-8.5-5.2-17.1-7.8-25.6c-0.1-0.5-0.2-1-0.9-1.6c0,1.2,0,2.1,0,3c0.4,8.1,0.1,16.2,0,24.3c0,1-0.3,1.4-1.4,1.3
		c-1.7-0.1-3.4-0.1-5.1-0.1c-0.9,0-1.3-0.4-1.3-1.3c0.3-16,0-32.1,0.2-48.1c0-2.5,0-2.5,2.5-2.5c1,0,2,0,3,0c2.3,0,2.6,0.3,3.3,2.5
		c1.5,5,3,9.9,4.5,14.9C189.3,45.5,190,47.4,190.6,49.3z"/>
	<path class="st0" d="M137.1,52.3c0-8,0-16.1,0-24.1c0-1.6,0.5-2.2,2-2c1.2,0.1,2.5,0.1,3.7,0c1.5-0.1,2,0.4,2,1.9
		c-0.1,6,0,12,0,18.1c0,2.2,0,2.2,2.2,2.2c1,0,2,0,3,0c1.3,0,1.9-0.5,1.9-2c-0.1-5.9,0-11.8,0-17.8c0-2.3,0-2.3,2.3-2.3
		c1.4,0,2.8,0,4.2,0c1,0,1.4,0.3,1.4,1.4c0,11.1,0,22.2,0,33.3c0,5.2-0.1,10.5-0.1,15.7c0,1-0.3,1.5-1.4,1.6c-1.4,0.1-2.8,0.1-4.2,0
		c-2.1-0.2-2.1-0.1-2.1-2.1c0-6.1,0-12.1,0-18.2c0-2.7-0.1-2.7-2.7-2.7c-4.3,0-4.3,0-4.3,4.3c0,5.7,0,11.4,0,17.1
		c0,1.3-0.4,1.8-1.7,1.7c-1.4-0.1-2.9-0.1-4.4-0.1c-1.3,0.1-1.7-0.3-1.7-1.7C137.2,68.4,137.1,60.4,137.1,52.3z"/>
	<path class="st0" d="M202.6,52.2c0-4.3-0.1-8.6,0-12.9c0.1-3.1,0.7-6.1,2.3-8.8c2.5-4,6.3-5.5,11-4.9c4.7,0.7,7.3,3.8,8.6,8.2
		c1,3,0.7,6.2,0.8,9.3c0.2,8.1,0.2,16.3-0.2,24.4c-0.2,4.5-2.4,8.1-6.4,10.1c-4,2-8,1.5-11.4-1.2c-3.4-2.7-4.5-6.7-4.6-10.8
		C202.5,61.1,202.6,56.7,202.6,52.2C202.6,52.2,202.6,52.2,202.6,52.2z M217.5,52.6c0-4.6,0-8.7,0-12.8c0-1.4-0.1-2.9-0.7-4.3
		c-0.6-1.3-1.5-2.3-3.1-2.2c-1.1,0.1-2.6,1.6-2.8,3c-0.3,1.6-0.6,3.3-0.6,4.9c-0.1,8.2-0.1,16.3,0.2,24.4c0.1,1.4,0.3,2.8,1.2,4
		c1.3,1.7,3.8,1.6,4.8-0.3c0.4-0.7,0.7-1.5,0.8-2.4C217.9,62,217.3,57,217.5,52.6z"/>
	<path class="st0" d="M82.5,52.2c0,4.6,0,9.1,0,13.7c0,2.8-0.6,5.5-2.2,7.9c-2.3,3.6-5.7,5.4-10,5c-4.3-0.4-7.3-2.8-9-6.7
		c-1-2.3-1.4-4.8-1.4-7.3c-0.1-8.5-0.1-17,0-25.5c0-3.2,0.8-6.4,2.7-9.1c4.1-6,13.5-6,17.5,0.1c1.6,2.4,2.4,5.1,2.4,7.9
		C82.5,42.7,82.5,47.4,82.5,52.2z M74.8,52.3c0-4.2,0-8.4,0-12.6c0-1.5-0.1-2.9-0.8-4.2c-0.6-1.2-1.3-2.3-2.9-2.2
		c-1.3,0.1-2.7,1.5-3,3c-0.3,1.6-0.6,3.3-0.6,4.9c-0.1,7.6-0.1,15.2,0,22.7c0,1.8,0.2,3.8,1.3,5.4c1.3,2,3.7,1.9,4.8-0.1
		c0.8-1.4,1.1-2.9,1.1-4.5C74.8,60.6,74.8,56.5,74.8,52.3z"/>
	<path class="st0" d="M86,64.8c0-1.2,0-2.4,0-3.6c0-0.8,0.3-1.1,1.1-1.1c1.9,0,3.7,0,5.6-0.1c1,0,0.9,0.6,0.9,1.2c0,2.1,0,4.2,0,6.2
		c0,1.4,0.5,2.5,1.6,3.4c1.8,1.4,4.2,0.7,4.8-1.5c0.6-2.6,0.2-5.3,0.2-7.9c0.1-3.3-1.7-5.4-4.1-7.3c-1-0.8-2-1.6-3.1-2.3
		c-4.7-2.9-7.2-7-7-12.7c0.1-2.3,0-4.7,0.8-6.9c1.3-3.8,4.5-6.4,8.5-6.7c7.4-0.6,11.7,3.4,11.8,10.9c0,1.2,0,2.4,0,3.6
		c0.1,1.2-0.5,1.7-1.7,1.6c-1.3-0.1-2.6-0.1-3.9,0c-1.3,0.1-1.9-0.4-1.8-1.8c0.1-1.4,0.1-2.9-0.3-4.3c-0.2-0.6-0.3-1.2-0.6-1.7
		c-1.2-2-3.3-1.9-4.4,0.1c-1.9,3.3-1.1,8,1.9,10.4c2.2,1.7,4.6,3.2,6.8,5c3.3,2.7,5.2,6.1,5,10.5c-0.1,2.8,0,5.7,0,8.6
		c0,6.3-3.7,10.1-10,10.4c-7.1,0.4-11.8-4-12-11.1C86,66.7,86,65.8,86,64.8C86,64.8,86,64.8,86,64.8z"/>
	<path class="st0" d="M118.9,50.8c0,4.8,0,9.7,0.3,14.5c0.1,1.5,0.3,2.9,1.2,4.1c0.7,1,1.6,1.7,2.9,1.5c1.3-0.2,2-1,2.3-2.2
		c0.6-2.3,0.8-4.6,0.6-6.9c-0.1-1.4,0.3-1.6,1.5-1.6c1.6,0,3.2,0,4.8,0c0.7,0,1.1,0.1,1.1,0.9c0,3.8,0.1,7.6-1.2,11.4
		c-1.8,5.3-7.4,6.9-11.5,6.1c-5.3-0.9-8.4-4.5-9.3-10.3c-0.6-4-0.3-8.1-0.4-12.1c-0.1-5.1,0-10.2-0.1-15.3
		c-0.1-4.2,0.6-8.4,3.4-11.7c3.1-3.7,7.3-4.3,11.8-3.1c4.3,1.2,5.8,4.7,6.5,8.7c0.5,2.4,0.4,4.9,0.4,7.3c0,1.2-0.5,1.6-1.6,1.5
		c-1.3,0-2.6-0.1-3.9,0c-1.2,0.1-1.7-0.3-1.6-1.6c0.2-2-0.1-4.1-0.6-6c-0.5-1.7-1.6-2.7-3-2.7c-1.4,0-2.7,1.1-3,2.9
		c-0.3,1.7-0.5,3.5-0.6,5.2C118.9,44.5,118.9,47.7,118.9,50.8z"/>
	<path class="st0" d="M163.6,52c0-8,0-16,0-24c0-1.5,0.5-1.9,1.9-1.8c1.5,0.1,3,0,4.5,0c0.9,0,1.3,0.4,1.3,1.3c0,0.2,0,0.3,0,0.5
		c0,16,0,32,0,48c0,2.3-0.3,2.5-2.5,2.4c-1.2-0.1-2.4-0.2-3.6-0.1c-1.1,0.1-1.6-0.2-1.6-1.5c0.1-5.2,0-10.4,0.1-15.6
		C163.6,58.1,163.6,55,163.6,52C163.6,52,163.6,52,163.6,52z"/>
</g>
</svg>
