<?xml version="1.0" encoding="utf-8"?>
<!-- Generator: $$$/GeneralStr/196=Adobe Illustrator 27.6.0, SVG Export Plug-In . SVG Version: 6.00 Build 0)  -->
<svg version="1.1" id="Capa_1" xmlns="http://www.w3.org/2000/svg" xmlns:xlink="http://www.w3.org/1999/xlink" x="0px" y="0px"
	 viewBox="0 0 250 100" style="enable-background:new 0 0 250 100;" xml:space="preserve">
<style type="text/css">
	.st0{fill:#777777;}
</style>
<g id="Layer_2">
</g>
<path id="XMLID_1_" class="st0" d="M146.9,61.3h21.7v4.8h-27.5v-32h5.8V61.3z M78.7,49.4c0,5.3-0.7,7.7-2,9.5
	c-1.8,2.3-4.9,3.2-8.8,3.2s-6.9-0.9-8.8-3.2c-1.4-1.7-2-4.2-2-9.5V34.1h-5.8v15.4c0,6.9,1.2,10.7,3.6,13.2c2.8,2.9,7.3,4.1,13,4.1
	s10.2-1.2,13-4.1c2.5-2.5,3.6-6.3,3.6-13.2V34.1h-5.9V49.4z M177,66.1h28.3v-4.8h-22.5v-9.3h21.6v-4.8h-21.6v-8.4h22.5v-4.8H177
	V66.1z M130.2,62.2V47.3l-14.8,1.9v2.8h8.9v7.2c-1.8,1.4-5.8,2.7-10.9,2.7C105,62,99,57,99,49.9c0-7.8,7.5-11.9,15.2-11.9
	c5.3,0,9.8,1.7,12.8,3.9l3-4.4c-3.5-2.4-9.1-4.3-15.6-4.3c-10.9,0-21.3,5.9-21.3,16.7c0,10.4,9,16.8,20.1,16.8
	C119.7,66.8,125.9,65.1,130.2,62.2 M24.4,47.3L12.8,34.1H4.7L7,36.7v29.4h5.8V42.5l11.5,13.1l11.5-13.1v23.7h5.8v-32h-5.8L24.4,47.3
	z M215.8,37.4l-2.3-3.3h21c5,0,9,4,9,9c0,4.7-3.5,8.5-8.1,8.9l9.8,14.1h-5.1l-12.5-14h-6l0,0v14h-5.8L215.8,37.4z M221.6,47.3h11.4
	c2.3,0,4.2-1.9,4.2-4.2c0-2.3-1.9-4.2-4.2-4.2h-11.4V47.3z"/>
</svg>
