<?xml version="1.0" encoding="utf-8"?>
<!-- Generator: $$$/GeneralStr/196=Adobe Illustrator 27.6.0, SVG Export Plug-In . SVG Version: 6.00 Build 0)  -->
<svg version="1.1" id="Capa_1" xmlns="http://www.w3.org/2000/svg" xmlns:xlink="http://www.w3.org/1999/xlink" x="0px" y="0px"
	 viewBox="0 0 250 100" style="enable-background:new 0 0 250 100;" xml:space="preserve">
<style type="text/css">
	.st0{fill:#777777;}
</style>
<g id="Layer_2">
</g>
<g>
	<path class="st0" d="M77.7,50.1c0.1-1.6,0.1-3.1,0.3-4.7c0.1-1.2,0.3-2.4,0.5-3.6c0.3-1.6,0.7-3.2,1.1-4.8c0.5-1.7,1-3.3,1.7-4.9
		c0.8-2,1.8-4,2.9-5.9c1.3-2.2,2.7-4.2,4.3-6.2c1.1-1.4,2.4-2.6,3.6-3.9c0.6-0.6,1.2-1.1,1.8-1.7c1-0.9,2.1-1.7,3.1-2.5
		c1.6-1.2,3.3-2.2,5-3.2c1.4-0.8,2.8-1.5,4.3-2.1c1.9-0.8,3.9-1.5,5.9-2.1c1.1-0.3,2.2-0.6,3.3-0.8c0.7-0.2,1.4-0.2,2.1-0.4
		c1-0.2,2.1-0.2,3.1-0.4c0.1,0,0.2,0,0.3,0c0.7,0,1.3,0,2-0.1c0.7-0.1,1.4-0.1,2.1,0c0.7,0,1.5,0.1,2.2,0.1c1.1,0,2.1,0.2,3.2,0.3
		c0.9,0.1,1.7,0.2,2.6,0.4c1,0.2,1.9,0.4,2.9,0.6c1.3,0.3,2.6,0.7,3.8,1.1c1.2,0.4,2.4,0.9,3.6,1.4c2.3,1,4.5,2.2,6.7,3.5
		c1.1,0.7,2.2,1.5,3.2,2.2c1.4,1,2.7,2.2,4,3.4c0.8,0.7,1.5,1.5,2.2,2.3c0.8,0.8,1.6,1.8,2.3,2.7c1.1,1.3,2,2.8,3,4.2
		c0.7,1,1.3,2.1,1.8,3.2c0.8,1.4,1.5,2.9,2.1,4.4c0.6,1.5,1.1,3.1,1.6,4.6c0.6,2,1,4.1,1.3,6.1c0.2,1.7,0.4,3.5,0.5,5.2
		c0.1,1.4,0,2.7,0,4.1c0,0.8-0.1,1.7-0.2,2.5c-0.1,1.4-0.4,2.8-0.6,4.3c-0.2,1.2-0.5,2.3-0.8,3.5c-0.4,1.6-1,3.2-1.6,4.7
		c-0.7,1.9-1.6,3.7-2.6,5.5c-0.8,1.4-1.7,2.8-2.6,4.2c-1.2,1.7-2.6,3.4-4,4.9c-1.2,1.3-2.5,2.5-3.9,3.7c-1.4,1.2-2.9,2.3-4.5,3.4
		c-1,0.7-2,1.3-3,1.8c-1.2,0.7-2.5,1.3-3.8,1.9c-1.5,0.7-3,1.3-4.6,1.8c-1.1,0.4-2.1,0.7-3.2,0.9c-1.6,0.4-3.1,0.7-4.7,0.9
		c-1.4,0.2-2.9,0.4-4.4,0.4c-1.1,0-2.1,0.1-3.2,0.1c-1.9,0-3.7-0.2-5.6-0.4c-1.9-0.2-3.7-0.6-5.6-1.1c-1.2-0.3-2.4-0.7-3.5-1.1
		c-1-0.3-1.9-0.7-2.9-1.1c-0.7-0.3-1.4-0.7-2.1-1c-1.1-0.4-2-1-3-1.6c-0.8-0.4-1.5-1-2.3-1.4c-1.2-0.7-2.3-1.7-3.5-2.5
		c-1.3-0.9-2.4-2-3.5-3c-1.4-1.2-2.7-2.7-3.9-4.1c-1.5-1.7-2.8-3.6-4-5.5c-0.9-1.5-1.8-3.1-2.5-4.7c-0.8-1.8-1.6-3.6-2.1-5.5
		c-0.4-1.3-0.8-2.7-1.1-4c-0.3-1.2-0.5-2.5-0.7-3.8c-0.2-1.3-0.4-2.6-0.3-4C77.8,51.7,77.7,50.9,77.7,50.1z M125.1,95.6
		c1,0.1,2.1,0,3.3-0.1c0.7,0,1.3-0.1,2-0.2c1.1-0.1,2.1-0.3,3.2-0.5c1.4-0.3,2.8-0.6,4.1-1c1.1-0.3,2.3-0.7,3.4-1.1
		c1-0.4,1.9-0.8,2.9-1.2c1.2-0.6,2.3-1.1,3.4-1.8c1.6-0.9,3.2-1.9,4.7-3c1-0.7,2-1.5,2.9-2.3c0.8-0.7,1.5-1.4,2.2-2
		c0.5-0.4,0.9-0.9,1.3-1.4c1.1-1.1,2.1-2.3,3-3.5c0.8-1.1,1.6-2.2,2.3-3.4c1.2-1.9,2.3-4,3.2-6.1c0.7-1.5,1.2-3.1,1.7-4.7
		c0.5-1.7,0.9-3.4,1.3-5.1c0.2-1,0.3-2,0.5-3c0.2-1.3,0.2-2.7,0.3-4c0.2-1.7-0.2-3.4-0.1-5c0-0.1,0-0.1,0-0.2
		c-0.2-0.9-0.2-1.9-0.4-2.9c-0.1-0.7-0.2-1.4-0.4-2.1c-0.2-1-0.4-1.9-0.7-2.8c-0.4-1.5-0.9-3-1.5-4.4c-0.6-1.6-1.3-3.1-2.1-4.6
		c-1-1.9-2.1-3.8-3.4-5.6c-1.2-1.7-2.5-3.3-3.9-4.8c-0.5-0.5-1-1.1-1.5-1.6c-1.1-0.9-2.1-1.9-3.2-2.8c-1.2-1-2.5-1.9-3.8-2.8
		c-0.4-0.3-0.9-0.6-1.3-0.8c-0.3-0.2-0.7-0.4-1-0.6c-0.3-0.2-0.7-0.3-1.1-0.5c-1.1-0.6-2.1-1.2-3.3-1.5c-0.4-0.1-0.7-0.3-1-0.5
		c-1.8-0.6-3.6-1.2-5.5-1.7c-1.6-0.4-3.2-0.7-4.8-0.9c-2.1-0.3-4.1-0.4-6.2-0.5c-1.3,0-2.5,0.1-3.8,0.1c-0.1,0-0.1,0-0.2,0
		c-1.1,0.2-2.2,0.2-3.3,0.4c-1.2,0.2-2.4,0.4-3.6,0.7c-1.8,0.4-3.5,0.9-5.3,1.6c-2.5,0.9-4.9,2-7.1,3.3c-1.4,0.8-2.7,1.6-4,2.6
		c-1.2,0.8-2.4,1.5-3.4,2.5c-0.7,0.7-1.4,1.3-2.1,1.9c-0.6,0.6-1.2,1.2-1.7,1.8c-0.1,0.1-0.3,0-0.3,0.2c0,0.2-0.1,0.2-0.2,0.3
		c-0.2,0.2-0.5,0.4-0.6,0.7c-1.1,1.4-2.1,2.7-3.1,4.2c-0.3,0.4-0.5,0.7-0.7,1.2c-0.2,0.4-0.6,0.7-0.7,1.2c0,0.2-0.3,0.3-0.4,0.5
		c-0.2,0.7-0.7,1.2-0.9,1.8c-0.4,1-1.1,1.9-1.4,2.9c-0.3,0.7-0.6,1.4-0.9,2.2c-0.4,1-0.6,2.1-1,3.1c-0.1,0.3-0.2,0.6-0.3,0.9
		c-0.1,0.9-0.5,1.7-0.6,2.7c0,0.5-0.2,1-0.3,1.6c-0.1,0.7-0.2,1.3-0.3,2C79.2,46,79,47.5,79,48.9c0,1.6,0,3.3,0.2,4.9
		c0.1,1.2,0.3,2.4,0.4,3.6c0.1,1,0.3,1.9,0.6,2.9c0.3,1.3,0.7,2.5,1.1,3.8c0.5,1.4,1,2.8,1.7,4.2c0.8,1.7,1.6,3.3,2.6,4.9
		c0.1,0.2,0.3,0.2,0.3,0.3c0.1,0.5,0.4,0.9,0.7,1.3c0.3,0.5,0.7,1,1.1,1.5c0.3,0.4,0.6,0.9,0.9,1.3c0.8,1,1.6,2,2.5,3
		c0.9,1.1,1.9,2,2.9,3c0.4,0.4,0.9,0.7,1.3,1.1c0.8,0.8,1.8,1.5,2.7,2.1c1.2,0.9,2.4,1.6,3.6,2.4c1.6,1,3.2,1.9,4.9,2.6
		c1.5,0.7,3.1,1.3,4.7,1.8c2.5,0.8,5.1,1.3,7.7,1.7C120.8,95.5,122.9,95.6,125.1,95.6z"/>
	<path class="st0" d="M153.9,50.1c0,2.5-0.3,4.8-0.9,7c-0.5,2.2-1.3,4.3-2.4,6.3c-0.7,1.3-1.4,2.5-2.3,3.7c-1.7,2.3-3.7,4.3-6,6.1
		c-2.1,1.6-4.3,2.8-6.8,3.8c-1.7,0.7-3.5,1.2-5.3,1.5c-1.7,0.3-3.4,0.5-5.1,0.5c-2.5,0-4.9-0.3-7.3-0.9c-1-0.3-2-0.6-3-1
		c-1.6-0.7-3.2-1.4-4.6-2.3c-0.7-0.5-1.4-1-2.2-1.5c-0.6-0.5-1.3-0.9-1.9-1.4c-1.5-1.4-3-2.9-4.3-4.6c-0.5-0.7-1-1.4-1.5-2.1
		c-0.4-0.6-0.6-1.2-1-1.7c-0.4-0.6-0.6-1.2-0.9-1.8c-0.3-0.6-0.5-1.3-0.8-1.9c-0.6-1.6-1-3.3-1.3-5c-0.3-1.8-0.4-3.6-0.3-5.5
		c0-1.3,0.1-2.6,0.3-3.9c0.4-2.6,1.2-5.1,2.3-7.5c0.5-1.1,1.1-2.2,1.8-3.2c1.2-1.9,2.6-3.6,4.2-5.2c1.5-1.4,3.1-2.7,4.8-3.8
		c1.9-1.2,4-2.2,6.1-2.9c1.2-0.4,2.4-0.8,3.7-1c1-0.2,2-0.3,3-0.4c1.3-0.2,2.6-0.2,4-0.1c1.1,0.1,2.3,0.2,3.4,0.4
		c1,0.2,2.1,0.4,3.1,0.7c1.2,0.3,2.3,0.7,3.4,1.2c2.2,1,4.3,2.2,6.2,3.6c1,0.8,2,1.6,3,2.5c1.5,1.5,2.8,3.1,4,4.9
		c0.7,1.1,1.3,2.2,1.8,3.3c0.5,1.1,0.9,2.3,1.3,3.4c0.4,1.1,0.6,2.3,0.9,3.4c0.2,1,0.3,2,0.4,3.1C153.9,48.5,153.9,49.4,153.9,50.1z
		 M152.4,49.8c0-0.5-0.1-1.4-0.1-2.3c-0.1-1.6-0.4-3.1-0.8-4.6c-0.4-1.7-1.1-3.4-1.9-5c-0.6-1.2-1.3-2.4-2.1-3.6
		c-0.7-0.9-1.4-1.9-2.1-2.7c-0.6-0.7-1.3-1.4-2-2.1c-1-1-2.2-1.8-3.4-2.6c-1.1-0.7-2.2-1.4-3.5-1.9c-1.4-0.6-2.9-1.1-4.4-1.5
		c-1-0.3-2-0.4-3-0.6c-0.7-0.1-1.3-0.1-2-0.2c-1.7-0.2-3.4-0.1-5.1,0.1c-1.4,0.1-2.9,0.5-4.3,0.8c-1.8,0.5-3.6,1.2-5.2,2
		c-2.5,1.3-4.8,3-6.8,4.9c-1.2,1.2-2.3,2.5-3.2,3.9c-0.7,1-1.4,2.1-1.9,3.2c-0.7,1.4-1.3,2.8-1.8,4.3c-0.4,1.3-0.7,2.7-0.9,4.1
		c-0.1,0.7-0.3,1.3-0.3,2c-0.1,2.7,0,5.4,0.7,8.1c0.5,1.7,1,3.3,1.7,4.9c0.7,1.4,1.4,2.8,2.3,4.1c1,1.5,2.2,2.8,3.4,4.1
		c0.8,0.8,1.6,1.5,2.5,2.2c1.8,1.4,3.7,2.5,5.7,3.4c2.4,1.1,5,1.8,7.7,2.1c1.2,0.1,2.4,0.3,3.7,0.3c0.5,0,1-0.1,1.4-0.1
		c0.6-0.1,1.3,0,1.9-0.1c1.2-0.2,2.3-0.4,3.4-0.7c2.1-0.5,4.1-1.4,6.1-2.4c2.3-1.2,4.3-2.8,6.2-4.5c1.8-1.7,3.2-3.6,4.5-5.7
		c1.1-1.7,1.9-3.6,2.5-5.6C152,55.6,152.4,52.9,152.4,49.8z"/>
	<path class="st0" d="M143.3,20.1c0.3-1-0.3-1.5-1.1-1.8c-0.1,0-0.2-0.1-0.4-0.2c-0.5-0.3-0.6-0.2-0.8,0.2c-0.3,0.6-0.6,1.1-0.9,1.7
		c-0.2,0.3-0.5,0.4-0.9,0.2c-0.2-0.2-0.5-0.6-0.7-0.5c-0.3,0.1-0.5-0.1-0.8-0.1c-0.5-0.2-0.6-0.3-0.6-0.9c0-0.3,0-0.6,0-0.9
		c0-0.2-0.1-0.3-0.3-0.4c-0.8-0.2-1.7-0.5-2.5-0.8c-0.3-0.1-0.5-0.1-0.7,0.2c-0.2,0.3-0.4,0.6-0.7,0.9c-0.2,0.2-0.4,0.2-0.6,0.2
		c-1-0.3-1-0.4-0.4-1.2c0.9-1.3,1.8-2.5,2.8-3.8c0.6-0.8,1.1-1.6,1.7-2.3c0.2-0.2,0.4-0.3,0.6-0.2c0.1,0,0.1,0.1,0.2,0.1
		c1,0.3,0.9,0.3,1,1.3c0.1,1.2,0.1,2.5,0.2,3.7c0.1,0.8,0.1,1.6,0.1,2.4c0,0.4,0,0.9,0.1,1.3c0,0.1,0,0.2,0.1,0.2
		c0.1,0,0.2-0.1,0.2-0.2c0.3-0.7,0.8-1.4,1.1-2.1c0.2-0.5,0.6-0.9,0.8-1.4c0.4-0.9,1-1.7,1.4-2.5c0.1-0.2,0-0.4,0.3-0.5
		c0.2-0.1,0.3-0.2,0.5-0.1c1,0.6,2,1.1,3.1,1.7c0.2,0.1,0.3,0.2,0.5,0.2c0.7,0.3,1.1,0.9,1.1,1.7c0,1.3-0.6,2.3-1.6,3.1
		c-0.3,0.2-0.6,0.3-0.9,0.3c-0.3,0-0.4,0.2-0.4,0.5c-0.1,0.8-0.1,1.6-0.2,2.4c-0.1,0.6-0.2,0.6-0.7,0.4c-0.8-0.4-0.9-0.8-0.6-1.5
		c0.1-0.2,0-0.4,0-0.6C143.3,20.5,143.3,20.3,143.3,20.1z M146.2,16.6c0-0.3-0.1-0.5-0.3-0.6c-0.7-0.4-1.5-0.8-2.2-1.2
		c-0.2-0.1-0.5-0.1-0.6,0.2c-0.2,0.4-0.4,0.8-0.6,1.2c-0.2,0.3-0.1,0.5,0.2,0.6c0.7,0.4,1.4,0.8,2,1.1c0.2,0.1,0.4,0.3,0.7,0.2
		C145.8,17.7,146.2,17.1,146.2,16.6z M136.9,12.7c-0.3,0.2-0.4,0.5-0.6,0.6c-0.4,0.5-0.7,1-1.1,1.5c-0.2,0.2-0.1,0.3,0.1,0.4
		c0.4,0.1,0.8,0.2,1.2,0.3c0.4,0.1,0.4,0,0.4-0.3C137.1,14.4,136.8,13.6,136.9,12.7z"/>
	<path class="st0" d="M125.3,82.7c0.6,0,1,0,1.4,0c1.8,0.1,3.1,1.1,3.2,2.9c0,1-0.3,1.9-1.4,2.4c-0.3,0.1-0.3,0.3-0.1,0.5
		c0.6,0.9,1.3,1.8,1.9,2.7c0.3,0.4,0.7,0.4,1,0.4c0.4,0,0.6,0.2,0.6,0.5c0,0.3-0.2,0.5-0.6,0.5c-0.6,0-1.2,0-1.8,0
		c-0.4,0-0.8-0.1-1-0.5c-0.7-1.1-1.5-2.2-2.2-3.3c-0.2-0.2-0.3-0.4-0.6-0.3c-0.3,0.1-0.3,0.4-0.2,0.6c0.1,0.7,0,1.4,0.1,2
		c0,0.5,0.1,0.5,0.6,0.6c0.3,0,0.7,0.1,0.8,0.5c0.1,0.3-0.1,0.6-0.4,0.6c-0.9,0-1.8,0.1-2.7,0.1c-0.2,0-0.4,0-0.7,0
		c-0.3,0-0.5-0.2-0.5-0.5c0-0.3,0.2-0.5,0.5-0.5c0.5-0.1,0.6-0.2,0.5-0.7c-0.2-1.1,0-2.2-0.2-3.3c-0.1-1.2-0.1-2.5-0.1-3.7
		c0-0.3-0.3-0.4-0.5-0.4c-0.3-0.1-0.5-0.3-0.6-0.6c0-0.2,0.1-0.4,0.3-0.4C123.6,82.8,124.5,82.6,125.3,82.7z M127.7,85.5
		c0-1-0.3-1.5-1.1-1.6c-0.3-0.1-0.7,0-1,0c-0.2,0-0.3,0.1-0.3,0.4c0,0.8,0.1,1.6,0.1,2.4c0,0.6,0,0.6,0.6,0.6
		C127,87.4,127.8,86.6,127.7,85.5z"/>
	<path class="st0" d="M88.7,29.8c-0.1-1.1,0.5-1.9,1-2.8c0.4-0.7,0.9-1.4,1.4-2.1c0.1-0.2,0.2-0.4,0.3-0.5c0.1-0.2,0.2-0.2,0.3-0.1
		c0.4,0.2,0.5,0.4,0.3,0.8c-0.1,0.3-0.1,0.5,0.2,0.7c1.2,0.8,2.5,1.6,3.7,2.4c0.7,0.5,1.4,0.9,2.2,1.4c0.3,0.2,0.5,0.2,0.7-0.1
		c0.3-0.4,0.6-0.4,0.8-0.2c0.2,0.2,0.2,0.3,0.1,0.6c-0.3,0.6-0.7,1.2-1.1,1.8c-0.2,0.3-0.4,0.7-0.6,1c-0.1,0.2-0.3,0.3-0.6,0.2
		c-0.3-0.1-0.4-0.3-0.2-0.5c0.5-1,0.4-1.2-0.6-1.7c-0.4-0.2-0.8-0.5-1.2-0.7c-0.2-0.1-0.4-0.4-0.6-0.2c-0.2,0.2-0.4,0.5-0.3,0.8
		c0.1,0.4,0.3,0.8,0.4,1.1c0.5,1,0.8,2,1.3,3c0.1,0.3,0.1,0.6-0.1,0.8c-0.4,0.6-0.7,1.1-1.1,1.7c-0.1,0.2-0.3,0.4-0.6,0.3
		c-0.3-0.1-0.3-0.4-0.2-0.6c0-0.1,0.1-0.2,0.1-0.3c0.4-0.5,0.2-1,0-1.5c-0.4-0.9-0.7-1.8-1.1-2.7c-0.1-0.3-0.3-0.4-0.5-0.2
		c-0.4,0.3-0.8,0.4-1.3,0.5C90.2,32.7,88.5,31.3,88.7,29.8z M92,30.8c0.2,0,0.4-0.1,0.7-0.2c0.5-0.3,0.9-0.8,1.2-1.3
		c0.1-0.2,0-0.3-0.1-0.4c-0.6-0.5-1.3-0.8-1.9-1.2c-0.2-0.1-0.4-0.3-0.6-0.4c-0.2-0.1-0.4-0.1-0.5,0.1c-0.1,0.2-0.3,0.4-0.4,0.7
		c-0.3,0.6-0.5,1.2-0.2,1.8C90.5,30.4,91.1,30.8,92,30.8z"/>
	<path class="st0" d="M110.9,17c-0.2-0.4-0.5-0.9-0.7-1.3c-0.6-1-1.1-2.1-1.7-3.1c-0.1-0.2-0.3-0.2-0.5-0.1
		c-0.3,0.1-0.6,0.2-0.9-0.1c-0.2-0.2-0.2-0.4,0-0.5c0.7-0.4,1.5-0.8,2.2-1.2c0.2-0.1,0.3-0.1,0.4,0.1c0.1,0.2,0.2,0.3,0.1,0.5
		c-0.1,0.1-0.2,0.3-0.4,0.4c-0.2,0.2-0.2,0.4-0.1,0.6c0.3,0.6,0.7,1.2,1,1.9c0.3,0.7,0.8,1.2,1,1.9c0.2,0.4,0.4,0.8,0.6,1.1
		c0.4,0.7,0.8,1.5,1.3,2.2c0.1,0.2,0.1,0.4,0,0.6c-0.2,0.2-0.4,0.2-0.6,0.1c-1.8-0.8-3.6-1.6-5.4-2.4c-0.9-0.4-1.9-0.8-2.8-1.2
		c-0.1-0.1-0.3-0.2-0.4,0c-0.1,0.1,0,0.3,0.1,0.4c0.6,1.2,1.3,2.3,1.9,3.5c0.3,0.5,0.6,1,0.9,1.6c0.1,0.2,0.2,0.2,0.4,0.1
		c0.1-0.1,0.3-0.1,0.4-0.1c0.3-0.1,0.5,0,0.7,0.3c0.1,0.3-0.1,0.4-0.3,0.5c-0.6,0.4-1.4,0.7-2,1.1c-0.2,0.2-0.4,0-0.6-0.2
		c-0.2-0.2-0.1-0.3,0-0.5c0,0,0,0,0.1-0.1c0.7-0.5,0.7-0.4,0.2-1.2c-0.7-1.3-1.5-2.7-2.2-4c-0.3-0.6-0.7-1.2-0.9-1.8
		c-0.1-0.3-0.4-0.4-0.7-0.3c-0.1,0.1-0.3,0.1-0.4,0.1c-0.2,0-0.4-0.1-0.4-0.3c-0.1-0.2,0-0.4,0.2-0.5c0.6-0.4,1.3-0.7,1.9-1.1
		c0.2-0.1,0.5,0,0.7,0.1c1.4,0.7,2.9,1.3,4.3,2C109.1,16.3,109.9,16.7,110.9,17C110.8,17,110.8,17,110.9,17z"/>
	<path class="st0" d="M88.7,34.9c1.9,0,3.4,0.7,4.5,2.3c0.9,1.3,1.1,2.7,0.6,4.2c-0.3,0.8-0.7,1.6-1.4,2.1c-0.8,0.6-1.7,1.1-2.8,1.1
		c-1.2,0.1-2.4-0.1-3.4-0.8c-1.1-0.7-1.8-1.7-2.2-3c-0.3-1.3-0.1-2.5,0.6-3.7c0.6-1,1.5-1.7,2.6-2C87.7,34.9,88.2,34.9,88.7,34.9z
		 M89.9,42.7c0.5,0,0.9,0,1.4-0.2c1.5-0.5,2.4-2.6,1.2-3.9c-0.5-0.5-1-0.9-1.7-1.2c-1.2-0.5-2.4-0.8-3.8-0.5c-1,0.2-1.7,0.9-1.9,1.9
		c-0.2,1,0,1.9,0.9,2.6C87.1,42.3,88.4,42.7,89.9,42.7z"/>
	<path class="st0" d="M161.7,36.9c-0.5-0.1-1-0.2-1.5-0.1c-0.7,0.1-1.4-0.2-2.1-0.2c-0.2,0-0.4,0-0.6,0c-0.2,0-0.4-0.1-0.6-0.2
		c-0.2-0.1-0.2-0.3,0-0.4c0.8-1,1.7-2,2.5-3.1c0.1-0.1,0.2-0.3,0.3-0.4c0,0,0-0.1-0.1-0.1c-0.4,0.2-0.7,0.3-1.1,0.5
		c-1.2,0.5-2.3,1-3.5,1.5c-0.2,0.1-0.4,0.2-0.5,0c-0.2-0.3-0.5-0.6-0.4-1c0-0.2,0.2-0.3,0.4-0.3c1.3-0.5,2.5-1.1,3.8-1.6
		c1-0.4,2-0.8,3-1.3c0.3-0.1,0.5-0.1,0.7,0.1c0.4,0.6,0.6,1,0.1,1.6c-0.7,0.8-1.3,1.6-1.9,2.4c-0.2,0.3-0.5,0.5-0.7,0.8
		c-0.1,0.1-0.2,0.2-0.1,0.3c0,0.1,0.2,0.1,0.2,0.1c0.8,0,1.7,0.1,2.5,0.2c0.6,0,1.2,0.1,1.8,0.1c0.4,0,0.7,0.3,0.8,0.6
		c0,0.1,0,0.1,0.1,0.2c0.3,0.7,0.2,0.7-0.4,1c-1.8,0.8-3.6,1.5-5.4,2.3c-0.3,0.1-0.6,0.3-0.9,0.4c-0.6,0.3-0.9,0.2-1.1-0.4
		c-0.3-0.6-0.2-0.6,0.4-0.9c1.4-0.6,2.9-1.2,4.3-1.8C161.5,37.1,161.6,37,161.7,36.9C161.7,37,161.7,36.9,161.7,36.9z"/>
	<path class="st0" d="M121,92.9c-0.7-0.1-1.3-0.2-2-0.4c-0.4-0.1-0.8-0.2-1.2-0.2c-0.5,0-0.6-0.2-0.6-0.6c0-0.4,0.2-0.5,0.6-0.4
		c0.1,0,0.2,0,0.4,0c0.4,0,0.5-0.1,0.4-0.5c-0.2-0.5-0.2-1.1-0.3-1.6c0-0.2-0.1-0.4-0.3-0.4c-0.6-0.1-1.1-0.2-1.7-0.3
		c-0.2,0-0.4,0.1-0.5,0.3c-0.2,0.4-0.4,0.8-0.7,1.2c-0.2,0.3-0.1,0.6,0.2,0.8c0.1,0.1,0.3,0.1,0.4,0.2c0.3,0.2,0.2,0.4,0.1,0.7
		c-0.1,0.3-0.3,0.2-0.5,0.2c-1-0.2-1.9-0.4-2.9-0.6c-0.3-0.1-0.5-0.2-0.5-0.6c0-0.3,0.2-0.5,0.6-0.5c0.7,0,1.1-0.2,1.4-0.8
		c1-1.9,2.1-3.7,3.2-5.5c0.2-0.3,0.4-0.6,0.2-1c-0.1-0.2,0-0.4,0.3-0.5c0.3-0.1,0.7-0.2,1-0.3c0.4-0.1,0.6,0,0.7,0.4
		c0.1,0.6,0.2,1.2,0.3,1.9c0.2,1.5,0.5,3,0.7,4.5c0.1,0.8,0.2,1.6,0.4,2.4c0.1,0.4,0.2,0.7,0.7,0.8c0.3,0.1,0.4,0.3,0.3,0.6
		C121.5,92.9,121.2,92.9,121,92.9z M117.9,87c-0.1-0.4-0.2-0.9-0.2-1.4c0-0.1,0-0.1-0.1-0.2c-0.1,0-0.1,0-0.1,0.1
		c-0.3,0.4-0.6,0.9-0.8,1.4c-0.1,0.1-0.1,0.2,0.1,0.3c0.2,0.1,0.5,0.1,0.8,0.2C117.7,87.5,117.9,87.4,117.9,87z"/>
	<path class="st0" d="M114.7,83.4c0.1,1.5-1.2,2.7-2.2,2.8c-0.8,0.1-1.6,0-2.3-0.3c-0.3-0.1-0.6-0.2-0.8-0.3
		c-0.1-0.1-0.3-0.1-0.3,0.1c-0.3,0.8-0.7,1.5-1,2.3c-0.1,0.4,0.2,0.4,0.5,0.5c0.4,0.2,0.6,0.6,0.3,0.9c-0.1,0.2-0.3,0.2-0.5,0.1
		c-0.8-0.3-1.6-0.6-2.4-1c-0.2-0.1-0.5-0.2-0.7-0.3c-0.4-0.1-0.5-0.4-0.4-0.8c0.1-0.2,0.2-0.2,0.4-0.2c0.7,0.1,0.7,0,1-0.6
		c0.4-1,0.9-2.1,1.3-3.1c0.4-1,0.9-2.1,1.3-3.1c0.1-0.3,0.1-0.4-0.1-0.6c-0.1-0.1-0.2-0.1-0.2-0.2c-0.1-0.2-0.4-0.3-0.3-0.5
		c0.2-0.3,0.4-0.4,0.8-0.2c1,0.4,2,0.9,3,1.3c1,0.4,1.8,1,2.3,2C114.6,82.5,114.7,82.9,114.7,83.4z M110.9,84.8
		c0.4,0,0.8-0.1,1.1-0.5c0.3-0.3,0.5-0.7,0.6-1c0.2-0.5,0.2-1-0.1-1.5c-0.4-0.5-0.9-0.6-1.4-0.8c-0.2-0.1-0.2,0.1-0.3,0.2
		c-0.4,1-0.8,1.9-1.2,2.9c-0.1,0.2,0,0.3,0.2,0.4C110.2,84.7,110.5,84.8,110.9,84.8z"/>
	<path class="st0" d="M139.3,80c0.1,0,0.2,0,0.4,0c0.2,0,0.4,0,0.5-0.3c0.1-0.4,0.6-0.4,0.8-0.1c0.2,0.3,0.3,0.6,0.4,0.9
		c0.2,0.5,0.4,0.9,0.6,1.4c0.1,0.2,0.2,0.5-0.1,0.7c-0.3,0.2-0.5,0.1-0.8-0.1c-0.2-0.3-0.5-0.6-0.8-0.8c-0.5-0.5-1.4-0.5-1.9-0.1
		c-0.6,0.4-0.6,1.2,0,1.7c0.3,0.3,0.8,0.4,1.2,0.5c0.4,0.1,0.8,0.1,1.3,0.2c1,0.2,2.1,0.4,2.7,1.4c1,1.7,0.5,3.9-1.5,4.6
		c-0.5,0.2-1,0.3-1.6,0.2c-0.2,0-0.4,0-0.4,0.2c-0.1,0.3-0.3,0.4-0.5,0.4c-0.3,0-0.4-0.2-0.5-0.4c-0.4-0.8-0.8-1.6-1.1-2.4
		c-0.1-0.1-0.1-0.3-0.1-0.4c0-0.2,0.1-0.4,0.3-0.5c0.2-0.1,0.4,0,0.5,0.2c0.3,0.4,0.7,0.8,1.1,1.2c0.7,0.6,2.1,0.5,2.6-0.3
		c0.5-0.7,0.3-1.3-0.5-1.7c-0.5-0.3-1.2-0.4-1.8-0.4c-1-0.1-1.9-0.3-2.7-1c-1-0.9-1.3-2.6-0.5-3.8C137.4,80.4,138.2,80,139.3,80z"/>
	<path class="st0" d="M115.6,8.7c0.4,0,0.7,0,1,0.1c0.2,0.1,0.4,0,0.5-0.2c0.2-0.4,0.4-0.4,0.7,0c0.3,0.4,0.3,0.9,0.5,1.4
		c0.1,0.3,0.2,0.6,0.3,0.9c0.1,0.2,0,0.3-0.2,0.4c-0.2,0.1-0.4,0.1-0.5-0.1c-0.2-0.3-0.4-0.5-0.6-0.8c-0.7-0.9-1.7-0.9-2.4-0.5
		c-1.1,0.6-0.8,1.7,0.1,2.2c0.5,0.3,1,0.4,1.5,0.5c0.9,0.2,1.8,0.4,2.5,1c0.3,0.2,0.5,0.5,0.7,0.9c0.6,1.6,0.1,3.1-1.5,3.8
		c-0.7,0.3-1.5,0.5-2.3,0.4c-0.3-0.1-0.6,0-0.9,0.2c-0.3,0.4-0.7,0.2-0.9-0.3c-0.3-0.8-0.5-1.6-0.8-2.4c-0.1-0.2,0-0.4,0.2-0.5
		c0.2-0.1,0.4,0,0.5,0.2c0.2,0.3,0.5,0.7,0.7,1c0.3,0.4,0.8,0.8,1.4,0.9c0.5,0,1-0.1,1.4-0.3c0.5-0.2,0.8-0.5,0.8-1.1
		c0-0.6-0.3-0.9-0.7-1.2c-0.5-0.3-1.1-0.5-1.7-0.6c-0.8-0.2-1.6-0.4-2.3-0.8c-0.7-0.5-1.1-1.1-1.1-1.9c0-0.5,0-1.1,0.2-1.6
		c0.4-0.7,1-1.1,1.7-1.3C114.9,8.8,115.3,8.7,115.6,8.7z"/>
	<path class="st0" d="M161.3,43.8c0-0.4-0.1-0.9-0.1-1.3c0-0.6-0.1-1.4,0.5-1.9c0.5-0.4,1-0.6,1.6-0.6c0.5,0,1,0,1.5,0.3
		c0.5,0.4,1,0.8,1.2,1.4c0.4,1.3,0.5,2.6-0.2,3.8c-0.2,0.3-0.4,0.4-0.7,0.3c-0.2-0.1-0.3-0.1-0.5-0.2c-0.4-0.2-0.5-0.4-0.3-0.8
		c0.2-0.4,0.3-0.9,0.4-1.3c0.1-0.6-0.1-1.2-0.5-1.7c-0.2-0.2-0.5-0.3-0.8-0.2c-0.3,0.1-0.4,0.3-0.5,0.5c-0.1,0.7,0,1.4,0.1,2.1
		c0,1-0.2,1.9-1,2.4c-1,0.6-2.6,0.8-3.6-0.3c-0.7-0.7-0.9-1.6-1-2.6c0-0.8,0.1-1.6,0.3-2.3c0.1-0.3,0.4-0.5,0.6-0.7
		c0.2-0.1,0.4,0.1,0.6,0.1c0.1,0,0.2,0.1,0.2,0.1c0.7,0.1,0.6,0.4,0.4,0.9c-0.6,1-0.6,2.1-0.2,3.2c0.2,0.5,0.7,0.7,1.3,0.6
		c0.3-0.1,0.6-0.5,0.6-0.9C161.3,44.3,161.3,44.1,161.3,43.8z"/>
	<path class="st0" d="M130.3,14.6c-0.9-0.1-1.7-0.1-2.6-0.2c-0.3,0-0.5,0-0.5,0.4c-0.1,0.7,0,1.5-0.2,2.2c-0.1,0.4-0.4,0.5-0.8,0.4
		c-0.5-0.1-0.6-0.3-0.5-0.8c0-0.1,0.1-0.1,0-0.2c-0.1-0.9,0.1-1.8,0.2-2.7c0.1-0.8,0-1.6,0.2-2.4c0.1-0.3,0.1-0.5,0-0.8
		c-0.1-0.5,0.2-0.9,0.2-1.4c0-0.2,0.1-0.3,0.3-0.3c0.3,0,0.5,0,0.8,0.1c0.1,0,0.1,0.1,0.2,0c0.9-0.1,1.8,0.2,2.7,0.2
		c0.4,0,0.7,0.1,1.1,0.2c0.3,0.1,0.5,0.5,0.7,0.7c0.5,0.8,0.5,1.6,0.4,2.5c-0.1,0.7-0.3,1.2-0.8,1.7
		C131.4,14.5,130.9,14.6,130.3,14.6z M131.3,11.8c0-0.8-0.1-1-0.9-1c-0.8-0.1-1.7-0.1-2.5-0.2c-0.2,0-0.3,0.1-0.3,0.3
		c0,0.5-0.1,0.9-0.1,1.4c0,0.2,0.1,0.4,0.3,0.4c0.4,0.1,0.7,0.1,1.1,0.1c0.3,0,0.7,0,1,0.1C130.6,13.1,131.3,12.8,131.3,11.8z"/>
	<path class="st0" d="M100.5,20.4c-0.2,0-0.4-0.1-0.5-0.2c-0.9-0.5-1.2-0.4-1.9,0.3c-0.3,0.3-0.6,0.7-1,1c-0.2,0.2-0.2,0.4,0,0.5
		c0.4,0.4,0.9,0.8,1.3,1.3c0.2,0.2,0.3,0.2,0.5,0c0.2-0.3,0.4-0.5,0.7-0.7c0.1-0.1,0.2-0.3,0.1-0.5c-0.1-0.2-0.2-0.5-0.4-0.7
		c0-0.1-0.1-0.2,0-0.3c0.1-0.1,0.2-0.1,0.3-0.1c0.2,0.1,0.3,0.2,0.4,0.3c0.6,0.5,1.2,1,1.6,1.7c0.1,0.1,0.3,0.2,0.1,0.4
		c-0.1,0.1-0.3,0.2-0.5,0.1c0,0,0,0,0,0c-0.8-0.4-1.4-0.2-1.8,0.7c-0.1,0.2,0,0.3,0.1,0.4c0.5,0.5,1.1,1.1,1.6,1.6
		c0.2,0.2,0.3,0.2,0.5-0.1c0.4-0.5,0.9-1,1.4-1.5c0.2-0.2,0.2-0.4,0.1-0.6c-0.2-0.5-0.4-1-0.6-1.4c-0.1-0.2-0.1-0.3,0.1-0.4
		c0.2-0.1,0.3-0.2,0.5,0c0.5,0.6,1,1.2,1.4,1.9c0.1,0.2,0.1,0.4-0.1,0.5c-0.4,0.4-0.8,0.9-1.2,1.3c-0.5,0.5-0.9,0.9-1.4,1.5
		c-0.4,0.4-0.8,0.8-1.3,1.2c-0.2,0.1-0.4,0.1-0.5,0c-0.2-0.1-0.1-0.3-0.1-0.5c0.3-0.5,0.3-0.6-0.2-1c-1.3-1.2-2.6-2.6-3.9-3.8
		c-0.2-0.2-0.4-0.2-0.6,0c-0.1,0.1-0.1,0.1-0.2,0.1c-0.2,0.1-0.4,0-0.6-0.2c-0.1-0.2,0-0.3,0.1-0.4c0.6-0.7,1.3-1.3,1.9-2
		c0.6-0.6,1.2-1.1,1.7-1.8c0.3-0.4,0.5-0.4,0.8-0.1c0.3,0.3,0.7,0.6,1,0.8c0.2,0.1,0.3,0.3,0.4,0.5
		C100.9,20.3,100.8,20.4,100.5,20.4z"/>
	<path class="st0" d="M150.5,28c-0.1-0.8,0.3-1.5,0.8-2.1c0.3-0.4,0.8-0.6,1.3-1c1.1-0.8,2.1-1.6,3.2-2.5c0.4-0.3,0.7-0.2,1,0.3
		c0.2,0.3,0.2,0.5-0.1,0.8c-0.7,0.6-1.4,1.2-2.2,1.7c-0.6,0.4-1.2,0.9-1.8,1.4c-0.7,0.7-0.7,1.6-0.1,2.3c0.2,0.3,0.4,0.6,0.8,0.8
		c0.6,0.3,1.1,0.2,1.6-0.1c0.6-0.5,1.2-1,1.9-1.4c0.7-0.5,1.4-1.1,2.1-1.7c0.4-0.3,0.5-0.2,0.8,0.1c0.1,0.1,0.1,0.2,0.2,0.3
		c0.2,0.3,0.2,0.5-0.1,0.8c-0.8,0.6-1.5,1.2-2.3,1.8c-0.8,0.6-1.5,1.2-2.4,1.7c-0.8,0.5-1.7,0.4-2.5,0c-0.8-0.4-1.4-1.1-1.9-1.8
		C150.6,29,150.4,28.5,150.5,28z"/>
	<path class="st0" d="M154.7,20.9c0,0.2-0.6,0.9-0.8,1c-0.1,0-0.2,0-0.3-0.1c-0.9-0.8-1.8-1.5-2.7-2.3c-0.4-0.4-0.5-0.4-0.9,0
		c-0.2,0.2-0.4,0.4-0.5,0.6c-0.2,0.2-0.2,0.4,0,0.5c0.5,0.4,0.9,0.8,1.4,1.2c0.2,0.1,0.3,0.3,0.5,0.5c0,0.1,0.1,0.1,0.1,0.2
		c-0.1,0.4-0.4,0.7-0.8,0.9c-0.3,0.2-0.6-0.1-0.7-0.3c-0.5-0.5-1.1-0.9-1.6-1.4c-0.2-0.1-0.3-0.1-0.4,0.1c-0.6,0.7-1.1,1.4-1.7,2
		c-0.3,0.4-0.4,0.4-0.8,0.2c-0.2-0.1-0.3-0.2-0.4-0.4c-0.2-0.2-0.2-0.3,0-0.5c0.2-0.4,0.6-0.7,0.9-1.1c1.3-1.6,2.6-3.1,4-4.7
		c0.3-0.4,0.4-0.4,0.8-0.1c1.2,1,2.4,2,3.6,3C154.5,20.5,154.7,20.6,154.7,20.9z"/>
	<path class="st0" d="M131.8,83.3c-0.2,0-0.4,0-0.6-0.1c-0.3-0.2-0.2-0.4-0.2-0.7c0-0.2,0.2-0.2,0.4-0.2c0.8-0.2,1.5-0.3,2.3-0.5
		c0.3-0.1,0.6-0.1,0.9-0.2c0.2-0.1,0.1,0.1,0.2,0.2c0.3,0.6,0.2,0.7-0.3,1c-0.3,0.1-0.3,0.3-0.3,0.6c0.4,1.6,0.7,3.1,1,4.7
		c0.2,0.7,0.3,1.4,0.4,2.1c0.1,0.3,0.2,0.4,0.5,0.4c0.1,0,0.2,0,0.3,0c0.3,0.1,0.4,0.2,0.4,0.5c0,0.3-0.2,0.4-0.4,0.5
		c-1,0.2-2,0.4-3,0.6c-0.3,0.1-0.5-0.1-0.6-0.4c-0.1-0.3,0-0.5,0.3-0.7c0.6-0.2,0.6-0.2,0.4-0.9c-0.3-1.6-0.7-3.2-1-4.7
		c-0.2-0.7-0.3-1.4-0.4-2C132.1,83.3,132,83.2,131.8,83.3z"/>
	<path class="st0" d="M86.7,50.1c1,0,1.7,0.7,1.7,1.6c0,1-0.6,1.6-1.5,1.6c-0.9,0-1.7-0.9-1.7-1.7C85.1,50.7,85.8,50.1,86.7,50.1z"
		/>
	<path class="st0" d="M161.2,51.6c0-0.9,0.6-1.5,1.5-1.5c0.9-0.1,1.8,0.6,1.8,1.7c0,0.8-0.7,1.6-1.6,1.6
		C161.9,53.3,161.2,52.6,161.2,51.6z"/>
	<path class="st0" d="M112.2,42.9c0-2.2,0.4-4.2,1.3-6.1c0.6-1.3,1.6-2.3,2.6-3.2c1.1-0.9,2.3-1.6,3.6-2c1.2-0.4,2.5-0.6,3.8-0.6
		c1,0,2,0,3,0.2c1.4,0.3,2.7,0.8,3.9,1.6c0.9,0.6,1.7,1.4,2.3,2.3c0.7,1,1.2,2.2,1.5,3.5c0.2,1.2,0.4,2.4,0.4,3.7
		c0,0.7-0.1,1.3-0.2,2c0,0.2,0,0.3,0.3,0.3c1.6,0.1,3.1,0.6,4.3,1.6c0.9,0.7,1.5,1.6,1.9,2.6c0.7,2.1,0.6,4.2-0.3,6.3
		c-1.1,2.3-2.9,3.8-5.3,4.6c-1.4,0.5-2.9,0.6-4.4,0.6c-1.3,0-2.5,0-3.8,0c-0.7,0-1.4,0-2.1,0.1c-0.3,0-0.4,0.1-0.4,0.4
		c0.2,2.1,0,4.1,0.1,6.2c0.1,0.9,0,1.7,0.1,2.6c0.1,0.4,0.3,0.7,0.6,0.7c0.6,0.1,1.1,0.3,1.7,0.4c0.4,0,0.8,0.1,1.2,0.2
		c0.2,0,0.5,0.2,0.5,0.5c0,0.3-0.3,0.4-0.6,0.4c-0.8-0.1-1.6-0.2-2.4-0.1c-1.3,0-2.5-0.1-3.8,0c-0.9,0-1.8,0.1-2.6,0.1
		c-0.3,0-0.5,0-0.7,0.1c-0.2,0-0.4,0-0.6-0.1c-0.1-0.1-0.3-0.3-0.2-0.5c0.1-0.2,0.2-0.3,0.4-0.3c0.8-0.1,1.5-0.3,2.3-0.5
		c0.6-0.2,0.9-0.5,1-1.4c0.3-3.1,0.1-6.2,0.1-9.3c0-0.3-0.1-0.6,0.1-0.8c0.2-0.3,0.5,0,0.8,0c0.9,0,1.8,0,2.7,0c1.9,0,3.8,0,5.8,0
		c1.3,0,2.5-0.4,3.6-1.1c1.2-0.8,2-1.9,2.4-3.2c0.3-0.8,0.4-1.7,0.4-2.6c-0.2-1.6-0.6-3-1.8-4.2c-0.5-0.4-1-0.7-1.6-1
		c-0.2-0.1-0.3,0-0.4,0.2c-0.2,0.8-0.6,1.4-1,2.1c-0.5,0.9-1.2,1.6-1.9,2.3c-1.1,1.1-2.4,1.7-3.8,2.2c-0.7,0.3-1.5,0.4-2.3,0.5
		c-1.6,0.2-3.1,0.2-4.7-0.1c-1.3-0.3-2.4-0.7-3.5-1.4c-1.4-0.9-2.4-2.1-3.2-3.6c-0.4-0.7-0.6-1.4-0.8-2.1
		C112.4,45.5,112.2,44.1,112.2,42.9z M129.8,44.5c0.2,0,0.5,0,0.7,0c0.2,0,0.3-0.1,0.3-0.2c0-0.7,0.3-1.4,0.1-2.1
		c-0.1-0.5-0.1-1-0.1-1.5c0-0.6-0.2-1.3-0.4-1.9c-0.3-0.9-0.6-1.7-1.1-2.5c-0.6-1.1-1.5-2-2.6-2.6c-2.1-1-4.2-1-6.3-0.1
		c-1.5,0.7-2.6,1.8-3.3,3.2c-0.8,1.6-1.1,3.4-1.1,5.2c0,1.3,0.1,2.6,0.4,3.9c0.2,0.9,0.5,1.8,0.9,2.5c0.6,1.1,1.5,2,2.6,2.7
		c1,0.6,2.1,0.9,3.3,1c0.5,0,1,0,1.5-0.1c1.4-0.2,2.5-0.8,3.5-1.7c1.1-1,1.7-2.3,2.1-3.6c0.1-0.3,0-0.4-0.4-0.5
		c-1.6,0-3.3,0-4.9,0.1c-0.3,0-0.5,0-0.8,0.1c-1.2,0.4-2.2,0-3-0.9c-1-1.1-1.2-2.4-0.9-3.8c0.4-1.7,1.5-2.6,3.2-2.6
		c1,0,1.7,0.5,2.2,1.2c0.9,1.2,1,2.5,0.6,3.9c-0.1,0.4,0,0.4,0.3,0.4C127.8,44.6,128.8,44.6,129.8,44.5z"/>
	<path class="st0" d="M88.9,38.2c0.9,0,1.7,0.5,1.9,1.2c0.3,0.8-0.1,1.5-0.9,1.8c-0.9,0.3-1.8-0.1-2.3-0.7c-0.4-0.5-0.4-1.1-0.1-1.6
		c0.2-0.5,0.7-0.6,1.2-0.7C88.8,38.2,88.9,38.2,88.9,38.2z"/>
</g>
</svg>
