<?xml version="1.0" encoding="utf-8"?>
<!-- Generator: $$$/GeneralStr/196=Adobe Illustrator 27.6.0, SVG Export Plug-In . SVG Version: 6.00 Build 0)  -->
<svg version="1.1" id="Capa_1" xmlns="http://www.w3.org/2000/svg" xmlns:xlink="http://www.w3.org/1999/xlink" x="0px" y="0px"
	 viewBox="0 0 250 100" style="enable-background:new 0 0 250 100;" xml:space="preserve">
<style type="text/css">
	.st0{fill:#777777;}
</style>
<g id="Layer_2">
</g>
<g>
	<path class="st0" d="M37.1,51.8c0,1.1,0,2.3-0.3,3.5c-0.5,2.2-1.5,4.3-2.9,6.1c-1.4,1.7-3,3.2-5,4.3c-1.3,0.7-2.7,1.3-4.2,1.7
		c-0.9,0.2-1.6,0.7-1.9,1.6c-0.1,0.3-0.3,0.7-0.5,1c-0.3,0.5-0.8,0.8-1.3,0.8c-0.7,0-1-0.5-1.3-0.9c-0.2-0.3-0.3-0.5-0.4-0.8
		c-0.3-1-1-1.4-1.9-1.7c-2.2-0.6-4.3-1.5-6.1-2.9c-1.6-1.2-2.9-2.7-3.9-4.4c-0.6-1-1.1-2-1.5-3.1c-0.2-0.5-0.2-0.9-0.3-1.4
		c-0.2-0.8-0.5-1.7-0.5-2.5c0-0.2-0.1-0.5-0.2-0.7c-0.1-0.5-0.1-1,0-1.4c0-0.2,0.1-0.5,0.1-0.7c-0.1-0.8,0.2-1.5,0.3-2.2
		c0.3-2,1.2-3.7,2.3-5.3c0.6-0.9,1.3-1.9,2.2-2.6c1.9-1.7,4-3.2,6.6-3.8c1-0.3,2.1-0.4,3.1-0.5c0.9-0.1,1.8-0.2,2.7,0
		c0.5,0.1,1,0,1.5,0.1c2,0.3,3.8,1.1,5.6,2c0.6,0.3,1.2,0.8,1.7,1.2c1.5,1.2,2.7,2.6,3.7,4.2c0.8,1.2,1.3,2.6,1.7,4
		C37,48.8,37.1,50.3,37.1,51.8z M21.2,40.4c-1,0.1-2.1,0-3.1,0.5c-0.1,0-0.1,0-0.2,0.1c-1.5,0.4-2.8,1.2-4,2.2
		c-0.9,0.7-1.6,1.7-2.2,2.7c-0.3,0.5-0.6,1-0.8,1.5c-0.3,0.9-0.6,1.8-0.7,2.7c-0.2,1.3-0.2,2.5,0.1,3.7c0.3,1.5,0.9,2.9,1.9,4.1
		c0.6,0.8,1.2,1.6,2,2.2c1.3,1,2.7,1.7,4.3,2.1c0.9,0.2,1.6,0.8,1.8,1.7c0.1,0.2,0.2,0.4,0.3,0.6c0.4,0.4,0.9,0.4,1.2-0.1
		c0.1-0.2,0.2-0.4,0.3-0.6c0.4-0.7,0.9-1.4,1.7-1.6c2.6-0.6,4.7-2,6.3-4.1c1-1.2,1.5-2.6,1.9-4.2c0.1-0.5,0.2-1.1,0.3-1.6
		c0.1-0.6,0.3-1.2,0-1.8c0-0.1,0-0.2,0-0.3c-0.1-0.8-0.2-1.5-0.5-2.3c-0.7-2-1.8-3.7-3.5-5.1c-0.7-0.5-1.4-0.9-2.1-1.3
		C24.5,40.9,22.9,40.4,21.2,40.4z"/>
	<path class="st0" d="M122,45.1c-0.1,0.3-0.1,0.5-0.1,0.7c0,6.6,0,13.3,0,19.9c0,0.2,0,0.3,0,0.5c0,0.5-0.3,0.7-0.7,0.7
		c-1,0-2,0-3.1,0c-0.6,0-1-0.4-1-1.1c0-0.6,0-1.2,0-1.8c0.1-0.4,0-0.8,0-1.2c-0.1-0.9-0.1-1.8,0-2.7c0.1-1.8,0.1-3.6,0-5.4
		c-0.1-1.3,0-2.7,0-4c0-1.1,0-2.3,0-3.4c0-1.2,0-2.5,0-3.7c0-1.8,0-3.6,0-5.3c0-0.7,0.1-1.4,0-2.1c-0.1-0.4,0.2-0.7,0.5-0.9
		c0.5-0.3,1.7-0.3,2.1,0.2c0.5,0.6,1.1,1.1,1.5,1.7c0.5,0.8,1.2,1.4,1.8,2.1c1.2,1.3,2.3,2.7,3.5,4.1c1,1.1,1.9,2.4,3,3.5
		c0.4,0.4,0.8,0.9,1.2,1.4c0.9,1.1,1.8,2.3,2.8,3.3c0.6,0.6,1.1,1.2,1.6,1.8c0.7,0.7,1.2,1.4,1.8,2.2c0.4,0.5,0.8,0.9,1.3,1.4
		c0.2-0.2,0.1-0.5,0.1-0.7c0-6.2,0-12.4,0-18.6c0-0.2,0-0.4,0-0.6c-0.1-1.2,0.3-1.4,1.6-1.6c0.5-0.1,1.1,0,1.7,0
		c0.3,0,0.6,0.1,0.8,0.2c0.6,0.3,0.9,0.7,0.9,1.3c0,1.6,0,3.1,0,4.7c0,1.5,0,2.9,0,4.4c-0.2,6.7,0,13.5-0.1,20.2
		c0,0.8-0.4,1.2-1.1,1.3c-0.3,0-0.6,0-0.8,0c-0.3,0-0.5-0.1-0.6-0.3c-0.3-0.6-0.9-1.1-1.3-1.7c-0.8-1-1.7-1.9-2.4-2.9
		c-0.9-1.2-2-2.3-3-3.5c-0.8-1-1.6-1.9-2.3-2.9c-0.3-0.4-0.7-0.8-1-1.2c-1.2-1.3-2.2-2.8-3.5-4.1c-0.4-0.4-0.7-0.9-1.1-1.3
		c-0.8-0.9-1.6-1.9-2.4-2.9c-0.4-0.4-0.8-0.9-1.1-1.4C122.4,45.2,122.2,45.1,122,45.1z"/>
	<path class="st0" d="M45,51.3c0-4.8,0-9.5,0-14.3c0-0.2,0-0.4,0-0.7c0-0.3,0.1-0.4,0.4-0.5c0.4-0.2,0.8-0.3,1.3-0.3
		c3.6,0,7.2,0,10.8,0c0.4,0,0.9,0,1.3,0.2c0.5,0.2,1.1,0.1,1.7,0.2c0.9,0.2,1.8,0.6,2.6,1c1.7,0.9,2.9,2.4,3.8,4
		c0.6,1.1,1,2.4,1,3.7c0,0.8,0.1,1.6-0.1,2.4c-0.3,1.1-0.5,2.2-1.3,3.2c-0.7,0.8-1.2,1.8-2.2,2.4c-0.8,0.5-1.5,1.1-2.3,1.5
		c-0.5,0.3-0.5,0.4-0.2,0.8c0.9,1.6,1.8,3.3,2.7,4.9c0.9,1.7,1.9,3.4,2.8,5.1c0.1,0.2,0.2,0.4,0.2,0.7c0.1,0.9-0.2,1.3-1.1,1.3
		c-1,0-2.1,0-3.1,0c-0.5,0-0.9-0.2-1.2-0.6c-0.4-0.6-0.7-1.3-1-2c-1.4-2.9-2.8-5.7-4.3-8.6c-0.6-1.2-0.5-1.1-1.7-1.1
		c-1.5,0-2.9,0-4.4,0c-0.7,0-0.8,0.1-0.8,0.8c0,3.4,0,6.7,0,10.1c0,0.2,0,0.3,0,0.5c0,0.5-0.3,0.8-0.8,0.8c-1.1,0-2.2,0-3.3,0
		c-0.5,0-0.8-0.3-0.8-0.8c0-0.2,0-0.4,0-0.6C45,60.8,45,56,45,51.3z M49.9,45.4C49.9,45.4,49.9,45.4,49.9,45.4c0,1.2,0,2.3,0,3.5
		c0,0.4,0,0.8,0,1.2c0,0.4,0.1,0.5,0.5,0.5c0.2,0,0.3,0,0.5,0c2.1,0,4.2,0,6.3,0c1,0,1.9-0.2,2.8-0.6c0.6-0.3,1.2-0.7,1.6-1.3
		c0.8-1.1,1.3-2.2,1.3-3.7c0-1.4-0.6-2.5-1.5-3.4c-1.1-1.1-2.5-1.5-4-1.5c-2.3,0-4.5,0-6.8,0c-0.7,0-0.8,0-0.8,0.8
		C49.9,42.5,49.9,44,49.9,45.4z"/>
	<path class="st0" d="M88.4,51.6c0-4.1,0-8.2,0-12.2c0-0.8,0.1-1.6,0.1-2.3c0,0,0-0.1,0-0.1c0.1-0.9,0.4-1.2,1.3-1.3
		c0.2,0,0.3,0,0.5,0c5.4,0,10.9,0,16.3,0c0.4,0,0.9,0.1,1.2,0.3c0.3,0.2,0.4,0.4,0.5,0.7c0.1,1-0.1,2-0.1,2.9c0,0.5-0.6,0.6-1,0.7
		c-0.2,0.1-0.5,0-0.8,0c-4,0-8,0-12,0c-1,0-1,0-1,1c0,2.7,0,5.4,0,8.1c0,0.1,0,0.2,0,0.3c0,0.5,0.1,0.6,0.6,0.6c0.7,0,1.3,0,2,0
		c2.8,0,5.7,0,8.5,0c1.1,0,1.6,0.5,1.6,1.6c0,0.8,0.1,1.6-0.2,2.3c-0.1,0.4-0.4,0.6-0.9,0.6c-0.2,0-0.4,0-0.7,0c-2.7,0-5.3,0-8,0
		c-0.7,0-1.3-0.1-1.9-0.1c-0.2,0-0.4,0-0.7,0c-0.3,0-0.4,0.2-0.5,0.5c0,0.1,0,0.3,0,0.4c0,2,0,4.1,0,6.1c0,0.1,0,0.3,0,0.4
		c0,0.2,0.1,0.4,0.4,0.4c0.2,0,0.4,0,0.6,0c4.1,0,8.1,0,12.2,0c0.4,0,0.8,0,1.2,0.2c0.3,0.2,0.5,0.4,0.5,0.7c0,0.9,0,1.8,0,2.7
		c0,0.5-0.4,0.8-0.9,0.9c-0.2,0-0.3,0-0.5,0c-5.6,0-11.2,0-16.9,0c-0.2,0-0.3,0-0.5,0c-0.4,0-0.7-0.2-0.9-0.6
		c-0.3-0.5-0.3-1.1-0.3-1.7c0-3.1,0-6.1,0-9.2C88.4,54.2,88.4,52.9,88.4,51.6z"/>
	<path class="st0" d="M230.2,44.6c-0.1,0.8-0.6,1.4-0.9,2.1c-0.3,0.9-0.8,1.8-1.2,2.7c-0.6,1.3-1.2,2.7-1.8,4
		c-0.5,1.2-1,2.3-1.6,3.5c-0.8,1.7-1.5,3.4-2.3,5.2c-0.5,1.2-1,2.4-1.6,3.6c0,0.1-0.1,0.2-0.1,0.2c-0.2,0.7-0.5,1-1.3,1
		c-0.9,0-1.9,0-2.8,0c-0.9,0-1.3-0.6-0.9-1.4c0.6-1.1,1.1-2.4,1.6-3.5c0.5-1.1,1-2.2,1.5-3.3c0.6-1.2,1.1-2.4,1.6-3.6
		c0.5-1,0.9-2,1.3-3c0.5-1.1,1-2.1,1.4-3.2c0.1-0.3,0.3-0.5,0.4-0.8c0.8-1.8,1.6-3.5,2.4-5.3c0.4-0.9,0.9-1.7,1.1-2.6
		c0.1-0.4,0.4-0.8,0.6-1.2c0.4-1,1-2,1.4-3.1c0.3-0.9,2-1.1,2.4-0.3c0.1,0.1,0.2,0.3,0.2,0.4c0.3,0.8,0.7,1.6,1.1,2.4
		c0.3,0.8,0.7,1.5,1.1,2.3c0.6,1.3,1.1,2.6,1.7,3.8c0.5,1.1,0.9,2.1,1.5,3.2c0.4,0.9,0.8,1.7,1.2,2.6c0.4,1,0.9,2.1,1.4,3.1
		c0.4,0.9,0.8,1.8,1.2,2.7c0.6,1.2,1.2,2.5,1.7,3.7c0.3,0.8,0.8,1.5,1,2.4c0,0.1,0.1,0.3,0.2,0.4c0.5,0.8,0.8,1.8,1.2,2.7
		c0,0.1,0.1,0.2,0.1,0.3c0.1,0.8,0.1,1.3-1.1,1.3c-0.9,0-1.7,0-2.6,0c-0.5,0-0.9-0.2-1.1-0.7c-0.4-0.9-0.9-1.8-1.3-2.7
		c-0.4-1-0.9-2.1-1.4-3.1c-0.6-1.3-1.2-2.7-1.9-4.1c-0.8-1.6-1.5-3.3-2.2-5c-0.7-1.5-1.4-3.1-2.1-4.6c-0.3-0.6-0.5-1.2-0.8-1.8
		C230.6,44.9,230.5,44.7,230.2,44.6z"/>
	<path class="st0" d="M211.8,35.2c1.4-0.1,2.8,0.2,4.2,0.6c0.7,0.2,1.4,0.3,2,0.7c0.7,0.4,0.9,0.9,0.6,1.6c-0.4,0.9-0.7,1.8-1.2,2.6
		c-0.3,0.5-0.5,0.6-1.1,0.4c-0.1,0-0.1,0-0.2-0.1c-1.4-0.7-2.8-0.8-4.3-0.8c-0.8,0-1.6,0-2.5,0.1c-1.5,0.3-2.8,0.9-4,1.7
		c-2.1,1.4-3.5,3.3-4.3,5.6c-0.6,1.8-0.9,3.6-0.6,5.5c0.2,1.4,0.6,2.7,1.2,3.9c0.8,1.4,1.8,2.7,3.1,3.7c0.5,0.4,1.1,0.8,1.6,1.1
		c0.8,0.5,1,1.1,0.4,1.9c-0.4,0.7-0.6,1.5-1,2.3c-0.5,1-0.8,1.1-1.8,0.6c-2-1-3.7-2.4-5.1-4.1c-0.6-0.7-1.1-1.5-1.6-2.3
		c-0.8-1.3-1.2-2.7-1.7-4.1c-0.3-0.8-0.4-1.6-0.4-2.4c0-0.2,0-0.3,0-0.5c-0.3-1-0.3-2,0-3c0.2-0.6,0-1.2,0.2-1.7
		c0.5-1.9,1.1-3.7,2.1-5.4c1-1.7,2.2-3.1,3.7-4.3c1.3-1,2.6-1.9,4.2-2.5c0.9-0.4,1.9-0.6,2.8-0.9C209.3,35.2,210.5,35.2,211.8,35.2z
		"/>
	<path class="st0" d="M165,53.5c0,4,0,8.1,0,12.1c0,0.1,0,0.3,0,0.4c0,0.7-0.3,1-1,1c-0.9,0-1.8,0-2.7,0c-0.8,0-1.1-0.3-1.1-1.1
		c0-2.2,0-4.4,0-6.6c0-6,0-12,0-18c0-1,0-1-1-1c-1.8,0-3.6,0-5.5,0c-0.2,0-0.3,0-0.5,0c-0.7-0.1-1-0.4-1-1.2c0-0.8,0-1.6,0-2.3
		c0-0.7,0.1-0.9,0.8-1.1c0.5-0.2,0.9-0.2,1.4-0.2c5.5,0,11,0,16.5,0c0.6,0,1.2,0.1,1.8,0.3c0.2,0.1,0.3,0.2,0.4,0.4
		c0.1,0.3,0.2,0.6,0.2,0.9c0,0.6,0,1.1,0,1.7c0,0.9-0.6,1.5-1.5,1.5c-1.9,0-3.8,0-5.7,0c-0.2,0-0.3,0-0.5,0c-0.5,0-0.6,0.1-0.6,0.6
		c0,0.3,0,0.6,0,0.9C165,45.7,165,49.6,165,53.5C165,53.5,165,53.5,165,53.5z"/>
	<path class="st0" d="M80.1,51.4c0,4.7,0,9.5,0,14.2c0,0.1,0,0.3,0,0.4c0,0.6-0.4,1-0.9,1c-1,0-2,0-3.1,0c-0.4,0-0.6-0.2-0.8-0.5
		C75,66.1,75,65.7,75,65.2c0-9.2,0-18.5,0-27.7c0-0.2,0-0.4,0-0.6c0.1-0.9,0.5-1.2,1.4-1.3c0.8-0.1,1.6-0.1,2.3,0
		c0.9,0,1.3,0.6,1.3,1.5C80.1,41.9,80.1,46.6,80.1,51.4C80.1,51.4,80.1,51.4,80.1,51.4z"/>
	<path class="st0" d="M181.9,51.7c0-4.4,0-8.9,0-13.3c0-0.3,0-0.7,0-1c-0.2-1.2,0.4-1.8,1.5-1.9c0.7-0.1,1.4,0,2.1,0
		c0.3,0,0.6,0.1,0.9,0.3c0.4,0.2,0.7,0.6,0.6,1.1c0,0.5,0,1.1,0,1.6c0,2.3,0,4.6,0,6.9c-0.2,6.8,0,13.6-0.1,20.4
		c0,0.8-0.3,1.1-1.1,1.1c-0.9,0-1.8,0-2.7,0c-0.7,0-1.1-0.5-1.2-1.1c0-0.2,0-0.4,0-0.6C181.9,60.8,181.9,56.2,181.9,51.7
		C181.9,51.7,181.9,51.7,181.9,51.7z"/>
</g>
</svg>
