<?xml version="1.0" encoding="utf-8"?>
<!-- Generator: $$$/GeneralStr/196=Adobe Illustrator 27.6.0, SVG Export Plug-In . SVG Version: 6.00 Build 0)  -->
<svg version="1.1" id="Capa_1" xmlns="http://www.w3.org/2000/svg" xmlns:xlink="http://www.w3.org/1999/xlink" x="0px" y="0px"
	 viewBox="0 0 250 100" style="enable-background:new 0 0 250 100;" xml:space="preserve">
<style type="text/css">
	.st0{fill:#777777;}
</style>
<g id="Layer_2">
</g>
<g>
	<path class="st0" d="M138.6,36.6c-0.1,0.2-0.1,0.3-0.1,0.5c0,3.7,0,7.4,0,11.1c0,1,0.2,1.1,1,1.1c0.2,0,0.3,0,0.4,0.2
		c0.1,0.1,0.1,0.2,0.1,0.3c0,0.1-0.2,0.2-0.3,0.1c-0.9,0-1.7,0-2.6,0c-0.2,0-0.4-0.1-0.4-0.3c0-0.1,0-0.2,0-0.3
		c0-0.3,0.2-0.6-0.1-0.8c-0.2-0.1-0.4,0.3-0.6,0.4c-0.1,0-0.1,0.1-0.2,0.2c-1.7,2.1-5.3,0.8-5.8-1.7c-0.3-1.2-0.2-2.4,0.3-3.5
		c0.3-0.6,0.7-1.1,1.3-1.4c0.8-0.4,1.5-1,2.4-1.2c0.8-0.2,1.6-0.1,2.3,0.2c0.4,0.2,0.5,0.1,0.4-0.3c0-0.9,0-1.7,0-2.6
		c0-0.7-0.1-0.8-0.8-0.8c-0.1,0-0.1,0-0.2,0c-0.2,0-0.5,0-0.5-0.3c0-0.3,0.2-0.3,0.5-0.4c0.6-0.1,1.3-0.2,1.9-0.3
		c0.3-0.1,0.2-0.1,0-0.3C138,36.6,138.3,36.6,138.6,36.6z M136.9,45c0-1.8-0.4-2.3-1.7-2.7c0,0,0,0,0,0c-1.5-0.4-2.8,0.2-3.2,1.7
		c-0.1,0.2-0.1,0.5-0.2,0.8c-0.1,1.3,0,2.6,1.1,3.6c0.7,0.6,1.6,0.7,2.5,0.4c0.9-0.3,1.4-1,1.5-2C136.9,46.1,136.9,45.4,136.9,45z"
		/>
	<path class="st0" d="M112.6,36.6c-0.1,0.3,0,0.3,0.3,0.4c0.9,0.1,1.8,0.2,2.6,0.6c0.3,0.1,0.5,0.3,0.4,0.7
		c-0.1,0.5-0.1,1.1-0.1,1.7c0,0.2-0.1,0.5-0.4,0.5c-0.3,0-0.4-0.2-0.4-0.5c0,0,0-0.1,0-0.1c0.2-1.1-0.2-1.4-1.5-1.8
		c-0.6-0.2-1.2-0.2-1.8,0c-1.3,0.3-1.9,1.1-1.9,2.4c0,1,0.5,1.7,1.5,1.9c0.8,0.2,1.6,0.3,2.3,0.4c0.2,0,0.4,0.1,0.6,0.1
		c2.4,0.6,3.4,2.9,2.1,5c-0.8,1.3-2,2-3.4,2.3c-1.5,0.4-2.9,0.2-4.3-0.3c-0.5-0.2-0.7-0.4-0.6-0.9c0.1-0.6,0.1-1.1,0.1-1.7
		c0-0.2,0-0.5,0.4-0.5c0.4,0,0.4,0.2,0.4,0.5c0,1.1,0.2,1.6,1.7,2c1.1,0.3,2.2,0.3,3.3-0.3c1.1-0.7,1.7-2.1,1.2-3.3
		c-0.3-0.7-0.9-1.1-1.7-1.2c-0.8-0.2-1.7-0.3-2.5-0.5c-1.8-0.4-2.7-1.4-2.7-2.9c-0.1-1.8,0.9-3.2,2.6-3.7c0.4-0.1,0.9-0.3,1.3-0.3
		c0.3,0,0.3-0.1,0.3-0.4C112.3,36.6,112.5,36.6,112.6,36.6z"/>
	<path class="st0" d="M245.2,37.6c-0.2,0-0.3,0.1-0.4,0.2c-1.5,2-2.9,4-4.1,6.2c-0.2,0.3-0.3,0.6-0.3,1c0,1.1,0,2.2,0,3.3
		c0,0.8,0.1,0.9,0.9,1c0.2,0,0.4,0.1,0.6,0.1c0.2,0,0.2,0.2,0.2,0.3c0,0.2-0.1,0.3-0.3,0.3c-0.2,0-0.4,0-0.5,0c-1.4,0-2.8,0-4.2,0
		c-0.2,0-0.4,0-0.4-0.3c0-0.2,0.1-0.4,0.4-0.4c0.3,0,0.5-0.1,0.8-0.1c0.4,0,0.6-0.2,0.6-0.6c0-1.3,0-2.6,0-3.9
		c0-0.2-0.1-0.4-0.2-0.6c-1-1.7-2-3.5-3.2-5.1c-0.4-0.6-0.9-1.1-1.7-1c-0.2,0-0.3-0.1-0.3-0.3c0-0.2,0.1-0.3,0.3-0.3
		c0.8-0.2,1.6-0.4,2.4-0.3c0.2,0,0.4,0.2,0.5,0.3c0.7,0.8,1.2,1.7,1.7,2.6c0.6,1,1.1,2,1.7,3.1c0.2,0.3,0.3,0.4,0.5,0
		c1.2-1.8,2.3-3.6,3.3-5.4c0.2-0.4,0.5-0.5,1-0.5c0.3,0,0.5,0,0.8,0C245.2,37.3,245.2,37.5,245.2,37.6z"/>
	<path class="st0" d="M178.4,39.4c-0.8,1.6-1.5,3.2-2.3,4.8c-0.9,1.8-1.8,3.7-2.5,5.6c-0.1,0.2-0.2,0.5-0.5,0.5
		c-0.3,0-0.3-0.3-0.4-0.5c-1.5-3.2-3.1-6.5-4.6-9.7c0-0.1-0.1-0.1-0.2-0.2c-0.1,0.1-0.1,0.3-0.1,0.5c0,2.2,0,4.3,0,6.5
		c0,0.6,0.1,1.3,0.1,1.9c0,0.4,0.2,0.6,0.6,0.6c0.3,0,0.6,0.1,0.8,0.1c0.2,0,0.3,0.1,0.3,0.3c0,0.2-0.1,0.3-0.3,0.3
		c-1.3,0-2.6,0-3.9,0c-0.2,0-0.3-0.1-0.3-0.3c0-0.2,0.1-0.3,0.3-0.3c0.3,0,0.5-0.1,0.8-0.1c0.5,0,0.7-0.3,0.7-0.7c0-0.1,0-0.2,0-0.3
		c0-2.9,0-5.8,0-8.8c0-0.2,0-0.5-0.1-0.7c-0.1-0.8-0.2-0.9-1-0.9c-0.1,0-0.2,0-0.3,0c-0.2,0-0.5,0-0.5-0.3c0-0.3,0.3-0.4,0.5-0.4
		c0.6,0,1.1,0.1,1.7,0c1.1-0.2,1.6,0.3,2,1.3c1.3,2.9,2.7,5.6,4.1,8.5c0,0.1,0.1,0.2,0.1,0.2c0.2,0,0.2-0.1,0.2-0.2c1.4-3,3-6,4.3-9
		c0.4-0.8,0.3-0.8,1.3-0.8c0.7,0,1.4,0,2,0c0.3,0,0.6-0.1,0.7,0.3c0,0.4-0.4,0.3-0.6,0.4c-0.1,0-0.2,0-0.3,0
		c-0.6,0.1-0.7,0.2-0.8,0.9c0,3.2-0.1,6.4,0,9.6c0,0.7,0.1,0.8,0.8,0.9c0.2,0,0.4,0,0.6,0.1c0.2,0,0.3,0.1,0.3,0.3
		c0,0.2-0.2,0.3-0.4,0.3c-1.5,0-3.1,0-4.6,0c-0.2,0-0.3-0.1-0.3-0.3c0-0.2,0.1-0.4,0.3-0.4c0.3,0,0.6-0.1,0.9-0.1
		c0.3,0,0.5-0.2,0.5-0.5c0-0.2,0.1-0.4,0.1-0.6c0-2.8,0-5.7,0-8.5C178.5,39.5,178.4,39.5,178.4,39.4z"/>
	<path class="st0" d="M89.3,39.7c-0.2,2.9-0.1,5.7,0,8.4c0,0.2,0.1,0.4,0.1,0.6c0,0.3,0.2,0.4,0.5,0.4c0.3,0,0.6,0.1,0.9,0.1
		c0.2,0,0.4,0.1,0.4,0.4c0,0.2-0.2,0.3-0.4,0.3c-1.3,0-2.5,0-3.8,0c-0.2,0-0.4-0.1-0.4-0.3c0-0.2,0.2-0.3,0.4-0.4
		c0.2,0,0.5-0.1,0.7-0.1c0.5,0,0.7-0.2,0.7-0.7c0-0.2,0-0.3,0-0.5c0-2.8,0-5.7,0-8.5c0-0.3,0-0.6-0.1-0.9c-0.1-0.7-0.2-0.8-0.9-0.9
		c-0.3,0-0.9,0.1-0.8-0.4c0.1-0.4,0.6-0.2,0.9-0.2c0.7,0,1.4,0,2.1,0c0.4,0,0.7,0.1,0.8,0.5c1.4,3.1,3,6,4.4,9.1
		c0.1,0.2,0.1,0.4,0.3,0.4c0.2,0,0.2-0.2,0.2-0.4c1-2.1,2.1-4.3,3.1-6.4c0.4-0.9,0.8-1.8,1.2-2.6c0.2-0.4,0.4-0.6,0.9-0.5
		c0.7,0.1,1.4,0,2.2,0c0.2,0,0.3,0,0.5,0c0.2,0,0.4,0,0.4,0.3c0,0.2-0.2,0.3-0.4,0.3c-0.2,0-0.4,0-0.6,0c-0.5,0-0.7,0.3-0.7,0.8
		c0,1.7-0.1,3.3-0.1,5c0,1.6,0,3.2,0.1,4.8c0,0.7,0.1,0.7,0.8,0.8c0.2,0,0.4,0,0.6,0.1c0.2,0,0.4,0.1,0.4,0.4c0,0.2-0.2,0.3-0.4,0.3
		c-0.4,0-0.8,0-1.2,0c-1.1,0-2.2,0-3.3,0c-0.3,0-0.5,0-0.5-0.3c0-0.3,0.2-0.3,0.4-0.4c1.2-0.2,1.3-0.2,1.4-1.4c0.1-1,0-2.1,0-3.1
		c0-1.8,0-3.6-0.1-5.4c-0.4,0.8-0.8,1.6-1.2,2.3c-1.3,2.6-2.6,5.3-3.7,8c-0.1,0.2-0.1,0.4-0.4,0.4c-0.2,0-0.3-0.2-0.4-0.4
		c-0.9-1.9-1.8-3.8-2.7-5.7C90.8,42.6,90.1,41.3,89.3,39.7z"/>
	<path class="st0" d="M42,43.6c0,1.6,0,3.2,0,4.7c0,0.8,0.1,0.9,0.9,1c0.2,0,0.4,0.1,0.6,0.1c0.2,0,0.3,0.1,0.3,0.3
		c0,0.2-0.1,0.3-0.3,0.3c-0.1,0-0.3,0-0.4,0c-1.4,0-2.8,0-4.3,0c-0.2,0-0.5,0-0.5-0.3c-0.1-0.3,0.2-0.4,0.4-0.4c0.2,0,0.3,0,0.5-0.1
		c0.7-0.1,0.9-0.2,0.9-0.9c0-1.8,0-3.7,0-5.5c0-1.3,0-2.6,0-3.9c0-0.8-0.2-1-1-1c-0.3,0-0.8,0.1-0.8-0.4c0-0.5,0.5-0.4,0.8-0.3
		c1.8,0.1,3.6,0.1,5.3,0c0.7,0,1.3,0,2,0.1c2,0.3,3.1,2.7,1.6,4.6c-0.6,0.8-1.5,1.2-2.4,1.5C45,43.5,45,43.5,45.4,44
		c1.1,1.5,2.2,2.9,3.4,4.4c0.3,0.4,0.7,0.8,1.3,0.9c0.2,0,0.4,0.2,0.3,0.4c0,0.2-0.3,0.2-0.4,0.2c-0.6,0-1.3,0-1.9,0
		c-0.4,0-0.6-0.3-0.8-0.5c-1.1-1.5-2.2-3.1-3.4-4.5c-0.4-0.5-0.8-0.9-1.2-1.4c-0.1-0.1-0.2-0.2-0.1-0.3c0.1-0.2,0.2-0.2,0.4-0.2
		c0.7,0,1.3,0,2-0.2c1.6-0.5,2.1-1.9,1.7-3.4c-0.3-1-1.2-1.5-2.5-1.6c-0.5,0-1,0.1-1.5,0.1c-0.4,0-0.6,0.3-0.6,0.7
		C42,40.3,42,41.9,42,43.6C42,43.6,42,43.6,42,43.6z"/>
	<path class="st0" d="M208.2,43.9c0,1.4-0.1,3,0.1,4.7c0,0.5,0.2,0.7,0.7,0.7c0.2,0,0.4,0,0.5,0.1c0.2,0,0.5,0,0.5,0.4
		c0,0.3-0.3,0.3-0.5,0.3c-0.7,0-1.4,0-2.1,0c-0.8,0-1.5,0-2.3,0c-0.2,0-0.5,0-0.5-0.3c0-0.3,0.2-0.3,0.4-0.4c0.1,0,0.3,0,0.4-0.1
		c0.8-0.1,1-0.2,1-1c0-3,0-6.1,0-9.1c0-0.1,0-0.3,0-0.4c-0.1-0.8-0.2-0.8-1-0.9c-0.3,0-0.8,0.1-0.8-0.4c0-0.5,0.5-0.3,0.8-0.3
		c1.8,0.1,3.6,0.1,5.4,0c0.6,0,1.3,0.1,1.9,0.1c2,0.3,2.9,2.5,1.8,4.4c-0.6,1-1.5,1.4-2.6,1.7c-0.6,0.2-0.6,0.2-0.2,0.6
		c1.2,1.5,2.4,3.1,3.5,4.6c0.3,0.4,0.6,0.7,1.1,0.7c0.2,0,0.4,0.1,0.3,0.3c0,0.2-0.2,0.3-0.4,0.3c-0.7,0-1.4,0-2,0
		c-0.3,0-0.4-0.2-0.6-0.4c-0.4-0.5-0.8-1.1-1.2-1.7c-1.1-1.5-2.3-3-3.4-4.4c-0.1-0.1-0.3-0.2-0.2-0.4c0.1-0.2,0.3-0.1,0.4-0.1
		c0.5,0,1.1,0,1.6-0.1c1.6-0.4,2.5-2,2-3.5c-0.2-0.7-0.8-1.1-1.4-1.3c-0.9-0.3-1.8-0.2-2.7-0.1c-0.3,0.1-0.4,0.3-0.5,0.6
		c-0.1,0.8-0.1,1.7-0.1,2.5C208.2,41.9,208.2,42.7,208.2,43.9z"/>
	<path class="st0" d="M70,42c0-0.9,0-2,0-3.2c0-0.8-0.2-0.9-1-1c-0.3,0-0.8,0.1-0.8-0.4c0-0.5,0.5-0.3,0.8-0.3
		c1.4,0.1,2.8,0.1,4.2,0c0.2,0,0.5,0,0.5,0.3c0,0.3-0.2,0.3-0.4,0.3c-0.1,0-0.1,0-0.2,0C72,38,72,38,72,39.1c0,2.3,0,4.6,0,6.9
		c0,1.8,0.7,2.6,2.5,2.9c0.9,0.2,1.9,0.1,2.8-0.1c1.5-0.4,2.1-1.2,2.2-2.9c0.1-2.4,0.1-4.9,0-7.3c0-0.6-0.2-0.8-0.8-0.8
		c-0.2,0-0.4,0-0.6,0c-0.2,0-0.3-0.1-0.3-0.3c0-0.2,0.2-0.4,0.4-0.4c0.4,0,0.8,0.1,1.1,0.1c0.8,0,1.6,0.1,2.4,0c0.1,0,0.3,0,0.4,0
		c0.1,0,0.2,0.1,0.2,0.3c0,0.2-0.1,0.3-0.2,0.3c-0.2,0-0.4,0.1-0.6,0.1c-0.7,0-0.9,0.2-0.9,0.9c0,1.7,0,3.4,0,5c0,0.8,0,1.7-0.1,2.5
		c-0.1,1.8-1.1,3-2.8,3.6c-1.7,0.6-3.5,0.6-5.2,0c-1.5-0.5-2.1-1.6-2.3-3.1C70,45.3,70.1,43.8,70,42z"/>
	<path class="st0" d="M11.3,43.6c0,1.7,0,3.2,0.1,4.7c0.1,0.8,0.1,0.9,0.9,1c0.1,0,0.3,0.1,0.4,0.1c0.2,0,0.4,0.1,0.4,0.4
		c0,0.3-0.3,0.3-0.5,0.3c-0.9,0-1.9,0-2.8,0c-0.5,0-1.1,0-1.6,0c-0.2,0-0.4,0-0.4-0.3c0-0.3,0.2-0.3,0.4-0.4
		c1.3-0.2,1.3-0.2,1.3-1.5c0-2.9,0-5.8,0-8.7c0-0.2,0-0.5,0-0.7c-0.1-0.4-0.3-0.6-0.7-0.6c-0.2,0-0.5,0-0.7,0
		c-0.2,0-0.3-0.1-0.3-0.3c0-0.2,0.2-0.3,0.4-0.3c0.3,0,0.6,0,0.9,0c1.4,0.1,2.8,0.1,4.2,0c0.9-0.1,1.8,0,2.7,0.2
		c1.5,0.3,2.5,1.8,2.2,3.3c-0.4,1.8-2.1,3.2-3.9,3.3c-0.4,0-0.8,0-1.1,0c-0.2,0-0.4-0.1-0.6-0.3c-0.1-0.1-0.1-0.2,0-0.4
		c0.1-0.1,0.2-0.1,0.3-0.1c0.4,0,0.7,0.1,1.1,0c0.9,0,1.6-0.5,2-1.2c0.5-1,0.5-2-0.1-2.9c-0.7-1-1.8-1.3-2.9-1.1
		c-1.4,0.2-1.3,0.2-1.4,1.5C11.3,40.9,11.4,42.3,11.3,43.6z"/>
	<path class="st0" d="M31.3,50c-0.7,0-1.3,0-2,0c-0.2,0-0.5,0-0.5-0.3c0-0.3,0.2-0.4,0.5-0.4c0.2,0,0.5,0,0.7,0
		c0.4,0,0.5-0.2,0.4-0.5c-0.4-0.9-0.7-1.9-1.1-2.8c-0.1-0.1-0.2-0.2-0.3-0.2c-1.5,0-3.1-0.1-4.6,0c-0.3,0-0.4,0.1-0.5,0.4
		c-0.3,0.8-0.6,1.5-0.9,2.3c-0.3,0.7-0.2,0.8,0.6,0.8c0.2,0,0.3,0,0.5,0c0.2,0,0.4,0.1,0.4,0.4c0,0.3-0.2,0.3-0.4,0.3
		c-0.4,0-0.8,0-1.1,0c-0.8,0-1.5,0-2.3,0c-0.2,0-0.5,0-0.5-0.3c0-0.3,0.2-0.4,0.5-0.4c0.6,0,0.9-0.3,1.2-0.9
		c1.7-3.5,3.3-7.1,4.8-10.7c0.1-0.3,0.2-0.7,0.6-0.7c0.4,0,0.5,0.4,0.6,0.7c1.4,3.1,2.7,6.2,4,9.3c0.2,0.5,0.5,1,0.7,1.6
		c0.2,0.4,0.5,0.7,0.9,0.7c0.2,0,0.3,0,0.4,0.2c0.2,0.3,0,0.5-0.4,0.5C32.8,50,32.1,50,31.3,50C31.3,50,31.3,50,31.3,50z M26.6,44.9
		C26.6,44.9,26.6,44.9,26.6,44.9c0.6,0,1.2,0,1.8,0c0.2,0,0.5,0,0.3-0.4c-0.6-1.5-1.2-3-1.9-4.5c0-0.1-0.1-0.2-0.2-0.3
		c-0.1,0-0.2,0.1-0.2,0.2c-0.6,1.5-1.3,3-1.9,4.5c-0.1,0.3,0,0.4,0.3,0.4C25.4,44.9,26,44.9,26.6,44.9z"/>
	<path class="st0" d="M193,45.7c-0.7,0-1.4,0-2.1,0c-0.4,0-0.6,0.1-0.7,0.5c-0.3,0.8-0.6,1.5-0.9,2.2c-0.2,0.6-0.1,0.8,0.6,0.8
		c0.2,0,0.4,0,0.6,0.1c0.2,0,0.3,0.2,0.3,0.4c0,0.2-0.1,0.3-0.3,0.3c-1.2,0-2.4,0-3.7,0c-0.2,0-0.4-0.1-0.4-0.3
		c0-0.2,0.1-0.4,0.4-0.4c1,0.1,1.2-0.6,1.5-1.3c1.3-2.7,2.6-5.5,3.8-8.2c0.3-0.7,0.6-1.4,0.9-2.2c0.1-0.3,0.2-0.6,0.5-0.6
		c0.4,0,0.5,0.3,0.6,0.6c0.9,2,1.7,3.9,2.6,5.9c0.7,1.7,1.5,3.4,2.2,5c0.2,0.5,0.5,0.8,1.1,0.8c0.3,0,0.5,0.1,0.5,0.4
		c0,0.3-0.3,0.3-0.5,0.3c-1.3,0-2.6,0-4,0c-0.2,0-0.5,0.1-0.6-0.3c0-0.4,0.3-0.3,0.5-0.4c0.1,0,0.2,0,0.3,0c0.8,0,0.9-0.2,0.6-0.9
		c-0.3-0.7-0.6-1.5-0.9-2.2c-0.1-0.3-0.3-0.4-0.7-0.4C194.4,45.7,193.7,45.7,193,45.7C193,45.7,193,45.7,193,45.7z M192.9,44.9
		C192.9,44.9,192.9,44.9,192.9,44.9c0.6,0,1.2,0,1.9,0c0.3,0,0.5-0.1,0.3-0.4c-0.6-1.4-1.2-2.9-1.8-4.4c-0.1-0.1-0.1-0.3-0.2-0.3
		c-0.2,0-0.2,0.2-0.3,0.4c-0.6,1.4-1.2,2.9-1.9,4.3c-0.2,0.4,0,0.5,0.3,0.5C191.7,44.9,192.3,44.9,192.9,44.9z"/>
	<path class="st0" d="M56.4,43.4c0-1.3,0.1-3-0.1-4.7c-0.1-0.7-0.2-0.8-0.9-0.9c-0.2,0-0.4,0-0.6-0.1c-0.2,0-0.3-0.1-0.3-0.3
		c0-0.2,0.1-0.3,0.3-0.3c0.2,0,0.3,0,0.5,0c1.9,0,3.9,0.1,5.8,0.1c0.7,0,1.3-0.1,2-0.1c0.5,0,0.6,0.1,0.5,0.6
		c-0.1,0.4-0.1,0.8-0.1,1.2c0,0.2,0,0.4,0,0.6c0,0.2-0.1,0.4-0.4,0.4c-0.2,0-0.3-0.2-0.4-0.4c0-0.2,0-0.5,0-0.7
		c0-0.4-0.2-0.6-0.6-0.7c-1.1-0.2-2.3-0.1-3.4-0.1c-0.2,0-0.3,0.2-0.4,0.4c-0.2,1.4-0.1,2.8-0.1,4.2c0,0.3,0.2,0.3,0.4,0.3
		c0.8,0,1.6,0,2.5,0c0.7,0,0.8-0.2,0.9-0.9c0-0.1,0-0.2,0-0.3c0-0.2,0.2-0.4,0.4-0.3c0.3,0,0.3,0.2,0.3,0.4c0,0.7,0,1.5,0,2.2
		c0,0.4,0,0.8,0.1,1.2c0,0.2-0.1,0.4-0.3,0.4c-0.3,0-0.4-0.1-0.4-0.4c0-0.3,0-0.5,0-0.8c0-0.4-0.2-0.7-0.7-0.7
		c-0.9-0.1-1.7-0.1-2.6,0c-0.3,0-0.5,0.2-0.4,0.5c0,1.3,0,2.5,0,3.8c0,0.9,0.1,1,1,1.1c0.2,0,0.4,0,0.5,0.1c0.2,0,0.2,0.1,0.2,0.3
		c0,0.2-0.1,0.3-0.3,0.3c-0.1,0-0.2,0-0.3,0c-1.4,0-2.9,0-4.3,0c-0.2,0-0.5,0-0.5-0.3c0-0.3,0.2-0.4,0.4-0.4c0,0,0.1,0,0.1,0
		c1.2,0,1.2-0.2,1.2-1.4C56.4,46.5,56.4,45.2,56.4,43.4z"/>
	<path class="st0" d="M224,43.6c0,1.6,0,3.2,0,4.8c0,0.5,0.2,0.6,0.7,0.7c1.4,0,2.8,0,4.2-0.2c0.5-0.1,0.8-0.3,0.9-0.8
		c0-0.3,0.1-0.7,0.2-1c0.1-0.2,0.2-0.5,0.5-0.4c0.3,0.1,0.2,0.3,0.2,0.5c-0.1,0.8-0.1,1.6-0.2,2.4c0,0.3-0.2,0.4-0.5,0.4
		c-1.6-0.1-3.2-0.2-4.8-0.1c-1.2,0-2.4,0.1-3.6,0.1c-0.2,0-0.4,0.1-0.5-0.2c-0.1-0.2,0.2-0.3,0.3-0.4c0.4-0.2,0.5-0.5,0.5-0.9
		c0.2-3.2,0.1-6.4,0.1-9.7c0-0.7-0.2-0.9-0.9-1c-0.1,0-0.3,0-0.4,0c-0.2,0-0.4-0.1-0.4-0.4c0-0.2,0.2-0.3,0.4-0.3c0.3,0,0.6,0,0.9,0
		c1.1,0.1,2.2,0.1,3.4,0c0.2,0,0.3,0,0.5,0c0.2,0,0.3,0.1,0.3,0.3c0,0.2-0.1,0.3-0.3,0.3c-0.2,0-0.4,0-0.6,0.1
		c-0.7,0.1-0.8,0.2-0.8,0.9C224,40.4,224,42,224,43.6C224,43.6,224,43.6,224,43.6z"/>
	<path class="st0" d="M127.5,61.8c0,1.1,0,2.1,0,3.1c0,0.5,0.2,0.7,0.6,0.7c0.1,0,0.2,0,0.3,0c0.2,0,0.4,0.1,0.4,0.3
		c0,0.2-0.2,0.2-0.4,0.2c-1.1,0-2.1,0-3.2,0.1c-0.2,0-0.5,0-0.5-0.3c0-0.3,0.2-0.3,0.4-0.3c0.1,0,0.3-0.1,0.4-0.1
		c0.3,0,0.5-0.2,0.5-0.4c0-0.2,0-0.3,0-0.5c0-2.3,0.1-4.5-0.1-6.8c0-0.7,0-0.7-0.7-0.8c-0.1,0-0.3,0-0.4-0.1c-0.1,0-0.2-0.1-0.2-0.3
		c0-0.2,0.1-0.2,0.3-0.2c0.1,0,0.2,0,0.3,0c1.4,0.2,2.9,0,4.3,0c0.4,0,0.8,0,1.2,0.1c1.6,0.3,2.3,2.1,1.3,3.4
		c-0.5,0.6-1.1,1-1.8,1.2c-0.3,0.1-0.5,0.2-0.2,0.5c0.8,1,1.6,2.1,2.4,3.1c0.3,0.4,0.6,0.7,1.1,0.9c0.1,0,0.3,0.1,0.3,0.2
		c0,0.2-0.2,0.2-0.4,0.2c-0.5,0-1,0-1.5,0c-0.3,0-0.4-0.2-0.5-0.4c-0.9-1.3-1.8-2.5-2.8-3.7c-0.2-0.2-0.3-0.4-0.5-0.6
		c-0.1-0.1-0.3-0.3-0.2-0.5c0.1-0.2,0.3-0.2,0.5-0.2c0.4,0,0.9,0,1.3-0.2c1-0.4,1.4-1.1,1.3-2.2c-0.1-0.8-0.8-1.3-1.8-1.4
		c-0.4,0-0.8,0-1.1,0.1c-0.4,0-0.6,0.2-0.6,0.7C127.6,59.1,127.4,60.5,127.5,61.8z"/>
	<path class="st0" d="M148.4,45.7c-0.8,0-1.4,0-1.9,0c-0.3,0-0.5,0.1-0.5,0.5c0.2,2.6,2.4,3.5,4.4,2.8c0.3-0.1,0.7-0.3,1-0.5
		c0.1,0,0.2-0.1,0.3-0.1c0.1,0.1,0.1,0.2,0.1,0.3c-0.1,0.3-0.3,0.6-0.6,0.7c-1.6,0.9-3.2,1-4.8,0.3c-1.3-0.6-1.9-1.7-2.1-3.1
		c-0.1-0.5,0-1,0-1.5c0.1-3.1,3.9-4.6,6-3.6c1.6,0.7,1.9,2,2,3.5c0,0.3-0.2,0.4-0.5,0.5C150.5,45.7,149.4,45.7,148.4,45.7z
		 M148.5,44.9c0.3,0,0.4,0,0.5,0c1.4,0,1.6-0.2,1.2-1.6c-0.2-0.7-0.6-1.2-1.4-1.3c-0.8-0.1-1.6,0-2.2,0.7c-0.4,0.5-0.5,1.1-0.5,1.7
		c0,0.3,0.1,0.4,0.4,0.4C147.2,44.9,147.9,45,148.5,44.9z"/>
	<path class="st0" d="M104.5,61.3c0,1.1,0,2.3,0,3.4c0,0.6,0.1,0.8,0.8,0.8c0.1,0,0.3,0,0.4,0.1c0.1,0,0.2,0.1,0.2,0.3
		c0,0.1-0.1,0.2-0.2,0.2c-0.1,0-0.3,0-0.4,0c-1,0-2,0-3,0c-0.2,0-0.5,0-0.5-0.3c0-0.3,0.2-0.3,0.5-0.3c0.8-0.1,0.9-0.1,0.9-0.9
		c0-2.4,0.1-4.8-0.1-7.2c0-0.4-0.2-0.5-0.6-0.5c-0.3,0-0.8,0.1-0.7-0.3c0-0.4,0.5-0.3,0.8-0.3c1.4,0.1,2.9-0.1,4.3,0
		c0.7,0,1.4,0.1,2,0.6c1.2,1,1.1,2.8-0.2,3.8c-0.9,0.7-1.9,0.9-2.9,0.7c-0.2,0-0.4-0.1-0.4-0.4c0-0.3,0.3-0.2,0.5-0.2
		c1.6,0.2,2.6-0.8,2.3-2.5c-0.1-0.8-0.8-1.4-1.7-1.5c-0.4,0-0.9,0-1.3,0.1c-0.4,0.1-0.5,0.3-0.5,0.6
		C104.5,58.9,104.5,60.1,104.5,61.3C104.5,61.3,104.5,61.3,104.5,61.3z"/>
	<path class="st0" d="M116.1,62.9c-0.4,0-1,0-1.6,0c-0.4,0-0.6,0.1-0.7,0.4c-0.2,0.5-0.4,1-0.6,1.5c-0.2,0.5-0.1,0.7,0.5,0.7
		c0.1,0,0.1,0,0.2,0c0.2,0,0.4,0.1,0.4,0.3c0,0.3-0.2,0.2-0.4,0.2c-0.8,0-1.6,0-2.4,0c-0.2,0-0.4,0-0.4-0.2c0-0.2,0.2-0.3,0.3-0.3
		c0.7,0,0.9-0.5,1.1-1c1.1-2.5,2.2-5.1,3.3-7.6c0-0.1,0.1-0.2,0.1-0.2c0.1-0.2,0.2-0.5,0.5-0.4c0.3,0,0.3,0.2,0.4,0.4
		c0.6,1.3,1.1,2.7,1.7,4c0.6,1.4,1.2,2.8,1.8,4.2c0.2,0.4,0.4,0.6,0.8,0.7c0.2,0,0.4,0.1,0.4,0.3c0,0.3-0.3,0.2-0.4,0.2
		c-0.9,0-1.9,0-2.8,0.1c-0.2,0-0.5,0-0.5-0.3c0-0.3,0.3-0.3,0.5-0.3c0.8-0.2,0.8-0.2,0.5-1c0,0,0-0.1,0-0.1
		c-0.2-0.5-0.3-1.1-0.7-1.4C117.5,62.7,116.9,63,116.1,62.9z M116,62.2C116,62.2,116,62.2,116,62.2c0.4,0,0.8,0,1.2,0
		c0.3,0,0.4-0.1,0.3-0.4c-0.4-1.1-0.9-2.1-1.3-3.2c0-0.1-0.1-0.1-0.2-0.2c-0.1,0-0.2,0.1-0.2,0.2c-0.4,1.1-0.9,2.1-1.3,3.2
		c-0.1,0.3,0,0.4,0.3,0.4C115.2,62.2,115.6,62.2,116,62.2z"/>
	<path class="st0" d="M147.9,56.2c0.8,0,1.5,0.2,2.2,0.4c0.3,0.1,0.5,0.3,0.4,0.6c-0.1,0.4-0.1,0.8-0.1,1.2c0,0.2-0.1,0.3-0.3,0.4
		c-0.2,0-0.3-0.2-0.3-0.3c-0.2-1.2-0.7-1.5-2-1.5c-1.1,0-1.8,0.6-1.9,1.7c-0.1,0.8,0.3,1.4,1.1,1.6c0.6,0.1,1.2,0.2,1.8,0.3
		c1.1,0.2,2.1,0.6,2.4,1.9c0.2,1.2-0.3,2.4-1.4,3.1c-1.5,1-3.1,0.9-4.7,0.5c-0.3-0.1-0.5-0.3-0.5-0.7c0.1-0.4,0.1-0.9,0.1-1.3
		c0-0.2,0-0.4,0.3-0.4c0.2,0,0.3,0.2,0.3,0.4c0.1,1.1,0.3,1.3,1.4,1.5c0.8,0.2,1.6,0.2,2.3-0.2c0.9-0.5,1.3-1.6,0.9-2.5
		c-0.3-0.6-0.8-0.8-1.4-0.9c-0.5-0.1-1.1-0.2-1.7-0.3c-1.2-0.2-2-0.9-2.1-1.9c-0.2-1.3,0.4-2.4,1.5-3
		C146.7,56.3,147.3,56.2,147.9,56.2z"/>
	<path class="st0" d="M139.2,66.1c-0.4,0-1,0-1.6,0.1c-0.2,0-0.5,0-0.6-0.2c-0.1-0.3,0.2-0.3,0.5-0.4c0.9-0.2,0.9-0.2,0.9-1
		c0-2.1,0-4.2,0-6.3c0-0.2,0-0.4,0-0.6c0-0.4-0.2-0.6-0.6-0.6c-0.3,0-0.7,0.1-0.7-0.3c0-0.4,0.5-0.3,0.7-0.3c0.9,0.1,1.9,0.1,2.8,0
		c0.2,0,0.5-0.1,0.6,0.2c0,0.3-0.3,0.3-0.5,0.4c-0.7,0.1-0.8,0.1-0.8,0.8c0,2.3,0,4.7,0,7c0,0.5,0.2,0.7,0.7,0.7c0.1,0,0.2,0,0.3,0
		c0.2,0,0.4,0.1,0.4,0.3c0,0.2-0.2,0.2-0.4,0.2C140.3,66.1,139.8,66.1,139.2,66.1z"/>
</g>
</svg>
