<?xml version="1.0" encoding="UTF-8"?>
<svg id="Capa_1" xmlns="http://www.w3.org/2000/svg" version="1.1" viewBox="0 0 250 100">
  <!-- Generator: Adobe Illustrator 29.6.1, SVG Export Plug-In . SVG Version: 2.1.1 Build 9)  -->
  <defs>
    <style>
      .st0 {
        fill: #777;
      }
    </style>
  </defs>
  <path class="st0" d="M140.49,37.05c14.35-2.3,21.02,18.79,7.59,24.66-18.6,8.14-26.41-21.65-7.59-24.66ZM139.75,41.31c-8.43,1.94-8.18,16.29,1.34,17.6,13.78,1.89,13.48-21.02-1.34-17.6Z"/>
  <path class="st0" d="M197.64,53.25v-15.65h4.27v24.9c-2.47-.11-3.43-3.05-4.97-4.64-3.65-3.8-7.45-7.54-11.41-11.01v15.65h-4.27v-24.9c1.24-.31,1.42.51,2.14,1.06,5.15,3.94,8.7,10.84,14.24,14.59Z"/>
  <path class="st0" d="M56.27,37.6c6.67,1.18,8.84,11.95,1.88,14.31l-.13.96,6.44,9.61c-1.33-.21-3.82.46-4.84-.14-1.95-1.13-4.91-11.31-9.4-9.81v9.96h-4.27v-24.9c3.15.38,7.35-.53,10.33,0ZM50.22,49.7c10.71,1.45,10.7-10,0-8.54v8.54Z"/>
  <path class="st0" d="M237.17,37.6c6.82,1.35,8.03,12.51,1.08,15.29l7.11,9.6c-7.02,3.21-9.03-10.36-13.16-10-3.22.28-1.29,7.72-1.79,10.01h-3.56v-24.9c3.08.41,7.45-.57,10.33,0ZM231.57,41.24c-1.95.65-1.24,5.98-.86,7.78,11.06,4.23,10.05-10.84.86-7.78Z"/>
  <path class="st0" d="M170.22,37.6c2.09.45,5.12,4.44,5.59,6.57,1.21,5.5-4.24,7.33-4.35,8.72l6.24,9.61c-6,1.5-7.06-5.46-10.3-8.56-6.07-5.8-3.21,7.86-3.94,8.56h-3.56v-24.9c3.03.44,7.54-.6,10.33,0ZM163.45,49.7c11.22,1.04,11.26-9.57,0-8.54v8.54Z"/>
  <polygon class="st0" points="221.86 37.6 221.86 41.16 211.17 41.16 211.17 47.56 220.44 47.97 220.44 51.83 211.17 51.82 211.17 58.23 221.86 58.23 221.86 62.5 206.9 62.5 206.9 37.6 221.86 37.6"/>
  <path class="st0" d="M15.68,37.6c1.38.28,4.93,3.02,5.51,4.45,3.33,8.2-4.8,13.33-12.28,11.91v8.54s-4.27,0-4.27,0v-24.9c3.28.45,7.99-.61,11.04,0ZM8.91,49.7c12.62,1.93,11.78-10.02,0-8.54v8.54Z"/>
  <path class="st0" d="M31.69,37.6l10.69,24.89-4.18-.09-1.25-3.51c-2.31.56-10.98-.67-12.27.15-.83.53-.74,5.12-5.8,3.44,4.28-7.16,6.78-17.12,11.22-23.97.45-.69-.08-1.28,1.58-.91ZM35.27,55.38c-.55-.82-3.9-10.04-4.98-9.24l-3.57,9.24h8.54Z"/>
  <path class="st0" d="M126.4,56.11l1.16,3.54c-4.74,4.25-11.11,4.21-16.1.37-11.33-8.71-1.92-26.73,11.6-22.26,3.94,1.3,6.73,3.19,2.3,6.21-6.92-7.94-18.69,1.5-13.79,10.25,3.51,6.27,9.66,5.31,14.83,1.88Z"/>
  <path class="st0" d="M83.52,37.04c7-1.14,11.22,5.45,6.85,6.21-.67.12-5.47-4.54-8.17-1.1-4.48,5.47,11.23,5.49,11.51,12.89s-9.14,9.61-14.8,6.18c-2.55-1.55-3.29-4.62-.48-5.09,1.06-.17,2.16,1.77,3.29,2.27,1.95.86,6.79.97,7.56-1.36,2-6.06-10.65-5.85-11.87-11.42-.87-4,2.14-7.93,6.09-8.58Z"/>
  <rect class="st0" x="68.03" y="37.6" width="4.27" height="24.9"/>
</svg>