<?xml version="1.0" encoding="utf-8"?>
<!-- Generator: Adobe Illustrator 23.0.1, SVG Export Plug-In . SVG Version: 6.00 Build 0)  -->
<svg version="1.1" id="Layer_1" xmlns="http://www.w3.org/2000/svg" xmlns:xlink="http://www.w3.org/1999/xlink" x="0px" y="0px"
	 viewBox="0 0 512.3 94.8" style="enable-background:new 0 0 512.3 94.8;" xml:space="preserve">
<style type="text/css">
	.st0{fill-rule:evenodd;clip-rule:evenodd;fill:#EC008C;}
	.st1{fill:#EC008C;}
	.st2{fill:none;stroke:#EC008C;stroke-width:2.0133;stroke-linecap:round;stroke-linejoin:round;stroke-miterlimit:22.9256;}
	.st3{fill:none;stroke:#EC008C;stroke-width:1.6676;stroke-linecap:round;stroke-linejoin:round;stroke-miterlimit:22.9256;}
</style>
<g>
	<path class="st0" d="M175.2,92.1c3.4,2.5,6,2.7,11.9,2.6c5.9-0.1,10-6.9,10-6.9s2.2-3.2,0.8-7.7c-1.4-4.4-5.1-7.9-5.8-9
		c-0.7-1.1-1.6-2.9-1.6-5.1c0-2.1,1.6-3.8,2.9-4.3c2.1-0.8,7.2-0.3,7.2,2.9c0,1.1,0.1,2.1-0.8,2.7c-1.9,1.3-1.5,3.4,0.8,5.1
		c2.4,1.7,4.2,0.6,5.8-1.8c1.6-2.4,1.3-5.7,0.5-7.1c-0.9-1.3-1.8-2.9-4.9-3.8c-3.1-0.9-7-1.1-9.4-0.2c-4.6,1.8-9.3,5.3-8.7,11
		c0.3,2.4,1,4.2,3.4,6.7c2.4,2.6,3,3.6,3.2,5.7c0.4,3.7-1.6,8.3-6.6,8.8c-1.4,0.1-3.3,0.1-4.9-0.4c-1.7-0.5-3.2-1.1-3.6-2.9
		c-0.4-1.8-0.3-4.6,3-5c2.7-0.4,4-1.6,4-3.7c0-2.1-0.8-3-2.7-3.6C171,73.6,169.4,87.8,175.2,92.1L175.2,92.1z"/>
	<path class="st0" d="M174.6,61.3h-8.4l-9.6,15.3c-3.5,5.5-9.7,15.9,0.8,17.4c2.3,0.3,3.1,0.1,4.6-0.3c1.8-0.5,11.9-8.3,12-9.2
		l0.1-1c0.1-1.4-6.7,5.5-11.3,7.4c-1.7,0.7-2.8,0.3-3.5-0.7c-0.8-1-0.6-2,0.1-3.4C160,85.3,174.6,61.3,174.6,61.3L174.6,61.3z"/>
	<path class="st0" d="M161.8,72.9l-1.9,2.7c-5.7,0.4-13.9,2.6-16.4-4.4c-2.3-6.3,3.9-10.9,10.5-11.6c0.7-0.1,1.7,0,1.9,0.5
		c0.2,0.5,0.2,1-0.4,1.4c-3.8,2.2-5.9,8.1-2.9,11.4C154.4,74.9,159.6,73.4,161.8,72.9L161.8,72.9z"/>
	<path class="st0" d="M418.9,49.2l-9.2,0l-18.2,29.3c0,0-2.5,4.8-2.5,9.3c0,4.5,3.6,5.2,3.6,5.2c2.1,0.3,4,0.2,6.1,0
		c0,0,3.4-0.1,7.7-3.6c4.3-3.4,12.8-12.3,12.8-12.3l0.1-1.7l-6.5,6.3l-7.1,6.5c0,0-2.8,2.3-6.6,2.3c-3.7,0-4-1.7-2.4-4.4
		C401.3,78.2,418.9,49.2,418.9,49.2L418.9,49.2z"/>
	<path class="st0" d="M395.6,60.2H422c0.3,0,0.6,0.5,0.6,1.1l0,0c0,0.6-0.3,1.1-0.6,1.1h-26.4c-0.3,0-0.6-0.5-0.6-1.1l0,0
		C395,60.7,395.2,60.2,395.6,60.2L395.6,60.2z"/>
	<path class="st0" d="M355.5,61.4l-10,17c0,0-2.4,4.8-2.4,9.3c0,4.5,3.5,5.2,3.5,5.2c4.8,0.6,8.7-0.4,12.6-3.6
		c5.4-4.4,10.5-11.1,10.5-11.1l0-0.7l-10.9,10.7c-0.4,0.4-2.3,2.3-6,2.3c-1.7,0-4.5-0.4-3.4-2.9c1.1-2.5,8.1-14,15.4-26.2H355.5
		L355.5,61.4z"/>
	<path class="st0" d="M141,60.6h-10.2c-2.8,4.8-5.9,11.4-8.7,16.2L112.5,92h9.4C121.9,92,126.4,79.1,141,60.6L141,60.6z"/>
	<path class="st1" d="M191,90.4c1.2,2.7,6.1-0.4,8.1-1.7c3.1-2.1,6.3-5.1,10.6-9.1c0.6-0.6,8.6-9.8,8.9-9.7c0.3,0.1-0.7,2.2-2.9,4.9
		c-2,2.4-4.4,5.2-7.7,8.3c-4.1,3.7-7.1,6.1-10.1,8.3c-2.8,2-6.9,2.7-9.3,3.3c-0.8,0.2,0.4-0.2-0.7,0.1L191,90.4L191,90.4z"/>
	<path class="st0" d="M449.2,61.9c5.6,5.6,3.6,16.7-4.5,24.8c-8.1,8.1-19.2,10.1-24.8,4.5c-5.6-5.6-3.6-16.7,4.5-24.8
		C432.5,58.3,443.6,56.3,449.2,61.9L449.2,61.9z M442.6,60.3c4,2.1,3.4,11-1.3,20c-4.7,8.9-11.7,14.5-15.7,12.4
		c-4-2.1-3.2-10.8,1.5-19.8C431.9,64,438.7,58.2,442.6,60.3L442.6,60.3z"/>
	<path class="st0" d="M450,62.7c0,0,1,1.7,1.9,3.6c1.1,2.3,2.2,4.9,4,6.1c3,2,8.4,0.3,8.4,0.3l4.7-0.9l-1.4,2.3c0,0-8.2,2-11.7,0
		c-3.5-2-5.2-6-5.2-6C450.5,65.4,450,62.7,450,62.7L450,62.7z"/>
	<path class="st0" d="M179.8,39.9c2.8,0,5,2.3,5,5c0,2.8-2.3,5-5,5c-2.8,0-5-2.3-5-5C174.8,42.2,177,39.9,179.8,39.9L179.8,39.9z"/>
	<path class="st0" d="M370.5,39.6c2.8,0,5,2.3,5,5c0,2.8-2.3,5-5,5c-2.8,0-5-2.3-5-5C365.5,41.9,367.7,39.6,370.5,39.6L370.5,39.6z"
		/>
	<path class="st2" d="M127.1,79.3c0,0,17.7-17.6,24.2-17.8"/>
	<path class="st0" d="M117.6,61.3h-8.4l-3.3,5.2c-0.3-2.5-1.5-4.7-3.4-6c-5.6-3.9-16.1,0.1-23.3,9c-7.2,8.8-8.6,19.2-2.9,23
		c4.4,3.1,11.9,1.2,18.4-4c0,1.1-0.1,1.7,0.4,2.7c0.5,1,2.3,2.9,5.3,2.9c7.9,0,13-6.3,19-11.6l2.4-3.4c0.8-1.1-11.4,10-16,11.9
		c-3.2,1.3-4.7-1.4-3.4-4.1C103,85.3,117.6,61.3,117.6,61.3L117.6,61.3z M102.6,71.7l0,0.1l0,0l0,0.1l0,0.1l0,0.1l0,0.1l0,0.1l0,0.1
		l0,0.1l0,0l0,0.1l0,0.1l0,0l-0.1,0.2l0,0l0,0.1l0,0.1l0,0l0,0.1l0,0.1l0,0.1l0,0.1l0,0l0,0.1l0,0.1l0,0.1l0,0l0,0.1l-0.1,0.2l0,0
		l0,0.1l-0.1,0.3l0,0l0,0.1l0,0.1l0,0.1l0,0l0,0.1l0,0.1l0,0.1l0,0l0,0.1l-0.1,0.2l0,0.1l0,0.1l-0.1,0.3l0,0l-0.1,0.2l-0.1,0.1l0,0
		l0,0.1l-0.1,0.2l0,0.1l0,0.1l-0.1,0.3l0,0l-0.1,0.2l-0.1,0.1l0,0l-0.1,0.1l-0.1,0.2l0,0l0,0.1l-0.2,0.3l0,0l-0.2,0.3l-0.2,0.3l0,0
		l0,0l-0.1,0.1l-0.1,0.1l-0.1,0.1l0,0l0,0l-0.1,0.2L99.2,80l0,0L99,80.3l0,0l-0.2,0.3l0,0.1l0,0.1L98.6,81l0,0.1l0,0.1l-0.7,1
		l-0.1,0.1l-0.1,0.1l-0.1,0.1l-0.1,0.1l-0.2,0.2l-0.1,0.1L97.2,83l-0.1,0.1l-0.1,0.1L97,83.3l-0.1,0.1l-0.1,0.1
		c-0.6,0.8-1.2,1.5-1.9,2.2c-3.7,3.9-7.8,5.8-10.6,4.5c-4.2-1.9-3.9-10.3,0.1-17.2c4.1-6.9,12.1-13.8,15.7-12.2
		C103.7,62.4,103.9,66.4,102.6,71.7L102.6,71.7z"/>
	<path class="st0" d="M46.2,82.6c4.7-5.9,12.2-17.4,14.7-21.7c2.5-4.3,8.3-14.6,10.6-18.9c2.3-4.3,6.7-10.7,13-17.7
		c6.3-7,10.4-11.7,19.8-17.1c1.6-0.9,3.4-1.8,5.2-2.5l-0.1,0c-0.6-0.1-1.2-0.1-1.7-0.2c-14.5-2-28.8,1.4-41.9,7.4
		c-16,7.3-34,23.7-32.2,42.8c0.6,6.2,5.4,9.4,9.7,9.4c4.3,0,9.4-3.5,12.5-7.3c5.2-6.2,4.9-13.4,5.1-20.9c1.6,8.9,0.6,18.3-6,25.2
		c-8,8.3-20.9,11.7-29.3,1.3c-2.3-2.8-3.5-7.4-3.5-10.3c0-9.8,3.4-16.7,10.1-23.8C41,19,52.6,11.5,64.6,7.7
		C70.7,5.7,76.1,4,85.8,3.1c9.7-0.9,15.3-0.6,23.3,0.6c0.8,0.1,1.5,0.2,2.1,0.3c8.3-3.2,17.2-4.5,19.8-3.8c1.8,0.5-7.2,1.4-14.5,5.2
		c6.1,2.3,11.9,7.9,13.4,11.2c6.7,14.6-4.4,26.9-17.7,30.9c-6.1,1.8-13,1.7-17.6-0.8c-10.1-5.6-0.1-15.6,6.2-12.4
		c2.2,1.1,2.4,4.2,0.4,5.9c-2,1.7-1.5,3.2-0.9,4c0.6,0.8,2.7,1.2,4.9,0.6c2.1-0.6,4.6-3.2,7.3-6.7c2.8-3.5,4.6-8.2,5.3-10.6
		c1.8-7,1.8-15.4-4.2-20.2c-5.2,3.8-8.5,9.2-8.5,9.2s-9.1,12.5-13.6,19.1c-4.3,6.4-9.3,14.8-10.5,16.8c-2.9,4.6-6.5,11.2-11.5,17.1
		c-5,5.9-10.1,9.7-13.5,12.4c-2.6,2-5.6,3.4-8.4,5.1c-7.3,4.4-19.6,7.3-29.1,7.3c-9.5,0-12.9-1.5-15.6-2.6C0.5,90.7,0,89.6,0,87.9
		c0-1.5,1-2.4,2.9-3.3c3-1.3,9.2-0.4,14.1,0.3c4.1,0.6,8.7,2,13.4,2.2C36.2,87.4,42,87.8,46.2,82.6L46.2,82.6z"/>
	<path class="st0" d="M408.4,29h-10.1l-29.8,49.4c0,0-2.5,4.8-2.5,9.3c0,4.5,2.9,5.1,3.6,5.2c1.6,0.4,5.8,0.5,7.8-0.5
		c1.2-0.5,2.9-1.4,5.1-3.2c5.5-4.4,10.8-10.9,10.8-10.9l0-1.3L382.1,88c0,0-2.3,2.5-6.1,2.5s-3.7-1.1-3.7-2.4
		C372.4,86.6,408.4,29,408.4,29L408.4,29z"/>
	<path class="st3" d="M376,70.8c0,0-15.5,19.5-22,20.4 M399.3,70.8c0,0-15.5,19.5-22,20.4 M399.3,70.8c0,0-15.5,19.5-22,20.4"/>
	<path class="st0" d="M347.6,68.2c0,0-13.4,17.5-17.4,17.6c-4,0.1-4.9-2.3-5.5-5.9c-0.6-3.6,0.5-15.1,5.5-24.8
		c5-9.7,9.5-16.4,14.7-23.5c5.3-7.1,11.8-14.7,16.2-17.9c5.3-3.8,11.6-9.9,18.9-7.5c7.3,2.4,6.7,11.9,16,9.6c5.7-1.4,6-9,1.4-12
		c-9.1-5.9-31.8,0.5-40.2,4.8c-6.1,3.2-16.4,10.3-24.4,19.6c-4,4.6-9.1,12.2-11.5,16.8c-2.5,4.6-5.9,10.5-8.8,18.9
		c-3.4,9.8-6.5,21.2,3.4,27.5c3.8,2.5,12.7,0.6,15.6-1.3c2.8-1.9,5.2-4.2,10.4-10.8C346.8,72.9,347.6,68.2,347.6,68.2L347.6,68.2z"
		/>
	<polygon class="st0" points="299.3,45.5 325.2,45.5 325.2,47.1 299.3,47.1 299.3,45.5 	"/>
	<path class="st0" d="M352.6,1c0,0-9,0.6-15.9,3c-6.9,2.4-14.2,6.4-19.5,10c-5.3,3.6-10.7,7.5-16.6,16.1c-6,8.6-1.9,2-7.7,12.3
		c-5.8,10.4-10.5,19.9-10.5,19.9s-5.8,9.1-9.1,12.3c-7.7,7.7-12.8,15.5-25,15.5c-6.1,0-9.3-4.2-10.6-5.6c0,0-2.1-2.9,0.1-5
		c2.2-2.1,4.8-2.9,3.9-8c-1-5.8-11.4-7-14.7-2.3c-2.2,3-2.6,4.8-2,9.5c0.3,2.4,1.7,6.1,5.9,8.9c4.3,2.7,9.1,5.2,17.3,5
		c16.3-0.3,33.8-7.2,43.6-20.8c5.5-7.7,7.5-11.2,11.5-18.7c3.9-7.5,7.2-13.5,9.7-17.8c2.5-4.3,7-11.4,11.6-17.3
		c4.6-5.9,7.5-8.9,13.5-11.4c6-2.6,14.7-3.8,14.7-3.8s4.6,0,4.6-0.8C357.4,1.2,352.6,1,352.6,1L352.6,1z"/>
	<path class="st0" d="M269.6,53.8c0,0-5.5,0.5-10-1.5c-4.5-2-6.8-3.5-9.4-8c-8.4-14.6,8.3-29.1,20.7-33.4
		c15.7-5.5,30.6-8.8,47.3-9.5C329.3,0.9,344.6,2,344.6,2l10.6,0.6c0,0-29,0.8-34.5,1.3c-5.5,0.5-15.1,1.4-23.5,3.8
		c-8.4,2.4-20.3,7.3-24.1,10c-6.4,4.6-16.8,17.6-9.4,26.6c2.1,2.6,4.5,3.2,6.8,3.5c2.3,0.4,7-0.6,9.3-2.3c5.6-4.1,7.2-8.4,7.8-15
		c0.3-2.7-0.7-6.6-0.7-6.6s2-0.8,2.9,3.8c0.5,2.8-0.1,5.6-0.6,8.4C287.5,46.1,278.8,51.7,269.6,53.8L269.6,53.8z"/>
	<path class="st1" d="M492.3,75.4c-1.1,1.3-1.9,2.7-2.9,3.9c-3.9,5.1-5.1,8.1-5.1,9.2c0,5,6.1,1.3,8.3-0.2c3.1-2.1,6.3-5.1,10.6-9.1
		c2-2.2,3.1-3.8,5.1-6c2-2.2,3-3.8,3.4-3.8c0.3,0,0.2,0,0.4,0.1c0.5,0.2-0.7,2.2-2.9,4.9c-2,2.4-4.4,5.2-7.7,8.3
		c-4.1,3.7-7.1,6.1-10.1,8.3c-2.8,2-5.6,2.6-7.8,2.6c-1.7,0-3.1-0.5-4.2-1.4c-1-1-1.5-2.3-1.5-3.9c0-1.4,0.1-3.2,1.2-5.2
		c0.7-2,2.6-5.3,6.4-10c2.1-2.6,4-4.7,5.1-6.3c1-1.5,0.8-2,0.8-3.1c0-3.6-6.5,0-8.3,1.2c-4.3,3-8.9,8.1-13.7,13.7
		c-2.5,2.9-7.7,10.2-10.2,9.3c-3-1.1,6.8-9.8,15.3-17.8c1.3-1.2,4.2-4.3,7.4-6.6c2.5-1.8,4.2-3.4,7.9-3.7
		C501.4,59.1,496.6,70,492.3,75.4L492.3,75.4z"/>
	<path class="st0" d="M480.3,60.1h-9.9l-18.3,31.4h8.8C461,91.5,465.5,80.6,480.3,60.1L480.3,60.1z"/>
</g>
</svg>
