<?xml version="1.0" encoding="utf-8"?>
<!-- Generator: $$$/GeneralStr/196=Adobe Illustrator 27.6.0, SVG Export Plug-In . SVG Version: 6.00 Build 0)  -->
<svg version="1.1" id="Capa_1" xmlns="http://www.w3.org/2000/svg" xmlns:xlink="http://www.w3.org/1999/xlink" x="0px" y="0px"
	 viewBox="0 0 250 100" style="enable-background:new 0 0 250 100;" xml:space="preserve">
<style type="text/css">
	.st0{fill:#777777;}
</style>
<g id="Layer_2">
</g>
<g>
	<path class="st0" d="M121.7,61.7h3.3v0.5h-2.8v1.6h2.5v0.5h-2.5v1.6h2.9v0.5h-3.4L121.7,61.7z"/>
	<path class="st0" d="M126.4,65.6l0.3-0.4c0.4,0.4,1,0.7,1.6,0.6c0.6,0,1-0.3,1-0.8l0,0c0-0.4-0.2-0.7-1.2-0.9
		c-1-0.2-1.5-0.6-1.5-1.3l0,0c0-0.7,0.7-1.3,1.4-1.3c0,0,0,0,0,0h0.1c0.6,0,1.2,0.2,1.6,0.6l-0.3,0.4c-0.4-0.3-0.8-0.5-1.3-0.5
		c-0.6,0-1,0.3-1,0.7l0,0c0,0.4,0.2,0.7,1.2,0.9c1,0.2,1.5,0.6,1.5,1.3l0,0c0,0.8-0.7,1.3-1.6,1.3C127.6,66.3,126.9,66,126.4,65.6z"
		/>
	<path class="st0" d="M132.6,62.1h-1.5v-0.5h3.6v0.5h-1.5v4.1h-0.5L132.6,62.1z"/>
	<path class="st0" d="M135.2,65.5h0.6v0.7h-0.6V65.5z"/>
	<path class="st0" d="M140.2,61.7h0.5v4.1h2.6v0.5h-3.1V61.7z"/>
	<path class="st0" d="M144.3,64L144.3,64c0-1.3,1-2.3,2.3-2.4c0,0,0,0,0,0h0.1c1.3,0,2.3,1,2.3,2.3c0,0,0,0,0,0v0.1l0,0
		c0,1.3-1,2.3-2.3,2.3C145.3,66.3,144.3,65.2,144.3,64L144.3,64L144.3,64z M148.4,64L148.4,64c0-1-0.7-1.8-1.7-1.9c0,0,0,0,0,0h-0.1
		c-1,0-1.8,0.8-1.8,1.8l0,0v0.1l0,0c0,1,0.7,1.8,1.7,1.9c0,0,0,0,0,0h0.1C147.6,65.8,148.4,65,148.4,64
		C148.4,64.1,148.4,64.1,148.4,64L148.4,64L148.4,64z"/>
	<path class="st0" d="M150.7,61.7h0.5l2.9,3.7v-3.7h0.5v4.6h-0.4l-3-3.7v3.7h-0.5L150.7,61.7z"/>
	<path class="st0" d="M156.7,61.7h1.6c1.3-0.1,2.3,0.8,2.5,2.1c0,0,0,0,0,0c0,0.1,0,0.1,0,0.2l0,0c0,1.3-1,2.3-2.3,2.3h-1.8V61.7z
		 M157.2,62.1v3.6h1.1c1,0.1,1.8-0.7,1.9-1.6V64l0,0c0-1-0.8-1.8-1.7-1.8c0,0,0,0,0,0L157.2,62.1L157.2,62.1z"/>
	<path class="st0" d="M162.2,64L162.2,64c0-1.3,1-2.3,2.3-2.4c0,0,0,0,0,0h0.1c1.3,0,2.3,1,2.3,2.3c0,0,0,0,0,0v0.1l0,0
		c0,1.3-1,2.3-2.3,2.3C163.3,66.3,162.2,65.2,162.2,64L162.2,64L162.2,64z M166.3,64L166.3,64c0-1-0.7-1.8-1.7-1.9c0,0,0,0,0,0h-0.1
		c-1,0-1.8,0.8-1.8,1.8c0,0,0,0,0,0v0.1l0,0c0,1,0.8,1.8,1.8,1.8S166.3,64.9,166.3,64L166.3,64L166.3,64z"/>
	<path class="st0" d="M168.6,61.7h0.5l2.9,3.7v-3.7h0.5v4.6h-0.4l-2.9-3.7v3.7h-0.5L168.6,61.7z"/>
	<path class="st0" d="M177.6,62.2l-0.8,0.3l-0.1-0.4l1.1-0.4h0.4v4.6h-0.5L177.6,62.2z"/>
	<path class="st0" d="M179.9,65L179.9,65c0-0.5,0.4-1,0.9-1.1c-0.5-0.1-0.8-0.6-0.8-1l0,0c0.3-0.9,1.2-1.3,2-1.1
		c0.5,0.2,0.9,0.6,1.1,1.1l0,0c0,0.5-0.4,0.9-0.8,1c0.5,0.1,0.9,0.6,0.9,1.1l0,0c0,0.8-0.7,1.3-1.7,1.3S179.9,65.8,179.9,65z
		 M182.8,65L182.8,65c0-0.5-0.5-0.9-1.2-0.9s-1.2,0.4-1.2,0.9l0,0c0,0.4,0.4,0.8,1.2,0.8C182.4,65.8,182.8,65.5,182.8,65z
		 M182.7,62.9L182.7,62.9c-0.1-0.5-0.5-0.9-1-0.8c-0.6,0-1,0.3-1,0.8l0,0c0.1,0.6,0.7,0.9,1.3,0.8C182.3,63.6,182.6,63.3,182.7,62.9
		z"/>
	<path class="st0" d="M187.3,62.1h-2.5v-0.5h3.1V62l-2.1,4.2h-0.6L187.3,62.1z"/>
	<path class="st0" d="M189.1,64L189.1,64c0-1.3,0.8-2.4,1.9-2.4c1.2,0,1.9,1.1,1.9,2.3l0,0c0,1.3-0.8,2.4-1.9,2.4
		S189.1,65.2,189.1,64z M192.4,64L192.4,64c0-1-0.5-1.9-1.4-1.9c-0.8,0-1.4,0.9-1.4,1.9l0,0c0,1,0.5,1.9,1.4,1.9S192.4,65,192.4,64z
		"/>
	<path class="st0" d="M79.4,46.2c-1.6,0.4-3.2,0.6-4.9,0.5v3.2c-0.1,0.6,0,1.3,0.3,1.9c0.5,0.6,1.2,0.9,1.9,0.8v0.2h-6.5v-0.2
		c0.6,0,1.2-0.3,1.7-0.7c0.3-0.7,0.4-1.5,0.3-2.2v-8.1c0-0.9,0-2.1-0.3-2.5c-0.5-0.4-1.1-0.6-1.7-0.6v-0.2c0.5,0,4.3,0,5.7,0
		c1.5-0.1,2.9,0.1,4.3,0.8c1.3,0.7,2.1,2,2,3.5C82.2,44.2,81.1,45.8,79.4,46.2z M77.9,39c-0.7-0.3-1.4-0.4-2.2-0.4
		c-0.3,0-0.7,0-1,0.1c-0.1,0.5-0.2,1-0.2,1.5c-0.1,1.9,0,5.8,0,6.2c1,0,1.9-0.1,2.9-0.3c1.6-0.5,2.7-2,2.6-3.7
		C80.1,40.9,79.3,39.6,77.9,39z"/>
	<path class="st0" d="M97.2,52.8H85v-0.2c0.6-0.1,1.2-0.3,1.6-0.8c0.3-0.7,0.4-1.4,0.4-2.2v-8.1c0-0.9,0-2.1-0.3-2.5
		c-0.4-0.4-1-0.6-1.5-0.6v-0.2h11.1l1.4,3.3l-0.2,0.1c-0.8-1.1-1.9-2.1-3.1-2.8c-1.1-0.3-2.3-0.5-3.5-0.4c-0.5,0-1,0-1.5,0.1
		c0,0.4-0.1,1.9-0.1,3.7v2.9c0.8,0,1.7,0,2.5-0.2c1.6-0.4,2-1.3,2.3-2.8h0.2v6.3H94c-0.2-0.9-0.6-1.7-1.2-2.3
		c-0.5-0.4-1.2-0.7-1.8-0.7h-1.8c0,0.4,0,1.2,0,1.9v2.4c0,0.7,0.1,1.4,0.3,2.1c0.2,0.4,1.3,0.5,2.3,0.5c0.7,0,1.3,0,2-0.1
		c1.7-0.2,2.9-1.2,4.2-3.5l0.2,0.1L97.2,52.8z"/>
	<path class="st0" d="M114.8,39.8c-0.2,0.9-0.3,1.9-0.3,2.8c0,1.1-0.1,2.8-0.1,4.6v5.5c0,0.1-0.1,0.2-0.2,0.2c0,0,0,0,0,0l0,0
		c-0.1,0-0.3-0.1-0.4-0.2c-4.6-5.2-7.3-8.6-10.9-12.6v8.5c-0.1,1,0,2.1,0.3,3.1c0.3,0.6,0.9,0.9,2,1v0.2h-4.9v-0.2
		c0.7,0,1.3-0.4,1.7-0.9c0.4-0.6,0.4-1.7,0.5-3.2c0-1.1,0.1-2.8,0.1-4.6v-3.4c-0.1-1.1-1-2-2.1-2v-0.2h4.1l9.5,11.1v-6.9
		c0-0.9,0-1.8-0.2-2.7c-0.3-0.7-0.9-1.2-2.2-1.4v-0.2h5v0.2C115.9,38.5,115.1,39,114.8,39.8z"/>
	<path class="st0" d="M129.1,52.8v-0.2c0.7,0,1.4-0.3,1.9-0.7c0.1-0.5,0.2-1.1,0.2-1.6v-4.5h-7.9V50c-0.1,0.6,0,1.3,0.2,1.9
		c0.4,0.4,1,0.7,1.6,0.7v0.2h-5.9v-0.2c0.6-0.1,1.2-0.3,1.6-0.7c0.2-0.7,0.3-1.4,0.3-2.2v-8.1c0-0.9,0-2-0.3-2.3
		c-0.4-0.4-1-0.7-1.6-0.7v-0.2h5.9v0.2c-0.8,0.1-1.8,0.4-1.8,1.6c-0.1,1.9,0,4.6,0,5.1h7.9v-4.4c0-0.5-0.1-1-0.2-1.5
		c-0.4-0.6-1.1-0.9-1.7-0.8v-0.2h6v0.2c-0.7,0-1.3,0.4-1.6,0.9c-0.2,0.7-0.3,1.5-0.2,2.2v8.4c-0.1,0.6,0,1.2,0.2,1.7
		c0.4,0.5,1,0.8,1.6,0.8v0.2L129.1,52.8z"/>
	<path class="st0" d="M146.2,52.8v-0.2c0.2,0,1.4-0.2,1.4-0.9c-0.4-1.5-0.8-3-1.4-4.4h-5.3c-0.4,1-0.8,1.9-1.1,2.8
		c-0.2,0.5-0.4,1-0.4,1.5c0,0.7,1,0.9,1.6,1v0.2h-4.3v-0.2c0.5-0.1,1-0.3,1.4-0.6c0.5-0.7,0.9-1.4,1.3-2.2c1.1-2.5,2.9-6.6,4.1-9.6
		l-0.2-0.4c0.7-0.4,1.4-0.9,1.8-1.6h0.2l4.3,11.2c0.3,0.8,0.5,1.3,0.8,2c0.4,0.7,1.1,1.2,1.9,1.2v0.2L146.2,52.8z M143.6,40.6
		c-0.3,0.7-1.3,3.1-2.6,6.2h5C145.1,44.4,144.1,41.8,143.6,40.6z"/>
	<path class="st0" d="M166.4,52.8h-12.9v-0.2c0.7-0.1,1.3-0.4,1.8-0.8c0.3-0.7,0.4-1.4,0.4-2.2c0-0.7,0-2.7,0-4.2v-3.9
		c0-0.9,0-1.9-0.3-2.3c-0.5-0.5-1.1-0.7-1.7-0.8v-0.2h6.4v0.2c-0.7,0.1-2.1,0.3-2.1,1.8c-0.1,1.9-0.1,3-0.1,4.9v4.6
		c-0.1,0.7,0,1.4,0.3,2.1c0.2,0.3,1.4,0.5,2.5,0.5c1,0,2-0.1,2.9-0.3c2.1-0.6,2.7-2,3.4-3.6l0.2,0.1L166.4,52.8z"/>
	<path class="st0" d="M167.9,52.8v-0.2c0.6-0.1,1.2-0.4,1.6-0.8c0.3-0.7,0.3-1.4,0.3-2.2c0-0.7,0-2.7,0-4.2v-3.9c0-0.9,0-2-0.3-2.3
		c-0.4-0.4-1-0.7-1.6-0.7v-0.2h6v0.2c-0.7,0-1.3,0.3-1.6,0.9c-0.2,0.6-0.3,1.2-0.2,1.8v8.7c-0.1,0.6,0,1.3,0.2,1.9
		c0.5,0.5,1.1,0.7,1.7,0.7v0.2H167.9z"/>
	<path class="st0" d="M190.4,46.7c-0.2,0.5-0.2,1.1-0.2,1.6v2.9c-1.7,1-3.7,1.6-5.7,1.7c-5.1,0-8.1-2.8-8.1-7.4c0-2,0.8-4,2.3-5.4
		c1.6-1.5,3.6-2.2,5.8-2.1c1.8,0,3.5,0.4,5,1.3c0.2-0.3,0.5-0.5,0.7-0.8h0.2V43h-0.2c-0.3-1.1-0.9-2.2-1.6-3c-1-1-2.4-1.6-3.9-1.5
		c-3.6,0-5.7,3.4-5.7,7.2c0,4.2,2.1,7,5.6,7c1.2,0.1,2.4-0.4,3.1-1.4c0.3-0.7,0.4-1.5,0.3-2.3c0.1-0.8-0.1-1.5-0.5-2.2
		c-0.4-0.4-1-0.6-1.6-0.6V46h5.9v0.1C191.3,46.1,190.8,46.3,190.4,46.7z"/>
	<path class="st0" d="M201.9,52.9c-4.1,0.1-7.4-3.2-7.5-7.2c0,0,0,0,0,0v-0.1c0-4.6,3.6-7.4,7.8-7.4c3.9-0.1,7.2,3,7.3,6.9
		c0,0,0,0,0,0c0,0.1,0,0.3,0,0.4C209.4,49.6,206.1,52.9,201.9,52.9C201.9,52.9,201.9,52.9,201.9,52.9z M201.9,38.4
		c-3.5,0-5,3.7-5,7.1c0,3.6,1.7,7,5.1,7c3.4,0,5-3.8,5-7.1C207,42.1,205.3,38.4,201.9,38.4L201.9,38.4z"/>
	<path class="st0" d="M225.4,39.8c-0.2,0.9-0.3,1.9-0.3,2.8c0,1.1-0.1,2.8-0.1,4.6v5.5c0,0.1-0.1,0.2-0.2,0.2l0,0
		c-0.1,0-0.3-0.1-0.4-0.2c-4.6-5.2-7.2-8.6-10.9-12.6v8.5c-0.1,1,0,2.1,0.3,3.1c0.3,0.6,0.9,0.9,2,1v0.2h-4.9v-0.2
		c0.7,0,1.3-0.3,1.7-0.9c0.4-0.6,0.4-1.7,0.5-3.2c0-1.1,0.1-2.8,0.1-4.6v-3.4c-0.1-1.1-1-2-2.1-2v-0.2h4.1l9.5,11.1v-6.9
		c0.1-0.9,0-1.8-0.2-2.7c-0.3-0.7-0.9-1.2-2.2-1.4v-0.2h4.9v0.2C226.4,38.5,225.7,39,225.4,39.8z"/>
	<path class="st0" d="M229.7,42.1v-0.2c0.9-0.2,1.5-0.6,1.5-1.4c0-0.2,0-0.4-0.1-0.6c-0.2,0.2-0.5,0.2-0.8,0.2
		c-0.5,0-0.8-0.4-0.8-0.8c0-0.6,0.6-1.1,1.2-1l0,0c0.9,0,1.6,0.7,1.5,1.6c0,0,0,0,0,0v0.1C232.1,41.2,231,42.2,229.7,42.1z"/>
	<path class="st0" d="M239.2,53c-1.3,0-2.7-0.3-3.8-0.9c-0.2,0.2-0.5,0.4-0.6,0.7h-0.2l-0.1-4h0.2c0.4,1.3,1.3,2.5,2.5,3.3
		c0.6,0.3,1.3,0.5,2,0.5c2,0,3.3-1.2,3.3-3c0-1.5-1-2.2-2.3-2.6c-1.3-0.5-1.7-0.6-3-1c-1.5-0.6-2.5-2-2.6-3.6c0-2.9,2.3-4.2,4.8-4.2
		c1.2-0.1,2.4,0.3,3.5,1c0.2-0.2,0.5-0.4,0.6-0.7h0.2v3.7h-0.2c-0.7-1.8-2-3.6-4.1-3.6c-1.5-0.1-2.8,1-3,2.5c0,0.1,0,0.2,0,0.3
		c0,1.4,1,2.2,2.3,2.7c1.1,0.4,1.8,0.6,2.9,1c1.7,0.5,2.9,2.1,2.9,3.8C244.4,51.4,242.2,53,239.2,53z"/>
	<path class="st0" d="M13.3,58.3h0.8c0.2,0,0.3,0.1,0.5,0.2c0.1,0.1,0.1,0.2,0.1,0.3l0,0c0,0.2-0.1,0.4-0.3,0.4
		c0.2,0.1,0.4,0.2,0.4,0.4l0,0c0,0.3-0.3,0.5-0.7,0.5h-0.8L13.3,58.3z M14.5,58.8c0-0.2-0.1-0.3-0.4-0.3h-0.6v0.7h0.5
		C14.4,59.1,14.5,59,14.5,58.8L14.5,58.8z M14.1,59.3h-0.6V60h0.6c0.3,0,0.4-0.1,0.4-0.3l0,0C14.6,59.4,14.5,59.3,14.1,59.3
		L14.1,59.3z"/>
	<path class="st0" d="M16.3,58.8h0.2l-0.6,1.4c-0.1,0.3-0.3,0.4-0.5,0.4c-0.1,0-0.2,0-0.3-0.1l0.1-0.2c0.1,0,0.1,0,0.2,0
		c0.1,0,0.2-0.1,0.3-0.3l-0.6-1.4h0.2l0.5,1.1L16.3,58.8z"/>
	<path class="st0" d="M17.7,59.8L17.7,59.8c0-0.3,0.2-0.4,0.6-0.4c0.1,0,0.3,0,0.4,0.1v-0.1c0-0.2-0.2-0.4-0.4-0.4
		c-0.1,0-0.3,0-0.4,0.1l-0.1-0.2c0.2-0.1,0.3-0.1,0.5-0.1c0.2,0,0.3,0,0.4,0.1c0.1,0.1,0.1,0.3,0.1,0.4v0.8h-0.1v-0.2
		c-0.1,0.2-0.3,0.2-0.5,0.2C18,60.2,17.7,60,17.7,59.8C17.7,59.8,17.7,59.8,17.7,59.8L17.7,59.8z M18.7,59.6v-0.1
		c-0.1,0-0.3-0.1-0.4-0.1c-0.3,0-0.4,0.1-0.4,0.3l0,0c0,0.2,0.2,0.3,0.4,0.3C18.5,60,18.7,59.9,18.7,59.6L18.7,59.6z"/>
	<path class="st0" d="M19.4,58.8h0.2v0.3c0.1-0.2,0.3-0.3,0.5-0.3c0.4,0,0.7,0.3,0.7,0.7c0,0,0,0,0,0l0,0c0,0.4-0.2,0.7-0.6,0.7
		c0,0,0,0,0,0h-0.1c-0.2,0-0.4-0.1-0.5-0.3v0.7h-0.2V58.8z M20.6,59.4L20.6,59.4c0-0.3-0.2-0.5-0.4-0.5l0,0c-0.3,0-0.5,0.2-0.6,0.4
		c0,0,0,0.1,0,0.1l0,0l0,0c0,0.3,0.2,0.5,0.5,0.5l0,0C20.3,60,20.5,59.7,20.6,59.4L20.6,59.4L20.6,59.4L20.6,59.4z"/>
	<path class="st0" d="M21.2,58.8h0.2v0.3c0.1-0.2,0.3-0.3,0.5-0.3c0.4,0,0.7,0.3,0.7,0.7v0l0,0c0,0.4-0.2,0.7-0.6,0.7h-0.1
		c-0.2,0-0.4-0.1-0.5-0.3v0.7h-0.2V58.8z M22.4,59.4L22.4,59.4c0-0.3-0.2-0.5-0.5-0.5c0,0,0,0,0,0l0,0c-0.3,0-0.5,0.2-0.5,0.5
		c0,0,0,0,0,0l0,0c0,0.3,0.2,0.5,0.5,0.5l0,0C22.1,60,22.4,59.7,22.4,59.4L22.4,59.4L22.4,59.4z"/>
	<path class="st0" d="M23,59.5L23,59.5c0-0.4,0.3-0.7,0.7-0.7c0.4,0,0.7,0.3,0.7,0.7l0,0c0,0.4-0.3,0.7-0.7,0.7c0,0,0,0,0,0l0,0
		C23.3,60.2,23,59.9,23,59.5C23,59.5,23,59.5,23,59.5L23,59.5z M24.2,59.5L24.2,59.5c0-0.3-0.2-0.5-0.5-0.5c0,0,0,0,0,0l0,0
		c-0.3,0-0.5,0.2-0.5,0.5l0,0l0,0c0,0.3,0.2,0.5,0.5,0.5l0,0C23.9,60,24.2,59.8,24.2,59.5C24.2,59.5,24.2,59.5,24.2,59.5L24.2,59.5
		L24.2,59.5z"/>
	<path class="st0" d="M24.8,58.3H25v0.2h-0.2L24.8,58.3z M24.8,58.8H25v1.4h-0.2V58.8z"/>
	<path class="st0" d="M25.6,58.8h0.2V59c0.1-0.3,0.5-0.4,0.7-0.2c0.2,0.1,0.3,0.3,0.3,0.5v0.8h-0.2v-0.8c0-0.2-0.1-0.4-0.3-0.4
		c0,0,0,0,0,0h-0.1c-0.2,0-0.4,0.2-0.4,0.4c0,0,0,0,0,0v0.8h-0.2V58.8z"/>
	<path class="st0" d="M27.4,59.8V59h-0.2v-0.2h0.2v-0.4h0.2v0.4H28V59h-0.4v0.8c0,0.2,0.1,0.2,0.2,0.2c0.1,0,0.1,0,0.2,0v0.2
		c-0.1,0-0.2,0.1-0.3,0.1c-0.2,0-0.4-0.1-0.4-0.3L27.4,59.8z"/>
	<path class="st0" d="M28.4,58.8h0.2V59c0.1-0.2,0.3-0.3,0.4-0.3c0.2,0,0.4,0.1,0.4,0.3c0.1-0.2,0.3-0.3,0.5-0.3
		c0.3,0,0.5,0.2,0.5,0.5c0,0,0,0,0,0v0.9h-0.2v-0.8c0-0.3-0.1-0.4-0.4-0.4c-0.2,0-0.4,0.2-0.4,0.4v0.8h-0.2v-0.8
		c0-0.3-0.1-0.4-0.4-0.4c-0.2,0-0.4,0.2-0.4,0.4c0,0,0,0,0,0v0.8h-0.2L28.4,58.8z"/>
	<path class="st0" d="M30.9,59.5L30.9,59.5c0-0.4,0.2-0.7,0.6-0.7h0.1c0.4,0,0.7,0.3,0.7,0.7c0,0,0,0,0,0.1v0.1h-1.1
		c0,0.3,0.2,0.5,0.5,0.5c0.2,0,0.3-0.1,0.4-0.2l0.1,0.1c-0.1,0.2-0.3,0.3-0.6,0.3C31.3,60.2,30.9,59.9,30.9,59.5
		C30.9,59.6,30.9,59.6,30.9,59.5C30.9,59.5,30.9,59.5,30.9,59.5z M32,59.4c0-0.2-0.2-0.5-0.4-0.5l0,0c-0.2,0-0.4,0.2-0.4,0.5H32z"/>
	<path class="st0" d="M32.6,58.8h0.2V59c0.1-0.3,0.5-0.4,0.7-0.2c0.2,0.1,0.3,0.2,0.3,0.4v0.9h-0.2v-0.8c0-0.2-0.1-0.4-0.3-0.4
		c0,0,0,0,0,0h-0.1c-0.2,0-0.4,0.2-0.4,0.4c0,0,0,0,0,0v0.8h-0.2L32.6,58.8z"/>
	<path class="st0" d="M34.4,59.8V59h-0.2v-0.2h0.2v-0.4h0.2v0.4h0.4V59h-0.4v0.8c0,0.2,0.1,0.2,0.2,0.2c0.1,0,0.1,0,0.2,0v0.2
		c-0.1,0-0.2,0.1-0.2,0.1c-0.2,0-0.4-0.1-0.4-0.3C34.4,59.9,34.4,59.8,34.4,59.8z"/>
	<path class="st0" d="M36.4,59.8V59h-0.2v-0.2h0.2v-0.4h0.2v0.4h0.4V59h-0.4v0.8c0,0.1,0.1,0.2,0.2,0.2c0,0,0,0,0,0h0.1
		c0.1,0,0.1,0,0.2,0v0.2c-0.1,0-0.2,0.1-0.2,0.1c-0.2,0-0.4-0.1-0.4-0.3V59.8z"/>
	<path class="st0" d="M37.4,59.5L37.4,59.5c0-0.4,0.4-0.7,0.8-0.6c0.3,0,0.6,0.3,0.6,0.6l0,0c0,0.4-0.3,0.7-0.7,0.7l0,0
		C37.7,60.2,37.4,59.9,37.4,59.5L37.4,59.5z M38.6,59.5L38.6,59.5c0-0.3-0.2-0.5-0.5-0.5c0,0,0,0,0,0l0,0c-0.3,0-0.5,0.2-0.5,0.5
		l0,0l0,0c0,0.3,0.2,0.5,0.5,0.5l0,0C38.4,60,38.6,59.8,38.6,59.5L38.6,59.5z"/>
	<path class="st0" d="M9.1,61.6h0.2v0.8h1.1v-0.8h0.2v1.9h-0.2v-0.8H9.4v0.8H9.1L9.1,61.6z"/>
	<path class="st0" d="M11.2,61.6H12c0.2,0,0.4,0.1,0.5,0.2c0.1,0.1,0.1,0.2,0.1,0.4l0,0c0,0.3-0.2,0.5-0.5,0.5l0.6,0.8h-0.3L12,62.7
		h-0.5v0.7h-0.2L11.2,61.6z M12,62.6c0.3,0,0.5-0.1,0.5-0.4l0,0c0-0.2-0.2-0.4-0.5-0.4h-0.6v0.8L12,62.6z"/>
	<path class="st0" d="M13.2,61.6h0.2v0.8h1.1v-0.8h0.2v1.9h-0.2v-0.8h-1.1v0.8h-0.2V61.6z"/>
	<path class="st0" d="M16.6,61.8H16v-0.2h1.5v0.2h-0.6v1.6h-0.2L16.6,61.8z"/>
	<path class="st0" d="M17.9,61.5h0.2v0.8c0.1-0.3,0.5-0.3,0.7-0.2c0,0,0,0,0,0c0.2,0.1,0.3,0.3,0.3,0.5v0.8h-0.2v-0.7
		c0-0.2-0.1-0.4-0.3-0.4h-0.1c-0.2,0-0.4,0.2-0.4,0.4v0.8h-0.2V61.5z"/>
	<path class="st0" d="M19.5,62.8L19.5,62.8c0-0.4,0.2-0.7,0.6-0.7h0c0.4,0,0.7,0.3,0.7,0.7v0.1h-1.1c0,0.3,0.2,0.5,0.5,0.5
		c0.2,0,0.3-0.1,0.4-0.2l0.1,0.1c-0.1,0.2-0.3,0.3-0.6,0.3c-0.4,0-0.7-0.2-0.7-0.6V62.8z M20.6,62.7c0-0.2-0.2-0.5-0.4-0.5l0,0
		c-0.3,0-0.4,0.2-0.4,0.5H20.6z"/>
	<path class="st0" d="M22.1,61.6h0.7c0.4,0,0.7,0.2,0.7,0.6l0,0c0,0.4-0.3,0.6-0.7,0.6h-0.4v0.7h-0.2L22.1,61.6z M22.8,62.6
		c0.3,0,0.5-0.2,0.5-0.4l0,0c0-0.3-0.2-0.4-0.5-0.4h-0.5v0.8H22.8z"/>
	<path class="st0" d="M23.9,62.1h0.2v0.4c0.1-0.2,0.3-0.4,0.6-0.4v0.2l0,0c-0.3,0-0.6,0.3-0.5,0.6c0,0,0,0,0,0c0,0,0,0,0,0.1v0.5
		h-0.2V62.1z"/>
	<path class="st0" d="M25,61.6h0.2v0.2H25V61.6z M25,62.1h0.2v1.4h-0.2L25,62.1z"/>
	<path class="st0" d="M25.8,62.1H26v0.2c0.1-0.2,0.3-0.3,0.5-0.3c0.3,0,0.5,0.2,0.5,0.5c0,0,0,0,0,0.1v0.8h-0.2v-0.7
		c0-0.2-0.1-0.4-0.3-0.4c0,0,0,0,0,0h-0.1c-0.2,0-0.4,0.2-0.4,0.4l0,0v0.8h-0.2L25.8,62.1z"/>
	<path class="st0" d="M27.4,62.8L27.4,62.8c0-0.4,0.3-0.7,0.7-0.7c0,0,0,0,0,0l0,0c0.2,0,0.4,0.1,0.5,0.2l-0.1,0.1
		c-0.1-0.1-0.2-0.2-0.4-0.2c-0.3,0-0.5,0.2-0.5,0.5l0,0c0,0.3,0.2,0.5,0.5,0.5l0,0c0.2,0,0.3-0.1,0.4-0.2l0.1,0.1
		c-0.3,0.3-0.7,0.3-1,0.1C27.5,63.2,27.4,63,27.4,62.8L27.4,62.8z"/>
	<path class="st0" d="M29,62.8L29,62.8c0-0.4,0.2-0.7,0.6-0.7h0c0.4,0,0.7,0.3,0.7,0.7v0.1h-1.1c0,0.3,0.2,0.5,0.5,0.5
		c0.2,0,0.3-0.1,0.4-0.2l0.1,0.1c-0.1,0.2-0.4,0.3-0.6,0.3c-0.4,0-0.7-0.2-0.7-0.6V62.8z M30.1,62.7c0-0.2-0.2-0.5-0.4-0.5
		c0,0,0,0,0,0c-0.3,0-0.4,0.2-0.4,0.5H30.1z"/>
	<path class="st0" d="M31.5,62.8L31.5,62.8c0-0.4,0.3-0.7,0.7-0.7c0.4,0,0.7,0.3,0.7,0.7c0,0,0,0,0,0l0,0c0,0.4-0.3,0.7-0.7,0.7l0,0
		C31.8,63.5,31.5,63.2,31.5,62.8L31.5,62.8z M32.7,62.8L32.7,62.8c0-0.3-0.2-0.5-0.5-0.5c0,0,0,0,0,0l0,0c-0.3,0-0.5,0.2-0.5,0.5
		l0,0c0,0.3,0.2,0.5,0.5,0.5l0,0C32.5,63.3,32.7,63.1,32.7,62.8L32.7,62.8z"/>
	<path class="st0" d="M33.4,62.3h-0.2v-0.2h0.2V62c0-0.1,0-0.3,0.1-0.4c0.1-0.1,0.2-0.1,0.3-0.1c0.1,0,0.1,0,0.2,0v0.2
		c-0.1,0-0.1,0-0.2,0c-0.2,0-0.2,0.1-0.2,0.3v0.1h0.4v0.2h-0.4v1.2h-0.2V62.3z"/>
	<path class="st0" d="M35.1,61.6h0.2l0.5,1.6l0.5-1.6h0.2l0.5,1.6l0.5-1.6h0.2l-0.7,1.9H37L36.5,62L36,63.5h-0.2L35.1,61.6z"/>
	<path class="st0" d="M38,63.1L38,63.1c0-0.3,0.2-0.4,0.6-0.4c0.1,0,0.3,0,0.4,0.1v-0.1c0-0.2-0.1-0.4-0.3-0.4c0,0-0.1,0-0.1,0
		c-0.1,0-0.3,0-0.4,0.1l-0.1-0.2c0.2-0.1,0.3-0.1,0.5-0.1c0.2,0,0.3,0,0.4,0.1c0.1,0.1,0.2,0.3,0.1,0.4v0.8H39v-0.2
		c-0.1,0.2-0.3,0.2-0.5,0.2C38.2,63.5,38,63.4,38,63.1L38,63.1z M39,63v-0.1c-0.1,0-0.3-0.1-0.4-0.1c-0.3,0-0.4,0.1-0.4,0.3l0,0
		c0,0.2,0.2,0.3,0.3,0.3C38.7,63.4,38.9,63.2,39,63L39,63z"/>
	<path class="st0" d="M39.7,61.5h0.2v1.9h-0.2V61.5z"/>
	<path class="st0" d="M40.4,62.8L40.4,62.8c0-0.4,0.2-0.7,0.6-0.7h0c0.4,0,0.7,0.3,0.7,0.7c0,0,0,0,0,0.1v0.1h-1.1
		c0,0.3,0.2,0.5,0.5,0.5c0.2,0,0.3-0.1,0.4-0.2l0.1,0.1c-0.1,0.2-0.3,0.3-0.6,0.3c-0.4,0-0.7-0.2-0.7-0.6c0,0,0,0,0,0
		C40.3,62.9,40.3,62.8,40.4,62.8z M41.4,62.7c0-0.2-0.2-0.5-0.4-0.5l0,0c-0.3,0-0.4,0.2-0.4,0.5H41.4z"/>
	<path class="st0" d="M42,63.3l0.1-0.1c0.1,0.1,0.3,0.2,0.5,0.2c0.2,0,0.3-0.1,0.3-0.2l0,0c0-0.1-0.2-0.2-0.3-0.2
		c-0.2-0.1-0.5-0.1-0.5-0.4l0,0c0-0.2,0.2-0.4,0.4-0.4c0,0,0,0,0,0l0,0c0.2,0,0.3,0.1,0.5,0.2l-0.1,0.2c-0.1-0.1-0.3-0.1-0.4-0.1
		c-0.2,0-0.3,0.1-0.3,0.2l0,0c0,0.1,0.2,0.2,0.4,0.2c0.2,0,0.4,0.1,0.4,0.4l0,0c0,0.3-0.2,0.4-0.5,0.4C42.3,63.5,42.1,63.4,42,63.3z
		"/>
	<path class="st0" d="M2.9,64.9h0.2l0.7,1l0.7-1h0.2v1.8H4.5v-1.5l-0.7,1l0,0l-0.7-1v1.5H2.9V64.9z"/>
	<path class="st0" d="M5.2,66.4L5.2,66.4c0-0.3,0.2-0.4,0.6-0.4c0.1,0,0.3,0,0.4,0.1v0c0-0.2-0.1-0.4-0.3-0.4c0,0,0,0-0.1,0
		c-0.1,0-0.3,0-0.4,0.1l-0.1-0.2c0.2-0.1,0.3-0.1,0.5-0.1c0.2,0,0.3,0,0.4,0.1c0.1,0.1,0.1,0.3,0.1,0.4v0.8H6.2v-0.2
		c-0.1,0.2-0.3,0.2-0.5,0.2C5.4,66.9,5.2,66.7,5.2,66.4C5.2,66.5,5.2,66.5,5.2,66.4L5.2,66.4z M6.2,66.3v-0.1
		c-0.1,0-0.3-0.1-0.4-0.1c-0.3,0-0.4,0.1-0.4,0.3l0,0c0,0.2,0.2,0.3,0.3,0.3C5.9,66.7,6.1,66.5,6.2,66.3L6.2,66.3z"/>
	<path class="st0" d="M6.9,65.4h0.2v0.2c0.1-0.3,0.5-0.3,0.7-0.2c0,0,0,0,0,0C8,65.6,8.1,65.8,8.1,66v0.8H7.9V66
		c0-0.2-0.1-0.4-0.3-0.4c0,0,0,0,0,0H7.5c-0.2,0-0.4,0.2-0.4,0.4c0,0,0,0,0,0l0,0v0.8H6.9V65.4z"/>
	<path class="st0" d="M8.5,66.3v-0.8h0.2v0.8c0,0.3,0.1,0.4,0.4,0.4c0.2,0,0.4-0.2,0.4-0.4c0,0,0,0,0,0v-0.8h0.2v1.3H9.5v-0.2
		c-0.1,0.2-0.3,0.3-0.5,0.3C8.8,66.8,8.6,66.6,8.5,66.3C8.5,66.3,8.6,66.3,8.5,66.3z"/>
	<path class="st0" d="M10.3,65.6h-0.2v-0.2h0.2v-0.1c0-0.1,0-0.3,0.1-0.4c0.1-0.1,0.2-0.1,0.3-0.1c0.1,0,0.1,0,0.2,0V65
		c-0.1,0-0.1,0-0.2,0c-0.2,0-0.2,0.1-0.2,0.3v0.1H11v0.2h-0.4v1.2h-0.2V65.6z"/>
	<path class="st0" d="M11.2,66.4L11.2,66.4c0-0.3,0.2-0.4,0.6-0.4c0.1,0,0.3,0,0.4,0l0,0c0-0.2-0.1-0.4-0.3-0.4c0,0,0,0-0.1,0
		c-0.1,0-0.3,0-0.4,0.1l-0.1-0.2c0.2-0.1,0.3-0.1,0.5-0.1c0.2,0,0.3,0,0.4,0.1c0.1,0.1,0.2,0.3,0.1,0.4v0.8h-0.2v-0.2
		c-0.1,0.2-0.3,0.2-0.5,0.2C11.4,66.9,11.2,66.7,11.2,66.4C11.2,66.5,11.2,66.5,11.2,66.4L11.2,66.4z M12.2,66.3v-0.1
		c-0.1,0-0.3-0.1-0.4-0.1c-0.2,0-0.4,0.1-0.4,0.3l0,0c0,0.2,0.2,0.3,0.3,0.3C11.9,66.7,12.2,66.5,12.2,66.3L12.2,66.3z"/>
	<path class="st0" d="M12.8,66.1L12.8,66.1c0-0.4,0.3-0.7,0.7-0.7c0,0,0,0,0,0l0,0c0.2,0,0.4,0.1,0.5,0.2l-0.1,0.1
		c-0.1-0.1-0.3-0.2-0.4-0.2c-0.3,0-0.5,0.2-0.5,0.5c0,0,0,0,0,0l0,0c0,0.3,0.2,0.5,0.5,0.5c0,0,0,0,0,0l0,0c0.2,0,0.3-0.1,0.4-0.2
		l0.1,0.1c-0.1,0.2-0.3,0.3-0.6,0.3C13.1,66.8,12.8,66.5,12.8,66.1L12.8,66.1L12.8,66.1z"/>
	<path class="st0" d="M14.5,66.4v-0.8h-0.2v-0.2h0.2V65h0.2v0.4h0.4v0.2h-0.4v0.8c0,0.2,0.1,0.2,0.2,0.2c0.1,0,0.1,0,0.2,0v0.1
		c-0.1,0-0.2,0.1-0.3,0.1c-0.2,0-0.4-0.1-0.4-0.3L14.5,66.4z"/>
	<path class="st0" d="M15.6,66.3v-0.8h0.2v0.8c0,0.3,0.1,0.4,0.4,0.4c0.2,0,0.4-0.2,0.4-0.4c0,0,0,0,0,0l0,0v-0.8h0.2v1.3h-0.2v-0.2
		c-0.1,0.2-0.3,0.3-0.5,0.3C15.8,66.8,15.6,66.6,15.6,66.3C15.6,66.3,15.6,66.3,15.6,66.3z"/>
	<path class="st0" d="M17.3,65.4h0.2v0.4c0.1-0.2,0.3-0.4,0.6-0.4v0.2l0,0c-0.3,0-0.5,0.3-0.5,0.6c0,0,0,0,0,0.1v0.5h-0.2L17.3,65.4
		z"/>
	<path class="st0" d="M18.3,66.1L18.3,66.1c0-0.4,0.2-0.7,0.6-0.7c0,0,0,0,0,0H19c0.4,0,0.7,0.3,0.7,0.7l0,0v0.1h-1.1
		c0,0.3,0.2,0.5,0.5,0.5c0.2,0,0.3-0.1,0.4-0.2l0.1,0.1c-0.1,0.2-0.3,0.3-0.6,0.3c-0.4,0-0.7-0.2-0.7-0.6
		C18.3,66.2,18.3,66.1,18.3,66.1z M19.4,66c0-0.2-0.2-0.5-0.4-0.5l0,0c-0.2,0-0.4,0.2-0.4,0.5H19.4z"/>
	<path class="st0" d="M20,65.4h0.2v0.4c0.1-0.2,0.3-0.4,0.6-0.4v0.2l0,0c-0.3,0-0.5,0.3-0.5,0.6c0,0,0,0,0,0.1v0.5H20L20,65.4z"/>
	<path class="st0" d="M21.1,66.6l0.1-0.1c0.1,0.1,0.3,0.2,0.5,0.2c0.2,0,0.3-0.1,0.3-0.2l0,0c0-0.1-0.2-0.2-0.3-0.2
		c-0.2-0.1-0.4-0.1-0.4-0.4l0,0c0-0.2,0.2-0.4,0.4-0.4c0,0,0,0,0,0l0,0c0.2,0,0.3,0.1,0.5,0.2L22,65.7c-0.1-0.1-0.3-0.1-0.4-0.1
		c-0.2,0-0.3,0.1-0.3,0.2l0,0c0,0.1,0.2,0.2,0.4,0.2c0.2,0,0.4,0.1,0.4,0.4l0,0c0,0.3-0.2,0.4-0.5,0.4
		C21.4,66.8,21.2,66.7,21.1,66.6z"/>
	<path class="st0" d="M23.3,66.1L23.3,66.1c0-0.4,0.4-0.7,0.8-0.6c0.3,0,0.6,0.3,0.6,0.6l0,0c0,0.4-0.3,0.7-0.7,0.7l0,0
		C23.7,66.8,23.3,66.5,23.3,66.1L23.3,66.1z M24.5,66.1L24.5,66.1c0-0.3-0.2-0.5-0.5-0.5c0,0,0,0,0,0l0,0c-0.3,0-0.5,0.2-0.5,0.5
		l0,0l0,0c0,0.3,0.2,0.5,0.5,0.5l0,0C24.3,66.6,24.5,66.4,24.5,66.1L24.5,66.1z"/>
	<path class="st0" d="M25.3,65.6h-0.2v-0.2h0.2v-0.1c0-0.1,0-0.3,0.1-0.4c0.1-0.1,0.2-0.1,0.3-0.1c0.1,0,0.2,0,0.2,0V65
		c-0.1,0-0.1,0-0.2,0c-0.2,0-0.2,0.1-0.2,0.3v0.1h0.4v0.2h-0.4v1.2h-0.2V65.6z"/>
	<path class="st0" d="M27.6,65.2H27V65h1.5v0.2h-0.6v1.6h-0.2L27.6,65.2z"/>
	<path class="st0" d="M28.5,66.1L28.5,66.1c0-0.4,0.2-0.7,0.6-0.8s0.7,0.2,0.8,0.6c0,0.1,0,0.1,0,0.2l0,0c0,0.4-0.2,0.7-0.6,0.8
		c-0.4,0-0.7-0.2-0.8-0.6C28.5,66.2,28.5,66.2,28.5,66.1z M29.7,66.1L29.7,66.1c0-0.3-0.2-0.5-0.5-0.5c0,0,0,0,0,0l0,0
		c-0.3,0-0.5,0.2-0.5,0.5l0,0c0,0.3,0.2,0.5,0.5,0.5l0,0C29.5,66.6,29.7,66.4,29.7,66.1L29.7,66.1z"/>
	<path class="st0" d="M30.3,64.9h0.2v0.3h-0.2V64.9z M30.3,65.4h0.2v1.4h-0.2V65.4z"/>
	<path class="st0" d="M31.1,64.9h0.2v1.9h-0.2V64.9z"/>
	<path class="st0" d="M31.8,66.1L31.8,66.1c0-0.4,0.2-0.7,0.6-0.7h0.1c0.4,0,0.7,0.3,0.7,0.7c0,0,0,0,0,0.1c0,0,0,0,0,0.1H32
		c0,0.3,0.2,0.5,0.5,0.5c0.2,0,0.3-0.1,0.4-0.2l0.1,0.1c-0.2,0.3-0.7,0.3-1,0.1C31.8,66.6,31.8,66.4,31.8,66.1L31.8,66.1z M32.9,66
		c0-0.2-0.2-0.5-0.4-0.5l0,0c-0.2,0-0.4,0.2-0.4,0.5H32.9z"/>
	<path class="st0" d="M33.6,66.4v-0.8h-0.2v-0.2h0.2V65h0.2v0.4h0.4v0.2h-0.4v0.8c0,0.2,0.1,0.2,0.2,0.2c0.1,0,0.1,0,0.2,0v0.1
		c-0.1,0-0.2,0.1-0.2,0.1c-0.2,0-0.4-0.1-0.4-0.3L33.6,66.4z"/>
	<path class="st0" d="M35.5,64.9h0.8c0.2,0,0.4,0.1,0.5,0.2c0.1,0.1,0.1,0.2,0.1,0.4l0,0c0,0.3-0.2,0.5-0.5,0.5l0.6,0.8h-0.3
		l-0.5-0.7h-0.6v0.7h-0.2L35.5,64.9z M36.4,65.9c0.3,0,0.5-0.1,0.5-0.4l0,0c0-0.2-0.2-0.4-0.5-0.4h-0.6v0.8L36.4,65.9z"/>
	<path class="st0" d="M37.4,66.1L37.4,66.1c0-0.4,0.2-0.7,0.6-0.7h0c0.4,0,0.7,0.3,0.7,0.7v0.1h-1.1c0,0.3,0.2,0.5,0.5,0.5
		c0.2,0,0.3-0.1,0.4-0.2l0.1,0.1c-0.1,0.2-0.3,0.3-0.6,0.3C37.7,66.8,37.4,66.6,37.4,66.1L37.4,66.1z M38.5,66
		c0-0.2-0.2-0.5-0.4-0.5l0,0c-0.3,0-0.4,0.2-0.4,0.5H38.5z"/>
	<path class="st0" d="M40.2,66.5c-0.1,0.2-0.3,0.3-0.5,0.3c-0.4,0-0.7-0.3-0.7-0.7c0,0,0,0,0,0v0l0,0c0-0.4,0.2-0.7,0.6-0.7h0.1
		c0.2,0,0.4,0.1,0.5,0.3v-0.3h0.2v1.8h-0.2V66.5z M40.2,66.1L40.2,66.1c0-0.3-0.2-0.5-0.5-0.5c0,0,0,0,0,0l0,0
		c-0.3,0-0.5,0.2-0.5,0.5l0,0l0,0l0,0c0,0.3,0.2,0.5,0.5,0.5c0,0,0,0,0,0l0,0C40,66.6,40.2,66.4,40.2,66.1L40.2,66.1L40.2,66.1z"/>
	<path class="st0" d="M40.9,66.3v-0.8h0.2v0.8c0,0.2,0.1,0.4,0.3,0.4c0,0,0,0,0,0h0.1c0.2,0,0.4-0.2,0.4-0.4c0,0,0,0,0,0v-0.8h0.2
		v1.3h-0.2v-0.2c-0.1,0.2-0.3,0.3-0.5,0.3C41.2,66.8,40.9,66.6,40.9,66.3L40.9,66.3z"/>
	<path class="st0" d="M42.6,64.9h0.2v0.3h-0.2V64.9z M42.6,65.4h0.2v1.4h-0.2V65.4z"/>
	<path class="st0" d="M43.3,66.6l0.1-0.1c0.1,0.1,0.3,0.2,0.5,0.2c0.2,0,0.3-0.1,0.3-0.2l0,0c0-0.1-0.2-0.2-0.3-0.2
		c-0.2-0.1-0.5-0.1-0.5-0.4l0,0c0-0.2,0.2-0.4,0.4-0.4c0,0,0,0,0,0l0,0c0.2,0,0.3,0.1,0.5,0.2l-0.1,0.2c-0.1-0.1-0.3-0.1-0.4-0.1
		c-0.2,0-0.3,0.1-0.3,0.2l0,0c0,0.1,0.2,0.2,0.4,0.2c0.2,0,0.4,0.1,0.4,0.4l0,0c0,0.3-0.2,0.4-0.5,0.4
		C43.6,66.8,43.4,66.7,43.3,66.6z"/>
	<path class="st0" d="M44.8,64.9H45v0.3h-0.2V64.9z M44.8,65.4H45v1.4h-0.2V65.4z"/>
	<path class="st0" d="M45.6,66.4v-0.8h-0.2v-0.2h0.2V65h0.2v0.4h0.5v0.2h-0.4v0.8c0,0.2,0.1,0.2,0.2,0.2c0.1,0,0.1,0,0.2,0v0.1
		c-0.1,0-0.2,0.1-0.2,0.1c-0.2,0-0.4-0.1-0.4-0.3C45.6,66.5,45.6,66.5,45.6,66.4z"/>
	<path class="st0" d="M46.6,66.1L46.6,66.1c0-0.4,0.2-0.7,0.6-0.7h0c0.4,0,0.7,0.3,0.7,0.7c0,0,0,0,0,0.1v0.1h-1.1
		c0,0.3,0.2,0.5,0.5,0.5c0.2,0,0.3-0.1,0.4-0.2l0.1,0.1c-0.1,0.2-0.3,0.3-0.6,0.3c-0.4,0-0.7-0.2-0.7-0.6V66.1z M47.7,66
		c0-0.2-0.2-0.5-0.4-0.5l0,0c-0.3,0-0.4,0.2-0.4,0.5H47.7z"/>
	<path class="st0" d="M48.2,66.6l0.1-0.1c0.1,0.1,0.3,0.2,0.5,0.2c0.2,0,0.3-0.1,0.3-0.2l0,0c0-0.1-0.2-0.2-0.3-0.2
		c-0.2-0.1-0.4-0.1-0.4-0.4l0,0c0-0.2,0.2-0.4,0.4-0.4c0,0,0,0,0,0l0,0c0.2,0,0.3,0.1,0.5,0.2l-0.1,0.2c-0.1-0.1-0.3-0.1-0.4-0.1
		c-0.2,0-0.3,0.1-0.3,0.2l0,0c0,0.1,0.2,0.2,0.4,0.2c0.2,0,0.4,0.1,0.4,0.4l0,0c0,0.3-0.2,0.4-0.5,0.4
		C48.5,66.8,48.3,66.7,48.2,66.6z"/>
	<path class="st0" d="M6.8,68.2h0.7c0.4,0,0.7,0.2,0.7,0.6h0c0,0.4-0.3,0.6-0.7,0.6H6.9v0.7H6.7L6.8,68.2z M7.4,69.2
		c0.3,0,0.5-0.2,0.5-0.4l0,0c0-0.3-0.2-0.4-0.5-0.4H7v0.8H7.4z"/>
	<path class="st0" d="M8.5,69.4L8.5,69.4c0-0.4,0.2-0.7,0.6-0.7c0,0,0,0,0,0h0.1c0.4,0,0.7,0.3,0.7,0.7l0,0v0.1H8.7
		c0,0.3,0.2,0.5,0.5,0.5c0.2,0,0.3-0.1,0.4-0.2l0.1,0.1c-0.1,0.2-0.3,0.3-0.6,0.3c-0.4,0-0.7-0.2-0.7-0.6
		C8.5,69.5,8.5,69.5,8.5,69.4z M9.6,69.4c0-0.2-0.2-0.5-0.4-0.5l0,0c-0.2,0-0.4,0.2-0.4,0.5H9.6z"/>
	<path class="st0" d="M10.2,68.7h0.2V69c0.1-0.2,0.3-0.3,0.5-0.3c0.3,0,0.5,0.2,0.5,0.5c0,0,0,0,0,0.1v0.8h-0.2v-0.8
		c0-0.2-0.1-0.4-0.3-0.4c0,0,0,0,0,0h-0.1c-0.2,0-0.4,0.2-0.4,0.4c0,0,0,0,0,0v0.8h-0.2L10.2,68.7z"/>
	<path class="st0" d="M11.9,68.2h0.2V69c0.1-0.2,0.3-0.3,0.5-0.3c0.3,0,0.5,0.2,0.5,0.5c0,0,0,0,0,0v0.9h-0.2v-0.8
		c0-0.3-0.1-0.4-0.4-0.4c-0.2,0-0.4,0.2-0.4,0.4v0.8h-0.2L11.9,68.2z"/>
	<path class="st0" d="M13.5,69.7L13.5,69.7c0-0.3,0.2-0.4,0.6-0.4c0.1,0,0.3,0,0.4,0.1v-0.1c0-0.2-0.1-0.4-0.4-0.4
		c-0.1,0-0.3,0-0.4,0.1l-0.1-0.2c0.2-0.1,0.3-0.1,0.5-0.1c0.2,0,0.3,0,0.4,0.1c0.1,0.1,0.1,0.3,0.1,0.4v0.8h-0.2v-0.2
		c-0.1,0.2-0.3,0.2-0.5,0.2C13.8,70.2,13.5,70,13.5,69.7C13.5,69.7,13.5,69.7,13.5,69.7L13.5,69.7z M14.5,69.6v-0.1
		c-0.1,0-0.3-0.1-0.4-0.1c-0.3,0-0.4,0.1-0.4,0.3l0,0c0,0.2,0.1,0.3,0.3,0.3C14.3,70,14.5,69.8,14.5,69.6z"/>
	<path class="st0" d="M15.2,68.2h0.2v1.9h-0.2L15.2,68.2z"/>
	<path class="st0" d="M16,68.2h0.2v0.2H16V68.2z M16,68.7h0.2v1.4H16V68.7z"/>
	<path class="st0" d="M16.7,70.3l0.1-0.2c0.1,0.1,0.3,0.2,0.5,0.2c0.2,0,0.5-0.1,0.5-0.4c0,0,0,0,0,0c0,0,0-0.1,0-0.1v-0.2
		c-0.1,0.2-0.3,0.3-0.5,0.3c-0.4,0-0.7-0.3-0.7-0.7l0,0c0-0.4,0.3-0.6,0.7-0.6c0,0,0,0,0,0c0.2,0,0.4,0.1,0.5,0.2v-0.2H18v1.1
		c0,0.2,0,0.4-0.2,0.5c-0.1,0.1-0.3,0.2-0.5,0.2C17.1,70.5,16.9,70.5,16.7,70.3z M17.8,69.4L17.8,69.4c0-0.3-0.2-0.5-0.5-0.5
		c0,0,0,0,0,0l0,0c-0.3,0-0.5,0.2-0.5,0.4l0,0l0,0c0,0.3,0.2,0.5,0.5,0.5l0,0C17.6,69.8,17.8,69.6,17.8,69.4
		C17.8,69.3,17.8,69.3,17.8,69.4L17.8,69.4z"/>
	<path class="st0" d="M18.5,69.4L18.5,69.4c0-0.4,0.4-0.7,0.8-0.6c0.3,0,0.6,0.3,0.6,0.6l0,0c0,0.4-0.3,0.7-0.7,0.7l0,0
		C18.8,70.1,18.5,69.8,18.5,69.4L18.5,69.4z M19.7,69.4L19.7,69.4c0-0.3-0.2-0.5-0.5-0.5c0,0,0,0,0,0l0,0c-0.3,0-0.5,0.2-0.5,0.5
		l0,0l0,0c0,0.3,0.2,0.5,0.5,0.5c0,0,0,0,0,0l0,0C19.4,70,19.7,69.7,19.7,69.4L19.7,69.4L19.7,69.4z"/>
	<path class="st0" d="M20.4,68.7h0.2V69c0.1-0.2,0.3-0.3,0.5-0.3c0.3,0,0.5,0.2,0.5,0.5c0,0,0,0,0,0.1v0.8h-0.2v-0.8
		c0-0.2-0.1-0.4-0.3-0.4c0,0,0,0,0,0H21c-0.2,0-0.4,0.2-0.4,0.4c0,0,0,0,0,0v0.8h-0.2V68.7z"/>
	<path class="st0" d="M22,68.8c0.1,0,0.2-0.1,0.2-0.2h-0.1v-0.3h0.2v0.2C22.3,68.7,22.2,68.8,22,68.8L22,68.8L22,68.8z"/>
	<path class="st0" d="M22.6,69.9l0.1-0.1c0.1,0.1,0.3,0.2,0.5,0.2c0.2,0,0.3-0.1,0.3-0.2l0,0c0-0.1-0.2-0.2-0.4-0.2
		c-0.2-0.1-0.4-0.1-0.4-0.4l0,0c0-0.2,0.2-0.4,0.4-0.4c0,0,0,0,0,0l0,0c0.2,0,0.3,0.1,0.5,0.2L23.5,69c-0.1-0.1-0.3-0.1-0.4-0.1
		c-0.2,0-0.3,0.1-0.3,0.2l0,0c0,0.1,0.2,0.2,0.4,0.2s0.4,0.1,0.4,0.4l0,0c0,0.3-0.2,0.4-0.5,0.4C22.9,70.1,22.7,70,22.6,69.9z"/>
	<path class="st0" d="M25,68.2h0.2v1.6h1v0.2H25V68.2z"/>
	<path class="st0" d="M26.7,68.2h0.2v0.2h-0.2V68.2z M26.7,68.7h0.2v1.4h-0.2L26.7,68.7z"/>
	<path class="st0" d="M27.4,68.7h0.2V69c0.1-0.2,0.3-0.3,0.4-0.3c0.2,0,0.4,0.1,0.4,0.3c0.1-0.2,0.3-0.3,0.5-0.3
		c0.3,0,0.5,0.2,0.5,0.5c0,0,0,0,0,0c0,0,0,0.1,0,0.1v0.8h-0.2v-0.8c0-0.3-0.1-0.4-0.4-0.4c-0.2,0-0.4,0.2-0.4,0.4c0,0,0,0,0,0v0.8
		h-0.2v-0.8c0-0.3-0.1-0.4-0.4-0.4c-0.2,0-0.4,0.2-0.4,0.4c0,0,0,0,0,0v0.8h-0.2V68.7z"/>
	<path class="st0" d="M30,68.2h0.2v0.2H30V68.2z M30,68.7h0.2v1.4H30V68.7z"/>
	<path class="st0" d="M30.8,69.8v-0.8h-0.2v-0.2h0.2v-0.4h0.2v0.4h0.4v0.2h-0.4v0.8c0,0.2,0.1,0.2,0.2,0.2c0.1,0,0.1,0,0.2,0v0.1
		c-0.1,0-0.2,0.1-0.2,0.1C31,70.1,30.9,70,30.8,69.8C30.9,69.8,30.8,69.8,30.8,69.8L30.8,69.8z"/>
	<path class="st0" d="M31.8,69.4L31.8,69.4c0-0.4,0.2-0.7,0.6-0.7h0.1c0.4,0,0.7,0.3,0.7,0.7c0,0,0,0,0,0v0.1H32
		c0,0.3,0.2,0.5,0.5,0.5c0.2,0,0.3-0.1,0.4-0.2l0.1,0.1c-0.1,0.2-0.4,0.3-0.6,0.3C32.1,70.2,31.8,69.9,31.8,69.4L31.8,69.4z
		 M32.9,69.4c0-0.2-0.2-0.5-0.4-0.5c0,0,0,0,0,0c-0.3,0-0.4,0.2-0.4,0.5H32.9z"/>
	<path class="st0" d="M33.4,69.4L33.4,69.4c0-0.4,0.2-0.7,0.6-0.7h0.1c0.2,0,0.4,0.1,0.5,0.3v-0.8h0.2v1.9h-0.2v-0.3
		c-0.1,0.2-0.3,0.3-0.5,0.3C33.7,70.2,33.4,69.9,33.4,69.4C33.4,69.5,33.4,69.5,33.4,69.4L33.4,69.4z M34.6,69.4L34.6,69.4
		c0-0.3-0.2-0.5-0.5-0.5l0,0c-0.3,0-0.5,0.2-0.5,0.5c0,0,0,0,0,0l0,0c0,0.3,0.2,0.5,0.4,0.5c0,0,0,0,0,0l0,0
		C34.4,70,34.6,69.7,34.6,69.4L34.6,69.4L34.6,69.4z"/>
	<path class="st0" d="M36.2,68.2h0.2v1.6h1.1v0.2h-1.3V68.2z"/>
	<path class="st0" d="M37.8,69.4L37.8,69.4c0-0.4,0.2-0.7,0.6-0.8c0.4,0,0.7,0.2,0.8,0.6c0,0.1,0,0.1,0,0.2l0,0
		c0,0.4-0.2,0.7-0.6,0.8s-0.7-0.2-0.8-0.6C37.8,69.5,37.8,69.5,37.8,69.4z M39,69.4L39,69.4c0-0.3-0.2-0.5-0.5-0.5c0,0,0,0,0,0l0,0
		c-0.3,0-0.5,0.2-0.5,0.5l0,0c0,0.3,0.2,0.5,0.5,0.5l0,0C38.8,70,39,69.7,39,69.4L39,69.4z"/>
	<path class="st0" d="M39.7,68.7h0.2V69c0.1-0.2,0.3-0.3,0.5-0.3c0.3,0,0.5,0.2,0.5,0.5c0,0,0,0,0,0.1v0.8h-0.2v-0.8
		c0-0.3-0.1-0.4-0.4-0.4c-0.2,0-0.4,0.2-0.4,0.4c0,0,0,0,0,0v0.8h-0.2L39.7,68.7z"/>
	<path class="st0" d="M41.3,69.4L41.3,69.4c0-0.4,0.2-0.7,0.6-0.7h0c0.2,0,0.4,0.1,0.5,0.3v-0.8h0.2v1.9h-0.2v-0.3
		c-0.1,0.2-0.3,0.3-0.5,0.3C41.6,70.2,41.3,69.9,41.3,69.4C41.3,69.5,41.3,69.5,41.3,69.4L41.3,69.4z M42.5,69.4L42.5,69.4
		c0-0.3-0.2-0.5-0.5-0.5c0,0,0,0,0,0l0,0c-0.3,0-0.5,0.2-0.5,0.5c0,0,0,0,0,0v0l0,0c0,0.3,0.2,0.5,0.4,0.5c0,0,0,0,0,0l0,0
		C42.3,70,42.5,69.7,42.5,69.4L42.5,69.4L42.5,69.4z"/>
	<path class="st0" d="M43.1,69.4L43.1,69.4c0-0.4,0.4-0.7,0.8-0.6c0.3,0,0.6,0.3,0.6,0.6l0,0c0,0.4-0.3,0.7-0.7,0.7c0,0,0,0,0,0l0,0
		C43.5,70.1,43.1,69.8,43.1,69.4L43.1,69.4z M44.4,69.4L44.4,69.4c0-0.3-0.2-0.5-0.5-0.5c0,0,0,0,0,0l0,0c-0.3,0-0.5,0.2-0.5,0.5
		c0,0,0,0,0,0l0,0l0,0c0,0.3,0.2,0.5,0.5,0.5c0,0,0,0,0,0l0,0C44.1,69.9,44.3,69.7,44.4,69.4L44.4,69.4z"/>
	<path class="st0" d="M45,68.7h0.2V69c0.1-0.3,0.5-0.4,0.7-0.2c0.2,0.1,0.3,0.3,0.3,0.5v0.8H46v-0.8c0-0.2-0.1-0.4-0.3-0.4
		c0,0,0,0,0,0h-0.1c-0.2,0-0.4,0.2-0.4,0.4c0,0,0,0,0,0v0.8H45V68.7z"/>
	<path class="st0" d="M23.7,50.4c0.1,0.3,0.4,0.4,0.6,0.7c0,0.2,0.4,0.4,0.2,0.7c0,0.1-0.2,0.2-0.3,0.2c-0.6-0.3-1.2-0.6-1.7-1.1
		c-0.2-0.1-0.4-0.3-0.7-0.4c-0.3-0.4-0.8-0.5-1.3-0.7c-0.3-0.1-0.7-0.2-1-0.1c-0.2,0-0.4,0.1-0.5,0.3c-0.1,0.5-0.3,1-0.5,1.5
		c-0.2,0.3-0.4,0.7-0.1,1.1c0.2,0.2,0.5,0.4,0.8,0.4c-0.1,0-0.3,0-0.4-0.2c-0.3-0.2-0.5-0.6-0.4-0.9c0.2-0.3,0.6-0.2,0.9-0.2
		c0.9,0,1.5,0.9,2.2,1.2c0.5,0.5,1.2,0.8,1.9,1c0.3-0.3,0.5-0.7,0.8-1.1c0.2-0.3,0.4-0.6,0.7-0.8c0-0.6-0.5-1-0.9-1.4
		C23.8,50.5,23.8,50.3,23.7,50.4z M19.5,51.3c-0.1,0.2-0.3,0-0.5,0c-0.2-0.2,0.1-0.4,0.2-0.6c0.1-0.3,0.1-0.6,0.1-0.9
		c0.2-0.1,0.4,0,0.5,0l0.1,0.1C19.8,50.4,19.7,50.8,19.5,51.3L19.5,51.3z M21.4,50.8c-0.2-0.1-0.3-0.1-0.5,0
		c-0.2,0.1-0.3,0.3-0.3,0.6c0,0.2,0.1,0.3,0.2,0.4c0.2,0.2,0.6,0,0.7,0.3c-0.5,0.2-1.1,0-1.3-0.6c-0.1-0.2-0.1-0.5,0-0.8
		c0.2-0.3,0.5-0.4,0.8-0.4c0.5,0.1,0.9,0.4,1.2,0.8c0,0.1-0.1,0.2-0.2,0.3C21.7,51.2,21.7,50.9,21.4,50.8L21.4,50.8z M23.2,53.5
		c-0.1,0-0.2,0-0.4,0c-0.5-0.3,0.5-0.7-0.1-0.9c-0.1-0.1-0.3-0.1-0.4,0c-0.1,0.2-0.1,0.4-0.3,0.5c-0.2-0.1-0.3-0.2-0.4-0.3
		c0.4-0.4,0.7-0.8,0.9-1.3c0.1,0,0.3,0.1,0.3,0.3v0.1c-0.1,0.2-0.3,0.3-0.2,0.5c0.1,0.1,0.3,0.2,0.5,0.2c0.1-0.2,0.1-0.4,0.3-0.5
		c0.1,0.2,0.5,0.2,0.4,0.5C23.5,52.7,23.3,53,23.2,53.5L23.2,53.5z"/>
	<path class="st0" d="M24.1,51.3l-0.4-0.4c-0.1,0-0.2-0.1-0.2-0.1c-0.1,0.1-0.1,0.2-0.1,0.4c0.2,0.2,0.4,0.3,0.6,0.4
		C24.1,51.5,24.1,51.4,24.1,51.3z"/>
	<path class="st0" d="M25.8,51.8c0.2-0.1,0.1-0.3,0.1-0.4c-0.1-0.4-0.6-0.3-0.8-0.6c0,0.5,0,1.1,0,1.6c0.1,0.4,0.4,0.7,0.7,0.9
		c0.2-0.2,0-0.5,0-0.7C26,52.4,25.9,52.1,25.8,51.8z"/>
	<path class="st0" d="M26.1,51.9c0,0.2,0,0.4,0,0.6c0.1,0.3-0.1,0.5,0,0.8v2c0,0.4,0,0.8,0.1,1.2c0.1-0.4,0.1-0.8,0.1-1.1l0.1-7
		l-0.1-1c-0.1,0.1,0,0.3-0.1,0.4c0,0.4,0,0.9,0,1.3c0.1,0.2-0.1,0.5,0,0.7c-0.1,0.2,0.1,0.4,0,0.6C26.1,50.9,26.1,51.4,26.1,51.9z"
		/>
	<path class="st0" d="M25,48.3c-0.1,0.1-0.1,0.3,0,0.4c0,0.6,0,1.2,0.1,1.8c0.3,0.1,0.5,0.3,0.7,0.6c0.2-0.1,0-0.3,0-0.5
		s-0.2-0.3-0.2-0.4c0-0.1,0.1-0.1,0.2-0.1c0.1-0.2,0-0.5-0.1-0.7c0.3-0.2,0.1-0.7,0.2-1l-0.2-0.5c0.1,0,0.2-0.1,0.2-0.2
		c0,0,0-0.1,0-0.1c-0.2-0.3-0.4-0.6-0.8-0.5c-0.2,0.1-0.1,0.3-0.1,0.5c0.1,0.2,0.2,0.4,0.4,0.5c0.1,0.2,0.4,0.3,0.3,0.5
		C25.5,48.7,25.3,48.4,25,48.3z"/>
	<path class="st0" d="M21.1,53.6c-0.1,0.3-0.2,0.6-0.4,0.8c0,0.2-0.3,0.3-0.2,0.5c0.3-0.4,0.6-0.9,0.8-1.3
		C21.3,53.3,21.1,53.5,21.1,53.6z"/>
	<path class="st0" d="M19.2,51.9c-0.1,0-0.2,0-0.2,0.2c-0.1,0.1-0.1,0.3,0,0.4c0.1,0.1,0.3,0.2,0.5,0.2c0.1-0.1,0.2-0.3,0.2-0.4
		C19.6,51.9,19.3,51.9,19.2,51.9z"/>
	<path class="st0" d="M23.7,48.7c-0.4-0.3,0.2-0.4,0.2-0.7c0.1-0.1,0-0.2-0.1-0.3c0,0,0,0,0,0h0c0-0.1,0.1-0.2,0.1-0.2l0-0.1
		c-0.2,0-0.5,0.1-0.7,0.2c-0.1,0.6-0.2,1.2-0.2,1.7C23.3,49.1,23.7,49.1,23.7,48.7z"/>
	<path class="st0" d="M30.5,41.8c0.2,0,0.1-0.2,0.3-0.4c0.2-0.6,0.5-1.1,0.9-1.6c0-0.1,0.2-0.2,0-0.3c-0.2-0.1-0.2,0.2-0.3,0.2
		c-0.4,0.6-0.7,1.2-1,1.8C30.4,41.6,30.4,41.8,30.5,41.8z"/>
	<path class="st0" d="M20.4,46.7c-0.1,0-0.1,0-0.2,0C20,46.7,20,46.9,20,47C20.1,46.9,20.2,46.8,20.4,46.7z"/>
	<path class="st0" d="M20.8,37.2c-0.2,0.4,0,0.7-0.1,1.1c-0.1,0.4,0.1,0.5,0.2,0.8c0.1,0.2,0.4,0.7,0.7,1c0.2,0.6,0.5,1.1,0.7,1.6
		c0.3,0.3,0.5,0.6,0.5,1c0.1,0,0.2,0,0.3-0.1c0.1-0.1,0.7-0.1,0.7-0.4c0-0.1,0-0.4-0.2-0.4c-0.2,0-0.1-0.1-0.1-0.2
		c0.1-0.2,0-0.5-0.1-0.7c-0.2,0.4-0.2,0.8-0.6,1.2c-0.3-0.3,0-0.7,0-1.1s0.5-0.8,0.2-1.2c-0.5,0.1-0.1-0.6-0.4-0.8
		c-0.1,0-0.2,0.2-0.3,0c0.1-0.3,0-0.6-0.1-0.9c-0.1,0-0.2,0-0.3,0c-0.2-0.2,0-0.7-0.3-0.8l-0.1,1.1c0,0.3-0.1,0.5-0.2,0.8
		c-0.3-0.2-0.2-0.7-0.2-1.1c0-0.4,0-0.9,0.1-1.3c0-0.2,0.1-0.4,0-0.7c-0.2,0-0.1,0.3-0.3,0.4c-0.3-0.3-0.1-0.8-0.4-1.1v0.3
		C20.8,36.2,20.9,36.7,20.8,37.2z"/>
	<path class="st0" d="M29.9,44c0.1-0.5,0.7-0.8,0.6-1.4c0-0.1,0-0.4-0.3-0.4c-0.3,0.1-0.4,0.4-0.5,0.7c0,0.4,0,0.8,0,1.2L29.9,44z"
		/>
	<path class="st0" d="M24.4,50c-0.1,0-0.2,0.1-0.2,0.2c0,0.1,0.1,0,0.3,0C24.6,50,24.4,50.1,24.4,50z"/>
	<path class="st0" d="M22.1,49.8c0.1-0.3,0.1-0.6,0-0.9c0-0.1,0.1-0.1,0.2-0.1c0.1-0.1,0-0.4,0-0.5c0-0.1,0.2-0.1,0.2-0.3
		s-0.3-0.1-0.5-0.1c-0.2,0-0.3,0.2-0.3,0.4c0,0.4,0.4,0.7,0.5,1c-0.2,0.1-0.3-0.2-0.5-0.3c-0.1,0.2-0.2,0.6,0,0.8
		C21.8,50.2,21.8,49.8,22.1,49.8z"/>
	<path class="st0" d="M23.9,49.9c0.2,0,0.3,0,0.5,0c0.1-0.1,0.2-0.1,0.3-0.2v-1.1c-0.1-0.2-0.3-0.1-0.4,0L24,49.5
		C23.9,49.6,23.8,49.8,23.9,49.9z"/>
	<path class="st0" d="M26.7,52c-0.1,0.4-0.1,0.8,0,1.2c0.2-0.2,0.5-0.4,0.5-0.7c-0.4-0.2,0.1-0.5,0-0.8c-0.5-0.1,0.1-0.5,0-0.7
		c-0.2,0-0.3,0.2-0.4,0.2c-0.2,0-0.1-0.2-0.1-0.3c0.2-0.2,0.5-0.3,0.5-0.6c0-0.1,0-0.2-0.1-0.2c-0.2-0.1,0.1-0.3,0.1-0.5
		s0.1-0.4-0.1-0.3c0-0.3,0.2-0.4,0.2-0.7c-0.2,0-0.4,0.3-0.6,0.2c-0.1-0.5,0.8-0.4,0.7-1c0,0-0.1,0-0.2-0.1c0-0.1,0.1-0.2,0.1-0.3
		c0-0.1,0-0.2-0.1-0.2c-0.2,0.1-0.3,0.1-0.5,0c-0.1,0-0.1,0.1-0.1,0.2C26.7,48.9,26.6,50.4,26.7,52z"/>
	<path class="st0" d="M22.7,50.7c0.1,0.1,0.2,0.2,0.3,0.1c-0.1-0.3,0.3-0.4,0.3-0.7c-0.2-0.2,0.2-0.3,0.2-0.5c0,0,0.1-0.2,0-0.2
		c-0.2,0.1-0.4,0.2-0.5,0.2c-0.2,0.1-0.2,0.3-0.3,0.5C22.6,50.2,22.6,50.5,22.7,50.7z"/>
	<path class="st0" d="M22.7,48.9c0-0.3,0.1-0.6,0-0.8c0,0.8-0.3,1.4-0.3,2.1C22.5,49.7,22.6,49.3,22.7,48.9z"/>
	<path class="st0" d="M28.3,50c0.1,0,0.1,0,0.1-0.1c0,0,0,0,0,0l0,0c0-0.3-0.1-0.7-0.3-1c0-0.1-0.1-0.3-0.3-0.3
		c-0.2,0,0,0.1-0.1,0.2c0,0.4,0,0.8,0,1.1C27.9,50,28.1,50,28.3,50z"/>
	<path class="st0" d="M30,50.3c0-0.2-0.1-0.5-0.1-0.7c0-0.5-0.2-1.1-0.3-1.6c0-0.1,0-0.3-0.1-0.2c0.1,0.7,0.2,1.4,0.4,2.1
		C29.9,50.1,29.9,50.3,30,50.3z"/>
	<path class="st0" d="M32.2,46.7c-0.1,0-0.3-0.1-0.5-0.1c-0.1,0.1-0.2,0-0.2,0.2c0,0.1,0.1,0.2,0.2,0.3C31.8,46.9,32,46.8,32.2,46.7
		z"/>
	<path class="st0" d="M31,53.4c0.2,0.5,0.5,1,0.8,1.4c0-0.3-0.2-0.5-0.3-0.7C31.3,53.9,31.3,53.5,31,53.4z"/>
	<path class="st0" d="M30.3,50c0.2,0.2,0.3,0,0.5-0.1s-0.1-0.2-0.1-0.3c0-0.1,0.1-0.3,0-0.4s-0.1,0-0.2,0.1s-0.2,0.1-0.2,0
		c-0.1-0.3,0.4-0.5,0.3-0.8c-0.1-0.1-0.2-0.3-0.1-0.5c0.1-0.2-0.2-0.1-0.3-0.1s-0.3-0.2-0.2,0c0,0.4,0.1,0.7,0.1,1.1
		C30.1,49.4,30.2,49.7,30.3,50z"/>
	<path class="st0" d="M33.4,52c-0.1-0.2-0.3-0.2-0.5-0.2c-0.2,0-0.3,0.1-0.4,0.2c0,0.1,0,0.3,0.2,0.4c0.2,0.1,0.4,0.1,0.6-0.1
		C33.4,52.3,33.4,52.1,33.4,52z"/>
	<path class="st0" d="M33.2,45.2c0.1-0.1,0.2-0.2,0.1-0.3c-0.1-0.1-0.2-0.1-0.3,0c-0.2-0.2-0.4-0.5-0.5-0.8
		c-0.2,0.4-0.4,0.7-0.6,1.1c0.3-0.1,0.6-0.1,0.9-0.1C32.9,45.2,33,45.3,33.2,45.2z"/>
	<path class="st0" d="M33.8,44.2c-0.1-0.2-0.3-0.3-0.5-0.4v0.8C33.6,44.7,33.6,44.4,33.8,44.2z"/>
	<path class="st0" d="M18.9,44L18.9,44c-0.2,0-0.4,0.1-0.4,0.3c0.1,0.2,0.2,0.3,0.3,0.4C19,44.4,18.8,44.2,18.9,44z"/>
	<path class="st0" d="M28.4,52.8c0.1,0.3,0.3,0.5,0.4,0.7c0,0.1,0.1,0.2,0.3,0.2c0,0,0,0,0,0h0c0.8-0.3,1.5-0.8,2.2-1.3
		c0.6-0.5,1.4-0.9,2.2-1c0.2,0,0.3,0.1,0.3,0.3c0,0.2,0,0.5-0.2,0.7c-0.2,0.2-0.4,0.1-0.4,0.4l0.5-0.3c0.2-0.2,0.3-0.5,0.3-0.8
		c-0.3-0.5-0.5-1-0.6-1.5c0-0.2,0-0.5-0.2-0.7l-0.2,0c-0.8,0-1.6,0.2-2.2,0.7c-0.6,0.4-1.1,0.8-1.6,1.2c-0.4,0.3-0.8,0.5-1.2,0.7
		c-0.2-0.1-0.2-0.3-0.1-0.4c0.1-0.4,0.6-0.7,0.8-1.1c-0.2,0.1-0.3,0.3-0.5,0.4c-0.2,0.4-0.6,0.7-0.4,1.2
		C28,52.3,28.2,52.6,28.4,52.8z M31.7,50c0.4-0.1,0.7,0.3,1,0.4c0.1-0.2,0-0.4-0.1-0.5c-0.1-0.1,0.1-0.1,0.1-0.2
		c0,0,0.2,0.1,0.4,0.1c0,0.3,0.1,0.7,0.3,1c0,0.1,0,0.3-0.1,0.3c-0.3-0.1-0.6-0.3-0.9-0.4c-0.2,0.3,0.5,0.5,0.1,0.8
		c-0.1,0.1-0.2,0-0.3,0c-0.1-0.2-0.1-0.4-0.2-0.6c-0.1-0.2-0.3-0.4-0.4-0.6C31.6,50.1,31.7,50,31.7,50L31.7,50z M30.5,50.7l0.8-0.4
		l0.1,0.1c0,0.2-0.2,0.1-0.3,0.2S31,50.7,31,50.8c0.1,0.1,0.2,0.1,0.3,0.1c0.1,0,0.1-0.2,0.3-0.1c0.1,0.1,0.1,0.2,0,0.3
		c-0.1,0-0.2,0.1-0.3,0.2c0,0.2,0.1,0.2,0.2,0.3c0.3,0.2,0.4-0.6,0.6-0.1v0.2L31.4,52c-0.2,0-0.2-0.3-0.3-0.4
		c-0.1-0.3-0.4-0.5-0.6-0.7C30.4,50.9,30.5,50.8,30.5,50.7L30.5,50.7z M29.7,51.2c0.2,0,0.3-0.3,0.5-0.2c0.2,0.1,0.1,0.4,0.3,0.5
		c0.1,0.2,0.3,0.4,0.5,0.6c0,0.2-0.2,0.2-0.4,0.3c-0.2-0.4-0.5-0.7-0.8-1C29.7,51.4,29.7,51.3,29.7,51.2L29.7,51.2z M28.3,52.2
		c0.4-0.2,0.8-0.6,1.3-0.4L30,52c0.2,0.3,0.2,0.7,0,1c-0.1,0.2-0.4,0.3-0.6,0.3c-0.1,0.1-0.3,0.2-0.4,0.1c-0.3-0.3-0.3-0.8-0.7-1.1
		C28.3,52.3,28.3,52.2,28.3,52.2L28.3,52.2z"/>
	<path class="st0" d="M29.7,52.8c0-0.2,0-0.4-0.1-0.5c-0.1-0.2-0.5-0.3-0.7-0.1c-0.2,0.2,0.3,0.5,0.5,0.9
		C29.6,52.9,29.7,52.9,29.7,52.8z"/>
	<path class="st0" d="M21.7,41.2c-0.2-0.4-0.4-0.9-0.7-1.3c-0.1-0.2-0.2-0.5-0.5-0.4c0.4,0.6,0.8,1.3,1.2,2L21.7,41.2z"/>
	<path class="st0" d="M28.2,51.4c0,0.1,0.1,0.2,0.2,0.2c0.2-0.2,0.6-0.2,0.5-0.5c0-0.1-0.1-0.2-0.2-0.2
		C28.5,50.9,28.3,51.1,28.2,51.4z"/>
	<path class="st0" d="M28.5,48.7c0.2,0.3,0.7,0.3,0.9,0.6c0-0.2-0.3-0.5-0.1-0.7c0-0.2,0-0.3-0.1-0.4c-0.3-0.2,0.2-0.3,0.1-0.5
		l-0.1-0.1c-0.2-0.1-0.4-0.1-0.7-0.1c-0.1,0.1,0,0.3,0,0.4C28.4,48.1,28.5,48.4,28.5,48.7z"/>
	<path class="st0" d="M27.8,50.2c0.1,0.1,0.2,0.2,0.3,0C28.1,50.2,28,50.1,27.8,50.2z"/>
	<path class="st0" d="M29.3,50.8c0.2,0,0.3-0.2,0.4-0.3c0.1-0.2-0.3-0.4-0.1-0.6c-0.1-0.4-0.6-0.5-0.9-0.7
		C28.8,49.8,29,50.3,29.3,50.8z"/>
	<path class="st0" d="M27.8,46.1L27.8,46.1C27.7,46.1,27.6,46.1,27.8,46.1z"/>
	<path class="st0" d="M28.8,45.7c0,0,0,0.1,0,0.1c0,0,0,0,0,0l0,0c0.2-0.1,0.3,0.1,0.4,0.1c0.1,0,0.3-0.1,0.2-0.2
		C29.4,45.5,29,45.6,28.8,45.7z"/>
	<path class="st0" d="M30.8,43.1l0.6-0.1c0.1-0.1,0.3-0.2,0.3-0.4h-0.1C31.3,42.7,31,42.9,30.8,43.1z"/>
	<path class="st0" d="M26.7,45.5c-0.2-0.2-0.4-0.3-0.7-0.4c-0.2,0.1-0.4,0.3-0.4,0.5c0.1,0.1,0.3,0.2,0.4,0.3v-0.4
		C26.2,45.4,26.5,45.5,26.7,45.5z"/>
	<path class="st0" d="M38.5,36.3c-0.5-0.7-1.3-1.1-2.1-1c-0.2-0.2-0.4-0.5-0.6-0.7c-0.5-0.4-1.2-0.7-1.8-0.8
		c-1.1-0.1-2.1,0.3-2.8,1.2c-0.6,0.7-1.1,1.4-1.6,2.2c-0.1-0.2,0-0.5,0-0.7c0.1-0.8,0.2-1.5,0.5-2.3l0.5-0.6
		c0.4-0.7,0.5-1.4,0.3-2.2c0.1-0.8-0.2-1.6-0.8-2.1c-0.5-0.4-1.1-0.6-1.8-0.5c-0.5,0-0.9,0.2-1.3,0.5c-0.3,0.2-0.6,0-0.9,0l-0.4,0
		L25,28.9l-0.8-0.2c-0.4,0-0.7,0-1.1,0.1c-0.8,0.2-1.4,0.9-1.6,1.7c-0.1,0.4,0,0.8-0.1,1.2c-0.1,1,0.2,2,1,2.6
		c0.3,0.8,0.2,1.6,0.6,2.5c0,0.2,0.2,0.4-0.2,0.5c-0.3-0.8-0.8-1.5-1.4-2.1c-0.7-0.9-1.7-1.4-2.8-1.3c-0.4,0-0.8,0.1-1.2,0.3
		c-0.3,0.1-0.5,0.4-0.8,0.5c-0.3,0.3-0.7,0.6-1.2,0.7c-0.8,0.1-1.4,0.5-1.8,1.2c-0.2,0.4-0.2,0.9-0.1,1.4l0.4,1.3
		c0.3,0.6,0.9,1.1,1.6,1.3c0.4,0.3,0.9,0.6,1.4,0.7c0.3,0.1,0.3,0.4,0.5,0.7c0.3,0.1,0.6,0.1,0.8,0c0.4,0,0.8-0.4,1.1,0
		c0.3,0.4,0.6,0.9,0.9,1.4c0,0.1,0,0.2,0,0.2c-0.2,0.1-0.4,0-0.6,0c-0.2-0.1-0.4-0.2-0.6-0.1c-0.4,0.3-0.9,0.4-1.1,0.8
		c0.2,0.5,0.5,0.8,0.7,1.3c0.3,0.4,0.6,0.8,0.9,1.2l0,0.7c0.1,0.2,0.2,0.3,0.4,0.4c0.3,0.1,0.2,0.5,0.4,0.8c0.2,0.2,0.6,0.2,0.7,0.5
		c-0.1,0.3-0.4,0.1-0.6,0.1c-0.3,0-0.5,0-0.8-0.1c-0.4,0.1-0.8,0-1,0.3c-0.1,0.5-0.2,1-0.3,1.4c-0.1,0.3-0.4,0.6-0.4,0.9
		c-0.1,0.6,0.2,1.1,0.7,1.4c0.4,0.2,0.8,0.3,1.2,0.2c0.4-0.1,0.3-0.7,0.7-0.6c0.2,0.1,0.3,0.2,0.3,0.3c0,0.5-0.5,0.9-0.7,1.4
		c-0.1,0.3-0.1,0.7-0.1,1.1c0,0.2,0.3,0.1,0.4,0.1c0.7-0.4,0.9-1.1,1.3-1.7l0.2-0.1l1.1,0.4c0.2,0.1,0.4,0.1,0.5,0.1
		c0.8,0,0.6-1,1.1-1.3c0.2-0.1,0.3,0.1,0.4,0.2c0.2,0.3,0.5,0.5,0.7,0.8v2.2c0,0.3,0.1,0.6,0.3,0.9c0.1,0.1,0.2,0.1,0.3,0
		c0.3-0.1,0.4-0.3,0.4-0.6c0.1-0.9,0.1-1.7,0.1-2.6c0.1-0.4,0.5-0.7,0.9-0.9c0.4,0.2,0.5,0.8,0.9,1.2c0.4,0.1,0.8-0.1,1.2-0.2
		c0.3-0.1,0.4-0.4,0.8-0.3c0.5,0.6,0.6,1.4,1.3,1.8c0.2,0.1,0.3,0,0.5,0c0.1-0.2,0.1-0.4,0.1-0.6c-0.2-0.7-0.6-1.2-0.8-1.9
		c0-0.2,0.2-0.3,0.3-0.4c0.4-0.2,0.4,0.4,0.7,0.6c0.2,0.1,0.4,0.1,0.6,0.1c0.3-0.1,0.7-0.2,0.9-0.4c0.4-0.3,0.5-0.8,0.4-1.3
		c-0.3-0.5-0.5-1-0.6-1.5c0-0.3-0.1-0.6-0.2-0.8c-0.6-0.2-1.2-0.2-1.8,0c-0.2,0-0.4,0.1-0.6,0c-0.2-0.5,0.5-0.5,0.7-0.8l0.2-0.5
		c0.2-0.2,0.7-0.2,0.6-0.7c0-0.5,0.1-0.9,0.4-1.2c0.1-0.2,0.4-0.2,0.5-0.5c0.1-0.3,0.2-0.6,0.4-0.9c0.1-0.2,0.3-0.3,0.2-0.5
		c-0.2-0.4-0.7-0.6-1-0.8c-0.2,0-0.3,0.1-0.5,0.2c-0.2,0-0.5,0.1-0.6-0.1c-0.1-0.2,0.2-0.4,0.3-0.7c0.4-0.3,0.4-0.9,1-1.1
		c0.5,0.2,1,0.3,1.5,0.3c0.2-0.1,0.2-0.4,0.3-0.5c0.5-0.5,1.4-0.5,1.9-1.2l0.6-0.3c0.6-0.3,1-0.9,1-1.5C38.7,37.7,39,36.9,38.5,36.3
		z M13.7,37.9c-0.1,0-0.1-0.2-0.2-0.3c0.1-0.4,0.2-0.8,0.3-1.2c0.3-0.2,0.5-0.6,0.8-0.7c0.3-0.3,0.8-0.4,1.2-0.2
		c0.1,0.3,0.1,0.7,0,1c0,0.3,0.1,0.5,0.1,0.8c-0.1,0-0.2-0.1-0.3-0.1s-0.2,0-0.2-0.1c0-0.1,0.1-0.3,0-0.3c-0.1,0-0.3-0.1-0.3-0.2
		c0-0.1,0.2-0.1,0.2-0.2s-0.5-0.1-0.2-0.3c0-0.1,0.2-0.1,0.1-0.2c-0.3,0.1-0.5,0.2-0.7,0.4c-0.3,0.4-0.4,0.8-0.5,1.2
		C13.9,37.7,13.8,37.8,13.7,37.9L13.7,37.9z M14.6,40c-0.3-0.3-0.6-0.6-0.8-1c-0.1-0.5,0-1,0.2-1.4c0.1,0,0.2-0.1,0.2,0
		c-0.2,0.5-0.1,1.1,0.1,1.6c0.1,0.2,0.4,0.3,0.5,0.5c0.1,0.1,0.1,0.3,0.1,0.5C14.9,40.1,14.7,40.1,14.6,40L14.6,40z M38,39.6
		C37.6,40,37,40,36.6,40.5c-0.5,0.3-1,0.5-1.5,0.7c-0.3,0.1-0.1,0.5-0.4,0.5c-0.5-0.1-0.9-0.3-1.3-0.5c-0.2,0.1-0.3,0.4-0.5,0.6
		s-0.3,0.2-0.4,0.4c0.1,0.1,0,0.2,0,0.3c-0.3,0.2-0.6,0.5-0.7,0.9c0,0.2,0.1,0.3,0,0.5c-0.1,0.2,0,0.5-0.3,0.5
		c-0.2,0.4-0.3,0.8-0.4,1.3c0,0.2,0.4,0.2,0.2,0.4c-0.5,0.1-1-0.1-1.3-0.4c-0.1-0.2-0.2-0.3-0.2-0.5c0-0.2,0-0.5-0.3-0.4
		c-0.4-0.1-0.7,0.3-1,0c-0.1,0.1-0.1,0.2,0,0.2c0.2,0.1,0.4,0.2,0.6,0.1c-0.3,0.4-0.8,0.3-1.3,0.4c0,0.2-0.1,0.2-0.1,0.3
		c0,0.1,0.1,0.1,0.2,0.1l0,0l-0.1,0.2c-0.1-0.1-0.2-0.2-0.2-0.4c0-0.1,0-0.2,0.1-0.3c0,0,0,0,0.1,0c-0.3-0.2-0.7-0.2-0.9-0.4
		c-0.2-0.2-0.4-0.5-0.5-0.7c-0.5-0.2-0.4,0.4-0.7,0.6c-0.2,0.3-0.6,0.4-0.9,0.4c-0.5,0.2-1,0.1-1.4-0.1c0-0.1-0.2-0.1-0.2-0.3
		c0.1-0.1,0.3,0.1,0.5,0c0.1,0,0.1-0.1,0.2-0.1c-0.2,0-0.5,0.1-0.6,0c-0.1,0.2-0.3-0.1-0.4-0.1s-0.2,0.3-0.3,0.2
		c-0.1,0.2-0.3,0.3-0.5,0.3c0.2,0.1,0.4-0.1,0.6,0.1c-0.2,0.3-0.5,0.6-0.8,0.8c-0.6,0.2-1.2,0.1-1.7-0.1c-0.2-0.1-0.3-0.3-0.4-0.3
		c0.3,0.3,0.4,0.9,0.9,0.9c0.2,0.1,0.5-0.1,0.6,0.2c0.1,0.2-0.1,0.5-0.1,0.8c0,0.1,0.1,0.1,0.1,0.2s-0.4,0.3-0.1,0.5
		c0.4-0.5,1.1-0.5,1.6-0.8c0.8-0.3,1.7-0.5,2.5-0.5c0.5-0.1,1-0.1,1.5,0c1.5,0,3,0.3,4.4,0.9c0.2,0.1,0.5,0.2,0.6,0.4
		c0.1,0,0.2,0,0.2-0.1c0-0.2-0.3-0.2-0.3-0.4c0.1,0,0.2-0.2,0.2-0.3c0,0,0,0,0,0l-0.2-0.5c0.1-0.2,0.4-0.2,0.7-0.3
		c0.1,0.1,0.2,0,0.3,0c0.2-0.2,0.4-0.5,0.5-0.8c-0.1,0-0.2,0.2-0.4,0.2s-0.2,0.1-0.3,0c-0.1-0.1,0.4-0.3,0-0.4c-0.2,0-0.4,0.2-0.6,0
		c-0.2-0.2,0.1-0.3,0.2-0.5c0.2-0.4,0.4-0.8,0.6-1.2c0.2-0.1,0.3,0.1,0.4,0.2c0.1,0.1,0,0.3,0.2,0.4c0.2-0.3-0.2-0.7,0.3-0.8
		c0.2-0.1,0.3,0.2,0.5,0.3c0.2,0,0.4,0.2,0.4,0.4s-0.4,0.6-0.6,0.9c0,0.3-0.3,0.4-0.5,0.6c-0.2,0.3-0.4,0.6-0.5,0.9
		c0,0.3,0.2,0.8-0.2,0.9c-0.2,0.1-0.4,0-0.5,0.3c-0.1,0.3,0,0.5-0.2,0.6l-0.6,0.2c-0.2,0.1-0.1,0.3-0.1,0.4c0,0.1,0,0.7,0.3,0.7
		c0.6-0.3,1.3-0.4,2-0.3c0.4,0.1,0.3,0.6,0.3,0.9l0.2,0.6c0.2,0.4,0.6,0.8,0.4,1.3s-0.7,0.8-1.2,1.1c-0.7,0.1-0.3-0.8-0.8-1
		c-0.3,0.2-0.7,0.4-0.9,0.6c-0.2,0.4,0.2,0.7,0.3,1c0.2,0.5,0.6,0.9,0.5,1.5c0,0.1-0.2,0.1-0.2,0c-0.6-0.4-0.7-1-1-1.6
		c0-0.2-0.1-0.4-0.3-0.5c-0.3,0.1-0.5,0.3-0.8,0.5c-0.3,0.1-0.7,0.4-1.1,0.3c-0.2-0.2-0.3-0.6-0.4-0.8c-0.1-0.3-0.3-0.6-0.6-0.8
		c-0.2,0.4-0.5,0.8-0.9,1.1l-0.1,0.3v1.7c0.1,0.4,0,0.9-0.3,1.3c0,0.1-0.2,0.2-0.3,0.1c-0.4-0.5-0.2-1.3-0.2-1.8l0-1.3
		c-0.2-0.3-0.4-0.5-0.7-0.7c-0.1-0.2-0.2-0.5-0.4-0.7c-0.3,0.1-0.4,0.4-0.5,0.6c-0.1,0.2-0.2,0.3-0.3,0.4C24,53.7,24,54,23.7,54.2
		c-0.4,0.1-0.8,0-1.2-0.2c-0.2-0.1-0.5-0.3-0.8-0.5c-0.6,0.7-0.8,1.5-1.5,2c-0.1,0-0.1-0.1-0.1-0.2c0,0,0,0,0,0
		c0-0.9,0.8-1.5,0.8-2.4c-0.1-0.3-0.4-0.3-0.7-0.5c-0.1,0-0.2-0.1-0.3,0c-0.2,0.2-0.1,0.7-0.5,0.8c-0.6,0-1.2-0.3-1.6-0.8
		c-0.2-0.5,0.1-0.9,0.3-1.4c0.1-0.4,0.2-0.8,0.3-1.3c0-0.2,0.1-0.3,0.2-0.4c0.1-0.1,0.3,0,0.4-0.1l0.8,0.1l0.8,0.2
		c0.2,0,0.2-0.2,0.2-0.3c0-0.1,0.1-0.5-0.1-0.7c-0.2-0.2-0.6-0.1-0.7-0.3c-0.2-0.3,0.1-0.6-0.2-0.7c-0.1-0.1-0.4,0-0.5-0.2
		c-0.1-0.3,0.1-0.7-0.2-1c-0.2-0.4-0.5-0.8-0.8-1.2c-0.1-0.3-0.3-0.7-0.5-1v-0.2l0.9-0.6c0.1,0,0.3,0.1,0.3,0.3
		c0,0.2-0.2,0.5,0.1,0.7c0.1,0,0.1-0.2,0.2-0.1c0,0.2,0,0.4-0.2,0.6c-0.1,0-0.2,0-0.3,0.1c-0.1,0.1,0.1,0.2,0.2,0.2
		c0.1,0,0.1-0.1,0.3-0.2c0.3,0.1,0.6,0.1,0.8,0.2c0.2-0.1-0.2-0.2-0.2-0.4c-0.1-0.3-0.4-0.6-0.3-1c0.1,0,0.2,0,0.2,0.1
		c0.1,0.1,0.1,0.3,0.2,0.5c0,0.4,0.7,0.7,0.4,1.1c-0.2,0.1-0.4-0.2-0.5,0.1c0.1,0.3,0.5,0.3,0.7,0.3c0.2,0.1,0.3,0,0.4-0.2
		c0,0,0,0,0,0c-0.1-0.5-0.2-1.1-0.6-1.5c-0.1-0.3-0.1-0.6,0-0.9c-0.2-0.3-0.4-0.6-0.5-1c-0.2-0.3-0.5-0.6-0.7-1
		c-0.2-0.3-0.5,0.1-0.8,0.1s-0.5,0.2-0.8,0.1c-0.1-0.2-0.2-0.6-0.5-0.6c-0.4-0.1-0.8-0.3-1.1-0.5c-0.4-0.2-0.6-0.5-0.7-0.9
		c0-0.3,0-0.5,0.2-0.7c0.1-0.1,0.2,0,0.1,0.1c-0.1,0.2,0,0.5,0.1,0.7c0.2,0.4,0.7,0.4,1.1,0.6c0.4,0.2,0.9,0.4,1,0.9
		c0.1,0.1,0.3,0,0.4-0.1c0.3-0.1,0.2-0.5,0.5-0.4c0.1,0,0.1-0.1,0.2-0.1c0-0.2,0-0.4,0-0.7c0.2-0.1,0.5,0.5,0.5,0
		c0-0.3-0.1-0.5-0.2-0.8c0.1-0.1,0.4,0.3,0.4,0c-0.1-0.4-0.3-0.8-0.7-1c0.5-0.2,0.8,0.3,1.2,0.7c0,0.1,0,0.2,0.1,0.2
		c0.3-0.3,0-0.7-0.1-0.9c-0.1-0.1-0.2-0.2-0.2-0.3c0.2,0,0.4,0.2,0.5,0.2c0-0.5-0.5-0.8-0.8-1.1c0.1-0.2,0.3,0,0.4,0
		c-0.4-0.5-0.9-0.7-1.5-0.8c0.1-0.2,0.4,0,0.5-0.1c0.3,0,0.6,0.1,0.9,0.2c0.1,0,0.1,0.1,0.2,0.1c-0.3-0.3-0.5-0.3-0.7-0.5
		c0.2-0.1,0.4,0,0.7,0c0.1-0.1-0.1-0.2-0.2-0.3c-0.3-0.2-0.7-0.3-1.1-0.4c0-0.1,0.1-0.2,0.1-0.3c-0.2-0.1-0.4-0.2-0.7-0.2l0.1-0.2
		c-0.8-0.1-1.3,0.5-1.7,1.1c-0.3,0.6-0.3,1.3,0,1.9c0.1,0.3,0.3,0.5,0.3,0.9c-0.7-0.5-1.1-1.4-0.9-2.3c0.2-0.8,0.6-1.4,1.3-1.7
		c0.7-0.3,1.5-0.3,2.3-0.1c0.5,0.1,1,0.4,1.3,0.8c0.1,0.4,0.6,0.5,0.6,0.9c0,0.1,0.1,0.2,0.2,0.1c0,0,0.1,0,0.2,0c0,0,0,0,0,0
		c0.6,1.2,1.2,2.5,1.7,3.8c0.1,0.5,0.3,0.9,0.5,1.3c0-0.7-0.1-1.4-0.3-2c-0.2-0.8-0.4-1.6-0.6-2.4c-0.1-0.4-0.3-0.7-0.4-1.1
		c0.1-0.4-0.2-0.6-0.1-1c0-0.3-0.1-0.6-0.3-0.9c-0.5-0.4-0.9-1-0.8-1.6V32c0-0.3,0-0.5,0.1-0.8c-0.3-0.2-0.1-0.5-0.1-0.8
		c0.2-0.3,0.3-0.8,0.7-1c0.5-0.5,1.3-0.7,2-0.6c0.3,0.1,0.6,0.2,0.8,0.3c0.2,0.1,0.5,0.5,0.8,0.3s0.6,0.1,0.8,0.1
		c0.4-0.2,0.7-0.3,1.1-0.5c0.8-0.3,1.7-0.1,2.3,0.4c0.4,0.4,0.6,1,0.6,1.6c0,0.5,0.3,0.9,0.1,1.4c-0.1,0.6-0.4,1.2-0.9,1.6
		c-0.2,0.6-0.4,1.2-0.4,1.8c-0.3,0.2,0.1,0.4-0.1,0.7c-0.1,0.4-0.2,0.8-0.3,1.2c-0.2,1-0.5,2-0.5,3c0.2-0.3,0.1-0.7,0.5-1
		c-0.1-0.5,0.3-0.9,0.4-1.4c0.4-0.7,0.6-1.4,1-2c0.1-0.1,0.2-0.3,0.3-0.2c0.3-0.2,0.3-0.6,0.5-0.8c0.5-0.8,1.3-1.2,2.2-1.3
		c0.7,0,1.4,0.2,2,0.5c0.1,0.2,0.4,0.3,0.5,0.5c0.1,0.2,0.2,0.2,0.2,0.3c0.2,0.7,0.1,1.4-0.2,2c0,0.1-0.2,0.2-0.2,0
		c0-0.1-0.1-0.2-0.1-0.3c0.1-0.1,0.2-0.1,0.2-0.2c0-0.1-0.3-0.3-0.2-0.5c0.1,0,0.2-0.1,0.2-0.2c0,0,0,0,0,0v-0.1
		c-0.1-0.1-0.1-0.2-0.1-0.3c0.1,0,0.2-0.1,0.2-0.2c0,0,0,0,0-0.1c-0.4-0.7-1.1-1.1-1.9-1.1c0.3,0.1,0.7,0.3,1,0.5
		c-0.5-0.1-1-0.1-1.4,0L33,35c-0.4,0.2-0.7,0.5-0.9,0.8c-0.1,0.2-0.3,0.4-0.4,0.7c-0.1,0.1-0.1,0.3-0.3,0.3c-0.1-0.2,0-0.4,0-0.7
		s0.3-0.5,0.1-0.8c-0.3,0.1-0.5,0.5-0.7,0.8c-0.1,0.7,0,1.5,0.1,2.2c0,0.3,0,0.7-0.1,1c-0.1,0-0.1-0.1-0.1-0.2
		c-0.2-0.7-0.2-1.4-0.2-2.1c-0.6,0.7-1,1.6-1.3,2.5c-0.1,0.6,0,1.2,0.3,1.7c0,0.3,0,0.5,0,0.8c-0.1,0.1-0.1-0.1-0.2-0.1
		c-0.2-0.4-0.3-0.9-0.3-1.3c-0.3,0.5-0.5,1-0.5,1.5c0,0.1,0,0.3,0.2,0.3c0.2,0,0.6,0.3,0.9,0.1c0.1-0.3,0.4-0.5,0.4-0.8
		c0.1-0.1,0.1,0,0.2,0c0.2-0.2,0-0.6,0.2-0.9c0.1,0,0.2,0.1,0.2,0c0-0.3,0-0.5,0-0.8c0.2-0.1,0.1,0.2,0.3,0.2c0.2-0.3,0.4-0.7,0.5-1
		c0.1-0.1,0.3-0.1,0.3-0.3c-0.1-0.4-0.2-0.8-0.2-1.1c0.1-0.4,0.2-0.7,0.4-1.1c0.4-0.4,0.9-0.9,1.6-0.6c-0.2,0.1-0.4,0.2-0.6,0.3
		c-0.5,0.3-0.9,0.8-1,1.4c0,0.5,0.1,1,0.3,1.4l0,0.5c-0.6,0.7-1.1,1.5-1.3,2.3c0,0.1,0.1,0.3,0.1,0.4c0.5-0.1,1-0.1,1.2-0.6
		c-0.2-0.3,0.4-0.2,0.4-0.5c-0.1-0.1-0.3-0.1-0.3-0.2c0.2-0.1,0.4-0.1,0.6-0.3c-0.1-0.1-0.3,0-0.4-0.2s0.1-0.2,0-0.3l-0.3-0.2
		c0-0.1,0.1-0.1,0.2-0.2c0-0.4,0-0.9,0.2-1.3c0.1-0.2,0.3-0.3,0.5-0.4c-0.3,0.5-0.4,1-0.3,1.6c0.2,0.5,0.6,0.9,1.1,1.2
		c0.2,0.2,0.5,0.4,0.8,0.4c0.2-0.2,0.2-0.5,0.4-0.7c0-0.2,0.1-0.3,0.2-0.4c0.1,0.1,0.3,0,0.4-0.1c0,0,0,0,0,0
		c0.1-0.1,0.2-0.3,0.2-0.5c0.2,0.1,0.1,0.3,0.3,0.4c0.2-0.2,0.3-0.4,0.3-0.7c0.1-0.1,0.1,0.1,0.2,0.1c0,0.1,0,0.1,0.1,0.2
		c0.3-0.3,0-0.8,0-1.2c0.2,0,0.3,0.1,0.4,0.2c0.1,0.1,0.1,0.4,0.3,0.6c0.3,0,0.1-0.4,0.2-0.6c0-0.1,0-0.2,0-0.2
		c0.3,0,0.2,0.5,0.5,0.3c0.2-0.3-0.1-0.6-0.2-0.9c0.1-0.1,0.2,0,0.3,0c0.2-0.4-0.4-0.6-0.7-0.9c0.2,0,0.4,0,0.7,0
		c0.1-0.2-0.6-0.5-0.2-0.7c-0.2-0.3-0.5-0.4-0.9-0.4c-0.2,0-0.1,0.2-0.1,0.3c-0.2,1.1-0.8,2-1.7,2.5v-0.2c0.5-0.5,0.9-1.2,1.2-1.9
		c0.1-0.4,0.1-0.8,0-1.1c0-0.1,0.2-0.2,0.3-0.2c0.4,0,0.7,0.1,1,0.4c0.2,0.2,0.5,0.3,0.6,0.6c0.2,0.5,0.3,1,0.2,1.5
		C38.6,38.5,38.4,39.2,38,39.6L38,39.6z M30.6,47.1c-0.1,0-0.2-0.1-0.2-0.2c0.1-0.1,0.2,0,0.2,0c0.1,0,0.1-0.1,0.2-0.1
		C30.9,47,30.7,47,30.6,47.1L30.6,47.1z M30.8,47.3c-0.2,0.1-0.4,0.1-0.5-0.1C30.5,47.2,30.7,47.2,30.8,47.3z M30.8,46.5
		c-0.1,0-0.2,0-0.2-0.1c0-0.2,0.2,0.1,0.3,0C31,46.5,30.9,46.5,30.8,46.5L30.8,46.5z M30.1,46c0,0.2-0.1,0.4-0.3,0.5
		c-0.3,0.2-0.7,0.2-1,0c-0.2-0.1-0.3-0.3-0.3-0.5c0-0.2,0.1-0.3,0.3-0.4C29.3,45.3,29.9,45.5,30.1,46L30.1,46z M28.1,46.2
		c0,0.2-0.1,0.2-0.3,0.3c-0.1,0-0.2-0.1-0.2-0.2c0-0.1,0-0.3,0.2-0.3C27.9,45.9,28,46,28.1,46.2L28.1,46.2z M25.5,45.9
		c-0.1,0-0.1-0.1-0.2-0.2c0.1-0.3,0.4-0.4,0.6-0.6c0.3-0.3,0.5,0.1,0.8,0.1c0.1,0.1,0.2,0.2,0.3,0.4c-0.2,0.3-0.5,0.5-0.8,0.6
		C25.9,46.2,25.7,45.9,25.5,45.9z M25.8,46.5c0,0.1-0.2,0.1-0.2,0.1c-0.1-0.1-0.3,0.1-0.2-0.2C25.5,46.4,25.7,46.4,25.8,46.5
		L25.8,46.5z M24.7,45.9c0,0.1-0.1,0.3,0,0.3c0.1,0,0.1-0.1,0.2-0.1c0,0,0,0.1,0,0.2c-0.1,0-0.2,0.1-0.3,0c-0.1-0.1-0.1-0.2-0.1-0.3
		C24.4,46,24.5,45.9,24.7,45.9C24.6,45.9,24.6,45.9,24.7,45.9L24.7,45.9L24.7,45.9z M24.6,45.8c0-0.1,0.1-0.2,0.2-0.2
		c0,0,0,0.1,0,0.2C24.8,45.8,24.6,45.9,24.6,45.8L24.6,45.8z M25,46.6c-0.1,0-0.2,0.1-0.3,0.1C24.7,46.5,24.9,46.5,25,46.6L25,46.6z
		 M23.2,46.6c-0.3,0.1-0.6,0-0.8-0.2c-0.1-0.1-0.1-0.3,0-0.5c0.2-0.3,0.5-0.5,0.8-0.5c0.2,0,0.5,0,0.7,0.2c0.1,0.1,0.1,0.3,0,0.4
		C23.7,46.4,23.5,46.6,23.2,46.6L23.2,46.6z M23.3,46.8c-0.1,0.1-0.3,0.3-0.5,0.2c-0.1-0.1,0.1-0.1,0.2-0.2
		C23,46.7,23.2,46.8,23.3,46.8L23.3,46.8z M21.5,46.1l0.1,0.1c0.1,0,0.2-0.1,0.2,0v0.3c0.1,0,0.2,0.2,0.3,0.3c0,0.1-0.1,0.2-0.3,0.2
		c-0.1,0-0.2-0.1-0.3-0.2C21.7,46.5,21.1,46.4,21.5,46.1L21.5,46.1z M22,47.2c0.1,0,0.2,0,0.2,0.1c0,0.1-0.1,0.1-0.2,0.1
		c-0.1,0-0.1,0-0.2-0.1c0,0,0,0,0,0C21.8,47.2,21.9,47.2,22,47.2L22,47.2z"/>
	<path class="st0" d="M22.5,45.9c-0.1,0.1-0.1,0.2,0,0.3l0.1-0.2c0.2,0,0.5,0,0.7-0.2c0.1,0,0.2,0.1,0.3,0l-0.1-0.1
		C23.2,45.7,22.7,45.5,22.5,45.9z"/>
	<path class="st0" d="M27.3,44.5c-0.2-0.1-0.3-0.3-0.5-0.2c0.2,0.3,0.5,0.5,0.8,0.5c0.1-0.1,0.1-0.2,0-0.3L27.3,44.5z"/>
	<path class="st0" d="M26.1,36.1c-0.1,1.9,0,3.8,0.1,5.9c0,0,0.1-0.1,0.1-0.2v-5.1l0-0.5C26.4,36,26.2,36,26.1,36.1z"/>
	<path class="st0" d="M24.9,42.5c0.2,0,0.3,0.4,0.5,0.3c0-0.2-0.2-0.3-0.3-0.4c-0.1-0.1,0-0.3,0.1-0.4c0.1-0.1,0.3-0.1,0.4,0
		c0.3,0,0.1-0.4,0.2-0.6c0.1-0.3-0.3-0.5-0.2-0.9c0-0.1,0.1,0,0.2-0.1c0.1-0.3-0.3-0.5-0.2-0.8c0.1,0,0.2-0.2,0.2-0.3
		s-0.3-0.3-0.1-0.6c0.3,0,0.1-0.5,0.2-0.7c0-0.4-0.3-0.7-0.5-1.1c0.2-0.1,0.3,0.2,0.5,0.1V37l-0.7-0.8c0.2,0,0.4,0.2,0.7,0
		c-0.2-0.3-0.4-0.5-0.7-0.6c-0.7-0.2-1.4-0.8-1.7-1.4c0-0.4-0.1-1,0.3-1.3c0,0,0.2,0,0.2,0c-0.1,0.2-0.1,0.5-0.1,0.7
		c0,1.1,1.2,1.1,1.9,1.4c0.3,0,0.5,0.7,0.8,0.2c0.2,0,0.3-0.3,0.4-0.4c0.1-0.1,0.2,0.1,0.4,0c0.2-0.1,0.2-0.4,0.4-0.7
		c0.2,0,0.1,0.3,0.3,0.4c0.1-0.1,0.2-0.2,0.3-0.3c0.1-0.2,0-0.5,0.2-0.6c0.1,0,0.1,0.2,0.3,0.3c0.2-0.5,0.1-1-0.3-1.3
		c-0.1-0.2-0.4-0.3-0.5-0.5c0.5,0.1,0.9,0.3,1.1,0.7c0.1,0.2,0.2,0.5,0.2,0.7c0.1,0,0.1-0.1,0.2-0.2c0-0.3,0-0.6-0.1-0.9
		c0.1-0.1,0.2,0.1,0.3,0.2s0.1,0.3,0.3,0.3c0.1-0.2,0-0.4,0-0.6L29.6,32c0,0,0-0.1,0-0.2c0,0,0.3,0.5,0.5,0.4c0-0.3-0.1-0.6-0.3-0.8
		c-0.1-0.1-0.3-0.2-0.3-0.4c0-0.1,0.2,0,0.3,0c-0.3-0.4-0.8-0.7-1.4-0.7l0.1-0.2h0.8c0.2,0.1,0.4,0.2,0.7,0.2c0-0.2-0.2-0.3-0.3-0.4
		c-0.1-0.1-0.6-0.1-0.7-0.4c-0.6-0.3-1.3-0.2-1.8,0.2c-0.4,0.4-0.8,0.9-1,1.5c0-0.4,0-0.7,0.1-1.1c0-0.1-0.1-0.2-0.2-0.2h0
		C26.1,29.9,26,30,26,30.2c0.1,1,0.1,1.9,0,2.9c-0.1,0-0.1-0.2-0.2-0.2c-0.1,0,0-0.2,0.1-0.3c0-0.1-0.3-0.2-0.3-0.3
		C25.4,32,25.6,32,25.7,32c0.1-0.2-0.2-0.3-0.3-0.5s0.2-0.1,0.2-0.2c-0.1-0.2-0.4-0.3-0.5-0.5c0.1-0.1,0.3-0.1,0.4-0.1
		c0.1-0.3-0.4-0.4-0.5-0.7c0-0.1,0.2,0,0.3,0s0-0.2-0.1-0.3c-0.5-0.3-1.1-0.4-1.6-0.4c-0.6,0.2-1.3,0.5-1.4,1.2
		c0.3-0.1,0.7-0.4,1.1-0.3c-0.2,0.1-0.4,0.2-0.6,0.3c-0.3,0.3-0.5,0.7-0.7,1.1c0,0.2-0.1,0.3-0.1,0.5c0,0.6,0.2,1.1,0.7,1.5l0.5,0.3
		l0.1,0.7c0,0.5,0,1,0.2,1.5c0.5,0.8,1.5,0.9,2,1.7c0,0.1,0.1,0.2,0,0.2c-0.1,0.1-0.2-0.1-0.3-0.1c-0.4-0.2-0.9-0.5-1.2-0.8
		c0,0-0.1-0.1-0.2-0.1c0,0.4,0.1,0.8,0.1,1.1c0.2,0.7,0.1,1.5,0.8,1.9c0.4,0.2,0.7,0.5,0.9,0.9c0,0.1,0.2,0.3,0,0.4
		c-0.4-0.3-0.8-0.7-1.2-1.1c0,0.4,0,0.8,0,1.2c0,0.3,0,0.7,0.1,1C24.5,42.6,24.8,42.5,24.9,42.5z"/>
	<path class="st0" d="M25.1,43.1C25,43,25,42.8,24.8,42.8c0.1,0.1,0,0.3,0.1,0.4c0,0.3,0,0.5,0,0.8c0.2-0.2,0.4-0.4,0.7-0.5
		C25.7,43.3,25.3,43.3,25.1,43.1z"/>
	<path class="st0" d="M30.6,43.6c-0.2,0.1-0.5,0.3-0.5,0.6c0.2-0.2,0.4-0.2,0.7-0.2c0.2,0,0.2,0.3,0.3,0.4c0.2,0,0.3-0.1,0.4-0.3
		c0-0.1,0.1-0.3-0.1-0.4C31.2,43.4,30.9,43.4,30.6,43.6z"/>
	<path class="st0" d="M26.1,43.1c0.2,0,0.2-0.2,0.3-0.3c0-0.2,0.3-0.3,0.3-0.5c-0.4,0.1-0.8,0.1-1.2,0l0.3,0.4
		C26,42.8,25.9,43.1,26.1,43.1z"/>
	<path class="st0" d="M23.8,44.1c-0.3,0-0.1-0.4-0.4-0.4c-0.2,0.2,0.1,0.4,0.1,0.6c0.1,0,0.3,0,0.4,0c0.1,0.1,0.3,0.3,0.4,0.5
		c0-0.3,0-0.5,0-0.8C24.1,43.9,23.9,44.1,23.8,44.1z"/>
	<path class="st0" d="M21.6,44.2c0,0.1,0.1,0.2,0,0.3s-0.3,0.1-0.2,0.4c0.1,0,0.3-0.1,0.4,0v-0.5C21.9,44.1,21.7,44.1,21.6,44.2z"/>
	<path class="st0" d="M21.1,43.5c-0.1,0-0.3,0.1-0.3,0.2c0,0.2,0,0.4,0.1,0.5c0.3,0.3,0.2-0.3,0.4-0.4c0.3-0.2,0.6,0,0.9,0.1
		l-0.2-0.2C21.6,43.6,21.3,43.5,21.1,43.5z"/>
	<path class="st0" d="M24,43.6c0.1-0.2,0.1-0.4,0-0.6c-0.2-0.2-0.4-0.2-0.6-0.1c-0.4,0.2-0.6,0.5-0.6,0.9c0.2,0,0.1-0.2,0.3-0.3
		c0.1-0.1,0.3-0.1,0.4-0.1C23.7,43.4,23.8,43.6,24,43.6z"/>
	<path class="st0" d="M22.6,44.1c-0.1-0.6,0.1-1.2-0.3-1.7c-0.1-0.1-0.3-0.5-0.5-0.3c-0.1,0.4-0.1,0.7,0.1,1.1
		C22.1,43.5,22.3,43.8,22.6,44.1c0,0.2-0.2,0.2-0.3,0.3c0.2-0.1,0.4-0.1,0.6-0.2C22.8,44.1,22.7,44.2,22.6,44.1z"/>
	<path class="st0" d="M24.7,44.5c-0.1,0.1-0.1,0.2,0,0.2c0.3,0,0.6-0.3,0.8-0.6l-0.1,0C25.1,44.2,25,44.6,24.7,44.5z"/>
	<path class="st0" d="M29.5,43.9c0-0.3-0.1-0.6-0.3-0.8c-0.1-0.2-0.4-0.3-0.7-0.3c-0.2,0.1-0.3,0.3-0.3,0.4c0,0.1,0,0.3,0.2,0.4
		c0.1-0.3,0.4-0.3,0.7-0.3C29.3,43.4,29.2,43.8,29.5,43.9z"/>
	<path class="st0" d="M29.4,44.2c0.2,0.1,0.5,0.1,0.7,0.2C29.9,44.3,29.6,44.2,29.4,44.2z"/>
	<path class="st0" d="M26.1,43.4c-0.1,0-0.2,0.1-0.2,0.2c0,0.2,0.2,0.3,0.3,0.2h0.1c0.1,0,0.2-0.2,0.2-0.3S26.3,43.3,26.1,43.4z"/>
	<path class="st0" d="M30.9,44.6c-0.3,0,0-0.4-0.3-0.5c-0.1,0-0.2,0.1-0.2,0.2c0,0.2,0,0.3,0,0.5c0,0.1,0.2,0,0.2,0S30.9,45,31,45
		C31,44.8,31.1,44.7,30.9,44.6z"/>
	<path class="st0" d="M30,44.9c0,0.1,0.1,0.2,0.2,0.3c0.1,0,0.3,0,0.4-0.2C30.4,45.1,30.2,45.1,30,44.9z"/>
	<path class="st0" d="M27.4,44.2c0-0.3-0.1-0.5,0-0.8l0.1-0.3c0-0.3-0.2,0.1-0.3,0.1s-0.5,0.2-0.4,0.5c0.1,0.1,0.1,0.2,0.2,0.2
		C27,43.9,27.2,44.1,27.4,44.2z"/>
	<path class="st0" d="M28.9,43.7c-0.2,0-0.2,0.2-0.2,0.3c-0.2,0.2-0.3-0.2-0.5-0.1c-0.1,0.3-0.1,0.6,0,0.8c0.1-0.1,0.1-0.4,0.3-0.5
		c0.2-0.1,0.3,0,0.4,0.1c0.2-0.1,0.2-0.3,0.3-0.5C29.1,43.7,29,43.6,28.9,43.7L28.9,43.7z"/>
	<path class="st0" d="M21.3,42.6c0.1-0.2,0-0.3-0.2-0.4c0-0.2,0.2-0.1,0.3-0.2c0.1-0.3-0.3-0.3-0.5-0.4c-0.2-0.1,0.2-0.1,0.3-0.2
		c0.1-0.3-0.4-0.3-0.5-0.6c0.1-0.1,0.2-0.1,0.2-0.3l-0.6-0.9c-0.2-0.1-0.2,0.1-0.3,0.2c0,0.2,0.3,0.3,0.4,0.4
		c-0.1,0.3-0.5,0-0.7,0.2c-0.2,0.2-0.4,0.3-0.3,0.5l0.7,0.9c0.2,0.2,0.3,0.5,0.6,0.7C20.8,42.6,21.1,42.8,21.3,42.6z"/>
	<path class="st0" d="M27,41.1c-0.1,0-0.2,0.1-0.2,0c0.1-0.8,0.9-1.1,1.3-1.6c0-0.1,0.1-0.2-0.1-0.2s-0.2,0-0.2-0.1
		c0.1-0.2,0.4-0.4,0.4-0.7c-0.1-0.1-0.3,0.1-0.4,0l0.5-0.5c0.3-0.5-0.3,0-0.4-0.2c0.2-0.3,0.7-0.5,0.7-0.9l-1.1,0.7
		c-0.2,0.1-0.3,0.3-0.5,0.3c-0.2,0-0.1-0.1,0-0.2c0.4-0.7,1.2-0.8,1.8-1.4c0-0.1,0.1-0.2,0-0.3L28,36.3c0-0.2,0.3-0.2,0.4-0.4
		c0.1-0.2,0.5-0.3,0.5-0.6c-0.2,0-0.4,0.1-0.6,0.2c-0.2,0-0.3,0.2-0.4,0.1l0.3-0.2c0.3-0.2,0.7-0.4,0.7-0.7c-0.2,0-0.4,0.2-0.6,0.4
		c-0.5,0.4-1.3,0.4-1.6,1c-0.1,1.2,0,2.4-0.1,3.6c0,0.7-0.1,1.4-0.1,2.1c0,0.2,0.3,0.1,0.4,0.2c0.4,0.4-0.3,0.5-0.2,0.9
		c0.2,0,0.3-0.2,0.5-0.3c0.2-0.1,0.3,0,0.4-0.1c0.1-0.1,0.1-0.2,0-0.3c-0.5-0.2,0.1-0.5,0.1-0.8c0-0.3-0.3,0-0.3-0.1
		c0.2-0.3,0.4-0.7,0.5-1.1C27.6,40.4,27.4,40.9,27,41.1z"/>
</g>
</svg>
