<?xml version="1.0" encoding="utf-8"?>
<!-- Generator: $$$/GeneralStr/196=Adobe Illustrator 27.6.0, SVG Export Plug-In . SVG Version: 6.00 Build 0)  -->
<svg version="1.1" id="Capa_1" xmlns="http://www.w3.org/2000/svg" xmlns:xlink="http://www.w3.org/1999/xlink" x="0px" y="0px"
	 viewBox="0 0 250 100" style="enable-background:new 0 0 250 100;" xml:space="preserve">
<style type="text/css">
	.st0{fill:#777777;}
</style>
<g id="Layer_2">
</g>
<g>
	<path class="st0" d="M7.5,55.5v3.8c0,0.8,0.1,1.3,0.3,1.5C8,61,8.1,61.1,8.3,61.2c0.2,0.1,0.4,0.1,0.6,0.1h0.5v0.4H3.8v-0.4h0.5
		c0.2,0,0.5,0,0.7-0.1c0.2-0.1,0.4-0.2,0.5-0.4c0.2-0.5,0.2-0.9,0.2-1.4v-8.5c0-0.8-0.1-1.3-0.3-1.5c-0.1-0.1-0.3-0.3-0.5-0.3
		c-0.2-0.1-0.4-0.1-0.6-0.1H3.8v-0.4h4.8c0.9,0,1.9,0.1,2.8,0.4c0.7,0.2,1.3,0.7,1.7,1.2c0.5,0.6,0.7,1.3,0.7,2.1
		c0,0.5-0.1,1-0.2,1.4c-0.2,0.5-0.5,0.9-0.8,1.2c-0.7,0.7-1.7,1-3,1c-0.3,0-0.7,0-1-0.1C8.3,55.6,8,55.6,7.5,55.5 M7.5,54.9
		C7.9,55,8.2,55,8.5,55.1c0.2,0,0.5,0,0.7,0c0.3,0,0.7-0.1,1-0.2c0.3-0.1,0.6-0.3,0.8-0.6c0.5-0.6,0.8-1.3,0.7-2
		c0-0.6-0.1-1.1-0.4-1.6c-0.2-0.5-0.6-0.8-1-1.1c-0.4-0.2-0.9-0.4-1.5-0.4c-0.4,0-0.9,0.1-1.3,0.2V54.9z"/>
	<path class="st0" d="M27.5,54.6h6.1v-3.8c0-0.4,0-0.9-0.1-1.3c-0.1-0.2-0.2-0.3-0.4-0.4c-0.3-0.2-0.6-0.2-0.9-0.2h-0.5v-0.4h5.6
		v0.4h-0.5c-0.3,0-0.6,0.1-0.9,0.2c-0.1,0-0.2,0.1-0.3,0.2c-0.1,0.1-0.1,0.2-0.2,0.3c-0.1,0.4-0.1,0.9-0.1,1.3v8.5
		c0,0.4,0,0.9,0.1,1.3c0.1,0.2,0.2,0.3,0.4,0.4c0.3,0.2,0.6,0.2,0.9,0.2h0.5v0.4h-5.6v-0.4h0.5c0.2,0,0.4,0,0.6-0.1
		c0.2-0.1,0.4-0.2,0.5-0.4c0.2-0.2,0.2-0.7,0.2-1.5v-4h-6.1v4c0,0.4,0,0.9,0.1,1.3c0.1,0.2,0.2,0.3,0.4,0.4c0.3,0.2,0.6,0.2,0.9,0.2
		h0.5v0.4h-5.7v-0.4h0.5c0.2,0,0.4,0,0.7-0.1c0.2-0.1,0.4-0.2,0.5-0.4c0.2-0.2,0.2-0.7,0.2-1.5v-8.5c0-0.4,0-0.9-0.1-1.3
		c-0.1-0.2-0.2-0.3-0.4-0.4c-0.3-0.2-0.6-0.2-0.9-0.2h-0.5v-0.4h5.6v0.4h-0.5c-0.3,0-0.6,0.1-0.9,0.2c-0.2,0.1-0.3,0.3-0.4,0.5
		c-0.1,0.4-0.1,0.9-0.1,1.3V54.6z"/>
	<path class="st0" d="M53.6,61.3v0.4h-5.6v-0.4h0.5c0.2,0,0.4,0,0.6-0.1c0.2-0.1,0.4-0.2,0.5-0.4c0.2-0.2,0.2-0.7,0.2-1.5v-8.5
		c0-0.4,0-0.9-0.1-1.3c-0.1-0.2-0.2-0.3-0.4-0.4c-0.3-0.2-0.6-0.2-0.9-0.2h-0.5v-0.4h5.6v0.4h-0.5c-0.2,0-0.4,0-0.6,0.1
		c-0.2,0.1-0.4,0.2-0.5,0.4c-0.2,0.2-0.2,0.7-0.2,1.5v8.5c0,0.4,0,0.9,0.1,1.3c0.1,0.2,0.2,0.3,0.4,0.4c0.3,0.2,0.6,0.2,0.9,0.2
		H53.6z"/>
	<path class="st0" d="M75.1,58l0.3,0.1l-1.1,3.6H64.1v-0.4h0.5c0.2,0,0.5,0,0.7-0.1c0.2-0.1,0.4-0.2,0.5-0.4
		c0.1-0.2,0.2-0.7,0.2-1.4v-8.5c0-0.8-0.1-1.3-0.3-1.5c-0.1-0.1-0.3-0.3-0.5-0.3c-0.2-0.1-0.4-0.1-0.6-0.1h-0.5v-0.4h6v0.4
		c-0.5,0-1,0-1.5,0.2c-0.2,0.1-0.5,0.3-0.6,0.5c-0.1,0.5-0.2,1-0.2,1.5v8.3c0,0.4,0,0.8,0.2,1.1c0.1,0.1,0.2,0.2,0.4,0.3
		c0.5,0.1,1,0.1,1.5,0.1h1c0.7,0,1.4,0,2.1-0.2c0.4-0.2,0.8-0.4,1.1-0.8C74.5,59.3,74.9,58.7,75.1,58"/>
	<path class="st0" d="M90.9,61.3v0.4h-5.6v-0.4h0.5c0.2,0,0.4,0,0.7-0.1c0.2-0.1,0.4-0.2,0.5-0.4c0.2-0.2,0.2-0.7,0.2-1.5v-8.5
		c0-0.4,0-0.9-0.1-1.3c-0.1-0.2-0.2-0.3-0.4-0.4c-0.3-0.2-0.6-0.2-0.9-0.2h-0.5v-0.4h5.6v0.4h-0.5c-0.2,0-0.4,0-0.6,0.1
		c-0.2,0.1-0.4,0.2-0.5,0.4C89.1,49.5,89,50,89,50.8v8.5c0,0.4,0,0.9,0.1,1.3c0.1,0.2,0.2,0.3,0.4,0.4c0.3,0.2,0.6,0.2,0.9,0.2H90.9
		z"/>
	<path class="st0" d="M105.1,55.5v3.8c0,0.8,0.1,1.3,0.3,1.5c0.1,0.1,0.3,0.3,0.5,0.3c0.2,0.1,0.4,0.1,0.6,0.1h0.5v0.4h-5.6v-0.4
		h0.5c0.2,0,0.5,0,0.7-0.1c0.2-0.1,0.4-0.2,0.5-0.4c0.2-0.5,0.2-0.9,0.2-1.4v-8.5c0-0.8-0.1-1.3-0.3-1.5c-0.1-0.1-0.3-0.3-0.5-0.3
		c-0.2-0.1-0.4-0.1-0.6-0.1h-0.5v-0.4h4.8c0.9,0,1.9,0.1,2.8,0.4c0.7,0.2,1.3,0.7,1.7,1.2c0.5,0.6,0.7,1.3,0.7,2.1
		c0,0.5-0.1,1-0.3,1.4c-0.2,0.5-0.5,0.9-0.8,1.2c-0.7,0.7-1.7,1-3,1c-0.3,0-0.7,0-1-0.1C105.9,55.6,105.5,55.6,105.1,55.5
		 M105.1,54.9c0.3,0.1,0.6,0.1,0.9,0.1c0.2,0,0.5,0,0.7,0c0.3,0,0.7-0.1,1-0.2c0.3-0.1,0.6-0.3,0.8-0.6c0.5-0.6,0.8-1.3,0.7-2
		c0-0.6-0.1-1.1-0.3-1.6c-0.2-0.5-0.6-0.8-1-1.1c-0.4-0.2-1-0.4-1.5-0.4c-0.4,0-0.9,0.1-1.3,0.2V54.9z"/>
	<path class="st0" d="M125.1,55.5v3.8c0,0.8,0.1,1.3,0.3,1.5c0.1,0.1,0.3,0.3,0.5,0.3c0.2,0.1,0.4,0.1,0.6,0.1h0.5v0.4h-5.6v-0.4
		h0.5c0.2,0,0.5,0,0.7-0.1s0.4-0.2,0.5-0.4c0.2-0.5,0.2-0.9,0.2-1.4v-8.5c0-0.8-0.1-1.3-0.3-1.5c-0.1-0.1-0.3-0.3-0.5-0.3
		s-0.4-0.1-0.6-0.1h-0.5v-0.4h4.8c0.9,0,1.9,0.1,2.8,0.4c0.7,0.2,1.3,0.7,1.7,1.2c0.5,0.6,0.7,1.3,0.7,2.1c0,0.5-0.1,1-0.3,1.4
		c-0.2,0.5-0.5,0.9-0.8,1.2c-0.7,0.7-1.7,1-3,1c-0.3,0-0.7,0-1-0.1C125.9,55.6,125.5,55.6,125.1,55.5 M125.1,54.9
		c0.3,0.1,0.6,0.1,0.9,0.1c0.2,0,0.5,0,0.7,0c0.3,0,0.7-0.1,1-0.2c0.3-0.1,0.6-0.3,0.8-0.6c0.3-0.3,0.4-0.6,0.6-0.9
		c0.1-0.3,0.2-0.7,0.2-1.1c0-0.6-0.1-1.1-0.4-1.6c-0.2-0.5-0.6-0.8-1-1.1c-0.4-0.2-0.9-0.4-1.5-0.4c-0.4,0-0.9,0.1-1.3,0.2V54.9z"/>
	<path class="st0" d="M159.7,55.5v3.8c0,0.8,0.1,1.3,0.3,1.5c0.1,0.1,0.3,0.3,0.5,0.3c0.2,0.1,0.4,0.1,0.6,0.1h0.5v0.4h-5.7v-0.4
		h0.5c0.2,0,0.5,0,0.7-0.1c0.2-0.1,0.4-0.2,0.5-0.4c0.2-0.5,0.2-0.9,0.2-1.4v-8.5c0-0.8-0.1-1.3-0.3-1.5c-0.1-0.1-0.3-0.3-0.5-0.3
		c-0.2-0.1-0.4-0.1-0.6-0.1h-0.5v-0.4h4.8c0.9,0,1.9,0.1,2.8,0.4c0.7,0.2,1.3,0.7,1.7,1.2c0.5,0.6,0.7,1.3,0.7,2.1
		c0,0.5-0.1,1-0.3,1.4c-0.2,0.5-0.5,0.9-0.8,1.2c-0.7,0.7-1.7,1-3,1c-0.3,0-0.7,0-1-0.1C160.4,55.6,160.1,55.6,159.7,55.5
		 M159.6,54.9c0.3,0.1,0.6,0.1,0.9,0.1c0.2,0,0.5,0,0.7,0c0.3,0,0.7-0.1,1-0.2c0.3-0.1,0.6-0.3,0.8-0.6c0.5-0.6,0.8-1.3,0.7-2
		c0-0.6-0.1-1.1-0.3-1.6c-0.2-0.5-0.6-0.8-1-1.1c-0.4-0.2-0.9-0.4-1.5-0.4c-0.4,0-0.8,0.1-1.3,0.2L159.6,54.9z"/>
	<path class="st0" d="M186.9,58l0.3,0.1l-1.1,3.6h-10.2v-0.4h0.5c0.2,0,0.5,0,0.7-0.1c0.2-0.1,0.4-0.2,0.5-0.4
		c0.1-0.2,0.2-0.7,0.2-1.4v-8.5c0-0.8-0.1-1.3-0.3-1.5c-0.1-0.1-0.3-0.3-0.5-0.3c-0.2-0.1-0.4-0.1-0.6-0.1h-0.5v-0.4h6v0.4
		c-0.5,0-1,0-1.5,0.2c-0.2,0.1-0.5,0.3-0.6,0.5c-0.1,0.5-0.2,1-0.2,1.5v8.3c0,0.4,0,0.8,0.2,1.1c0.1,0.1,0.2,0.2,0.4,0.3
		c0.5,0.1,1,0.1,1.5,0.1h1c0.7,0,1.4,0,2.1-0.2c0.4-0.2,0.8-0.4,1.1-0.8C186.4,59.3,186.7,58.7,186.9,58"/>
	<path class="st0" d="M200.7,49.2v5.2h2.9c0.8,0,1.3-0.1,1.5-0.3c0.3-0.3,0.5-0.8,0.6-1.6h0.4v4.6h-0.4c0-0.4-0.1-0.8-0.3-1.2
		c-0.1-0.2-0.3-0.4-0.6-0.5c-0.4-0.2-0.8-0.2-1.2-0.2h-2.9v4.3c0,0.4,0,0.7,0.1,1.1c0.1,0.1,0.1,0.2,0.3,0.3
		c0.2,0.1,0.5,0.1,0.7,0.1h2.2c0.5,0,1.1,0,1.6-0.2c0.4-0.1,0.7-0.3,1-0.6c0.5-0.5,0.9-1.2,1.2-1.8h0.4l-1.2,3.3H197v-0.4h0.5
		c0.3,0,0.6-0.1,0.9-0.2c0.1,0,0.2-0.1,0.3-0.2c0.1-0.1,0.1-0.2,0.2-0.3c0.1-0.4,0.1-0.8,0.1-1.3v-8.6c0-0.8-0.1-1.4-0.3-1.5
		c-0.2-0.1-0.3-0.2-0.5-0.3c-0.2-0.1-0.4-0.1-0.6-0.1H197v-0.4h10.2l0.1,2.9h-0.4c-0.1-0.5-0.2-1-0.5-1.4c-0.2-0.3-0.4-0.5-0.7-0.6
		c-0.4-0.1-0.9-0.2-1.4-0.1L200.7,49.2z"/>
	<path class="st0" d="M224.5,61.3v0.4h-5.7v-0.4h0.5c0.2,0,0.4,0,0.7-0.1c0.2-0.1,0.4-0.2,0.5-0.4c0.2-0.2,0.2-0.7,0.2-1.5v-8.5
		c0-0.4,0-0.9-0.1-1.3c-0.1-0.2-0.2-0.3-0.4-0.4c-0.3-0.2-0.6-0.2-0.9-0.2h-0.5v-0.4h5.7v0.4h-0.5c-0.2,0-0.4,0-0.6,0.1
		c-0.2,0.1-0.4,0.2-0.5,0.4c-0.2,0.2-0.2,0.7-0.2,1.5v8.5c0,0.4,0,0.9,0.1,1.3c0.1,0.2,0.2,0.3,0.4,0.4c0.3,0.2,0.6,0.2,0.9,0.2
		H224.5z"/>
	<path class="st0" d="M234.4,48.5h3.6l8.1,9.9v-7.6c0-0.8-0.1-1.3-0.3-1.5c-0.2-0.1-0.3-0.3-0.5-0.3c-0.2-0.1-0.4-0.1-0.6-0.1h-0.5
		v-0.4h4.6v0.4h-0.5c-0.2,0-0.5,0-0.7,0.1c-0.2,0.1-0.4,0.2-0.5,0.4c-0.2,0.4-0.3,0.9-0.2,1.4v11.1h-0.3l-8.7-10.6v8.1
		c0,0.8,0.1,1.3,0.3,1.5c0.2,0.1,0.3,0.3,0.5,0.3c0.2,0.1,0.4,0.1,0.6,0.1h0.5v0.4h-4.6v-0.4h0.5c0.2,0,0.5,0,0.7-0.1
		c0.2-0.1,0.4-0.2,0.5-0.4c0.2-0.5,0.3-0.9,0.2-1.4v-9.2c-0.3-0.3-0.5-0.6-0.9-0.9c-0.5-0.3-1.1-0.5-1.7-0.5V48.5z"/>
</g>
</svg>
