<?xml version="1.0" encoding="UTF-8"?>
<svg id="Capa_1" xmlns="http://www.w3.org/2000/svg" version="1.1" viewBox="0 0 250 100">
  <!-- Generator: Adobe Illustrator 29.4.0, SVG Export Plug-In . SVG Version: 2.1.0 Build 152)  -->
  <defs>
    <style>
      .st0 {
        fill: none;
      }

      .st1 {
        fill: #777;
      }
    </style>
  </defs>
  <rect class="st0" x="-21.9" y="-98" width="352" height="40"/>
  <path class="st1" d="M73.7,52.5h-7.1v5.1c0,2.5,2.3,2.5,2.6,2.5v.3h-11.3v-.3c.3,0,2.6-.2,2.6-2.5v-15.3c0-2.5-2.3-2.5-2.6-2.5v-.3h15.8c5,0,7.4,3.3,7.4,6.5s-2.3,6.5-7.4,6.5ZM70.9,40.9h-4.3v10.2h4.3c3.3,0,4.8-2.3,4.8-5.1s-1.5-5.1-4.8-5.1ZM102.2,60.5l-9.8-8.1v5.1c0,2.5,2.3,2.5,2.6,2.5v.3h-11.3v-.3c.3,0,2.6-.2,2.6-2.5v-15.3c0-2.5-2.3-2.5-2.6-2.5v-.3h15.8c5,0,7.4,3.3,7.4,6.5s-2.3,6.5-7.4,6.5h-4.8c1.1,1.1,3.4,1.5,5.4,1.5s1.9-.2,2.6-.3l8.1,6.5v.3s-8.7,0-8.7,0ZM96.8,40.9h-4.5v10.2h4.5c3.3,0,4.8-2.3,4.8-5.1s-1.5-5.1-4.8-5.1ZM128.3,60.5v-.3c1.1,0,1.5-.3,1.5-1.1s-.2-.8-.3-1.2l-2.2-3.6h-8.8l-1.5,3.1c-.2.5-.3.9-.3,1.4,0,.8.3,1.2,1.2,1.2v.3h-5.4v-.3c1.2,0,2.2-.9,2.9-2.5l6.5-13-1.9-2.9c-.9-1.5-1.9-1.9-2.9-1.9v-.3h8.7l10.5,18.4c.6,1.1,1.4,2.3,2.8,2.3v.3s-10.8,0-10.8,0ZM122.7,46.1l-3.4,6.7h7.3l-3.9-6.7ZM153.7,60.5h-12.4v-.3c.3,0,2.6-.2,2.6-2.5v-15.3c0-2.5-2.3-2.5-2.6-2.5v-.3h12.4c5.6,0,11.3,3.6,11.3,10.5.2,6.8-5.7,10.4-11.3,10.4ZM158,46.1c0-3.9-2.5-5.3-5.1-5.3h-2.9v18.3h2.9c2.6,0,5.1-1.4,5.1-5.3v-7.7ZM181.3,60.5v-.3c1.1,0,1.5-.3,1.5-1.1s-.2-.8-.3-1.2l-2-3.6h-8.8l-1.5,3.1c-.2.5-.3.9-.3,1.4,0,.8.3,1.2,1.2,1.2v.3h-5.4v-.3c1.2,0,2.2-.9,2.9-2.5l6.5-13-1.9-2.9c-.9-1.5-1.9-1.9-2.9-1.9v-.3h8.5l10.5,18.4c.6,1.1,1.4,2.3,2.8,2.3v.3s-10.8,0-10.8,0ZM175.7,46.1l-3.4,6.8h7.3l-3.9-6.8Z"/>
</svg>