<?xml version="1.0" encoding="utf-8"?>
<!-- Generator: $$$/GeneralStr/196=Adobe Illustrator 27.6.0, SVG Export Plug-In . SVG Version: 6.00 Build 0)  -->
<svg version="1.1" id="Capa_1" xmlns="http://www.w3.org/2000/svg" xmlns:xlink="http://www.w3.org/1999/xlink" x="0px" y="0px"
	 viewBox="0 0 250 100" style="enable-background:new 0 0 250 100;" xml:space="preserve">
<style type="text/css">
	.st0{fill:#777777;}
</style>
<g>
	<path class="st0" d="M186.3,45.3c2.6,0,3.9,2.1,4.1,4.3H182C182.5,46.7,183.9,45.3,186.3,45.3 M186.5,58.9c-2.9,0-4.4-1.7-4.6-5.6
		h14.7c0.3,0,0.4-0.2,0.4-0.4c-0.2-7.2-3.9-11.6-10.7-11.6c-6.6,0-10.5,4.3-10.5,10.9c0,6.2,3.7,10.8,10.6,10.8c5.7,0,9.3-3.3,9.9-7
		c0-0.3-0.2-0.5-0.4-0.5H191c-0.2,0-0.4,0.1-0.5,0.4C190,58.1,188.5,58.9,186.5,58.9 M160.8,53.7v-1.5c0-4.4,2.3-6.4,4.5-6.4
		c1.8,0,3.2,1.4,3.2,3.7v4.2l-0.1,8.3c0,0.3,0.2,0.4,0.4,0.4h5.2c0.3,0,0.4-0.1,0.4-0.4l-0.1-8.3v-4.3c0-5-2.8-8-7.2-8
		c-2.9,0-5.2,1.3-6.6,3.1l0.1-2.2c0-0.3-0.1-0.4-0.4-0.4h-4.9c-0.3,0-0.4,0.1-0.4,0.4l0.1,10.3l-0.2,9.4c0,0.3,0.2,0.4,0.4,0.4h5.3
		c0.3,0,0.4-0.1,0.4-0.4L160.8,53.7z M138.9,53.7v-1.5c0-4.4,2.3-6.4,4.5-6.4c1.8,0,3.2,1.4,3.2,3.7v4.2l-0.1,8.3
		c0,0.3,0.2,0.4,0.4,0.4h5.2c0.3,0,0.4-0.1,0.4-0.4l-0.1-8.3v-4.3c0-5-2.8-8-7.2-8c-2.9,0-5.2,1.3-6.6,3.1l0.1-2.2
		c0-0.3-0.1-0.4-0.4-0.4h-4.9c-0.3,0-0.4,0.1-0.4,0.4l0.1,10.3l-0.2,9.4c0,0.3,0.2,0.4,0.4,0.4h5.3c0.3,0,0.4-0.1,0.4-0.4
		L138.9,53.7z M119.9,58.9c-1.6,0-2.7-0.8-2.7-2.3c0-1.9,1.4-2.6,3.3-2.9c1.6-0.3,3.3-0.5,4.2-1.1v1.3
		C124.7,57.2,122.9,58.8,119.9,58.9 M118.3,63c2.9,0,5.1-1,6.7-3.1l-0.1,2.1c0,0.3,0.1,0.4,0.4,0.4h4.8c0.3,0,0.4-0.1,0.4-0.4
		l-0.1-8.1v-5.1c0-4.8-3.2-7.5-9.2-7.5c-5.6,0-9.2,2.4-9.4,6.4c0,0.3,0.2,0.4,0.4,0.4h4.9c0.2,0,0.4-0.2,0.4-0.4
		c0.2-1.2,1.4-2,3.6-2c2.2,0,3.3,0.8,3.3,1.9c0,1.7-1.9,2-5,2.5c-3.8,0.6-8.3,1.6-8.3,7C111.2,60.8,114.3,63,118.3,63 M99.7,58.7
		c-2.9,0-4.5-2.4-4.4-6.8c0-4.2,1.6-6.4,4.5-6.4c2.9,0,4.5,2.3,4.5,6.8C104.3,56.5,102.7,58.8,99.7,58.7 M101.5,41.4
		c-2.6,0-4.6,1-6.1,2.7l0.1-6.6c0-0.3-0.2-0.4-0.4-0.4h-5.2c-0.3,0-0.4,0.1-0.4,0.4l0.2,10.9L89.4,62c0,0.3,0.2,0.4,0.4,0.4h5.2
		c0.3,0,0.4-0.1,0.4-0.4l-0.1-1.8c1.4,1.7,3.4,2.6,6,2.6c5.6,0,9.1-4.8,9.1-10.8C110.4,46.1,107.3,41.4,101.5,41.4 M76.6,58.9
		c-1.6,0-2.7-0.8-2.7-2.3c0-1.9,1.4-2.6,3.3-2.9c1.6-0.3,3.3-0.5,4.2-1.1v1.3C81.3,57.2,79.5,58.8,76.6,58.9 M74.9,63
		c2.9,0,5.1-1,6.7-3.1L81.5,62c0,0.3,0.1,0.4,0.4,0.4h4.8c0.3,0,0.4-0.1,0.4-0.4l-0.1-8.1v-5.1c0-4.8-3.2-7.5-9.2-7.5
		c-5.6,0-9.2,2.4-9.4,6.4c0,0.3,0.2,0.4,0.4,0.4h4.9c0.2,0,0.4-0.2,0.4-0.4c0.2-1.2,1.4-2,3.6-2c2.2,0,3.3,0.8,3.3,1.9
		c0,1.7-1.9,2-5,2.5c-3.8,0.6-8.3,1.6-8.3,7C67.8,60.8,71,63,74.9,63 M59,53.3c0-4.7,3.1-7.1,7.4-7.1c0.2,0,0.4,0,0.6,0
		c0.3,0,0.5-0.2,0.5-0.4v-3.5c0-0.2-0.1-0.4-0.4-0.5s-0.6-0.1-0.9-0.1c-3,0-5.8,1.2-7.4,3.6l0.1-3.1c0-0.3-0.1-0.4-0.4-0.4h-5.1
		c-0.3,0-0.4,0.1-0.4,0.4l0.2,9.9L53,62c0,0.3,0.2,0.4,0.4,0.4h5.2c0.3,0,0.4-0.1,0.4-0.4L59,53.3z"/>
</g>
</svg>
