<?xml version="1.0" encoding="utf-8"?>
<!-- Generator: $$$/GeneralStr/196=Adobe Illustrator 27.6.0, SVG Export Plug-In . SVG Version: 6.00 Build 0)  -->
<svg version="1.1" id="Capa_1" xmlns="http://www.w3.org/2000/svg" xmlns:xlink="http://www.w3.org/1999/xlink" x="0px" y="0px"
	 viewBox="0 0 250 100" style="enable-background:new 0 0 250 100;" xml:space="preserve">
<style type="text/css">
	.st0{fill:#777777;}
</style>
<g id="Layer_2">
</g>
<path class="st0" d="M11.6,49.8c3.7-0.3,5.7-1.9,5.7-4.2c0-2.1-1.5-4.1-5.9-4.1H3.9v0.6h1.6v15.8H3.9v0.6h6.2v-0.6H8.2v-8h0.1
	l6.5,8.5H19v-0.6h-1.2C17.7,57.9,11.6,49.8,11.6,49.8z M8.2,49.5v-7.4h2.3c2.8,0,3.7,1.8,3.7,3.5c0,2.4-1.5,3.9-4.5,3.9
	C9.8,49.5,8.2,49.5,8.2,49.5z M33,41.5h-1.7l-5.9,16.4H24v0.6h4.7v-0.6h-2.5l2.2-6.2h5.5l2.1,6.2h-1.9v0.6h5.7v-0.6h-1L33,41.5z
	 M28.6,51.4l2.6-7.1h0.1l2.5,7.1C33.7,51.4,28.6,51.4,28.6,51.4z M58.4,51.7H59v6.8H46.5v-0.6h1.6V42.1h-1.6v-0.6h6.9v0.6h-2.6v15.7
	h3.8C56.4,57.9,56.9,57.6,58.4,51.7z M74.6,41.6h-7.4v0.6h1.6v15.7h-1.6v0.6h6.7v-0.5h-2.4v-7.7h3.1c4.2,0,6.2-1.7,6.2-4.2
	C80.8,43.5,78.6,41.6,74.6,41.6z M73.9,49.9h-2.4v-7.6h2.6c2.7,0,3.8,1.5,3.8,3.9C77.9,49.2,76.6,49.9,73.9,49.9z M97.3,41.6h6v0.7
	h-1.6v15.6h1.6v0.6h-6v-0.6h1.6V50h-6.7v7.9h1.7v0.6h-6v-0.6h1.5V42.3h-1.5v-0.7h6v0.7h-1.7v7.2h6.7v-7.2h-1.6
	C97.3,42.3,97.3,41.6,97.3,41.6z M138.6,51.6h0.6v6.9h-12.5v-0.6h1.6V42.1h-1.6v-0.6h6.9v0.6H131v15.7h3.8
	C136.5,57.9,137,57.5,138.6,51.6z M154.5,41.5h-1.7l-6,16.4h-1.5v0.6h4.7v-0.6h-2.5l2.2-6.2h5.5l2.1,6.2h-1.9v0.6h5.7v-0.6h-1
	L154.5,41.5z M149.9,51.4l2.6-7.1h0.1l2.5,7.1H149.9L149.9,51.4z M177.2,41.4h4.6v0.7h-1.6v12c0,2.8-2,4.6-5.1,4.6
	c-4.2,0-6.1-1.7-6.1-5V41.9h-1.6v-0.6h6.2v0.7h-1.8v12.2c0,3,1.7,3.9,3.4,3.9c2.5,0,4.2-1.5,4.2-4.1V42.1h-2.3L177.2,41.4
	L177.2,41.4z M196.7,49.8c3.7-0.3,5.7-1.9,5.7-4.2c0-2.1-1.5-4.1-5.9-4.1H189v0.6h1.6v15.8H189v0.6h6.2v-0.6h-2v-8h0.1l6.5,8.5h4.2
	v-0.6h-1.2C202.7,57.9,196.7,49.8,196.7,49.8z M193.3,49.5v-7.4h2.3c2.8,0,3.7,1.8,3.7,3.5c0,2.4-1.5,3.9-4.5,3.9H193.3L193.3,49.5z
	 M222.8,52.2h0.6v6.3h-13.4v-0.6h1.6V42.1h-1.6v-0.6h13.1v5.3h-0.6c-1.4-4.5-1.8-4.9-3-4.9h-5.1v7.2h2c1.2,0,1.9-0.7,2.4-3.3h0.6
	v7.3h-0.6c-0.6-2.6-1.1-3.3-2.4-3.3h-2v8h4.5C220.8,57.9,221.3,57.2,222.8,52.2L222.8,52.2z M246.1,41.6v0.7h-1.7v16.2h-0.8
	l-10-15.8v15.2h2.1v0.6h-4.6v-0.6h1.7V42.3h-1.7v-0.7h4.9l7.6,12.2h0.1V42.3h-2.1v-0.7C241.7,41.6,246.1,41.6,246.1,41.6z"/>
</svg>
