<?xml version="1.0" encoding="UTF-8"?>
<svg id="Capa_1" xmlns="http://www.w3.org/2000/svg" version="1.1" viewBox="0 0 250 100">
  <!-- Generator: Adobe Illustrator 29.4.0, SVG Export Plug-In . SVG Version: 2.1.0 Build 152)  -->
  <defs>
    <style>
      .st0 {
        fill: #777;
      }
    </style>
  </defs>
  <path class="st0" d="M118.7,34.4l-.8,1.8c-.3,2.1-.5,4.6-.3,6.7s0,.2,0,.4h9.2c-.2-2.5.4-5.4-.5-7.8s-.4-.7-.5-1.1h5.2c0,.3-.3.5-.4.8-.3.6-.5,1.3-.6,2,0,4.1-.3,8.3,0,12.4s.4,2.5,1.1,3.6h-5s0,0,0,0h0c1.6-2.9.8-6.4,1-9.5h-9.2c0,.1,0,.2,0,.4-.1,1.7-.1,5.9.4,7.5s.5,1,.7,1.6h-5s-.2.1-.2,0,.4-.8.5-1c.4-1,.5-1.9.6-3,.2-3.3.2-7.4,0-10.7s-.2-2.1-.6-3.1-.3-.6-.4-.9h5.2Z"/>
  <path class="st0" d="M59.8,53.2s-.2.1-.2,0,.4-.7.4-.8c.3-.7.5-1.3.6-2,0-4,.3-8.2,0-12.2s-.1-1.4-.3-2-.5-1.2-.8-1.8c2.5,0,5.1-.1,7.5,0s5.7.9,6,4-.8,3.9-2.7,4.8-.7.2-1,.4-.1,0,0,.1l3.8,7.2c.5,1.1,1.4,1.5,2.3,2.1s.1,0,.1.2h-4.5s0,0-.1,0l-.2-.3-4.6-8.8h-2.3c.2,3-.6,6.3,1,9h0c0,.1,0,0,0,0-1.6,0-3.2,0-4.8,0ZM63.8,43.7h2.8c3.2,0,4.2-4.5,3.1-6.9s-1.8-1.9-2.9-1.9h-3v8.7Z"/>
  <path class="st0" d="M177.1,34.4l11,14.4h.2c0,.1,0-9.1,0-9.1,0-1.6-.2-2.7-.9-4.1s-.6-.8-.7-1.2h3.7c-.3.6-.8,1.2-1,1.8s-.5,1.8-.6,2.8c-.2,4.6.2,9.4,0,14.1v.2c-.1,0-.9,0-.9,0l-12.2-16h-.2c.1,2.5,0,5.2,0,7.8s-.2,4.9.9,6.7,1,1.2,1,1.3c0,.2-.2,0-.2,0h-3.9c.1-.4.5-.7.7-1.1.5-.8.8-1.8.9-2.8.3-3.8-.2-7.8,0-11.7-.1-1.7-.8-2-1.9-3.1s-.1,0-.1-.2h4.2Z"/>
  <path class="st0" d="M99.6,34.4c0,.2-.2.3-.3.5-.5,1,.2,2.2.6,3.1,1,2,2.2,3.9,3.3,5.8.1-.1.2-.2.3-.4.8-1.3,1.7-2.8,2.4-4.1s1-2.2.9-3.5-.3-.9-.5-1.4h3.9c0,.1,0,.1-.1.2-.4.5-1,1-1.4,1.5-2,2.5-3.5,5.9-5.3,8.6.1,2.1-.4,5.2.3,7.2s.5.9.7,1.3h-5.2c.2-.4.5-.8.6-1.2.8-2.1.3-5.1.4-7.3-2-2.9-3.6-7.4-6.2-9.8s-.5-.3-.5-.5h6Z"/>
  <path class="st0" d="M134.5,53.2s-.2.1-.2,0,1.3-1.5,1.4-1.8c2.4-5.6,4.5-11.3,6.8-17,0-.2.6-.2.6-.1s.2.5.2.6c2.1,5.1,3.8,10.6,6.1,15.5s1.1,2,1.9,2.8h-5.3c0-.2.2-.4.2-.7.4-2.1-1-4.5-1.7-6.3h-6.1c0,0-.1,0-.2,0s-.5,1.2-.6,1.4c-.6,1.8-1.1,3.9,0,5.5v.2c-.1,0-.1,0-.2,0-1.1,0-2.1,0-3.2,0ZM138.8,45.7h5.7c0-.1-2.9-7.4-2.9-7.4l-2.9,7.2h0Z"/>
  <path class="st0" d="M153.8,53.2s0,0-.2,0c0-.3.3-.4.4-.6.5-.6,1-1.3,1.3-2.1l6.5-16.4h.5s6.3,16,6.3,16c.4.8.8,1.7,1.4,2.4s.6.5.5.6c0,0-.1,0-.2,0h-5.1c.9-2.4-.6-4.8-1.4-7.1h-6.1s-.2,0-.2,0c-.9,2.1-1.8,4.3-.8,6.6s.3.4.3.4c0,.2-.2,0-.2,0-1,0-2.3-.1-3.2,0ZM163.6,45.7l-2.8-7.4-2.9,7.2v.2h5.7Z"/>
  <path class="st0" d="M77.4,53.2s0,.1-.2,0c.8-.8,1.4-1.8,1.9-2.9l6.3-16c0-.2.6-.2.6-.1s.3.7.4.9c2.2,5.4,4.1,10.8,6.4,16.1.4.7.8,1.3,1.4,1.9h-5.3c.9-2.4-.6-4.8-1.4-7h-6.1c0,0-.1,0-.2,0,0,.1-.6,1.4-.6,1.6-.6,1.7-.9,3.7.1,5.3v.2c-.1,0-.1,0-.2,0-1.1,0-2.1,0-3.2,0ZM81.6,45.7h5.7c0-.1-2.8-7.4-2.8-7.4l-3,7.2h0Z"/>
  <path class="st0" d="M152.7,64.5l1.6-3.4.9,4.5c0,.1-.5.1-.6,0l-.5-2.9c0,0-.1,0-.1.2-.4.8-.7,1.9-1.2,2.6s0,.2-.2.2l-1.4-2.9-.5,2.9h-.6c0,0,.9-4.6.9-4.6l1.6,3.4Z"/>
  <path class="st0" d="M113.9,61.2h1.4c0,0,.6.2.7.2,2.4.9,1.6,4.3-.9,4.3h-1.4v-4.5h.1ZM114.4,65.2c1.1,0,2.3-.2,2.4-1.5s-1-2.1-2.4-2v3.5Z"/>
  <path class="st0" d="M137.6,61.2c1.5.2,1.8,2,.3,2.5s-.1,0,0,.1c0,.3,1,1.3,1.3,1.7s0,.1,0,.2c-.2,0-.4,0-.6,0-.3-.2-1-1.5-1.3-1.8,0-.1-.3,0-.3,0v1.8h-.5v-4.6c.4,0,.9,0,1.3,0ZM136.8,61.7v1.5c.7.4,1.9-.2,1.4-1.1s-.9-.4-1.4-.4Z"/>
  <path class="st0" d="M145.6,61.2v3.1c0,.2.3.7.5.8.3.2.9.2,1.2,0s.6-.7.6-1v-3h.5s.1.2.1.2c0,1.6.6,4.7-2,4.5s-1.4-3.1-1.5-4.5h.1c0-.1.5-.1.5-.1Z"/>
  <path class="st0" d="M105.8,61.2v3c0,.1.2.6.3.7.4.5,1.4.5,1.7,0s.3-.6.3-.6v-3.2h.5s.1.2.1.2c0,1.6.6,4.7-2,4.5s-1.4-3.1-1.5-4.5v-.2c.1,0,.6,0,.6,0Z"/>
  <path class="st0" d="M131.2,64.6c-.3.5-.3,1.3-1.1,1.1l2.2-4.7,2.2,4.6c-.8.5-.8-.6-1.2-1h-2.2ZM131.6,64h1.5l-.7-1.7c-.1,0-.1,0-.2.2,0,.2-.7,1.5-.7,1.6Z"/>
  <path class="st0" d="M100.4,64.6c-.3.5-.3,1.3-1.1,1.1l2.2-4.7,2.2,4.6c-.8.5-.8-.6-1.2-1h-2.2ZM100.7,64h1.6l-.8-1.7c-.1,0-.1,0-.2.2,0,.2-.7,1.5-.7,1.6Z"/>
  <path class="st0" d="M121.7,61.2v.5h-1.9v1.2h.1c0,.1,1.7.1,1.7.1.1,0,.1.5,0,.5h-1.7s-.2.2-.2.2v1.5h.1c0,.1,1.8.1,1.8.1v.5h-2.5v-4.6h2.5Z"/>
  <polygon class="st0" points="97.7 61.2 97.7 61.7 95.8 61.7 95.8 62.9 95.9 63 97.7 63 97.7 63.4 95.9 63.4 95.8 63.5 95.8 65.2 97.7 65.2 97.7 65.7 95.3 65.7 95.3 61.2 97.7 61.2"/>
  <path class="st0" d="M127.3,65.7c-.2,0-.5,0-.6-.1v-4.4h.1c0-.1,1.1-.1,1.1-.1.3,0,1,.3,1.1.5.6.8,0,1.9-.9,2.1s-.6,0-.8.1v1.8ZM127.3,61.7v1.6c.5,0,1.4,0,1.4-.7s-.7-.9-1.4-.9Z"/>
  <path class="st0" d="M141.4,65.7h-.5v-4.6h2.2c.2.1.2.4,0,.5h-1.6c0,.5-.1,1,0,1.3h1.5c.2.1.2.4,0,.5h-1.6v2.2Z"/>
</svg>