<?xml version="1.0" encoding="UTF-8"?>
<svg id="Capa_1" xmlns="http://www.w3.org/2000/svg" version="1.1" viewBox="0 0 250 100">
  <!-- Generator: Adobe Illustrator 29.6.1, SVG Export Plug-In . SVG Version: 2.1.1 Build 9)  -->
  <defs>
    <style>
      .st0 {
        fill: #777;
      }
    </style>
  </defs>
  <g id="header__logo-svg__fill">
    <path class="st0" d="M176.73,51.39l3.36-6.56,3.39,6.56h-6.75ZM182.91,38.38h-5.62l-12.59,23.35h6.49s2.53-4.84,2.85-5.43h12.14l2.85,5.43h6.48l-12.58-23.35ZM36.7,50.11h-8.45v-6.83h8.75c2.95,0,4.86,1.33,4.86,3.39s-1.93,3.44-5.16,3.44h0ZM41.77,54.34c2.93-.9,6.32-3.55,6.32-7.56,0-5.02-4.58-8.25-11.66-8.25h-14.34v22.96h6.16v-6.54h6.88c.59.69,2.17,2.26,6.19,6.34l7.76.2-7.3-7.15ZM70.85,57.46c-2.22,0-9.46-.55-9.46-7.6,0-5.42,4.87-7.36,9.46-7.36s9.66,1.94,9.66,7.36-4.99,7.6-9.66,7.6h0ZM70.94,37.85c-10.38,0-15.1,6.36-15.1,12.26,0,4.83,4,12,15.02,12s15.18-7.16,15.18-12c0-5.89-4.72-12.26-15.1-12.26h0ZM116.73,54.47l-.3.32c-1.69,1.73-4.51,2.72-7.79,2.72-2.2,0-9.43-.56-9.43-7.71,0-5.52,4.88-7.48,9.43-7.48,3.75,0,6.8,1.24,8.39,3.41l.4.55,3.84-3.55-.44-.46c-1.92-2.12-5.56-4.65-12.09-4.65-10.37,0-15.08,6.44-15.08,12.43,0,4.91,4,12.19,15.01,12.19,6.61,0,10.3-2.61,12.23-4.81l.54-.63-4.72-2.31ZM150.2,38.48v8.88h-13.09v-8.88h-5.64v23.01h5.64v-9.65h13.09v9.65h5.62v-23.01h-5.62ZM218.1,47.64l-4.86-.24c-3.42-.04-5.46-.92-5.46-2.36,0-1.62,2.46-2.83,5.69-2.83,3.59,0,6.33.87,8.37,2.66l.44.35,3.97-3.29-.53-.49c-1.92-1.7-5.46-3.73-11.41-3.73s-12.34,2.01-12.34,7.67c0,3.01,3.33,6.23,9.76,6.57l5.66.26c4.66.14,4.66,1.47,4.66,2.17,0,1.46-2.38,2.99-6.37,3.07-6.71.08-9.44-2.08-10.33-2.8l-.43-.33-3.96,3.55.6.45c2.49,1.96,7.27,4.06,13.15,4.06,7.66,0,13.2-3.29,13.2-7.83,0-4.27-3.78-6.92-9.81-6.92h0Z"/>
  </g>
</svg>