<?xml version="1.0" encoding="UTF-8"?>
<svg id="Capa_1" xmlns="http://www.w3.org/2000/svg" version="1.1" viewBox="0 0 250 100">
  <!-- Generator: Adobe Illustrator 29.6.1, SVG Export Plug-In . SVG Version: 2.1.1 Build 9)  -->
  <defs>
    <style>
      .st0 {
        fill: #777;
      }
    </style>
  </defs>
  <g>
    <path class="st0" d="M23.22,40.97l.08-.08h0c1.21-.4,2.35-1.21,3.16-2.19.89-1.13,1.3-2.43,1.3-3.81,0-.73-.16-1.46-.4-2.19-.24-.65-.57-1.3-1.05-1.86-.89-1.13-2.11-1.86-3.48-2.27h-.16c-1.05-.24-2.51-.32-3.32-.32h-6.23v21.78h2.67v-8.66h4.45l5.02,8.66h3.24l-5.26-9.07ZM19.66,38.95h-3.81v-8.1h3.64c1.46,0,2.11.16,2.59.24h0c1.7.49,2.91,2.02,2.91,3.81,0,.89-.32,1.7-.81,2.43-.49.65-1.21,1.13-2.11,1.38-.57.08-1.54.24-2.43.24Z"/>
    <polygon class="st0" points="80.63 28.26 80.63 50.12 91.4 50.12 91.4 47.61 83.54 47.61 83.54 40.24 91.07 40.24 91.07 37.65 83.54 37.65 83.54 30.85 91.4 30.85 91.4 28.26 80.63 28.26"/>
    <path class="st0" d="M106.46,39.27s.08-.08.16-.08c3.08-.89,5.42-3.89,5.42-7.21s-2.43-6.48-5.67-7.21l-.16-.08c-1.21-.24-2.83-.4-3.97-.4h-7.29v25.75h2.83v-10.36h5.67l5.99,10.36h3.4l-6.4-10.77ZM102.57,37.17h-4.78v-10.2h4.62c1.86,0,2.67.16,3.16.32,2.11.57,3.64,2.43,3.64,4.7s-1.54,4.21-3.64,4.78c-.73.24-1.94.4-3,.4Z"/>
    <path class="st0" d="M174.88,28.34h-2.19l-8.34,21.78h3l2.02-5.42h8.91l2.02,5.42h3l-8.42-21.78ZM170.26,42.11l3.56-9.39,3.56,9.39h-7.13Z"/>
    <polygon class="st0" points="185.73 28.34 185.73 50.12 195.61 50.12 195.61 47.61 188.56 47.61 188.56 28.34 185.73 28.34"/>
    <polygon class="st0" points="198.2 28.34 198.2 50.12 208.16 50.12 208.16 47.61 201.11 47.61 201.11 28.34 198.2 28.34"/>
    <polygon class="st0" points="210.67 28.34 210.67 50.12 221.43 50.12 221.43 47.61 213.5 47.61 213.5 40.32 221.03 40.32 221.03 37.73 213.5 37.73 213.5 30.85 221.43 30.85 221.43 28.34 210.67 28.34"/>
    <polygon class="st0" points="223.94 28.34 223.94 30.85 228.96 30.85 228.96 50.12 231.88 50.12 231.88 30.85 236.9 30.85 236.9 28.34 223.94 28.34"/>
    <path class="st0" d="M41.44,27.85c-6.23,0-11.34,5.1-11.34,11.42s5.1,11.34,11.34,11.34,11.34-5.1,11.34-11.34c.08-6.32-5.02-11.42-11.34-11.42ZM41.44,47.85c-4.78,0-8.66-3.89-8.66-8.66s3.89-8.66,8.66-8.66,8.66,3.89,8.66,8.66c0,4.78-3.89,8.66-8.66,8.66Z"/>
    <path class="st0" d="M66.7,30.53c1.38,0,2.83.32,4.05.97,1.13.57,2.19,1.46,3,2.59l1.94-1.86c-2.19-2.75-5.42-4.37-8.99-4.37-6.23,0-11.34,5.1-11.34,11.42s5.1,11.34,11.34,11.34,11.17-4.86,11.34-10.93h-10.04v2.51h6.88l-.08.16c-.65,1.62-1.7,3-3.16,3.97-1.46,1.05-3.16,1.62-4.94,1.62-4.78,0-8.66-3.89-8.66-8.66,0-4.86,3.89-8.74,8.66-8.74Z"/>
    <path class="st0" d="M131.8,47.45c1.46-1.21,2.27-2.27,2.27-2.27l-1.38-1.54s-.81.73-1.86,1.62l-.4.4-6.8-8.58h5.91l-1.54-2.19h-9.31l3.32,4.37s-3.16,1.13-3.4,5.34c-.08,1.46,1.3,6.23,6.32,5.91,1.86-.08,3.56-.81,4.94-1.78l1.3,1.62h3l-2.35-2.91ZM126.05,48.02c-2.43.57-4.62-.32-4.86-3-.24-2.75,2.51-3.72,2.51-3.72l4.78,5.83c-.73.32-1.46.65-2.43.89Z"/>
    <path class="st0" d="M151.23,26.88c1.7,0,3.4.4,4.86,1.21,1.46.73,2.67,1.86,3.64,3.16h0l2.02-1.94h0c-2.51-3.32-6.4-5.18-10.53-5.18-7.29,0-13.28,5.91-13.28,13.28s5.91,13.28,13.28,13.28,12.87-5.51,13.28-12.55h-11.5v2.59h8.26v.08c-.73,2.11-2.02,3.89-3.81,5.18-1.78,1.3-3.97,2.02-6.15,2.02-5.83,0-10.53-4.7-10.53-10.53-.08-5.91,4.7-10.61,10.45-10.61Z"/>
  </g>
  <g>
    <path class="st0" d="M60.47,64.05c0,1.94-1.62,3.16-3.81,3.16h-2.35v-6.4h2.35c2.19.08,3.81,1.3,3.81,3.24ZM56.66,66.88c1.62,0,2.51-.97,2.51-2.83s-.97-2.83-2.51-2.83h-1.13v5.59h1.13v.08Z"/>
    <path class="st0" d="M61.84,60.89h1.21v6.4h-1.21v-6.4Z"/>
    <path class="st0" d="M69.86,65.42c0,1.38-1.38,1.86-2.67,1.86-1.62,0-2.91-.65-2.91-1.62,0-.24.08-.57.32-.89h.24c.16.97.97,2.11,2.35,2.11,1.13,0,1.78-.32,1.78-.89,0-.81-.73-1.05-1.94-1.38-1.38-.4-2.59-.73-2.59-2.11s1.38-1.86,2.59-1.86c1.62,0,2.59.81,2.59,1.62,0,.24-.08.57-.32.81h-.24c-.08-.89-.73-2.11-2.11-2.11-.97,0-1.7.32-1.7.97,0,.73.89.97,1.94,1.3,1.54.57,2.67.89,2.67,2.19Z"/>
    <path class="st0" d="M76.9,62.51c-.73-.81-1.46-1.21-2.59-1.3v5.99h-1.21v-5.99c-1.13,0-1.86.4-2.59,1.3v-1.7h6.4v1.7h0Z"/>
    <path class="st0" d="M78.2,60.89h1.21v6.4h-1.21v-6.4Z"/>
    <path class="st0" d="M81.92,66.88c1.7,0,3-.32,3.89-1.46v1.86h-5.1v-6.4h1.21v5.99Z"/>
    <path class="st0" d="M88.24,66.88c1.7,0,3-.32,3.89-1.46v1.86h-5.1v-6.4h1.21v5.99Z"/>
    <path class="st0" d="M99.74,67.29h-1.3l-1.05-2.27h-2.67c-.32.65-.49,1.13-.49,1.62,0,.16.08.4.08.57h-1.3l3.4-6.64,3.32,6.72ZM97.15,64.62c-.4-.89-.65-1.54-1.13-2.43-.57,1.13-.89,1.7-1.21,2.43h2.35Z"/>
    <path class="st0" d="M105.73,62.51c-.73-.81-1.46-1.21-2.59-1.3v5.99h-1.21v-5.99c-1.13,0-1.86.4-2.59,1.3v-1.7h6.4v1.7h0Z"/>
    <path class="st0" d="M108.16,66.88c1.7,0,3.08-.32,3.97-1.46v1.86h-5.1v-6.4h5.02v1.7c-.89-1.13-2.35-1.3-3.81-1.3v2.43c1.05,0,2.35-.08,3.32-.4v1.13c-1.05-.32-2.27-.32-3.32-.4v2.83h-.08Z"/>
    <path class="st0" d="M116.34,67.37c-2.11,0-2.83-.89-2.83-2.43v-4.05h1.21v4.13c0,1.05.32,1.94,1.7,1.94,1.54,0,2.02-.73,2.02-1.94v-4.13h.4v4.13c-.08,1.38-.65,2.35-2.51,2.35Z"/>
    <path class="st0" d="M126.13,67.29h-1.38c-.16-.32-.32-1.05-.4-1.78-.16-.89-.32-1.38-1.3-1.38h-1.7v3.08h-1.13v-6.4h2.83c1.7,0,2.75.49,2.75,1.62,0,.81-.57,1.21-1.46,1.46.89.24,1.21.65,1.3,1.54.08.73.24,1.46.49,1.86ZM122.81,63.81c1.13,0,1.78-.4,1.78-1.3s-.57-1.21-1.54-1.21h-1.54v2.51h1.3Z"/>
    <path class="st0" d="M136.5,64.05c0,1.94-1.62,3.16-3.81,3.16h-2.35v-6.4h2.35c2.19.08,3.81,1.3,3.81,3.24ZM132.69,66.88c1.62,0,2.51-.97,2.51-2.83s-.97-2.83-2.51-2.83h-1.13v5.59h1.13v.08Z"/>
    <path class="st0" d="M139.09,66.88c1.7,0,3.08-.32,3.97-1.46v1.86h-5.1v-6.4h5.02v1.7c-.89-1.13-2.35-1.3-3.81-1.3v2.43c1.05,0,2.35-.08,3.32-.4v1.13c-1.05-.32-2.27-.32-3.32-.4v2.83h-.08Z"/>
    <path class="st0" d="M151.4,63.97c1.05.16,1.86.65,1.86,1.54,0,1.21-.97,1.7-2.83,1.7h-3v-6.4h2.83c1.7,0,2.67.49,2.67,1.62,0,.89-.65,1.3-1.54,1.54ZM148.56,61.3v2.59h1.38c1.05,0,1.78-.4,1.78-1.38,0-.89-.57-1.21-1.7-1.21h-1.46ZM150.18,66.88c1.13,0,1.78-.49,1.78-1.38s-.65-1.3-1.94-1.3h-1.46v2.75l1.62-.08h0Z"/>
    <path class="st0" d="M161.03,64.05c0,1.94-1.54,3.24-3.4,3.24s-3.4-1.3-3.4-3.24,1.54-3.32,3.4-3.32c1.86.08,3.4,1.38,3.4,3.32ZM159.74,64.05c0-1.7-.81-2.91-2.11-2.91s-2.11,1.21-2.11,2.91.81,2.91,2.11,2.91,2.11-1.21,2.11-2.91Z"/>
    <path class="st0" d="M167.91,60.89v6.4h-.24l-4.86-5.83c0,3.32.16,4.45.81,5.83h-1.3v-6.4h1.38l3.72,4.45v-4.45h.49Z"/>
    <path class="st0" d="M175.2,60.89v6.4h-1.21v-3.16h-3.4v3.16h-1.21v-6.4h1.21v2.83h3.4v-2.83h1.21Z"/>
    <path class="st0" d="M177.95,66.88c1.7,0,3.08-.32,3.97-1.46v1.86h-5.1v-6.4h5.02v1.7c-.89-1.13-2.35-1.3-3.81-1.3v2.43c1.05,0,2.35-.08,3.32-.4v1.13c-1.05-.32-2.27-.32-3.32-.4v2.83h-.08Z"/>
    <path class="st0" d="M186.05,67.37c-2.11,0-2.83-.89-2.83-2.43v-4.05h1.21v4.13c0,1.05.32,1.94,1.7,1.94,1.54,0,2.02-.73,2.02-1.94v-4.13h.4v4.13c-.08,1.38-.65,2.35-2.51,2.35Z"/>
    <path class="st0" d="M195.85,67.29h-1.38c-.16-.32-.32-1.05-.4-1.78-.16-.89-.32-1.38-1.3-1.38h-1.7v3.08h-1.21v-6.4h2.83c1.7,0,2.75.49,2.75,1.62,0,.81-.57,1.21-1.46,1.46.89.24,1.21.65,1.3,1.54.16.73.32,1.46.57,1.86ZM192.53,63.81c1.13,0,1.78-.4,1.78-1.3s-.57-1.21-1.54-1.21h-1.54v2.51h1.3Z"/>
  </g>
  <g>
    <path class="st0" d="M105.57,73.36c0,1.46-1.21,2.43-2.91,2.43h-1.78v-4.86h1.78c1.7,0,2.91.97,2.91,2.43ZM102.65,75.46c1.21,0,1.94-.73,1.94-2.11s-.73-2.11-1.94-2.11h-.89v4.29l.89-.08h0Z"/>
    <path class="st0" d="M107.51,75.46c1.3,0,2.27-.24,3-1.13v1.46h-3.89v-4.86h3.81v1.3c-.65-.89-1.78-.97-2.91-.97v1.86c.81,0,1.78-.08,2.51-.32v.89c-.81-.24-1.7-.24-2.51-.32v2.11h0Z"/>
    <path class="st0" d="M115.77,72.31c0,.97-.89,1.38-1.94,1.38h-1.38v2.02h-.89v-4.86h2.27c1.05.08,1.94.49,1.94,1.46ZM113.5,73.44c.89,0,1.38-.4,1.38-1.13s-.4-1.13-1.21-1.13h-1.21v2.19l1.05.08h0Z"/>
    <path class="st0" d="M118.93,75.87c-1.62,0-2.19-.73-2.19-1.86v-3.08h.89v3.16c0,.73.24,1.46,1.3,1.46,1.21,0,1.54-.57,1.54-1.46v-3.16h.32v3.16c0,1.05-.4,1.78-1.86,1.78Z"/>
    <path class="st0" d="M121.84,70.93h.89v4.86h-.89v-4.86Z"/>
    <path class="st0" d="M128,74.41c0,1.05-1.05,1.46-2.02,1.46-1.21,0-2.19-.49-2.19-1.21,0-.16.08-.4.24-.65h.16c.08.73.73,1.62,1.78,1.62.89,0,1.38-.24,1.38-.73,0-.65-.57-.81-1.46-1.05-1.05-.32-1.94-.57-1.94-1.54,0-1.05,1.05-1.38,1.94-1.38,1.21,0,1.94.57,1.94,1.21,0,.16-.08.4-.24.65h-.16c-.08-.65-.57-1.62-1.54-1.54-.73,0-1.3.24-1.3.73,0,.57.65.73,1.46.97,1.05.24,1.94.49,1.94,1.46Z"/>
    <path class="st0" d="M133.34,70.93c-.08,1.38-.49,2.43-1.94,2.43h-.32v-.32c1.3-.08,1.94-1.13,2.02-2.11h.24ZM133.1,70.93h.89v4.86h-.89v-4.86Z"/>
    <path class="st0" d="M138.04,73.28c.81.16,1.54.57,1.46,1.3,0,.89-.97,1.3-2.11,1.3s-2.11-.4-2.11-1.3c0-.73.73-1.13,1.46-1.3-.65-.16-1.3-.57-1.3-1.21,0-.81.89-1.21,1.86-1.21s1.86.4,1.86,1.21c.16.65-.4,1.05-1.13,1.21ZM138.6,74.57c0-.65-.4-1.05-1.13-1.13-.73.08-1.13.57-1.13,1.13,0,1.3,2.27,1.3,2.27,0ZM137.47,73.12c.65-.08.97-.49.97-1.05,0-.4-.32-.89-.97-.89s-.97.49-.97.89c0,.57.32.97.97,1.05Z"/>
    <path class="st0" d="M144.59,74.25c0,.97-.81,1.62-2.02,1.62s-2.11-.81-2.11-2.19c0-1.46.97-2.59,2.75-2.83h0c.16-.08.49-.08.81-.08v.24c-.32,0-.57,0-.73.08-1.38.24-1.78,1.21-1.86,2.35.24-.49.73-.73,1.38-.73,1.05,0,1.78.57,1.78,1.54ZM143.7,74.33c0-.81-.4-1.21-1.05-1.21s-1.13.4-1.13,1.21c.08,1.7,2.19,1.54,2.19,0Z"/>
    <path class="st0" d="M145.89,75.46c1.7-.08,2.35-.32,3.24-.73v1.05h-3.97v-.16c1.86-1.21,2.91-2.19,2.91-3.24,0-.73-.32-1.13-.97-1.13-.89,0-1.3,1.13-1.21,1.86-.32-.4-.49-.73-.49-.97,0-.65.65-1.21,1.7-1.21.97,0,1.94.49,1.94,1.46,0,1.3-1.38,2.11-2.83,2.91l-.32.16Z"/>
  </g>
</svg>