<?xml version="1.0" encoding="utf-8"?>
<!-- Generator: $$$/GeneralStr/196=Adobe Illustrator 27.6.0, SVG Export Plug-In . SVG Version: 6.00 Build 0)  -->
<svg version="1.1" id="Capa_1" xmlns="http://www.w3.org/2000/svg" xmlns:xlink="http://www.w3.org/1999/xlink" x="0px" y="0px"
	 viewBox="0 0 250 100" style="enable-background:new 0 0 250 100;" xml:space="preserve">
<style type="text/css">
	.st0{fill:#777777;}
</style>
<g id="Layer_2">
</g>
<g>
	<path class="st0" d="M56.8,60.7c0-1.2,0-2.4,0-3.7c0-0.7-0.1-1.4,0-2.1c0-0.7,0-1.4,0-2.1c0-0.6,0-1.3,0-1.9c-0.1-1.6,0-3.2,0-4.8
		c0-1.6,0-3.2,0-4.8c0-0.7,0-1.3,0-2c0-1.2,0-2.3,0-3.5c0-0.8,0-1.6,0-2.5c0-0.1,0-0.2,0-0.2c0-0.1,0.1-0.1,0.1-0.2
		c0.1,0,0.2,0,0.2,0.1c0.2,0.5,0.7,0.6,1.1,0.8c0.1,0,0.2,0,0.2,0c1.2,0,2.4,0,3.7,0c0.7,0,1.5,0,2.2,0c0.3,0,0.7,0,1,0
		c2,0,4,0,5.9,0c0.8,0,1.5,0,2.3,0.1c0.5,0.1,1,0.1,1.6,0.2c0.3,0.1,0.6,0.1,1,0.2c0.3,0.1,0.6,0.1,0.9,0.2c0.3,0.2,0.7,0.2,1,0.4
		c0,0,0,0,0,0c0.4,0,0.6,0.3,0.9,0.4c0.3,0.2,0.6,0.3,0.8,0.5c0.1,0.1,0.3,0.2,0.4,0.2c0.6,0.4,1,0.9,1.6,1.3
		c0.2,0.2,0.4,0.2,0.6,0.1c0.1,0,0.2-0.1,0.2-0.3c-0.1-0.4-0.4-0.8-0.8-1.1c-0.1-0.1-0.3-0.1-0.5-0.2c-0.4-0.1-0.8-0.3-1.2-0.5
		c-0.5-0.2-0.9-0.5-1.4-0.7c-0.5-0.2-1-0.5-1.5-0.6c-0.8-0.2-1.5-0.4-2.3-0.5c-0.5-0.1-1-0.1-1.5-0.2c-0.3,0-0.7-0.1-1-0.1
		c-2.6,0-5.2,0-7.8,0c-0.6,0-1.1,0-1.7,0c-1.5,0-2.9,0-4.4,0c-0.5,0-0.9-0.2-1.2-0.5c-0.2-0.1-0.4-0.2-0.5-0.4
		c-0.1-0.1-0.2-0.3-0.1-0.4c0-0.1,0.2-0.3,0.4-0.3c0.9,0,1.8,0,2.7,0c0.7,0,1.5,0.1,2.2,0c1.1,0,2.2,0,3.3,0c0.8,0,1.5,0,2.3,0
		c0.8,0,1.7,0,2.5,0c0.7,0,1.3,0,1.9,0c0.6,0,1.2,0.1,1.8,0.2c0.4,0.1,0.8,0,1.2,0.1c0,0,0,0,0.1,0c0.6,0.2,1.2,0.3,1.8,0.4
		c0.5,0.1,0.9,0.3,1.3,0.4c0.5,0.1,0.9,0.4,1.3,0.6c0.6,0.3,1.1,0.8,1.6,1.2c0.3,0.2,0.5,0.5,0.7,0.7c0.3,0.3,0.5,0.7,0.8,1.1
		c0.1,0.1,0.2,0.2,0.2,0.3c0.1,0.2,0.2,0.4,0.3,0.5c0.3,0.6,0.5,1.2,0.7,1.8c0.1,0.3,0.2,0.6,0.2,0.9c0.1,0.4,0.1,0.8,0.1,1.2
		c0,0.3,0,0.5,0,0.8c0,1.1-0.1,2.2-0.4,3.3c-0.1,0.3-0.2,0.6-0.3,0.9c-0.1,0.3-0.2,0.5-0.3,0.8c-0.3,0.5-0.5,1-0.8,1.5
		c-0.3,0.5-0.7,0.9-1.1,1.3c-0.5,0.5-1.1,0.9-1.8,1.3c-0.5,0.3-1,0.6-1.6,0.9c-0.1,0.1-0.2,0.1-0.3,0.1c-0.1,0-0.2,0.1-0.1,0.3
		c0.3,0.5,0.7,1,1,1.6c0.3,0.5,0.5,1,0.8,1.4c0.1,0.2,0.3,0.4,0.3,0.6c0.2,0.5,0.6,0.9,0.8,1.4c0.3,0.5,0.6,0.9,0.8,1.4
		c0.1,0.2,0.2,0.4,0.3,0.6c0.3,0.5,0.5,0.9,0.8,1.4c0.3,0.5,0.6,0.9,0.9,1.4c0.3,0.6,0.7,1.1,1,1.7c0.3,0.6,0.7,1.1,1,1.7
		c0.1,0.2,0.3,0.5,0.4,0.7c0.1,0.2,0.1,0.4,0,0.6c-0.2,0.3-0.4,0.4-0.8,0.4c-0.4,0-0.9,0-1.3,0c-0.4,0-0.8,0-1.3,0
		c-0.7,0-1.4,0-2.2,0c-0.3,0-0.7,0-1,0c-0.2,0-0.3-0.1-0.3-0.2c-0.3-0.7-0.7-1.2-1.1-1.8c-0.2-0.3-0.4-0.7-0.6-1
		c-0.4-0.6-0.7-1.2-1.1-1.9c-0.3-0.4-0.5-0.9-0.8-1.3c-0.3-0.6-0.7-1.1-1-1.7c-0.2-0.4-0.5-0.8-0.7-1.3c-0.3-0.6-0.7-1.2-1-1.8
		c-0.1-0.2-0.2-0.4-0.3-0.6c-0.5-0.8-0.9-1.6-1.4-2.4c-0.1-0.1-0.1-0.1-0.2-0.2c-0.4-0.1-0.9-0.1-1.3,0c-0.4,0-0.9,0-1.3,0
		c-1.4,0-2.8,0-4.3,0c-0.3,0-0.5,0-0.8,0c-0.2,0-0.3,0.2-0.3,0.4c0,0.3,0,0.6,0,0.9c0,0.2,0,0.3,0,0.5c0,0.3-0.1,0.6,0,0.9
		c0,0.5,0.1,1,0,1.5c0,0.5,0,0.9,0,1.4c0,0.6,0,1.2,0,1.8c0,0.2,0,0.5,0,0.7c0,0.6,0,1.1,0,1.7c0,0.5,0,1,0,1.5c0,0.7,0,1.4,0,2.1
		c0,0.3-0.4,0.7-0.6,0.7c-0.1,0-0.3,0-0.4,0c-1.4,0-2.8,0-4.2,0c-0.2,0-0.5,0-0.7-0.1c-0.1,0-0.2-0.1-0.1-0.2c0-0.2,0-0.5,0-0.7
		c0-0.1,0-0.3,0.1-0.4c0.1-0.1,0.1-0.2,0.2-0.2c0.3,0,0.6-0.1,0.8-0.1c0.4-0.1,0.8,0,1.2,0c0.5,0,1.1,0,1.6,0c0.4,0,0.8,0,1.2,0.1
		c0.1,0,0.2,0,0.3-0.1c0.1-0.1,0-0.3,0-0.4c-0.1-0.1-0.2-0.1-0.2,0c-0.1,0.1-0.3,0-0.4,0c-0.4,0-0.7,0-1.1,0c-0.8-0.1-1.7,0-2.5,0
		c-0.3,0-0.6,0-0.8,0c-0.2,0-0.3-0.1-0.3-0.3c0-0.8,0-1.6,0-2.4C56.8,61.9,56.8,61.3,56.8,60.7C56.8,60.7,56.8,60.7,56.8,60.7z
		 M68.7,47.3c1.2,0,2.9,0,4.6,0c0.6,0,1.1-0.2,1.6-0.4c0.5-0.2,1-0.4,1.4-0.7c0.5-0.4,1.1-0.7,1.4-1.4c0,0,0-0.1,0-0.1
		c0.1-0.2,0.2-0.4,0.2-0.7c0-0.2,0.1-0.3,0.1-0.5c0-0.1,0.1-0.2,0.1-0.2c0.1-0.6,0-1.2,0-1.8c0-0.1,0-0.1-0.1-0.1
		C78,41.5,78,41.3,78,41.2c0-0.5-0.3-0.8-0.5-1.2c-0.3-0.4-0.6-0.8-1.1-1c-0.4-0.2-0.8-0.5-1.2-0.6c-0.4-0.1-0.9-0.3-1.3-0.4
		c-0.6-0.1-1.3-0.1-1.9-0.1c-2.8,0-5.7,0-8.5,0c-0.1,0-0.2,0-0.3,0c-0.2,0-0.2,0.1-0.2,0.3c0,0.1,0,0.3,0,0.4c0,0.4,0,0.7,0,1.1
		c0,1,0,1.9,0,2.9c0,0.6,0,1.2,0,1.8c0,0.7,0,1.4,0,2.1c0,0.2,0,0.4,0,0.6c0,0.2,0.1,0.3,0.3,0.3c0.2,0,0.3,0,0.5,0
		C65.2,47.3,66.8,47.3,68.7,47.3z M64.7,51.2c-0.4,0-0.8,0-1.2,0c-0.3,0-0.6,0-0.8,0.3c0,0-0.1,0-0.1,0c-0.4,0.1-0.6,0.3-0.7,0.6
		c-0.1,0.1-0.1,0.3-0.1,0.4c-0.2,0.3-0.1,0.6,0.1,0.9c0,0.1,0.1,0.1,0.1,0.2c-0.1,0.1,0,0.3,0.1,0.4c0,0.1,0.1,0.2,0.2,0.1
		c0.1,0,0.1-0.1,0.1-0.2c0-0.3,0-0.7-0.1-1c-0.1-0.2,0-0.6,0.2-0.7c0.1-0.1,0.2-0.2,0.3-0.3c0.1-0.1,0.2-0.2,0.4-0.3
		c0.4-0.1,0.7-0.2,1.1-0.2c1.3,0,2.6,0,3.8,0c0.1,0,0.2,0,0.4,0c0.4,0,0.9,0,1.3,0c0.4,0,0.7,0.1,1,0.2c0.2,0.1,0.4,0.2,0.6,0.3
		c0.2,0.1,0.4,0.2,0.5,0.4c0.1,0.2,0.2,0.4,0.4,0.6c0.1,0.1,0.1,0.1,0.2,0.2c0.1,0.2,0.2,0.5,0.3,0.7c0.2,0.4,0.5,0.8,0.7,1.2
		c0.1,0.2,0.3,0.4,0.4,0.6c0.2,0.4,0.4,0.8,0.6,1.1c0.2,0.2,0.3,0.4,0.4,0.6c0.3,0.6,0.7,1.1,1,1.7c0.1,0.1,0.1,0.3,0.2,0.4
		c0.3,0.3,0.4,0.6,0.5,0.9c0.2,0.5,0.6,0.9,0.8,1.3c0.1,0.3,0.3,0.5,0.5,0.8c0.4,0.6,0.6,1.3,1.1,1.8c0,0,0,0.1,0.1,0.1
		c0.1,0.3,0.3,0.5,0.6,0.6c0.3,0.2,0.7,0.3,1.1,0.4c0.4,0.1,0.9,0,1.3,0c0.3,0,0.6,0,0.8,0c0.6,0,1.1,0.3,1.7,0.5
		c0.2,0.1,0.3,0.2,0.5,0.2c0.1,0,0.2,0.1,0.2,0c0-0.1-0.1-0.2-0.2-0.2c-0.2-0.1-0.4-0.1-0.5-0.2c-0.2-0.2-0.5-0.1-0.7-0.2
		c-0.3-0.1-0.7-0.2-1.1-0.3c-0.4-0.1-0.9,0-1.4,0c-0.2,0-0.5,0-0.7-0.1c-0.3-0.1-0.5-0.1-0.7-0.3c-0.4-0.3-0.6-0.7-0.8-1.1
		c-0.1-0.2-0.2-0.3-0.3-0.5c-0.1-0.3-0.4-0.5-0.5-0.8c-0.1-0.3-0.4-0.6-0.6-0.9c0-0.1,0-0.2-0.1-0.2c-0.3-0.3-0.4-0.7-0.6-1
		c-0.1-0.3-0.3-0.5-0.4-0.8c-0.2-0.3-0.4-0.6-0.6-0.9c-0.2-0.4-0.4-0.7-0.6-1.1c-0.3-0.5-0.5-1-0.9-1.5c-0.2-0.2-0.2-0.5-0.4-0.7
		c-0.2-0.3-0.5-0.6-0.6-1c0,0,0,0,0-0.1c-0.3-0.3-0.5-0.7-0.7-1.1c-0.2-0.3-0.4-0.6-0.6-0.9c-0.3-0.4-0.7-0.7-1.2-0.9
		c-0.1,0-0.1,0-0.2,0c-0.7-0.1-1.4-0.1-2.1-0.1c-0.5,0-0.9-0.1-1.4,0c-0.4,0-0.8,0-1.2,0C65.6,51.1,65.2,51.2,64.7,51.2z M68.4,36.1
		c1.2,0,2.4,0,3.7,0c0.7,0,1.4,0.1,2.1,0.3c0.3,0.1,0.7,0.2,1,0.3c0.3,0.1,0.6,0.2,0.8,0.4c0.1,0.1,0.2,0.2,0.3,0.2
		c0.2,0.1,0.4,0.3,0.6,0.4c0.2,0.2,0.4,0.3,0.6,0.6c0.2,0.3,0.4,0.6,0.6,0.9c0.2,0.3,0.2,0.7,0.2,1.1c0,0.1-0.1,0.3,0,0.4
		c0.1,0.2,0.1,0.3,0,0.4c-0.1,0.2,0.1,0.5,0.2,0.5c0.1,0,0.3-0.2,0.4-0.4c0.2-1-0.1-1.9-0.7-2.8c-0.1-0.2-0.4-0.4-0.5-0.6
		c-0.3-0.4-0.7-0.6-1-0.8c-0.4-0.3-0.9-0.5-1.4-0.7c-0.5-0.2-1-0.3-1.4-0.4c-0.7-0.2-1.5-0.2-2.3-0.2c-1.3,0-2.5,0-3.8,0
		c-0.6,0-1.2,0-1.9,0c-0.7,0-1.4,0-2.1,0c-0.5,0-0.9,0.1-1.4,0.3c0,0-0.1,0.1-0.1,0.1c-0.1,0.1-0.2,0.3-0.3,0.4
		c-0.3,0.3-0.4,0.7-0.3,1.1c0.1,0.3,0.2,0.6,0.3,0.9c0,0.1,0,0.1,0.1,0.1c0.1,0,0.1-0.1,0.1-0.1c0.1-0.3,0-0.7-0.1-1
		c-0.1-0.2,0-0.4,0.1-0.6c0.1-0.2,0.3-0.3,0.4-0.4c0.3-0.3,0.6-0.4,0.9-0.5c0.3-0.1,0.6-0.1,0.9-0.1C65.8,36.1,67.1,36.1,68.4,36.1z
		 M67.8,49.2c1.7,0,3.4,0,5.1-0.1c0.3,0,0.6-0.1,0.9-0.1c0.4-0.1,0.9-0.2,1.3-0.3c0.1,0,0.1,0,0.2-0.1c0.4-0.1,0.7-0.4,1.1-0.6
		c0.4-0.1,0.7-0.5,1-0.7c0.4-0.3,0.6-0.8,0.9-1.2c0,0,0-0.1,0-0.1c-0.1-0.1,0-0.2,0-0.3c0-0.1,0-0.2,0-0.3c-0.1-0.1-0.2-0.2-0.3-0.2
		c-0.1,0-0.2,0.1-0.2,0.2c0,0.1,0,0.2-0.1,0.3c-0.1,0.1-0.1,0.2-0.1,0.4c0,0.2,0,0.3,0,0.5c-0.1,0.2-0.3,0.4-0.4,0.6
		c-0.2,0.2-0.4,0.4-0.6,0.5c-0.2,0.1-0.4,0.2-0.5,0.3c-0.1,0.1-0.3,0.2-0.4,0.2c-0.1,0-0.1,0-0.1,0.1c-0.1,0.1-0.2,0.2-0.4,0.2
		c-0.1,0-0.2,0-0.3,0.1c-0.3,0.2-0.6,0.2-1,0.3c-0.8,0.2-1.6,0.2-2.3,0.2c-2.5,0-5,0.1-7.5,0c-0.4,0-0.9-0.1-1.1-0.5
		c-0.2-0.2-0.3-0.5-0.5-0.8c0-0.1,0-0.1-0.1-0.1c-0.1,0-0.1,0.1-0.1,0.1c-0.1,0.1-0.1,0.2,0,0.4c0,0.2,0.2,0.3,0.3,0.5
		c0.2,0.4,0.6,0.5,1,0.6c0.6,0.1,1.2,0.2,1.8,0.2C65.9,49.2,66.9,49.2,67.8,49.2z M78.1,54.4C78.1,54.4,78.1,54.4,78.1,54.4
		C78.1,54.4,78.1,54.3,78.1,54.4c0-0.2-0.1-0.3-0.2-0.2c-0.1,0.1-0.1,0-0.1-0.1c0-0.1,0-0.2-0.1-0.2c-0.1,0-0.1,0.1-0.1,0.2
		c0,0.2,0.1,0.4,0.2,0.6c0.1,0.1,0.1,0.3,0.2,0.5c0.2,0.2,0.4,0.5,0.5,0.8c0.1,0.2,0.1,0.4,0.2,0.5c0.1,0.2,0.2,0.4,0.5,0.6
		c0.1,0,0.2,0.1,0,0.2c-0.1,0,0,0.1,0,0.1c0.3,0.4,0.4,0.8,0.8,1.1c0,0,0,0,0,0c0.2,0.4,0.4,0.8,0.7,1.2c0.4,0.6,0.6,1.2,1.1,1.8
		c0,0,0,0.1,0.1,0.1c0.1,0.4,0.4,0.8,0.6,1.2c0.2,0.4,0.4,0.8,0.6,1.1c0.3,0.4,0.5,0.8,1.1,0.9c0.1,0,0.1,0,0.2,0c0-0.1,0-0.1,0-0.1
		c-0.1-0.1-0.1-0.2-0.2-0.3c-0.1-0.1-0.2-0.3-0.3-0.4c-0.1-0.1-0.1-0.2-0.1-0.3c0-0.1-0.1-0.2-0.2-0.3c-0.2-0.1-0.5-0.2-0.4-0.6
		c0,0,0,0,0-0.1c-0.1-0.3-0.1-0.5-0.4-0.7c0,0-0.1-0.1-0.1-0.1c0-0.1,0-0.2-0.1-0.3c-0.1-0.2-0.2-0.4-0.4-0.5
		C82,61,82,60.8,81.9,60.6c-0.2-0.3-0.3-0.6-0.5-0.8c-0.2-0.3-0.4-0.6-0.6-0.9c-0.1-0.1-0.2-0.3-0.2-0.4c0-0.2-0.2-0.4-0.3-0.6
		c-0.1-0.1-0.1-0.1-0.1-0.2c-0.1-0.3-0.2-0.5-0.4-0.7c0,0-0.1-0.1-0.1-0.1c0-0.2-0.1-0.3-0.3-0.3c-0.1,0-0.1,0-0.1-0.1
		c0.2-0.1,0.1-0.2,0-0.3c0,0-0.1-0.1-0.1-0.1c0-0.3-0.2-0.4-0.3-0.7c0-0.1-0.1-0.2-0.2-0.2C78.3,55,78.4,54.7,78.1,54.4
		C78.1,54.5,78.1,54.4,78.1,54.4z M76.7,51.7c0,0,0,0.1,0,0.2c0,0.1,0.1,0.1,0.1,0.2c0.1,0,0.1-0.1,0.2-0.1c0,0,0-0.1,0.1-0.1
		c0-0.2,0.1-0.3,0.1-0.4c0.1-0.3,0.2-0.5,0.5-0.7c0.2-0.1,0.3-0.4,0.6-0.4c0.1,0,0.2-0.1,0.3-0.2c0,0,0.1-0.1,0.2-0.1
		c0.3,0,0.4-0.3,0.7-0.4c0.3-0.1,0.6-0.4,0.9-0.6c0.5-0.4,0.8-0.8,1.3-1.2c0.2-0.1,0.2-0.4,0.4-0.5c0.2-0.2,0.4-0.5,0.6-0.7
		c0.1-0.1,0.2-0.2,0.3-0.4c0.1-0.2,0.2-0.3,0.4-0.3c0.1,0,0.1-0.1,0.1-0.2c0-0.1,0-0.3,0.1-0.4c0.3-0.4,0.2-0.8,0.3-1.3
		c0-0.1,0-0.1-0.1-0.2c-0.1,0-0.1,0-0.2,0.1c-0.2,0.2-0.3,0.4-0.4,0.7c-0.2,0.4-0.4,0.7-0.6,1c-0.3,0.5-0.6,1-0.9,1.5
		c-0.1,0.2-0.3,0.4-0.4,0.6c-0.3,0.3-0.6,0.6-0.9,0.9c-0.2,0.1-0.4,0.3-0.6,0.5c-0.4,0.2-0.7,0.5-1.1,0.7c-0.3,0.1-0.6,0.3-0.9,0.4
		C77.2,50.5,76.7,51.2,76.7,51.7z"/>
	<path class="st0" d="M91.4,49.6c0-0.7,0-1.5,0-2.2c0-0.3,0-0.6,0.2-0.9c0.1-0.1,0.1-0.3,0.1-0.5c0-0.4,0-0.8,0.2-1.1
		c0.1-0.1,0.1-0.3,0.1-0.4c0-0.2,0-0.4,0.2-0.6c0,0,0.1-0.1,0.1-0.1c0-0.3,0.2-0.6,0.3-0.9c0.1-0.4,0.3-0.8,0.4-1.1
		c0.1-0.3,0.3-0.7,0.4-1c0-0.1,0.1-0.2,0.2-0.3c0.2-0.4,0.4-0.7,0.6-1.1c0,0,0-0.1,0.1-0.1c0.1-0.4,0.5-0.7,0.6-1
		c0.2-0.4,0.5-0.7,0.7-1c0.1-0.1,0.1-0.2,0.2-0.3c0.1-0.2,0.3-0.3,0.5-0.5c0.6-0.7,1.3-1.3,2.1-1.9c1.1-0.8,2.2-1.5,3.5-2
		c0.7-0.3,1.3-0.6,2-0.7c0.5-0.1,1-0.3,1.6-0.3c0.2,0,0.4-0.1,0.6-0.2c0.1,0,0.2-0.1,0.3-0.1c1.1,0,2.2-0.1,3.3,0c0.7,0,1.3,0,2,0.1
		c0.1,0,0.1,0,0.2,0c0.7,0.2,1.4,0.2,2.1,0.4c0.4,0.1,0.8,0.2,1.2,0.3c0.4,0.1,0.8,0.3,1.2,0.5c0.1,0,0.2,0.1,0.3,0.1
		c0.4,0.1,0.8,0.4,1.2,0.6c0.4,0.2,0.8,0.5,1.2,0.8c0.6,0.4,1.1,0.8,1.6,1.2c0.3,0.2,0.5,0.5,0.7,0.8c0.2,0.2,0.4,0.4,0.5,0.6
		c0.3,0.3,0.5,0.7,0.8,1c0.1,0.1,0.1,0.2,0.2,0.3c0.6,0.8,1.1,1.6,1.5,2.5c0.4,0.7,0.6,1.4,0.9,2.2c0.1,0.3,0.2,0.6,0.3,0.9
		c0.1,0.4,0.3,0.8,0.3,1.3c0.1,0.6,0.2,1.1,0.3,1.7c0.1,0.5,0.1,1,0.2,1.5c0,0.4,0,0.9,0,1.3c0,0.4,0,0.8,0,1.2c0,0.5,0,1,0,1.5
		c0,0.4-0.1,0.7-0.2,1.1c0,0.6-0.2,1.2-0.3,1.9c-0.1,0.3-0.2,0.7-0.3,1c-0.2,0.7-0.5,1.4-0.7,2.1c-0.2,0.5-0.4,0.9-0.7,1.4
		c-0.2,0.4-0.4,0.7-0.6,1.1c-0.1,0.2-0.3,0.4-0.4,0.6c-0.4,0.7-0.9,1.2-1.4,1.8c-0.5,0.6-1,1.1-1.6,1.6c-0.5,0.4-1,0.8-1.5,1.2
		c-0.6,0.4-1.2,0.7-1.8,1c-0.3,0.1-0.5,0.3-0.8,0.4c-0.6,0.3-1.1,0.6-1.7,0.6c0,0-0.1,0-0.1,0c-0.4,0.3-0.9,0.3-1.4,0.4
		c-0.7,0.2-1.4,0.3-2.1,0.3c-1.3,0-2.5,0-3.8,0c-0.6,0-1.1-0.1-1.7-0.2c-0.1,0-0.2-0.1-0.3-0.1c-0.3-0.1-0.7-0.1-1-0.2
		c-0.8-0.2-1.5-0.5-2.3-0.8c-0.4-0.2-0.8-0.4-1.3-0.6c-0.6-0.3-1.2-0.7-1.7-1.1c-0.7-0.5-1.4-1.2-2-1.8c-0.8-0.8-1.5-1.7-2.1-2.6
		c-0.4-0.6-0.8-1.2-1.1-1.9c-0.1-0.3-0.2-0.5-0.4-0.8c-0.2-0.3-0.2-0.7-0.4-1c0,0,0,0,0,0c0-0.4-0.4-0.8-0.3-1.2c0-0.1,0-0.1,0-0.2
		c-0.2-0.2-0.2-0.5-0.2-0.8c0-0.1,0-0.2-0.1-0.3c-0.1-0.1-0.1-0.3-0.1-0.4c0-0.3,0-0.5,0-0.8c0-0.1,0-0.2,0.1-0.2
		c0.1,0,0.1,0.1,0.1,0.2c0,0.3,0.1,0.6,0,0.9c0,0.1,0,0.2,0.1,0.3c0.1,0,0.1,0.1,0.1,0.2c0.1,0.2,0.1,0.3,0.1,0.5
		c0,0.1,0,0.2,0.1,0.3c0.2,0.2,0.3,0.4,0.2,0.7c0,0.1,0.1,0.1,0.1,0.2c0.1,0,0.1,0.1,0.2,0.2c0,0.3,0.2,0.5,0.4,0.7
		c0,0,0.1,0.1,0.1,0.1c-0.1,0.3,0.2,0.4,0.3,0.6c0.1,0.1,0.2,0.2,0.2,0.3c0.1,0.3,0.4,0.6,0.5,0.9c0.2,0.3,0.5,0.6,0.6,0.9
		c0.2,0.4,0.5,0.6,0.8,0.9c0.1,0.1,0.2,0.2,0.2,0.3c0,0.1,0.1,0.1,0.2,0.2c0.3,0.3,0.6,0.6,0.9,0.9c0.2,0.2,0.4,0.4,0.6,0.5
		c0,0,0.1,0.1,0.1,0.1c0.3,0.4,0.7,0.6,1.1,0.9c0.2,0.2,0.4,0.3,0.7,0.5c0.3,0.1,0.6,0.3,0.8,0.5c0,0,0.1,0.1,0.1,0.1
		c0.3,0,0.4,0.2,0.7,0.3c0.2,0.1,0.4,0.2,0.5,0.3c0.5,0.2,1.1,0.4,1.7,0.6c0.4,0.1,0.9,0.3,1.3,0.3c0.6,0.1,1.2,0.2,1.8,0.3
		c0.2,0,0.5,0.1,0.7,0.1c0.8,0,1.6,0,2.5,0c0.4,0,0.8,0,1.2-0.1c0.3-0.1,0.6-0.2,0.9-0.2c0.4,0,0.7-0.2,1.1-0.2
		c0.2,0,0.4-0.1,0.6-0.1c0.2-0.1,0.5-0.1,0.7-0.2c0.1,0,0.2-0.1,0.3-0.1c0.4-0.1,0.7-0.2,1-0.4c0,0,0.1,0,0.1,0
		c0.2,0,0.4-0.1,0.6-0.3c0.2-0.1,0.4-0.1,0.5-0.2c0.4-0.3,0.8-0.5,1.1-0.7c0.2-0.1,0.4-0.3,0.6-0.4c0.2-0.2,0.4-0.3,0.6-0.4
		c0.3-0.2,0.6-0.5,0.8-0.8c0.1-0.1,0.2-0.2,0.4-0.3c0.2-0.1,0.3-0.3,0.5-0.5c0.1-0.1,0.1-0.2,0.2-0.2c0.3-0.4,0.7-0.7,0.9-1.1
		c0.1-0.1,0.1-0.2,0.2-0.3c0.1-0.2,0.3-0.3,0.4-0.5c0.3-0.4,0.6-0.8,0.8-1.3c0,0,0-0.1,0-0.1c0.2-0.1,0.2-0.4,0.4-0.6
		c0.1,0,0.1-0.1,0.1-0.2c-0.1-0.1,0-0.2,0.1-0.2c0.1-0.1,0.2-0.1,0.2-0.3c0-0.1,0.1-0.2,0.2-0.3c0.1,0,0.1-0.1,0.1-0.2
		c0-0.1,0-0.3,0.1-0.4c0.1-0.2,0.2-0.4,0.2-0.6c0-0.2,0.1-0.3,0.2-0.5c0.2-0.2,0.1-0.5,0.1-0.7c0-0.2,0-0.4,0.1-0.6
		c0.1-0.3,0.1-0.6,0-0.8c0-0.1-0.1-0.1-0.2,0c0,0,0,0.1,0,0.1c0,0.4-0.3,0.7-0.4,1.1c-0.1,0.2-0.1,0.4-0.1,0.5c0,0.1,0,0.1,0,0.2
		c-0.1,0.1-0.2,0.2-0.2,0.3c-0.1,0.3-0.2,0.5-0.4,0.8c-0.1,0.2-0.2,0.4-0.2,0.6c-0.1,0.3-0.2,0.6-0.4,0.8c-0.2,0.3-0.3,0.7-0.5,1
		c0,0.1-0.1,0.1-0.1,0.2c-0.1,0.1-0.2,0.2-0.2,0.4c0,0.1-0.2,0.3-0.3,0.4c-0.2,0.3-0.4,0.6-0.5,0.9c0,0.1-0.1,0.1-0.2,0.2
		c-0.1,0.1-0.3,0.3-0.3,0.4c-0.1,0.2-0.3,0.2-0.3,0.4c-0.1,0.2-0.3,0.5-0.5,0.6c-0.1,0.1-0.2,0.2-0.2,0.3c-0.3,0.4-0.6,0.6-0.9,0.9
		c-0.2,0.3-0.5,0.5-0.8,0.7c-0.3,0.3-0.7,0.5-1.1,0.8c-0.3,0.2-0.5,0.4-0.8,0.5c-0.3,0.1-0.5,0.3-0.8,0.4c-0.4,0.2-0.8,0.3-1.2,0.5
		c-0.1,0-0.2,0.1-0.2,0.1c-0.1,0-0.3,0.1-0.4,0.1c-0.2,0.1-0.4,0.1-0.6,0.2c-0.1,0-0.1,0-0.2,0c-0.2,0.2-0.5,0.2-0.7,0.2
		c-0.3,0-0.7,0.1-1,0.2c-0.4,0.1-0.8,0.1-1.2,0.1c-0.3,0-0.5,0-0.8,0c-0.7,0-1.5,0-2.2,0c-0.3,0-0.6,0-0.9-0.1
		c-0.5-0.1-0.9-0.2-1.4-0.2c-0.2,0-0.4-0.1-0.5-0.2c-0.1,0-0.2-0.1-0.2-0.1c-0.5-0.1-1-0.3-1.5-0.5c-0.3-0.1-0.6-0.2-0.8-0.3
		c-0.3-0.1-0.6-0.3-0.9-0.4c-0.6-0.3-1.1-0.6-1.6-1c-0.4-0.3-0.8-0.6-1.2-1c-0.3-0.2-0.6-0.5-0.8-0.7c-0.2-0.2-0.4-0.4-0.6-0.6
		c-0.5-0.4-0.7-1-1.1-1.5c-0.2-0.3-0.4-0.6-0.6-1c-0.2-0.3-0.4-0.6-0.5-1c-0.1-0.2-0.2-0.3-0.3-0.5c-0.3-0.7-0.7-1.3-0.9-2
		c-0.1-0.4-0.4-0.8-0.5-1.2c0,0,0-0.1,0-0.1c0-0.3-0.2-0.5-0.3-0.7c0-0.1-0.1-0.2,0-0.3c0,0,0-0.1,0-0.1c-0.1-0.1-0.2-0.3-0.2-0.4
		c0,0,0-0.1-0.1-0.1c-0.1,0-0.1,0-0.1,0.1c0,0.1-0.1,0.3-0.1,0.4c0,0-0.1,0.1-0.1,0.1c-0.1,0-0.1-0.1-0.1-0.1c0-0.3-0.1-0.6-0.1-0.9
		C91.4,51.1,91.4,50.4,91.4,49.6z M119.5,46.8c0-0.2,0-0.3,0-0.5c0-0.1,0-0.2-0.1-0.2c-0.1-0.1-0.1-0.2-0.1-0.3c0-0.2,0-0.4-0.1-0.6
		c-0.1-0.2-0.1-0.4-0.2-0.6c-0.1-0.3-0.2-0.6-0.3-0.9c-0.1-0.3-0.2-0.5-0.4-0.8c-0.2-0.4-0.3-0.7-0.6-1.1c-1-1.5-2.2-2.8-3.8-3.7
		c-0.5-0.3-0.9-0.5-1.5-0.7c-0.3-0.1-0.6-0.2-1-0.3c-0.5-0.1-1-0.2-1.4-0.3c-0.6-0.1-1.2,0-1.7-0.1c-0.8-0.1-1.7,0.1-2.5,0.3
		c-0.5,0.1-0.9,0.3-1.4,0.4c-0.7,0.2-1.2,0.6-1.8,1c-0.5,0.3-0.9,0.7-1.3,1.1c-0.5,0.5-0.9,1-1.3,1.5c-0.4,0.4-0.6,1-0.9,1.4
		c-0.4,0.6-0.6,1.3-0.8,2c-0.2,0.4-0.2,0.9-0.4,1.4c-0.1,0.6-0.2,1.2-0.3,1.8c0,0.3,0,0.6-0.1,0.9c0,0.7-0.1,1.5,0,2.2
		c0.1,0.9,0.2,1.7,0.4,2.6c0.1,0.6,0.3,1.1,0.5,1.7c0.1,0.2,0.1,0.4,0.2,0.5c0.2,0.5,0.4,0.9,0.7,1.4c0.5,0.8,1,1.6,1.7,2.3
		c0.4,0.4,0.9,0.9,1.4,1.3c0.5,0.3,1,0.7,1.5,0.9c0.1,0.1,0.3,0.1,0.4,0.2c0.4,0.2,0.7,0.3,1.1,0.4c0.1,0,0.3,0.1,0.4,0.1
		c0.1,0,0.2,0.1,0.3,0.1c0.4,0,0.8,0.1,1.1,0.2c0.4,0.1,0.7,0.1,1.1,0.1c0.4,0,0.9,0,1.3,0c0.4,0,0.8-0.2,1.2-0.2
		c0.6-0.1,1.1-0.2,1.6-0.4c0.8-0.3,1.5-0.7,2.2-1.2c1-0.8,1.9-1.6,2.6-2.6c0.4-0.5,0.7-1,0.9-1.5c0.1-0.2,0.2-0.5,0.3-0.7
		c0.2-0.3,0.3-0.6,0.4-0.8c0.1-0.4,0.3-0.8,0.3-1.2c0-0.1,0-0.3,0.1-0.4c0.1-0.2,0.1-0.4,0.1-0.6c0-0.4,0-0.8,0.2-1.2
		c0-0.1,0-0.2,0-0.3c0-1,0-2.1,0-3.1c0-0.1,0-0.3,0.1-0.4c0.1-0.1,0.1-0.2-0.1-0.2c-0.2,0-0.2-0.1-0.3-0.2
		C119.5,47.3,119.5,47,119.5,46.8z M107.7,32.6c-0.6,0.1-1.2,0-1.9,0.2c-0.5,0.1-1.1,0.1-1.6,0.3c-0.4,0.1-0.8,0.1-1.1,0.3
		c0,0-0.1,0-0.1,0c-0.4,0.1-0.8,0.2-1.2,0.4c-0.4,0.2-0.8,0.4-1.3,0.6c-0.1,0-0.1,0.1-0.2,0.1c-0.2,0.1-0.5,0.3-0.7,0.4
		c-0.2,0.1-0.5,0.3-0.7,0.4c-0.2,0.1-0.4,0.2-0.5,0.3c-0.3,0.3-0.8,0.5-1.1,0.8c-0.2,0.2-0.4,0.2-0.6,0.3c-0.2,0.1-0.3,0.2-0.5,0.3
		c-0.2,0-0.4,0.2-0.5,0.4c-0.2,0.3-0.5,0.5-0.7,0.9c-0.2,0.1-0.3,0.3-0.4,0.5c-0.1,0.2-0.2,0.4-0.3,0.6c0,0.2-0.2,0.4-0.3,0.6
		c0,0.1-0.1,0.1-0.1,0.2c0.1,0.1,0.1,0.1,0.2,0c0.1,0,0.1,0,0.2-0.1c0.3-0.3,0.7-0.6,1-1c0.3-0.4,0.7-0.7,1-1.2
		c0.2-0.3,0.4-0.5,0.7-0.7c0.1-0.1,0.4-0.2,0.5-0.4c0.2-0.3,0.6-0.5,0.8-0.8c0.3-0.3,0.6-0.5,1-0.7c0.3-0.2,0.6-0.4,1-0.6
		c0.2-0.1,0.5-0.2,0.7-0.4c0.2-0.1,0.5-0.2,0.7-0.3c0.2-0.1,0.3-0.2,0.5-0.2c0.3-0.1,0.7-0.2,1-0.3c0.5-0.2,1-0.2,1.5-0.4
		c0.3-0.1,0.6-0.1,0.8-0.1c0.2,0,0.4-0.1,0.6-0.1c0.6,0,1.3-0.1,1.9-0.1c0.8,0,1.6,0,2.4,0.1c0.3,0,0.6,0,0.9,0.1c0,0,0.1,0,0.1,0
		c0.4,0.1,0.7,0.1,1.1,0.2c0.3,0.1,0.6,0.2,1,0.2c0.1,0,0.2,0,0.3,0.1c0.2,0.1,0.4,0.2,0.6,0.2c0.1,0,0.1,0,0.2,0.1
		c0.1,0.1,0.1,0.1,0.2,0.1c0.4,0.1,0.7,0.2,1,0.4c0.2,0.1,0.5,0.2,0.7,0.4c0.3,0.2,0.5,0.3,0.8,0.5c0.1,0.1,0.3,0.2,0.5,0.3
		c0.2,0.1,0.4,0.2,0.6,0.4c0.2,0.1,0.3,0.3,0.5,0.4c0.4,0.3,0.8,0.7,1.2,1.1c0.2,0.2,0.5,0.5,0.8,0.7c0.1,0.1,0.2,0.2,0.3,0.3
		c0.2,0.4,0.5,0.7,0.9,0.9c0,0,0.1,0.1,0.1,0.1c0.1,0.3,0.4,0.3,0.6,0.4c0.2,0.1,0.2,0,0.2-0.2c-0.1-0.3-0.3-0.6-0.4-0.9
		c-0.2-0.4-0.4-0.8-0.8-1.1c-0.3-0.3-0.6-0.6-1-0.6c-0.1,0-0.2-0.1-0.2-0.1c-0.1-0.2-0.2-0.3-0.5-0.4c-0.2-0.1-0.3-0.2-0.4-0.3
		c-0.2-0.2-0.5-0.4-0.7-0.5c-0.4-0.2-0.7-0.5-1.1-0.7c-0.2-0.1-0.4-0.3-0.6-0.4c-0.3-0.1-0.6-0.3-0.9-0.4c-0.3-0.1-0.5-0.2-0.8-0.4
		c-0.2-0.1-0.4-0.2-0.6-0.2c-0.2-0.1-0.4-0.1-0.6-0.2c-0.4-0.2-0.9-0.2-1.3-0.4c-0.4-0.2-0.9-0.2-1.4-0.3c-0.8-0.2-1.5-0.2-2.3-0.2
		C108.7,32.6,108.2,32.6,107.7,32.6z M96.8,46.1c0,0.1,0,0.1,0,0.2c0,0.2,0,0.5,0.1,0.7c0,0.1,0,0.1,0.1,0.1c0.1,0,0.1-0.1,0.1-0.1
		c0-0.2,0-0.3,0.1-0.4c0.1-0.2,0.1-0.3,0.1-0.5c0-0.3,0.1-0.5,0.1-0.7c0.1-0.4,0.2-0.9,0.2-1.3c0-0.2,0.1-0.5,0.1-0.7
		c0.1-0.5,0.3-1,0.5-1.4c0.2-0.4,0.3-0.8,0.6-1.2c0,0,0-0.1,0-0.1c0-0.1,0.1-0.3,0.2-0.4c0.2-0.4,0.5-0.6,0.7-0.9
		c0.4-0.5,0.9-0.9,1.3-1.4c0.4-0.4,1-0.6,1.4-1.1c0,0,0.1,0,0.1-0.1c0.1,0,0.3-0.1,0.4-0.2c0.2-0.2,0.5-0.3,0.8-0.4
		c0.1-0.1,0.3,0,0.4-0.1c0.3-0.2,0.7-0.2,1-0.4c0.2-0.1,0.5-0.1,0.7-0.2c0.7-0.2,1.3-0.3,2-0.3c0.2,0,0.4,0,0.6,0c0.3,0,0.6,0,0.9,0
		c0.5,0,0.9,0.1,1.4,0.2c0.4,0.1,0.9,0.1,1.3,0.3c0.2,0.1,0.5,0.2,0.8,0.3c0.3,0.1,0.6,0.3,0.9,0.4c0.3,0.2,0.7,0.3,1,0.6
		c0,0,0.1,0,0.1,0.1c0.1,0.1,0.4,0.1,0.5,0.3c0.1,0.2,0.3,0.3,0.4,0.4c0.2,0.2,0.5,0.4,0.7,0.6c0.4,0.4,0.7,0.7,1,1.1
		c0.1,0.2,0.5,0.3,0.4,0.6c0,0,0,0,0,0c0.3,0.4,0.5,0.9,0.8,1.3c0.1,0.2,0.2,0.5,0.3,0.7c0.1,0.3,0.2,0.7,0.3,1
		c0.1,0.2,0.1,0.3,0.1,0.5c0,0.1,0,0.2,0,0.3c0,0.2,0.1,0.3,0.1,0.5c0,0.2,0,0.4,0.1,0.6c0.1,0.2,0.2,0.4,0.1,0.5
		c0,0.3,0,0.5,0.1,0.7c0.2,0.3,0.1,0.8,0.2,1.1c0,0.1,0,0.2,0.1,0.2c0.1,0,0.1-0.1,0.1-0.2c0-0.1,0-0.2,0-0.3c0-0.1,0-0.2,0-0.4
		c-0.1-0.2,0.1-0.4,0-0.6c0,0,0,0,0-0.1c0-0.1,0-0.2,0-0.2c0-0.3-0.1-0.5-0.1-0.8c0-0.6-0.1-1.2-0.3-1.8c-0.2-0.7-0.5-1.3-0.8-1.9
		c-0.2-0.4-0.4-0.8-0.7-1.2c-0.3-0.4-0.6-0.7-0.8-1.1c-0.3-0.4-0.7-0.8-1.1-1.1c-0.1-0.1-0.2-0.3-0.4-0.4c-0.3-0.2-0.6-0.5-0.9-0.7
		c-0.3-0.2-0.7-0.4-1-0.6c-0.3-0.1-0.6-0.3-0.8-0.4c-0.3-0.1-0.5-0.3-0.8-0.3c-0.2,0-0.4-0.1-0.6-0.2c-0.2-0.1-0.4-0.2-0.7-0.2
		c-0.6-0.1-1.1-0.2-1.7-0.2c-0.4,0-0.7-0.2-1.1-0.1c-0.1,0-0.2,0-0.2,0.1c-0.1,0.1-0.2,0.1-0.3,0.1c-0.8,0-1.5,0.2-2.3,0.4
		c-0.1,0-0.2,0.1-0.2,0.1c-0.3,0-0.7,0.2-1,0.3c-0.3,0.1-0.6,0.2-0.9,0.3c-0.1,0-0.2,0.1-0.4,0.2c-0.2,0.1-0.4,0.2-0.6,0.4
		c-0.1,0.1-0.3,0.2-0.4,0.3c-0.4,0.2-0.7,0.6-1,0.8c-0.2,0.1-0.4,0.3-0.5,0.5c-0.3,0.3-0.6,0.7-1,1c-0.2,0.2-0.4,0.6-0.6,0.8
		c-0.2,0.2-0.3,0.4-0.4,0.6c-0.2,0.3-0.3,0.6-0.5,0.9c-0.3,0.5-0.5,1.1-0.7,1.6c-0.1,0.3-0.2,0.7-0.2,1c0,0.5-0.2,0.9-0.1,1.4
		c0,0,0,0.1,0,0.1C96.8,45.8,96.8,45.9,96.8,46.1z M110.8,64.2C110.8,64.2,110.8,64.2,110.8,64.2c0.5-0.2,1-0.2,1.5-0.4
		c0.2-0.1,0.5-0.1,0.7-0.2c0.1,0,0.2-0.1,0.2-0.1c0.3-0.2,0.7-0.2,1-0.5c0,0,0.1-0.1,0.1-0.1c0.1,0,0.3-0.1,0.4-0.1
		c0.2-0.1,0.4-0.3,0.6-0.4c0.3-0.2,0.6-0.5,0.9-0.7c0.4-0.4,0.8-0.8,1.2-1.2c0.2-0.3,0.4-0.6,0.6-0.9c0.2-0.3,0.2-0.7,0.5-0.9
		c0,0,0,0,0,0c0.1-0.3,0.1-0.5,0.2-0.8c0-0.1-0.1-0.3-0.2-0.3c-0.1-0.1-0.2,0-0.3,0.1c-0.1,0.1-0.2,0.2-0.3,0.3c0,0-0.1,0.1-0.1,0.1
		c0,0.1-0.1,0.2-0.2,0.2c-0.1,0-0.1,0.1-0.1,0.1c-0.1,0.2-0.3,0.5-0.4,0.7c-0.1,0.1-0.1,0.2-0.2,0.3c0,0.2-0.1,0.4-0.2,0.5
		c0,0,0,0.1,0,0.1c0,0.2-0.1,0.3-0.2,0.5c-0.2,0.3-0.4,0.5-0.6,0.7c-0.1,0.1-0.2,0.3-0.3,0.3c0,0-0.1,0.1-0.1,0.1
		c0,0.1-0.1,0.1-0.1,0.2c-0.3,0.2-0.6,0.5-0.9,0.7c-0.3,0.2-0.5,0.4-0.9,0.6c-0.5,0.2-0.9,0.5-1.4,0.6c-0.4,0.1-0.8,0.3-1.2,0.3
		c-0.4,0.1-0.8,0.1-1.2,0.2c0,0-0.1,0-0.1,0c-0.7,0-1.3,0-2,0c-0.3,0-0.6,0-0.9-0.1c-0.3-0.1-0.6-0.1-0.9-0.2
		c-0.2-0.1-0.4-0.1-0.7-0.2c-0.3-0.1-0.7-0.1-0.9-0.4c0,0,0,0,0,0c-0.4,0-0.8-0.3-1.1-0.5c-0.3-0.2-0.7-0.4-1-0.7
		c-0.2-0.2-0.4-0.4-0.6-0.5c-0.6-0.6-1.1-1.2-1.4-2c-0.1-0.1-0.1-0.3-0.2-0.4c-0.1-0.2-0.2-0.4-0.3-0.6c-0.2-0.3-0.5-0.5-0.6-0.8
		c0-0.1-0.4-0.2-0.5-0.1c-0.1,0-0.2,0.4-0.2,0.5c0.3,0.4,0.5,0.9,0.7,1.4c0.3,0.6,0.7,1,1.2,1.5c0.2,0.2,0.4,0.4,0.7,0.6
		c0.2,0.2,0.3,0.3,0.5,0.4c0.5,0.3,0.9,0.8,1.5,1c0.3,0.2,0.7,0.4,1,0.5c0.1,0,0.2,0.1,0.3,0.2c0.1,0.1,0.2,0.1,0.3,0.1
		c0.3,0.1,0.7,0.2,1,0.3c0.5,0.2,1,0.2,1.5,0.3c0.6,0.1,1.3,0.1,2,0.1c0.3,0,0.5,0,0.8-0.1C110.1,64.3,110.4,64.2,110.8,64.2z"/>
	<path class="st0" d="M186.3,67.4c-0.8,0-1.6,0-2.5,0c-0.2,0-0.3,0-0.5,0c-0.1,0-0.2-0.1-0.3-0.2c0-0.3-0.2-0.5-0.3-0.8
		c-0.1-0.3-0.3-0.7-0.4-1c0,0,0,0,0,0c0-0.3-0.2-0.6-0.4-0.9c-0.1-0.3-0.2-0.6-0.4-0.9c0,0,0,0,0,0c0-0.3-0.2-0.5-0.3-0.8
		c-0.1-0.3-0.2-0.7-0.4-1c0-0.1-0.1-0.2-0.1-0.3c0-0.1-0.1-0.3-0.2-0.4c0,0,0,0-0.1-0.1c0-0.3-0.3-0.6-0.3-0.9c0-0.1,0-0.1-0.1-0.2
		c0,0-0.1-0.1-0.1-0.1c0-0.3-0.3-0.6-0.4-0.9c-0.1-0.3-0.2-0.6-0.4-0.9c-0.1-0.1-0.1-0.2-0.1-0.3c-0.1-0.2-0.1-0.3-0.4-0.3
		c-1.5,0.1-3,0-4.5,0c-2.4,0-4.9,0-7.3,0c-0.4,0-0.4,0-0.6,0.4c-0.1,0.3-0.3,0.7-0.4,1c-0.2,0.6-0.5,1.2-0.7,1.8
		c-0.1,0.2-0.2,0.4-0.3,0.7c-0.1,0.2-0.2,0.3-0.2,0.5c-0.1,0.3-0.2,0.5-0.3,0.7c-0.1,0.4-0.3,0.7-0.4,1.1c-0.2,0.5-0.4,1-0.6,1.6
		c-0.2,0.4-0.4,0.9-0.5,1.3c-0.1,0.3-0.3,0.6-0.5,0.8c-0.1,0.2-0.3,0.2-0.5,0.2c-1.4,0-2.7,0-4.1,0c-0.5,0-1,0-1.5,0
		c-0.3,0-0.4-0.1-0.3-0.5c0-0.1,0.1-0.3,0.1-0.4c0-0.1,0.1-0.1,0.2,0c0.1,0.1,0.1,0.1,0.3,0c0.7-0.4,1.4-0.7,2.2-0.7
		c0.4,0,0.9,0,1.3,0c0.4,0,0.7-0.1,1-0.2c0.1,0,0.3-0.1,0.4-0.1c0.3,0,0.5-0.2,0.7-0.3c0,0,0.1-0.1,0.1-0.1c0.1-0.3,0.2-0.6,0.5-0.8
		c0,0,0-0.1,0-0.1c0-0.4,0.2-0.6,0.3-0.9c0.1-0.1,0-0.3,0.1-0.5c0.2-0.3,0.2-0.6,0.4-0.8c0.1-0.1,0.1-0.3,0.1-0.4
		c0.2-0.2,0.2-0.5,0.2-0.7c0,0,0-0.1,0-0.1c0.3-0.4,0.3-1,0.6-1.5c0.2-0.3,0.4-0.6,0.3-0.9c0-0.1,0-0.1,0.1-0.2
		c0.1-0.2,0.2-0.4,0.2-0.6c0.1-0.4,0.2-0.7,0.5-1c0.3-0.3,0.5-0.5,0.9-0.7c0.3-0.1,0.7-0.2,1-0.2c0.8,0,1.7,0,2.5,0
		c0.6,0,1.2,0,1.7,0c1,0,2,0,3,0c0.6,0,1.2,0,1.7,0c0.5,0,0.9,0,1.4,0.1c0.4,0,0.8,0.2,1.1,0.5c0.2,0.2,0.4,0.4,0.6,0.6
		c0.1,0.1,0.1,0.3,0.2,0.4c0.1,0.4,0.2,0.8,0.3,1.2c0.1,0.2,0.1,0.5,0.2,0.7c0.1,0.2,0.1,0.3,0.2,0.5c0,0,0,0.1,0,0.1
		c0,0.2,0.2,0.4,0.2,0.5c0.1,0.2,0.1,0.4,0.2,0.7c0,0.2,0.1,0.3,0.2,0.5c0.1,0,0.1,0.1,0.1,0.2c0,0.2,0.1,0.3,0.2,0.5
		c0.1,0,0.1,0.1,0.1,0.2c0,0.1,0,0.2,0.1,0.3c0.1,0,0.1,0.1,0.1,0.2c-0.1,0.2,0,0.4,0.2,0.6c0.2,0.2,0.3,0.5,0.3,0.8
		c0,0.1,0,0.1,0,0.2c0.1,0.1,0.2,0.3,0.3,0.5c0.3,0.4,0.6,0.7,1.1,0.8c0.2,0,0.3,0.1,0.5,0.1c0.2,0.1,0.5,0.1,0.8,0.1
		c0.6,0,1.3,0,1.9,0.1c0.4,0,0.7,0.2,1.1,0.3c0.2,0.1,0.4,0.3,0.6,0.2c0.1,0,0.1,0.1,0.1,0.1c0,0,0.1,0.1,0.1,0.1
		c0.1,0,0.1-0.1,0-0.2c-0.1-0.2-0.3-0.3-0.4-0.4c-0.3-0.2-0.7-0.2-1-0.3c-0.4-0.1-0.9-0.3-1.3-0.3c-0.5,0-1.1,0-1.6,0
		c-0.2,0-0.3-0.1-0.4-0.1c-0.3-0.1-0.6-0.2-0.7-0.5c-0.1-0.2-0.1-0.4-0.2-0.5c-0.2-0.4-0.4-0.9-0.5-1.3c-0.1-0.3-0.3-0.6-0.4-1
		c-0.1-0.4-0.3-0.7-0.5-1c-0.1-0.1-0.1-0.3-0.1-0.5c-0.1-0.3-0.2-0.6-0.3-0.9c-0.2-0.4-0.3-0.9-0.5-1.3c-0.2-0.4-0.2-0.7-0.4-1.1
		c-0.2-0.3-0.3-0.7-0.6-1c-0.5-0.4-1-0.7-1.6-0.7c-0.4,0-0.8-0.1-1.3-0.1c-0.6,0-1.2,0-1.8,0c-0.1,0-0.2,0-0.3,0c-2.2,0-4.4,0-6.5,0
		c-0.2,0-0.3,0-0.5,0.1c-0.4,0.2-0.8,0.1-1.2,0.2c-0.3,0.1-0.6,0.3-0.9,0.6c-0.1,0.2-0.3,0.3-0.4,0.5c-0.1,0.1-0.2,0.2-0.2,0.4
		c0,0.1-0.1,0.2-0.1,0.3c-0.2,0.4-0.4,0.9-0.5,1.4c-0.1,0.2-0.2,0.3-0.3,0.5c-0.1,0.4-0.3,0.8-0.4,1.2c-0.1,0.3-0.3,0.4-0.4,0.7
		c-0.1,0.5-0.4,1-0.6,1.4c-0.1,0.3-0.2,0.7-0.4,1c-0.2,0.3-0.4,0.7-0.4,1.1c0,0.2-0.1,0.3-0.2,0.3c-0.3,0.2-0.7,0.3-1.1,0.3
		c-0.4,0-0.8,0-1.3,0c-0.3,0-0.6,0-0.9,0.2c-0.1,0-0.2,0.1-0.3,0.1c-0.2,0-0.4,0-0.6,0.2c0,0-0.1,0-0.1,0c-0.3,0-0.5,0.1-0.7,0.3
		c0,0-0.1,0.1-0.1,0.1c-0.2,0.1-0.3,0-0.3-0.2c0-0.1,0-0.2,0.1-0.3c0.1-0.2,0.1-0.3,0.2-0.5c0.2-0.4,0.4-0.9,0.5-1.3
		c0.1-0.3,0.2-0.5,0.4-0.8c0.1-0.2,0.2-0.5,0.3-0.7c0.3-0.6,0.5-1.2,0.7-1.7c0.2-0.5,0.4-1,0.6-1.6c0.1-0.3,0.2-0.5,0.3-0.8
		c0.1-0.3,0.2-0.7,0.4-1c0.1-0.3,0.2-0.6,0.4-0.9c0.1-0.3,0.3-0.6,0.4-0.9c0-0.1,0.2-0.3,0.2-0.4c0-0.3,0.3-0.6,0.4-0.9
		c0.2-0.5,0.4-1,0.6-1.4c0.2-0.3,0.2-0.7,0.4-1c0.1-0.3,0.2-0.6,0.4-0.9c0,0,0,0,0-0.1c0.1-0.5,0.4-1,0.6-1.5
		c0.1-0.3,0.2-0.5,0.3-0.8c0.2-0.4,0.3-0.8,0.5-1.2c0.2-0.4,0.3-0.9,0.5-1.3c0.3-0.6,0.5-1.2,0.7-1.8c0.1-0.3,0.2-0.6,0.4-0.9
		c0.1-0.2,0.2-0.4,0.2-0.6c0.1-0.3,0.3-0.6,0.4-1c0.1-0.3,0.2-0.6,0.3-0.8c0.2-0.5,0.4-1.1,0.7-1.6c0.1-0.3,0.3-0.6,0.4-1
		c0.1-0.3,0.3-0.6,0.4-0.9c0.1-0.3,0.2-0.6,0.3-0.9c0.1-0.3,0.3-0.7,0.4-1c0.1-0.3,0.2-0.5,0.3-0.8c0.1-0.2,0.1-0.4,0.2-0.5
		c0.2-0.3,0.2-0.7,0.5-0.9c0,0,0,0,0,0c0-0.3,0.2-0.5,0.2-0.7c0.1-0.5,0.4-0.7,0.9-0.7c0.3,0,0.6,0,1,0c0.7,0,1.4-0.1,2.2-0.1
		c0.3,0,0.5,0,0.8,0c0.3,0,0.5,0.1,0.6,0.4c0.3,0.6,0.5,1.2,0.8,1.8c0.2,0.5,0.3,0.9,0.6,1.4c0.2,0.4,0.3,0.8,0.5,1.2
		c0,0.1,0.1,0.2,0.2,0.4c0.2,0.6,0.5,1.1,0.7,1.7c0.2,0.4,0.4,0.9,0.6,1.3c0.2,0.6,0.5,1.2,0.7,1.8c0.1,0.3,0.2,0.5,0.3,0.8
		c0.2,0.6,0.4,1.2,0.7,1.7c0.3,0.7,0.6,1.5,0.9,2.2c0.4,0.8,0.6,1.5,1,2.3c0.2,0.5,0.5,1.1,0.7,1.6c0.2,0.5,0.4,1,0.6,1.5
		c0.3,0.8,0.7,1.6,1,2.5c0.2,0.4,0.3,0.8,0.5,1.2c0.2,0.4,0.3,0.8,0.5,1.2c0.2,0.5,0.4,1.1,0.7,1.6c0.1,0.3,0.2,0.6,0.3,0.9
		c0.4,0.9,0.8,1.9,1.2,2.8c0.2,0.6,0.4,1.1,0.7,1.7c0.2,0.5,0.4,1,0.6,1.5c0.2,0.4,0.4,0.7,0.4,1.2c0,0.5-0.2,0.7-0.7,0.7
		C188,67.4,187.2,67.4,186.3,67.4C186.3,67.4,186.3,67.4,186.3,67.4z M173.1,51.6C173.1,51.6,173.1,51.6,173.1,51.6
		c1.1,0,2.2,0,3.2,0c0.3,0,0.5-0.3,0.3-0.5c-0.1-0.2-0.2-0.3-0.2-0.5c0-0.1-0.1-0.1-0.1-0.2c-0.1-0.1-0.1-0.2-0.1-0.3
		c0-0.1,0-0.2-0.1-0.3c-0.2-0.3-0.2-0.6-0.4-1c-0.1-0.3-0.3-0.6-0.4-1c0-0.1-0.1-0.2-0.2-0.4c-0.1-0.3-0.3-0.6-0.3-0.9
		c0,0,0,0,0-0.1c-0.1-0.1-0.1-0.2-0.2-0.4c0-0.1,0-0.2-0.1-0.2c-0.2-0.3-0.2-0.6-0.4-0.9c0,0,0,0,0-0.1c0-0.1-0.1-0.2-0.1-0.3
		c-0.1-0.1-0.1-0.2-0.1-0.4c-0.1-0.3-0.2-0.6-0.3-0.9c-0.2-0.3-0.2-0.7-0.4-1c0-0.1,0-0.2-0.2-0.2c-0.1,0-0.2,0-0.3,0.1
		c-0.1,0.1-0.1,0.2-0.1,0.3c0,0.1,0,0.2-0.1,0.3c-0.2,0.3-0.2,0.7-0.4,0.9c0,0,0,0.1,0,0.1c0,0.2-0.1,0.3-0.2,0.5
		c-0.1,0.2-0.2,0.4-0.3,0.7c-0.2,0.5-0.4,1.1-0.7,1.6c-0.2,0.4-0.3,0.9-0.5,1.3c-0.2,0.5-0.3,0.9-0.5,1.4c-0.1,0.2-0.1,0.3-0.2,0.5
		c-0.1,0.3-0.2,0.5-0.3,0.7c-0.1,0.2-0.2,0.4-0.2,0.6c-0.1,0.3,0.1,0.4,0.3,0.4c0.2,0,0.4,0,0.6,0C171.1,51.6,172.1,51.6,173.1,51.6
		z M177.4,49.8c-0.1-0.1-0.1-0.4-0.1-0.5c-0.2-0.4-0.3-0.8-0.5-1.2c-0.3-0.6-0.5-1.2-0.7-1.8c-0.1-0.3-0.2-0.6-0.4-0.9
		c-0.2-0.4-0.3-0.8-0.5-1.2c-0.1-0.2-0.2-0.5-0.3-0.7c-0.1-0.2-0.3-0.5-0.3-0.7c0-0.2-0.1-0.5-0.2-0.7c-0.1-0.3-0.2-0.5-0.3-0.8
		c-0.1-0.3-0.3-0.5-0.6-0.7c-0.3-0.2-0.6-0.3-0.9-0.2c-0.4,0-0.6,0.2-0.9,0.5c-0.4,0.4-0.6,0.9-0.7,1.5c0,0.1,0,0.2-0.1,0.3
		c-0.1,0.1-0.2,0.3-0.3,0.5c-0.1,0.3-0.2,0.6-0.3,0.8c0,0.1-0.1,0.2-0.2,0.3c-0.1,0.3-0.2,0.6-0.3,0.9c0,0.2-0.1,0.3-0.2,0.5
		c-0.1,0.2-0.2,0.4-0.2,0.5c-0.1,0.2-0.2,0.5-0.2,0.7c0,0.3-0.3,0.4-0.3,0.6c0,0.1-0.1,0.3-0.1,0.5c-0.1,0.2-0.2,0.5-0.3,0.7
		c-0.2,0.3-0.2,0.7-0.4,1.1c-0.2,0.3-0.1,0.6,0.2,0.8c0.2,0.1,0.3,0,0.4-0.1c0.1-0.1,0.1-0.2,0-0.3c-0.1-0.2-0.1-0.3,0-0.5
		c0.1-0.1,0.1-0.1,0.1-0.2c0.1-0.2,0.2-0.5,0.3-0.8c0.1-0.3,0.2-0.5,0.3-0.8c0,0,0-0.1,0-0.1c0.1-0.2,0-0.4,0.2-0.5c0,0,0,0,0,0
		c-0.1-0.2,0.1-0.3,0.1-0.5c0-0.1,0.1-0.2,0.2-0.3c0.1,0,0.1-0.1,0.1-0.1c0-0.3,0.2-0.7,0.3-1c0-0.1,0.1-0.3,0.2-0.4
		c0.1-0.1,0.1-0.2,0.1-0.3c0-0.1,0-0.2,0-0.2c0.1-0.1,0.2-0.3,0.2-0.5c0-0.1,0-0.1,0.1-0.1c0.1,0,0.1-0.1,0.1-0.2
		c0-0.2,0-0.4,0.1-0.6c0.2-0.3,0.2-0.6,0.4-0.9c0.2-0.3,0.3-0.6,0.6-0.8c0.2-0.1,0.3-0.2,0.5-0.1c0.2,0.1,0.3,0.2,0.5,0.3
		c0.1,0.1,0.1,0.2,0.2,0.2c0.2,0.1,0.3,0.4,0.3,0.5c0.1,0.3,0.2,0.6,0.2,0.9c0,0.1,0.1,0.2,0.2,0.3c0.1,0.1,0.2,0.2,0.1,0.4
		c0,0.2,0,0.4,0.2,0.5c0.1,0.1,0.1,0.2,0.1,0.3c0,0.1,0,0.2,0.1,0.3c0.2,0.2,0.3,0.4,0.3,0.7c0.1,0.3,0.2,0.7,0.4,1
		c0.2,0.3,0.4,0.6,0.4,1c0,0.3,0.2,0.5,0.3,0.7c0.1,0.3,0.2,0.5,0.4,0.8c0,0.1,0.1,0.1,0,0.2c-0.1,0.1,0,0.2,0.1,0.3
		c0.2,0.1,0.2,0.3,0,0.4c-0.1,0.1,0,0.2,0,0.3c0.1,0.1,0.1,0.3,0.3,0.4c0,0,0.1,0,0.1,0C177.3,50.4,177.4,50.2,177.4,49.8z
		 M175.4,53.4c0.2,0,0.4,0,0.6,0c0.3,0,0.5-0.1,0.8-0.3c0.4-0.2,0.4-0.6,0.5-0.9c0-0.1-0.1-0.2-0.2-0.1c-0.2,0.1-0.4,0.1-0.4,0.4
		c0,0,0,0,0,0.1c-0.3,0.4-0.8,0.6-1.3,0.6c-1.7,0-3.3,0-5,0c-0.2,0-0.5,0-0.7-0.1c-0.4-0.2-0.8-0.3-0.9-0.8c0-0.1-0.1-0.2-0.2-0.2
		c-0.1,0-0.2,0.1-0.2,0.2c0,0.1,0,0.2,0.1,0.3c0.3,0.5,0.7,0.8,1.3,0.8c1,0,2,0,3,0C173.5,53.4,174.5,53.3,175.4,53.4z M174.6,33.9
		c0.1,0,0.2,0,0.3,0c0.2,0,0.3-0.1,0.3-0.3c0,0,0-0.1,0-0.1c0.2-0.1,0.1-0.3,0-0.4c0-0.1-0.1-0.1-0.2,0c-0.3,0.4-0.7,0.4-1.2,0.4
		c-0.5,0-1.1,0-1.6,0c-0.3,0-0.6,0-0.9,0c-0.3,0-0.6,0-0.8-0.2c-0.1-0.1-0.2-0.2-0.3-0.2c0,0-0.1,0-0.1,0c0,0,0,0,0,0.1
		c0.1,0.1,0,0.2,0,0.3c-0.1,0.2,0,0.4,0.1,0.4c0.4,0.1,0.9,0.1,1.3,0c0.7-0.1,1.4-0.1,2.1,0C174,33.8,174.3,34,174.6,33.9z"/>
	<path class="st0" d="M144.3,44.8c0-3.9,0-7.8,0-11.7c0-0.2,0-0.5,0-0.7c0.2-0.4,0.4-0.6,0.8-0.6c0.8,0,1.7,0,2.5,0c0.5,0,1,0,1.5,0
		c0.4,0,0.8,0,1.2,0c0.3,0,0.6,0.2,0.6,0.5c0,0.4,0.1,0.8,0,1.1c0,0.2,0,0.3,0,0.5c0,0.7,0,1.3,0,2c0,0.3,0,0.6,0,0.9
		c0,0.4,0,0.7,0,1.1c0,0.1,0,0.2,0,0.3c0,0.3,0,0.5,0,0.8c0,0.4,0,0.8,0,1.2c0,0.5,0,1,0,1.5c0,0.4,0,0.8,0,1.2c0,0.6-0.1,1.2,0,1.9
		c0,0.5,0,0.9,0,1.4c0,0.5,0,0.9,0,1.4c0,0.6,0,1.2,0,1.7c0,0.4,0,0.7,0,1.1c0,0.2,0,0.4,0,0.6c0,0.5-0.1,1.1,0,1.6
		c0,0.4,0,0.8,0,1.2c0,0.5,0,1,0,1.4c0,0.7-0.2,1.4-0.2,2.1c0,0.4-0.1,0.7-0.2,1c0,0.2-0.1,0.3-0.1,0.5c0,0.2-0.1,0.4-0.2,0.6
		c-0.1,0.3-0.2,0.6-0.2,0.9c-0.1,0.4-0.3,0.7-0.4,1.1c-0.1,0.2-0.2,0.3-0.2,0.5c-0.1,0.3-0.3,0.5-0.5,0.7c-0.2,0.3-0.4,0.6-0.6,0.8
		c-0.4,0.6-0.9,1.1-1.5,1.5c-0.5,0.4-1,0.7-1.5,0.9c-0.5,0.2-1,0.4-1.5,0.6c-0.4,0.2-0.9,0.2-1.4,0.4c-0.2,0.1-0.3,0.1-0.5,0.1
		c-0.2,0-0.5,0-0.7,0.1c-0.2,0.1-0.4,0.1-0.5,0.1c-0.9,0-1.8,0.1-2.7,0c-0.5,0-1,0-1.5-0.1c-0.5-0.1-0.9-0.1-1.4-0.3
		c-0.3-0.1-0.7-0.1-1.1-0.3c-0.4-0.2-0.8-0.2-1.2-0.4c-0.4-0.2-0.9-0.4-1.3-0.7c-0.4-0.3-0.9-0.5-1.2-0.8c-0.2-0.2-0.4-0.3-0.6-0.5
		c-0.2-0.1-0.3-0.3-0.5-0.4c0,0-0.1-0.1-0.1-0.1c0.1-0.3,0.1-0.6,0.4-0.9c0.6-0.5,1-1,1.6-1.5c0.7-0.6,1.3-1.3,1.9-1.9
		c0.1-0.1,0.1-0.1,0.2-0.2c0.2-0.1,0.4-0.1,0.6,0c0.4,0.3,0.8,0.6,1.1,0.8c0.7,0.5,1.5,0.8,2.4,0.9c0.5,0,0.9,0.2,1.4,0.2
		c0.2,0,0.4,0,0.6-0.1c0.4-0.1,0.8-0.1,1.2-0.2c0.7-0.1,1.3-0.4,1.9-0.8c0.3-0.2,0.5-0.4,0.8-0.7c0.2-0.2,0.2-0.5,0.3-0.8
		c0-0.2,0.1-0.4,0.2-0.5c0.1-0.1,0.1-0.3,0.1-0.5c0-0.3,0-0.6,0.2-0.9c0.1-0.1,0.1-0.3,0.1-0.4C144.3,52.6,144.3,48.7,144.3,44.8
		C144.3,44.8,144.3,44.8,144.3,44.8z M139,65.7c0.5,0,0.9,0,1.4-0.1c0.6-0.1,1.3-0.1,1.9-0.3c0.4-0.1,0.8,0,1.1-0.3c0,0,0.1,0,0.2,0
		c0.2,0,0.5,0,0.6-0.2c0.3-0.2,0.6-0.2,0.8-0.4c0.3-0.2,0.6-0.3,0.9-0.5c0.1,0,0.1-0.1,0.2-0.1c0.3-0.2,0.5-0.4,0.8-0.6
		c0.3-0.3,0.6-0.6,0.9-0.8c0.1-0.1,0.2-0.3,0.4-0.4c0.2-0.2,0.4-0.4,0.5-0.7c0.2-0.3,0.4-0.5,0.6-0.7c0.1-0.2,0.3-0.4,0.4-0.6
		c0-0.1,0.1-0.1,0.1-0.2c-0.1-0.2,0-0.5,0.1-0.7c0.1-0.2,0.1-0.4,0.1-0.7c0-0.1,0-0.3,0-0.4c0-0.3,0.1-0.5,0.2-0.8
		c0,0,0.1-0.1,0-0.1c-0.1,0-0.1,0-0.1,0.1c-0.1,0.2-0.2,0.4-0.3,0.6c0,0.1-0.1,0.1-0.1,0.2c0,0.2,0,0.4-0.2,0.5c0,0,0,0,0,0.1
		c0,0.1-0.1,0.2-0.2,0.3c-0.1,0.1-0.2,0.2-0.2,0.4c0,0.1,0,0.3-0.1,0.4c-0.2,0.4-0.4,0.8-0.7,1.2c-0.3,0.4-0.5,0.7-0.8,1.1
		c-0.4,0.4-0.8,1-1.3,1.3c-0.5,0.3-0.9,0.8-1.5,1c0,0-0.1,0-0.1,0.1c-0.2,0.1-0.3,0.2-0.5,0.3c-0.2,0.1-0.5,0.1-0.8,0.2
		c-0.2,0.1-0.4,0.2-0.6,0.2c-0.7,0.2-1.4,0.2-2.1,0.3c-0.2,0-0.4,0.1-0.6,0.1c-0.5,0-1,0-1.4,0c-0.2,0-0.5,0-0.7,0
		c-0.5,0-1.1-0.1-1.6-0.2c-0.5-0.1-1.1-0.2-1.6-0.3c-0.2,0-0.4-0.2-0.7-0.2c-0.4-0.1-0.7-0.2-1-0.4c-0.3-0.2-0.7-0.2-1-0.4
		c0,0,0,0-0.1,0c-0.5-0.1-1-0.2-1.4-0.2c-0.1,0-0.3-0.1-0.3,0.1c0,0.1,0.2,0.1,0.3,0.1c0.2,0,0.5,0,0.7,0.1c0.5,0.1,0.9,0.3,1.4,0.5
		c0.2,0.1,0.3,0.3,0.5,0.3c0.2,0,0.3,0.1,0.5,0.2c0.5,0.2,1.1,0.4,1.7,0.5c0.5,0.1,1,0.2,1.6,0.3C137.5,65.6,138.3,65.7,139,65.7z
		 M141,62.8c0.2,0.1,0.2-0.1,0.4-0.1c0.3,0,0.5-0.1,0.8-0.3c0.2-0.1,0.4-0.2,0.6-0.4c0.3-0.2,0.6-0.4,0.8-0.6
		c0.3-0.4,0.5-0.8,0.6-1.3c0-0.2-0.1-0.5-0.2-0.5c-0.1-0.1-0.2,0-0.3,0.1c0,0.1,0,0.2-0.1,0.2c-0.1,0.1-0.1,0.2-0.1,0.3
		c0,0.3,0,0.6-0.3,0.9c-0.3,0.3-0.6,0.5-1,0.8c0,0,0,0,0,0c-0.3,0.1-0.5,0.3-0.9,0.3c-0.2,0-0.4,0.2-0.6,0.2
		c-0.6,0.1-1.2,0.2-1.9,0.2c-0.4,0-0.9,0-1.3-0.1c-0.6-0.1-1.2-0.2-1.8-0.5c-0.3-0.1-0.6-0.3-0.9-0.5c-0.6-0.3-1.2-0.4-1.8-0.3
		c-0.3,0.1-0.6,0.2-0.9,0.4c-0.1,0-0.1,0.1-0.1,0.2c0,0.1,0,0.1-0.1,0.1c-0.2,0.3-0.6,0.2-0.9,0.4c0,0,0,0,0,0
		c-0.2-0.1-0.3,0-0.4,0.1c-0.1,0-0.2,0.1-0.1,0.2c0,0.1,0.1,0.1,0.2,0.1c0.2,0,0.4,0,0.6,0c0.3,0,0.5-0.1,0.8-0.3
		c0.3-0.2,0.5-0.5,0.9-0.7c0.3-0.2,0.6-0.2,1-0.1c0.3,0.1,0.7,0.2,1,0.5c0.1,0.1,0.2,0.1,0.2,0.1c0.1,0,0.1,0,0.2,0.1
		c0.3,0.3,0.8,0.4,1.2,0.5c0.3,0.1,0.6,0.1,1,0.1c0.1,0,0.1,0,0.2,0c0.2,0.1,0.4,0.1,0.7,0.1c0.1,0,0.1,0,0.2,0
		c0.4,0.1,0.7,0.1,1.1,0c0,0,0.1,0,0.1,0c0.4,0,0.8,0,1.1-0.1C140.9,62.8,141,62.8,141,62.8z M147.5,33.8c0.4,0,0.7,0,1,0
		c0.5,0,0.9-0.1,1.2-0.4c0.1-0.1,0.2-0.2,0.3-0.3c0.1-0.1,0.2-0.2,0.2-0.3c0-0.1,0-0.1,0-0.1c-0.1,0-0.1,0-0.1,0
		c-0.1,0.2-0.3,0.3-0.5,0.4c-0.3,0.2-0.7,0.4-1.1,0.4c-0.6,0-1.3,0-1.9,0c-0.1,0-0.2,0-0.4,0c-0.4-0.1-0.8-0.2-1.1-0.5
		c-0.1-0.1-0.3-0.2-0.4-0.3c0,0-0.1-0.1-0.2,0c-0.1,0.1,0,0.1,0,0.2c0.2,0.2,0.3,0.5,0.6,0.5c0,0,0.1,0.1,0.1,0.1
		c0.2,0.1,0.4,0.3,0.7,0.3C146.5,33.8,147.1,33.8,147.5,33.8z"/>
</g>
</svg>
