<?xml version="1.0" encoding="utf-8"?>
<!-- Generator: $$$/GeneralStr/196=Adobe Illustrator 27.6.0, SVG Export Plug-In . SVG Version: 6.00 Build 0)  -->
<svg version="1.1" id="Capa_1" xmlns="http://www.w3.org/2000/svg" xmlns:xlink="http://www.w3.org/1999/xlink" x="0px" y="0px"
	 viewBox="0 0 250 100" style="enable-background:new 0 0 250 100;" xml:space="preserve">
<style type="text/css">
	.st0{fill:#777777;}
</style>
<g>
	<path class="st0" d="M161.5,36.2c-0.2,0.2-0.4,0.4-0.6,0.7c-0.8,1.2-1.6,2.4-2.4,3.6c-0.3,0.5-0.3,0.5-0.7,0
		c-0.9-1.3-1.7-2.6-2.6-3.9c-0.1-0.1-0.1-0.3-0.3-0.3c0,0.3,0,0.6,0,0.8c0,2,0,3.9,0,5.9c0,0.4-0.1,0.6-0.6,0.6c-0.5,0-1,0-1.5,0
		c-0.4,0-0.5-0.1-0.5-0.5c0-1,0-2,0-3c0-2.6,0-5.2,0-7.8c0-0.7,0-0.7,0.7-0.7c0.6,0,1.2,0,1.8,0c0.3,0,0.5,0.2,0.7,0.5
		c0.8,1.4,1.7,2.7,2.5,4.1c0.2,0.3,0.4,0.3,0.6,0c0.9-1.4,1.8-2.8,2.6-4.2c0.2-0.3,0.4-0.4,0.6-0.4c0.6,0,1.3,0,1.9,0
		c0.5,0,0.6,0.2,0.6,0.7c0,2.3,0,4.5,0,6.8c0,1.3,0,2.6,0,3.9c0,0.5-0.2,0.7-0.7,0.6c-0.5,0-1,0-1.4,0c-0.5,0-0.6-0.2-0.6-0.6
		c0-2.1,0-4.2,0-6.2C161.6,36.6,161.7,36.4,161.5,36.2z"/>
	<path class="st0" d="M88.4,36.4c-0.1,0.2-0.1,0.4-0.1,0.6c0,1.9,0,3.9,0,5.8c0,0.8,0,0.8-0.9,0.8c-0.4,0-0.8,0-1.1,0
		c-0.6,0-0.6,0-0.6-0.7c0-2.6,0-5.3,0-7.9c0-1,0-1.9,0-2.9c0-0.4,0.1-0.6,0.5-0.6c0,0,0,0,0,0c1.2-0.2,2.1,0.1,2.8,1.3
		c1.2,1.9,2.7,3.6,4.1,5.4c0.1,0.1,0.2,0.4,0.4,0.3c0.2-0.1,0.1-0.3,0.1-0.5c0-2,0-3.9,0-5.9c0-0.4,0.1-0.6,0.6-0.6
		c0.5,0,1.1,0,1.6,0c0.3,0,0.5,0.1,0.5,0.5c0,3.6,0,7.2,0,10.7c0,0.8,0,0.8-0.8,0.8c-1.8,0-1.3,0.2-2.4-1.1c-1.5-1.9-3-3.8-4.5-5.8
		C88.7,36.5,88.6,36.4,88.4,36.4z"/>
	<path class="st0" d="M19.8,31.6c1,0,2.2-0.1,3.5,0.2c1.6,0.3,2.9,1.5,3.1,3c0.3,1.9-0.3,3.4-1.9,4.3c-0.6,0.3-0.5,0.3-0.2,0.8
		c0.8,1.1,1.5,2.2,2.2,3.2c0.2,0.3,0.1,0.4-0.2,0.4c-0.8,0-1.6,0-2.3,0c-0.3,0-0.4-0.2-0.6-0.4c-0.6-0.9-1.3-1.8-1.9-2.7
		c-0.3-0.4-0.6-0.6-1.1-0.6c-1.4,0-1.2-0.2-1.2,1.2c0,0.7,0,1.3,0,2c0,0.4-0.2,0.5-0.5,0.5c-0.5,0-1.1,0-1.6,0
		c-0.5,0-0.6-0.2-0.6-0.6c0-3.1,0-6.3,0-9.4c0-0.5,0-0.9,0-1.4c0-0.4,0.2-0.6,0.6-0.6C17.8,31.6,18.7,31.6,19.8,31.6z M20.9,34.2
		C20.9,34.2,20.9,34.2,20.9,34.2c-0.4,0-0.9,0-1.3,0c-0.2,0-0.4,0.1-0.4,0.4c0,0.8,0,1.7,0,2.5c0,0.2,0.1,0.3,0.3,0.3
		c1,0,1.9,0.1,2.9-0.1c0.9-0.2,1.4-0.9,1.3-1.7c-0.1-0.8-0.7-1.4-1.6-1.4C21.7,34.2,21.3,34.2,20.9,34.2z"/>
	<path class="st0" d="M104.2,37.4c0-1.7,0-3.5,0-5.2c0-0.3,0.1-0.6,0.4-0.6c1.9,0,3.9-0.2,5.8,0.2c2.6,0.5,4.4,2.4,4.8,5.1
		c0.4,2.3-0.8,4.7-2.9,5.9c-1,0.6-2,0.9-3.2,0.9c-1.4,0-2.8,0-4.2,0c-0.5,0-0.7-0.2-0.7-0.7c0-1.4,0-2.9,0-4.3
		C104.2,38.2,104.2,37.8,104.2,37.4C104.2,37.4,104.2,37.4,104.2,37.4z M107,37.7C107,37.7,106.9,37.7,107,37.7c0,1,0,2,0,2.9
		c0,0.4,0.2,0.5,0.5,0.5c0.5,0,1,0,1.5,0c2.2,0,3.6-1.5,3.5-3.8c-0.1-1.7-1.5-3.1-3.3-3.1c-0.6,0-1.1,0-1.7,0
		c-0.4,0-0.6,0.1-0.6,0.6C107,35.8,107,36.7,107,37.7z"/>
	<path class="st0" d="M39.6,43.8c-2.8,0.1-5.7-1.9-6.3-5.1c-0.6-3.4,2.1-6.8,5.5-7.1c2-0.2,3.8,0.3,5.2,1.7c1.7,1.7,2.4,3.7,1.7,6.1
		c-0.7,2.4-2.3,3.8-4.7,4.4C40.6,43.8,40.1,43.8,39.6,43.8z M36.1,37.7c0,2.1,1.5,3.7,3.5,3.7c2,0,3.5-1.5,3.5-3.6
		c0-2.1-1.5-3.7-3.5-3.8C37.5,34,36.2,35.7,36.1,37.7z"/>
	<path class="st0" d="M128.4,43.8c-3.5,0.1-6.3-2.4-6.4-6.1c0-3.4,2.8-6.2,6.4-6.2c3.5,0,6.2,2.8,6.3,6.2
		C134.9,41,131.9,44,128.4,43.8z M132,37.8c0-2.1-1.5-3.7-3.6-3.7c-2,0-3.4,1.5-3.4,3.5c0,2.2,1.5,3.7,3.6,3.7
		C130.5,41.4,132,39.8,132,37.8z"/>
	<path class="st0" d="M69.2,37.6c0-1.8,0-3.6,0-5.3c0-0.6,0-0.7,0.7-0.7c2.6,0,5.2,0,7.8,0c0.7,0,0.7,0.1,0.7,0.7c0,0.4,0,0.8,0,1.2
		c0,0.5-0.2,0.7-0.6,0.7c-1.5,0-2.9,0-4.4,0c-1.4,0-1.4,0-1.4,1.4c0,0.8,0,0.8,0.8,0.7c1.5-0.1,2.9-0.1,4.4,0c0.3,0,0.4,0.2,0.4,0.4
		c0,0.5,0,1,0,1.4c0,0.4-0.1,0.6-0.6,0.6c-1.5,0-2.9,0-4.4,0c-0.6,0-0.6,0-0.6,0.6c0,0.4,0,0.8,0,1.2c0,0.4,0.2,0.5,0.5,0.5
		c1.5-0.1,3-0.1,4.5-0.1c1.8,0,1.4-0.1,1.4,1.4c0,1.3,0,1.1-1.1,1.1c-2.4,0-4.8,0-7.1,0c-1,0-1,0-1-1C69.2,41,69.2,39.3,69.2,37.6z"
		/>
	<path class="st0" d="M206.7,37.6c0-1.8,0-3.5,0-5.3c0-0.5,0.1-0.7,0.6-0.7c2.6,0,5.3,0,7.9,0c0.4,0,0.6,0.1,0.5,0.6
		c0,0.5,0,0.9,0,1.4c0,0.6,0,0.7-0.7,0.7c-1.7,0-3.3,0-5,0c-0.6,0-0.6,0-0.6,0.6c0,0.3,0,0.6,0,0.9c0,0.4,0.2,0.6,0.6,0.5
		c1.5-0.1,3.1-0.1,4.6,0c0.3,0,0.4,0.1,0.4,0.4c0,0.5,0,1,0,1.5c0,0.4-0.2,0.6-0.6,0.6c-1.5,0-3,0-4.5,0c-0.4,0-0.6,0.1-0.6,0.6
		c0.1,0.4,0,0.8,0,1.2c0,0.4,0.2,0.5,0.5,0.5c1.8-0.1,3.7-0.1,5.5,0c0.3,0,0.4,0.1,0.4,0.4c0,0.5,0,1.1,0,1.6c0,0.3-0.1,0.4-0.5,0.4
		c-2.7,0-5.5,0-8.2,0c-0.4,0-0.4-0.2-0.4-0.6C206.7,41.2,206.7,39.4,206.7,37.6C206.7,37.6,206.7,37.6,206.7,37.6z"/>
	<path class="st0" d="M230.8,35.6c0-1.1,0-2.3,0-3.4c0-0.4,0.1-0.6,0.6-0.6c0.5,0,1.1,0,1.6,0c0.3,0,0.5,0.1,0.5,0.5
		c0,2.5,0.2,5-0.1,7.5c-0.3,2.6-2.2,4.2-4.8,4.3c-1.3,0-2.5-0.1-3.6-0.9c-1.2-0.8-1.8-2-1.9-3.5c-0.2-2.5-0.1-4.9-0.1-7.4
		c0-0.3,0.1-0.5,0.5-0.5c0.6,0,1.2,0,1.8,0c0.3,0,0.5,0.1,0.5,0.5c0,1.8,0,3.6,0,5.4c0,0.5,0,1.1,0.1,1.6c0.1,1.5,1.1,2.3,2.6,2.3
		c1.4,0,2.3-1,2.4-2.4C230.8,37.9,230.8,36.7,230.8,35.6C230.8,35.6,230.8,35.6,230.8,35.6z"/>
	<path class="st0" d="M182.3,43.6c-1.3,0-1.3,0-1.8-1.2c-0.6-1.4-0.6-1.4-2-1.4c-1,0-2,0-3,0c-0.4,0-0.6,0.1-0.7,0.5
		c-0.2,0.6-0.5,1.1-0.7,1.7c-0.1,0.3-0.3,0.4-0.6,0.4c-0.6,0-1.2,0-1.8,0c-0.4,0-0.4-0.1-0.3-0.5c1.1-2.5,2.2-5.1,3.3-7.6
		c0.5-1.2,1.1-2.4,1.5-3.6c0.1-0.2,0.2-0.3,0.4-0.3c0.1,0,0.2,0,0.2,0c1.9,0,1.9,0,2.6,1.7c1.4,3.3,2.8,6.5,4.2,9.8
		c0.2,0.5,0.2,0.5-0.3,0.5C182.9,43.6,182.6,43.6,182.3,43.6z M177.4,38.5c0.4,0,0.7,0,1.1,0c0.3,0,0.4-0.1,0.3-0.4
		c-0.4-1-0.8-1.9-1.2-2.9c0-0.1-0.1-0.2-0.2-0.2c-0.1,0-0.1,0.1-0.1,0.2c-0.4,0.9-0.8,1.9-1.2,2.8c-0.2,0.4,0,0.5,0.3,0.5
		C176.7,38.5,177,38.5,177.4,38.5z"/>
	<path class="st0" d="M57.7,43.7c-1.9,0-3.5-0.6-4.9-1.7c-0.2-0.2-0.2-0.3-0.1-0.5c0.4-0.5,0.8-0.9,1.1-1.4c0.2-0.2,0.4-0.2,0.6,0
		c0.8,0.6,1.6,1,2.6,1.1c0.6,0.1,1.2,0.1,1.7-0.2c0.6-0.4,0.7-1.1,0.1-1.5c-0.4-0.3-0.8-0.4-1.3-0.6c-0.8-0.3-1.6-0.4-2.4-0.7
		c-1.6-0.6-2.3-1.7-2.2-3.1c0.1-1.7,1.2-3,2.7-3.4c2-0.5,3.9-0.1,5.6,1.2c0.2,0.2,0.3,0.4,0.1,0.6c-0.3,0.4-0.6,0.9-0.9,1.3
		c-0.2,0.3-0.4,0.3-0.6,0.1C59,34.3,58,34,56.8,34.1c-0.2,0-0.5,0.1-0.7,0.2c-0.6,0.3-0.6,1-0.1,1.4c0.2,0.2,0.5,0.3,0.8,0.4
		c0.9,0.3,1.8,0.4,2.7,0.8c1.1,0.4,2,1,2.3,2.3c0.5,2.1-0.7,3.9-3,4.4C58.5,43.7,58,43.7,57.7,43.7z"/>
	<path class="st0" d="M194.8,31.6c1.4,0,2.9,0,4.3,0c0.6,0,0.7,0.1,0.6,0.7c0,0.5,0,1,0,1.4c0,0.3-0.1,0.5-0.5,0.5
		c-0.8,0-1.7,0-2.5,0c-0.5,0-0.7,0.1-0.7,0.6c0,2.7,0,5.4,0,8c0,0.7,0,0.7-0.7,0.7c-0.5,0-0.9,0-1.4,0c-0.5,0-0.6-0.2-0.6-0.6
		c0-2.6,0-5.2,0-7.8c0-1.1,0.1-1-1-1c-0.7,0-1.4,0-2.1,0c-0.4,0-0.5-0.1-0.5-0.5c0-0.5,0-1,0-1.5c0-0.4,0.2-0.6,0.6-0.6
		C191.8,31.6,193.3,31.6,194.8,31.6C194.8,31.6,194.8,31.6,194.8,31.6z"/>
	<path class="st0" d="M95.4,65.1c0-0.9,0-1.8,0-2.7c0-0.4,0.1-0.5,0.6-0.5c0.9,0,1.9,0,2.8,0c0.7,0,1.3,0.3,1.6,1
		c0.3,0.7,0.2,1.3-0.3,1.8c-0.2,0.2-0.2,0.3,0.1,0.5c0.6,0.4,0.9,0.9,0.8,1.6c-0.1,0.7-0.6,1.2-1.3,1.4c-0.7,0.2-1.4,0.2-2.1,0.2
		c-0.5,0-1.1,0-1.6,0c-0.4,0-0.5-0.1-0.5-0.5C95.4,66.9,95.4,66,95.4,65.1z M98,65.8C98,65.8,98,65.8,98,65.8c-0.3,0-0.6,0-0.8,0
		c-0.3,0-0.4,0.3-0.3,0.5c0,0.3-0.2,0.7,0.3,0.7c0.6,0.1,1.2,0.1,1.8,0c0.3-0.1,0.5-0.3,0.5-0.7c0-0.3-0.2-0.5-0.6-0.5
		C98.5,65.8,98.3,65.8,98,65.8z M97.8,64.4C97.8,64.4,97.8,64.4,97.8,64.4c0.2,0,0.5,0,0.7,0c0.3-0.1,0.5-0.3,0.5-0.6
		c0-0.3-0.1-0.5-0.4-0.6c-0.5-0.1-1-0.1-1.5,0c-0.1,0-0.2,0.1-0.2,0.2c-0.3,0.6,0,1.1,0.7,1.1C97.6,64.4,97.7,64.4,97.8,64.4z"/>
	<path class="st0" d="M192.9,54.3c0-1,0-2,0-3c0-0.5,0.1-0.6,0.6-0.6c0.9,0,0.9,0,0.9,1c0,1.6,0,3.2,0,4.8c0,0.3,0.1,0.7-0.3,0.8
		c-0.4,0.1-0.8,0.2-1.2-0.2c-0.4-0.5-0.7-0.9-1.1-1.4c-0.5-0.6-1-1.3-1.5-1.9c-0.1-0.1-0.1-0.3-0.3-0.2c-0.1,0.1-0.1,0.2-0.1,0.3
		c0,1,0,1.9,0,2.9c0,0.5-0.2,0.6-0.6,0.6c-0.7,0-0.8-0.1-0.8-0.6c0-1.8,0-3.7,0-5.5c0-0.4,0.1-0.5,0.5-0.5c0.6-0.1,1,0.2,1.4,0.7
		c0.6,0.9,1.3,1.7,1.9,2.5C192.5,54,192.6,54.2,192.9,54.3z"/>
	<path class="st0" d="M150.6,64.5c0,0.8,0,1.6,0,2.3c0,0.3,0,0.6,0,0.8c0,0.7,0,0.7-0.7,0.7c-0.7,0-0.7,0-0.7-0.7c0-1.7,0-3.5,0-5.2
		c0-0.5,0.2-0.6,0.6-0.6c0.6,0,1,0.2,1.3,0.6c0.6,0.9,1.3,1.8,2,2.7c0.1,0.1,0.1,0.3,0.3,0.2c0.2-0.1,0.1-0.3,0.1-0.4
		c-0.1-0.8,0.1-1.6,0-2.4c-0.1-0.6,0-0.7,0.7-0.7c0.1,0,0.2,0,0.2,0c0.4-0.1,0.6,0.1,0.6,0.6c0,1.7,0,3.5,0,5.2
		c0,0.3,0.1,0.6-0.2,0.7c-0.4,0.1-0.9,0.2-1.2-0.2c-0.2-0.3-0.4-0.6-0.6-0.8c-0.6-0.8-1.3-1.6-1.9-2.5
		C150.9,64.7,150.9,64.5,150.6,64.5z"/>
	<path class="st0" d="M60.4,57.3c-2,0-3.4-1.5-3.4-3.5c0-1.8,1.6-3.4,3.5-3.4c1.8,0,3.4,1.6,3.4,3.5C63.9,55.8,62.3,57.3,60.4,57.3z
		 M62.3,53.9c0-1.3-0.6-1.9-1.8-1.9c-1.3-0.1-1.9,1-1.9,1.9c0,1.1,0.8,2,1.9,2C61.5,55.9,62.3,55.1,62.3,53.9z"/>
	<path class="st0" d="M149.3,50.6c0.4,0,0.9,0,1.3,0c1,0,1.8,0.6,2.1,1.4c0.3,1,0.1,1.9-0.8,2.5c-0.4,0.3-0.4,0.5-0.1,0.9
		c0.3,0.4,0.6,0.9,1,1.4c0.2,0.3,0.1,0.3-0.2,0.4c-1,0.2-1.3,0-1.8-0.8c-0.2-0.3-0.4-0.6-0.5-0.8c-0.2-0.3-0.5-0.4-0.8-0.4
		c-0.4,0-0.5,0.1-0.5,0.5c0,0.4,0,0.7,0,1.1c0,0.3-0.1,0.5-0.5,0.5c0,0-0.1,0-0.1,0c-0.9,0-0.9,0-0.9-0.9c0-1.7,0-3.4,0-5
		c0-0.4,0.1-0.6,0.6-0.6C148.4,50.7,148.8,50.6,149.3,50.6z M149.7,53.7c0.4,0,0.8,0,1.1-0.1c0.4-0.1,0.5-0.4,0.5-0.8
		c0-0.4-0.2-0.6-0.6-0.7c-0.5-0.1-1,0-1.5,0c-0.1,0-0.3,0.1-0.3,0.2c0,0.4,0,0.8,0,1.2c0,0.2,0.1,0.2,0.3,0.2
		C149.4,53.7,149.5,53.7,149.7,53.7z"/>
	<path class="st0" d="M183,57.3c-2,0-3.5-1.5-3.5-3.4c0-1.9,1.6-3.5,3.5-3.5c1.8,0,3.4,1.6,3.4,3.4C186.5,55.8,185,57.3,183,57.3z
		 M183.1,52c-1.2,0-1.9,0.7-1.9,1.9c0,1.2,0.7,2,1.8,2.1c1.1,0,2.1-1,2-2.1C184.9,52.8,184.2,51.9,183.1,52z"/>
	<path class="st0" d="M140.1,65c0-1.8,1.6-3.4,3.5-3.3c1.8,0,3.4,1.6,3.4,3.5c0,1.8-1.6,3.4-3.5,3.4C141.6,68.5,140.1,67,140.1,65z
		 M145.4,65.1c0-1.2-0.6-1.9-1.8-1.9c-1.2,0-1.9,0.7-1.9,1.9c0,1.2,0.8,2,1.9,2C144.7,67.1,145.4,66.2,145.4,65.1z"/>
	<path class="st0" d="M113.1,61.8c0.4,0,0.9,0,1.3,0c1,0,1.8,0.6,2.1,1.4c0.3,1,0,1.9-0.8,2.5c-0.4,0.2-0.3,0.4-0.1,0.7
		c0.4,0.5,0.7,1,1.1,1.5c0.2,0.2,0.1,0.4-0.2,0.4c-0.3,0-0.7,0-1,0c-0.3,0-0.4-0.2-0.6-0.4c-0.3-0.4-0.6-0.8-0.8-1.3
		c-0.3-0.5-0.7-0.5-1.1-0.4c-0.2,0-0.2,0.2-0.2,0.4c0,0.4,0,0.8,0,1.1c0,0.4-0.1,0.6-0.5,0.6c-1,0-1.1,0-1-1.1c0.1-1.6,0-3.3,0-4.9
		c0-0.4,0.1-0.6,0.5-0.5C112.2,61.8,112.6,61.8,113.1,61.8z M113.6,64.9c0.3,0,0.6,0,0.8-0.1c0.4-0.1,0.6-0.3,0.6-0.8
		c0-0.4-0.2-0.7-0.6-0.8c-0.3-0.1-0.6-0.1-0.9-0.1c-1,0-0.8,0-0.9,0.9C112.7,64.9,112.7,64.9,113.6,64.9z"/>
	<path class="st0" d="M157.4,50.6c0.6,0,1.3,0,1.9,0c0.4,0,0.6,0.1,0.5,0.5c0,0.1,0,0.3,0,0.4c0,0.3-0.1,0.4-0.4,0.4
		c-0.8,0-1.7,0.1-2.5,0c-0.3,0-0.6,0-0.6,0.4c0,0.4,0.1,0.6,0.6,0.6c0.7,0,1.4,0,2,0.1c0.3,0,0.5,0.2,0.5,0.5c0,0.2,0,0.3,0,0.5
		c0,0.3-0.1,0.5-0.4,0.5c-0.7,0-1.4,0-2.1,0c-0.5,0-0.5,0.2-0.5,0.6c0,0.4,0.1,0.6,0.6,0.6c0.8,0,1.7,0,2.5,0c0.4,0,0.5,0.2,0.5,0.5
		c0,0.3,0.2,0.8-0.5,0.9c-1.4,0-2.8,0-4.1,0c-0.3,0-0.4-0.1-0.4-0.5c0-1.9,0-3.8,0-5.6c0-0.3,0.1-0.4,0.4-0.4
		C156,50.7,156.7,50.6,157.4,50.6z"/>
	<path class="st0" d="M126.6,65.1c0-0.9,0-1.8,0-2.7c0-0.4,0.1-0.5,0.5-0.5c1.3,0,2.6,0,3.9,0c0.7,0,0.4,0.5,0.5,0.9
		c0.1,0.4-0.1,0.5-0.5,0.5c-0.8,0-1.6,0.1-2.4,0c-0.4-0.1-0.5,0.1-0.6,0.5c0,0.4,0.1,0.5,0.5,0.5c0.7,0,1.4,0,2.1,0.1
		c0.4,0,0.5,0.2,0.5,0.5c0,0.9,0,0.9-1,1c-0.5,0-1.1,0-1.6,0c-0.4,0-0.5,0.2-0.5,0.5c0,0.3,0,0.6,0.5,0.6c0.8,0,1.7,0,2.5,0
		c0.5,0,0.6,0.2,0.5,0.6c0,0.4,0.1,0.8-0.5,0.8c-1.3,0-2.6,0-3.9,0c-0.4,0-0.5-0.2-0.5-0.5C126.6,66.9,126.6,66,126.6,65.1z"/>
	<path class="st0" d="M125.4,53.8c0-0.9,0-1.8,0-2.7c0-0.3,0.1-0.4,0.4-0.4c1.4,0,2.8,0,4.1,0c0.3,0,0.4,0.1,0.4,0.4
		c0,0.2,0,0.4,0,0.5c0,0.3-0.1,0.4-0.4,0.4c-0.9,0.1-1.7,0.1-2.6,0c-0.3,0-0.5,0-0.5,0.4c0,0.3-0.1,0.7,0.4,0.7c0.7,0,1.5,0,2.2,0
		c0.3,0,0.4,0.1,0.4,0.4c0,0.2,0,0.4,0,0.6c0,0.3-0.2,0.5-0.5,0.5c-0.7,0-1.4,0-2.1,0c-0.5,0-0.5,0.2-0.5,0.6c0,0.3,0,0.7,0.5,0.7
		c0.8,0,1.7,0,2.5,0c0.6,0,0.5,0.4,0.5,0.8c0,0.4,0,0.6-0.5,0.6c-1.3,0-2.5,0-3.8,0c-0.5,0-0.7-0.2-0.6-0.6
		C125.5,55.6,125.5,54.7,125.4,53.8C125.5,53.8,125.5,53.8,125.4,53.8z"/>
	<path class="st0" d="M114.6,53.9c0-0.9,0-1.9,0-2.8c0-0.3,0.1-0.5,0.5-0.5c1.3,0,2.6,0,3.9,0c0.4,0,0.5,0.1,0.5,0.5
		c0,0.1,0,0.3,0,0.4c0,0.3-0.1,0.4-0.4,0.4c-0.8,0-1.6,0.2-2.4,0c-0.4-0.1-0.6,0.1-0.6,0.5c0,0.4,0.1,0.6,0.5,0.6c0.7,0,1.3,0,2,0
		c0.4,0,0.5,0.2,0.5,0.6c0,0.9,0,0.9-0.9,0.9c-0.5,0-1.1,0-1.6,0c-0.5,0-0.5,0.3-0.5,0.6c0,0.4,0.1,0.6,0.5,0.6c0.8,0,1.6,0,2.4,0
		c0.4,0,0.5,0.2,0.5,0.5c0,0.3,0.2,0.8-0.5,0.8c-1.3,0-2.7,0-4,0c-0.3,0-0.5-0.1-0.5-0.5C114.6,55.8,114.6,54.8,114.6,53.9z"/>
	<path class="st0" d="M105.8,67c-0.1,0-0.1,0-0.2,0c-1.1,0-1.1,0-1.5,1c-0.2,0.4-0.4,0.4-0.8,0.4c-1,0-1.1,0.1-0.6-0.9
		c0.8-1.7,1.5-3.5,2.3-5.2c0.2-0.5,0.6-0.4,0.9-0.4c0.4,0,0.6,0.1,0.8,0.5c0.8,1.9,1.6,3.8,2.4,5.6c0.1,0.3,0.1,0.5-0.3,0.4
		c-0.2,0-0.5,0-0.7,0c-0.2,0-0.4-0.1-0.5-0.3C107.4,67,106.7,66.8,105.8,67z M105.8,63.7c-0.2,0.3-0.3,0.6-0.4,0.8
		c-0.4,1-0.6,1,0.7,1c0.3,0,0.4-0.1,0.3-0.4C106.3,64.6,106.1,64.2,105.8,63.7z"/>
	<path class="st0" d="M140.1,53.9c0-0.9,0-1.8,0-2.7c0-0.4,0.1-0.5,0.5-0.5c0.8,0,1.7,0,2.5,0c1,0,2,0.8,2.1,1.7
		c0.2,1.3-0.2,2.2-1.3,2.7c-0.5,0.2-1.1,0.3-1.7,0.3c-0.4,0-0.6,0.1-0.6,0.6c0,0.3,0,0.6,0,0.9c0,0.3-0.2,0.4-0.4,0.4
		c0,0-0.1,0-0.1,0c-0.9,0-0.9,0-1-0.9C140.1,55.5,140.1,54.7,140.1,53.9z M141.7,52.9c0,1,0,1,1,0.9c0.2,0,0.4,0,0.6-0.1
		c0.4-0.1,0.6-0.4,0.6-0.8c0-0.6-0.2-0.8-1.1-0.9C141.9,51.9,141.7,52,141.7,52.9z"/>
	<path class="st0" d="M79.9,57.2c-0.2,0-0.3,0-0.4,0c-0.3,0-0.4-0.1-0.2-0.4c0.8-1.9,1.7-3.9,2.5-5.8c0.2-0.5,0.6-0.3,1-0.3
		c0.3,0,0.5,0.1,0.7,0.4c0.7,1.7,1.4,3.4,2.1,5.1c0,0.1,0.1,0.1,0.1,0.2c0,0.3,0.6,0.6,0.1,0.9c-0.5,0.3-1.3,0-1.5-0.5
		c-0.3-0.8-0.3-0.8-1.2-0.8c-0.4,0-0.7,0-1.1,0c-0.6-0.1-0.9,0.2-1,0.7C80.8,57.1,80.5,57.3,79.9,57.2z M82.6,54.3
		c0.7,0,0.8,0,0.5-0.7c-0.1-0.3-0.2-0.5-0.3-0.8c0-0.1-0.1-0.2-0.2-0.2c-0.1,0-0.2,0.1-0.2,0.2c-0.1,0.2-0.2,0.5-0.3,0.7
		C81.8,54.3,81.8,54.3,82.6,54.3z"/>
	<path class="st0" d="M160.3,67c-0.1,0-0.1,0-0.2,0c-0.8-0.1-1.3,0-1.6,0.9c-0.1,0.5-0.9,0.7-1.4,0.5c-0.3-0.1-0.1-0.3-0.1-0.5
		c0.4-1,0.8-2.1,1.3-3.1c0.4-0.8,0.8-1.6,1.1-2.5c0.2-0.5,0.6-0.5,1-0.5c0.4,0,0.6,0.1,0.7,0.5c0.8,1.9,1.6,3.7,2.4,5.6
		c0.2,0.4,0,0.4-0.3,0.5c-1,0.1-1.1,0-1.4-0.9c-0.1-0.4-0.3-0.6-0.7-0.5C160.9,67,160.6,67,160.3,67C160.3,67,160.3,67,160.3,67z
		 M160.4,65.5c0,0,0.2,0,0.4,0c0.2,0,0.3-0.1,0.2-0.3c-0.2-0.4-0.3-0.8-0.5-1.2c-0.1-0.2-0.2-0.2-0.3,0c-0.1,0.3-0.2,0.6-0.4,0.9
		C159.5,65.5,159.5,65.5,160.4,65.5z"/>
	<path class="st0" d="M171.4,57.3c-1,0-1.8-0.3-2.5-0.8c-0.3-0.2-0.4-0.4-0.1-0.7c0.5-0.5,0.4-0.7,1.2-0.2c0.5,0.3,1.1,0.4,1.7,0.3
		c0.2-0.1,0.4-0.2,0.5-0.5c0-0.3-0.1-0.4-0.4-0.5c-0.3-0.1-0.6-0.2-0.9-0.3c-0.3-0.1-0.6-0.2-0.9-0.3c-0.7-0.2-1.2-0.8-1.2-1.5
		c-0.1-0.8,0.3-1.4,1-1.8c1.2-0.7,2.5-0.3,3.5,0.3c0.2,0.1,0.2,0.3,0.1,0.6c-0.4,0.7-0.5,0.8-1.2,0.4c-0.3-0.1-0.7-0.2-1.1-0.2
		c-0.3,0-0.6,0.1-0.7,0.4c-0.1,0.4,0.2,0.5,0.4,0.6c0.7,0.3,1.4,0.4,2,0.7c1.3,0.7,1.1,2.6,0.1,3.2
		C172.3,57.2,171.8,57.3,171.4,57.3z"/>
	<path class="st0" d="M164.5,57.3c-1,0-1.8-0.3-2.5-0.8c-0.3-0.2-0.4-0.5-0.1-0.7c0.5-0.5,0.5-0.7,1.2-0.2c0.5,0.3,1.1,0.5,1.7,0.3
		c0.3-0.1,0.5-0.2,0.5-0.5c0-0.3-0.1-0.5-0.4-0.6c-0.3-0.1-0.6-0.2-0.9-0.3c-0.3-0.1-0.6-0.2-1-0.3c-1.6-0.5-1.5-2.4-0.5-3.2
		c0.9-0.7,2.9-0.7,3.7,0.2c0.2,0.2,0.2,0.3,0.1,0.5c-0.3,0.7-0.5,0.8-1.2,0.5c-0.3-0.1-0.7-0.2-1-0.2c-0.3,0-0.7,0-0.8,0.4
		c-0.1,0.4,0.2,0.6,0.5,0.7c0.6,0.2,1.2,0.4,1.8,0.6c1.3,0.6,1.3,2.3,0.3,3.2C165.6,57.2,165,57.3,164.5,57.3z"/>
	<path class="st0" d="M199.1,57.3c-0.9,0-1.7-0.3-2.4-0.8c-0.3-0.2-0.3-0.4-0.1-0.7c0.5-0.6,0.5-0.6,1.2-0.2
		c0.5,0.3,1.1,0.5,1.7,0.3c0.3-0.1,0.5-0.2,0.5-0.5c0-0.3-0.1-0.5-0.4-0.6c-0.3-0.1-0.6-0.2-0.9-0.3c-0.3-0.1-0.6-0.2-0.9-0.3
		c-1.5-0.5-1.5-2.5-0.4-3.3c0.9-0.7,2.8-0.6,3.6,0.2c0.1,0.1,0.2,0.2,0.1,0.4c-0.2,0.7-0.6,0.8-1.2,0.6c-0.3-0.2-0.7-0.2-1.1-0.2
		c-0.3,0-0.6,0.1-0.7,0.4c-0.1,0.4,0.2,0.5,0.5,0.7c0.6,0.2,1.2,0.4,1.8,0.6c1.3,0.6,1.3,2.3,0.4,3.2
		C200.5,57.1,199.9,57.3,199.1,57.3z"/>
	<path class="st0" d="M133.1,50.6c0.5-0.1,0.9,0.2,1.1,0.7c0.2,0.3,0.4,0.7,0.6,1c0.2,0.3,0.4,0.3,0.6,0c0.2-0.4,0.5-0.8,0.7-1.2
		c0.3-0.4,1.3-0.7,1.7-0.4c0.3,0.1,0,0.3,0,0.4c-0.5,0.8-1.1,1.6-1.7,2.4c-0.2,0.2-0.2,0.4,0,0.7c0.6,0.9,1.2,1.8,1.8,2.6
		c0.2,0.2,0.1,0.3-0.2,0.4c-0.9,0.2-1.3,0-1.8-0.8c-0.2-0.4-0.5-0.7-0.7-1.1c-0.2-0.2-0.3-0.2-0.5,0c-0.3,0.5-0.6,1-0.9,1.4
		c-0.2,0.4-1.3,0.6-1.6,0.4c-0.2-0.2,0-0.3,0.1-0.5c0.5-0.8,1.1-1.7,1.7-2.5c0.2-0.2,0.2-0.4,0-0.7c-0.5-0.8-1.1-1.5-1.6-2.3
		c-0.1-0.1-0.3-0.3-0.2-0.5c0.1-0.2,0.3-0.1,0.5-0.1C132.9,50.6,133,50.6,133.1,50.6z"/>
	<path class="st0" d="M91,57.3c-1.7,0-3-1.2-3.3-2.9c-0.3-1.7,0.7-3.2,2.3-3.8c1.2-0.4,2.2-0.2,3.2,0.5c0.4,0.2,0.5,0.5,0.1,0.8
		c-0.1,0.1-0.2,0.3-0.3,0.4c-0.2,0.2-0.3,0.2-0.6,0.1c-0.9-0.7-2-0.6-2.7,0.1c-0.7,0.7-0.7,2,0,2.8c0.5,0.6,1.7,0.7,2.5,0.2
		c0.2-0.1,0.3-0.4,0.6-0.2c0.3,0.2,0.5,0.4,0.7,0.7c0.1,0.2-0.1,0.3-0.2,0.4C92.7,57,91.9,57.3,91,57.3z"/>
	<path class="st0" d="M118.6,64.8c0.1-1.2,0.7-2.2,2-2.8c1.3-0.6,2.5-0.4,3.7,0.4c0.2,0.2,0.2,0.3,0.1,0.5c-0.1,0.1-0.2,0.2-0.3,0.4
		c-0.2,0.3-0.4,0.4-0.8,0.1c-0.6-0.4-1.7-0.4-2.3-0.1c-0.7,0.5-0.9,1.2-0.8,2.1c0.1,0.9,0.7,1.4,1.6,1.6c0.6,0.1,1-0.1,1.5-0.4
		c0.4-0.3,1.2,0.1,1.2,0.6c0,0.2-0.1,0.3-0.2,0.4c-1.1,0.9-2.4,1.1-3.7,0.5C119.2,67.5,118.6,66.4,118.6,64.8z"/>
	<path class="st0" d="M72.7,53.8c0-0.9,0-1.9,0-2.8c0-0.3,0.1-0.4,0.3-0.4c1.4,0,2.8,0,4.2,0c0.3,0,0.4,0.1,0.4,0.4
		c0,0.2,0,0.4,0,0.6c0,0.3-0.1,0.4-0.4,0.4c-0.9,0-1.8,0.1-2.6,0c-0.3,0-0.5,0.1-0.5,0.4c0,0.3-0.2,0.8,0.4,0.8c0.7,0,1.4,0,2.1,0
		c0.5,0,0.6,0.1,0.6,0.7c0,0.4-0.1,0.7-0.6,0.7c-0.6,0-1.3,0-1.9-0.1c-0.4,0-0.6,0.1-0.6,0.6c0,0.5,0,0.9,0,1.4
		c0,0.5-0.2,0.6-0.7,0.6c-0.7,0-0.8-0.1-0.8-0.6C72.7,55.7,72.7,54.7,72.7,53.8C72.7,53.8,72.7,53.8,72.7,53.8z"/>
	<path class="st0" d="M109.4,54.9c0.5-1.3,0.9-2.5,1.4-3.7c0.1-0.2,0.1-0.5,0.4-0.6c0.4,0,0.8,0,1.2,0c0.2,0,0.1,0.2,0.1,0.3
		c-0.8,1.9-1.6,3.9-2.3,5.8c-0.2,0.4-0.5,0.4-0.8,0.4c-0.4,0-0.7-0.1-0.8-0.5c-0.6-1.4-1.1-2.8-1.7-4.3c-0.2-0.4-0.4-0.9-0.5-1.3
		c-0.1-0.3-0.1-0.5,0.3-0.4c0,0,0.1,0,0.1,0c1.1,0,1.1,0,1.4,1c0.3,0.8,0.6,1.7,0.9,2.5C109.1,54.4,109.1,54.6,109.4,54.9z"/>
	<path class="st0" d="M98,50.6c0.7,0,1.5,0,2.2,0c0.3,0,0.5,0.1,0.4,0.5c0,0.1,0,0.3,0,0.4c0,0.3-0.1,0.4-0.4,0.4c-0.3,0-0.7,0-1,0
		c-0.4,0-0.5,0.1-0.5,0.5c0,1.3,0,2.6,0,3.9c0,0.2,0.1,0.6-0.2,0.7c-0.4,0.1-0.8,0.1-1.2,0c-0.2-0.1-0.1-0.4-0.1-0.5
		c0-1.3,0-2.6,0-3.8c0-0.7,0-0.7-0.7-0.7c-0.2,0-0.3,0-0.5,0c-0.7,0-1-0.5-0.7-1.2c0.1-0.2,0.3-0.2,0.5-0.2
		C96.5,50.6,97.2,50.6,98,50.6z"/>
	<path class="st0" d="M67.5,53.2c0,0.7,0,1.4,0,2.1c0,0.4,0.1,0.5,0.5,0.5c0.8,0,1.5,0,2.3,0c0.3,0,0.5,0.1,0.4,0.4
		c0,0.1,0,0.3,0,0.4c0,0.3-0.1,0.5-0.4,0.5c-1.3,0-2.6,0-3.8,0c-0.3,0-0.5-0.1-0.5-0.5c0-1.9,0-3.7,0-5.6c0-0.4,0.2-0.5,0.5-0.5
		c1.2,0,1-0.1,1,1C67.5,52.1,67.5,52.7,67.5,53.2z"/>
	<path class="st0" d="M133.7,65.1c0-0.9,0-1.8,0-2.7c0-0.4,0.1-0.5,0.5-0.5c1.2,0,1-0.1,1,0.9c0,1.2,0,2.4,0,3.6
		c0,0.4,0.2,0.6,0.6,0.6c0.7,0,1.4,0,2.1,0c0.4,0,0.6,0.1,0.6,0.5c0,0.2,0,0.3,0,0.5c0,0.3-0.1,0.4-0.4,0.4c-1.3,0-2.6,0-3.8,0
		c-0.3,0-0.4-0.2-0.4-0.5C133.7,67,133.7,66,133.7,65.1z"/>
	<path class="st0" d="M177.3,53.9c0,0.9,0,1.8,0,2.7c0,0.4-0.1,0.6-0.5,0.6c-1,0-1,0-1-0.9c0-1.6,0-3.3,0-4.9c0-0.7,0-0.7,0.7-0.7
		c0.9,0,0.9,0,0.9,0.8C177.3,52.3,177.3,53.1,177.3,53.9z"/>
	<path class="st0" d="M104.3,53.9c0,0.9,0,1.9,0,2.8c0,0.4-0.1,0.5-0.5,0.5c0,0,0,0,0,0c-1,0-1,0-1-0.9c0-1.7,0-3.3,0-5
		c0-0.5,0.2-0.7,0.6-0.6c0.1,0,0.1,0,0.2,0c0.7,0,0.7,0,0.7,0.7C104.3,52.2,104.3,53,104.3,53.9z"/>
</g>
</svg>
