<?xml version="1.0" encoding="utf-8"?>
<!-- Generator: $$$/GeneralStr/196=Adobe Illustrator 27.6.0, SVG Export Plug-In . SVG Version: 6.00 Build 0)  -->
<svg version="1.1" id="Capa_1" xmlns="http://www.w3.org/2000/svg" xmlns:xlink="http://www.w3.org/1999/xlink" x="0px" y="0px"
	 viewBox="0 0 250 100" style="enable-background:new 0 0 250 100;" xml:space="preserve">
<style type="text/css">
	.st0{fill:#777777;}
</style>
<g id="Layer_2">
</g>
<g>
	<path class="st0" d="M46.9,59.1h-0.4v0h-6.7v-7.5h5.6v0h0.8c1,0,1.6,0.2,2.3,0.5l0.3,0.2v-0.1l0,0v-4.8l0,0v-0.1l-0.3,0.2
		c-0.7,0.3-1.2,0.5-2.3,0.5h-0.8v0h-5.6v-7.1h5.8v0h0.7c1.4,0,2.1,0.3,2.9,0.7l0.3,0.2l-0.1-3.6h0l0-0.9H35.4l0.2,0.3
		c0.3,0.6,0.4,1.1,0.4,2v20.2h0v0.3c0,1-0.2,1.6-0.5,2.3l-0.2,0.3h0.1l0,0h14.2l1-4.6l-0.4,0.2C49.4,58.8,48.3,59.1,46.9,59.1z"/>
	<path class="st0" d="M145.7,50.5h-2.2l0.2,0.3c0.3,0.6,0.5,1.2,0.5,2.2v5.7c-1.1,0.5-2.5,0.7-3.1,0.7c-6.3,0-10.3-3.8-10.3-9.4
		c0-5.5,3.6-9.4,9.5-9.4c5.2,0,7.2,2.6,7.5,2.9l-0.1-5.1c-2.2-1-4-1.5-7.4-1.5c-8,0-13.5,5.6-13.5,13c0,7.7,5.5,13,14.2,13
		c2.3,0,4.7-0.6,7.1-1.8l0.2-0.1c-0.3-0.5-0.3-1.5-0.3-2.7V53c0-1,0.2-1.5,0.5-2.2l0.2-0.3h-2.3H145.7z"/>
	<path class="st0" d="M204,60.4l-0.5-20.8c0-0.9,0.1-1.3,0.7-1.9l0.4-0.4H200l-7.6,15.4l-8-15.3l-0.1-0.1H183h-3.3h0l0.4,0.4
		c0.6,0.6,0.8,1.1,0.9,2.4c0,0.1,0,0.1,0,0.2l-0.5,19.1h0l0,0.9c0,0.9-0.1,1.4-0.5,2.1l-0.2,0.3h0h2.7h0.1h2.1h0l-0.2-0.3
		c-0.3-0.7-0.5-1.2-0.5-2.1l0-1h0l0.3-13.4l6.6,12.7h2.7l6.3-12.7l0.3,13.2l0,0l0,1.2c0,0.9-0.1,1.4-0.5,2.1l-0.2,0.3h0h2.7h0.1h2.2
		h0l-0.2-0.3C204.2,61.8,204.1,61.3,204,60.4z"/>
	<path class="st0" d="M231,50c0,5.2-3.9,9.3-8.9,9.3c-5,0-8.9-4.1-8.9-9.3c0-5.2,3.9-9.4,8.9-9.4C227,40.6,231,44.8,231,50z
		 M231.3,40.7c-2.4-2.4-5.7-3.7-9.2-3.7c-3.5,0-6.8,1.3-9.2,3.7c-2.4,2.4-3.8,5.7-3.8,9.3c0,3.6,1.3,6.8,3.8,9.3
		c2.4,2.4,5.7,3.7,9.2,3.7c3.5,0,6.8-1.3,9.2-3.7c2.4-2.4,3.8-5.7,3.8-9.3C235.1,46.4,233.7,43.2,231.3,40.7z"/>
	<path class="st0" d="M28.9,38.2l0-0.9H15l0.2,0.3c0.3,0.6,0.4,1.1,0.4,2v20.6c0,1-0.2,1.6-0.5,2.2l-0.2,0.3h2.4v0h0.2v0h2.5
		l-0.2-0.3c-0.3-0.7-0.5-1.2-0.5-2.3v-8.3h5.5v0h0.8c1,0,1.6,0.2,2.3,0.5l0.3,0.2v-2.4v-0.3v-2.3l-0.3,0.2c-0.7,0.3-1.2,0.5-2.3,0.5
		h-0.8v0h-5.5v-7.3H26c1.3,0,2,0.3,2.7,0.7l0.3,0.2L28.9,38.2L28.9,38.2z"/>
	<path class="st0" d="M68.7,44.5c0,2.4-1.9,4-5.1,4c-0.7,0-1.6,0-2.2-0.2v-7.5h2.7C66.9,40.9,68.7,42.1,68.7,44.5z M73.9,59.7
		c-0.1-0.2-0.5-0.7-0.6-0.8c-1.3-1.9-2.7-4.1-4.2-6.1c-0.1-0.1-0.1-0.2-0.2-0.3c-0.2-0.3-0.5-0.6-0.8-0.9c2.9-1.2,4.6-3.9,4.6-7.1
		c0-4.4-3.3-7.2-7.9-7.2H57l0.2,0.3c0.3,0.6,0.4,1.1,0.4,2v20.2h0v0.3c0,1-0.2,1.6-0.5,2.3l-0.2,0.3h5.2l-0.2-0.3
		c-0.3-0.7-0.5-1.2-0.5-2.3v-0.2h0v-7.9c0.4,0,1.2,0,1.7,0.2c1.1,0.3,1.9,1.6,2.3,2.1c1.4,2.1,2.7,4,4.4,6.4c0,0.1,0.1,0.1,0.1,0.2
		c0.3,0.5,0.5,1.1,0.7,1.7l0,0.2H72h0.2h4.3l-0.4-0.4C75.2,61.6,74.7,60.9,73.9,59.7z"/>
	<path class="st0" d="M119.3,59.2L119.3,59.2l0.4,1c0.3,0.7,0.4,1.4,0.4,2.3v0.2h1.4v0h0.8h2.9h0l-0.2-0.3c-0.4-0.6-0.8-1.2-1.2-2.1
		l-9.7-22.9h-3.4l-9.1,22.8c-0.3,0.8-0.7,1.5-1.2,2.2l-0.2,0.3h0h3.4h0h1.5h0.1v-0.2c0-0.8,0.1-1.7,0.4-2.3l6.9-17.5l3.2,7.4
		L119.3,59.2z"/>
	<path class="st0" d="M105.7,53.8h14.8l-2.5-3.2h-9.9L105.7,53.8z"/>
	<path class="st0" d="M170.8,59.2L170.8,59.2l0.4,1c0.3,0.7,0.4,1.4,0.4,2.3v0.2h1.4v0h0.8h2.9h0l-0.2-0.3c-0.4-0.6-0.8-1.2-1.2-2.1
		l-9.7-22.9h-3.4l-9.1,22.8c-0.3,0.8-0.7,1.5-1.2,2.2l-0.2,0.3h0h3.4h0h1.5h0.1v-0.2c0-0.8,0.1-1.7,0.4-2.3l6.9-17.5l3.2,7.4
		L170.8,59.2z"/>
	<path class="st0" d="M157.3,53.8h14.8l-2.5-3.2h-9.9L157.3,53.8z"/>
	<path class="st0" d="M92.1,44.5c0,2.4-1.9,4-5.1,4c-0.7,0-1.6,0-2.2-0.2v-7.5h2.7C90.4,40.9,92.1,42.1,92.1,44.5z M97.3,59.7
		c-0.1-0.2-0.5-0.7-0.6-0.8c-1.3-1.9-2.7-4.1-4.2-6.1c-0.1-0.1-0.1-0.2-0.2-0.3c-0.2-0.3-0.5-0.6-0.8-0.9c2.9-1.2,4.6-3.9,4.6-7.1
		c0-4.4-3.3-7.2-7.9-7.2h-7.8l0.2,0.3c0.3,0.6,0.4,1.1,0.4,2v20.2h0v0.3c0,1-0.2,1.6-0.5,2.3l-0.2,0.3h5.2l-0.2-0.3
		c-0.3-0.7-0.5-1.2-0.5-2.3v-0.2h0v-7.9c0.4,0,1.2,0,1.7,0.2c1.1,0.3,1.9,1.6,2.3,2.1c1.4,2.1,2.7,4,4.4,6.4c0,0.1,0.1,0.1,0.1,0.2
		c0.3,0.5,0.5,1.1,0.7,1.7l0,0.2h1.3h0.2h4.3l-0.4-0.4C98.7,61.6,98.1,60.9,97.3,59.7z"/>
</g>
</svg>
