<?xml version="1.0" encoding="UTF-8"?>
<svg id="Capa_1" xmlns="http://www.w3.org/2000/svg" version="1.1" viewBox="0 0 250 100">
  <!-- Generator: Adobe Illustrator 29.4.0, SVG Export Plug-In . SVG Version: 2.1.0 Build 152)  -->
  <defs>
    <style>
      .st0 {
        fill: #777;
      }
    </style>
  </defs>
  <g>
    <path class="st0" d="M164.3,62.4c2.5.2,4.8,1.2,5.9,3.6,1.9,4-.2,8.2-4.3,9.4v.4s.2,0,.3.2c3.7,3.5,4,9.1,9.4,11.2s.5-.1.4.4h-6.2c-2.5-3-3.9-6.8-6.4-9.7s-2.2-2.3-4.2-2c.1,2.4-.1,4.9,0,7.3s.3,3.3,2.9,4.1.5-.1.4.4h-9.6s-.3-.3-.3-.3c2.4-.3,2.9-1.1,3.1-3.5.4-4.8.4-13,0-17.9s-.5-2.4-2.6-3-.5.1-.4-.4c3.7.2,7.8-.3,11.5,0ZM159.1,75.3c1.2,0,2.4,0,3.5-.3,6.8-1.5,6.2-11.4-.6-12s-2.6-.1-2.7.3l-.2,12Z"/>
    <path class="st0" d="M186.8,62.1c14.6-1,16.3,22.6,2.7,25.3s-19.2-24.2-2.7-25.3ZM186.6,62.7c-9.8,1-9.5,25.6,1.4,24.5,5.7-.5,7.4-9.2,7.1-13.8s-2.8-11.4-8.5-10.8Z"/>
    <path class="st0" d="M74.1,84.3c-6.6-6.9-3.9-20.2,6.2-22s16.8,12,10.8,20.6-12.1,6.4-17,1.4ZM81.4,62.7c-9.3,1-9.4,23.5,0,24.5,11.3,1.3,11.3-25.7,0-24.5Z"/>
    <path class="st0" d="M129.5,62.4c4.8.4,8.2,4.4,6.8,9.3s-7.3,5.5-11.7,5.3c0,1.5,0,3.1,0,4.7s0,2.7.2,3.5c.3,1.4,1.6,1.7,2.7,2s.5-.1.4.4h-9.7c-.1-.6.8-.5,1.2-.7s.8-.4,1.1-.6c1.1-1.2.6-5.8.7-7.6.1-4.4.6-9.3,0-13.7-.3-1.8-1.3-1.8-2.7-2.2s-.5.1-.4-.4h11.3ZM125,63l-.3,13.4v.2c3.6.1,6.7-.7,8.1-4.2,2.1-5.5-1.9-10.7-7.8-9.4Z"/>
    <path class="st0" d="M65.3,62.4v6.5c-.4,0-.3,0-.4-.2-.7-1.2-.9-2.5-1.9-3.7-3.6-4.5-9.8-2.3-8.9,3.5.9,5.8,11.6,3.5,12.3,11.3.6,6.9-6,9.2-11.7,7.5s-2-.9-2.1-.9c-.6,0-.7,1.1-1.3,1.1v-6.9l1.2,2.6c2.2,5.5,10.9,5.9,11.1-.9s-9.9-4.2-11.9-10.9,4.9-11,10.9-8.5,1.2.8,1.4.8c.7,0,.6-1.3,1.3-1.2Z"/>
    <path class="st0" d="M98.5,80.5l2,3.7c2.6,4.4,9.8,4.1,10.3-1.6s-10.9-4.6-12-12,5.5-10.5,11.5-7.7.7.9,1.3.5.4-1.1,1-1.1v6.5c-.5,0-.3-.1-.4-.4-1.4-3.1-3.1-6.5-7.2-5.9s-4,3.3-3.6,5.8c.8,5.8,11.5,3.5,12.2,11.1s-7.9,9.9-13.8,6.8l-1.3,1.1v-6.9Z"/>
    <path class="st0" d="M140.1,87.7c0-.4,0-.3.2-.4,1.1-.6,2.3-.6,2.6-2.2.2-6.9.3-13.7.7-20.5s0-1.5,0-2.1-.1-.3.3-.3c.6,0,1.2.3,1.8.2l.9,23.4c.2,1,1.6,1.1,2.4,1.5s.3,0,.2.4h-9.1Z"/>
  </g>
  <path class="st0" d="M143.5,58.3s-.4-5.3,3-7.3,8.2-3.6,8.4-4.7c0,0,1,3.5-4.7,6.4-5.6,2.8-6.7,5.7-6.7,5.7Z"/>
  <path class="st0" d="M139.1,39.9s-3-3.4-1.1-7.1,6.3-1,7.9.6,3.2,4.2,2.7,5.7c0,0,1.2-2.9-.8-4.7s-5.2-6.3-4.5-8.6c0,0-4.5,1.4-5.7,5.1s-.9,6.1,1.5,9Z"/>
  <path class="st0" d="M144.3,25.5l2.6-.5s.1,1.4,1.4,2.3,3.4,3.2,2.9,6.8-1.9,4.9-1.9,4.9c0,0,1.6-4.7-1.3-7s-4-3.3-3.7-6.5Z"/>
  <path class="st0" d="M165.6,14.9c-.5.4-.3,2.1.3,2.1s2.1-1.2,1-3.5-4-1-4-1c-4.8,2.4-8,8.9-9,13.2-1,4.3.2,10.5.2,10.5l-1.3.9c.8-4.2.4-6.7-2.6-10.3-3-3.5-3.3-4.4-3.3-4.4-1.5-7.6,4.6-8.8,4.6-8.8-7.8.8-13.3,4.9-15.8,12.4-2.5,7.5,1.1,11.2,1.1,11.2,0,0-3-3.1.7-8.9,3.7-5.8,8.9-4.7,8.9-4.7,0,0,4.8,3.5,5.4,8.2s-2.3,8.2-2.3,8.2c-1.8-2.4-6.1,1-6.1,1-5.1,3.1-8.8-1.9-8.8-1.9-4.5-6.2,0-10.3,0-10.3,0-3.4,1.7-6.3,1.7-6.3-4.5,1.9-6.5,7-6,12,.5,5,4.1,7.4,7.7,8.2,3.6.8,7.5-1.7,8.6-2.5,1.1-.8,3.5-.1,2.8,3-.7,3.1-3.7,5.9-10.2,5.5-6.5-.4-4-6-4-6-4.5-2.1-5.1-5.7-5.1-5.7,0,0-2.1.5-1.9,4.9.2,4.4,3.1,7.1,9,8,5.9.9,11.9-3.1,14.2-5.6,2.3-2.5,1.4-5.1,1.4-5.1,0,0,1.6-1.3,1.9-1.9.2-.6,1.4-8.5,1.4-8.5,3.9-9.3,8.1-7.8,9.4-6.7,1.3,1.1,0,4.2,0,4.2,0,0,0-.7-.8-.7-.8,0-1.3,2.6,0,2.4,1.2-.3,2.9-4.3,1-6.4-1.9-2.1-5.9,0-8.3,3.5-2.4,3.4-2.5,10.7-2.5,10.7,0,0-.4,1.1-.8-6.2-.4-7.3,4.7-14.5,8.4-16.4,3.7-1.9,4.2.4,4.4,1.4.1,1-.6-.3-1.1.1ZM146.1,22.6c-7.2-.4-10.1,7-10.1,7,.4-3.7,1.4-5.4,3.6-8.8,2.2-3.4,7.4-4.8,7.4-4.8-2,1.9-.8,6.7-.8,6.7Z"/>
  <path class="st0" d="M145,21.8s-.7-3.3.4-4.6c0,0-6.4,2.2-8.3,9.4,0,0,3.1-4.3,7.9-4.8Z"/>
</svg>