<?xml version="1.0" encoding="utf-8"?>
<!-- Generator: $$$/GeneralStr/196=Adobe Illustrator 27.6.0, SVG Export Plug-In . SVG Version: 6.00 Build 0)  -->
<svg version="1.1" id="Capa_1" xmlns="http://www.w3.org/2000/svg" xmlns:xlink="http://www.w3.org/1999/xlink" x="0px" y="0px"
	 viewBox="0 0 250 100" style="enable-background:new 0 0 250 100;" xml:space="preserve">
<style type="text/css">
	.st0{fill:#777777;}
</style>
<g id="Layer_2">
</g>
<g>
	<path class="st0" d="M137.3,38.1c0.1,2.6,0.2,5.5,0.2,8.4c0,0.6-0.1,1-0.7,1.3c-0.7,0.4-1.3,1-1.7,1.7c-0.4,0.7-0.7,1.4-0.6,2.3
		c0,0.1,0,0.3,0,0.4c-0.1,0.4-0.1,0.8,0,1.2c0.1,1.1,0.6,1.7,1.7,1.9c0.5,0.1,0.5,0.2,0.3,0.6c-0.1,0.2-0.2,0.3-0.3,0.4
		c-0.3,0.2-0.4,0.5-0.4,0.8c0,0.4-0.2,0.7-0.4,1c-1.6,2.7-3.7,5.1-5.9,7.3c-1.5,1.4-3,2.8-4.7,3.9c-1.3,0.8-1.3,0.8-2.6,0.1
		c-1.3-0.8-2.5-1.7-3.6-2.8c-2.3-2.2-4.5-4.5-6.4-7.1c-0.1-0.2-0.3-0.4-0.4-0.6c-0.5-0.7-0.8-1.4-0.9-2.2c0-0.4-0.2-0.7-0.5-0.9
		c-0.3-0.1-0.3-0.5-0.4-0.7c-0.1-0.2,0-0.3,0.2-0.3c0.1,0,0.2,0,0.4-0.1c0.9,0,1.5-0.9,1.5-1.6c0.1-0.9,0.1-1.9-0.1-2.8
		c-0.2-1.4-1.1-2.3-2.2-3.1c-0.9-0.5-0.9-0.4-0.8-1.5c0.1-2.8,0.2-5.6,0.3-8.4c0-0.8,0.1-1.5,0.1-2.3c0-0.5,0.1-0.6,0.6-0.6
		c0.1,0,0.3,0,0.4,0c8.7,0,17.3,0,26,0c0.2,0,0.4,0,0.5,0c0.5,0,0.6,0.1,0.6,0.6C137.3,36.1,137.3,37,137.3,38.1z M122.4,41.9
		c-0.2,0-0.2,0.2-0.3,0.3c-0.3,0.7-0.5,0.8-1.2,0.5c-0.4-0.2-0.7-0.4-1.1-0.5c-1.7-0.8-3.9-0.4-5,1.1c-1.6,2.2-1.3,5,0.8,6.7
		c0.6,0.5,1.2,0.9,1.8,1.2c0.7,0.4,1.5,0.8,2.2,1.3c0.5,0.4,1,0.8,1.3,1.4c0.6,1.3-0.2,3-1.6,3.2c-1.2,0.2-2.2-0.1-3.2-0.9
		c-1-0.9-1.6-2-1.9-3.3c0-0.2-0.1-0.4-0.1-0.5c0-0.1-0.1-0.1-0.2-0.1c0,0-0.1,0.1-0.1,0.1c0,0.2,0,0.3,0,0.5c0,1.2,0,2.5,0,3.7
		c0,0.3,0,0.7,0,1c0,0.1,0,0.3,0.2,0.3c0.1,0,0.2-0.1,0.2-0.2c0-0.1,0.1-0.1,0.1-0.2c0.4-0.5,0.8-0.6,1.3-0.4
		c0.4,0.1,0.7,0.3,1.1,0.4c0.9,0.4,1.8,0.5,2.8,0.3c1.8-0.3,3-1.4,3.6-3.1c0.6-1.8,0.3-3.4-1-4.8c-0.7-0.7-1.5-1.3-2.3-1.8
		c-0.8-0.4-1.5-0.9-2.3-1.3c-0.5-0.3-1-0.7-1.3-1.2c-0.9-1.3,0-3.1,1.6-3.2c1-0.1,1.8,0.2,2.5,0.9c0.8,0.7,1.3,1.6,1.6,2.6
		c0,0.2,0.1,0.3,0.1,0.5c0,0.1,0.1,0.3,0.2,0.3c0.2,0,0.2-0.2,0.2-0.3c0-0.1,0-0.2,0-0.2c0-0.9,0-1.7,0-2.6
		C122.5,43.1,122.4,42.5,122.4,41.9z M130.2,57.7C130.2,57.7,130.2,57.7,130.2,57.7c0.9,0,1.9,0,2.8,0c0.1,0,0.3,0,0.4,0
		c0.1,0,0.3,0,0.3-0.2c0-0.2-0.1-0.2-0.2-0.2c0,0,0,0-0.1,0c-0.6-0.1-0.9-0.4-1.3-0.8c-0.7-0.7-1.3-1.5-1.8-2.3
		c-1.3-1.9-2.6-3.7-3.9-5.6c-0.3-0.5-0.3-0.5,0.1-0.9c1.2-1.1,2.4-2.2,3.7-3.3c0.8-0.7,1.6-1.7,2.8-1.9c0.1,0,0.2-0.1,0.2-0.2
		c0-0.1-0.1-0.2-0.2-0.2c-0.1,0-0.2,0-0.3,0c-1.4,0-2.8,0-4.1,0c-0.2,0-0.5-0.1-0.5,0.1c0,0.3,0.3,0.2,0.5,0.2c0.1,0,0.1,0,0.2,0
		c0.8,0.2,1,0.7,0.6,1.4c-0.3,0.5-0.8,0.9-1.2,1.3c-1.3,1.2-2.5,2.3-3.8,3.5c-0.3,0.3-0.4,0.6-0.4,1c0,0.3,0.1,0.6,0.3,0.9
		c0.9,1.3,1.9,2.7,2.8,4c0.3,0.4,0.6,0.9,0.9,1.4c0.3,0.6,0.2,0.9-0.5,1.1c-0.1,0-0.1,0-0.2,0.1c-0.1,0-0.2,0.1-0.2,0.2
		c0,0.1,0.1,0.2,0.2,0.2c0.1,0,0.3,0,0.4,0C128.3,57.7,129.2,57.7,130.2,57.7z"/>
	<path class="st0" d="M96,70.2c-1.1,0.4-1.5,0.2-2.4-1.1c0,0-0.1,0.1-0.1,0.1c-0.5,0.9-1.2,1.2-2.2,1.2c-0.5,0-1,0-1.5-0.1
		c-0.4-0.1-0.5,0-0.5,0.4c-0.2,1.1-0.2,2.3,0.2,3.4c0.2,0.5,0.5,0.9,0.9,1.3c0.4,0.4,0.9,0.6,1.5,0.6c0.9,0,1.9-0.1,2.8-0.3
		c0.6-0.2,1.2-0.2,1.7,0.4c0.5,0.6,0.6,1.3,0.3,2.1c-0.1,0.3-0.4,0.5-0.6,0.5c-0.2,0-0.5-0.3-0.6-0.6c0-0.1,0-0.1,0-0.2
		c-0.1-0.9-0.3-1.2-1.4-1.4c0.3,0.2,0.5,0.4,0.6,0.6c0.3,0.3,0.3,0.5-0.1,0.7c-0.4,0.2-0.6,0.5-0.6,1c0,0.2,0.1,0.3-0.1,0.4
		c-0.2,0.1-0.4-0.1-0.5-0.2c-0.1-0.1-0.1-0.2-0.1-0.4c-0.1-0.9-0.3-1-1.3-1.2c0.2,0.2,0.4,0.3,0.6,0.5c0.1,0.1,0.3,0.2,0.2,0.4
		c-0.1,0.2-0.2,0.1-0.4,0.2c-0.8,0.1-1,0.6-0.7,1.4c0.2-0.1,0.1-0.3,0.2-0.4c0.2-0.5,0.6-0.7,1-0.5c0.4,0.1,0.6,0.4,0.5,1
		c-0.1,0.4,0,0.5,0.4,0.4c0.7,0,1.5-0.1,2.2-0.3c1.4-0.3,2.7-0.8,4-1.5c0.2-0.1,0.4-0.3,0.7-0.1c0.6,0.4,0.6,0.6,0,1
		c-1.4,0.9-2.8,1.7-4.5,2c-1.6,0.4-3.2,0.2-4.8-0.3c-0.2-0.1-0.3-0.1-0.5-0.2c-0.4-0.2-0.5-0.2-0.3-0.7c0.1-0.3,0.1-0.4-0.2-0.5
		c-0.4-0.1-0.8-0.3-1.1-0.7c-0.1-0.2-0.3-0.2-0.4-0.2c-0.6,0-1-0.3-1.4-0.8c-0.2-0.3-0.3-0.6-0.5-1c-0.1-0.2-0.1-0.5-0.3-0.8
		c-0.6,0.6-0.9,1.4-0.9,2.3c-0.7-0.6-0.8-1.4-0.9-2.2c0-0.8,0.3-1.5,0.8-2.3c-0.9,0.4-1,0.6-1.3,2.6c-0.6-0.6-0.9-1.4-0.9-2.2
		c0-0.8,0.3-1.5,0.8-2.2c-0.7,0.3-1,1-1.2,1.7c-0.3-0.3-0.4-0.7-0.4-1c-0.1-0.8,0.1-1.4,0.5-2.1c0.2-0.3,0.4-0.6,0.6-0.9
		c0.3-0.4,0.3-0.5-0.1-0.8c-0.8-0.7-1.6-0.7-2.6-0.4c-0.4,0.1-0.8,0.4-1.1,0.6c-0.3,0.2-0.4,0.1-0.4-0.2c-0.1-0.9,0.5-1.7,1.3-1.9
		c0.4-0.1,0.7-0.2,1.1-0.1c0.5,0,0.5,0,0.4-0.5c-0.1-0.4-0.1-0.7-0.2-1.1c-0.1-1,0.5-1.7,1.3-1.9c0.1,0,0.1,0,0.2,0
		c0.1,0.2-0.1,0.4-0.1,0.6C83,65.2,83.6,66,84.7,66c0.6,0,1.2-0.1,1.7-0.5c1.5-0.9,2.1-2.3,2-4c-0.1-0.9-0.3-1.8-0.7-2.7
		c-0.3-0.5-0.3-0.5-0.8-0.2c-1,0.7-2.1,1.1-3.3,1c-1.2-0.1-2.2-0.6-3.1-1.4c-1.8-1.6-2.3-3.8-1.4-6.1c0.4-1.1,1-2.1,1.6-3.1
		c0.8-1.2,1.6-2.3,2.3-3.6c0.6-1,0.9-2.1,0.8-3.3c-0.1-1.7-1.9-3.4-3.5-3.3c-0.7,0-1.3,0.3-1.8,0.9c-0.4,0.5-0.7,1.1-0.7,1.9
		c0,0.4,0.2,0.8,0.5,1c0.5,0.4,1.1,0.3,1.4-0.3c0.1-0.2,0.1-0.5,0.4-0.5c0.3,0,0.4,0.3,0.6,0.5c0.4,0.8,0.2,1.7-0.6,2.1
		c-0.5,0.3-1,0.4-1.5,0.3c-0.1,0-0.2,0-0.2,0c-0.5,0-0.5,0-0.4,0.5c0.2,0.5,0.3,1,0.4,1.5c0.2,1.9-0.8,3.4-2.2,4.3c0,0-0.1,0-0.1,0
		c-0.1-0.2,0-0.4,0.1-0.5c0.3-1.2,0.2-2.3-0.5-3.3c-0.2-0.2-0.3-0.5-0.4-0.7C75,46,74.9,45.6,75,45c0.1-0.5,0.1-0.6-0.4-0.6
		c-0.3,0-0.7-0.1-1-0.2C73,44,72.8,43.6,72.7,43c0-0.5,0.1-0.9,0.3-1.3c0.1-0.3,0.2-0.3,0.4-0.1c0.1,0.1,0.2,0.2,0.3,0.3
		c0.6,0.5,1.1,0.4,1.5-0.3c0.2-0.3,0.2-0.6,0.3-0.9c0.2-0.7,0.5-1.3,0.9-1.8c1-1.1,2.3-1.5,3.7-1.4c0.6,0,1.3,0.1,1.9,0.4
		c1.3,0.6,2.2,1.6,2.6,3c0.3,1,0.4,2.1,0.3,3.2c-0.1,0.7-0.4,1.3-0.7,1.9c-0.5,1-1.2,2-1.8,2.9c-0.4,0.6-0.8,1.1-1.1,1.7
		c-0.8,1.4-1.2,2.8-0.7,4.4c0.3,1.3,1.1,2.3,2.5,2.5c1.1,0.2,2.2-0.2,2.9-1.1c1.1-1.5,2.1-3,3.4-4.2c0.2-0.2,0.3-0.4,0.4-0.6
		c0.7-1.3,1.2-2.7,1.4-4.2c0-0.1,0-0.1,0.1-0.2c0.4,0.3,0.4,0.3,0.8,2.2c0.5-0.5,0.8-1.1,1.2-1.7c0.3,0.2,0.2,0.6,0.5,0.8
		c0.3-0.4,0.4-1,0.8-1.5c0.3,1.1,0.3,2.1,0.4,3.2c0.6-0.4,1-1,1.7-1.4c0,0.5-0.2,0.9-0.4,1.3c-0.3,0.6-0.3,0.6,0.4,0.6
		c0.2,0,0.4,0,0.6,0c0,0,0.1,0,0.1,0.1c-0.1,0.4-0.4,0.5-0.7,0.7c-0.7,0.5-1.2,1.2-1.7,1.9c-1.1,1.3-1.3,2.8-0.9,4.5
		c0.1,0.6,0.4,1.2,0.6,1.8c0.4,1,0.7,2.1,0.7,3.1c0,0.8-0.1,1.5-0.3,2.3c-0.1,0.4-0.2,0.8-0.2,1.2C94.7,67.9,94.7,69.2,96,70.2z"/>
	<path class="st0" d="M144.8,42.7c-1.4,0.9-2.9,0.8-4.4,0.4c0-0.3,0.2-0.3,0.4-0.4c0.7-0.4,1.3-0.8,1.9-1.4c1-0.8,2-1.4,3.3-1.6
		c0.1,0,0.2,0,0.2-0.1c-0.4-0.8-1-1-3.5-1c0.8-0.7,1.7-1.1,2.7-1.1c0.7,0,1.3,0.1,1.9,0.2c0.6,0.1,1.1,0.1,1.7,0
		c0.1,0,0.2,0,0.3-0.2c-1-0.1-1.7-0.7-2.4-1.4c-0.3-0.3-0.8-0.4-1.2-0.5c-0.1,0-0.2,0-0.4-0.1c-0.2-0.1-0.2-0.2,0-0.3
		c0.6-0.4,1.4-0.7,2.1-0.1c0.4,0.3,0.7,0.6,1.1,0.9c0.3,0.2,0.6,0.4,0.9,0.4c0.5,0,0.8-0.2,0.9-0.6c0.2-0.4,0-0.9-0.4-1.2
		c-0.2-0.1-0.5-0.2-0.7-0.3c-0.1,0-0.3,0-0.4,0c-0.9-0.1-1.3-0.5-1.1-1.4c0-0.3,0-0.6,0.2-0.9c0.4,0.5,0.8,0.5,1.4,0.4
		c0.9,0,1.6,0.3,2.2,0.9c0.1,0.2,0.3,0.4,0.5,0.3c0.2-0.1,0.2-0.4,0.2-0.6c0-0.3,0-0.6,0-0.9c0-0.6,0-0.6,0.6-0.6
		c0.3,0,0.6,0,0.8-0.1c0.6-0.2,1.1-0.6,1.5-1.1c0.2-0.3,0.3-0.5,0.7-0.5c0.2,0,0.3-0.1,0.3-0.3c-0.1-0.2-0.2-0.2-0.4-0.1
		c-0.4,0.1-0.7,0.4-0.8,0.8c-0.3,0.7-0.8,0.9-1.4,1c-0.3,0-0.6,0-0.9,0c-0.5,0-0.8-0.1-1-0.6c-0.1-0.1-0.2-0.2-0.3-0.3
		c-0.2-0.2-0.3-0.2-0.5,0c-0.5,0.7-1.2,0.9-2,0.7c-0.5-0.1-0.7,0.2-1,0.5c-0.2-0.2-0.2-0.4-0.2-0.6c0-0.5-0.1-0.9-0.2-1.4
		c-0.1-0.5,0-0.6,0.6-0.6c0.1,0,0.2,0,0.2-0.1c0-0.2-0.2-0.3-0.3-0.5c-0.1-0.1-0.3-0.2-0.3-0.4c-0.1-0.3,0-0.5,0.3-0.5
		c0.4,0,0.7-0.1,1-0.3c0.3-0.2,0.6-0.2,0.9-0.2c0.3,0,0.7,0.1,0.8,0.4c0.1,0.3,0.3,0.3,0.6,0.2c0.3-0.1,0.7-0.1,1,0.1
		c0.3,0.2,0.5,0.2,0.8-0.1c0.2-0.2,0.4-0.4,0.7-0.4c-0.1-0.3-0.3-0.4-0.6-0.5c-0.2-0.1-0.4-0.1-0.6,0c-0.3,0.2-0.6,0.4-0.9,0.5
		c-0.6,0.2-1.5-0.4-1.4-1c0-0.3,0.3-0.5,0.5-0.6c0.4-0.2,0.8-0.2,1.2-0.2c1.3,0,2.6,0.1,3.9,0.3c0.6,0.1,1.2,0.1,1.8,0
		c0.5-0.1,0.8-0.4,1-0.9c0.1-0.4,0.2-0.4,0.5-0.3c0.2,0.1,0.3,0.1,0.5,0.2c0.8,0.4,1,1,0.5,1.7c-0.2,0.3-0.1,0.4,0.1,0.6
		c0.5,0.4,1,0.9,1.1,1.6c0,0.2,0.1,0.4,0.3,0.5c0.3,0.2,0.6,0.2,0.9,0.1c0.3-0.2,0.4-0.4,0.3-0.7c0-0.2-0.1-0.3-0.2-0.5
		c-0.3-0.5-0.2-0.6,0.3-0.6c0.9,0,1.4,0.5,1.5,1.3c0,1.1-0.7,1.8-2,1.9c-0.2,0-0.4,0-0.5,0c-0.2,0-0.3,0.1-0.2,0.3
		C162,32,162,33,161.9,34c0,0.8,0.1,1.5,0.4,2.2c0.2,0.4,0.1,0.5-0.4,0.5c-0.4,0-0.6-0.3-0.8-0.6c-0.1-0.4-0.2-0.8-0.3-1.2
		c-0.1-0.3-0.1-0.6-0.5-0.9c0.2,0.8,0.3,1.6,0.4,2.3c0.1,0.6,0.1,1.3,0.1,1.9c0,0.2,0,0.3-0.1,0.5c-0.6,1.3-1,2.7-1.2,4.1
		c0,0.1,0,0.2-0.2,0.4c-0.8-1.5-0.7-3-0.4-4.5c-0.2,0-0.2,0.2-0.3,0.3c-0.4,1-0.4,2-0.2,3.1c0.1,0.7,0.3,1.4,0.5,2.1
		c0.2,0.7,0.3,1.4,0.2,2.2c-0.2,0.9-0.7,1.4-1.5,1.8c-0.1,0-0.1,0.1-0.2,0c-0.1-0.1,0-0.2,0-0.3c0.5-1.2,0.5-2.4,0.1-3.6
		c-0.3-1-0.5-1.9-0.4-2.9c0-0.2,0-0.4,0-0.6c-0.3,0.2-0.3,0.4-0.3,0.6c-0.1,0.6-0.1,1.3,0.1,1.9c0,0.1,0.1,0.3,0.1,0.4
		c0.1,0.5,0,1-0.5,1.3c-0.6,0.4-1,0.9-1.5,1.4c-0.4,0.4-0.6,0.8-0.8,1.3c-0.1,0.1-0.1,0.3-0.2,0.4c-0.2-0.1-0.2-0.3-0.2-0.4
		c-0.1-1.3,0.1-2.5,1-3.6c0.7-0.8,0.7-1.8,0.6-2.9c-0.2,0.3-0.1,0.5-0.2,0.6c-0.1,0.2-0.1,0.4-0.1,0.6c-0.2,0.7-0.4,1.3-0.8,1.8
		c-0.6,0.8-0.9,1.7-1.3,2.6c-0.1,0.2-0.1,0.4-0.3,0.6c-0.2-0.8-0.2-1.4,0.2-2.1c0.1-0.3,0.3-0.5,0.4-0.8c0.1-0.3,0.1-0.5,0-0.8
		c-0.1,0-0.1,0-0.1,0c-0.3,0.8-0.7,1.4-1.2,2c-0.6,0.7-0.8,1.6-0.9,2.5c0,0.3-0.1,0.6-0.2,0.9c-0.4-0.2-0.6-0.5-0.8-0.8
		c-0.3-0.7-0.4-1.3-0.2-2c0-0.2,0.1-0.4,0-0.7c-0.5,0.6-0.8,1.2-0.8,1.9c-0.1,0.8,0,1.6,0.3,2.3c0,0.1,0.1,0.2,0.1,0.3
		c0,0.1,0.1,0.2,0,0.3c-0.1,0.1-0.2,0-0.3,0c-0.6-0.3-1.1-0.6-1.5-1.1c-0.5-0.8-0.8-1.6-0.6-2.6c0-0.1,0-0.1,0-0.2c0,0,0,0,0-0.1
		c-0.2,0.2-0.3,0.4-0.3,0.7c-0.3,1.1-0.2,2.2,0,3.3c0,0.1,0,0.1,0,0.2c0,0.2,0.2,0.4,0,0.6c-0.2,0.2-0.5,0-0.7-0.1
		c-0.7-0.3-1.1-0.9-1.3-1.7c-0.1-0.3-0.1-0.6-0.2-0.9c-1.2,0.8-2.4,1.6-2.7,3.2c-0.1,0.3-0.1,0.6,0,1c0.1,0.3,0.1,0.7,0,1
		c-0.1,0.5-0.4,0.7-1,0.7c-0.6,0-1-0.3-1-0.8c-0.1-0.9,0.2-1.7,0.7-2.4c0.1-0.2,0.2-0.4-0.1-0.6c-0.2-0.1-0.3-0.2-0.5-0.2
		c-0.2,0.1-0.1,0.3-0.1,0.5c0,0.2,0,0.4-0.2,0.6c-0.4,0.6-0.5,1.3-0.3,2c0.1,0.5,0.1,0.5-0.4,0.5c-1,0-1.3-0.3-1.2-1.3
		c0.1-0.7,0.2-1.3,0.8-1.8c0.3-0.2,0.4-0.5,0.4-0.9c0-0.2,0-0.2-0.4-0.5c0.1,0.5-0.2,0.8-0.4,1.1c-0.3,0.4-0.5,0.9-0.8,1.4
		c-0.2,0.4-0.4,0.4-0.7,0.1c-0.3-0.2-0.4-0.5-0.4-0.8c0-0.6,0.1-1.1,0.4-1.6c0.4-0.6,0.9-1,1.4-1.4c0.7-0.6,1.5-1.1,2.3-1.5
		c0.2-0.1,0.4-0.2,0.5-0.3c0.2-0.1,0.3-0.3,0.2-0.6c0-0.1-0.1-0.2-0.1-0.3c-0.1-0.7,0.2-1.1,0.9-1.3c0.7-0.1,1.3-0.3,1.9-0.5
		C144,43.5,144.5,43.2,144.8,42.7z M154.2,39.2c0.1-1.3,0.8-2.4,1.2-3.5c0.1,0.3,0.2,0.7,0.2,1c0,0.3-0.1,0.7,0.2,1
		c0.3-0.2,0.4-0.5,0.5-0.8c0.4-1,0.6-2.1,0.6-3.2c0-0.7,0-1.5,0.1-2.2c0-0.1,0.1-0.2-0.1-0.3c-0.2,0.1-0.2,0.4-0.3,0.6
		c-0.2,0.6-0.1,1.2-0.1,1.8c0.1,1-0.1,1.9-0.3,2.9c0,0.1,0,0.2-0.2,0.2c0,0-0.1-0.1-0.1-0.1c-0.3-1.4-0.6-2.7-0.4-4.1
		c0-0.3,0.2-0.7-0.2-0.7c-0.3,0-0.2,0.4-0.3,0.7c0,0.6,0,1.2,0,1.8c0,0.9-0.2,1.7-0.5,2.5c-0.1,0.2-0.2,0.4-0.4,0.6
		c-0.2-0.2-0.1-0.4-0.1-0.7c0.1-1.1,0-2.1-0.2-3.2c0-0.2,0-0.5-0.3-0.5c-0.3,0-0.1,0.3-0.1,0.5c0.2,1,0.1,1.9-0.2,2.9
		c-0.2,0.6-0.5,1-1.1,1.4c-0.1-0.3,0.1-0.5,0.1-0.6c0.2-0.6,0.4-1.2,0.5-1.8c0-0.2,0.1-0.5-0.1-0.7c-0.1-0.1-0.2-0.2-0.3-0.1
		c-0.1,0-0.1,0.1-0.1,0.2c0,0.3,0,0.5,0,0.8c0,0.8,0,1.5-0.4,2.2c-0.3,0.5-0.4,1.1-0.3,1.7c0,0.2,0,0.4,0.2,0.6
		c0.3-0.6,0.6-1.2,0.9-1.8c0.5-1,0.7-1.3,1.2-1.5C153.8,37.6,153.6,38.4,154.2,39.2z"/>
	<path class="st0" d="M93.2,43.8c-0.3,0.5,0,0.9,0.2,1.3c0.3,0.6,0.5,1.2,0.4,1.8c0,0.2,0,0.4-0.2,0.6c-0.2-0.1-0.2-0.3-0.3-0.4
		c-0.2-0.7-0.5-1.5-0.9-2.1c-0.1-0.2-0.2-0.4-0.3-0.6c-0.6-0.8-0.9-1.7-1-2.6c0-0.1,0-0.3-0.2-0.4c0,0.6-0.1,1.1,0,1.7
		c0.1,0.5,0.4,0.9,0.7,1.3c0.9,1.1,1.1,2.4,0.8,3.8c-0.2,0-0.2-0.2-0.3-0.3c-0.4-1.1-1.1-1.9-2-2.6c-0.9-0.7-1-1-0.7-2.1
		c0.2-0.8,0.2-1.6-0.2-2.5c-0.2,0.2-0.1,0.3-0.1,0.4c0.1,1,0,2-0.4,3c-0.5,1.2-0.5,2.4,0,3.6c0,0.1,0.1,0.2,0.1,0.4
		c-0.4-0.1-0.8-0.3-1.1-0.7c-0.7-0.8-0.7-1.7-0.6-2.6c0-0.3,0.1-0.6,0.2-0.8c0.3-0.9,0.5-1.8,0.6-2.7c0.1-0.8,0-1.7-0.3-2.4
		c0-0.1-0.1-0.3-0.3-0.3c0.5,1.6,0.6,3.1-0.3,4.6c-0.2-0.1-0.2-0.3-0.2-0.4c-0.2-1.4-0.5-2.7-1.2-3.9c-0.1-0.3-0.2-0.6-0.2-0.9
		c0.1-0.9,0.1-1.8,0.2-2.7c0.1-0.4,0.2-0.8,0.3-1.2c-0.4,0.1-0.4,0.4-0.5,0.6c-0.1,0.5-0.2,0.9-0.3,1.4c-0.2,0.5-0.5,0.8-1,0.7
		c-0.3,0-0.4-0.1-0.3-0.4c0.2-0.5,0.4-0.9,0.4-1.4c0.1-0.5,0.1-1,0-1.5c-0.1-0.7,0-1.5,0.3-2.2c0-0.1,0.1-0.2,0.1-0.4
		c-0.1-0.1-0.3,0-0.5,0c-0.4,0-0.8,0-1.3-0.2c-0.8-0.3-1.1-0.8-1.1-1.8c0.1-1,1.1-1.5,2-1.1c0,0.3-0.2,0.4-0.3,0.6
		c-0.2,0.4,0,0.8,0.4,1c0.4,0.2,0.8,0,1-0.4c0.1-0.2,0.2-0.5,0.3-0.7c0.2-0.5,0.5-0.9,1-1.2c0.2-0.2,0.2-0.3,0.1-0.5
		c-0.5-1-0.3-1.6,0.8-1.9c0.5-0.2,0.5-0.2,0.7,0.3c0.2,0.6,0.7,0.8,1.3,0.8c0.5,0,0.9,0,1.4,0c1.3-0.2,2.6-0.4,3.9-0.3
		c0.5,0,1,0.1,1.4,0.3c0.5,0.3,0.6,0.6,0.3,1c-0.5,0.7-0.8,0.8-1.5,0.4c-0.1-0.1-0.2-0.1-0.4-0.2c-0.6-0.4-0.8-0.4-1.3,0.3
		c0.2,0.1,0.5,0.2,0.7,0.5c0.2,0.3,0.5,0.3,0.8,0.1c0.3-0.2,0.6-0.2,1-0.1c0.2,0.1,0.3,0.1,0.5-0.1c0.5-0.6,1-0.7,1.7-0.4
		c0.4,0.2,0.7,0.4,1.1,0.4c0.3,0,0.3,0.2,0.2,0.4c0,0.2-0.1,0.4-0.3,0.5c-0.1,0.1-0.2,0.2-0.3,0.3c-0.1,0.1-0.1,0.1-0.1,0.2
		c0,0.1,0.1,0.1,0.2,0.1c0.1,0,0.2,0,0.3,0c0.2,0,0.3,0.1,0.3,0.3c-0.1,0.7-0.2,1.4-0.3,2c0,0.2-0.2,0.2-0.3,0.1
		c-0.3-0.4-0.7-0.4-1.2-0.3c-0.6,0.1-1.2-0.1-1.6-0.7c-0.2-0.3-0.4-0.3-0.6,0c0,0,0,0,0,0c-0.2,0.3-0.3,0.7-0.8,0.7
		c-0.7,0-1.4,0.1-2.1-0.3c-0.3-0.2-0.4-0.4-0.5-0.7c-0.2-0.4-0.5-0.7-0.9-0.8c-0.1,0-0.3,0-0.4,0.1c-0.1,0.2,0,0.4,0.2,0.4
		c0.4,0,0.6,0.3,0.8,0.6c0.5,0.8,1.3,1.2,2.3,1.1c0.6,0,0.6,0.1,0.6,0.6c0,0.4,0,0.8,0,1.2c0,0.1,0,0.3,0.2,0.4
		c0.2,0.1,0.3-0.1,0.4-0.2c0.6-0.9,1.5-1.2,2.6-1.1c0.3,0,0.6,0,0.9-0.3c0.1-0.1,0.3-0.1,0.3,0.1c0.1,0.5,0.2,1,0,1.4
		c-0.1,0.4-0.4,0.5-0.8,0.5c-0.4,0-0.8,0-1.2,0.2c-0.3,0.1-0.6,0.3-0.6,0.7c-0.1,0.4-0.1,0.8,0.3,1c0.4,0.2,0.8,0.2,1.2,0
		c0.3-0.2,0.5-0.4,0.8-0.6c0.2-0.2,0.5-0.4,0.7-0.6c0.8-0.5,1.5-0.4,2.2,0.3c-0.1,0.2-0.3,0.1-0.5,0.2c-0.7,0.1-1.3,0.4-1.7,1
		c-0.3,0.4-0.7,0.7-1.3,0.8c-0.2,0-0.4,0.1-0.7,0.2c0.3,0.3,0.6,0.3,0.8,0.3c0.7,0,1.4-0.1,2.1-0.2c1.2-0.2,2.3,0.1,3.3,0.8
		c0.1,0.1,0.2,0.1,0.2,0.3c-0.5,0-0.9,0-1.4,0c-0.6,0-1.1,0.2-1.6,0.5c-0.1,0.1-0.3,0.2-0.4,0.3c-0.1,0.2-0.1,0.3,0.1,0.3
		c0.2,0,0.3,0.1,0.5,0.1c0.8,0.2,1.6,0.5,2.3,1c0.8,0.7,1.7,1.3,2.6,1.9c0,0,0.1,0.1,0.1,0.1c-0.8,0.7-3.1,0.5-4.4-0.5
		c0.1,0.3,0.3,0.5,0.5,0.6c0.7,0.6,1.5,0.8,2.4,1c0.1,0,0.2,0,0.4,0.1c0.8,0.2,1.1,0.7,0.9,1.5c-0.2,0.5-0.1,0.6,0.4,0.9
		c0.7,0.4,1.5,0.8,2.1,1.3c0.7,0.5,1.3,1,1.8,1.7c0.4,0.6,0.6,1.2,0.4,1.9c-0.1,0.2-0.1,0.4-0.3,0.5c-0.4,0.3-0.6,0.3-0.9-0.1
		c-0.3-0.6-0.6-1.1-1-1.7c-0.1-0.2-0.2-0.3-0.2-0.5c0-0.1,0-0.2-0.1-0.2c-0.1,0-0.2,0.1-0.2,0.2c-0.2,0.4-0.1,0.8,0.3,1.1
		c0.7,0.6,0.9,1.4,0.8,2.2c0,0.7-0.3,0.9-0.9,0.9c-0.1,0-0.3,0-0.4,0c-0.2,0-0.3-0.1-0.3-0.3c0-0.3,0-0.5,0-0.8
		c0-0.5-0.1-0.9-0.3-1.3c-0.2-0.3-0.2-0.5-0.2-0.8c0-0.4-0.1-0.5-0.4-0.3c-0.4,0.2-0.5,0.3-0.2,0.7c0.3,0.5,0.6,1.1,0.6,1.7
		c0,0.2,0,0.4,0,0.5c0,0.7-0.9,1.2-1.6,0.9c-0.3-0.2-0.5-0.6-0.5-1.1c0-0.3,0.1-0.6,0.1-0.8c0.1-0.8-0.2-1.5-0.7-2.1
		c-0.5-0.6-1.1-1.1-1.7-1.5c-0.3-0.2-0.4-0.2-0.4,0.2c0,0.4-0.1,0.7-0.3,1.1c-0.3,0.6-0.8,1-1.4,1.3c-0.4,0.1-0.5,0.1-0.4-0.3
		c0.1-0.6,0.2-1.2,0.3-1.9c0.1-0.8-0.1-1.6-0.4-2.5c-0.1,0.4-0.1,0.6-0.1,0.9c0,1.5-0.8,2.6-2.2,3.2c-0.1,0-0.2,0.1-0.3,0
		c0-0.3,0.2-0.6,0.3-0.8c0.4-1.4,0.3-2.6-0.5-3.8c-0.1-0.1-0.1-0.2-0.3-0.2c0.1,0.6,0.1,1.2,0.1,1.7c0,0.6-0.2,1.2-0.6,1.7
		c-0.1,0.1-0.2,0.2-0.3,0.2c-0.2-0.1-0.1-0.2-0.1-0.4c-0.1-0.5-0.1-1-0.3-1.6c-0.1-0.4-0.3-0.9-0.5-1.2
		C94.1,45.4,93.5,44.7,93.2,43.8z M94.1,37.3c-0.1-0.8-0.2-1.6,0-2.4c0-0.1,0-0.3-0.2-0.4c-0.2-0.1-0.3,0.1-0.4,0.2
		c-0.1,0.1-0.1,0.3-0.1,0.5C93.6,35.9,93.7,36.6,94.1,37.3c0,0.2,0.1,0.3-0.1,0.6c-0.6-0.5-0.9-1.2-1.1-1.9
		c-0.2-0.7-0.2-1.4-0.1-2.2c0-0.2,0.1-0.5-0.1-0.7c-0.2,0.2-0.3,0.4-0.3,0.6c-0.1,0.3-0.1,0.7-0.1,1c0,0.8,0,1.5,0,2.3
		c0,0.1,0.1,0.3-0.1,0.4c-0.2-0.1-0.3-0.3-0.4-0.5c-0.5-1.2-0.6-2.4-0.5-3.7c0-0.4,0.1-0.8,0-1.2c0-0.1-0.1-0.3-0.2-0.3
		c-0.2,0-0.2,0.2-0.2,0.3c0,0.1,0,0.2,0,0.4c0,0.2,0.1,0.4,0.1,0.7c0.1,1.2-0.2,2.4-0.4,3.6c0,0.1-0.1,0.2-0.2,0.1
		C90,36.5,90,36.2,90,35.9c-0.1-0.7-0.2-1.4-0.2-2.1c0-0.5,0-1.1,0-1.6c0-0.4-0.1-0.8-0.4-1.1c-0.1,0.1-0.1,0.2-0.1,0.3
		c0.2,1,0.1,1.9,0.1,2.9c0,0.9,0.2,1.7,0.6,2.5c0.1,0.3,0.3,0.6,0.6,0.9c0.3-0.7,0.1-1.4,0.4-2c0.3,0.5,0.4,1.1,0.7,1.7
		c0.3,0.5,0.2,1.2,0.5,1.8c0.4-0.5,0.5-1,0.4-1.6c0-0.2-0.1-0.4,0-0.5c0-0.2,0.1-0.2,0.3-0.1c0.1,0.1,0.2,0.2,0.3,0.4
		c0.6,0.8,1,1.6,1.3,2.5c0.1,0.1,0,0.3,0.3,0.4C94.8,39.2,94.7,38.2,94.1,37.3z"/>
	<path class="st0" d="M160.8,74.1c0.9,1.9,0.8,3.2-0.2,4.4c-0.1-0.5-0.2-0.9-0.3-1.3c-0.1-0.4-0.3-0.8-0.7-1.1
		c-0.1,0.4-0.2,0.6-0.3,0.9c-0.1,0.4-0.3,0.8-0.7,1.2c-0.3,0.3-0.6,0.6-1.1,0.5c-0.3,0-0.4,0.1-0.6,0.3c-0.4,0.4-0.9,0.6-1.5,0.6
		c-0.3,0-0.5-0.1-0.6-0.4c-0.1-0.6-0.4-1-1.1-1c-0.2,0-0.3-0.2-0.2-0.4c0.2-0.2,0.5-0.3,0.7-0.5c-0.7-0.1-1.3,0.4-1.3,1
		c0,0.2,0,0.4-0.1,0.5c-0.1,0.1-0.3,0.3-0.5,0.2c-0.2-0.1-0.2-0.2-0.2-0.4c0-0.5-0.2-0.8-0.7-1c-0.3-0.1-0.3-0.2-0.1-0.5
		c0.2-0.3,0.5-0.4,0.7-0.7c-0.9,0-1.3,0.4-1.4,1.3c0,0.2,0,0.4-0.2,0.5c-0.4,0.4-0.7,0.3-1-0.1c-0.4-0.8-0.1-2,0.7-2.5
		c0.3-0.2,0.7-0.2,1.1-0.1c0.9,0.2,1.8,0.4,2.7,0.4c1.1,0,1.9-0.5,2.4-1.4c0.3-0.6,0.5-1.2,0.5-1.9c0-0.7,0.1-1.4-0.1-2.1
		c-0.1-0.4-0.1-0.5-0.5-0.4c-0.5,0.1-1,0.1-1.5,0.1c-0.9,0-1.7-0.4-2.1-1.2c0-0.1-0.1-0.1-0.1-0.1c-0.9,1.4-1.4,1.6-2.4,1.2
		c0-0.1,0.1-0.2,0.1-0.2c0.6-0.3,0.8-0.9,0.9-1.5c0.1-0.8,0.1-1.5-0.1-2.3c-0.2-0.9-0.4-1.9-0.4-2.8c0-1.1,0.2-2.1,0.6-3.2
		c0.2-0.4,0.3-0.8,0.5-1.2c0.4-1,0.5-2,0.4-3.1c0-0.6-0.3-1.1-0.6-1.6c-0.7-1.1-1.6-2-2.5-2.8c-0.1-0.1-0.3-0.2-0.4-0.4
		c0.4-0.2,0.9,0,1.5-0.2c-0.3-0.5-0.6-1.1-0.7-1.8c0.4,0.2,0.6,0.5,0.9,0.7c0.3,0.2,0.5,0.4,0.8,0.7c0.1-1.1,0.1-2.1,0.4-3.2
		c0.4,0.5,0.4,1.1,0.8,1.5c0.3-0.2,0.2-0.6,0.5-0.9c0.4,0.6,0.6,1.2,1.1,1.7c0.2-0.8,0.3-1.5,0.7-2.2c0.2,0.2,0.2,0.4,0.2,0.6
		c0.2,1.4,0.7,2.6,1.4,3.9c0.2,0.5,0.7,0.8,1,1.1c1,1.1,1.9,2.3,2.7,3.5c1.1,1.7,3.5,1.7,4.7,0.1c0.9-1.2,0.9-2.5,0.7-3.8
		c-0.1-0.9-0.5-1.6-1-2.3c-0.6-0.9-1.2-1.9-1.9-2.8c-0.5-0.8-1-1.6-1.3-2.5c-0.1-0.3-0.2-0.7-0.2-1.1c0-1.1-0.1-2.1,0.3-3.1
		c0.7-1.9,2-3.1,4.1-3.2c0.7-0.1,1.3-0.1,1.9,0.1c1.7,0.4,2.8,1.5,3.2,3.2c0.1,0.3,0.2,0.7,0.4,1c0.3,0.5,0.8,0.6,1.3,0.2
		c0.2-0.1,0.3-0.3,0.5-0.4c0.2-0.1,0.3-0.1,0.4,0.1c0.2,0.6,0.4,1.2,0.2,1.8c-0.1,0.4-0.4,0.6-0.8,0.8c-0.3,0.1-0.6,0.1-1,0.2
		c-0.4,0-0.5,0.1-0.4,0.5c0.1,0.8-0.1,1.5-0.5,2.1c-0.8,1.1-1,2.4-0.5,3.7c0,0.1,0.1,0.2,0,0.3c-0.2,0.1-0.3,0-0.4-0.1
		c-1.9-1.3-2.5-3.2-1.7-5.4c0-0.1,0.1-0.2,0.1-0.3c0.1-0.2,0-0.3-0.2-0.3c-0.2,0-0.3,0.1-0.5,0.1c-0.7,0.1-1.4-0.1-1.9-0.7
		c-0.6-0.6-0.5-1.6,0.2-2.2c0.2-0.1,0.3-0.1,0.4,0.1c0,0.1,0.1,0.1,0.1,0.2c0.4,0.7,1.1,0.8,1.6,0.2c0.3-0.3,0.4-0.7,0.4-1.1
		c-0.1-0.7-0.3-1.3-0.8-1.8c-0.7-0.7-1.6-0.9-2.5-0.6c-1.8,0.5-2.9,2.3-2.6,4.1c0.2,1.2,0.7,2.2,1.4,3.2c0.7,1.1,1.5,2.2,2.2,3.3
		c0.7,1.2,1.4,2.4,1.6,3.9c0.2,1.6-0.2,3-1.3,4.2c-0.3,0.4-0.7,0.7-1.1,1c-1.7,1.2-3.4,1.2-5.2,0.2c-0.3-0.1-0.5-0.3-0.8-0.5
		c-0.2-0.1-0.3-0.1-0.5,0.1c-0.1,0.2-0.3,0.5-0.4,0.7c-0.4,1.1-0.5,2.2-0.5,3.3c0.1,1.7,2,3.5,3.6,3.4c1.1-0.1,1.6-0.6,1.5-1.7
		c0-0.1,0-0.2-0.1-0.4c0-0.1-0.2-0.3,0-0.4c0.1-0.1,0.3,0,0.4,0c0.6,0.3,1,0.8,1,1.5c0,0.4,0,0.9-0.1,1.3c-0.1,0.2-0.1,0.4-0.1,0.6
		c0.5,0,0.9,0,1.4,0.1c0.9,0.2,1.5,0.9,1.5,1.8c0,0.1,0,0.2,0,0.3c0,0.2-0.2,0.3-0.4,0.2c-0.3-0.2-0.5-0.3-0.8-0.5
		c-1.1-0.6-2.2-0.5-3,0.2c-0.4,0.4-0.4,0.4-0.1,0.9c0.5,0.7,0.9,1.4,1.1,2.3c0.1,0.6,0,1.1-0.4,1.7c-0.3-0.3-0.3-0.7-0.5-1
		c-0.2-0.3-0.4-0.5-0.7-0.7c-0.1,0.2,0.1,0.3,0.1,0.4c0.7,1.2,0.6,2.6-0.3,3.7c0,0-0.1,0.1-0.2,0.1c-0.1-0.8,0-1.7-0.6-2.3
		C161.2,74.1,161,74,160.8,74.1z"/>
	<path class="st0" d="M122.8,84.2c-1.2-0.1-2.4-0.2-3.6-0.3c-2.1-0.2-4.2-0.6-6.3-1.1c-2.2-0.5-4.4-1.3-6.4-2.2
		c-2.1-1-4.1-2.1-6.2-3.1c-0.2-0.1-0.4-0.2-0.5-0.5c-0.2-0.7-0.6-1.3-1.1-1.8c-0.4-0.3-0.4-0.4,0-0.7c0.6-0.5,1.3-0.9,2.1-1.1
		c0.7-0.1,1.4,0,2,0.2c0.4,0.2,0.9,0.4,1.2,0.7c1.9,1.5,4,2.4,6.2,3.2c2.8,1.1,5.8,1.7,8.8,2c5.4,0.6,10.6-0.2,15.7-2
		c1.4-0.5,2.7-1.1,4-1.7c0.5-0.3,1.1-0.6,1.6-0.9c1-0.7,2.1-1.1,3.3-1.2c1-0.1,2,0.2,2.8,0.9c0.1,0.1,0.2,0.2,0.1,0.4
		c-0.4,0.4-0.5,1-0.5,1.6c0,0.6,0,0.6-0.5,0.7c-0.7,0.2-1.4,0.6-2.1,0.9c-2.8,1.5-5.6,2.9-8.7,3.8c-2.4,0.8-4.9,1.3-7.4,1.7
		C125.8,83.9,124.3,84,122.8,84.2z M106.7,77L106.7,77c-0.2-0.3-0.6-0.4-0.9-0.5c-0.4,0.8-0.8,1.6-1.3,2.3c0,0.1,0.1,0.1,0.2,0.1
		c0.4,0.2,0.4,0.2,0.5-0.2c0.1-0.3,0.2-0.6,0.5-0.8c0.2,0.1,0.3,0.2,0.5,0.2c0.1,0.1,0.2,0.2,0.4,0.2c0.4,0.1,0.8,0,0.9-0.3
		c0.1-0.3,0-0.6-0.3-0.9C107,77.1,106.9,77,106.7,77z M143.2,77.6c0.2,0,0.3-0.1,0.4-0.3c0.1-0.2,0.3-0.5,0.1-0.7
		c-0.1-0.3-0.4-0.3-0.7-0.3c-0.3,0-0.7,0-1,0.1c-0.3,0.1-0.6,0.1-0.8-0.1c-0.2-0.3,0.1-0.5,0.1-0.8c-0.2,0.1-0.4,0.3-0.4,0.4
		c-0.2,0.4-0.1,0.8,0.4,0.9c0.2,0,0.4,0,0.5,0c0.3,0,0.5-0.1,0.8-0.1C143.4,76.7,143.5,76.9,143.2,77.6c-0.5,0.2-0.9,0.3-1.5,0.2
		c0,0.2,0.1,0.4,0.3,0.4C142.4,78,142.9,78,143.2,77.6z M121.5,83.3c0.8-0.1,1.3-0.5,1.3-1.2c0.1-0.7-0.3-1.3-1-1.5
		c-0.7-0.2-1.3-0.1-1.9,0.4c-0.4,0.4-0.5,1.1-0.3,1.6C120,83.2,120.7,83.5,121.5,83.3L121.5,83.3z M112,81.8
		c-0.3-0.4-0.5-0.7-0.7-1.1c-0.2-0.4-0.2-0.4,0.3-0.5c0.3-0.1,0.5-0.2,0.6-0.5c0.1-0.3-0.1-0.5-0.3-0.7c-0.1-0.1-0.2-0.1-0.3-0.2
		c-0.3-0.1-0.7-0.3-1-0.4c-0.2-0.1-0.3,0-0.4,0.2c-0.2,0.7-0.4,1.3-0.7,1.9c-0.1,0.1-0.3,0.3,0,0.4c0.2,0.1,0.4,0.1,0.5-0.2
		c0.1-0.2,0.1-0.3,0.2-0.5c0.1-0.2,0.1-0.3,0.3-0.3c0.2,0,0.3,0.1,0.4,0.3c0.2,0.3,0.3,0.7,0.5,1C111.4,81.7,111.6,81.8,112,81.8z
		 M129.5,80.8c-0.9,0.7-0.8,0.6-1-0.3c0-0.1,0-0.3-0.2-0.3c-0.2,0-0.3,0.1-0.2,0.3c0.2,0.7,0.3,1.4,0.3,2.2c0,0.2,0.1,0.3,0.3,0.2
		c0.2,0,0.3,0,0.3-0.3c-0.1-0.2-0.1-0.5-0.2-0.7c0-0.3,0.1-0.3,0.3-0.2c0.4,0.2,0.8,0.3,1.1,0.6c0.4,0.4,0.7,0.3,1.2,0.1
		c-0.6-0.3-1.1-0.5-1.6-0.8C129.3,81.3,129.3,81.3,129.5,80.8z M136.5,80c-0.2,0-0.4,0-0.5-0.1c-0.6-0.3-1.2-0.5-1.8-0.8
		c-0.3-0.1-0.6-0.2-0.9,0c0.4,0.1,0.5,0.4,0.6,0.7c0.2,0.5,0.3,1,0.4,1.5c0,0.1,0,0.2,0.2,0.2c0,0,0.1,0,0.1,0
		c0.1-0.1,0-0.2-0.1-0.2c-0.3-0.4-0.4-0.9-0.5-1.4c-0.1-0.3,0-0.3,0.3-0.2c0.1,0,0.2,0.1,0.3,0.2c0.6,0.3,1.2,0.5,1.8,0.8
		c0.1,0,0.2,0.1,0.3,0c0.1-0.1,0-0.3,0-0.4c-0.2-0.6-0.5-1.2-0.7-1.9c0-0.1-0.1-0.2-0.2-0.1c-0.2,0.1-0.1,0.2,0,0.3
		C136.2,78.9,136.4,79.4,136.5,80z M115.5,82.7c0.7,0.2,0.7,0.2,0.8-0.3c0.1-0.5,0.2-1.1,0.3-1.6c0.1-0.4,0.2-0.5,0.6-0.4
		c0.2,0.1,0.4,0.2,0.6,0.2c0-0.2-0.1-0.3-0.2-0.3c-0.7-0.1-1.4-0.3-2.2-0.4c-0.1,0-0.3,0-0.3,0.2c0.2,0.1,0.3-0.1,0.5-0.1
		c0.5,0,0.6,0.2,0.5,0.6c-0.1,0.4-0.1,0.8-0.2,1.1C115.9,82.1,115.9,82.4,115.5,82.7z M103.6,75.2c0,0-0.1-0.1-0.2-0.1
		c-0.1,0-0.1,0-0.2,0c-0.6,0-0.9,0.4-0.6,1c0.1,0.2,0.2,0.4,0.4,0.6c0.1,0.2,0.2,0.3,0.3,0.5c0.2,0.3,0.1,0.5-0.2,0.7
		c-0.1,0-0.2,0-0.2,0.2c0.3,0.1,0.7,0.1,0.9-0.2c0.2-0.3,0.1-0.6-0.1-0.9c-0.1-0.1-0.1-0.2-0.2-0.2c-0.2-0.2-0.3-0.5-0.5-0.7
		c-0.2-0.4-0.1-0.6,0.4-0.7C103.5,75.2,103.6,75.3,103.6,75.2z M125,82c0.1,0,0.2,0,0.3,0c0.1,0,0.1,0,0.1-0.1
		c0-0.1-0.1-0.2-0.2-0.1c-0.1,0-0.2,0-0.2,0c-0.6,0.1-0.7,0.1-0.8-0.6c0-0.1,0-0.2,0-0.3c0-0.2,0-0.3-0.2-0.3
		c-0.2,0-0.1,0.2-0.1,0.3c0,0.5,0,1,0,1.5c0,0.2,0,0.4,0,0.6c0,0.3,0.1,0.3,0.3,0.3c0.2,0,0.2-0.2,0.1-0.3c0-0.1,0-0.2,0-0.4
		C124.3,82,124.3,82,125,82z M139.5,79.6c-1.4,0-2.2-1-1.4-2.4c-0.7,0.5-1,1.3-0.6,1.9C137.8,79.7,138.5,79.9,139.5,79.6z
		 M113.7,82.3c-0.1-0.3,0-0.6,0.1-0.9c0.1-0.5,0.2-1,0.4-1.5c0.1-0.2-0.1-0.3-0.2-0.3c-0.2-0.1-0.2,0-0.3,0.2
		c-0.1,0.4-0.1,0.7-0.2,1.1c-0.1,0.4-0.1,0.9-0.5,1.3C113.1,82.2,113.4,82.3,113.7,82.3z M108.6,77.8c-0.3,0.8-0.6,1.7-1.1,2.4
		c0.2,0.1,0.3,0.2,0.5,0.2c0.3-0.9,0.6-1.7,1.1-2.4C109,77.9,108.8,77.8,108.6,77.8z M133.1,81.9c-0.2-0.3-0.3-0.5-0.4-0.8
		c-0.1-0.5-0.3-1-0.4-1.5c-0.1-0.2-0.2-0.2-0.3-0.2c-0.2,0.1-0.2,0.2-0.1,0.3c0.2,0.6,0.4,1.3,0.5,1.9
		C132.5,82.1,132.5,82.1,133.1,81.9z M139.8,77.8c0.3,0.4,0.7,0.8,0.5,1.4c0.6-0.5,0.6-0.5,0.3-1c-0.1-0.2-0.2-0.4-0.3-0.6
		C140.1,77.6,139.9,77.7,139.8,77.8z"/>
	<path class="st0" d="M101.1,69.5c-0.8,1.1-0.6,2.3-0.4,3.5c-0.3,0-0.5-0.2-0.7-0.4c-1-0.7-1.3-1.7-1.1-2.9c0-0.1,0.1-0.2,0.1-0.3
		c0.1-0.3,0-0.4-0.3-0.3c-1.2,0.1-1.6-0.3-1.9-1.4c-0.1-0.3-0.1-0.6-0.1-1c0-0.3,0.1-0.4,0.4-0.2c0.1,0.1,0.2,0.2,0.4,0.2
		c0.7,0.4,1.6,0.4,2.2-0.5c0.4-0.6,0.6-1.3,0.2-2c-0.2-0.3-0.3-0.6-0.5-1c-0.1-0.3-0.3-0.6-0.4-0.9c-0.3,0.1-0.3,0.3-0.4,0.5
		c-0.6,0.6-1.5,0.6-2.1,0c-0.1-0.1-0.1-0.2,0-0.3c0.2-0.1,0.4-0.2,0.5-0.4c0.8-0.7,0.9-1.5,0.5-2.4c-0.4-0.9-1.2-1.5-2-2
		c-0.9-0.6-0.8-0.5-0.2-1.3c0.4-0.5,0.7-1,1.1-1.4c0.5-0.6,1.1-1,1.8-1c1,0,2.1-0.1,3.1,0.1c1.1,0.2,2,0.6,2.8,1.4
		c0.6,0.5,1.2,1,1.8,1.5c0.8,0.6,1.7,0.7,2.7,0.4c0.1,0,0.2-0.1,0.3-0.1c0.2-0.1,0.3,0,0.4,0.2c0.1,0.6-0.3,1.2-0.9,1.5
		c-0.3,0.1-0.6,0.2-0.9,0.3c0.1,0.2,0.3,0.2,0.4,0.2c0.6,0.2,1.2,0.6,1.7,1c1.1,1,0.9,2,0,3c-0.2,0.3-0.3,0.2-0.4-0.1
		c-0.1-0.4-0.3-0.7-0.5-1.1c-0.5-0.8-1.7-1.2-2.6-1.1c-0.3,0-0.4,0.2-0.3,0.4c0.2,0.5,0,0.9-0.4,1.3c-0.2,0.2-0.4,0.4-0.7,0.6
		c-0.3,0.3-0.4,0.6-0.5,1c-0.1,0.6,0.1,1.1,0.6,1.5c0.4,0.3,0.9,0.5,1.4,0.5c0.5,0,0.9,0.1,1.4,0.1c0.5,0,1,0.2,1.4,0.7
		c0.1,0.2,0.1,0.3,0,0.5c-0.3,0.3-0.7,0.6-1.2,0.6c-0.5-0.1-1.1,0-1.5,0.3c-0.4,0.2-0.6,0.5-0.7,1.1c0.8-0.6,1.6-1.3,2.6-0.7
		c0,0.2-0.1,0.2-0.2,0.2c-0.6,0.3-1,0.8-1.1,1.5c-0.1,0.7-0.6,1-1.3,0.9c-0.4-0.1-0.8-0.3-1.2-0.6c-0.3-0.3-0.6-0.6-0.9-0.9
		c-0.3-0.3-0.3-0.3-0.5,0.1c-0.2,0.4-0.3,0.9-0.4,1.4c0,0.2,0.1,0.5-0.2,0.5c-0.2,0.1-0.4-0.1-0.6-0.3c-0.4-0.4-0.5-1-0.6-1.5
		C101.2,70.1,101.1,69.8,101.1,69.5z"/>
	<path class="st0" d="M139,59.3c-0.2-0.2-0.5-0.2-0.7-0.3c-0.7-0.3-1-0.8-1.1-1.5c0-0.4,0.1-0.5,0.4-0.3c1.1,0.6,2.2,0.3,3.1-0.4
		c0.6-0.5,1.1-0.9,1.7-1.4c0.6-0.6,1.3-0.9,2.1-1.1c1.2-0.3,2.5-0.3,3.8-0.2c0.5,0,1,0.3,1.4,0.7c0.7,0.7,1.2,1.5,1.8,2.2
		c0.2,0.2,0.1,0.4-0.2,0.5c-0.7,0.4-1.3,0.9-1.8,1.4c-0.3,0.3-0.6,0.7-0.7,1.2c-0.2,0.7-0.1,1.3,0.4,1.8c0.2,0.3,0.5,0.5,0.8,0.7
		c0.2,0.1,0.2,0.3,0,0.4c-0.7,0.4-1.5,0.7-2.2-0.3c-0.1-0.1-0.1-0.2-0.2-0.3c-0.2,0.4-0.3,0.8-0.6,1.2c-0.2,0.4-0.4,0.7-0.5,1.1
		c-0.2,0.8,0.2,1.8,0.9,2.2c0.5,0.3,1.1,0.2,1.6,0c0.2-0.1,0.4-0.3,0.7-0.4c0.2,0.1,0.2,0.2,0.2,0.4c0,0.4,0,0.9-0.2,1.3
		c-0.3,0.7-0.9,1.1-1.6,1.1c-0.5,0-0.5,0-0.4,0.4c0.1,0.3,0.1,0.6,0.1,0.8c-0.1,1.2-0.7,1.9-1.7,2.5c0,0-0.1,0-0.3,0
		c0.3-1.2,0.3-2.4-0.3-3.5c-0.2,0-0.2,0.2-0.2,0.3c0,0.5-0.2,1-0.4,1.5c-0.1,0.3-0.3,0.6-0.6,0.8c-0.3,0.2-0.4,0.1-0.5-0.2
		c0-0.4,0-0.8-0.1-1.1c0-0.1-0.1-0.3-0.1-0.4c-0.2-0.4-0.3-0.5-0.6-0.1c-0.4,0.5-0.8,0.9-1.4,1.2c-0.2,0.1-0.5,0.2-0.8,0.2
		c-0.6,0-0.9-0.2-1-0.8c-0.1-0.7-0.4-1.3-1.2-1.6c-0.1,0-0.1-0.1-0.2-0.1c0.5-0.5,0.9-0.4,1.4-0.2c0.5,0.1,0.8,0.5,1.3,0.8
		c-0.1-0.6-0.4-0.9-0.8-1.1c-0.5-0.2-1-0.3-1.5-0.2c-0.5,0-0.8-0.2-1.1-0.5c-0.2-0.2-0.2-0.4,0-0.5c0.3-0.4,0.7-0.6,1.2-0.6
		c0.4,0,0.9-0.1,1.3-0.1c0.6,0,1.2-0.2,1.7-0.6c0.6-0.4,0.7-0.9,0.6-1.5c-0.1-0.4-0.4-0.8-0.7-1.1c-0.1-0.1-0.3-0.2-0.4-0.3
		c-0.4-0.4-0.7-0.8-0.4-1.4c0.1-0.3,0-0.4-0.3-0.4c-1.7-0.2-2.7,0.7-3.1,2c0,0.2,0,0.4-0.2,0.4c-0.2,0-0.3-0.2-0.4-0.3
		c-0.1-0.2-0.3-0.4-0.4-0.6c-0.3-0.7-0.2-1.4,0.3-2c0.4-0.5,1-0.8,1.5-1.1C138.4,59.5,138.7,59.4,139,59.3z"/>
	<path class="st0" d="M141.8,73.3c-0.4,0.3-0.7,0.5-1,0.8c-0.4,0.3-0.5,0.3-0.8-0.1c-0.8-0.8-1.8-1.3-2.8-1.8
		c-0.6-0.3-1.1-0.3-1.7-0.1c-0.2,0.1-0.3,0.1-0.5,0.3c-0.3,0.2-0.4,0.5-0.3,0.8c0.1,0.4,0.4,0.5,0.7,0.6c0.2,0,0.4,0,0.5,0.1
		c0,0.2-0.1,0.3-0.3,0.4c-0.4,0.3-1.2,0.3-1.6,0c-0.5-0.4-0.7-1-0.5-1.6c0.2-0.5,0.5-0.9,0.9-1.2c0.4-0.3,0.4-0.4-0.1-0.6
		c-0.8-0.3-1.6-0.6-2.4-0.7c-1.4-0.2-2.6,0.4-3.3,1.6c-0.5,0.9-0.8,1.9-0.5,3c0.3,1.1,1,1.5,2.1,1c0.2-0.1,0.4-0.2,0.6-0.3
		c0.2-0.1,0.3,0,0.4,0.2c0.1,0.5,0.1,1-0.1,1.5c-0.2,0.3-0.4,0.5-0.8,0.5c-0.3,0-0.6,0-0.9,0c-1.2-0.4-2-1-2.5-2.2
		c-0.9-2.3,0.1-4.6,2.1-5.7c0.1-0.1,0.3-0.1,0.3-0.3c-1.2,0.2-2.1,0.8-2.5,1.9c-0.4,1.1-0.5,2.2-0.4,3.4c0.1,1.3,0.3,2.5,0.7,3.8
		c0.1,0.5,0.1,0.6-0.4,0.6c-0.5,0-0.9,0-1.4,0c-0.3,0-0.5-0.2-0.6-0.5c-0.5-2.7-0.2-5.2,1.2-7.6c0-0.1,0.2-0.1,0.1-0.3
		c-0.5,0.3-0.8,0.8-1,1.2c-0.5,0.9-0.7,1.9-0.9,2.9c-0.2,1.3-0.2,2.6-0.1,3.9c0,0.5,0,0.5-0.5,0.5c-0.5,0-0.6-0.1-0.5-0.6
		c0.1-1.4,0.2-2.8,0-4.2c-0.1-0.8-0.4-1.5-0.8-2.2c-0.1-0.2-0.3-0.5-0.6-0.7c0.1,0.3,0.2,0.6,0.3,0.8c0.8,2,0.8,4,0.5,6.1
		c-0.1,0.5-0.2,0.5-0.6,0.5c-0.5,0-1,0-1.5-0.1c-0.4-0.1-0.5-0.1-0.4-0.6c0.3-1,0.5-2,0.8-3.1c0.2-0.7,0.3-1.3,0.3-2
		c-0.1-1.6-0.8-2.7-2.1-3.5c0,0-0.1,0-0.1,0c0.1,0.2,0.3,0.3,0.4,0.5c1,1.2,1.7,2.5,1.6,4c-0.1,1.1-0.5,1.9-1.4,2.6
		c-0.5,0.4-1,0.7-1.6,0.8c-0.8,0.1-1.4,0-2-0.6c-0.6-0.6-0.2-1.8,0.3-2.3c0.1-0.1,0.3,0,0.4,0.1c0.1,0.2,0.3,0.4,0.5,0.6
		c0.7,0.7,1.5,0.6,2-0.2c0.8-1.3,0.8-2.7,0-3.8c-0.6-0.9-1.5-1.3-2.6-1.4c-1.2-0.1-2.3,0.2-3.3,0.8c-0.4,0.2-0.4,0.3-0.1,0.6
		c0.7,0.9,0.6,1.5-0.4,2.1c-0.5,0.3-0.9,0.5-1.4,0.6c-0.1-0.2,0.1-0.3,0.1-0.5c0.3-0.9-0.1-1.5-1-1.5c-0.3,0-0.6,0-1,0.1
		c-1.1,0.4-2.1,1-3,1.7c-0.5,0.4-0.5,0.4-1,0c-0.7-0.6-0.7-0.6,0.1-1c1.7-0.9,3.4-1.8,5.2-2.7c1.6-0.8,3.3-1.4,5.1-1.7
		c1.6-0.2,3.2-0.1,4.6,0.6c0.9,0.4,1.7,0.9,2.5,1.5c0.7,0.5,0.7,0.5,1.3,0c1.1-0.9,2.3-1.5,3.7-1.9c1.7-0.4,3.4-0.2,5,0.3
		c1.8,0.5,3.4,1.4,5,2.3c0.9,0.5,1.8,1.1,2.7,1.5C140.9,73,141.3,73.1,141.8,73.3z"/>
	<path class="st0" d="M123.4,25.7c3,0.1,6,0.2,8.9,0.6c1.7,0.2,3.3,0.5,4.9,0.7c0.7,0.1,0.7,0.2,0.7,0.9c0,0.5,0,0.9,0,1.4
		c0,0.6,0,0.7-0.7,0.5c-1.3-0.2-2.6-0.4-3.9-0.6c-1.8-0.2-3.5-0.4-5.3-0.5c-2-0.1-4-0.2-6-0.2c-1.3,0-2.6,0.1-3.9,0.2
		c-1.1,0.1-2.1,0.2-3.2,0.3c-1.7,0.2-3.4,0.4-5.1,0.8c-0.3,0.1-0.6,0.1-1,0.2c-0.3,0-0.4-0.1-0.4-0.3c0-0.7,0-1.4,0-2.1
		c0-0.3,0.3-0.4,0.5-0.5c0.7-0.1,1.4-0.3,2.2-0.4c2-0.3,4-0.5,6-0.7c0.9-0.1,1.7-0.1,2.6-0.1C121,25.8,122.2,25.6,123.4,25.7z
		 M136.4,28.3c0-0.4-0.4-0.8-0.8-0.8c-0.4,0-0.8,0.4-0.8,0.8c0,0.4,0.4,0.8,0.8,0.8C136,29.1,136.4,28.7,136.4,28.3z M110.9,29.1
		c0.4,0,0.8-0.4,0.8-0.8c0-0.4-0.4-0.8-0.8-0.8c-0.4,0-0.8,0.4-0.8,0.8C110.1,28.7,110.5,29.1,110.9,29.1z M117.8,27.5
		c0-0.5-0.3-0.9-0.7-0.9c-0.4,0-0.8,0.4-0.8,0.8c0,0.5,0.3,0.8,0.8,0.8C117.5,28.3,117.8,27.9,117.8,27.5z M131,27.4
		c0-0.4-0.4-0.8-0.8-0.8c-0.4,0-0.8,0.4-0.7,0.9c0,0.4,0.3,0.8,0.8,0.8C130.6,28.2,131,27.9,131,27.4z M124,27.2
		c0-0.4-0.4-0.8-0.8-0.8c-0.4,0-0.8,0.4-0.7,0.9c0,0.5,0.3,0.8,0.8,0.8C123.6,28,124,27.6,124,27.2z"/>
	<path class="st0" d="M120.1,19.4c0.3-0.5,0.7-0.8,1-1.2c1.3-1.6,1.7-3.4,1.3-5.3c-0.1-0.3-0.1-0.6-0.2-0.9c-0.3-1.3-1.6-2-2.9-1.8
		c-0.2,0-0.4,0.1-0.6,0.2c-0.3,0.1-0.4,0-0.4-0.3c0.1-1.1,0.9-2.1,2.4-2c0.4,0,0.7,0.2,1.1,0.4c0-0.3-0.1-0.4-0.2-0.5
		c-0.7-1.6-0.7-3.2,0.4-4.7c0.5-0.7,0.6-0.6,1.1,0c1.1,1.5,1.3,3,0.8,4.7c0,0.2-0.1,0.3-0.1,0.5c0,0,0,0,0,0.1
		c0.5-0.2,1-0.4,1.6-0.3c0.8,0.1,1.4,0.6,1.6,1.4c0.1,0.4,0,0.5-0.4,0.5c-0.2,0-0.3,0-0.5,0c-1.5-0.1-2.5,0.8-2.8,2
		c-0.5,2-0.5,4,0.6,5.9c0.3,0.4,0.6,0.8,1,1.1c0.1,0.1,0.2,0.1,0.1,0.3c-0.5-0.2-0.9-0.6-1.3-0.9c-0.4-0.4-0.7-0.8-1-1.2
		C121.9,18.2,121.1,19,120.1,19.4z"/>
	<path class="st0" d="M152.8,89c-0.2,0.1-0.4,0-0.5-0.1c-0.6-0.1-1.2-0.2-1.9-0.2c-1.3,0-2.6,0-3.9,0c-0.5,0-1,0.1-1.6-0.1
		c-1.6-0.5-2.6-1.7-2.6-3.5c0-0.5,0-1.1,0.2-1.6c0.1-0.5,0.2-0.5,0.6-0.2c0.1,0.1,0.2,0.1,0.2,0.2c1.6,1.3,3.5,1.7,5.5,1.2
		c0.4-0.1,0.6,0,0.9,0.3c1,1.3,2.1,2.5,3.1,3.8C152.8,88.9,152.8,89,152.8,89z"/>
	<path class="st0" d="M92.4,89.2c0.2-0.5,0.6-0.8,0.9-1.2c0.8-0.9,1.6-1.9,2.3-2.8c0.2-0.3,0.5-0.4,0.8-0.3c2.1,0.5,4,0,5.7-1.3
		c0.1-0.1,0.2-0.1,0.2-0.2c0.3-0.2,0.4-0.1,0.4,0.2c0.3,1.1,0.3,2.2-0.1,3.2c-0.5,1.3-1.6,1.9-2.9,2.1c-0.3,0.1-0.6-0.1-0.9-0.1
		c-0.9,0-1.7-0.1-2.6-0.1c-1.3,0-2.6,0-3.8,0.5C92.5,89.2,92.4,89.2,92.4,89.2z"/>
	<path class="st0" d="M144.5,39.5c-0.4,0.4-0.9,0.6-1.3,0.8c-0.3,0.2-0.5,0.3-0.8,0.4c-0.2,0.1-0.4,0.1-0.6,0.1
		c-0.9-0.2-1.2-0.1-1.7,0.7c0,0-0.1,0.1-0.1,0.1c-0.5-0.5-0.5-1.3-0.1-1.8c0.3-0.5,0.4-0.5-0.1-0.8c-0.5-0.4-0.7-0.9-0.7-1.5
		c0-1.1,0-2.1,0-3.2c0-0.6-0.1-0.7-0.7-0.7c-0.4,0-0.9,0-1.3,0c-0.4,0-1.1-0.6-1.2-0.9c-0.1-0.3,0.1-0.6,0.5-0.6c0.3,0,0.7,0,1,0
		c0.2,0,0.4,0,0.7,0c0.9-0.1,1.5,0.2,2.1,0.8c1.2,1.2,2.3,2.5,3.3,3.9c0.3,0.3,0.2,0.4-0.2,0.6c-0.4,0.2-0.8,0.3-1.2,0.6
		c-0.4,0.3-0.8,0.7-0.9,1.3c-0.1,0.3,0,0.4,0.4,0.4c0.7-0.1,1.4-0.2,2.1-0.2C144.1,39.3,144.3,39.3,144.5,39.5z"/>
	<path class="st0" d="M106.3,41.6c-0.2-0.1-0.2-0.2-0.3-0.4c-0.4-0.5-0.8-0.7-1.4-0.5c-0.3,0.1-0.5,0.1-0.8-0.1
		c-0.6-0.4-1.3-0.7-1.9-1.1c-0.1,0-0.1-0.1-0.1-0.2c0.1-0.1,0.3-0.1,0.5-0.1c0.8,0,1.5,0.1,2.3,0.2c0.4,0.1,0.5,0,0.4-0.4
		c-0.2-0.8-0.7-1.3-1.5-1.7c-0.2-0.1-0.4-0.1-0.6-0.2c-0.5-0.2-0.5-0.2-0.2-0.5c0.3-0.4,0.5-0.7,0.8-1.1c0.6-0.7,1.2-1.5,1.8-2.2
		c0.4-0.4,0.8-0.8,1.3-1.2c0.2-0.1,0.3-0.2,0.5-0.2c0.8,0,1.6-0.1,2.4-0.1c0.2,0,0.5,0,0.6,0.3c0.1,0.3,0,0.5-0.2,0.7
		c-0.3,0.4-0.7,0.7-1.2,0.6c-0.4,0-0.8,0-1.2,0c-0.6,0-0.6,0-0.6,0.7c0,1.1,0,2.2,0,3.3c0,0.6-0.1,1-0.6,1.3c-0.1,0-0.1,0.1-0.1,0.1
		c-0.2,0.2-0.3,0.3,0,0.5C106.8,40.3,106.8,40.9,106.3,41.6z"/>
	<path class="st0" d="M140.9,16.4c0.1-0.3,0.1-0.5,0.1-0.7c0.1-0.7,0.4-1.3,1.1-1.7c0.2-0.1,0.4-0.3,0.6-0.1
		c0.2,0.1,0.1,0.3,0.1,0.5c0,0.6-0.2,1.1-0.5,1.6c-0.5,1.2-1.2,2.2-1.8,3.4c-0.1,0.1-0.2,0.3-0.2,0.4c-0.2,0.4-0.3,0.8-0.9,0.8
		c-0.2,0-0.4,0.2-0.5,0.4c-1.1,1-2.3,1.5-3.8,1.5c-1.4,0-2.5-0.7-3.1-1.9c-0.3-0.6-0.6-1.3-0.6-2c0.3,0,0.3,0.2,0.4,0.4
		c0.8,1.1,1.9,1.9,3.2,2.1c1.1,0.2,2.1,0,3.1-0.5c0.2-0.1,0.3-0.3,0.4-0.5c0.1-0.5,0.2-1,0.8-1.3c0.2-0.1,0.2-0.3,0.1-0.4
		c-0.1-0.5-0.4-0.8-0.9-0.9c-0.2-0.1-0.4-0.1-0.6-0.2c-0.2-0.1-0.3-0.2-0.3-0.4c0-0.2,0.2-0.3,0.4-0.4c0.7-0.2,1.5,0.1,1.8,0.8
		c0,0.1,0,0.2,0.1,0.3c0.1-0.4,0-0.7-0.4-1c-0.2-0.2-0.4-0.3-0.3-0.6c0.1-0.3,0.4-0.4,0.7-0.4c0.3,0,0.6,0.1,0.8,0.4
		C140.7,16.1,140.7,16.2,140.9,16.4z"/>
	<path class="st0" d="M104.6,16.3c0.2,0,0.2-0.2,0.3-0.3c0.3-0.3,0.7-0.4,1.1-0.3c0.4,0.1,0.5,0.5,0.2,0.8c-0.4,0.3-0.7,0.7-0.5,1.2
		c0.1,0,0.1-0.1,0.1-0.1c0.2-0.9,0.9-1.3,1.8-1.1c0.2,0.1,0.4,0.1,0.4,0.4c0,0.3-0.1,0.4-0.3,0.4c-0.2,0.1-0.3,0.1-0.5,0.2
		c-0.3,0.1-0.6,0.3-0.7,0.6c-0.2,0.4-0.2,0.6,0.2,0.9c0.3,0.2,0.5,0.6,0.5,1c0,0.5,0.3,0.7,0.7,0.9c2.2,0.9,4.2,0.3,5.8-1.6
		c0.1-0.2,0.2-0.4,0.4-0.4c0.1,0,0.1,0.1,0.1,0.2c-0.2,0.9-0.5,1.8-1.1,2.5c-1,1.1-2.2,1.3-3.6,1.1c-1.1-0.2-2-0.8-2.9-1.5
		c-0.2-0.2-0.3-0.4-0.6-0.4c-0.4,0-0.5-0.2-0.7-0.5c-0.3-0.8-0.8-1.5-1.3-2.3c-0.4-0.6-0.7-1.2-1-1.9c-0.2-0.5-0.4-1-0.4-1.6
		c0-0.4,0.1-0.5,0.5-0.3c0.7,0.3,1.1,0.9,1.2,1.7C104.6,15.9,104.5,16.1,104.6,16.3z"/>
	<path class="st0" d="M111.8,84.9c0.2,0.1,0.2,0.3,0.3,0.5c0.2,0.5,0.5,0.9,1,1.2c0.3,0.2,0.6,0.3,0.9,0.3c0.4,0,0.5-0.1,0.3-0.4
		c-0.1-0.2-0.2-0.4-0.3-0.7c-0.1-0.6,0.1-1,0.7-1.1c0.2,0,0.4,0,0.5,0c0.2,0,0.5,0,0.7,0c0,0.3-0.2,0.2-0.3,0.3
		c-0.3,0.2-0.4,0.6-0.3,1c0.1,0.4,0.4,0.4,0.7,0.4c1.2,0.1,2.2-0.3,3-1.1c0.3-0.3,0.7-0.6,1.2-0.5c0.5,0,0.6,0.2,0.3,0.6
		c-0.6,1.2-1.6,2-2.8,2.4c-0.2,0.1-0.3,0.1-0.5,0.1c-0.8,0.2-1,0.8-0.6,1.5c0.2,0.3,0.4,0.5,0.5,0.7c-0.7,0.1-1.6-0.5-1.8-1.2
		c-0.2-0.6-0.3-0.6-0.8-0.5c-0.9,0.3-1.2,0.6-1.4,1.6c-0.6-0.3-0.9-0.9-0.6-1.6c0.1-0.4,0-0.6-0.2-0.9
		C111.4,86.8,111.2,85.8,111.8,84.9z"/>
	<path class="st0" d="M131.8,84.7c0.6-0.1,1-0.1,1.4,0c0.6,0.1,0.9,0.5,0.7,1.1c-0.1,0.3-0.3,0.6-0.5,1c0.6,0.2,1.2,0,1.6-0.4
		c0.5-0.4,0.7-0.9,1-1.4c0.2,0,0.2,0.2,0.3,0.3c0.2,0.9,0.1,1.7-0.7,2.4c-0.3,0.2-0.3,0.4-0.2,0.8c0.2,0.7,0,1.1-0.6,1.6
		c-0.1,0-0.1-0.1-0.1-0.1c-0.1-0.9-0.8-1.5-1.7-1.6c-0.2,0-0.4,0.1-0.4,0.3c-0.2,1-1,1.3-1.9,1.6c0.1-0.3,0.3-0.5,0.4-0.7
		c0.1-0.2,0.2-0.3,0.3-0.5c0.2-0.6,0-1.1-0.6-1.3c-0.9-0.2-1.6-0.6-2.3-1.2c-0.5-0.4-0.8-0.9-1.1-1.5c-0.2-0.3-0.1-0.4,0.3-0.5
		c0.4-0.1,0.8,0,1.2,0.4c0.4,0.4,0.8,0.7,1.3,1c0.6,0.3,1.2,0.4,1.8,0.3c0.3,0,0.6-0.1,0.7-0.4c0.1-0.3,0-0.6-0.3-0.9
		C132.2,84.9,132.1,84.9,131.8,84.7z"/>
	<path class="st0" d="M123.3,24.4c5.1,0,9.6,0.5,14.1,1.4c0.2,0,0.3,0.1,0.5,0.1c0.2,0.1,0.2,0.2,0.2,0.4c-0.1,0.2-0.2,0.2-0.3,0.2
		c-0.7-0.1-1.4-0.2-2-0.4c-2.2-0.4-4.4-0.6-6.6-0.8c-2.8-0.2-5.6-0.3-8.4-0.2c-1.9,0-3.7,0.2-5.6,0.4c-2,0.2-4.1,0.6-6.1,1
		c-0.2,0-0.5,0.2-0.6-0.2c-0.1-0.2,0.1-0.4,0.5-0.5c1.5-0.3,3.1-0.6,4.6-0.8c1.2-0.2,2.5-0.3,3.7-0.4c0.6-0.1,1.3-0.1,1.9-0.2
		C120.7,24.4,122.2,24.3,123.3,24.4z"/>
	<path class="st0" d="M123.4,29.2c4.8-0.1,9.3,0.4,13.7,1.4c0.2,0,0.4,0.1,0.5,0.1c0.2,0.1,0.4,0.2,0.3,0.5
		c-0.1,0.3-0.3,0.2-0.5,0.1c-1-0.2-2-0.4-3.1-0.5c-1.6-0.3-3.3-0.4-4.9-0.6c-3.3-0.3-6.6-0.3-9.9-0.2c-2.2,0.1-4.5,0.3-6.7,0.6
		c-1.4,0.2-2.7,0.4-4.1,0.7c-0.2,0-0.4,0.1-0.5-0.2c-0.1-0.2,0.1-0.4,0.4-0.5c1.5-0.3,3-0.5,4.5-0.8c1.7-0.2,3.4-0.4,5.1-0.6
		C120.2,29.3,122,29.2,123.4,29.2z"/>
	<path class="st0" d="M130.5,18.3c-2.1,1.6-4.8,1.4-6.1-1c-1-1.8-1-3.7,0.1-5.5c0.5-0.8,1.3-1.1,2.2-1c1.1,0.2,1.6,1,1.5,2
		c0,0.2-0.1,0.3-0.4,0.3c-0.3-0.1-0.6-0.2-0.9-0.3c-0.9-0.2-1.5,0.1-1.7,0.9c-0.4,1.4-0.1,2.7,0.8,3.8c0.9,1,2,1.3,3.3,1.1
		C129.8,18.5,130.1,18.4,130.5,18.3z"/>
	<path class="st0" d="M115.1,18.4c0.3,0.1,0.7,0.2,1,0.2c1.8,0.3,3.5-0.7,4-2.4c0.2-0.8,0.3-1.5,0.1-2.3c-0.3-1-0.9-1.3-1.8-1
		c-0.2,0.1-0.5,0.2-0.7,0.2c-0.4,0.1-0.5,0-0.5-0.3c0-0.9,0.4-1.6,1.4-1.8c0.9-0.2,1.7,0,2.3,0.9c0.9,1.4,1.1,2.9,0.7,4.5
		c-0.2,0.8-0.6,1.5-1.2,2.1c-0.9,0.9-1.9,1.2-3.1,1C116.5,19.2,115.8,18.9,115.1,18.4z"/>
	<path class="st0" d="M153.7,80c0.3,0.1,0.5-0.1,0.7-0.2c0.2-0.1,0.4-0.1,0.5,0.1c0.5,0.9,0.5,0.9-0.4,1.3c-2,0.8-4,0.7-6,0
		c-1.2-0.4-2.3-1-3.4-1.7c-0.1-0.1-0.2-0.2-0.3-0.3c-0.1-0.1-0.1-0.2,0-0.3c0.2-0.4,0.6-0.5,1-0.3c0.7,0.3,1.3,0.6,2,0.9
		c1.2,0.5,2.5,0.8,3.8,0.9c0.6,0.1,1.1,0,1.6-0.1c0.4-0.1,0.4-0.1,0.2-0.4c-0.1-0.2-0.3-0.5-0.2-0.7c0.1-0.3,0.4-0.5,0.7-0.5
		c0.4,0,0.7,0.2,0.8,0.6c0,0.2,0,0.3-0.2,0.4C153.9,79.7,153.9,79.7,153.7,80z"/>
	<path class="st0" d="M145.4,80.3c0,0.2-0.2,0.2-0.3,0.3c-1.5,0.9-2.6,2.1-3.5,3.7c0,0,0,0,0,0.1c-0.2,0.4-0.3,0.4-0.5,0
		c-0.5-0.9-0.9-1.7-1.4-2.6c0-0.1-0.1-0.1-0.1-0.2c-0.1-0.2-0.1-0.4,0.1-0.5c0,0,0.1,0,0.1-0.1c1.1-0.6,2.2-1.1,3.2-1.7
		c0.3-0.2,0.6-0.2,0.8,0c0.4,0.2,0.8,0.4,1.2,0.7C145.2,80,145.3,80.1,145.4,80.3z"/>
	<path class="st0" d="M99.9,80.2c0.6-0.4,1.2-0.7,1.8-1c0.2-0.1,0.4,0,0.5,0.1c1.1,0.6,2.2,1.1,3.3,1.7c0.4,0.2,0.4,0.2,0.2,0.6
		c-0.4,0.9-0.9,1.8-1.4,2.7c-0.2,0.4-0.3,0.4-0.6,0c-0.5-0.9-1.1-1.7-1.9-2.5c-0.5-0.5-1-0.9-1.6-1.3C100.1,80.5,100,80.4,99.9,80.2
		z"/>
	<path class="st0" d="M130.1,20.9c-2.8,2.3-6,0.7-6.5-1.4c1.1,0.9,2.3,1.5,3.6,1.4c1.4-0.1,2.4-0.9,3.4-1.7c0.2,0.2,0.1,0.4,0.2,0.6
		c0.1,1,0.4,1.8,1.1,2.5c0.4,0.4,1,0.7,1.5,0.8c0.2,0,0.4,0,0.6,0.3c-0.9,0.4-1.7,0.3-2.6-0.1C130.6,22.7,130.3,21.9,130.1,20.9z"/>
	<path class="st0" d="M111.4,23.2c1-0.3,1.9-0.5,2.5-1.3c0.6-0.8,0.8-1.7,0.8-2.7c0.3-0.1,0.4,0.2,0.5,0.3c0.7,0.6,1.5,1.1,2.4,1.3
		c1.4,0.3,2.6-0.1,3.7-0.9c0.1-0.1,0.2-0.3,0.5-0.3c-0.4,0.9-0.9,1.5-1.6,2c-0.8,0.5-1.6,0.6-2.5,0.5c-0.9-0.1-1.6-0.6-2.3-1.1
		c-0.2,0.2-0.2,0.5-0.3,0.7C114.8,23.2,112.9,24,111.4,23.2z"/>
	<path class="st0" d="M121.1,90.2C121.1,90.2,121.1,90.1,121.1,90.2c0-0.3,0.2-0.6,0-0.8c-0.2-0.2-0.4,0-0.7,0
		c-0.9,0-1.5-0.9-1.1-1.7c0.1-0.2,0.3-0.4,0.4-0.6c0.2-0.2,0.3-0.2,0.5,0c0.1,0.1,0.1,0.1,0.2,0.1c0.6,0.4,1.2,0.3,1.7-0.3
		c0.3-0.4,0.5-0.8,0.6-1.3c0-0.2,0.1-0.3,0.1-0.5c0.1-0.2,0.3-0.3,0.5-0.3c0.2,0,0.2,0.3,0.2,0.4c-0.1,0.5-0.1,1-0.3,1.6
		c-0.4,1.4-1,2.6-1.7,3.8c-0.1,0.1-0.1,0.2-0.2,0.2c-0.1,0.1-0.2,0.1-0.3-0.1C121.1,90.6,121.1,90.4,121.1,90.2
		C121.1,90.2,121.1,90.2,121.1,90.2z"/>
	<path class="st0" d="M126.5,89.3c0,0.6,0.2,1.1,0,1.6c-0.2,0.1-0.2,0-0.3-0.1c-0.9-1.5-1.6-3-1.9-4.7c0-0.3-0.1-0.6-0.1-0.8
		c0-0.2,0-0.4,0.2-0.4c0.2,0,0.4,0.1,0.4,0.3c0.1,0.2,0.1,0.4,0.2,0.6c0.1,0.5,0.3,0.9,0.7,1.2c0.5,0.5,1,0.5,1.6,0.2
		c0.5-0.3,0.6-0.3,0.9,0.2c0.2,0.3,0.4,0.7,0.3,1.1c-0.2,0.7-0.8,1-1.5,0.8C126.8,89.3,126.7,89.3,126.5,89.3z"/>
	<path class="st0" d="M123.9,85.5c0.3,1.7,0.7,3.2,1.3,4.8c0.1,0.3,0.1,0.5-0.1,0.8c-0.3,0.4-0.6,0.7-1,1.1c-0.2,0.2-0.4,0.2-0.6,0
		c-0.3-0.4-0.7-0.8-1-1.1c-0.2-0.2-0.2-0.3-0.1-0.5c0.8-1.4,1-2.9,1.3-4.5C123.7,85.8,123.7,85.6,123.9,85.5z"/>
	<path class="st0" d="M114.2,17.6c-0.2,0-0.2-0.1-0.3-0.2c-0.4-0.3-0.8-0.4-1.3-0.2c-0.3,0.2-0.6,0-0.7-0.2c-0.1-0.2,0-0.6,0.2-0.7
		c0.2-0.1,0.4-0.2,0.5-0.3c-0.1-0.3-0.3-0.5-0.3-0.8c-0.2-0.5,0-1,0.3-1.1c0.3-0.1,0.8,0.1,1.1,0.5c0.1,0.2,0.2,0.5,0.4,0.7
		c0.2,0,0.4-0.2,0.6-0.2c0.3,0,0.6,0.1,0.7,0.4c0.1,0.3,0,0.5-0.3,0.6c-0.5,0.3-0.7,0.7-0.7,1.2C114.3,17.5,114.3,17.6,114.2,17.6z"
		/>
	<path class="st0" d="M132.9,16c0.2,0.1,0.4,0.2,0.6,0.3c0.2,0.2,0.3,0.5,0.2,0.7c-0.1,0.2-0.4,0.4-0.6,0.3
		c-0.7-0.3-1.2-0.1-1.7,0.4c-0.2-0.1-0.1-0.3-0.1-0.4c-0.1-0.5-0.2-0.9-0.8-1.2c-0.3-0.1-0.4-0.3-0.4-0.6c0-0.3,0.3-0.4,0.6-0.5
		c0.3,0,0.5,0.2,0.7,0.2c0.2-0.1,0.2-0.4,0.3-0.5c0.1-0.3,0.3-0.5,0.7-0.7c0.4-0.2,0.8,0,0.9,0.5c0,0.3,0,0.6-0.1,0.9
		C133.1,15.6,133,15.8,132.9,16z"/>
	<path class="st0" d="M122.7,19.9c0.4,0.9,0.8,1.7,1,2.6c0.1,0.4,0.1,0.9-0.3,1.1c-0.4,0.3-0.9,0.2-1.3,0c-0.4-0.2-0.5-0.6-0.4-1
		c0.3-0.8,0.5-1.6,0.8-2.4C122.6,20.2,122.6,20.2,122.7,19.9z"/>
	<path class="st0" d="M143.7,29.1c0.1,0.2,0.1,0.4,0.1,0.5c0.1,0.9,0.7,1.4,1.6,1.5c0.4,0,0.7,0,1.1,0c0.4,0,0.6,0.2,0.6,0.7
		c0,0.4-0.2,0.6-0.7,0.6c-0.6-0.1-1.1-0.1-1.7-0.3c-0.4-0.1-0.7-0.3-1-0.6c-0.5-0.5-0.7-1-0.5-1.7C143.4,29.6,143.4,29.3,143.7,29.1
		z"/>
	<path class="st0" d="M102.5,28.8c0.9,1.1,0.5,2.2-0.3,2.7c-0.8,0.5-1.7,0.6-2.6,0.6c-0.4,0-0.5-0.2-0.5-0.7c0-0.4,0.2-0.6,0.6-0.6
		c0.4,0,0.9,0,1.3-0.1c0.9-0.2,1.3-0.7,1.4-1.6C102.5,29.1,102.4,28.9,102.5,28.8z"/>
	<path class="st0" d="M157.5,81.1c-0.3,0-0.6,0-0.8-0.2c-0.3-0.2-0.4-0.4-0.4-0.7c0-0.3,0.2-0.5,0.5-0.5c0.2-0.1,0.4-0.2,0.5-0.3
		c0.2-0.2,0.5-0.3,0.8-0.3c0.5,0,0.6,0.1,0.7,0.6C158.9,80.6,158.4,81.2,157.5,81.1z"/>
	<path class="st0" d="M88.9,81.1c-1,0-1.5-0.6-1.3-1.5c0.1-0.3,0.2-0.5,0.5-0.5c0.4,0,0.7,0,1,0.3c0.1,0.1,0.3,0.2,0.5,0.3
		c0.3,0.1,0.5,0.3,0.4,0.6c0,0.3-0.1,0.6-0.5,0.7C89.4,81.1,89.1,81.1,88.9,81.1z"/>
	<path class="st0" d="M134.5,66.5c0.4,0,0.8,0.1,1.1,0.4c0.3,0.3,0.3,0.6-0.1,0.8c0,0,0,0-0.1,0c-0.7,0.1-1.4,0.4-2.1,0.5
		c-0.4,0.1-0.5-0.1-0.5-0.5c-0.1-0.5,0.1-0.7,0.5-1C133.7,66.6,134.1,66.5,134.5,66.5z"/>
	<path class="st0" d="M94.6,56.3c-0.2-0.1-0.2-0.2-0.2-0.3c0-0.5,0.1-1,0.3-1.4c0.4-0.7,1-1.3,1.8-1.6c0.2-0.1,0.4-0.1,0.6-0.2
		c0.2,0,0.4,0,0.5,0.2c0.1,0.2-0.1,0.3-0.3,0.4c-0.8,0.7-1.6,1.3-2.3,2.2C94.9,55.8,94.8,56.1,94.6,56.3z"/>
	<path class="st0" d="M106.6,21.4c0.7,0.4,1.4,0.8,2,1.2c0.3,0.2,0.5,0.6,0.4,1c-0.1,0.4-0.3,0.5-0.7,0.7c-0.3,0.1-0.5,0.1-0.7-0.2
		C107.1,23.3,106.8,22.3,106.6,21.4z"/>
	<path class="st0" d="M138.9,21.4c-0.2,1-0.5,1.8-1.1,2.6c-0.2,0.3-0.5,0.3-0.9,0.1c-0.4-0.2-0.6-0.5-0.5-0.9
		c0.1-0.3,0.2-0.5,0.4-0.7C137.6,22.1,138.3,21.8,138.9,21.4z"/>
	<path class="st0" d="M111.8,66.5c0.4,0,0.7,0.1,1,0.2c0.6,0.2,0.7,0.5,0.6,1.1c0,0.2-0.2,0.4-0.4,0.4c-0.2,0-0.4,0-0.6-0.1
		c-0.4-0.2-0.9-0.3-1.3-0.4c-0.1,0-0.2,0-0.2-0.1c-0.5-0.2-0.5-0.5-0.2-0.8C111,66.6,111.4,66.5,111.8,66.5z"/>
	<path class="st0" d="M151.9,56.7c0,0-0.1,0-0.1-0.1c-0.7-1.1-1.6-2-2.7-2.8c0,0-0.1-0.1-0.1-0.1c-0.1-0.1-0.1-0.1-0.1-0.2
		c0-0.1,0.1-0.2,0.2-0.2c0.2,0,0.5,0,0.7,0c1.3,0.3,2.3,1.8,2.2,3.1C152.1,56.6,152.1,56.7,151.9,56.7z"/>
	<path class="st0" d="M110.9,68.8c0,0.4-0.2,0.6-0.5,0.7c-0.4,0.1-0.7,0.2-1-0.1c-0.1-0.1-0.3-0.3-0.4-0.4c-0.3-0.3-0.3-0.5,0.1-0.8
		c0.4-0.3,0.8-0.4,1.3-0.3C110.7,68.1,110.9,68.3,110.9,68.8z"/>
	<path class="st0" d="M96.6,31.4c0.3,0,0.6,0,0.9,0c0.2,0,0.4,0,0.4,0.2c0,0.2-0.1,0.4-0.3,0.4c-0.1,0.1-0.3,0.1-0.4,0.1
		c-0.8,0-1.4,0.2-2.1,0.6c-0.1,0.1-0.3,0.2-0.4,0.1c-0.2-0.1-0.2-0.3-0.1-0.5c0.1-0.5,0.4-0.9,1-0.9C95.9,31.4,96.3,31.4,96.6,31.4
		C96.6,31.4,96.6,31.4,96.6,31.4z"/>
	<path class="st0" d="M135.5,68.7c0-0.6,0.1-0.7,0.7-0.8c0.5-0.1,1.1,0.2,1.3,0.5c0.1,0.2,0.1,0.3,0,0.4c-0.1,0.1-0.3,0.3-0.4,0.4
		c-0.5,0.5-0.8,0.5-1.4,0.1C135.4,69.2,135.5,69,135.5,68.7z"/>
	<path class="st0" d="M149.8,31.4c0.3,0,0.7,0,1,0c0.6,0.1,1,0.6,0.9,1.2c0,0.2-0.2,0.3-0.4,0.2c-0.4-0.2-0.8-0.4-1.2-0.5
		c-0.4-0.1-0.7-0.2-1.1-0.2c-0.2,0-0.4,0-0.5-0.2c-0.2-0.3-0.1-0.5,0.2-0.5C149.1,31.4,149.4,31.4,149.8,31.4
		C149.8,31.4,149.8,31.4,149.8,31.4z"/>
	<path class="st0" d="M107.2,70.6c0.1-0.6,0.4-0.9,0.8-1.1c0.5-0.2,1.1,0,1.3,0.5c0.2,0.4,0,0.6-0.4,0.7c-0.1,0-0.2,0-0.3,0
		C108.2,70.6,107.7,70.5,107.2,70.6z"/>
	<path class="st0" d="M139,70.6c-0.6,0-1.1,0-1.7,0.1c-0.3,0-0.5-0.3-0.4-0.6c0.2-0.5,0.8-0.7,1.3-0.5C138.7,69.7,138.9,70,139,70.6
		z"/>
	<path class="st0" d="M113.8,18.1c0,0.4-0.3,0.7-0.7,0.7c-0.4,0-0.8-0.4-0.7-0.7c0-0.4,0.4-0.7,0.8-0.7
		C113.5,17.4,113.8,17.8,113.8,18.1z"/>
	<path class="st0" d="M132.5,17.4c0.4,0,0.7,0.3,0.7,0.7c0,0.4-0.3,0.7-0.7,0.7c-0.4,0-0.7-0.3-0.7-0.7
		C131.7,17.7,132.1,17.4,132.5,17.4z"/>
	<path class="st0" d="M130.2,16.4c0.4,0,0.7,0.3,0.7,0.7c0,0.4-0.3,0.7-0.7,0.7c-0.4,0-0.7-0.3-0.7-0.7
		C129.5,16.7,129.8,16.4,130.2,16.4z"/>
	<path class="st0" d="M136.8,53.6c0,0.2,0,0.3,0,0.5c0,0.3-0.1,0.3-0.3,0.2c-0.6-0.2-0.9-1.2-0.6-1.7c0-0.1,0.1-0.1,0.1-0.1
		c0.3-0.1,0.9,0.3,0.9,0.5C136.9,53.2,136.8,53.4,136.8,53.6C136.8,53.6,136.8,53.6,136.8,53.6z"/>
	<path class="st0" d="M116,17.1c0,0.4-0.3,0.7-0.7,0.7c-0.4,0-0.7-0.3-0.7-0.7c0-0.4,0.3-0.7,0.8-0.7C115.7,16.4,116,16.7,116,17.1z
		"/>
	<path class="st0" d="M109.5,53.8c0-0.2,0-0.4,0-0.5c-0.1-0.5,0.1-0.8,0.6-0.9c0.1,0,0.2,0,0.3,0.2c0.2,0.5,0,1.3-0.5,1.6
		c-0.1,0.1-0.2,0.2-0.4,0.1c-0.2-0.1-0.1-0.2-0.1-0.4C109.5,53.9,109.5,53.9,109.5,53.8z"/>
	<path class="st0" d="M116,21.9c0.4,0,0.7,0.3,0.7,0.7c0,0.4-0.3,0.7-0.7,0.7c-0.4,0-0.7-0.3-0.7-0.7
		C115.3,22.2,115.6,21.9,116,21.9z"/>
	<path class="st0" d="M130.2,22.6c0,0.4-0.3,0.7-0.7,0.7c-0.4,0-0.7-0.3-0.7-0.7c0-0.4,0.3-0.7,0.7-0.7
		C129.9,21.9,130.2,22.2,130.2,22.6z"/>
	<path class="st0" d="M139.4,55.2c0,0.2,0.1,0.5-0.2,0.6c-0.3,0.1-0.5-0.1-0.7-0.3c0,0,0,0,0,0c-0.2-0.3-0.4-0.5-0.3-0.9
		c0.1-0.1,0.7-0.2,1-0.1C139.3,54.5,139.4,54.7,139.4,55.2z"/>
	<path class="st0" d="M107,55.2c0-0.1,0-0.2,0-0.3c0-0.4,0.1-0.5,0.5-0.5c0.2,0,0.6-0.1,0.7,0.1c0.1,0.3,0,0.5-0.2,0.8
		c0,0.1-0.1,0.1-0.2,0.2c-0.2,0.2-0.5,0.3-0.7,0.2C106.9,55.7,107,55.4,107,55.2z"/>
	<path class="st0" d="M149.2,77.5c0,0,0,0.1,0,0.2c0,0.3,0,0.5-0.4,0.4c-0.1-0.1-0.3,0-0.4,0.1c-0.4,0.1-0.4,0-0.3-0.3
		c0.1-0.4,0.3-0.7,0.6-0.8c0.4-0.2,0.6-0.1,0.5,0.3C149.3,77.2,149.3,77.3,149.2,77.5z"/>
	<path class="st0" d="M97,77c0-0.2,0.1-0.3,0.3-0.2c0.4,0.1,0.9,0.7,0.9,1.1c0,0.2-0.1,0.3-0.3,0.2c0,0-0.1,0-0.1,0
		c-0.2-0.1-0.6,0.1-0.7-0.2C97,77.6,97.1,77.3,97,77z"/>
	<path class="st0" d="M114.4,68.1c-0.2,0-0.3,0-0.3,0c-0.4,0-0.6-0.3-0.4-0.6c0-0.1,0.1-0.2,0.2-0.2c0.3-0.1,0.8,0.2,1,0.4
		c0.1,0.1,0.1,0.2,0.1,0.3c0,0.1-0.2,0.1-0.3,0.1C114.5,68.1,114.4,68.1,114.4,68.1z"/>
	<path class="st0" d="M105,55.2c0-0.2,0.1-0.4,0.4-0.5c0.1,0,0.1,0,0.2,0c0.2,0,0.4-0.2,0.5,0c0.1,0.2,0,0.4-0.1,0.6
		c-0.1,0.2-0.3,0.2-0.4,0.3C105.2,55.7,105,55.6,105,55.2z"/>
	<path class="st0" d="M95.6,79.4c-0.3-0.4-0.6-0.8-1.1-0.9c-0.2-0.1-0.2-0.2,0-0.3c0.2-0.2,0.4-0.2,0.6-0.1c0.3,0.1,0.4,0.3,0.5,0.5
		C95.7,78.9,95.8,79.1,95.6,79.4z"/>
	<path class="st0" d="M150.7,79.5c-0.2-0.7-0.1-1.1,0.3-1.3c0.2-0.1,0.5-0.2,0.7,0c0.1,0.1,0.2,0.1,0.2,0.3c0,0.1-0.1,0.2-0.2,0.2
		C151.3,78.7,151,79,150.7,79.5z"/>
	<path class="st0" d="M111.7,69.1c-0.2,0-0.5,0.1-0.5-0.2c-0.1-0.2-0.1-0.4,0.1-0.6c0.1-0.2,0.3-0.1,0.5,0c0.1,0,0.2,0.1,0.3,0.1
		c0.2,0.1,0.4,0.3,0.3,0.5c-0.1,0.2-0.3,0.1-0.5,0.1C111.8,69.1,111.8,69.1,111.7,69.1z"/>
	<path class="st0" d="M131.9,68.1C131.9,68.1,131.8,68.1,131.9,68.1c-0.2,0-0.4,0.1-0.5-0.1c-0.1-0.2,0-0.3,0.2-0.4
		c0.2-0.2,0.4-0.3,0.7-0.3c0.3,0,0.5,0.1,0.5,0.4c0,0.2-0.1,0.4-0.3,0.4C132.2,68.1,132.1,68.1,131.9,68.1z"/>
	<path class="st0" d="M134.4,69.1c-0.1,0-0.2,0-0.3,0c-0.2,0-0.2-0.2-0.2-0.3c0.1-0.2,0.3-0.4,0.5-0.5c0.2-0.1,0.4-0.2,0.6,0
		c0.1,0.1,0.1,0.3,0.1,0.5c-0.1,0.2-0.3,0.2-0.4,0.2C134.6,69.1,134.5,69.1,134.4,69.1C134.4,69.1,134.4,69.1,134.4,69.1z"/>
	<path class="st0" d="M141.2,55.2c0,0.4-0.2,0.5-0.5,0.3c-0.1-0.1-0.3-0.2-0.4-0.3c-0.1-0.2-0.2-0.4-0.1-0.6c0.1-0.2,0.3,0,0.4,0
		C141.2,54.8,141.2,54.8,141.2,55.2z"/>
	<path class="st0" d="M105.6,78c0-0.2,0.1-0.4,0.2-0.6c0.3-0.5,0.4-0.5,0.9-0.4c0,0,0,0,0,0c0,0.1,0.1,0.1,0.1,0.2
		c0.3,0.6,0,0.9-0.7,1C106,78.1,105.8,78,105.6,78z"/>
	<path class="st0" d="M111,80c-0.4,0-0.6-0.1-0.6-0.3c0-0.3,0.3-0.9,0.5-0.9c0.4,0,0.7,0.4,0.7,0.7C111.6,79.8,111.3,80,111,80z"/>
	<path class="st0" d="M121.5,83.3c-0.1,0-0.2,0-0.2,0c-1.1-0.2-1.6-1-1.1-2c0.2-0.4,0.6-0.6,1-0.6c0.5,0,0.9,0.3,1,0.7
		C122.5,82.1,122.3,82.8,121.5,83.3C121.5,83.3,121.5,83.3,121.5,83.3z"/>
</g>
</svg>
