<?xml version="1.0" encoding="utf-8"?>
<!-- Generator: $$$/GeneralStr/196=Adobe Illustrator 27.6.0, SVG Export Plug-In . SVG Version: 6.00 Build 0)  -->
<svg version="1.1" id="Capa_1" xmlns="http://www.w3.org/2000/svg" xmlns:xlink="http://www.w3.org/1999/xlink" x="0px" y="0px"
	 viewBox="0 0 250 100" style="enable-background:new 0 0 250 100;" xml:space="preserve">
<style type="text/css">
	.st0{fill:#777777;}
</style>
<g id="Layer_2">
</g>
<g>
	<path class="st0" d="M77,53.4c0.4-0.3,0.4-0.6,0.6-0.9c1.2-3,2.4-5.9,3.5-8.9c0.3-0.7,0.6-1,1.3-0.9c0.7,0.1,1.4,0,2.2,0
		c0.4,0,0.7,0.2,0.7,0.6c0,0.4-0.2,0.7-0.7,0.7c-0.9-0.1-0.9,0.4-0.9,1.1c0,3.6,0,7.2,0,10.7c0,0.7,0.1,1.2,1,1.1
		c0.5,0,0.6,0.2,0.6,0.7c0,0.4-0.2,0.6-0.6,0.6c-1.4,0-2.7,0-4.1,0c-0.4,0-0.6-0.2-0.6-0.6c0-0.4,0.2-0.7,0.6-0.7
		c0.5,0,0.8-0.1,0.8-0.8c0-3.1,0-6.2-0.2-9.3c-0.7,1.8-1.4,3.6-2.1,5.4c-0.5,1.3-1.1,2.7-1.6,4c-0.2,0.5-0.4,0.8-1,0.8
		c-0.6,0-0.7-0.4-0.8-0.8c-1.2-3.3-2.5-6.5-3.7-9.8c0-0.1-0.1-0.2-0.2-0.5c0,3.6,0,6.9,0,10.3c0,0.6,0.3,0.7,0.8,0.7
		c0.5,0,0.9,0,0.9,0.7c0,0.7-0.5,0.6-1,0.6c-1.1,0-2.1,0-3.2,0c-0.5,0-0.8-0.2-0.7-0.7c0-0.5,0.3-0.7,0.7-0.6c0.7,0.1,0.9-0.3,0.9-1
		c0-3.7,0-7.3,0-11c0-0.7-0.2-1-0.9-1c-0.4,0-0.7-0.2-0.7-0.6c0-0.5,0.3-0.7,0.7-0.7c1,0,1.9,0,2.9,0c0.6,0,0.8,0.3,0.9,0.8
		c1.1,3,2.3,6,3.5,9C76.7,52.8,76.8,53.1,77,53.4z"/>
	<path class="st0" d="M44,50.9c-0.9,0-1.7,0-2.6,0c-0.6,0-0.8,0.2-0.8,0.8c0,1.5,0,2.9,0,4.4c0,0.6,0.2,0.9,0.8,0.9
		c0.5,0,0.8,0.1,0.7,0.7c0,0.5-0.3,0.7-0.8,0.7c-1.3,0-2.6,0-3.9,0c-0.4,0-0.8-0.1-0.8-0.6c0-0.5,0.2-0.7,0.7-0.7
		c0.6,0,0.8-0.3,0.8-0.8c0-3.8,0-7.5,0-11.3c0-0.6-0.2-0.9-0.8-0.8c-0.5,0-0.7-0.2-0.7-0.7c0-0.6,0.4-0.6,0.8-0.6c1.3,0,2.6,0,3.9,0
		c0.4,0,0.8,0.1,0.8,0.6c0,0.5-0.3,0.7-0.7,0.7c-0.7-0.1-0.9,0.3-0.8,0.9c0,1.2,0,2.5,0,3.7c0,0.6,0.2,0.9,0.9,0.9
		c1.7,0,3.4,0,5.1,0c0.7,0,0.9-0.2,0.9-0.9c0-1.2,0-2.5,0-3.7c0-0.6-0.1-1-0.8-1c-0.4,0-0.7-0.2-0.7-0.7c0-0.5,0.2-0.6,0.7-0.6
		c1.4,0,2.7,0,4.1,0c0.5,0,0.7,0.2,0.7,0.7c0,0.5-0.3,0.7-0.7,0.6c-0.7-0.1-0.9,0.3-0.9,1c0,3.7,0,7.3,0,11c0,0.7,0.1,1.1,0.9,1
		c0.5-0.1,0.7,0.2,0.7,0.7c0,0.5-0.3,0.6-0.7,0.6c-1.4,0-2.7,0-4.1,0c-0.4,0-0.7-0.1-0.7-0.6c0-0.4,0.2-0.7,0.6-0.7
		c0.7,0.1,0.9-0.3,0.8-0.9c0-1.4,0-2.8,0-4.2c0-0.7-0.2-1.1-1-1C45.7,50.9,44.9,50.9,44,50.9z"/>
	<path class="st0" d="M129.1,24.4c-0.9,0-1.7,0-2.6,0c-0.6,0-0.9,0.2-0.9,0.8c0,1.5,0,3.1,0,4.6c0,0.6,0.2,0.8,0.8,0.8
		c0.4,0,0.8,0,0.8,0.6c0,0.6-0.4,0.6-0.8,0.6c-1.3,0-2.6,0-3.9,0c-0.4,0-0.7,0-0.8-0.5c0-0.6,0.3-0.7,0.7-0.6c0.6,0,0.7-0.3,0.7-0.8
		c0-3.9,0-7.7,0-11.6c0-0.5-0.2-0.8-0.8-0.7c-0.4,0-0.7-0.1-0.7-0.6c0-0.6,0.4-0.6,0.8-0.6c1.3,0,2.6,0,3.9,0c0.4,0,0.8,0.1,0.8,0.6
		c0,0.5-0.3,0.6-0.7,0.6c-0.7-0.1-0.9,0.3-0.9,0.9c0,1.3,0,2.6,0,4c0,0.6,0.2,0.8,0.8,0.8c1.8,0,3.6,0,5.4,0c0.5,0,0.7-0.2,0.7-0.8
		c0-1.4,0-2.7,0-4.1c0-0.6-0.1-0.9-0.8-0.9c-0.4,0-0.7-0.1-0.7-0.6c0-0.5,0.3-0.6,0.8-0.6c1.3,0,2.6,0,3.9,0c0.4,0,0.7,0,0.8,0.5
		c0,0.5-0.3,0.7-0.7,0.6c-0.6,0-0.7,0.2-0.7,0.8c0,3.9,0,7.7,0,11.6c0,0.5,0.2,0.8,0.7,0.8c0.4,0,0.7,0.1,0.7,0.6
		c0,0.6-0.4,0.6-0.8,0.6c-1.3,0-2.6,0-3.9,0c-0.4,0-0.7-0.1-0.8-0.6c0-0.5,0.3-0.7,0.8-0.6c0.7,0.1,0.8-0.3,0.8-0.9c0-1.5,0-3,0-4.5
		c0-0.6-0.2-0.8-0.9-0.8C130.8,24.4,129.9,24.4,129.1,24.4z"/>
	<path class="st0" d="M156.7,20.4c-0.3,0.3-0.2,0.5-0.2,0.7c0,2.9,0,5.7,0,8.6c0,0.6,0.1,1,0.8,1c0.4,0,0.6,0.1,0.6,0.6
		c0,0.5-0.3,0.6-0.7,0.6c-1.1,0-2.2,0-3.3,0c-0.4,0-0.6-0.1-0.7-0.5c0-0.5,0.2-0.7,0.7-0.6c0.7,0.1,0.8-0.3,0.8-0.9
		c0-3.8,0-7.6,0-11.4c0-0.5-0.1-0.9-0.8-0.8c-0.4,0-0.7-0.1-0.7-0.6c0-0.5,0.3-0.6,0.7-0.6c0.6,0,1.1,0,1.7,0c0.6,0,1,0.2,1.4,0.7
		c2.2,3.5,4.5,6.9,6.8,10.3c0.1,0.2,0.2,0.5,0.6,0.6c0-0.9,0-1.7,0-2.5c0-2.4,0-4.8,0-7.1c0-0.6-0.1-0.9-0.8-0.9
		c-0.5,0-0.8-0.1-0.7-0.6c0-0.5,0.4-0.6,0.8-0.5c1.1,0,2.2,0,3.3,0c0.4,0,0.7,0.1,0.7,0.6c0,0.4-0.3,0.6-0.6,0.6
		c-0.8-0.1-0.8,0.4-0.8,1c0,4,0,7.9,0,11.9c0,0.5,0.3,1.2-0.5,1.5c-0.9,0.3-1.6,0-2.1-0.8c-2.1-3.3-4.3-6.6-6.4-9.9
		C157,20.9,156.8,20.6,156.7,20.4z"/>
	<path class="st0" d="M115.6,42.7c1.4,0,2.7-0.1,4.1,0.2c1.6,0.3,2.9,1.1,3.2,2.9c0.4,1.9-0.3,3.6-1.8,4.6c-1.1,0.8-1.1,0.8-0.4,1.9
		c0.9,1.3,1.7,2.6,2.6,3.9c0.3,0.4,0.5,0.8,1.1,0.8c0.4,0,0.5,0.3,0.6,0.7c0,0.4-0.2,0.6-0.6,0.6c-0.8,0-1.5,0-2.3,0
		c-0.5,0-0.7-0.3-0.9-0.7c-1.1-1.7-2.2-3.5-3.2-5.2c-0.1-0.2-0.2-0.4-0.3-0.5c-0.3-0.5-0.7-0.4-1.1-0.3c-0.5,0.1-0.4,0.5-0.4,0.8
		c0,1.3,0,2.5,0,3.8c0,0.6,0.1,0.9,0.8,0.9c0.4,0,0.7,0.2,0.7,0.7c0,0.5-0.3,0.6-0.7,0.6c-1.4,0-2.7,0-4.1,0c-0.4,0-0.7-0.2-0.7-0.6
		c0-0.5,0.3-0.7,0.7-0.7c0.6,0.1,0.8-0.3,0.8-0.9c0-3.7,0-7.5,0-11.2c0-0.6-0.1-0.9-0.8-0.9c-0.5,0-0.8-0.1-0.8-0.7
		c0-0.6,0.4-0.7,0.8-0.7C113.9,42.7,114.8,42.7,115.6,42.7z M116.2,47.1C116.2,47.1,116.2,47.1,116.2,47.1c0,0.8,0,1.7,0,2.5
		c0,0.4,0.1,0.6,0.6,0.6c1.9,0.2,3.6-1.1,3.7-3c0.2-2.3-0.7-3.2-3-3.2c-0.1,0-0.2,0-0.3,0c-0.7-0.1-1,0.2-1,0.9
		C116.2,45.7,116.2,46.4,116.2,47.1z"/>
	<path class="st0" d="M94.5,50.1c0.7,0.4,1.3,0.5,1.8,0.9c1.4,1,1.9,2.7,1.5,4.3c-0.4,1.5-1.8,2.6-3.5,2.7c-2.1,0.2-4.3,0.1-6.4,0.1
		c-0.4,0-0.9,0-0.9-0.6c0-0.6,0.4-0.8,0.9-0.7c0.6,0,0.7-0.2,0.7-0.8c0-3.8,0-7.6,0-11.4c0-0.6-0.2-0.8-0.8-0.8
		c-0.5,0-0.8-0.1-0.8-0.7c0-0.6,0.4-0.6,0.8-0.6c2.1,0.1,4.2-0.2,6.3,0.1c1.5,0.2,2.7,0.8,3,2.4c0.4,1.7-0.1,3-1.5,4.1
		C95.4,49.6,95,49.8,94.5,50.1z M91,53.9c0,0.8,0,1.6,0,2.3c0,0.3,0,0.6,0.4,0.7c1.4,0.5,3.6-0.5,4-2c0.3-1.1,0-2-0.7-2.8
		c-0.9-0.9-1.9-1.3-3.2-1.2c-0.4,0-0.4,0.4-0.4,0.7C91,52.4,91,53.1,91,53.9z M91,46.8c0,0.7,0,1.4,0,2.1c0,0.4,0.1,0.7,0.6,0.7
		c1.2,0,2.2-0.3,2.9-1.3c0.6-1,0.7-2.2,0-3.2c-0.7-1-1.8-1-2.9-1c-0.4,0-0.6,0.3-0.6,0.7C91,45.4,91,46.1,91,46.8z"/>
	<path class="st0" d="M63.7,49.8c0-1.8,0-3.3,0-4.7c0-0.6-0.1-1.1-0.9-1c-0.5,0-0.6-0.3-0.6-0.7c0-0.4,0.2-0.6,0.6-0.6
		c1.2,0,2.3,0,3.5,0c0.4,0,0.6,0.2,0.6,0.6c0,0.4-0.2,0.7-0.6,0.7c-0.8-0.1-0.9,0.4-0.9,1c0,2.5,0,4.9,0,7.4c0,0.8-0.1,1.6-0.2,2.4
		c-0.6,2.7-2.8,4-5.7,3.7c-3.6-0.3-5.1-2.1-5.2-5.8c0-2.5,0-5.1,0-7.6c0-0.7,0-1.2-0.9-1.2c-0.4,0-0.6-0.3-0.6-0.6
		c0-0.4,0.2-0.6,0.6-0.6c1.4,0,2.8,0,4.2,0c0.4,0,0.6,0.3,0.6,0.6c0,0.4-0.2,0.7-0.6,0.6c-0.8-0.1-0.9,0.4-0.8,1c0,2.6,0,5.3,0,7.9
		c0,0.6,0.1,1.3,0.2,1.9c0.3,1.5,1.5,2.4,3,2.5c1.7,0.1,3-0.8,3.3-2.3C64,53.2,63.6,51.3,63.7,49.8z"/>
	<path class="st0" d="M170.2,49.7c0-1.8,0-3.2,0-4.7c0-0.6-0.1-1-0.8-1c-0.5,0-0.7-0.2-0.7-0.7c0-0.5,0.4-0.6,0.7-0.6
		c1.1,0,2.2,0,3.3,0c0.4,0,0.7,0.1,0.7,0.6c0,0.5-0.2,0.7-0.7,0.7c-0.7,0-0.8,0.4-0.8,0.9c0,2.3,0,4.7,0,7c0,0.9,0,1.8-0.2,2.6
		c-0.5,2.9-2.7,4.2-5.7,4c-3.9-0.2-5-2.5-5.1-5.7c-0.1-2.6,0-5.2,0-7.8c0-0.7,0-1.2-0.9-1.2c-0.4,0-0.6-0.3-0.6-0.6
		c0-0.4,0.2-0.6,0.6-0.6c1.4,0,2.8,0,4.2,0c0.4,0,0.5,0.2,0.5,0.6c0,0.4-0.1,0.7-0.5,0.7c-0.9,0-0.9,0.5-0.9,1.2c0,2.6,0,5.3,0,7.9
		c0,0.5,0.1,1.1,0.2,1.6c0.3,1.6,1.5,2.6,3.1,2.6c1.8,0,2.9-0.8,3.3-2.4C170.4,53.1,170.1,51.2,170.2,49.7z"/>
	<path class="st0" d="M105.4,58.3c-1.5,0-2.9,0-4.4,0c-0.5,0-0.9,0-0.9-0.7c0-0.6,0.4-0.7,0.9-0.6c0.6,0,0.7-0.2,0.7-0.8
		c0-3.8,0-7.6,0-11.4c0-0.6-0.2-0.8-0.8-0.8c-0.5,0-0.8-0.1-0.8-0.7c0-0.6,0.5-0.6,0.9-0.6c2.9,0,5.7,0,8.6,0c0.7,0,0.9,0.3,0.9,0.9
		c0,0.4,0,0.7,0,1.1c0,0.4-0.1,0.8-0.6,0.8c-0.5,0-0.8-0.1-0.8-0.7c0-0.7-0.3-0.8-0.9-0.8c-1.1,0-2.1,0-3.2,0
		c-0.6,0-0.8,0.2-0.8,0.8c0,1.3,0,2.6,0,4c0,0.5,0.2,0.8,0.7,0.8c0.6,0,1.1,0,1.7,0c0.5,0,0.9-0.1,0.9-0.8c0-0.4,0.3-0.5,0.7-0.5
		c0.4,0,0.6,0.2,0.6,0.6c0,0.9,0,1.8,0,2.7c0,0.3-0.2,0.5-0.6,0.6c-0.4,0-0.7-0.1-0.7-0.5c0-0.7-0.4-0.8-0.9-0.8
		c-2.9,0-2.4-0.4-2.5,2.4c0,0.9,0,1.8,0,2.7c0,0.6,0.3,0.9,0.9,0.8c1.2,0,2.5,0,3.7,0c0.6,0,0.8-0.2,0.8-0.8c0-0.5,0.1-0.9,0.7-0.9
		c0.6,0,0.6,0.5,0.6,0.9c0,2.5,0.3,2.2-2.1,2.2C107.6,58.3,106.5,58.3,105.4,58.3z"/>
	<path class="st0" d="M144.3,27.2c-0.2,0-0.4,0-0.5,0c-2.8,0-2.8,0-3.6,2.7c-0.2,0.5-0.1,0.7,0.5,0.6c0.4,0,0.8,0.1,0.7,0.6
		c0,0.5-0.4,0.6-0.7,0.6c-0.8,0-1.6,0-2.4,0c-0.3,0-0.6-0.1-0.7-0.5c0-0.4,0-0.7,0.5-0.7c0.6,0,0.6-0.5,0.8-0.9
		c1.7-4.2,3.3-8.5,5-12.7c0.1-0.4,0.2-0.8,0.6-1c0.6-0.3,1.2,0,1.5,0.8c1.7,4.3,3.3,8.5,5,12.8c0.2,0.4,0.3,0.9,0.9,1
		c0.4,0,0.4,0.4,0.3,0.6c0,0.3-0.2,0.5-0.5,0.5c-1.3,0-2.5,0-3.8,0c-0.4,0-0.5-0.2-0.5-0.6c0-0.4,0.2-0.6,0.6-0.6
		c0.7,0,0.7-0.2,0.5-0.8c-1-2.6-0.9-2.6-3.7-2.6C144.5,27.2,144.4,27.2,144.3,27.2z M144.2,19.5c-0.8,2.1-1.6,4-2.3,5.9
		c-0.2,0.4,0,0.6,0.4,0.6c1.2,0,2.4,0,3.6,0c0.5,0,0.8-0.2,0.5-0.7C145.8,23.4,145,21.5,144.2,19.5z"/>
	<path class="st0" d="M196,53.6c-0.8,0-1.6,0-2.3,0c-0.5,0-0.8,0.2-0.9,0.6c-0.2,0.7-0.5,1.3-0.8,2c-0.2,0.4-0.1,0.7,0.4,0.7
		c0.5,0,0.8,0.1,0.8,0.7c0,0.5-0.3,0.7-0.8,0.7c-0.8,0-1.6,0-2.3,0c-0.3,0-0.7-0.1-0.7-0.5c0-0.4,0-0.7,0.5-0.8
		c0.5-0.1,0.6-0.5,0.7-0.8c1.6-4.2,3.3-8.3,4.9-12.5c0.2-0.6,0.3-1.1,1.2-1.1c0.8,0,0.9,0.6,1.1,1.1c1.6,4.1,3.3,8.3,4.9,12.4
		c0.2,0.4,0.3,0.9,0.9,1c0.4,0,0.4,0.4,0.4,0.7c0,0.3-0.2,0.5-0.5,0.5c-1.3,0-2.5,0-3.8,0c-0.4,0-0.5-0.3-0.5-0.6
		c0-0.4,0.1-0.7,0.6-0.6c0.7,0,0.6-0.3,0.5-0.8c-0.9-2.6-0.9-2.6-3.6-2.6C196.3,53.6,196.1,53.6,196,53.6z M196,46.1
		c-0.3,0.4-2.4,5.5-2.4,5.8c-0.1,0.5,0.2,0.5,0.5,0.5c1.2,0,2.5,0,3.7,0c0.6,0,0.6-0.2,0.4-0.7c-0.3-0.8-0.6-1.6-1-2.4
		C196.9,48.3,196.5,47.2,196,46.1z"/>
	<path class="st0" d="M113.5,16.3c1,0.1,2.3-0.1,3.5,0.1c1.9,0.4,3,1.4,3.3,3.1c0.3,2-0.5,4-2,4.9c-1.1,0.7-2.4,1-3.7,1
		c-0.9,0-1.2,0.3-1.1,1.2c0.1,1,0,2,0,3.1c0,0.6,0.1,0.9,0.8,0.9c0.4,0,0.6,0.1,0.6,0.6c0,0.5-0.3,0.6-0.7,0.6c-1.4,0-2.7,0-4.1,0
		c-0.4,0-0.7-0.2-0.7-0.6c0-0.4,0.3-0.6,0.7-0.5c0.8,0.1,0.9-0.3,0.9-1c0-3.7,0-7.4,0-11.1c0-0.7-0.1-1-0.9-1
		c-0.4,0-0.7-0.1-0.7-0.6c0-0.5,0.3-0.6,0.7-0.6C111.2,16.3,112.2,16.3,113.5,16.3z M113.4,20.8c0,0.9,0,1.7,0,2.6
		c0,0.4,0.1,0.7,0.6,0.7c1.9,0.3,3.5-0.9,3.7-2.8c0.1-0.5,0-1.1,0-1.6c0-1-0.6-1.6-1.5-1.9c-0.7-0.2-1.4-0.2-2-0.3
		c-0.6-0.1-0.7,0.2-0.7,0.7C113.4,19.1,113.4,19.9,113.4,20.8z"/>
	<path class="st0" d="M174.8,31.8c-1.5,0-3,0-4.5,0c-0.4,0-0.8,0-0.8-0.6c0-0.6,0.3-0.7,0.7-0.6c0.6,0,0.7-0.3,0.7-0.8
		c0-3.9,0-7.7,0-11.6c0-0.5-0.2-0.8-0.7-0.8c-0.5,0-0.8-0.1-0.7-0.7c0-0.5,0.4-0.5,0.8-0.5c2.9,0,5.8,0,8.7,0c0.5,0,0.8,0.2,0.8,0.7
		c0,0.5,0,1,0,1.4c0,0.4-0.2,0.6-0.6,0.6c-0.4,0-0.8-0.1-0.7-0.6c0.1-0.9-0.4-1-1.1-1c-1,0-2,0-3,0c-0.6,0-0.9,0.2-0.9,0.8
		c0,1.4,0,2.7,0,4.1c0,0.7,0.3,0.8,0.9,0.8c0.5,0,1,0,1.5,0c0.6,0,1-0.1,1-0.8c0-0.4,0.3-0.5,0.7-0.5c0.4,0,0.6,0.3,0.6,0.6
		c0,0.8,0,1.6,0,2.4c0,0.4-0.1,0.6-0.6,0.6c-0.4,0-0.7-0.1-0.7-0.5c0-0.7-0.5-0.8-1-0.8c-2.4,0-2.4,0-2.4,2.4c0,1,0,1.9,0,2.9
		c0,0.6,0.2,0.8,0.8,0.8c1.2,0,2.5,0,3.7,0c0.6,0,0.9-0.2,0.9-0.8c0-0.5,0.2-0.8,0.8-0.8c0.6,0,0.7,0.4,0.7,0.9c0,2.6,0.1,2.1-2,2.1
		C177,31.8,175.9,31.8,174.8,31.8z"/>
	<path class="st0" d="M102.6,31.8c-1.4,0-2.9,0-4.3,0c-0.4,0-0.9,0.1-1-0.5c-0.1-0.6,0.4-0.7,0.8-0.7c0.5,0,0.6-0.3,0.6-0.7
		c0-3.9,0-7.8,0-11.6c0-0.5-0.2-0.8-0.8-0.7c-0.4,0-0.7-0.1-0.7-0.6c0-0.5,0.4-0.6,0.7-0.6c2.9,0,5.8,0,8.8,0c0.6,0,0.8,0.3,0.8,0.8
		c0,0.4,0,0.8,0,1.3c0,0.5-0.2,0.7-0.7,0.7c-0.5,0-0.8-0.2-0.7-0.7c0-0.7-0.3-0.9-1-0.9c-1.1,0-2.2,0-3.3,0c-0.6,0-0.8,0.2-0.8,0.8
		c0,1.4,0,2.7,0,4.1c0,0.6,0.2,0.9,0.9,0.8c0.5,0,1.1,0,1.6,0c0.6,0,1.1,0,1.1-0.8c0-0.4,0.3-0.5,0.6-0.5c0.3,0,0.5,0.2,0.5,0.5
		c0,0.9,0,1.8,0,2.7c0,0.3-0.2,0.5-0.5,0.5c-0.3,0-0.7,0-0.6-0.4c0-0.8-0.5-0.8-1.1-0.8c-2.5,0-2.5,0-2.5,2.4c0,1,0,1.9,0,2.9
		c0,0.5,0.2,0.7,0.7,0.7c1.4,0,2.7,0,4.1,0c0.5,0,0.8-0.2,0.7-0.8c0-0.5,0-0.9,0.7-0.9c0.7,0,0.7,0.5,0.7,0.9c0,2.4,0.2,2-2,2.1
		C104.9,31.8,103.8,31.8,102.6,31.8z"/>
	<path class="st0" d="M205.4,56.5c0-0.4,0-0.8,0-1.1c0-0.4,0.2-0.6,0.6-0.6c0.4,0,0.7,0.1,0.8,0.6c0.2,1.1,1,1.8,2.4,2
		c1.3,0.2,2.5-0.4,3-1.4c0.5-1,0.4-2.3-0.4-3.1c-0.4-0.5-1-0.8-1.6-1.2c-0.9-0.6-1.9-1.1-2.8-1.7c-1.7-1.2-2.3-2.8-1.8-4.6
		c0.5-1.7,2.1-2.8,4-2.9c1.2-0.1,2.5,0.1,3.7,0.4c0.6,0.1,0.9,0.5,0.8,1.1c0,0.4,0,0.8,0,1.3c0,0.5-0.2,0.7-0.7,0.7
		c-0.5,0-0.8-0.1-0.8-0.6c0-1.2-0.9-1.4-1.8-1.5c-1-0.2-2-0.1-2.6,0.9c-0.7,1.1-0.5,2.3,0.5,3.3c0.6,0.5,1.3,0.9,2,1.3
		c0.7,0.4,1.4,0.8,2.1,1.3c1.6,1.1,2.3,2.5,1.9,4.4c-0.4,2-1.8,3-3.6,3.5c-1.7,0.4-3.4,0.1-5.1-0.3C205,57.8,205.5,57,205.4,56.5z"
		/>
	<path class="st0" d="M75.5,32.1c-1.1,0.1-2.2-0.2-3.3-0.4c-0.5-0.1-0.8-0.4-0.8-0.9c0-0.6,0-1.2,0-1.8c0-0.4,0.2-0.6,0.6-0.6
		c0.4,0,0.7,0,0.8,0.5c0.3,1.3,1.4,2,2.8,2.1c1.2,0.1,2.3-0.7,2.7-1.7c0.5-1.2,0.1-2.4-1-3.3c-0.7-0.5-1.5-1-2.3-1.4
		c-0.7-0.4-1.5-0.9-2.1-1.5c-1.3-1.2-1.6-2.7-1.1-4.3c0.5-1.6,1.8-2.5,3.5-2.7c1.4-0.2,2.7,0,4,0.3c0.6,0.2,0.9,0.5,0.9,1.1
		c0,0.4,0,0.9,0,1.4c0,0.4-0.2,0.7-0.6,0.7c-0.4,0-0.7-0.1-0.8-0.6c-0.3-1.2-1-1.7-2.4-1.8c-0.9-0.1-1.8,0.5-2.2,1.3
		c-0.5,1-0.2,2.1,0.6,2.9c0.6,0.6,1.3,0.9,1.9,1.3c0.9,0.5,1.7,1.1,2.6,1.7c2.6,1.9,2,6-1.1,7.3C77.4,32.1,76.4,32.2,75.5,32.1z"/>
	<path class="st0" d="M132.8,42.7c1.9,0,3.8,0,5.7,0c0.7,0,1.1,0.2,1,1c0,0.5,0,1,0,1.5c0,0.5-0.2,0.6-0.7,0.6
		c-0.4,0-0.7-0.2-0.7-0.6c0.1-0.9-0.4-1.1-1.2-1.1c-0.7,0-1.4,0-2.2,0c-0.5,0-0.8,0.2-0.8,0.8c0,3.8,0,7.5,0,11.3
		c0,0.5,0.2,0.8,0.8,0.7c0.5,0,0.7,0.2,0.7,0.7c0,0.6-0.4,0.6-0.8,0.6c-1.3,0-2.6,0-3.9,0c-0.4,0-0.8-0.1-0.8-0.6
		c0-0.6,0.3-0.7,0.8-0.7c0.7,0.1,0.8-0.3,0.8-0.9c0-3.7,0-7.3,0-11c0-0.7-0.2-0.9-0.9-0.9c-0.8,0-1.6,0-2.4,0c-0.6,0-1,0.2-0.9,0.9
		c0,0.5-0.1,0.8-0.7,0.8c-0.6,0-0.7-0.4-0.7-0.8c0-2.7-0.3-2.3,2.2-2.3C129.8,42.7,131.3,42.7,132.8,42.7z"/>
	<path class="st0" d="M175.3,49.7c0.1-1.9,0.5-3.6,1.8-5.1c1.7-1.9,3.8-2.4,6.2-2.3c1.2,0.1,2.4,0.3,3.6,0.6c0.6,0.1,0.8,0.4,0.8,1
		c0,0.5,0,1,0,1.4c0,0.5-0.2,0.7-0.7,0.8c-0.5,0-0.8-0.2-0.8-0.7c0-0.8-0.4-1.1-1.1-1.4c-2.8-1.1-5.4-0.1-6.6,2.6
		c-0.9,2.2-1,4.5-0.3,6.7c1.1,3.1,3.8,4.5,7,3.6c0.5-0.2,1.1-0.4,1.6-0.6c0.3-0.1,0.6-0.6,0.8-0.2c0.2,0.4,0.2,0.9-0.3,1.3
		c0,0-0.1,0.1-0.2,0.1c-2.7,1.5-7.6,1.6-10.1-1.4C175.6,54.3,175.2,52.1,175.3,49.7z"/>
	<path class="st0" d="M89.2,16.3c1.9,0,3.8,0,5.7,0c0.7,0,1.1,0.2,1,1c0,0.5,0,1,0,1.5c0,0.5-0.3,0.6-0.7,0.6
		c-0.5,0-0.7-0.2-0.6-0.7c0.1-1-0.3-1.2-1.2-1.1c-0.7,0.1-1.5,0-2.3,0c-0.5,0-0.8,0.1-0.8,0.7c0,3.8,0,7.6,0,11.5
		c0,0.6,0.2,0.7,0.8,0.7c0.4,0,0.8,0,0.8,0.6c0,0.6-0.5,0.6-0.9,0.6c-1.3,0-2.5,0-3.8,0c-0.4,0-0.8-0.1-0.8-0.6
		c0-0.5,0.3-0.6,0.7-0.6c0.6,0,0.7-0.3,0.7-0.8c0-3.7,0-7.5,0-11.2c0-0.6-0.2-0.9-0.8-0.9c-0.8,0-1.6,0-2.4,0
		c-0.6,0-0.9,0.2-0.8,0.8c0,0.5,0,0.9-0.7,0.9c-0.7,0-0.7-0.5-0.7-1c0-2.5-0.3-2.1,2.1-2.2C86.1,16.3,87.7,16.3,89.2,16.3z"/>
	<path class="st0" d="M152.9,58.3c-1.5,0-3,0-4.5,0c-0.4,0-0.9,0-0.9-0.6c0-0.6,0.4-0.7,0.8-0.7c0.6,0,0.8-0.3,0.8-0.8
		c0-3.8,0-7.5,0-11.3c0-0.6-0.2-0.9-0.8-0.8c-0.5,0-0.8-0.1-0.8-0.7c0-0.6,0.4-0.6,0.9-0.6c1.2,0,2.4,0,3.6,0c0.4,0,0.8,0,0.8,0.6
		c0,0.5-0.2,0.7-0.7,0.7c-0.5,0-0.6,0.3-0.6,0.8c0,3.7,0,7.5,0,11.2c0,0.6,0.3,0.8,0.8,0.8c1.2,0,2.5,0,3.7,0c0.7,0,0.9-0.3,0.9-0.9
		c0-0.6,0.1-1,0.9-0.9c0.4,0,0.7,0.2,0.7,0.7c0,0.1,0,0.1,0,0.2c0,2.9,0.4,2.4-2.4,2.5C155.1,58.3,154,58.3,152.9,58.3z"/>
	<path class="st0" d="M127,78.5c1,0,1.9-0.1,2.9,0.2c1.2,0.3,2,1,2.2,2.2c0.2,1.3-0.2,2.4-1.4,3.1c-0.7,0.4-0.7,0.7-0.3,1.3
		c0.6,0.8,1.1,1.7,1.7,2.6c0.2,0.4,0.5,0.8,1,0.8c0.3,0,0.4,0.2,0.4,0.5c0,0.3-0.2,0.4-0.5,0.4c-1.4,0.3-1.9,0-2.7-1.2
		c-0.6-1-1.2-2-1.9-3c-0.2-0.3-0.4-0.6-0.9-0.5c-0.5,0.1-0.4,0.5-0.4,0.9c0,0.6,0,1.2,0,1.8c0,0.5,0,1,0.7,1.1
		c0.2,0,0.3,0.2,0.3,0.5c0,0.3-0.2,0.4-0.5,0.4c-1,0-2,0-3,0c-0.2,0-0.4-0.1-0.4-0.4c0-0.3,0-0.5,0.3-0.5c0.7-0.1,0.7-0.5,0.7-1
		c0-2.4,0-4.8,0-7.2c0-0.5,0-0.9-0.7-1c-0.3,0-0.4-0.2-0.4-0.5c0-0.3,0.2-0.4,0.5-0.4C125.5,78.5,126.3,78.5,127,78.5z M127.2,81.6
		C127.2,81.6,127.2,81.6,127.2,81.6c0,0.6,0,1.1,0,1.7c0,0.4,0.2,0.5,0.6,0.5c1.7,0,3-1.8,2.3-3.4c-0.3-0.7-1.4-1.2-2.3-1
		c-0.9,0.2-0.4,0.9-0.5,1.4C127.1,81.1,127.2,81.4,127.2,81.6z"/>
	<path class="st0" d="M114.1,86.3c-0.2,0-0.5,0-0.7,0c-1.4,0-1.9,0.4-2.1,1.8c-0.1,0.3,0,0.4,0.3,0.5c0.3,0.1,0.4,0.3,0.4,0.6
		c0,0.3-0.3,0.4-0.5,0.4c-0.5,0-1.1,0-1.6,0c-0.3,0-0.5-0.1-0.5-0.4c-0.1-0.3,0-0.5,0.3-0.6c0.5-0.2,0.6-0.6,0.7-1
		c1.1-2.8,2.2-5.7,3.3-8.5c0.2-0.4,0.3-0.9,0.9-0.9c0.6,0,0.7,0.5,0.9,0.9c1.1,2.8,2.2,5.6,3.3,8.4c0.2,0.4,0.3,0.9,0.8,1.1
		c0.2,0.1,0.3,0.3,0.2,0.5c0,0.2-0.2,0.4-0.5,0.4c-0.8,0-1.6,0-2.4,0c-0.3,0-0.5-0.1-0.5-0.4c0-0.3,0-0.5,0.3-0.6
		c0.5-0.1,0.4-0.4,0.3-0.7C116.4,86.3,116.4,86.3,114.1,86.3z M114.3,81.2c-0.1,0-0.2,0-0.3,0c-0.5,1.2-1,2.5-1.5,3.7
		c-0.1,0.4,0.2,0.4,0.4,0.4c0.8,0,1.6,0,2.3,0c0.3,0,0.5,0,0.4-0.4C115.2,83.7,114.7,82.4,114.3,81.2z"/>
	<path class="st0" d="M100.1,78.5c0.9,0,1.8-0.1,2.7,0.1c1.4,0.3,2.2,1.1,2.3,2.4c0.1,1.4-0.2,2.6-1.5,3.3c-0.8,0.5-1.7,0.7-2.7,0.7
		c-0.7,0-0.9,0.3-0.9,0.9c0,0.5,0,1,0,1.5c0,0.5-0.1,1.1,0.7,1.2c0.2,0,0.3,0.2,0.3,0.5c0,0.3-0.2,0.4-0.5,0.4c-1,0-1.9,0-2.9,0
		c-0.3,0-0.5-0.1-0.5-0.4c0-0.3,0.1-0.5,0.4-0.5c0.7,0,0.6-0.5,0.6-1c0-2.4,0-4.9,0-7.3c0-0.5,0-0.9-0.7-0.9c-0.3,0-0.4-0.2-0.4-0.5
		c0-0.3,0.2-0.4,0.5-0.4C98.6,78.5,99.3,78.5,100.1,78.5z M103.2,81.5c0-1.5-1.3-2.5-2.8-2c-0.3,0.1-0.4,0.4-0.4,0.6
		c0,1.1,0,2.2,0,3.3c0,0.5,0.2,0.6,0.7,0.6C102.3,84.1,103.2,83.2,103.2,81.5z"/>
	<path class="st0" d="M147.4,88.4c0-0.3,0-0.5,0-0.7c0-0.3,0.1-0.6,0.5-0.6c0.4,0,0.5,0.2,0.6,0.5c0.2,0.8,1,1.4,2,1.3
		c0.8,0,1.6-0.4,1.9-1.2c0.3-0.8,0.2-1.6-0.6-2.2c-0.8-0.6-1.8-1.1-2.6-1.7c-0.8-0.6-1.5-1.2-1.6-2.3c-0.1-2,1.3-3.4,3.4-3.3
		c0.5,0,1,0.1,1.4,0.1c1.4,0.2,1.6,0.6,1.4,1.9c0,0.3-0.1,0.5-0.5,0.6c-0.3,0-0.6-0.1-0.6-0.5c-0.1-1.1-0.9-1.1-1.6-1.2
		c-0.7-0.1-1.2,0.3-1.6,1c-0.3,0.7-0.1,1.3,0.4,1.9c0.5,0.5,1.1,0.8,1.6,1.1c0.6,0.4,1.1,0.7,1.6,1.1c1.8,1.5,1.4,4.3-0.8,5.2
		c-1.5,0.6-3,0.4-4.4,0C147.2,89.3,147.4,88.7,147.4,88.4z"/>
	<path class="st0" d="M140.2,89.6c-0.5,0-0.9,0-1.4,0c-0.3,0-0.6,0-0.6-0.4c0-0.3,0.1-0.5,0.4-0.6c0.5-0.1,0.6-0.4,0.6-0.8
		c0-2.5,0-5,0-7.5c0-0.5-0.1-0.8-0.7-0.9c-0.3,0-0.4-0.2-0.4-0.5c0-0.3,0.2-0.4,0.5-0.4c1,0,1.9,0,2.9,0c0.3,0,0.5,0.1,0.5,0.4
		c0.1,0.3-0.1,0.5-0.4,0.6c-0.5,0-0.6,0.4-0.6,0.8c0,2.5,0,5.1,0,7.6c0,0.4,0.1,0.8,0.6,0.8c0.3,0,0.5,0.2,0.4,0.6
		c0,0.4-0.3,0.4-0.6,0.4C141.1,89.6,140.7,89.6,140.2,89.6z"/>
</g>
</svg>
