<svg id="Capa_1" xmlns="http://www.w3.org/2000/svg" version="1.1" viewBox="0 0 250 100">
  <!-- Generator: Adobe Illustrator 29.5.1, SVG Export Plug-In . SVG Version: 2.1.0 Build 141)  -->
  <defs>
    <style>
      .st0 {
        fill: #777;
      }
    </style>
  </defs>
  <sodipodi:namedview id="base" bordercolor="#666666" borderopacity="1.0" fit-margin-bottom="0.3" fit-margin-left="0.3" fit-margin-right="0.3" fit-margin-top="0.3" pagecolor="#00ffff" showgrid="false" units="px"/>
  <g id="layer1">
    <g id="g265">
      <path id="path243" class="st0" d="M23.02,56.48v2.93c0,1.59.14,2.17.32,2.55.52,1.13,1.45,1.25,2.32,1.25.55,0,1.48-.06,2.06-.64.46-.55.52-1.59.52-2.17v-2.15c0-1.3-.46-2.55-1.68-3.68l-5.45-5.02c-.84-.78-1.59-1.54-2.17-2.55-.81-1.36-1.07-2.73-1.07-4.2v-2.61c0-1.54.75-3.07,1.77-4.06,1.86-1.71,4.93-1.86,6.09-1.86,1.86,0,4.09.29,5.83,1.94,1.71,1.68,1.86,3.71,1.86,4.99v3.31h-5.31v-2.7c0-.75.06-1.48-.61-2.23-.46-.52-1.07-.75-1.83-.75-.64,0-1.48.17-1.94.64-.52.52-.55,1.13-.55,1.71v1.48c0,1.16.32,1.77,1.3,2.67l5.45,4.99c1.77,1.62,3.62,3.45,3.62,6.9v3.71c0,1.54-.17,3.36-1.86,4.99-1.71,1.68-3.77,1.86-5.71,1.86-1.71,0-3.68-.29-5.45-1.48-2.44-1.65-2.81-4.12-2.81-5.74v-4.06h5.31Z"/>
      <path id="path245" class="st0" d="M41.14,67.33v-28.01h-5.74v-4.58h16.67v4.55h-5.63v28.01h-5.31v.03Z"/>
      <path id="path247" class="st0" d="M54.86,34.73h13.6v4.55h-8.29v7.83h6.44v4.55h-6.44v11.08h8.99v4.55h-14.3v-32.57Z"/>
      <path id="path249" class="st0" d="M76.09,67.33l-5.36-32.6h5.6l2.93,22.53,2.93-22.53h5.6l-5.36,32.6h-6.32Z"/>
      <path id="path251" class="st0" d="M90.53,34.73h13.6v4.55h-8.29v7.83h6.44v4.55h-6.44v11.08h8.99v4.55h-14.3v-32.57Z"/>
      <path id="path253" class="st0" d="M127.76,67.33l-3.83-24.53h-.23l.29,4.32v20.21h-5.31v-32.6h8.38l3.1,21.05h.17l3.13-21.05h8.38v32.6h-5.31v-20.21l.29-4.32h-.23l-3.83,24.53h-5.02Z"/>
      <path id="path255" class="st0" d="M157.66,67.33l-.93-6h-5.68l-.93,6h-5.48l5.97-32.6h6.52l6,32.6h-5.48ZM156.12,56.77l-2.17-12.99h-.09l-2.17,12.99h4.44Z"/>
      <path id="path257" class="st0" d="M165.9,34.73h10c1.01,0,2.9.09,4.44,1.59,1.77,1.71,1.77,3.83,1.77,5.77v17.4c0,1.91-.14,4.47-2.15,6.29-1.48,1.39-3.25,1.54-4.55,1.54h-9.51v-32.6ZM173.81,62.92c1.3,0,2.15-.61,2.46-1.13.46-.64.52-2.17.52-2.93v-15.92c0-.84.06-1.94-.55-2.75-.61-.78-1.39-.9-2.17-.9h-2.84v23.61h2.58v.03Z"/>
      <path id="path259" class="st0" d="M185.21,34.73h10c1.01,0,2.9.09,4.44,1.59,1.77,1.71,1.77,3.83,1.77,5.77v17.4c0,1.91-.14,4.47-2.15,6.29-1.48,1.39-3.25,1.54-4.55,1.54h-9.48v-32.6h-.03ZM193.13,62.92c1.3,0,2.15-.61,2.46-1.13.46-.64.52-2.17.52-2.93v-15.92c0-.84.06-1.94-.55-2.75-.61-.78-1.39-.9-2.17-.9h-2.84v23.61h2.58v.03Z"/>
      <path id="path261" class="st0" d="M204.52,34.73h13.6v4.55h-8.29v7.83h6.44v4.55h-6.44v11.08h8.99v4.55h-14.3v-32.57Z"/>
      <path id="path263" class="st0" d="M232.42,67.33l-5.54-19.23-.17.06.23,3.68v15.51h-5.31v-32.62h5.86l5.45,18.39h.14l-.29-3.45v-14.93h5.31v32.6h-5.68Z"/>
    </g>
  </g>
</svg>