<?xml version="1.0" encoding="UTF-8"?>
<svg xmlns="http://www.w3.org/2000/svg" version="1.1" viewBox="0 0 250 100">
  <defs>
    <style>
      .cls-1 {
        fill: none;
      }

      .cls-2 {
        fill: #777;
      }
    </style>
  </defs>
  <!-- Generator: Adobe Illustrator 28.6.0, SVG Export Plug-In . SVG Version: 1.2.0 Build 709)  -->
  <g>
    <g id="Capa_1">
      <rect class="cls-1" x="-21.9" y="-98" width="352" height="40"/>
      <g>
        <path class="cls-2" d="M123.1,32.4c0,3.9,0,7.8,0,11.6,0,1,.3,1.6,1.4,1.6,5.8,0,11.7,0,17.5,0,.9,0,1.4-.4,1.3-1.4,0-1.2,0-2.4,0-3.7,0-1.3-.4-1.7-1.7-1.7-3.2,0-6.5,0-9.7,0-1.4,0-1.7-.4-1.8-1.7,0-1.3.7-1.5,1.8-1.5,2.7,0,5.5,0,8.2,0,1.2,0,1.7-.4,1.6-1.6,0-1.2,0-2.4,0-3.5,0-1.3-.5-1.7-1.7-1.7-2.7,0-5.4,0-8.1,0-1.2,0-1.8-.3-1.8-1.6,0-1.3.5-1.7,1.7-1.6,3.3,0,6.5,0,9.8,0,1.1,0,1.6-.4,1.6-1.6,0-1.2,0-2.4,0-3.5,0-1.2-.5-1.6-1.6-1.6-5.7,0-11.3,0-17,0-1.2,0-1.6.4-1.6,1.6,0,3.9,0,7.8,0,11.6Z"/>
        <path class="cls-2" d="M200.5,25.9l.2.4c-.3.4-.6.9-.9,1.3-2.8,3.1-5.4,6.3-8.4,9.2-2.1,2.1-3,4.4-2.6,7.2,0,0,0,0,0,.1-.1,1.1.4,1.5,1.4,1.5,6.5,0,13,0,19.5,0,.9,0,1.4-.4,1.4-1.3,0-1.2,0-2.4,0-3.7,0-1.2-.4-1.7-1.7-1.7-2.9,0-5.8,0-8.8,0-.4,0-.9-.2-1.3-.3.2-.4.4-.9.6-1.2,2.8-3.1,5.4-6.4,8.4-9.3,2.1-2.1,3.1-4.3,2.7-7.2-.2-1.5-.2-1.7-1.8-1.7-2.7,0-5.5,0-8.2,0-3.5,0-7.1,0-10.6,0-1.2,0-1.8.3-1.7,1.6,0,1.1,0,2.3,0,3.4,0,1.2.4,1.7,1.7,1.7,2.4,0,4.7,0,7.1,0,1,0,2,0,3,0Z"/>
        <path class="cls-2" d="M32.9,46.2c1.3-.1,2.5-.2,3.8-.4,6.1-1.2,7.5-6,6.4-10.3-.8-3.1-3.3-4.7-6.3-5.5-2.1-.6-4.3-1-6.4-1.7-.6-.2-1.4-.9-1.4-1.4,0-1,1.1-1.1,1.9-1.2.1,0,.3,0,.4,0,2.3,0,4.5.6,6.4,1.8,1,.6,1.7.5,2.3-.5.6-1,1.3-1.9,2-2.8.8-1.2.8-1.6-.5-2.4-4.1-2.8-8.5-3.6-13.3-2.4-4.8,1.1-7.2,4.9-6.2,9.7.6,2.9,2.6,4.6,5.3,5.5,2.4.7,4.9,1.1,7.4,1.7.8.2,1.8.4,1.7,1.4,0,1.1-.9,1.4-1.8,1.6-.3,0-.6,0-.9,0-2.7.2-4.9-.9-7.2-2.1-1.5-.9-1.7-.8-2.7.6-.6.8-1.2,1.6-1.7,2.5-.8,1.2-.8,1.6.4,2.5,3.2,2.3,6.7,3.4,10.6,3.5Z"/>
        <path class="cls-2" d="M54.1,28.1c0,2.3,0,4.6,0,6.9,0,2.6.7,4.9,2.3,6.9,2.8,3.4,6.5,4.3,10.7,4,5.4-.3,9.5-3.9,10-9.3.4-5.4.2-10.9.3-16.3,0-.9-.6-1.2-1.4-1.2-1.3,0-2.6,0-3.9,0-1.7,0-1.9.2-1.9,1.9,0,4.5,0,8.9,0,13.4,0,.9-.2,1.9-.6,2.8-.8,1.7-2.9,2.6-4.7,2.2-2.2-.5-3.4-2.1-3.4-4.3,0-4.7,0-9.3,0-14,0-1.6-.2-1.9-1.8-1.9-1.3,0-2.5,0-3.8,0-1.3,0-1.7.5-1.6,1.7,0,2.4,0,4.8,0,7.2Z"/>
        <path class="cls-2" d="M68,62.9c0,.6,0,1,0,1.5,0,3.5,0,7,.1,10.5.2,4.1,3.1,6.5,7.3,6.4,3.6-.1,6.3-3,6.4-6.8,0-3.6,0-7.2,0-10.9,0-.2,0-.4-.1-.7-.4,0-.7,0-1.2,0,0,.5,0,.9,0,1.4,0,3.3,0,6.6,0,9.8,0,1.1-.3,2.2-.7,3.1-1.1,2.2-3.6,3.3-6.1,2.7-2.6-.6-4.2-2.6-4.3-5.5,0-3.4,0-6.7,0-10.1,0-.5,0-.9,0-1.4h-1.3Z"/>
        <path class="cls-2" d="M154.7,63.9h9.5c0-.1.1-.2.2-.3-.2-.2-.4-.7-.7-.7-3.4,0-6.8,0-10.2,0v18.1c3.4,0,6.8,0,10.1,0,.2,0,.5-.5.7-.8,0-.1-.2-.2-.3-.4h-9.3v-7.5c.6,0,1,0,1.5,0,1.9,0,3.8,0,5.6,0,.8,0,.8,0,.6-1.1h-7.8v-7.3Z"/>
        <path class="cls-2" d="M180.6,65.2c.2,0,.3-.1.5-.2-.1-.4-.1-.9-.4-1.1-1.5-1.2-3.2-1.6-5-1.3-2.4.4-3.9,1.9-4.1,3.9-.3,2.6.6,3.9,3.3,4.9,1.1.4,2.2.7,3.2,1.1,1.9.7,2.6,1.8,2.6,3.4,0,1.9-1.1,3.3-3,3.8-2.1.6-3.9,0-5.5-1.2-.3-.2-.8-.2-1.2-.3.2.4.2.9.5,1.2,1.7,1.5,3.7,1.9,5.9,1.5,2.6-.5,4.3-2.4,4.5-4.9.2-2.5-.9-3.8-3.7-4.8-1.1-.4-2.2-.7-3.3-1.2-1.6-.7-2.3-1.9-2.1-3.3.2-1.5,1.1-2.6,2.7-3,2-.6,3.7.2,5.2,1.3Z"/>
        <path class="cls-2" d="M228.8,42.2c0-2-1.6-3.6-3.7-3.6-2,0-3.7,1.6-3.7,3.6,0,2.1,1.6,3.7,3.7,3.7,2.2,0,3.7-1.5,3.7-3.7Z"/>
        <path class="cls-2" d="M195.3,80.8v-16.9c1.9,0,3.7,0,5.5,0,.7,0,1.1-.1.7-1.1-4.4,0-8.8,0-13.3,0-.3,0-.5.5-.8.7,0,.1.2.2.3.4h6.2c0,.6,0,1.2,0,1.7,0,4.7,0,9.4,0,14.1,0,.7,0,1.5,1.3,1.1Z"/>
        <path class="cls-2" d="M155.9,32.4c0-3.9,0-7.9,0-11.8,0-.9.2-1.5,1.2-1.4,4.1,0,8.2-.1,12.3.1,3.9.2,6.6,2.5,7.7,6.2,1.2,3.9.5,7.5-2.7,10.2-1,.9-1.1,1.5-.2,2.5,1.6,1.9,3,3.8,4.5,5.8.2.3.3.8.5,1.1-.4.1-.8.4-1.2.4-1.8,0-3.7,0-5.5,0-1,0-1.7-.4-2.3-1.2-1.2-1.8-2.5-3.6-3.9-5.3-.4-.5-1.1-.9-1.7-1.1-1.2-.3-1.7.2-1.7,1.5,0,1.5,0,3.1,0,4.6,0,1.1-.5,1.5-1.5,1.5-1.4,0-2.7,0-4.1,0-1.1,0-1.6-.4-1.6-1.6,0-3.9,0-7.8,0-11.6ZM166.2,25.9c-.6,0-1.2,0-1.8,0-1,0-1.4.4-1.4,1.4,0,1,0,1.9,0,2.9,0,.8.4,1.3,1.3,1.3,1.2,0,2.3,0,3.5,0,1.6,0,2.6-1.2,2.6-2.8,0-1.6-1.1-2.7-2.7-2.7-.5,0-1,0-1.4,0Z"/>
        <path class="cls-2" d="M123.1,32.4c0-3.9,0-7.8,0-11.6,0-1.2.4-1.6,1.6-1.6,5.7,0,11.3,0,17,0,1.2,0,1.7.4,1.6,1.6,0,1.2,0,2.4,0,3.5,0,1.1-.5,1.6-1.6,1.6-3.3,0-6.5,0-9.8,0-1.2,0-1.7.4-1.7,1.6,0,1.3.6,1.6,1.8,1.6,2.7,0,5.4,0,8.1,0,1.2,0,1.8.4,1.7,1.7,0,1.2,0,2.4,0,3.5,0,1.2-.4,1.6-1.6,1.6-2.7,0-5.5,0-8.2,0-1.1,0-1.8.2-1.8,1.5,0,1.3.3,1.7,1.8,1.7,3.2,0,6.5,0,9.7,0,1.2,0,1.8.4,1.7,1.7,0,1.2,0,2.4,0,3.7,0,.9-.4,1.4-1.3,1.4-5.8,0-11.7,0-17.5,0-1.1,0-1.4-.6-1.4-1.6,0-3.9,0-7.8,0-11.6Z"/>
        <path class="cls-2" d="M200.5,25.9c-1,0-2,0-3,0-2.4,0-4.7,0-7.1,0-1.3,0-1.7-.5-1.7-1.7,0-1.1,0-2.3,0-3.4-.1-1.3.5-1.6,1.7-1.6,3.5,0,7.1,0,10.6,0,2.7,0,5.5,0,8.2,0,1.6,0,1.6.2,1.8,1.7.3,2.9-.6,5.1-2.7,7.2-3,3-5.6,6.2-8.4,9.3-.3.3-.4.8-.6,1.2.4.1.9.3,1.3.3,2.9,0,5.8,0,8.8,0,1.3,0,1.7.5,1.7,1.7,0,1.2,0,2.4,0,3.7,0,.9-.4,1.3-1.4,1.3-6.5,0-13,0-19.5,0-1,0-1.6-.4-1.4-1.5,0,0,0,0,0-.1-.4-2.9.5-5.1,2.6-7.2,3-2.9,5.6-6.1,8.4-9.2.4-.4.6-.9.9-1.3l-.2-.4Z"/>
        <path class="cls-2" d="M32.9,46.2c-3.9,0-7.5-1.2-10.6-3.5-1.2-.9-1.3-1.2-.4-2.5.6-.8,1.1-1.7,1.7-2.5,1-1.5,1.2-1.5,2.7-.6,2.2,1.3,4.5,2.3,7.2,2.1.3,0,.6,0,.9,0,.9-.2,1.8-.5,1.8-1.6,0-1.1-1-1.3-1.7-1.4-2.5-.6-5-.9-7.4-1.7-2.7-.8-4.7-2.5-5.3-5.5-1-4.8,1.5-8.6,6.2-9.7,4.8-1.1,9.3-.4,13.3,2.4,1.2.9,1.3,1.2.5,2.4-.6.9-1.4,1.8-2,2.8-.6,1-1.3,1.1-2.3.5-2-1.2-4.1-1.9-6.4-1.8-.1,0-.3,0-.4,0-.8.1-1.9.2-1.9,1.2,0,.5.8,1.2,1.4,1.4,2.1.6,4.3,1,6.4,1.7,2.9.8,5.5,2.4,6.3,5.5,1.1,4.4-.3,9.1-6.4,10.3-1.2.2-2.5.3-3.8.4Z"/>
        <path class="cls-2" d="M54.1,28.1c0-2.4,0-4.8,0-7.2,0-1.2.4-1.8,1.6-1.7,1.3,0,2.5,0,3.8,0,1.5,0,1.8.3,1.8,1.9,0,4.7,0,9.3,0,14,0,2.3,1.3,3.8,3.4,4.3,1.9.4,3.9-.4,4.7-2.2.4-.8.5-1.8.6-2.8,0-4.5,0-8.9,0-13.4,0-1.7.2-1.9,1.9-1.9,1.3,0,2.6,0,3.9,0,.8,0,1.4.3,1.4,1.2,0,5.5.2,10.9-.3,16.3-.4,5.4-4.5,9-10,9.3-4.2.3-7.9-.6-10.7-4-1.6-2-2.3-4.4-2.3-6.9,0-2.3,0-4.6,0-6.9Z"/>
        <path class="cls-2" d="M90.4,32.3c0-3.8,0-7.7,0-11.5,0-.9.1-1.6,1.2-1.6,4,0,7.9-.2,11.9.1,5.4.4,8.8,4.8,8.7,10.5-.1,4.8-3.9,8.4-9.2,8.6-1.3,0-2.5,0-3.8,0-1.1,0-1.6.4-1.6,1.6,0,1.4,0,2.7,0,4.1,0,1.1-.4,1.6-1.5,1.6-1.4,0-2.7,0-4.1,0-1.2,0-1.6-.4-1.6-1.6,0-3.9,0-7.8,0-11.8ZM100.7,25.9c-.5,0-1,0-1.4,0-1.2-.1-1.7.4-1.6,1.6,0,1,0,2,0,3,0,1,.5,1.4,1.4,1.4,1,0,2.1,0,3.1,0,1.9,0,2.9-1.1,2.9-3,0-1.7-1.2-3-2.9-3-.5,0-1,0-1.4,0Z"/>
        <path class="cls-2" d="M48.2,63c2.5,0,4.8-.2,7.2,0,2.4.3,3.7,1.5,3.9,3.4.3,2.4-.5,3.8-2.7,4.9-.1,0-.2.1-.4.3.3.1.6.3.9.3,2,.6,3,1.8,3.1,3.6.1,2.3-.7,3.9-2.6,4.7-.7.3-1.5.6-2.3.6-2.3,0-4.6,0-7,0v-17.9ZM49.4,72.2v7.8c1.4,0,2.7,0,4,0,.7,0,1.5,0,2.2-.2,2-.4,3.2-1.7,3.2-3.7,0-1.8-1-3.2-3-3.6-2.1-.3-4.2-.3-6.4-.4ZM49.4,71.2c1.9,0,3.7.1,5.4,0,1.9-.2,3.1-1.6,3.3-3.4.1-1.6-.7-3.3-2.3-3.5-2.1-.4-4.3-.3-6.4-.5v7.4Z"/>
        <path class="cls-2" d="M91,62.9c2.6,0,5.2-.2,7.7,0,4.2.3,7.2,3.5,7.4,7.9,0,1.3,0,2.6-.3,3.9-.7,3.3-3.3,5.8-6.7,6.1-2.7.3-5.4,0-8.2,0v-18ZM92.2,63.9v16c2,0,3.9,0,5.8,0,2.7,0,4.8-1.4,5.9-3.9,1.1-2.5,1.2-5.1.3-7.6-.9-2.6-2.8-4.1-5.5-4.4-2.1-.2-4.3,0-6.5,0Z"/>
        <path class="cls-2" d="M68,62.9h1.3c0,.5,0,1,0,1.4,0,3.4,0,6.7,0,10.1,0,2.9,1.7,4.9,4.3,5.5,2.5.6,5-.5,6.1-2.7.4-1,.7-2.1.7-3.1,0-3.3,0-6.5,0-9.8,0-.4,0-.9,0-1.4.4,0,.8,0,1.2,0,0,.2.1.4.1.7,0,3.6,0,7.2,0,10.9,0,3.8-2.8,6.7-6.4,6.8-4.2.2-7-2.2-7.3-6.4-.2-3.5,0-7-.1-10.5,0-.4,0-.9,0-1.5Z"/>
        <path class="cls-2" d="M127.6,80.8c-.9.4-1.3,0-1.6-.8-.5-1.3-1-2.5-1.5-3.8-.2-.7-.6-.9-1.3-.9-2.4,0-4.7,0-7.1,0-.7,0-1.1.3-1.3.9-.5,1.3-1,2.5-1.5,3.8-.3.8-.7,1.1-1.6.7.6-1.5,1.2-3,1.8-4.4,1.7-4.2,3.4-8.3,5.1-12.5.2-.4.7-1,1.1-1,.3,0,.9.5,1.1,1,2.2,5.3,4.4,10.6,6.6,16,.1.3.2.6.4,1ZM115.6,74.3h8.1c-1.3-3.3-2.6-6.6-4-10-1.4,3.5-2.7,6.7-4,10Z"/>
        <path class="cls-2" d="M154.7,63.9v7.3h7.8c.2,1.1.2,1.1-.6,1.1-1.9,0-3.8,0-5.6,0-.5,0-.9,0-1.5,0v7.5h9.3c0,.1.2.2.3.4-.2.3-.5.8-.7.8-3.4,0-6.7,0-10.1,0v-18.1c3.5,0,6.9,0,10.2,0,.2,0,.4.5.7.7,0,.1-.1.2-.2.3h-9.5Z"/>
        <path class="cls-2" d="M136,73.6v7.3c-.4,0-.8,0-1.2,0v-18.3c2.5.2,5,.2,7.5.6,2,.3,3.2,1.9,3.4,4,.3,2.4-.4,4.4-2.6,5.5-1,.5-2.2.7-3.4.9-1.2.1-2.3,0-3.7,0ZM136,63.9v8.8c1.7,0,3.4,0,5-.3,2.2-.4,3.6-2.3,3.5-4.4-.1-2.3-1.5-3.8-3.8-4-1.5-.1-3,0-4.6,0Z"/>
        <path class="cls-2" d="M180.6,65.2c-1.6-1.2-3.2-1.9-5.2-1.3-1.5.5-2.5,1.6-2.7,3-.2,1.4.5,2.5,2.1,3.3,1.1.5,2.2.8,3.3,1.2,2.8,1,3.9,2.4,3.7,4.8-.2,2.5-1.9,4.4-4.5,4.9-2.2.4-4.2,0-5.9-1.5-.3-.2-.3-.8-.5-1.2.4,0,.9,0,1.2.3,1.6,1.3,3.4,1.8,5.5,1.2,1.8-.5,2.9-2,3-3.8,0-1.6-.7-2.6-2.6-3.4-1.1-.4-2.1-.7-3.2-1.1-2.6-1-3.5-2.4-3.3-4.9.2-2,1.8-3.5,4.1-3.9,1.8-.3,3.6,0,5,1.3.2.2.2.7.4,1.1-.2,0-.3.1-.5.2Z"/>
        <path class="cls-2" d="M228.8,42.2c0,2.2-1.5,3.7-3.7,3.7-2.1,0-3.7-1.6-3.7-3.7,0-2,1.7-3.6,3.7-3.6,2.1,0,3.7,1.6,3.7,3.6Z"/>
        <path class="cls-2" d="M195.3,80.8c-1.4.4-1.3-.3-1.3-1.1,0-4.7,0-9.4,0-14.1,0-.5,0-1,0-1.7h-6.2c0-.1-.2-.2-.3-.4.3-.2.5-.7.8-.7,4.4,0,8.9,0,13.3,0,.4.9,0,1.1-.7,1.1-1.8,0-3.6,0-5.5,0v16.9Z"/>
      </g>
    </g>
  </g>
</svg>