<?xml version="1.0" encoding="utf-8"?>
<!-- Generator: $$$/GeneralStr/196=Adobe Illustrator 27.6.0, SVG Export Plug-In . SVG Version: 6.00 Build 0)  -->
<svg version="1.1" id="Capa_1" xmlns="http://www.w3.org/2000/svg" xmlns:xlink="http://www.w3.org/1999/xlink" x="0px" y="0px"
	 viewBox="0 0 250 100" style="enable-background:new 0 0 250 100;" xml:space="preserve">
<style type="text/css">
	.st0{fill:#777777;}
</style>
<g id="Layer_2">
</g>
<g>
	<path class="st0" d="M181.5,50.2c-3.2,0-6.3,0-9.5,0c-1.2,0-1.3-0.1-1.3-1.2c0-5.6,0-11.2,0-16.8c0-1.1,0.1-1.2,1.1-1.2
		c6.3,0,12.5,0,18.8,0c2.4,0,4.2,1.3,5.2,3.5c0.3,0.7,0.5,1.5,0.5,2.4c0,2.5,0.1,4.9,0,7.4c-0.1,2.2-0.8,4.1-2.9,5.2
		c-0.8,0.4-1.7,0.8-2.7,0.8C187.7,50.1,184.6,50.2,181.5,50.2C181.5,50.2,181.5,50.2,181.5,50.2z M183,44.5c1.5,0,3,0,4.6,0
		c1.3,0,1.9-0.5,1.9-1.8c0-1.4,0-2.7,0-4.1c0-1.4-1-2-2.1-2c-3,0-6,0-9,0c-0.7,0-0.9,0.2-0.9,0.9c0,2.1,0,4.1,0,6.2
		c0,0.7,0.2,0.9,0.9,0.9C179.9,44.4,181.5,44.5,183,44.5z"/>
	<path class="st0" d="M60.7,50.2c-3.1,0-6.3,0-9.4,0c-1.2,0-1.3-0.1-1.3-1.2c0-5.6,0-11.2,0-16.8c0-1.1,0.1-1.2,1.2-1.2
		c6.2,0,12.4,0,18.6,0c2.5,0,4.3,1.3,5.3,3.5c0.4,0.8,0.4,1.8,0.5,2.7c0.1,2.2,0.1,4.4,0,6.7c-0.1,2.2-0.6,4.3-2.8,5.5
		c-0.8,0.4-1.7,0.8-2.7,0.8C67,50.2,63.9,50.2,60.7,50.2C60.7,50.2,60.7,50.2,60.7,50.2z M62.3,44.5c1.5,0,3.1,0,4.6,0
		c1.2,0,1.7-0.4,1.8-1.6c0.1-1.5,0.1-3.1,0-4.6c-0.1-1.1-0.9-1.7-2.1-1.7c-3,0-6,0-9,0c-0.7,0-0.9,0.2-0.9,0.9c0,2.1,0,4.1,0,6.2
		c0,0.7,0.2,0.9,0.9,0.9C59.2,44.4,60.7,44.5,62.3,44.5z"/>
	<path class="st0" d="M234.8,30.9c2.4,0,4.9,0,7.3,0c1,0,1.9,0.4,2.7,1c1,0.8,1.4,1.8,1.4,3c0,2.5,0,2.5-2.5,2.5c-1,0-1.9,0-2.9,0
		c-0.6,0-1-0.2-1.2-0.8c-0.3-0.8-1-1.1-1.7-1.1c-2.1,0-4.1,0-6.2,0c-0.7,0-1.2,0.4-1.7,0.7c-0.5,0.4-0.3,1.1,0.4,1.4
		c0.5,0.1,1,0.2,1.5,0.2c2,0,4.1,0.1,6.1,0c1.5-0.1,2.9,0.2,4.3,0.4c1.3,0.2,2.4,0.8,3.4,1.7c0.6,0.5,0.9,1.1,0.9,1.9
		c0,1.4,0,2.9,0,4.3c0,1.5-1.1,3-2.6,3.5c-2.2,0.7-4.4,1-6.8,1c-2.7-0.1-5.5,0.1-8.2,0c-2.3-0.1-4.3-1-5.4-3.2
		c-0.5-0.9-0.8-1.9-0.7-3c0.1-0.6,0.3-0.9,0.9-0.9c1.5,0,3,0,4.6,0c0.4,0,0.6,0.2,0.8,0.6c0.4,0.9,0.9,1.4,2,1.4c2.7-0.1,5.3,0,8,0
		c0.5,0,1-0.2,1.2-0.6c0.4-0.8-0.1-1.5-1.1-1.5c-3.3,0-6.6,0-9.9,0c-1.8,0-3.4-0.5-4.8-1.5c-1-0.7-1.6-1.7-1.6-3
		c0-1.2,0.1-2.5,0-3.7c-0.2-2,2.2-4.2,4.1-4.2C229.7,30.9,232.3,30.9,234.8,30.9C234.8,30.9,234.8,30.9,234.8,30.9z"/>
	<path class="st0" d="M37.6,50.2c-3.1,0-6.3,0-9.4,0c-1.3,0-1.4-0.1-1.4-1.4c0-5.6,0-11.1,0-16.7c0-1.1,0.1-1.2,1.2-1.2
		c6.3,0,12.7,0,19,0c0.8,0,1.1,0.2,1,1c0,1,0,2.1,0,3.1c0,0.8-0.3,1-1.1,1c-4.2,0-8.4,0-12.5,0c-1.2,0-1.6,0.5-1.2,1.7
		c0.1,0.4,0.4,0.4,0.8,0.4c1.4,0,2.7,0,4.1,0c2.6,0,5.3,0,7.9,0c1,0,1.1,0.1,1.1,1.1c0,1,0,2.1,0,3.1c0,0.8-0.3,1-1.1,1
		c-3.9,0-7.7,0-11.6,0c-1.2,0-1.5,0.6-1.2,1.7c0.1,0.5,0.5,0.4,0.9,0.4c1.6,0,3.3,0,4.9,0c2.8,0,5.6,0,8.4,0c1,0,1.1,0.1,1.1,1.1
		c0,0.9,0,1.7,0,2.6c0,0.8-0.3,1-1.1,1C44.1,50.2,40.8,50.2,37.6,50.2z"/>
	<path class="st0" d="M146.8,30.9c2.8,0,5.5,0,8.3,0c1.9,0,3.4,0.7,4.4,2.3c0.4,0.7,0.8,1.5,0.8,2.4c0,1.6-0.1,3.2,0,4.7
		c0.2,2.4-1.9,4.6-4,5c-1.2,0.3-2.4,0.4-3.6,0.4c-2.5,0-5,0-7.6,0c-0.7,0-1,0.2-1,1c0,0.9,0,1.7,0,2.6c0,0.6-0.3,0.8-0.8,0.8
		c-1.9,0-3.9,0-5.8,0c-0.6,0-0.9-0.3-0.9-0.9c0-5.8,0-11.6,0-17.5c0-0.8,0.5-0.9,1.1-0.9C140.8,30.9,143.8,30.9,146.8,30.9z
		 M148.5,36.5C148.5,36.5,148.5,36.5,148.5,36.5c-1.2,0-2.4,0-3.6,0c-0.5,0-0.7,0.2-0.7,0.7c0,0.7,0,1.4,0,2.1
		c0,0.5,0.2,0.7,0.7,0.7c2.4,0,4.8,0,7.2,0c0.7,0,1.4-0.3,1.6-1.1c0.4-1.5-0.3-2.5-1.9-2.5C150.7,36.5,149.6,36.5,148.5,36.5z"/>
	<path class="st0" d="M209.8,50.2c-2.5,0-4.9,0.1-7.4,0c-2-0.1-3.5-1.1-4.5-2.7c-0.4-0.6-0.5-1.4-0.5-2.1c0-4.4,0-8.8,0-13.2
		c0-1,0.1-1.1,1.1-1.1c1.4,0,2.9,0,4.3,0c1.1,0,1.1,0,1.1,1.1c0,3.4,0,6.7,0,10.1c0,0.7,0.2,1.4,0.5,2c0.3,0.5,0.6,0.8,1.3,0.8
		c2.8,0,5.5,0,8.3,0c0.8,0,1.3-0.4,1.4-1.3c0.3-2.5,0.1-4.9,0.1-7.4c0-1.5,0-3,0-4.5c0-0.5,0.2-0.9,0.8-0.9c1.8,0,3.5,0,5.3,0
		c0.5,0,0.8,0.3,0.8,0.8c0,4.6,0,9.3,0,13.9c0,1.9-1.6,3.5-3.4,4.1c-1.3,0.4-2.5,0.4-3.7,0.4C213.4,50.2,211.6,50.2,209.8,50.2
		C209.8,50.2,209.8,50.2,209.8,50.2z"/>
	<path class="st0" d="M121.7,47.1c-1.3,0-2.6,0.1-3.9,0c-1.3-0.1-1.9,0.5-2.4,1.6c0,0.1-0.1,0.2-0.1,0.2c-0.4,1-1,1.5-2.1,1.4
		c-1.5-0.1-2.9,0-4.4,0c-0.8,0-1-0.2-0.6-1c0.8-1.7,1.7-3.4,2.6-5.1c1.1-2,2.1-4.1,3.2-6.1c0.9-1.7,1.9-3.4,2.7-5.2
		c0.7-1.7,1.8-2.1,3.5-1.9c1.6,0.1,3.3,0,4.9,0c0.5,0,0.9,0.2,1.1,0.7c2,3.9,4.1,7.8,6.2,11.7c1,1.9,2,3.8,3,5.7
		c0.4,0.7,0.2,1.1-0.7,1.1c-1.6,0-3.3,0-4.9,0c-0.5,0-0.9-0.1-1.1-0.6c-0.3-0.5-0.6-1-0.9-1.6c-0.3-0.6-0.7-1-1.5-0.9
		C124.7,47.1,123.2,47.1,121.7,47.1z M121.8,36.7c-1.1,1.7-1.9,3.5-2.9,5.2c-0.2,0.3,0.1,0.5,0.4,0.5c1.7,0,3.4,0,5,0
		c0.4,0,0.5-0.2,0.3-0.5C123.7,40.2,122.8,38.5,121.8,36.7z"/>
	<path class="st0" d="M14.5,30.9c3.4,0,6.8,0,10.3,0c1,0,1.1,0.1,1.1,1.1c0,1.1,0,2.1,0,3.2c0,1.2-0.1,1.3-1.3,1.3c-2,0-4.1,0-6.1,0
		c-0.7,0-0.9,0.2-0.9,0.9c0,3.8,0,7.7,0,11.5c0,1.1-0.1,1.2-1.2,1.2c-1.4,0-2.8,0-4.2,0c-1.2,0-1.2,0-1.2-1.2c0-3.6,0-7.2,0-10.7
		c0-1.9,0.2-1.7-1.8-1.7c-1.7,0-3.4,0-5.1,0c-0.7,0-0.9-0.2-0.9-0.9c0-1.2,0-2.5,0-3.7c0-0.8,0.3-1,1-1
		C7.6,30.9,11.1,30.9,14.5,30.9z"/>
	<path class="st0" d="M88.7,40.5c0-2.8,0-5.6,0-8.4c0-1.1,0.1-1.2,1.2-1.2c1.4,0,2.8,0,4.2,0c1.2,0,1.2,0,1.2,1.2
		c0,3.8,0,7.5,0,11.3c0,1.5,0,1.5,1.5,1.5c3.2,0,6.4,0,9.6,0c1,0,1.1,0.1,1.1,1.1c0,1.1,0,2.2,0,3.3c0,0.6-0.3,0.9-0.9,0.9
		c-5.7,0-11.4,0-17,0c-0.8,0-1-0.3-1-1.1C88.7,46.2,88.7,43.4,88.7,40.5z"/>
	<path class="st0" d="M169.2,40.6c0,2.8,0,5.7,0,8.5c0,0.8-0.2,1.1-1,1c-1.7,0-3.4,0-5.1,0c-0.8,0-1.1-0.3-1-1.1
		c0-5.7,0-11.5,0-17.2c0-0.8,0.3-1,1-1c1.7,0,3.5,0,5.2,0c0.8,0,1,0.3,1,1C169.2,34.8,169.2,37.7,169.2,40.6z"/>
	<path class="st0" d="M124.3,63.9c0-1.4,0-2.9,0-4.3c0-0.7,0.2-1,1-1c2.1,0,4.2-0.1,6.3,0c1.3,0.1,2.6,0.2,3.4,1.4
		c0.6,0.9,0.5,3.2-0.2,4c-0.3,0.4-0.4,0.6,0,0.9c1,1.1,0.5,2.4,0.5,3.7c0,0.5-0.6,0.4-0.9,0.4c-1.2,0-1.3,0-1.3-1.2
		c0-0.3,0-0.5,0-0.8c0-1-0.6-1.7-1.6-1.7c-1.4,0-2.7,0-4.1,0c-0.6,0-0.8,0.2-0.8,0.8c0,0.6,0,1.3,0,1.9c0.1,0.8-0.3,1.1-1.1,1
		c-0.1,0-0.1,0-0.2,0c-1,0-1.1,0-1.1-1C124.3,66.7,124.3,65.3,124.3,63.9C124.3,63.9,124.3,63.9,124.3,63.9z M129.6,60.4
		C129.6,60.4,129.6,60.4,129.6,60.4c-0.8,0-1.5,0-2.3,0c-0.5,0-0.7,0.2-0.7,0.7c0,0.6,0,1.1,0,1.7c0,0.6,0.2,0.9,0.9,0.9
		c1.5,0,2.9,0,4.4-0.2c1-0.1,1.3-0.3,1.3-1.3c0-1.3-0.3-1.7-1.3-1.7C131.1,60.4,130.4,60.4,129.6,60.4z"/>
	<path class="st0" d="M145.4,69.1c-1.1,0-2.3,0-3.4,0c-1.6-0.1-2.6-1.8-1.9-3.2c0.3-0.5,0.8-0.3,1.2-0.3c0.5,0,0.8,0.2,0.9,0.7
		c0.3,1.2,0.3,1.3,1.6,1.3c1.2,0,2.4,0.1,3.7-0.1c0.7-0.1,1.3-0.8,1.2-1.4c-0.1-0.7-0.7-1.3-1.4-1.3c-1.3,0-2.6,0.1-3.9,0
		c-1.1-0.1-2.3-0.2-3.1-1.3c-1-1.5-0.2-3.7,1.5-4.4c2-0.8,4-0.4,6-0.3c1,0,2,0.5,2.6,1.5c0.3,0.6,0.3,1.2,0,1.7
		c-0.3,0.5-0.8,0.4-1.3,0.3c-0.4-0.1-0.8-0.3-0.8-0.8c-0.1-0.7-0.5-1-1.2-1c-1.2,0-2.4,0-3.7,0c-0.8,0-1.1,0.4-1.1,1.2
		c0,0.9,0.3,1.4,1.1,1.4c0.9,0,1.9,0.1,2.8,0c1.2-0.1,2.3,0.2,3.3,0.5c0.9,0.3,1.1,1.1,1.3,1.8c0.3,1,0,1.9-0.5,2.7
		c-0.4,0.6-1,1-1.8,1C147.5,69,146.4,69.1,145.4,69.1C145.4,69.1,145.4,69.1,145.4,69.1z"/>
	<path class="st0" d="M100.1,64c0-1.4,0-2.8,0-4.1c0-0.9,0.3-1.2,1.2-1.2c2.2,0,4.3,0,6.5,0c0.8,0,1.5,0.4,2.1,0.7
		c0.7,0.4,1.2,1.1,1.1,2c-0.1,0.5,0,0.9,0,1.4c0,1.6-1,2.5-2.6,2.6c-1.7,0-3.4,0-5,0c-0.6,0-0.9,0.2-0.9,0.8c0,0.7,0,1.4,0,2.1
		c0,0.6-0.3,0.8-0.8,0.8c-0.1,0-0.2,0-0.3,0c-1.2,0-1.3,0-1.3-1.3C100.1,66.6,100.1,65.3,100.1,64z M105.4,60.4
		C105.4,60.4,105.4,60.4,105.4,60.4c-0.2,0-0.4,0-0.7,0c-2.6,0.1-2.2-0.5-2.2,2.4c0,0.6,0.3,0.9,0.9,0.9c1.1,0,2.3,0,3.4,0
		c1.8,0,2-0.2,1.9-2c0-0.8-0.4-1.2-1.3-1.2C106.8,60.4,106.1,60.4,105.4,60.4z"/>
	<path class="st0" d="M122.5,69.1c-0.9,0.3-1.2-0.5-1.5-1.2c-0.2-0.4-0.4-0.6-0.9-0.6c-1.8,0-3.5,0-5.3,0c-0.5,0-0.7,0.2-0.9,0.6
		c-0.6,1.3-0.7,1.3-2.1,1.2c-0.7,0-0.8-0.4-0.6-0.9c0.5-1,1-2.1,1.6-3.1c0.8-1.5,1.5-3,2.3-4.5c0.2-0.5,0.4-0.9,0.7-1.4
		c0.7-1.1,2.8-0.8,3.4,0.4c1.5,2.8,2.9,5.6,4.4,8.4C124,68.9,123.8,69.1,122.5,69.1z M117.4,61c-0.8,1.4-1.5,2.7-2.1,4.1
		c-0.2,0.4,0.1,0.4,0.4,0.4c1.1,0,2.1,0,3.2,0c0.7,0,0.8-0.3,0.5-0.8C118.8,63.5,118.1,62.3,117.4,61z"/>
	<path class="st0" d="M138.9,63.9c0,1.4,0,2.9,0,4.3c0,0.8-0.4,0.9-1,0.9c-0.6,0-1.1,0-1.1-0.9c0-2.8,0-5.6,0-8.4
		c0-1,0.8-1.5,1.7-1.1c0.4,0.2,0.4,0.5,0.4,0.9C138.9,61,138.9,62.5,138.9,63.9z"/>
</g>
</svg>
