<?xml version="1.0" encoding="UTF-8"?>
<svg id="Capa_1" xmlns="http://www.w3.org/2000/svg" version="1.1" viewBox="0 0 250 100">
  <!-- Generator: Adobe Illustrator 29.4.0, SVG Export Plug-In . SVG Version: 2.1.0 Build 152)  -->
  <defs>
    <style>
      .st0 {
        fill: #777;
      }
    </style>
  </defs>
  <g id="Page-1">
    <g id="Home---V.02-B">
      <g id="logo">
        <g id="Mask">
          <path id="path-1" class="st0" d="M158.7,50.1c0-2.5.5-4.7,1.4-6.7.9-2,2.1-3.6,3.6-5,1.5-1.4,3.3-2.4,5.4-3.1,2.1-.7,4.3-1.1,6.6-1.1s4.5.4,6.6,1.1c2.1.7,3.9,1.8,5.4,3.1,1.5,1.4,2.7,3,3.6,5,.9,2,1.4,4.2,1.4,6.7s-.5,4.7-1.4,6.7-2.1,3.6-3.6,5c-1.5,1.4-3.3,2.4-5.4,3.1-2.1.7-4.3,1.1-6.6,1.1s-4.5-.4-6.6-1.1c-2.1-.7-3.9-1.8-5.4-3.1-1.5-1.4-2.7-3-3.6-5-.9-2-1.4-4.2-1.4-6.7M163.2,50.2c0,1.8.3,3.9.8,5.5.6,1.6,1.4,3.1,2.4,4.3,1.1,1.2,2.4,2.2,3.9,3,1.5.7,3.3,1,5.2,1s3.7-.2,5.2-1c1.5-.7,2.8-1.7,3.9-3,1.1-1.2,1.9-2.7,2.4-4.3.6-1.6.8-3.7.8-5.5s-.3-3.9-.8-5.5c-.6-1.6-1.4-3.1-2.4-4.3-1.1-1.2-2.4-2.2-3.9-3-1.5-.7-3.3-.9-5.2-.9s-3.7.1-5.2.9c-1.5.7-2.8,1.7-3.9,3-1.1,1.2-1.9,2.7-2.4,4.3-.6,1.6-.8,3.7-.8,5.5M84.6,34.2h-27.2v3.9c.8-.9,1.2-1.2,2-1.2h9.6v24.3c0,2.9.2,3.3-1.2,4.8h6.7c-1.5-1.6-1.3-2-1.3-4.8v-24.3h9.6c.8,0,1.1.3,2,1.2v-3.9ZM117.3,61.2v-22.1c0-2.9-.2-3.3,1.3-4.8h-6.7c1.5,1.6,1.3,2,1.2,4.8v8.5h-18.1v-8.5c0-2.9-.2-3.3,1.3-4.8h-6.7c1.5,1.6,1.3,2,1.3,4.8v22.1c0,2.9.2,3.3-1.3,4.8h6.7c-1.5-1.6-1.3-2-1.3-4.8v-11s18.1,0,18.1,0v11c0,2.9.2,3.3-1.2,4.8h6.7c-1.5-1.6-1.3-2-1.3-4.8M152.8,46.5c0,2-.4,3.7-1.1,5.3-.7,1.6-1.7,2.9-2.9,3.9-1.2,1.1-2.6,1.9-4.3,2.5-1.6.6-3.4.9-5.2.9s-3.6-.3-5.2-.9c-1.6-.6-3.1-1.4-4.3-2.5-1.2-1.1-2.2-2.4-2.9-3.9-.7-1.6-1.1-3.3-1.1-5.3s.4-3.7,1.1-5.3c.7-1.6,1.7-2.9,2.9-3.9,1.2-1.1,2.6-1.9,4.3-2.5,1.6-.6,3.4-.9,5.2-.9s3.6.3,5.2.9c1.6.6,3.1,1.4,4.3,2.5,1.2,1.1,2.2,2.4,2.9,3.9.7,1.6,1.1,3.3,1.1,5.3M148.7,46.4c0-1.3-.2-2.9-.6-4.1-.4-1.2-1-2.3-1.8-3.3-.8-.9-1.8-1.7-2.9-2.2-1.1-.6-2.5-.8-3.9-.8s-2.8.3-3.9.8c-1.1.6-2.1,1.3-2.9,2.2-.8.9-1.4,2-1.8,3.3-.4,1.2-.6,2.8-.6,4.1s.2,2.9.6,4.1c.4,1.2,1,2.3,1.8,3.3.8.9,1.8,1.7,2.9,2.2,1.1.6,2.5.8,3.9.8s2.8-.3,3.9-.8c1.2-.6,2.1-1.3,2.9-2.2.8-.9,1.4-2,1.8-3.3.4-1.2.6-2.8.6-4.1M139.4,62.3h-8v3.7h15.9v-3.7h-7.9Z"/>
        </g>
      </g>
    </g>
  </g>
</svg>