<?xml version="1.0" encoding="utf-8"?>
<!-- Generator: $$$/GeneralStr/196=Adobe Illustrator 27.6.0, SVG Export Plug-In . SVG Version: 6.00 Build 0)  -->
<svg version="1.1" id="Capa_1" xmlns="http://www.w3.org/2000/svg" xmlns:xlink="http://www.w3.org/1999/xlink" x="0px" y="0px"
	 viewBox="0 0 250 100" style="enable-background:new 0 0 250 100;" xml:space="preserve">
<style type="text/css">
	.st0{fill:#777777;}
</style>
<g id="Layer_2">
</g>
<g>
	<path class="st0" d="M86.3,49.3c0-7.4,1.4-14.9,4.4-22.1c1.9-4.5,4.4-8.7,7.6-12.4c1.8-2.1,3.8-3.9,6-5.5c4.3-3.1,9-5.1,14.3-5.7
		c6-0.6,11.6,0.5,16.9,3.3c3.7,2,6.8,4.6,9.5,7.7c3.6,4.1,6.3,8.8,8.3,14c1.5,4,2.6,8.1,3.2,12.3c0.4,2.5,0.6,5.1,0.6,7.6
		c0.1,5.2-0.4,10.3-1.6,15.4c-1.5,6.1-3.9,11.8-7.5,17c-3.1,4.5-6.9,8.2-11.6,11c-3.6,2.1-7.5,3.4-11.6,3.9
		c-7.9,0.8-14.8-1.4-21.1-6.1c-3.8-2.9-6.8-6.5-9.4-10.5C91,73.8,88.8,68,87.5,61.9c-0.6-3.1-1-6.1-1.2-9.3
		C86.3,51.6,86.3,50.6,86.3,49.3z M121.7,3.9c-4.3,0-8.3,0.9-12.2,2.8c-4.6,2.2-8.4,5.4-11.6,9.4c-4.5,5.5-7.4,11.8-9.2,18.7
		c-1,3.9-1.6,7.8-1.8,11.8c-0.2,3.3-0.1,6.5,0.3,9.7c0.4,3.6,1.1,7.2,2.2,10.7c1.6,5.3,4,10.2,7.3,14.6c2.1,2.8,4.4,5.2,7.2,7.3
		c1.6,1.2,3.3,2.4,5.2,3.3c4.6,2.3,9.4,3.3,14.5,2.9c2.6-0.2,5.1-0.7,7.5-1.6c5.8-2.1,10.5-5.8,14.4-10.6c3-3.7,5.3-7.8,7-12.2
		c2.8-7.1,4-14.5,3.9-22.2c0-3-0.3-6-0.8-9c-1.3-7.8-4-15.1-8.7-21.6c-1.9-2.6-4-5-6.5-7C135.1,6.5,128.8,3.9,121.7,3.9z"/>
	<path class="st0" d="M155.3,49.6c0,8.2-1.6,16.2-5,23.7c-1.4,3-3.1,5.9-5.1,8.6c-1.5,2-3.2,3.8-5.1,5.5c-1.6,1.4-3.3,2.6-5.1,3.6
		c-3.3,1.8-6.7,3-10.5,3.4c-4.9,0.5-9.5-0.2-14-2.3c-5.7-2.6-10.1-6.8-13.6-11.9c-4.4-6.4-7-13.5-8.2-21.2c-0.4-2.5-0.6-4.9-0.7-7.4
		C87.9,45,88.7,38.4,90.7,32c1.6-5.1,3.8-9.8,7-14.1c3.5-4.7,7.7-8.5,13-11c2.9-1.3,6-2.1,9.2-2.3c7.6-0.5,14.2,2.1,20,6.9
		c1.3,1.1,2.6,2.3,3.7,3.6c2.8,3.3,5.1,6.9,6.9,10.9c1.9,4.3,3.3,8.8,4.1,13.5C155.1,42.9,155.4,46.2,155.3,49.6z M90.6,50.3
		c0,2.5,0.2,5.7,0.7,8.8c0.8,5,2.2,9.8,4.3,14.4c2.3,5,5.3,9.5,9.4,13.1c4.2,3.7,9.1,6.1,14.8,6.6c3.7,0.3,7.2-0.2,10.6-1.6
		c4.9-2,8.8-5.3,12.1-9.4c3.2-4,5.6-8.6,7.2-13.5c1.6-4.7,2.6-9.6,3-14.6c0.3-4,0.2-7.9-0.3-11.9c-0.4-3.6-1.2-7.1-2.3-10.5
		c-1.6-4.9-3.7-9.4-6.8-13.5c-2.6-3.6-5.8-6.6-9.6-8.9c-5.2-3-10.8-4.1-16.7-2.9c-5.7,1.2-10.4,4.2-14.3,8.5
		c-4.6,4.9-7.5,10.7-9.5,17.1C91.4,37.7,90.5,43.6,90.6,50.3z"/>
	<path class="st0" d="M128.5,47.8c0.1,1.3,0.3,2.5,0.4,3.8c0,0.4,0.1,0.9,0.1,1.3c0,4.1,0,8.1,0,12.2c0,3.5,0.1,7.1,0.5,10.6
		c0.1,1,0.3,2,0.6,3c0.2,0.5,0.4,0.9,0.8,1.3c0.1,0.1,0.3,0.2,0.2,0.4c-0.1,0.2-0.3,0-0.4,0c-1-0.4-1.9-0.7-3-0.8
		c-1.8-0.2-3.5,0-5.1,0.7c-0.1,0-0.2,0.1-0.4,0.1c-0.2,0.1-0.4,0.3-0.5,0.1c-0.2-0.2,0.1-0.3,0.3-0.5c0.5-0.6,0.7-1.3,0.9-2
		c0.4-1.6,0.6-3.2,0.6-4.9c0.6-12,0.3-24,0.3-36c0-2.6-0.1-5.3-0.2-7.9c-0.1-2.2-0.2-4.3-0.7-6.4c-0.2-0.7-0.5-1.4-1-2
		c-0.1-0.1-0.3-0.2-0.2-0.4c0.1-0.2,0.3,0,0.5,0c1.4,0.6,2.8,0.9,4.4,0.9c1.4,0,2.7-0.3,3.9-0.8c0.1-0.1,0.3-0.1,0.4-0.2
		c0.1,0,0.2,0,0.2,0c0.1,0.1,0,0.2,0,0.2c-1.4,1.5-1.5,3.5-1.6,5.3c-0.4,4.4-0.5,8.8-0.4,13.2c0,2.5,0.3,4.9,1,7.3
		c0.3,0.9,0.6,1.7,1.1,2.5c0.2,0.4,0.6,0.7,1,0.9c0.5,0.3,0.9,0.1,1.3-0.3c0.6-0.6,0.7-1.4,0.8-2.1c0.1-1.5-0.2-2.9-0.5-4.4
		c-0.6-2.8-1.4-5.5-1.8-8.3c-0.5-3.5-0.7-6.9,0.3-10.3c0.5-1.6,1.2-3.1,2.8-3.9c1.9-1,5.1-0.5,6.5,1.1c0.9,1,1.1,2.3,1,3.7
		c-0.4,3.3-2.2,5.7-5,7.3c-0.5,0.3-0.6,0.6-0.6,1.1c0.2,2.6,0.3,5.1,0.3,7.7c0,2.2-0.1,4.4-0.8,6.6c-0.2,0.7-0.5,1.4-1,2
		c-1.1,1.3-3.4,1.8-4.8,0c0.1,0.4,0.7,1.4,1.2,2.1c1.3,1.7,3,3,4.4,4.6c1.9,2.2,2.6,4.7,2.3,7.5c-0.3,3.6-1.3,7-2.1,10.4
		c-0.3,1.4-0.5,2.8-0.3,4.2c0.1,0.3,0.1,0.6,0.3,0.9c0.3,0.5,0.8,0.5,1.1-0.1c0.4-0.8,0.6-1.7,0.8-2.6c0.6-3.2,0.9-6.5,1.2-9.8
		c0.3-3.6,0.6-7.1,0.9-10.7c0.1-1.3,0.2-2.7,0.3-4c0-0.2,0-0.5,0.3-0.5c0.4,0,0.3,0.3,0.3,0.5c-0.3,3.6-0.3,7.3-0.4,10.9
		c-0.1,2.7-0.1,5.3,0,8c0.1,2.4,0.3,4.8,0.8,7.2c0.1,0.6,0.3,1.2,0.5,1.8c0,0.1,0.1,0.3,0,0.3c-0.1,0.1-0.2,0-0.3-0.1
		c-0.9-0.8-1.9-0.8-2.9-0.2c-0.5,0.3-1,0.4-1.5,0.4c-1.4,0.1-2.7-0.1-3.9-0.7c-1.8-1-2.1-2.7-2.2-4.5c-0.1-2,0.5-3.9,1-5.8
		c0.5-1.7,1-3.5,1.2-5.3c0.2-2-0.2-3.9-0.8-5.8c-0.4-1.3-1-2.4-1.6-3.6C130.1,52.6,129,50.3,128.5,47.8z M136.6,26.9
		c-0.1,1.4,0.1,2.8,0.1,4.2c0,0.5,0.1,0.6,0.6,0.3c1.2-0.7,2.1-1.7,2.9-2.8c1-1.6,1.5-3.3,1.1-5.1c-0.2-1-0.7-1.8-1.7-2
		c-1.5-0.4-2.5,0.3-2.8,2C136.6,24.5,136.6,25.7,136.6,26.9z"/>
	<path class="st0" d="M113,42.7c0,4,0,8,0,12c0,4.6,0,9.2,0.1,13.8c0.1,3.1,0.1,6.2,0.8,9.2c0.2,0.8,0.5,1.5,1,2.1
		c0.1,0.1,0.3,0.2,0.1,0.4c-0.1,0.2-0.3,0-0.4,0c-1.2-0.5-2.3-0.8-3.6-0.9c-1.5-0.1-2.9,0.1-4.3,0.7c-0.2,0.1-0.3,0.1-0.5,0.2
		c-0.2,0-0.4,0.3-0.5,0.1c-0.1-0.2,0.1-0.3,0.3-0.5c0.7-0.8,0.9-1.8,1.1-2.7c0.4-2,0.5-4,0.6-6.1c0.4-15.8,0.1-31.6,0.2-47.5
		c0-0.6-0.1-1.2-0.2-1.8c-0.1-0.4-0.3-0.7-0.7-0.7c-0.4,0-0.7,0.2-0.9,0.5c-0.7,1-0.9,2.3-1.2,3.5c-0.7,3.8-1.2,7.5-1.7,11.3
		c-0.4,3.7-0.9,7.5-1.3,11.2c-0.2,2-0.4,4-0.6,6c0,0.2-0.1,0.4-0.1,0.6c0,0.2-0.2,0.3-0.4,0.3c-0.3,0-0.3-0.2-0.3-0.4
		c0-1.2,0.1-2.4,0.1-3.6c0.1-2.1,0.2-4.1,0.2-6.2c0.1-4.9,0.2-9.7,0.1-14.6c-0.1-3-0.3-6.1-1.3-9c0-0.1-0.1-0.3,0-0.4
		c0.1-0.1,0.2,0,0.3,0.1c0.9,1,2,0.9,3.2,0.6c0.7-0.2,1.3-0.3,2-0.5c1-0.2,2-0.1,3,0.2c1.5,0.6,2.9,0.6,4.4,0
		c1.3-0.5,2.5-0.4,3.8-0.1c0.6,0.1,1.2,0.3,1.8,0.4c0.9,0.2,1.8,0.1,2.5-0.6c0.1-0.1,0.2-0.3,0.4-0.2c0.1,0.1,0,0.3,0,0.4
		c-0.8,2.3-1,4.6-1.2,7c-0.3,3.5-0.2,7.1-0.2,10.7c0,3.2,0.1,6.3,0.2,9.5c0.1,2.1,0.2,4.1,0.3,6.2c0,0.2,0.1,0.5-0.3,0.5
		c-0.4,0-0.4-0.2-0.4-0.5c-0.2-2.3-0.4-4.6-0.7-6.9c-0.2-2.4-0.5-4.9-0.8-7.3c-0.3-3-0.7-6-1.2-9.1c-0.4-2.6-0.7-5.1-1.4-7.7
		c-0.1-0.5-0.3-0.9-0.6-1.3c-0.2-0.4-0.6-0.7-1.1-0.7c-0.5,0.1-0.6,0.5-0.7,0.9c-0.2,0.8-0.2,1.7-0.2,2.6
		C113,30.5,113,36.6,113,42.7z"/>
	<path class="st0" d="M121.8,91.1c0.3,0,0.6,0.2,0.6,0.6c0,0.4-0.2,0.6-0.6,0.6c-0.4,0-0.7-0.3-0.7-0.6
		C121.1,91.3,121.3,91.1,121.8,91.1z"/>
	<path class="st0" d="M116.4,7.6c0.4,0,0.6,0.3,0.6,0.6c0,0.4-0.2,0.6-0.6,0.6c-0.4,0-0.6-0.2-0.6-0.6C115.7,7.8,116,7.6,116.4,7.6z
		"/>
	<path class="st0" d="M150.8,49.2c-0.4,0-0.7-0.2-0.7-0.6c0-0.4,0.2-0.6,0.6-0.6c0.4,0,0.6,0.2,0.6,0.6
		C151.4,49,151.1,49.2,150.8,49.2z"/>
	<path class="st0" d="M149.3,62.3c0.3,0,0.6,0.2,0.6,0.6c0,0.4-0.2,0.6-0.6,0.6c-0.4,0-0.6-0.2-0.6-0.6
		C148.7,62.5,148.9,62.3,149.3,62.3z"/>
	<path class="st0" d="M95.1,34.6c0,0.4-0.3,0.5-0.6,0.5c-0.4,0-0.6-0.2-0.6-0.6c0-0.4,0.3-0.6,0.6-0.6
		C94.9,33.9,95.1,34.2,95.1,34.6z"/>
	<path class="st0" d="M125.4,90.7c0.4,0,0.6,0.2,0.6,0.6c0,0.4-0.3,0.6-0.6,0.6c-0.4,0-0.6-0.2-0.6-0.6
		C124.7,90.9,125,90.7,125.4,90.7z"/>
	<path class="st0" d="M93.5,58.8c0.4,0,0.6,0.3,0.6,0.6c0,0.4-0.3,0.6-0.6,0.6c-0.4,0-0.6-0.2-0.6-0.6C92.8,59,93.1,58.8,93.5,58.8z
		"/>
	<path class="st0" d="M139.1,16.2c-0.5,0-0.7-0.2-0.7-0.6c0-0.4,0.2-0.6,0.6-0.6c0.4,0,0.6,0.2,0.6,0.6
		C139.6,16,139.4,16.2,139.1,16.2z"/>
	<path class="st0" d="M119.9,7c0.3,0,0.5,0.2,0.5,0.6c0,0.4-0.3,0.6-0.7,0.6c-0.4,0-0.5-0.3-0.5-0.6C119.3,7.3,119.5,7,119.9,7z"/>
	<path class="st0" d="M95,65.8c0.4,0,0.6,0.3,0.6,0.6c0,0.4-0.2,0.6-0.6,0.6c-0.4,0-0.6-0.2-0.6-0.6C94.4,66,94.6,65.8,95,65.8z"/>
	<path class="st0" d="M99.8,76.3c0,0.4-0.2,0.6-0.6,0.6c-0.4,0-0.6-0.2-0.6-0.6c0-0.4,0.2-0.6,0.6-0.6
		C99.6,75.7,99.8,75.9,99.8,76.3z"/>
	<path class="st0" d="M93.4,45.1c-0.1,0.4-0.3,0.6-0.6,0.6c-0.4,0-0.6-0.2-0.6-0.6c0-0.4,0.3-0.6,0.6-0.6
		C93.1,44.5,93.4,44.8,93.4,45.1z"/>
	<path class="st0" d="M147.9,69.8c0,0.4-0.2,0.5-0.6,0.5c-0.4,0-0.6-0.2-0.6-0.6c0-0.4,0.2-0.6,0.6-0.6
		C147.7,69.1,147.9,69.4,147.9,69.8z"/>
	<path class="st0" d="M105,15.7c0,0.4-0.2,0.6-0.6,0.6c-0.4,0-0.6-0.2-0.6-0.6c0-0.4,0.2-0.6,0.6-0.6
		C104.8,15.1,104.9,15.3,105,15.7z"/>
	<path class="st0" d="M102.1,19c-0.4,0-0.6-0.2-0.6-0.6c0-0.4,0.2-0.6,0.6-0.6c0.4,0,0.6,0.2,0.6,0.6C102.7,18.8,102.4,19,102.1,19z
		"/>
	<path class="st0" d="M113,10c-0.4,0-0.6-0.2-0.6-0.6c0-0.4,0.2-0.6,0.6-0.6c0.4,0,0.6,0.2,0.6,0.6C113.6,9.8,113.4,10,113,10z"/>
	<path class="st0" d="M151.2,45c0,0.4-0.2,0.6-0.6,0.6c-0.4,0-0.6-0.2-0.6-0.6c0-0.4,0.2-0.6,0.6-0.6C151,44.4,151.2,44.7,151.2,45z
		"/>
	<path class="st0" d="M146,72.4c0.3,0,0.5,0.3,0.5,0.6c0,0.4-0.2,0.6-0.6,0.6c-0.4,0-0.6-0.2-0.6-0.6
		C145.3,72.6,145.6,72.4,146,72.4z"/>
	<path class="st0" d="M96.1,69.2c0.4,0,0.6,0.2,0.6,0.6c0,0.4-0.2,0.6-0.5,0.7c-0.4,0-0.6-0.2-0.6-0.6
		C95.5,69.5,95.8,69.3,96.1,69.2z"/>
	<path class="st0" d="M97.4,27.8c0,0.4-0.3,0.6-0.6,0.6c-0.4,0-0.6-0.2-0.6-0.6c0-0.4,0.2-0.6,0.6-0.6
		C97.2,27.2,97.4,27.4,97.4,27.8z"/>
	<path class="st0" d="M145.9,27.7c0-0.4,0.2-0.6,0.6-0.6c0.4,0,0.6,0.2,0.6,0.6c0,0.4-0.3,0.6-0.6,0.6C146.2,28.3,146,28,145.9,27.7
		z"/>
	<path class="st0" d="M148.4,65.7c0.4,0,0.6,0.2,0.6,0.6c0,0.4-0.3,0.6-0.6,0.6c-0.4,0-0.6-0.2-0.6-0.6
		C147.8,66,148,65.7,148.4,65.7z"/>
	<path class="st0" d="M149.7,37.4c0.4,0,0.6,0.2,0.6,0.6c0,0.4-0.2,0.6-0.6,0.6c-0.3,0-0.6-0.2-0.6-0.6
		C149.1,37.6,149.3,37.4,149.7,37.4z"/>
	<path class="st0" d="M98.3,23.9c0.4,0,0.6,0.2,0.6,0.6c0,0.4-0.2,0.6-0.6,0.6c-0.4,0-0.6-0.2-0.6-0.6
		C97.7,24.2,97.9,23.9,98.3,23.9z"/>
	<path class="st0" d="M140.2,81.5c0.4,0,0.6,0.2,0.6,0.6c0,0.4-0.2,0.6-0.6,0.7c-0.4,0-0.6-0.2-0.6-0.6
		C139.6,81.8,139.9,81.6,140.2,81.5z"/>
	<path class="st0" d="M142.7,21.3c0-0.3,0.2-0.6,0.6-0.6c0.4,0,0.6,0.2,0.6,0.6c0,0.4-0.2,0.6-0.6,0.6
		C142.9,21.9,142.7,21.7,142.7,21.3z"/>
	<path class="st0" d="M137.8,84.1c0.3,0.1,0.6,0.1,0.6,0.6c0,0.4-0.2,0.6-0.6,0.7c-0.4,0-0.6-0.2-0.7-0.6
		C137.2,84.4,137.4,84.2,137.8,84.1z"/>
	<path class="st0" d="M107,13.8c-0.4,0-0.6-0.2-0.6-0.6c0-0.4,0.2-0.6,0.6-0.6c0.4,0,0.6,0.2,0.6,0.6
		C107.6,13.6,107.4,13.8,107,13.8z"/>
	<path class="st0" d="M132.1,88.4c0.4,0,0.6,0.2,0.6,0.6c0,0.4-0.3,0.6-0.6,0.6c-0.4,0-0.6-0.3-0.6-0.6
		C131.5,88.6,131.7,88.4,132.1,88.4z"/>
	<path class="st0" d="M92.7,52.9c-0.4,0-0.6-0.2-0.6-0.6c0-0.4,0.2-0.6,0.6-0.6c0.3,0,0.6,0.2,0.6,0.6
		C93.3,52.7,93.1,52.9,92.7,52.9z"/>
	<path class="st0" d="M124,7.6c0,0.3-0.2,0.6-0.6,0.6c-0.4,0-0.6-0.2-0.6-0.5c0-0.3,0.3-0.7,0.6-0.7C123.8,7,124,7.3,124,7.6z"/>
	<path class="st0" d="M134.5,87c0-0.4,0.3-0.6,0.6-0.6c0.4,0,0.6,0.3,0.6,0.6c0,0.4-0.2,0.6-0.6,0.6C134.7,87.6,134.5,87.4,134.5,87
		z"/>
	<path class="st0" d="M109.2,11.1c0-0.4,0.3-0.6,0.6-0.6c0.4,0,0.6,0.2,0.6,0.6c0,0.4-0.2,0.6-0.6,0.6
		C109.5,11.7,109.3,11.5,109.2,11.1z"/>
	<path class="st0" d="M112,89c0,0.4-0.2,0.6-0.6,0.6c-0.4,0-0.6-0.3-0.6-0.6c0-0.4,0.3-0.6,0.6-0.6C111.8,88.4,112,88.6,112,89z"/>
	<path class="st0" d="M150,59.9c-0.3,0-0.6-0.2-0.6-0.6c0-0.4,0.2-0.6,0.6-0.6c0.4,0,0.6,0.2,0.6,0.6
		C150.6,59.7,150.4,59.9,150,59.9z"/>
	<path class="st0" d="M92,48.7c0-0.4,0.3-0.6,0.6-0.6c0.4,0,0.6,0.3,0.6,0.6c0,0.4-0.2,0.6-0.6,0.6C92.2,49.3,92,49.1,92,48.7z"/>
	<path class="st0" d="M94.1,62.3c0.4,0,0.6,0.2,0.6,0.6c0,0.4-0.2,0.6-0.6,0.6c-0.4,0-0.6-0.2-0.6-0.6
		C93.5,62.6,93.7,62.4,94.1,62.3z"/>
	<path class="st0" d="M93.7,41.6c0,0.4-0.2,0.6-0.6,0.5c-0.4,0-0.6-0.3-0.6-0.7c0-0.4,0.3-0.6,0.6-0.5C93.5,41,93.7,41.2,93.7,41.6z
		"/>
	<path class="st0" d="M150.3,42.1c-0.4,0-0.6-0.3-0.6-0.6c0-0.4,0.2-0.6,0.6-0.6c0.4,0,0.6,0.2,0.6,0.6
		C150.9,41.9,150.6,42.1,150.3,42.1z"/>
	<path class="st0" d="M93.6,37.5c0.5,0,0.7,0.2,0.7,0.6c0,0.4-0.3,0.6-0.6,0.6c-0.4,0-0.6-0.2-0.6-0.6
		C93.1,37.7,93.3,37.5,93.6,37.5z"/>
	<path class="st0" d="M148.8,35.1c-0.4,0-0.6-0.3-0.6-0.6c0-0.3,0.2-0.6,0.6-0.6c0.4,0,0.6,0.2,0.6,0.6
		C149.5,34.8,149.2,35,148.8,35.1z"/>
	<path class="st0" d="M147.2,31c0-0.4,0.2-0.6,0.6-0.5c0.4,0,0.6,0.2,0.6,0.6c0,0.4-0.2,0.6-0.6,0.6C147.5,31.6,147.2,31.4,147.2,31
		z"/>
	<path class="st0" d="M96.1,31.1c0,0.4-0.2,0.6-0.6,0.6c-0.3,0-0.6-0.2-0.6-0.6c0-0.4,0.2-0.6,0.6-0.6
		C95.9,30.5,96.1,30.7,96.1,31.1z"/>
	<path class="st0" d="M97.5,73.7c-0.4,0-0.6-0.3-0.6-0.6c0-0.4,0.2-0.6,0.6-0.6c0.4,0,0.6,0.2,0.6,0.6
		C98.1,73.5,97.9,73.7,97.5,73.7z"/>
	<path class="st0" d="M144.3,75.6c0.4,0,0.6,0.3,0.6,0.6c0,0.4-0.2,0.6-0.6,0.6c-0.4,0-0.6-0.2-0.6-0.6
		C143.7,75.8,143.9,75.7,144.3,75.6z"/>
	<path class="st0" d="M145,23.8c0.4,0,0.6,0.2,0.6,0.6c0,0.4-0.3,0.6-0.6,0.6c-0.3,0-0.6-0.2-0.6-0.6
		C144.4,24.1,144.7,23.9,145,23.8z"/>
	<path class="st0" d="M134.1,11.1c0,0.4-0.2,0.6-0.6,0.6c-0.3,0-0.6-0.2-0.6-0.6c0-0.4,0.2-0.6,0.6-0.6
		C133.8,10.4,134,10.7,134.1,11.1z"/>
	<path class="st0" d="M103.2,82.8c-0.4,0-0.6-0.2-0.6-0.6c0-0.4,0.2-0.6,0.6-0.6c0.4,0,0.6,0.2,0.6,0.6
		C103.8,82.5,103.6,82.8,103.2,82.8z"/>
	<path class="st0" d="M127,7.6c0.4,0.1,0.6,0.2,0.6,0.6c0,0.4-0.3,0.6-0.6,0.6c-0.3,0-0.6-0.2-0.6-0.6C126.4,7.8,126.6,7.6,127,7.6z
		"/>
	<path class="st0" d="M141.3,17.8c0.4,0,0.6,0.3,0.6,0.6c0,0.4-0.2,0.6-0.6,0.6c-0.4,0-0.6-0.2-0.6-0.6
		C140.7,18,140.9,17.8,141.3,17.8z"/>
	<path class="st0" d="M106.3,84.8c-0.1,0.3-0.2,0.6-0.6,0.6c-0.4,0-0.6-0.2-0.6-0.6c0-0.4,0.2-0.6,0.6-0.6
		C106.1,84.2,106.3,84.5,106.3,84.8z"/>
	<path class="st0" d="M135.8,13.1c0-0.4,0.2-0.6,0.6-0.6c0.4,0,0.6,0.2,0.6,0.6c0,0.4-0.2,0.6-0.6,0.6
		C136,13.8,135.8,13.5,135.8,13.1z"/>
	<path class="st0" d="M118.7,91.4c0,0.4-0.2,0.6-0.6,0.6c-0.4,0-0.6-0.2-0.6-0.6c0-0.4,0.2-0.6,0.6-0.6
		C118.5,90.7,118.7,91,118.7,91.4z"/>
	<path class="st0" d="M100.5,79.3c0-0.4,0.2-0.6,0.6-0.6c0.4,0,0.6,0.2,0.6,0.6c0,0.4-0.2,0.6-0.6,0.6
		C100.7,79.9,100.5,79.7,100.5,79.3z"/>
	<path class="st0" d="M93.5,55.9c0,0.4-0.2,0.6-0.6,0.6c-0.4,0-0.6-0.2-0.6-0.6c0-0.4,0.2-0.6,0.6-0.6
		C93.3,55.3,93.5,55.5,93.5,55.9z"/>
	<path class="st0" d="M150.5,56.4c-0.4,0-0.6-0.2-0.6-0.6c0-0.4,0.2-0.6,0.6-0.6c0.4,0,0.6,0.2,0.6,0.6
		C151.1,56.1,150.8,56.4,150.5,56.4z"/>
	<path class="st0" d="M128.8,91c-0.4,0-0.6-0.2-0.6-0.6c0-0.4,0.2-0.6,0.6-0.6c0.4,0,0.6,0.2,0.6,0.6C129.4,90.8,129.2,91,128.8,91z
		"/>
	<path class="st0" d="M150.7,52.8c-0.4,0-0.6-0.2-0.6-0.6c0-0.4,0.2-0.6,0.6-0.6c0.4,0,0.6,0.2,0.6,0.6
		C151.3,52.6,151.1,52.8,150.7,52.8z"/>
	<path class="st0" d="M114.6,89.9c0.4,0,0.6,0.2,0.6,0.6c0,0.4-0.2,0.6-0.5,0.6c-0.4,0-0.6-0.2-0.6-0.6
		C114.1,90.1,114.3,89.9,114.6,89.9z"/>
	<path class="st0" d="M108.4,86.5c0.4,0,0.6,0.3,0.5,0.6c0,0.4-0.3,0.5-0.6,0.5c-0.3,0-0.6-0.2-0.6-0.5
		C107.8,86.8,108,86.5,108.4,86.5z"/>
	<path class="st0" d="M130.3,8.8c0.4,0,0.6,0.2,0.6,0.6c0,0.4-0.2,0.6-0.6,0.6c-0.3,0-0.6-0.2-0.6-0.6
		C129.7,9.1,129.9,8.8,130.3,8.8z"/>
</g>
</svg>
