<?xml version="1.0" encoding="utf-8"?>
<!-- Generator: $$$/GeneralStr/196=Adobe Illustrator 27.6.0, SVG Export Plug-In . SVG Version: 6.00 Build 0)  -->
<svg version="1.1" id="Capa_1" xmlns="http://www.w3.org/2000/svg" xmlns:xlink="http://www.w3.org/1999/xlink" x="0px" y="0px"
	 viewBox="0 0 250 100" style="enable-background:new 0 0 250 100;" xml:space="preserve">
<style type="text/css">
	.st0{fill:#777777;stroke:#777777;stroke-miterlimit:10;}
</style>
<g id="Layer_2">
</g>
<g>
	<path class="st0" d="M17.8,70.7V42.3H7.2v-3.8h25.5v3.8H22.1v28.4H17.8z"/>
	<path class="st0" d="M35,55c0-5.3,1.4-9.5,4.3-12.5c2.9-3,6.6-4.5,11.1-4.5c3,0,5.7,0.7,8,2.1c2.4,1.4,4.2,3.4,5.5,5.9
		c1.3,2.5,1.9,5.4,1.9,8.6c0,3.3-0.7,6.2-2,8.8c-1.3,2.6-3.2,4.5-5.6,5.9c-2.4,1.3-5,2-7.8,2c-3,0-5.7-0.7-8.1-2.2
		c-2.4-1.5-4.2-3.5-5.4-6C35.6,60.5,35,57.8,35,55z M39.4,55c0,3.9,1,6.9,3.1,9.2c2.1,2.2,4.7,3.3,7.9,3.3c3.2,0,5.8-1.1,7.9-3.4
		c2.1-2.3,3.1-5.5,3.1-9.6c0-2.6-0.4-4.9-1.3-6.9c-0.9-2-2.2-3.5-3.9-4.5s-3.6-1.6-5.7-1.6c-3,0-5.6,1-7.8,3.1
		C40.5,46.7,39.4,50.2,39.4,55z"/>
	<path class="st0" d="M71.1,70.7V38.5h6.4l7.6,22.8c0.7,2.1,1.2,3.7,1.5,4.8c0.4-1.2,0.9-2.9,1.7-5.2l7.7-22.4h5.7v32.2h-4.1V43.7
		l-9.4,26.9h-3.8l-9.3-27.4v27.4H71.1z"/>
	<path class="st0" d="M121.5,70.7V38.5h21.7v3.8h-17.5v10h15.1V56h-15.1v14.6H121.5z"/>
	<path class="st0" d="M147.4,55c0-5.3,1.4-9.5,4.3-12.5s6.6-4.5,11.1-4.5c3,0,5.7,0.7,8,2.1c2.4,1.4,4.2,3.4,5.5,5.9
		c1.3,2.5,1.9,5.4,1.9,8.6c0,3.3-0.7,6.2-2,8.8c-1.3,2.6-3.2,4.5-5.6,5.9c-2.4,1.3-5,2-7.8,2c-3,0-5.7-0.7-8.1-2.2
		c-2.4-1.5-4.2-3.5-5.4-6C148,60.5,147.4,57.8,147.4,55z M151.8,55c0,3.9,1,6.9,3.1,9.2c2.1,2.2,4.7,3.3,7.9,3.3
		c3.2,0,5.8-1.1,7.9-3.4c2.1-2.3,3.1-5.5,3.1-9.6c0-2.6-0.4-4.9-1.3-6.9c-0.9-2-2.2-3.5-3.9-4.5c-1.7-1.1-3.6-1.6-5.7-1.6
		c-3,0-5.6,1-7.8,3.1C152.9,46.7,151.8,50.2,151.8,55z"/>
	<path class="st0" d="M183.8,70.7V38.5H198c2.9,0,5.1,0.3,6.5,0.9c1.5,0.6,2.7,1.6,3.6,3.1c0.9,1.5,1.3,3.1,1.3,4.9
		c0,2.3-0.7,4.2-2.2,5.8s-3.8,2.6-6.9,3c1.1,0.5,2,1.1,2.6,1.6c1.2,1.1,2.4,2.6,3.5,4.3l5.6,8.8h-5.4l-4.3-6.7
		c-1.2-1.9-2.3-3.4-3.1-4.4c-0.8-1-1.5-1.7-2.2-2.2c-0.6-0.4-1.3-0.7-1.9-0.9c-0.5-0.1-1.3-0.2-2.4-0.2H188v14.3H183.8z M188,52.7
		h9.2c1.9,0,3.5-0.2,4.6-0.6c1.1-0.4,1.9-1,2.5-1.9c0.6-0.9,0.9-1.8,0.9-2.9c0-1.5-0.6-2.8-1.7-3.8c-1.1-1-2.9-1.5-5.2-1.5H188V52.7
		z"/>
	<path class="st0" d="M216.2,70.7V38.5h11.1c2.5,0,4.4,0.2,5.7,0.5c1.8,0.4,3.4,1.2,4.7,2.3c1.7,1.4,3,3.3,3.8,5.5
		c0.8,2.2,1.3,4.8,1.3,7.7c0,2.4-0.3,4.6-0.9,6.5s-1.3,3.5-2.2,4.7c-0.9,1.2-1.9,2.2-2.9,2.9s-2.3,1.2-3.8,1.6
		c-1.5,0.4-3.2,0.5-5.2,0.5H216.2z M220.4,66.9h6.9c2.1,0,3.8-0.2,5-0.6s2.2-1,2.9-1.7c1-1,1.8-2.4,2.4-4.1c0.6-1.7,0.8-3.8,0.8-6.2
		c0-3.4-0.6-6-1.7-7.8s-2.4-3-4-3.6c-1.1-0.4-3-0.7-5.5-0.7h-6.8V66.9z"/>
</g>
</svg>
