<?xml version="1.0" encoding="utf-8"?>
<!-- Generator: $$$/GeneralStr/196=Adobe Illustrator 27.6.0, SVG Export Plug-In . SVG Version: 6.00 Build 0)  -->
<svg version="1.1" id="Capa_1" xmlns="http://www.w3.org/2000/svg" xmlns:xlink="http://www.w3.org/1999/xlink" x="0px" y="0px"
	 viewBox="0 0 250 100" style="enable-background:new 0 0 250 100;" xml:space="preserve">
<style type="text/css">
	.st0{fill:#777777;}
</style>
<g id="Layer_2">
</g>
<g>
	<path class="st0" d="M120,49.3h9.8v6.4H120V49.3z"/>
	<path class="st0" d="M110.2,46.1h19.7v3.2h-19.7V46.1z M110.2,55.7h19.7v3.2h-19.7V55.7z M18.7,47.7h-4.4v11.1h-1.8V47.7H8v-1.6
		h10.7L18.7,47.7z M32.3,45.9c3.6-0.2,6.7,2.7,6.8,6.3c0.2,3.6-2.7,6.7-6.3,6.8c-0.2,0-0.4,0-0.6,0c-3.6,0.2-6.7-2.7-6.8-6.3
		c-0.2-3.6,2.7-6.7,6.3-6.8C31.9,45.9,32.1,45.9,32.3,45.9z M32.3,57.4c2.7,0.1,4.9-2,5-4.6c0-0.1,0-0.2,0-0.3
		c0.1-2.6-2-4.8-4.6-4.9c-0.1,0-0.3,0-0.4,0c-2.6-0.1-4.8,1.9-5,4.5c0,0.1,0,0.3,0,0.4c-0.1,2.6,2,4.8,4.6,4.9
		C32,57.4,32.2,57.4,32.3,57.4z M59.7,58.9h-1.8v-10l-3.9,5h-0.3l-4-5v10h-1.9V46.1h1.7l4.2,5.3l4.2-5.3h1.7V58.9z M82.1,58.9h-1.8
		v-10l-3.9,5h-0.4l-3.9-5v10h-1.9V46.1h1.7l4.2,5.3l4.3-5.3h1.7V58.9z M99.1,46.1h2.2l-4.7,6v6.7h-1.8v-6.8l-4.7-6h2.2l3.4,4.4
		L99.1,46.1z M151.1,58.9h-1.8v-5.6h-7.1v5.6h-1.8V46.1h1.8v5.6h7.1v-5.6h1.8V58.9z M160.5,58.9h-1.8V46.1h1.8V58.9z M169.9,57.2
		h5.8v1.6h-7.6V46.1h1.8V57.2z M187.8,47.7h-5v3.6h5v1.6h-5v5.9H181V46.1h6.8L187.8,47.7z M196.1,58.9h-1.8V46.1h1.8V58.9z
		 M213.6,58c-1.5,0.7-3.2,1.1-4.9,1.1c-3.6,0.2-6.6-2.5-6.8-6.1c0-0.1,0-0.3,0-0.4c0-3.7,2.9-6.6,6.6-6.7c0.1,0,0.2,0,0.2,0
		c1.6,0,3.1,0.4,4.6,1.1v1.8c-1.4-0.8-3-1.2-4.6-1.3c-2.7,0-4.9,2.1-5,4.8c0,2.7,2.1,4.9,4.8,5c0.1,0,0.3,0,0.4,0
		c0.9,0,1.9-0.2,2.8-0.5v-2.6h-2.5v-1.6h4.3L213.6,58z M227.8,47.7h-5.4v3.9h5.3v1.7h-5.2v4h5.6v1.6h-7.5V46.1h7.3L227.8,47.7z
		 M237.5,46.1c2.6,0,4.2,1.4,4.2,3.6c0,1.4-0.8,2.7-2.1,3.1c1.2,1,2.2,2.2,2.8,3.6c0.5,0.9,0.9,1.3,1.7,2.5h-2.2l-1.7-2.6
		c-1.7-2.6-2.5-2.9-3.4-2.9h-0.8v5.5h-1.8V46.1H237.5z M236.1,51.7h1.2c2,0,2.5-1,2.5-2.1c0-1.1-0.7-1.9-2.5-1.9h-1.2V51.7z"/>
</g>
</svg>
