<?xml version="1.0" encoding="utf-8"?>
<!-- Generator: $$$/GeneralStr/196=Adobe Illustrator 27.6.0, SVG Export Plug-In . SVG Version: 6.00 Build 0)  -->
<svg version="1.1" id="Capa_1" xmlns="http://www.w3.org/2000/svg" xmlns:xlink="http://www.w3.org/1999/xlink" x="0px" y="0px"
	 viewBox="0 0 250 100" style="enable-background:new 0 0 250 100;" xml:space="preserve">
<style type="text/css">
	.st0{fill:#777777;}
</style>
<g id="Layer_2">
</g>
<g>
	<path class="st0" d="M77.3,50.6c0-3.1,0-6.2,0-9.3c0-3.4,0.8-6.7,2.4-9.7c1.7-3.1,4.1-5.5,7.3-7.2c2.1-1.2,4.4-1.9,6.8-2.3
		c1.8-0.3,3.6-0.3,5.4-0.2c1.9,0.1,3.8,0.5,5.6,1c2.6,0.8,4.9,2.1,6.9,3.8c3,2.6,4.8,6,5.6,9.8c0.3,1.4,0.4,2.8,0.4,4.2
		c0,5.9,0,11.9,0,17.8c0,2.9-0.5,5.7-1.7,8.3c-0.8,1.9-2,3.6-3.4,5c-1.6,1.6-3.3,2.9-5.4,3.9c-2.2,1-4.4,1.7-6.8,2
		c-1.1,0.1-2.2,0.2-3.4,0.2c-3.2-0.1-6.2-0.6-9.2-1.9c-2.1-0.9-4-2.1-5.6-3.8c-2.4-2.4-3.9-5.4-4.5-8.8c-0.2-0.9-0.3-1.8-0.3-2.7
		c-0.1-1.6,0-3.2-0.1-4.8C77.3,54.4,77.3,52.5,77.3,50.6z M106.2,50C106.2,50,106.2,50,106.2,50c0-2.3,0-4.6,0-6.9
		c0-1,0-2.1-0.2-3.1c-0.2-1.4-0.5-2.7-1.1-3.9c-0.9-1.8-2.3-3.2-4.2-3.8c-1.9-0.7-3.9-0.7-5.8-0.3c-1.5,0.3-2.9,1-3.9,2.2
		c-0.8,0.9-1.3,1.8-1.6,2.9c-0.6,1.6-0.8,3.4-0.8,5.1c0,4.8,0,9.6,0,14.3c0,1.1,0,2.3,0.1,3.4c0.1,1.3,0.4,2.6,1,3.8
		c0.9,2,2.3,3.4,4.4,4.1c1.8,0.6,3.6,0.6,5.4,0.3c1.2-0.2,2.3-0.6,3.3-1.4c1.3-1,2-2.2,2.6-3.7c0.6-1.7,0.8-3.5,0.8-5.3
		C106.2,55.1,106.2,52.6,106.2,50z"/>
	<path class="st0" d="M180,58.7c1.6,0,3.3,0,4.9,0c0.1,0,0.2,0,0.3,0c0.3,0,0.4,0.1,0.4,0.4c0,0.6,0,1.1,0.1,1.7
		c0.1,1.3,0.4,2.6,1,3.8c0.9,2,2.5,3.1,4.6,3.6c1.3,0.3,2.6,0.3,3.9,0.2c1-0.1,2-0.2,2.9-0.6c1.2-0.4,2.2-1.1,2.9-2.1
		c0.7-0.9,1.1-2,1.1-3.2c0-0.8,0.1-1.7-0.1-2.5c-0.3-1.7-1.4-2.9-2.9-3.7c-1.1-0.6-2.2-0.9-3.3-1.2c-1.5-0.4-3.1-0.5-4.7-0.8
		c-2.6-0.4-5.1-1-7.6-1.9c-1.8-0.7-3.4-1.6-4.8-3c-1.1-1-2-2.2-2.6-3.6c-0.7-1.6-1.1-3.3-1.2-5.1c-0.1-1.1-0.1-2.3,0-3.4
		c0.1-2.8,0.8-5.5,2.4-7.9c1.1-1.7,2.5-3,4.1-4.1c2.2-1.5,4.7-2.3,7.3-2.8c2-0.4,3.9-0.5,5.9-0.5c2.3,0,4.6,0.2,6.8,0.8
		c2,0.5,3.9,1.2,5.5,2.4c2,1.4,3.5,3.2,4.5,5.4c0.9,2,1.4,4,1.6,6.2c0.1,0.9,0.1,1.8,0.2,2.7c0,0.8,0,1.5,0.1,2.3
		c0,0.4,0,0.5-0.5,0.5c-3.4,0-6.9,0-10.3,0c-0.4,0-0.5,0-0.5-0.5c-0.1-1.3-0.1-2.6-0.4-3.9c-0.2-0.9-0.5-1.8-0.9-2.6
		c-0.8-1.6-2.1-2.6-3.8-3.1c-0.7-0.2-1.4-0.3-2.2-0.3c-1,0-1.9-0.1-2.9,0.1c-1.6,0.2-3,0.8-4.2,2c-1,1-1.4,2.2-1.5,3.6
		c0,0.8,0,1.5,0.1,2.3c0.3,1.7,1.2,2.9,2.7,3.7c1.1,0.6,2.3,1,3.6,1.2c1.4,0.3,2.8,0.5,4.3,0.7c2.1,0.3,4.2,0.8,6.3,1.4
		c2,0.6,3.8,1.5,5.5,2.7c2.6,1.9,4.1,4.5,4.7,7.7c0.4,1.9,0.4,3.9,0.3,5.8c-0.1,2-0.5,3.9-1.3,5.7c-0.6,1.4-1.5,2.8-2.5,3.9
		c-2,2.2-4.6,3.5-7.4,4.4c-1.9,0.5-3.8,0.8-5.7,1c-0.8,0.1-1.7,0.1-2.5,0.1c-0.8,0-1.5,0-2.3-0.1c-1.3-0.1-2.5-0.2-3.8-0.4
		c-2.7-0.5-5.2-1.4-7.4-3c-2.2-1.6-3.7-3.8-4.7-6.3c-0.7-1.8-1.1-3.6-1.3-5.5c-0.1-0.9-0.1-1.7-0.2-2.6c0-0.3,0-0.6-0.1-0.9
		c0-0.6,0-0.6,0.6-0.6C176.7,58.7,178.4,58.7,180,58.7z"/>
	<path class="st0" d="M127.3,42.2c0-6.2,0-12.5,0-18.7c0-0.7,0-0.7,0.7-0.7c3.4,0,6.8,0,10.2,0c0.6,0,0.6,0,0.6,0.6
		c0,6.4,0,12.8,0,19.2c0,5.3,0,10.7,0,16c0,1,0,2.1,0.1,3.1c0.1,1,0.3,2,0.7,2.9c0.7,1.7,2,2.7,3.7,3.2c0.9,0.3,1.8,0.4,2.7,0.4
		c1.2,0,2.5,0,3.7-0.2c1.2-0.2,2.3-0.6,3.2-1.4c1-0.9,1.6-2,1.9-3.3c0.3-1.2,0.4-2.5,0.4-3.8c0-9.4,0-18.7,0-28.1c0-2.8,0-5.5,0-8.3
		c0-0.1,0-0.2,0-0.2c0-0.2,0.1-0.3,0.3-0.3c0.1,0,0.2,0,0.3,0c3.4,0,6.8,0,10.2,0c0.6,0,0.6,0,0.6,0.6c0,12.2,0,24.5,0,36.7
		c0,2.2-0.2,4.3-0.7,6.4c-0.4,1.7-1,3.3-1.9,4.8c-1.4,2.2-3.4,3.8-5.7,4.8c-1.7,0.8-3.5,1.2-5.4,1.5c-1.4,0.2-2.9,0.3-4.4,0.4
		c-0.8,0-1.6,0.1-2.3,0c-2.6-0.1-5.1-0.3-7.6-0.9c-1.6-0.4-3.2-1-4.7-1.9c-2.2-1.4-3.9-3.3-4.9-5.7c-0.7-1.6-1.1-3.3-1.4-5
		c-0.2-1.6-0.3-3.3-0.3-4.9C127.3,53.8,127.3,48,127.3,42.2z"/>
	<path class="st0" d="M60.3,55c0,7.2,0,14.4,0,21.5c0,0.7,0,0.7-0.7,0.7c-3.4,0-6.8,0-10.1,0c-0.6,0-0.6,0-0.6-0.6
		c0-14.4,0-28.8,0-43.2c0-0.8,0-0.7-0.7-0.7c-3.7,0-7.4,0-11.1,0c-0.7,0-0.7,0-0.7-0.7c0-2.9,0-5.8,0-8.7c0-0.1,0-0.1,0-0.2
		c0-0.3,0.1-0.3,0.4-0.4c0.1,0,0.2,0,0.3,0c11.8,0,23.6,0,35.4,0c0,0,0.1,0,0.1,0c0.5,0,0.5,0,0.5,0.5c0,3,0,5.9,0,8.9
		c0,0.1,0,0.1,0,0.2c0,0.2-0.1,0.3-0.3,0.3c-0.1,0-0.2,0-0.3,0c-3.8,0-7.6,0-11.4,0c-0.6,0-0.6,0-0.6,0.6
		C60.3,40.5,60.3,47.7,60.3,55z"/>
</g>
</svg>
