<?xml version="1.0" encoding="UTF-8"?>
<svg id="Capa_1" xmlns="http://www.w3.org/2000/svg" version="1.1" viewBox="0 0 250 100">
  <!-- Generator: Adobe Illustrator 29.4.0, SVG Export Plug-In . SVG Version: 2.1.0 Build 152)  -->
  <defs>
    <style>
      .st0 {
        fill: #777;
      }
    </style>
  </defs>
  <path class="st0" d="M70.9,35c.3.3.4.7.6.9s.2.1.3.2c.1.2.4,1,.5,1.2.6,1.9.9,4.1,1.2,6.1.6,3.7.9,7.5,2.1,11.1s.4.9.6,1.1.6.5.6.6c0,0,.8.1.9.1s.9,0,1-.1c0,0,.1-.2.2-.2s.2,0,.3,0c1.1-.6,1.5-1.7,1.7-2.8.6-3.3,0-7.2-.1-10.5s-.3-8.8,2.2-10.2,3.7-.9,5.2.6c2.4,2.3,2.5,7.8,2.6,11s.1,7.5-.5,10.7-.2.2-.2.3c-.4,2.3-.6,4.5-1.9,6.5s-.7,1.1-1.2,1.5c-4.1,3.7-12.3,4.2-17.1,1.7s-4.5-6-5.5-9.3-.7-2.1-.9-3.2c-.5-2.2-1-4.2-1.3-6.5-.5-3.3-1.3-7.7,1.8-10.1s5.1-2.6,7-.6ZM82.9,39.7c0,0,.1-1.7.1-1.9,0-.8.4-2,.8-2.7s.9-1,.9-1.4-.9,0-1.1.2-.2.4-.3.6c-.7,1.2-1,3.5-.8,4.8s0,.5.4.5ZM63.7,41.7c.2-.9.3-1.9.6-2.7s1.2-1.4,2-2.3.2-.4.4-.5c0-.3-.8-.1-1,0-1.8.9-2.6,3.4-2.1,5.3s0,.2.1.2ZM79.2,57.6c0,0,.4,0,.6,0,.3,0,1.3-.7,1.5-1,1.4-1.5,2.2-4.5,1.9-6.5s0-.3-.2-.4c-.3.9-.3,1.9-.6,2.8-.4,1.4-1.1,3.2-2.3,4.1s-1.4.6-1,.9Z"/>
  <path class="st0" d="M178.2,33c2.5,0,4.6.3,7,1s4.9,1.6,6,3.1.2.5.3.8.2.2.2.3c.1.4.3,1.4.3,1.8.2,2.5-1.2,4.6-3.1,6s0,.2-.2.3-1.3.3-1.5.3c-1.7.2-3.3-.8-4.8-1.2s-2.1-.5-2.7.5-.5,1.8.3,2.3,2.2.9,2.7,1c1.3.4,3.5.6,3.8,2.2s-.3,1.6-.6,2c-1.8,2.2-5.2.6-7.5,1s-.9.6-1,.8c-.3.8.3,1.6,1.1,1.8,1.6.3,4.6.3,5.5,1.8s.2.4.2.6c0,.8-.5,2.5-.9,3.2-1.9,3.7-7.5,3.4-11,2.9s-2-.3-2.8-.6c-4.7-1.7-4.4-9.1-4.1-13.2.3-3.3.7-7,1.5-10.2s2.4-6.3,5.9-7.5,3.8-1.2,5.3-1.2ZM179.5,34.9v-.2c-.7,0-1.3-.1-1.9,0-2,0-5.2.9-6.6,2.5s-1.3,2.2-1.6,3.4-.5.8,0,.9l.5-.9c1.2-3.9,4.6-4.8,8.3-5.3s1,0,1.4-.3Z"/>
  <path class="st0" d="M144.4,33.8v-.2c.9-.9,2.2-1.7,3.3-2.2,4.2-1.8,8.1-1.9,12.5-.9s2.9.9,4.2,1.4,1.4,1.3,1.5,1.4,0,.3.1.5.2.1.3.2.5,1.9.5,2.1c.2,1.8-.5,3.6-1.6,4.9s-3,2-5.3,1.6-2.3-.9-3.6-.8-.5.1-.8.4-.2,0-.3,0-.4.7-.4.7c-.2.7-.1,1.5.5,1.9,1,.7,3.5.9,4.8,1.2s1.4.5,1.7.8c1,.9.3,2.8-.5,3.6-1.4,1.4-5.3.3-7.1,1.1s-.6.5-.7,1,0,.7.3,1c.8.6,2.6.5,3.5.6s2.1.4,2.7.8.6,1.9.4,2.7-.2,1.1-.3,1.2c-.2.5-.6,1.1-.9,1.6-2.1,2.6-6.5,2.7-9.5,2.6s-4.2-.3-5.5-1.7c-3.3-3.5-2.9-10.6-2.8-15.2s.2-9.1,2.9-12.4ZM144,38.1c0,.3,0,.7,0,1.1s.1.1.1,0c.3-.9.6-1.8,1-2.6s.5-.9.9-1.4c1.3-1.5,3.1-2.3,5-2.8s1.5-.3,2.2-.5c.2-.2.2-.3,0-.4s-1.2,0-1.5,0c-1.7.2-4.9,1.3-6,2.7s-1.2,1.9-1.5,3.2-.2.4-.2.6Z"/>
  <path class="st0" d="M112,59c-1,.8-2.2,1.4-3.4,1.9-3.8,1.6-8,2.2-12.1,1.6s-.6-.2-.7-.6c-.2-.8-.2-2-.3-2.9-.8-6.2-1.5-12.4-2.1-18.7s-.6-4.5-.7-6.7-.2-2.1.8-2.6.3,0,.5-.1c.9-.4,1.6-.7,2.6-.9,5.3-1,11.9-.2,16.3,3s3.4,3.3,3.2,6.2-3.8,6.1-6.4,7.7-.2.2-.3.3c-.3.2-.9.1-1.1.6.3.4.7.3,1.1.4,1.3.4,4.4,1.3,5.2,2.4s.3.5.6.8c.7.9.6,2.7.2,3.7-.6,1.7-2,2.8-3.4,3.9ZM95.3,31.9c-.2,0-.2.2-.4.2s-.4,0-.5.2c-.3.2-.6,1-.2,1.1s.6-.4.8-.6.4-.3.6-.4.6-.1.7-.5c0-.1-.8-.1-.9,0ZM106.5,44.1c.3-.2.7-.4,1-.6.6-.4.6-1.5.3-2.1-.6-1.1-1.7-1.6-2.9-1.6s-1.7,0-2.1.2-.3.2-.4.3c-.2.3-.2,1.4-.2,1.8s.1.3.1.4c0,.6,0,1.2.2,1.8,0,0,.1,0,.2.1.9.4,2.3,0,3.2-.2s.3,0,.5-.1ZM106.7,45.2c0,0,0,.1,0,.2.5.5,2.4-.6,2.7-1.2s.3-.9,0-1.2-.6.5-.7.7c-.5.7-1.1,1.1-1.8,1.5s-.1,0-.2,0ZM103.8,51.2c-.3,0-.7.8-.7,1.1s0,1.3,0,1.5.6.5.6.6c0,0,.7,0,.9,0,1.1-.2,3-.8,1.8-2.2s-1.2-.9-1.7-1-.8,0-.9,0ZM108,53.4c0,.8-.5,1.2-1.1,1.6s-.6,0-.7.4c.5.5,2.2-.2,2.3-.8s0-1.3-.5-1.2Z"/>
  <path class="st0" d="M123.2,28.8c5.9-.3,12.8,1.2,16.5,6s1.7,4.6.4,6.8-4.6,4.5-6.6,5.3-.9.2-1.1.3-.2.4,0,.4c.6.2,1.3.3,1.9.5,1.1.4,3,1.3,3.7,2.1s1.1,1.3,1.1,1.5c.3.7.2,2.6-.1,3.3-1.2,2.6-4.5,4.4-7.1,5.3s-7.4,1.5-11,1-1.4-.3-1.7-.5-.4-.5-.4-.9c-.2-2-.1-4.1-.2-6.1-.3-7.4-.6-14.9-.6-22.3s0-.3,0-.5c0-.3.4-1.2.6-1.4,1.5-.5,3-.8,4.7-.9ZM119.4,32s.6-.2.6-.3c.2-.1.2-.4.4-.4.2-.1,1.3-.4,1.3-.7-.2-.2-.6-.2-.8-.2-.9,0-1.7.5-1.5,1.5ZM128,39c-1.2.1-1.1,1.2-1.1,2.1s0,1.3.1,1.9,0,.4.2.5c.3.3,1.8.3,2.2.2s1.9-.3,2.3-.6.8-.8.8-1.1-.2-1.4-.4-1.8c-.6-1.1-3-1.5-4.2-1.3ZM130.8,44.8c.2,0,.3.1.5.1.9,0,2-.4,2.5-1.2s.4-1.1.2-1.3-.5.4-.6.6c-.4.5-1,1-1.6,1.3s-.7.3-.9.5ZM127.8,50.4c-1.1.2-1.2,1.5-1,2.4s.2.6.4.7c.5.3,2.1,0,2.6-.2s.8-.6.8-1.1-.5-.8-.6-.9c-.3-.3-1.3-.9-1.6-.9s-.3,0-.5,0ZM131.9,52.8c-.4.3-.4.9-.7,1.2s-.5.3-.6.3c-.2,0-1,.2-1,.5,1.4.6,3.2-.4,2.3-2Z"/>
  <path class="st0" d="M215,42.1c0,0,.2.1.4.3,1.5,2.5.9,8.4-.8,10.7s-1.4,1.2-2.7,1c-2.8-.4-5.7-1.5-8.6-1.9s-1.2.2-1,1,1.5,2.6,2.1,3.5,1,1.5,1.4,2.1.5.7.7,1.1c1,1.7,2.4,4.4,2.3,6.4s-1.5,3.1-2.9,3.9c-3,1.8-6.1.9-9.3.1s-5.6-1.5-8.2-2.5-1.9-1.3-1.8-2.6.4-2.1,1-2.9.9-1.1,1.5-1.1c2.3,0,4.4.8,6.6,1.3s2.5.7,3.4.6.9-.1.9-.2c.1-.3.2-.6.2-.9s-.4-.9-.4-.9c-.5-.9-1.7-1.9-2.4-2.6-2.9-2.8-6.4-6.4-6.7-10.6s1.1-4.7,2.6-6c3.2-2.9,6.5-3.6,10.8-3.5s8.8.9,10.7,3.2.2.4.3.5ZM206.5,40.3c-.7,0-1.5-.2-2.2-.3-2-.1-5.1,0-7,.8s-3.4,2.3-4.1,3.6-.4,1.2.3.9c.6-.8,1.1-1.5,1.9-2.2,1.7-1.6,4.1-2.3,6.4-2.5s2.9,0,4.4,0l.3-.3ZM190,63.2c0,0,.1-.3,0-.3-.3-.2-1,.2-1.3.3,0,1,.3.4.7.2s.5-.1.6-.2ZM201.4,63.4c-.1-.1-.6.5-.7.6-.4.3-1.1.6-1.5.7s-.2,0-.2.1c.3-.1.6.2.9.1s.8-.3.9-.3c.2,0,.3-.3.5-.4.2-.3.1-.5.1-.8Z"/>
  <path class="st0" d="M51.1,37.2c1.2,0,2.7,0,3.9.1,1.7.3,3,1,4,2.5s1.2,2.1,1.5,3.3.6,2.1.7,2.9c.1,1.4-.5,2.7-1.6,3.6s-3,1.4-4.4,2.2-.7.3-.8.6c-.4,1,0,2.3.2,3.3.6,3,1.3,6,1.7,8.9s.5,3.7,0,4.6-.8.9-1,1-.8.4-.9.4c-1.3.5-2.8.8-3.9-.2s-1.3-2.1-1.5-2.7c-1.4-3.2-2.1-6.6-3.3-9.9s-.8-2.6-1.5-3.2-.9-.6-1.4-.6c-1.6-.1-3.4.9-4.9.6s-.7-.3-1.1-.8c-1.1-1.4-1.8-3.7-2.3-5.4s-1.2-3.7-.2-5.1c1.7-2.4,6.6-4.1,9.4-4.8s5.1-1.1,7.5-1.3ZM39.3,41.8l-1.4.4c-1.4.9-2.5,1.2-2.5,3.1s0,.9.1,1.1.2.2.2.2c.3,0,.2-.9.2-1.1,0-.3.2-1.1.3-1.3s.9-1,.9-1c.4-.3,1.2-.9,1.5-1.1s.5,0,.5-.4ZM48.1,60.3c0,0-.1,0-.1,0,0,.2,0,.5,0,.8h.2c0-.1-.1-.9-.1-.9Z"/>
  <path class="st0" d="M201.4,63.4c0,.3,0,.6-.1.8-.2,0-.4.3-.5.4s-.8.3-.9.3c-.2,0-.6-.2-.9-.1,0,0,.1,0,.2-.1.4-.1,1.2-.4,1.5-.7s.6-.7.7-.6Z"/>
  <path class="st0" d="M190,63.2c0,0-.4.1-.6.2-.4.2-.7.7-.7-.2.3-.1,1-.5,1.3-.3s0,.3,0,.3Z"/>
</svg>