<?xml version="1.0" encoding="utf-8"?>
<!-- Generator: $$$/GeneralStr/196=Adobe Illustrator 27.6.0, SVG Export Plug-In . SVG Version: 6.00 Build 0)  -->
<svg version="1.1" id="Capa_1" xmlns="http://www.w3.org/2000/svg" xmlns:xlink="http://www.w3.org/1999/xlink" x="0px" y="0px"
	 viewBox="0 0 250 100" style="enable-background:new 0 0 250 100;" xml:space="preserve">
<style type="text/css">
	.st0{fill:#777777;}
</style>
<g id="Layer_2">
</g>
<g>
	<path class="st0" d="M109.9,33.8h26.8c6.1,0.2,11.2-4.7,11.4-10.8c0-0.3,0-0.6,0-0.9v-4.6c0.1-3.3-1.3-6.4-3.7-8.7
		c-1.8-1.7-4.2-2.7-6.7-2.9h-1.1h-8v1.5l2.1,0.2l0,0c0.6,0,1.3,0.2,1.7,0.6c0.3,0.4,0.5,0.9,0.6,1.4c-0.2,0.9-0.5,1.9-1,2.7
		c-0.2,0.6-0.5,1.2-0.8,1.9l-5.4,13.5L119,11.3c-0.6-1.3-0.5-1.7-0.5-1.9l0,0c0.1-0.4,0.2-0.7,0.5-1c0.3-0.3,0.7-0.6,1.1-0.6
		l2.2-0.2V6h-12.4c-6.2,0.1-11.2,5.2-11.1,11.4c0,0.1,0,0.1,0,0.2v4.6c-0.2,6.2,4.7,11.4,10.9,11.6
		C109.7,33.8,109.8,33.8,109.9,33.8z M100.3,22.2v-4.6c-0.2-5.3,3.9-9.8,9.3-10c0.1,0,0.1,0,0.2,0h0.7c0.8,0,1.6,0.3,2.2,0.8
		c0.6,0.7,1.1,1.4,1.4,2.3c0.3,0.9,0.6,1.6,0.8,1.9l8.1,19.5h-13.1c-5.3,0-9.5-4.3-9.5-9.5C100.3,22.5,100.3,22.4,100.3,22.2z
		 M136.7,32.2h-10.9l7-17.2l1.7-4.1c0.4-1,0.9-1.8,1.6-2.6c0.5-0.4,1.1-0.6,1.7-0.6c4.1,0,8.6,4.1,8.6,10v4.6c0,2.6-0.9,5-2.6,7
		C142,31.2,139.4,32.3,136.7,32.2z"/>
	<path class="st0" d="M90,81.1h2.9V82c0.1,0.8-0.2,1.6-0.6,2.2c-0.9,1.2-2.5,1.4-3.7,0.5c-0.1-0.1-0.3-0.2-0.4-0.3
		c-0.7-0.8-0.8-1.7-0.8-4.1s0-3.3,0.8-4.1c0.5-0.5,1.2-0.9,1.9-0.9c1.4,0,2.6,1.1,2.7,2.5V78h1.1v-0.2c-0.2-2.1-2-3.6-4.1-3.5
		c-0.9,0.1-1.8,0.5-2.5,1.2c-1,1.1-1,2.2-1,4.8s0,3.7,1,4.8c0.7,0.8,1.7,1.2,2.8,1.2c1.1,0,2.2-0.5,2.9-1.4c0.7-0.8,1-1.8,0.9-2.9
		V80H90V81.1z"/>
	<path class="st0" d="M100,74.4l-4,11.8h1.1l0.9-2.8h4.8l0.9,2.8h1.2l-4-11.8H100z M102.5,82.3h-4.1l2.1-6.2L102.5,82.3z"/>
	<path class="st0" d="M115.1,77.6c0.1-1.7-1.1-3.1-2.8-3.2c-0.1,0-0.3,0-0.4,0h-4.2v11.8h1.1v-5.3h2.7l2.6,5.3h1.2l-2.6-5.4
		C114.2,80.5,115.2,79.1,115.1,77.6z M108.8,75.4h3c1.2,0,2.2,1,2.2,2.2s-1,2.2-2.2,2.2h-3L108.8,75.4z"/>
	<path class="st0" d="M121.2,74.4l-4,11.8h1.1l0.9-2.8h4.8l0.9,2.8h1.2l-4-11.8H121.2z M123.7,82.3h-4.1l2.1-6.2L123.7,82.3z"/>
	<polygon class="st0" points="130.8,84.1 127.9,74.4 126.8,74.4 130.4,86.1 130.4,86.2 131.3,86.2 134.9,74.4 133.7,74.4 	"/>
	<path class="st0" d="M140.5,74.4h-0.9l-4,11.6v0.2h1.1l0.9-2.8h4.8l0.9,2.8h1.1l-4.1-11.7V74.4z M142.1,82.3h-4.2l2.1-6.2
		L142.1,82.3z"/>
	<polygon class="st0" points="154.1,84.1 148.2,74.5 148.2,74.4 147.2,74.4 147.2,86.2 148.2,86.2 148.2,76.5 154.2,86.2 
		155.2,86.2 155.2,74.4 154.1,74.4 	"/>
	<rect x="159.4" y="74.4" class="st0" width="1.1" height="11.8"/>
	<polygon class="st0" points="67.1,43.9 67.1,43.3 62.5,43.3 62.5,43.9 64.2,43.9 59.2,62 53.1,43.9 55.3,43.9 55.3,43.3 47.5,43.3 
		47.5,43.9 49.9,43.9 58,68.2 64.8,43.9 	"/>
	<path class="st0" d="M71.5,43.2L71.5,43.2H71l-6.8,23.2H62V67h4.8v-0.6h-2.1l2-7h6.6l2.1,7h-2.1V67h7.6v-0.6h-2.4L71.5,43.2z
		 M66.9,59L70,48.2L73.2,59H66.9z"/>
	<path class="st0" d="M81.9,66.5V67h16.2v-7.8h-0.5v0.1c0,1.1-0.3,2.2-0.7,3.2c-0.8,2.3-2.9,3.8-5.3,3.9h-4.2V43.9h2.6v-0.6h-8.3
		v0.6h2.6v22.6L81.9,66.5z"/>
	<path class="st0" d="M115.6,59.6c-0.4,3.9-3,6.8-6.3,6.8h-4.5V55.1h1.3c2.5,0,4,1.9,4,4.9v0.3h0.5V49.7h-0.5v0.1
		c-0.2,2.9-1.7,4.7-3.7,4.7h-1.6V43.9h5.1c0.8-0.1,1.7,0.1,2.4,0.6c1.3,1.2,2.1,2.8,2.1,4.6v0.3h0.5v-6.1H99.5v0.6h2.3v22.6h-2.4
		v0.6H116v-7.6h-0.4L115.6,59.6z"/>
	<polygon class="st0" points="132.3,68 132.3,43.9 134.5,43.9 134.5,43.3 129.8,43.3 129.8,43.9 131.8,43.9 131.8,60.2 122.9,43.3 
		119.7,43.3 119.6,43.2 119.6,43.3 117.3,43.3 117.3,43.9 119.3,43.9 119.3,66.5 117.3,66.5 117.3,67 121.8,67 121.8,66.5 
		119.9,66.5 119.9,44.3 	"/>
	<path class="st0" d="M147.3,43.9c2.2,0,4.3,2.9,4.6,6.3v0.1h0.4v-7H136v7h0.4v-0.1c0.6-3.8,2.6-6.2,5.2-6.2h1.1v22.6h-2.2v0.6h7.4
		v-0.6h-2.2V43.9L147.3,43.9z"/>
	<polygon class="st0" points="154.3,43.9 156.6,43.9 156.6,66.5 154.3,66.5 154.3,67 161.8,67 161.8,66.5 159.5,66.5 159.5,43.9 
		161.8,43.9 161.8,43.3 154.3,43.3 	"/>
	<polygon class="st0" points="176.2,43.9 178.1,43.9 178.1,60.2 169.2,43.3 166,43.3 165.9,43.2 165.9,43.3 163.6,43.3 163.6,43.9 
		165.6,43.9 165.6,66.5 163.6,66.5 163.6,67 168.2,67 168.2,66.5 166.2,66.5 166.2,44.3 178.6,68 178.6,43.9 180.8,43.9 180.8,43.3 
		176.2,43.3 	"/>
	<path class="st0" d="M190.5,42.9c-4.8,0-9,5.9-9,12.7c0,6.4,4,11.8,8.7,11.8c4.7,0,9.1-5.4,9.1-11.8
		C199.3,48.9,195.2,42.9,190.5,42.9z M196.1,55.1c0,1.9-0.2,3.8-0.5,5.7c-0.8,4.3-2.4,6.2-5.5,6.2c-1.2,0.1-2.4-0.4-3.2-1.3
		c-1.4-1.6-2.3-5.5-2.3-10.3c0-2.2,0.2-4.4,0.7-6.5c0.8-3.5,2.5-5.2,5-5.2c1.3,0,2.6,0.5,3.5,1.5C195.2,46.7,196.1,50.5,196.1,55.1
		L196.1,55.1z"/>
</g>
</svg>
