<?xml version="1.0" encoding="utf-8"?>
<!-- Generator: $$$/GeneralStr/196=Adobe Illustrator 27.6.0, SVG Export Plug-In . SVG Version: 6.00 Build 0)  -->
<svg version="1.1" id="Capa_1" xmlns="http://www.w3.org/2000/svg" xmlns:xlink="http://www.w3.org/1999/xlink" x="0px" y="0px"
	 viewBox="0 0 250 100" style="enable-background:new 0 0 250 100;" xml:space="preserve">
<style type="text/css">
	.st0{clip-path:url(#SVGID_00000052076513442251531980000016296260747928555664_);}
	.st1{fill:#777777;}
</style>
<g>
	<defs>
		<rect id="SVGID_1_" x="53" y="34" width="144" height="32"/>
	</defs>
	<clipPath id="SVGID_00000178183968812348910230000010577832615428426932_">
		<use xlink:href="#SVGID_1_"  style="overflow:visible;"/>
	</clipPath>
	<g style="clip-path:url(#SVGID_00000178183968812348910230000010577832615428426932_);">
		<path class="st1" d="M197,62.5h-10V51.4h7.8v-2.9H187v-11h10v-3h-15.8v30.9H197V62.5z M179.6,43.1c-0.2-6.2-4.5-9.1-10.2-9.1
			c-9.4,0-12,7.5-12,15.9c0,8.9,2.8,16,12.2,16c4.9,0,9.8-2.4,10-9.1h-4.9c-0.1,3.5-1.6,7.1-5,7.1c-5.4,0-5.9-7.9-5.9-13.8v-0.4
			c0-4.5,0.1-13.9,5.5-13.9c3.7,0,4.6,4.3,4.7,7.2L179.6,43.1L179.6,43.1z M148.9,34.5h-4.6l-10.5,30.9h2.9l3.4-10.2h8.8l3,10.2h6.5
			L148.9,34.5z M141.2,52.3l3.6-10.7h0.3l3.2,10.7H141.2z M134.6,55.9c0-4.5-2.3-7.6-7.3-8.9l-2.5-0.7c-2.9-0.8-5.3-2-5.3-5.3
			c0-3,1.9-4.5,4.2-4.5c2.2,0,4.9,1.5,6.5,4.4l3.3-3.3c-2.3-2.5-5.4-3.7-8.4-3.7c-5.1,0-9.9,3.5-9.9,10c0,5.8,4,7.8,7.9,8.8l1.8,0.5
			c3.4,0.9,4.9,3.2,4.9,5.5c0,3.3-2.2,5-4.8,5c-3.3,0-5.8-2.7-7.2-5.4c-3.4,3.2-3.4,3.3-3.4,3.3c2.6,3.4,6.9,4.3,10.1,4.3
			C130.9,66,134.6,61.5,134.6,55.9z M107.6,50.9c3.6-1.3,5.5-4.4,5.5-7.8c0-4.3-3-8.7-9.7-8.7H93.4v30.9h5.9V52.3h2.5l6.1,13.1h6.5
			L107.6,50.9z M107,43.4c0,3.9-1.4,6.7-5.2,6.7h-2.6V36.8h2.6C105.6,36.8,107,39.6,107,43.4z M92,62.5h-10V51.4h7.8v-2.9h-7.8v-11
			h10v-3H76.2v30.9H92V62.5z M72.3,34.5l-6.5,23.8h-0.3l-6.1-23.8H53l8.7,30.9h4.7l8.8-30.9L72.3,34.5L72.3,34.5z"/>
	</g>
</g>
</svg>
