<?xml version="1.0" encoding="utf-8"?>
<!-- Generator: $$$/GeneralStr/196=Adobe Illustrator 27.6.0, SVG Export Plug-In . SVG Version: 6.00 Build 0)  -->
<svg version="1.1" id="Capa_1" xmlns="http://www.w3.org/2000/svg" xmlns:xlink="http://www.w3.org/1999/xlink" x="0px" y="0px"
	 viewBox="0 0 250 100" style="enable-background:new 0 0 250 100;" xml:space="preserve">
<style type="text/css">
	.st0{fill:#777777;}
</style>
<g id="Layer_2">
</g>
<g>
	<path class="st0" d="M165,31.5c-0.2,0.6,0.3,0.4,0.5,0.5c3.7,0.8,6.8,2.6,9.4,5.4c2.9,3,4.4,6.7,4.8,10.8c0.9,9.3-5.1,18.2-15.3,20
		c-10.5,1.8-19.9-3.7-22.3-13.9c-2.3-9.6,3.1-18.9,12.4-21.9c0.6-0.2,1.2-0.3,1.8-0.4c0.2-0.1,0.3-0.2,0.2-0.4
		C159.3,31.5,162.1,31.5,165,31.5z M173,49.9c0.1-0.9,0-1.9-0.2-2.9c-0.1-0.6-0.3-1.3-0.5-1.9c-3.6-9.5-15.3-10.3-20.8-4.2
		c-3.2,3.6-3.8,7.9-2.8,12.3c1.7,7.3,9.3,11.2,16.4,8.7C169.6,60.4,173.2,55.7,173,49.9z"/>
	<path class="st0" d="M78.3,31.5c-0.2,0.1-0.3,0.2-0.5,0.3c0.1,0.1,0.2,0.1,0.3,0.1c1.9,0,1.6,0.3,1.6,1.8c0,0.7,0,1.5,0,2.2
		c0,1.5,0,1.5-1.5,1.5c-5.6,0-11.2,0-16.8,0c-1.6,0-1.6,0-1.6,1.6c0,2.2,0,4.4,0,6.6c0,1.2,0,1.2,1.2,1.2c4.9,0,9.7,0,14.6,0
		c1.2,0,1.2,0,1.2,1.2c0,1.1,0,2.2,0,3.3c0.1,0.9-0.3,1.2-1.2,1.2c-4.6,0-9.3,0-13.9,0c-0.4,0-0.7,0-1.1,0c-0.5,0-0.8,0.2-0.8,0.8
		c0,2.8,0,5.5,0,8.3c0,0.8,0.6,0.7,1.1,0.7c5.7,0,11.4,0,17.1,0c0.3,0,0.6,0,0.8,0c0.6,0,0.8,0.2,0.8,0.8c0,1.2,0,2.5,0,3.7
		c0,0.7-0.2,1-0.9,0.9c-0.3,0-0.6,0-0.8,0c-7.8,0-15.5,0-23.3,0c-1.3,0-1.3,0-1.3-1.3c0-11.1,0-22.1,0-33.2c0-0.6,0.6-1.2,0.1-1.8
		C61.7,31.5,70,31.5,78.3,31.5z"/>
	<path class="st0" d="M46.9,31.5c-0.4,0.3-1,0.1-1.5,0.3c0.5,0.2,0.9,0.1,1.3,0.2c0.3,0,0.6,0,0.7,0.3c0.1,0.3-0.1,0.4-0.3,0.6
		c-2.8,3.8-5.5,7.6-8.3,11.4c-1,1.3-1.9,2.7-2.9,4c-0.6,0.8-0.6,1.4,0,2.2c3,4.1,6,8.3,9,12.4c1,1.3,1.9,2.6,2.9,4
		c0.1,0.2,0.3,0.3,0.2,0.6c-0.1,0.3-0.4,0.2-0.6,0.2c-1.9,0-3.8,0-5.7,0c-0.7,0-1-0.4-1.3-0.8c-1.7-2.4-3.5-4.9-5.2-7.3
		c-1.1-1.5-2.2-3.1-3.3-4.6c-0.6-0.8-0.7-0.9-1.3,0c-2.1,2.9-4.2,5.9-6.3,8.8c-0.7,1-1.5,2.1-2.2,3.1c-0.4,0.6-0.9,0.8-1.6,0.8
		c-1.7,0-3.4,0-5.1,0c-0.3,0-0.6,0.1-0.7-0.2c-0.1-0.3,0.2-0.5,0.3-0.7c3.9-5.4,7.8-10.8,11.8-16.1c0.6-0.8,0.6-1.4,0-2.3
		c-3.7-5.1-7.4-10.2-11.1-15.2c-0.4-0.5-0.3-1.3-0.8-1.7c2,0,4,0,6,0C20.5,32,20.8,32,21.2,32c0.9-0.1,1.4,0.4,1.9,1.1
		c2.5,3.6,5.1,7.2,7.7,10.9c0.6,0.9,0.7,0.9,1.4,0c2.2-3,4.3-6,6.4-9c0.7-1,1.2-2.2,2.4-2.9c0.4-0.2-0.1-0.4-0.2-0.5
		C42.8,31.5,44.8,31.5,46.9,31.5z"/>
	<path class="st0" d="M238.2,31.5c-0.3,0.2-0.5,0.4,0.1,0.5c1.3,0.1,1.3,0.2,1.3,1.4c0,1,0,2,0,2.9c0.1,0.8-0.3,1.1-1.1,1.1
		c-5.7,0-11.3,0-17,0c-1.3,0-1.3,0-1.3,1.3c0,2.4,0,4.8,0,7.2c0,0.8,0.3,1,1,1c4.5,0,9.1,0,13.6,0c0.9,0,1.2,0.2,1.2,1.1
		c-0.1,1.1,0,2.2,0,3.3c0,1.1-0.1,1.2-1.2,1.2c-4.5,0-8.9,0-13.4,0c-1.3,0-1.3,0-1.3,1.2c0,4.3,0,8.5,0,12.8c0,1.2,0,1.2-1.3,1.2
		c-1.4,0-2.7,0-4.1,0c-0.7,0-0.9-0.3-0.9-0.9c-0.3-9.9-0.1-19.7-0.1-29.6c0-1.4,0.2-2.9,0.1-4.3c0-0.5,0.7-1,0.1-1.5
		C222.1,31.5,230.1,31.5,238.2,31.5z"/>
	<path class="st0" d="M209.3,31.5c-0.3,0.1-0.6,0.2-0.9,0.3c0,0.1,0.1,0.2,0.1,0.2c1.6,0.2,1.6,0.2,1.6,1.8c0,0.9,0,1.9,0,2.8
		c0,0.7-0.2,0.9-0.9,0.9c-5.8,0-11.6,0-17.4,0c-1.4,0-1.3,0-1.4,1.4c-0.1,2.3-0.1,4.5-0.1,6.8c0,1.2,0,1.2,1.2,1.2
		c4.5,0,8.9,0,13.4,0c1.3,0,1.3,0,1.3,1.3c0,0.9,0.1,1.9,0.1,2.8c0,1.5,0,1.5-1.5,1.5c-4.3,0-8.7,0-13,0c-1.4,0-1.4,0-1.4,1.4
		c-0.2,4.3-0.1,8.7,0,13c0,0.6-0.2,0.8-0.8,0.8c-1.6,0-3.1,0-4.7,0.2c-0.6,0.1-0.9-0.3-0.9-0.9c0-0.3,0-0.6,0-0.8
		c0-10.5,0-21,0-31.5c0-1.1,0.3-2.1,0.2-3.2C192.6,31.5,200.9,31.5,209.3,31.5z"/>
	<path class="st0" d="M98.5,31.5c-0.4,0.3-1,0.1-1.4,0.5c0.8,0.1,1.7,0.1,2.5,0.2c3.1,0.5,6,1.5,8.4,3.7c3.9,3.5,3.4,10-0.6,13.5
		c-1.6,1.4-3.5,2.3-5.6,2.8c-0.8,0.2-0.9,0.5-0.4,1.1c2.1,2.9,4.2,5.8,6.2,8.7c1.2,1.7,2.4,3.3,3.6,5c0.1,0.2,0.4,0.4,0.2,0.7
		c-0.2,0.3-0.4,0.1-0.7,0.1c-1.7,0-3.3-0.1-4.9,0c-1.1,0.1-1.7-0.3-2.3-1.1c-1.1-1.6-2.3-3.2-3.4-4.8c-2-2.8-4-5.5-5.9-8.3
		c-0.6-0.8-1.2-1.2-2.2-1.1c-1,0.1-2,0-3,0c-0.7,0-1-0.3-0.9-0.9c0-1.4,0.2-2.7,0.1-4.1c0-0.7,0.5-0.6,0.9-0.6c3,0,6,0,9,0
		c1.5,0,2.9-0.4,4.3-1.2c2.9-1.6,2.5-5.7-0.1-7c-1.7-0.8-3.5-1.2-5.3-1.2c-3.5,0-7,0-10.5,0c-2.3,0-2.4,0-2.3-2.3
		c0-1.1-0.3-2.3,0.3-3.4c0-0.1-0.1-0.3-0.2-0.4C88.9,31.5,93.7,31.5,98.5,31.5z"/>
	<path class="st0" d="M135.8,31.5c-0.2,0.1-0.3,0.2-0.5,0.3c0.1,0.1,0.2,0.1,0.3,0.1c1.6,0.2,1.6,0.2,1.6,1.8c0,7.4,0,14.8,0,22.2
		c0,2.4-0.5,4.8-1.7,6.9c-2.1,3.7-5.5,5.2-9.6,5.4c-4.8,0.3-8.8-1.4-12-4.9c-0.5-0.6-0.5-0.9,0-1.4c1-1,2-2,2.9-3
		c0.4-0.4,0.7-0.4,1.1,0.1c2.1,2.5,4.7,3.9,8.1,3.3c2.3-0.4,3.9-2,4.3-4.3c0.3-1.9,0.4-3.8,0.3-5.8c-0.1-2.6,0-5.1,0-7.7
		c0-3.9,0-7.7,0.1-11.6c0-0.5,0.2-0.9,0.7-1.3c-0.4-0.1-0.7-0.2-1-0.3C132.2,31.5,134,31.5,135.8,31.5z"/>
</g>
</svg>
